<?xml version="1.0" encoding="utf-8"?>
<!-- Generator: Adobe Illustrator 26.3.1, SVG Export Plug-In . SVG Version: 6.00 Build 0)  -->
<svg version="1.1" id="Ebene_1" xmlns="http://www.w3.org/2000/svg" xmlns:xlink="http://www.w3.org/1999/xlink" x="0px" y="0px"
	 viewBox="0 0 512 512" style="enable-background:new 0 0 512 512;" xml:space="preserve">
<style type="text/css">
	.st0{fill:#FEFEFE;}
	.st1{fill:#1D1D1B;}
	.st2{fill:#A6ADAE;}
	.st3{fill:#E64BB5;}
	.st4{fill:#A7ACAE;}
	.st5{fill:#F7F0F5;}
	.st6{fill:#F3F4F4;}
	.st7{fill:#E5E7E7;}
	.st8{fill:#E150B3;}
	.st9{fill:#E6E6E6;}
	.st10{fill:#494B4A;}
	.st11{fill:#373937;}
	.st12{fill:#CA78B3;}
	.st13{fill:#E3E5E5;}
	.st14{fill:#242422;}
	.st15{fill:#F5CBE9;}
	.st16{fill:#393537;}
	.st17{fill:#D4D2D6;}
	.st18{fill:#CB78B4;}
</style>
<rect class="st0" width="512" height="512"/>
<g>
	<path class="st1" d="M351.8,465c-1,0-1.9,0-2.9,0c-1.7-1.1-3.5-1.5-5.5-1.5c-59.2,0-118.5,0-177.7,0c-2,0-3.8,0.3-5.5,1.5
		c-1,0-1.9,0-2.9,0c-30-8.6-40.3-30.7-40.4-59.5c-0.2-100.5,0.2-201-0.3-301.6c-0.1-25,16.5-55.5,40.2-55.5c17.5-0.9-6-0.8,52.7-1.5
		c48.4,0,96.7,0,145.1,0c27.9,8.9,40.4,24.4,40,54.3c-0.5,45.9,2.8,91.8-2.4,137.7c-1.7,15.5,3,31.5,2.8,47.6
		c-0.5,37.7-0.2,75.5-0.2,113.2c0,4.8,0.1,9.7-0.2,14.5C393.1,441.2,380.6,456,351.8,465z"/>
	<path class="st1" d="M160.2,465c1.5-3.3,4.5-3.1,7.4-3.1c57.4,0.1,114.9,0.1,172.3,0.2c3.2,0,6.9-0.9,9,2.9
		C286,465,223.1,465,160.2,465z"/>
	<path class="st2" d="M352.2,227.4c-2.7,7.2-10.7,7.2-16,11.9c2.4,1.7,4.7,3.4,7,5c-3.3,4.9-1.3,8.8,2,12.9c4.9,6.1,8.1,13.2,8,21.3
		c-0.5,48.7,1.5,97.4-1.1,146.1c-4.8,7.8-12.8,7.8-20.4,7.8c-50.7,0.1-101.5,0.2-152.2,0c-16.4-0.1-25.4-7.1-25.4-21.4
		c-0.2-58.4,0.2-116.9,0.4-175.3c11.7-6.7,24.5-5.3,36.7-3.4c10.8,1.6,15.7,9.8,15.5,21.2c-0.4,27.5,0.3,55.1-0.3,82.3
		c0.6-29.1,0.1-58,0.2-86.9c0-4.7-1.8-9.7,2.7-13.6c1.7-0.6,3.1-0.2,4.4,1.1c3.7,23.5,0.8,47.1,1.6,70.7c0.3,8,0,16.1-0.1,24.2
		c1.2-46.8-0.9-93.6-1.2-140.4c0-6.6-1.6-13.7,4.2-19.1c16.4-0.5,21.5,4.4,21.6,22.5c0.3,55,0.1,109.9,0.1,164.9
		c0,7.3,0,14.5,3.4,21.1c2,2.9,4.4,4.4,5.9-0.1c1.9-5.6,1.2-11.5,1.2-17.3c0.1-49.8,0-99.6,0.1-149.4c0-6.3-0.4-12.6,1-18.8
		c1.9-8.8,6.4-13,15.5-8c7.2,6.9,4.8,16,5.7,24.3c0.7,7.1,0,15.1,10.3,16c10.5,0.9,11.2-6.5,12-14c0.3-2.9,1-5.7,2.6-8.1
		c5.3-4.9,9.9-0.7,14.3,1.4c12.4,6.1,24.6,12.7,37.5,17.8C350.6,224.9,351.6,226,352.2,227.4z"/>
	<path class="st3" d="M266.5,189.2c-12.4-5.1-10.9,3.9-10.9,11c-0.1,56.3,0,112.7-0.1,169c0,4.8,0.1,9.7-0.5,14.4
		c-0.7,4.8-2.3,10.1-8,10.7c-7.3,0.7-8.3-4.9-8.5-10.6c-2.6-5-1.3-10.5-1.3-15.7c-0.1-57.5-0.5-115.1,0.2-172.6
		c0.2-14.2-3.4-23.4-17.8-26.7c-9-10-1.3-22.2-4.4-30.4c-1.1,8.3,2.1,19.4-1.6,30.2c-1.1,0.9-2.3,1.3-3.7,1.1
		c-8.3-7.1-0.7-16.3-3.3-23.2c-0.2,2.8,0.5,6.7-0.9,10.4c-6.3,4.8-9.3,11.8-12,19c-9,8-17.6,5-20.6-4.5
		c-3.7-11.7-12.3-19.2-18.6-28.6c-1.3-5.4,1.4-9.1,5.2-12.4c15.4-13.4,30.8-26.7,46.2-40.1c8.4-5.4,17.6-7.2,27.5-7.1
		c30.3,0.2,60.7-0.1,91,0.1c19.2,0.1,28.7,9.2,28.8,28c0.2,32.8,0.1,65.5,0.1,98.3c0,6.3,0.1,12.6-5,17.5
		c-17.2-4.7-32.7-12.9-47.2-23.3c-6.7-2.1-5.8-8.2-6.4-13.1c-0.8-7.2,0.2-14.5-0.5-21.7c-0.7-7.5,2.7-18.6-9.4-19.4
		c-13.1-0.9-11,10.4-12,18.7C272,175.6,274.7,184.1,266.5,189.2z"/>
	<path class="st4" d="M154.5,142.9c11.4,5.1,21.8,10,21.6,26.1c-0.1,8,7.7,11.4,15.8,5.5c3.8-4.4,0.7-17.8,13.5-10.4
		c5.2,16.8,1.3,34.2,3,51.2c-1.1,6.3-5.3,9.1-11.2,9.9c-9.6-0.6-19.7,3.1-28.7-3.4c-11.2-2.2-15.5-8.7-15-20.3
		C154.6,181.9,154.3,162.4,154.5,142.9z"/>
	<path class="st5" d="M348.2,227.1c0.2-39.1,0.5-78.3,0.4-117.4c0-13.6-7.3-21.7-19.9-21.8c-36.7-0.3-73.4-0.2-110.2,0.1
		c-4.3,0-8.5,1.5-12.7,2.4c6.3-8.6,15-11.2,25.2-11.2c34.3,0.1,68.6-0.2,102.9-0.2c16.4,0,23.7,7.2,23.8,23.9
		c0.2,36.2,0,72.5,0.1,108.7c0,6.1-1.1,11.5-5.6,15.8C350.9,227.3,349.5,227.2,348.2,227.1z"/>
	<path class="st6" d="M352,424.6c-5.3-4-3.1-9.7-3.1-14.7c-0.2-39.9-0.1-79.9-0.1-119.8c0-24.2-2-28.2-21.3-42
		c4.1-6.1,10.3-3.4,15.7-3.8c10.5,6.4,14.6,16.1,14.6,28.1c-0.1,45-0.1,90,0,134.9C357.8,413.8,357.1,419.9,352,424.6z"/>
	<path class="st7" d="M204.1,360.3c-0.1-34.6-0.2-69.1-0.4-103.7c-0.1-15.6-5.1-20.8-20.4-21.1c-9.6-0.2-19.2,0.1-28.8,0.1
		c0.2-7.7,7.6-5.9,11.6-8.7c12.3-5.2,24.9-2.7,37.5-2c2.7,1.3,4.4,3.4,5.2,6.3c-1.4,38.6-0.1,77.2-0.8,115.9
		C207.8,351.5,211.7,357.9,204.1,360.3z"/>
	<path class="st8" d="M194.3,88.4c-12.3,11.2-24.7,22.4-40.4,36.7c0.8-15.9-3.6-28.2,5.2-39.6C171,84.5,183.3,78.6,194.3,88.4z"/>
	<path class="st9" d="M194.3,88.4c-11.7-1.6-23.9,3.3-35.2-2.9c11-11.5,25.1-4.8,37.7-5.9C201.4,79.1,201.6,80.7,194.3,88.4z"/>
	<path class="st10" d="M203.7,227.1c-12.6-0.1-25.1-0.1-37.7-0.2c0.8-1.7,1.7-3.5,2.5-5.2c9.9,0,19.8-0.1,29.7-0.1
		C200.1,223.4,205.5,221.7,203.7,227.1z"/>
	<path class="st1" d="M300.7,309c0,14.5-0.1,28.9,0,43.4c0.1,11.6-6.2,14.7-16.7,14.6c-10.1-0.1-17-2.4-16.9-14.3
		c0.2-28.9,0.2-57.8,0-86.7c-0.1-11.8,6.6-14.6,16.7-14.7c10,0,17.1,2.6,16.9,14.4C300.5,280.1,300.7,294.6,300.7,309z"/>
	<path class="st1" d="M266.5,189.2c0.2-10.6,0.6-21.2,0.7-31.8c0.1-12.2,7.9-13.7,17.6-13.8c9.6,0,15.9,3,15.9,13.9
		c0,15.4,0.2,30.8,0.4,46.2c-0.1,3.9-0.5,7.7-0.3,11.6c0.9,12.3-4.3,17.5-16.9,17.5c-12.7,0-17.3-5.5-16.8-17.6
		C267.5,206.6,266.7,197.9,266.5,189.2z"/>
	<path class="st11" d="M218.4,171.9c0,60.4,0,120.9,0,181.3c-2,0-4,0-6,0c0-39.2,0-78.3,0-117.5c-3.2-8.9-0.1-18.7-3.7-27.6
		c-0.2-11.5-2-23.1,1.2-34.5c1.5-2.3,3.5-3.5,6.3-3.1C217,171,217.7,171.5,218.4,171.9z"/>
	<path class="st12" d="M218.4,166c16,1.8,21,10.7,20.8,26.6c-0.9,63.7-0.5,127.4-0.6,191.1c-4.3-5-2.6-11-2.6-16.6
		c-0.1-56.3-0.5-112.6,0.2-168.9c0.2-14.2-3.4-23.2-17.8-26.4c0,0-1.3,0.2-1.3,0.2C216.2,169.8,216.6,167.7,218.4,166z"/>
	<path class="st13" d="M204.1,360.3c4.1-4.5,2.5-10.1,2.5-15.3c0.1-38.2,0.1-76.4,0-114.6c4.8-1.3,4.2,1.6,3.5,4.6
		c-0.2,38.6-0.3,77.2-0.9,115.9C209.2,354.1,213.7,361.7,204.1,360.3z"/>
	<path class="st14" d="M210.1,235c-1.2-1.5-2.3-3.1-3.5-4.6c-1-1.1-2-2.2-2.9-3.3c-1.8-1.8-3.6-3.7-5.5-5.5c3.2-1.4,7.2-1.5,8.9-5.4
		c0-0.6-0.1-1.2-0.1-1.9c0.7-2.7,2.3-4.4,5.1-4.8c4.8,8.7,4.6,17.5,0.1,26.2C211.7,235.3,210.9,235,210.1,235z"/>
	<path class="st15" d="M207.2,216.2c-7.2-10.9-2-23.1-3.4-34.6c-0.7-6.1-0.4-12.4-0.6-18.5c-1.3-2-1.3-4-0.1-5.9
		c0-10.1,0-20.3,0-30.4c1.6,0,3.3,0,4.9,0c2.8,13.6,0.7,27.6,1.6,41.3c-1.4,15.9,2.6,32.1-2.7,47.8L207.2,216.2z"/>
	<path class="st16" d="M218.4,166c-0.4,2-0.9,4-1.3,6.1c-1.5-0.1-3-0.2-4.6-0.2c-1.2-1-1.5-2.2-1-3.7c0-16.6,0-33.2,0-49.9
		c1.4-0.1,2.8-0.1,4.3-0.2C220.4,133.7,215.7,150.2,218.4,166z"/>
	<path class="st17" d="M211.5,168.1c0.3,1.2,0.7,2.5,1,3.7c-0.1,12.6-0.2,25.1-0.2,37.7c-1.7,2.1-3.5,4.2-5.2,6.3
		c0.9-15.9-3.7-32.2,2.7-47.8C210.3,168.4,210.9,168.4,211.5,168.1z"/>
	<path class="st18" d="M203.2,157.1c0,2,0,4,0.1,5.9c-7.7-0.1-6.9,8.3-11.4,11.4C192.8,166.8,191.6,157.8,203.2,157.1z"/>
</g>
</svg>
