<?xml version="1.0" encoding="utf-8"?>
<!-- Generator: Adobe Illustrator 26.3.1, SVG Export Plug-In . SVG Version: 6.00 Build 0)  -->
<svg version="1.1" id="Ebene_1" xmlns="http://www.w3.org/2000/svg" xmlns:xlink="http://www.w3.org/1999/xlink" x="0px" y="0px"
	 viewBox="0 0 512 512" style="enable-background:new 0 0 512 512;" xml:space="preserve">
<style type="text/css">
	.st0{fill:#1D1D1B;}
	.st1{fill:#A6ADAE;}
	.st2{fill:#E64BB5;}
	.st3{fill:#FBFBFB;}
	.st4{fill:#E74BB6;}
	.st5{fill:#181A16;}
	.st6{fill:#F9F9F9;}
	.st7{fill:#F7F8F8;}
	.st8{fill:#CB63BC;}
	.st9{fill:#EEEFEF;}
	.st10{fill:#232321;}
	.st11{fill:#D664B3;}
	.st12{fill:#C977B2;}
	.st13{fill:#EAD7E5;}
	.st14{fill:#65AAE2;}
	.st15{fill:#A5ACAD;}
	.st16{fill:#2ED8F3;}
	.st17{fill:#F4E4F0;}
	.st18{fill:#D950B9;}
	.st19{fill:#EFEFEF;}
	.st20{fill:#FAFEFE;}
	.st21{fill:#080806;}
	.st22{fill:#051707;}
	.st23{fill:#061507;}
	.st24{fill:#E0EAEA;}
	.st25{fill:#4A4C4C;}
	.st26{fill:#FEFEFE;}
	.st27{fill:#F6F3F5;}
	.st28{fill:#C77CB2;}
	.st29{fill:#E8D4E3;}
	.st30{fill:#D36BB4;}
	.st31{fill:#F8F1F7;}
	.st32{fill:#B992B1;}
	.st33{fill:#32D3EF;}
	.st34{fill:#B0D4DC;}
	.st35{fill:#B794B1;}
</style>
<g id="BoredDavid">
	<g>
		<rect class="st0" width="512" height="512"/>
		<path class="st1" d="M234.2,234.2c-3.2,4.2-8.4,4.4-12.9,6.9c1.7,1,3.3,1.9,4.8,2.8c-2.3,3.1-4.1,5.6,0.4,8.9
			c8.7,6.4,11.3,15.9,11.3,26.3c0.1,36.1,0,72.3,0.1,108.4c0,5.9-2,11-4.5,16c-3.5,4-8.2,3.7-12.8,3.7c-44.5,0-89.1,0.1-133.6,0
			c-14.1,0-21.1-6.9-21.2-20.6c-0.1-49.5,0.1-99,0.1-148.5c11.4-5.7,23.5-3.8,35-1.9c7.6,1.2,10.2,8.3,10.2,16.2
			c-0.2,25.9-0.1,51.8-0.1,77.8c0-27.2,0-54.4,0-81.7c0-3.6-0.7-7.4,2.3-10.3c6.8,0,4.5,5.4,4.5,8.5c0.2,25,0.1,50,0.1,74.9
			c0-55.5-0.2-111,0-166.6c0,18,0.1,36-0.1,54c0,3.4,1.5,7.6-3.4,9.4c-3.9-2.6-2.4-6.6-2.5-10.1c-0.1-17.6-0.1-35.3-0.1-49.2
			c0.7,18.6-1.2,41,0.9,63.3c-2.1,6.2-6.9,5.3-11.8,4.6c-7.7-0.6-15.5,1.1-23.2-0.9c-9-2.1-13-7.1-12.5-17
			c0.8-16.2,0.2-32.5,0.2-48.8c0-4.4,0.2-8.6,3.9-11.8c13.3-11.4,25.5-24.1,39.7-34.5c5.6-4,11.8-5.9,18.6-5.8
			c28.9,0.2,57.7-1.8,86.6-1.1c13.2,0.3,22.5,7.9,22.9,21.2c1,31.5,0.6,63.1,0.2,94.6C237.7,226.9,235.8,230.5,234.2,234.2z"/>
		<path class="st2" d="M315.5,264.9c-11.2,6.5-23.1,4.8-34.5,1.7c-5.3-1.5-9.2-6.5-9.2-13c0.1-45.1,0.3-90.3,0.5-135.4
			c12.9-7.6,36.4-4.8,50.5,5.6c13.3,9.7,21.2,23.4,27.9,37.8c4,8.7,7.9,17.4,13.5,25.3c1.2,6.8,0.9,13.7,2.8,20.4
			c0.1,28.3,0.1,56.6,0,84.8c0,13-0.3,25.9,2.5,38.7c-5.1,15.5-12.8,29.4-23.9,41.5c-3.6,1.4-6.5-0.1-8.9-2.6
			c-2.4-2.4-4.9-4.4-7.9-6c-13.1-7.2-13.2-9.2-1.4-18.8c5-4,4.6-8.8,1.3-13.1c-4.1-5.5-4.6-11.5-4.7-17.9
			c-0.2-14.6,1.9-29.3,0.6-43.6c-1.9-22.8-1-45.6-1.7-68.2c-0.1-0.1,0-0.4-0.2-0.6c0.5,1.2-0.3-0.3,0.2,1
			c0.2,15.3,0.1,30.6,0.1,45.8c0,3.6,0.5,7.3-1.5,10.7c-0.4,0.4-0.9,0.8-1.3,1.2c-0.7,0.2-1.4,0.4-2.1,0.6c-5.5-1-3.8-5.5-3.9-8.7
			c-0.2-10.9-0.1-21.9-0.1-30.2C315,234.4,312.2,249.8,315.5,264.9z"/>
		<path class="st2" d="M441.7,406.8c-15.8,6-31.8,3.5-47.9,1.1c-4,1-6.1-1.8-8-4.5c-6.6-9.1-14.1-17.5-21.6-25.8
			c-3.8-4.2-6.2-9.1-3.8-14.5c5.3-12,10.8-24.1,20-33.8c4.8,0.3,9-0.7,11.8-5.1c1.9-2.1,4.2-3.8,5.8-6.2c2.2-14.2,0.5-28.4,1-42.6
			c0.1-3.6-0.4-7.3,0.5-10.9c1.1-4.8,4.3-6.7,7.4-2.2c13.1,18.4,29.4,34.8,38.4,56.1c1.3,25.4,0.4,50.9,0.5,76.3
			C445.8,399.1,443.6,402.9,441.7,406.8z"/>
		<path class="st3" d="M441.7,406.8c0-30.3,0-60.5,0-90.8c-0.9-4.6-1.8-9.3-3.2-13.8c1.1-5.3-1-10.6-0.4-15.9
			c-1-32.5,2.6-65.3-2.1-97.6c-6.4-43.7-32.7-71.4-78.4-75.8c-25.5-2.4-51.1-2.7-76.7-0.9c-2.4-0.2-4.8-0.4-5.5-3.3
			c4-5.7,9.6-7.5,16.4-7.5c22.3,0.2,44.6,0,66.9,0.1c47.4,0.2,81.4,29.6,89,76.3c1.8,11.2,2.5,22.5,2.5,33.8
			c0.1,58.5,0,117.1,0.1,175.6C450.3,394.9,449.7,402.4,441.7,406.8z"/>
		<path class="st4" d="M279.5,406.1c-5.7-3.5-7.7-9.1-7.7-15.2c-0.1-35.8-0.1-71.6,0-107.3c0-1.2,0.9-2.4,1.4-3.5
			c9.3-4.8,19.4-3.5,29-2.5c7.5,0.8,12.4,6,12.6,14.1c0.1,4.2,0.7,8.6-0.7,12.7c-12.6,9.4-12.4,23.8-14.6,37.3
			c-0.4,2.5,1.2,4.4,2.6,6.2c4.6,6,4.3,11.5-1.6,16.5c-9.9,8.5-14.9,19-13.8,32.4C287.1,401.2,288.1,407.9,279.5,406.1z"/>
		<path class="st5" d="M381.3,330.2c-5.8,10.4-11.6,20.8-17.4,31.2c-2,3.6-3.5,6.9-0.1,10.9c10.2,11.8,20,23.8,30,35.7
			c-4.2,4.4-7.1,0.1-10.3-1.7c-6.3,0.5-9-4.7-12.5-8.3c-3.7-3.7-6.6-8.1-10.3-11.9c-3.9-4.1-7.9-5.7-12.8-1.8
			c-4.1,2.7-8.5,5-11.9,8.6c-0.7,0.6-1.4,1.2-2.2,1.6c-6.2,3.9-12.4,8.2-19.8,9.7c-3.2,0.7-6.5,1.7-9.7-0.1c-3,2.5-4.4,9.2-10.3,4
			c-1.9-3.9,1.2-6.5,2.6-9.5c2.5-3.2,5.6-6,9.5-6.5c9.9-1.3,17.5-6.7,25.2-12.2c3-1.3,5.1-3.8,7.8-5.5c2.9-1.1,6.1-1.5,8.4-4.1
			c7.8-11.8,14.5-24.3,21.4-36.6c3-6.6,0.7-13.2,0.1-19.8c-0.1-44.5,0-88.9,0-133.3c0-7.6,0.3-14.9,9.4-17.6
			c9.8-2.9,18.3,0.1,24,8.5c1.3,26.8,0.2,53.6,0.6,80.3c-4,22.4-1,45-2.3,67.4c-5.8,1.6-5.3-3.3-6.1-6.2c-1.1-4.2-0.5-8.6-0.6-12.9
			c-0.6-25.3,0.5-50.6-0.9-75.9c-0.7-12.2,1.1-24.6,0.9-36.9c-0.1-3,0.1-6-1.2-8.8c-1.5-3.1-4.2-4.1-7.4-3.8c-3.2,0.3-4.5,2.4-5,5.3
			c-0.4,2.6-0.3,5.3-0.3,8c0,39,0.2,77.9-0.2,116.9c-0.1,7.9,3.8,14.7,3.8,22.4C383.2,328.5,382.4,329.5,381.3,330.2z"/>
		<path class="st6" d="M234.2,234.2c0-33.5,0-66.9-0.1-100.4c0-17.4-5.9-23.4-23.4-23.2c-29.2,0.3-58.5,0.7-87.7,1.2
			c-4.6,0.1-9.1,1.4-13.7,2.2c5.6-7.5,13.2-10.5,22.4-10.5c29.9,0,59.8-0.3,89.7-0.4c13.6,0,20.2,6.4,20.3,20.1
			c0.2,31.6,0,63.1,0.1,94.7C242.1,224.8,239.6,230.1,234.2,234.2z"/>
		<path class="st7" d="M233.4,403.5c1.7-43.2,0.6-86.4,0.6-129.6c0-12.9-8.4-20.4-20.4-24.6c3.5-4.2,8.3-4.3,12.6-5.4
			c11,4.8,15.9,13.5,15.9,25.2c0,38.9-0.1,77.9,0.1,116.8C242,393.5,240.4,399.7,233.4,403.5z"/>
		<path class="st8" d="M347.5,372.3c-2.3,1.5-4.6,2.9-6.9,4.4c-2.8,0.4-5.3-0.2-7.2-2.3c-7.6-8.6-17-9.8-26.8-5.2
			c-10.6,4.9-14.3,14.7-15.5,25.6c-0.5,4.8,1.3,9.9-1.3,14.6c-4,0.9-7.3-0.5-10.2-3.2c5.1-1,4.7-5.1,4.3-8.7
			c-1.5-14.5,3.8-26,14.7-35.1c4.5-3.8,6.4-7.2,1-12.1c-5.7-5.2-1.9-11.7-1.9-17.8c0-7.2,3.1-13.6,4.8-20.3c0.9-3.8,3.3-8.4,9.3-6.2
			c2.4,1.8,2.6,4.3,2.1,7c-3.6,6.1-8.6,11.6-9.6,19.1c-0.5,4.2-0.7,8.1,3.3,10.5c3.5,2.1,7.2,3,11.2,0.8c4.1-2.3,6.6-5.4,6.1-10.3
			c-0.5-4.2-1.7-8.4-1.9-12.7c0.5-13.5-1.1-27,0.9-40.4c0-6,0-12,0-18.1c-2.6-3.5-1.8-7.6-1.9-11.4c-0.1-14.1-0.1-28.2,0-42.4
			c0-3.5-0.9-7.4,2.6-10c2.1,3.4,1.3,7.1,1.3,10.7c0.1,34.3,0.1,68.6,0,102.9c0,6.4,1,12.2,5.2,17.7c5.7,7.5,3.8,14-4.3,19.1
			c-8.1,5.1-8.5,7.4,0.1,10.5c7.2,2.5,9.9,12,18.8,10.9C347,370.2,347.7,370.9,347.5,372.3z"/>
		<path class="st9" d="M114.3,237.8c0,36.3,0,72.7,0,111.6c-6.7-4.5-5.8-8.7-5.8-12.2c-0.1-27.9,0-55.8-0.1-83.7
			c0-11.4-4.1-15.6-15.6-15.7c-9-0.1-17.9,0.2-26.9,0.3c-0.3-4.4,3.5-4.7,6.1-6.1c9.2-2.7,18.9,0.7,28.2-1.9
			c1.3-0.1,2.5-0.3,3.8-0.4C111.1,227.9,115.4,229.4,114.3,237.8z"/>
		<path class="st10" d="M114.3,237.8c-1.2-5.4-5.7-6.8-10.2-8.1c-0.6-0.6-1.2-1.1-1.8-1.6c-1.3-0.6-1.4-1.2-0.1-1.9
			c3.3-1.1,7.4-0.6,9.4-4.4c-0.7-2.2-0.6-3.9,2.2-4.3c4.3-2.4,2.5-6.5,2.6-9.9c0.2-20.3,0-40.6,0.1-60.9c0-3.4-0.8-7.1,3.2-12.3
			c0,70,0,137.6,0,206.9c-4.2-4.3-3.2-8.1-3.2-11.4c-0.1-27.3,0-54.6-0.1-81.9C116.4,244.6,117.8,240.6,114.3,237.8z"/>
		<path class="st11" d="M275.5,108.7c1.6,0.3,3.1,0.5,4.7,0.8c8.5-0.9,17-0.2,25.5-0.4c17.5,5.3,30.6,15.9,40,31.8
			c6.4,10.8,11.4,22.3,17,33.5c2,4,3.1,8.1-1,11.7c-4.9-0.9-5.5-5.4-7.2-8.8c-7.8-14.9-13.4-30.9-25.5-43.6
			c-12-12.7-26.2-17.1-43-16c-4.6,0.3-9.3,0.4-14,0.6C272.7,114.8,272.8,111.3,275.5,108.7z"/>
		<path class="st12" d="M324.8,324c6.1,16.8,0.3,26.2-14.6,23.9c-5.5-0.9-10-4.3-9.7-9.5c0.5-9.4,1.2-19.3,11.5-24.4
			c5.2,4,2.2,9.8,3,13.6c0.8-12.6-0.6-26.2-1-39.9c-0.1-3.5-1.2-7.5,4.1-8.4c3.8,3,2.1,7.3,2.4,11c0.9,14-1.7,28,1.4,41.9
			C325.1,330.3,320.4,325.6,324.8,324z"/>
		<path class="st13" d="M318,279.3c-4,13.5,0.7,27.1-0.2,40.6c-0.4,5.6,0,11.3-0.1,17c0,1.8-0.9,3.6-2.7,3.6c-1.9,0-2.7-1.8-2.7-3.6
			c-0.2-7.6-0.2-15.3-0.3-23c0-2.7,0-5.3,0-8c0.1-2.6,0.3-5.3,0.3-7.9c0.2-14.2-3.1-17.5-17.3-17.7c-7.2-0.1-14.5-0.2-21.7-0.4
			c2.1-5.1,6.9-5.9,11.5-6.4c7.9-1,15.8,0,23.8-1.2C312.9,271.7,316.8,274.3,318,279.3z"/>
		<path class="st14" d="M289.8,409.3c-3.7-11-2-21.7,2.9-31.7c7.6-15.4,28.5-18.6,41.2-6.9c2.2,2,4.4,3.9,6.7,5.9
			c-2.3,1.6-4.5,3.2-6.8,4.8c-2.5-0.9-4.6-2.6-6.7-4.3c-6.6-5-13.5-5.2-20.2-0.2c-7.6,5.7-10.9,14.8-8.4,22.8
			c-1.5,2.7-3,5.5-4.6,8.2C292.5,408.5,291.1,408.9,289.8,409.3z"/>
		<path class="st15" d="M100.1,112.1c-10.8,9.6-21.5,19.3-32.3,28.9c-0.9-11.1-4.8-21.7,1.9-31.3C80,108.8,90.5,104.9,100.1,112.1z"
			/>
		<path class="st16" d="M348.1,409.6c-12.4,0.3-24.9,0.9-37.3-0.3c-0.3-6.4,5.9-5.5,9-8.1c5.2-2.4,9.7-5.8,14.1-9.5l-0.1,0
			c3.9-0.9,6.5-6,11.5-3.7C350,394.7,353.2,401.6,348.1,409.6z"/>
		<path class="st17" d="M345.9,382.5c6.3-7.3,11.2-6.6,17.2,1.2c6.2,8,12.5,16.2,20.5,22.6c-2.2,7.9-7.9,2.8-12.1,3.3
			c-11.3-5.2-16.3-17-25.5-24.4C345.5,384.3,345.5,383.4,345.9,382.5z"/>
		<path class="st18" d="M346.1,383.3c11.4,6,17.3,17.1,25.4,26.3c-7.8,0-15.6,0-23.4,0c-0.1-7.5-2.1-14.6-4.5-21.7
			C343.8,386.1,344.5,384.4,346.1,383.3z"/>
		<path class="st19" d="M100.1,112.1c-10.1-1.7-20.6,2.7-30.4-2.4c4-6.2,10.2-6.1,16.5-6c6.7,0.2,13.3,0,20.4,0
			C105.6,108.8,102.6,110.2,100.1,112.1z"/>
		<path class="st20" d="M315.5,264.9c-2.5-1.2-2.9-3.3-2.9-5.8c0-17.3,0-34.6,0.1-51.9c0-1.3,0.2-2.7,3-3.2c1.7,5.9,0.5,12.1,0.9,18
			c0.8,12.9-1.7,25.9,1.4,38.7C317.1,262.1,316.3,263.5,315.5,264.9z"/>
		<path class="st21" d="M368.4,99.5c-27.2,0-54.3,0-81.5,0c0-0.3,0-0.6,0-0.8c27.5,0,54.9,0,82.4,0C369,98.9,368.7,99.2,368.4,99.5z
			"/>
		<path class="st22" d="M324.6,198.1c-0.2,21.3-0.5,42.6-0.7,63.8c-1.3-0.6-2.5-1.3-3.8-1.9l0-0.1c2-16.4,0.3-32.9,1-49.4
			c0.2-4.2-1-8.6,0.9-12.7C323,195.8,323.7,197.8,324.6,198.1z"/>
		<path class="st23" d="M324.8,324c-1.9,2.4,2.4,7-2.9,8.3c0.1-13.9,0.1-27.8,0.3-41.8c0-3.5-1-7.4,1.7-10.5
			C324.2,294.7,324.5,309.3,324.8,324z"/>
		<path class="st24" d="M321.1,402.1c-3.4,2.4-6.8,4.8-10.3,7.2c-4,0.5-8.8,2-6.5-5.3c2.8-2.1,5.9-2.9,9.4-2.5
			C316.2,400.8,318.7,400.3,321.1,402.1z"/>
		<path class="st25" d="M100.3,230.1c-9.2,2.9-18.8,0.6-28.2,1.9C81.2,227.4,90.8,229.8,100.3,230.1z"/>
		<path class="st25" d="M102.2,226.2c0,0.6,0,1.2,0.1,1.9c-8-0.9-16.4,1.9-24.2-2C86.1,226.1,94.2,226.2,102.2,226.2z"/>
		<path class="st0" d="M192.8,302.3c0,12.3-0.1,24.6,0,36.9c0.1,9.9-5.6,12.3-14.2,12.2c-11.4-0.2-14.9-2.6-15-12.4
			c-0.2-24.9-0.2-49.9,0-74.8c0.1-10.2,3.1-12.5,14.7-12.5c11.6,0,14.3,2.3,14.5,12.6C192.9,277,192.8,289.7,192.8,302.3z"/>
		<path class="st0" d="M163.5,196c0-8.3,0.1-16.6,0-24.9c-0.1-10,5.9-11.9,14.4-11.9c8.1,0.1,14.9,1,14.9,11.3c0,17.9,0,35.8,0,53.7
			c0,10.2-6.6,11.5-14.8,11.5c-8.4,0-14.5-2-14.5-11.9C163.6,214.6,163.5,205.3,163.5,196z"/>
		<path class="st26" d="M113.8,217.5c-0.8,1.4-1.5,2.9-2.2,4.3c-0.7-0.6-2.1-1.1-2.1-1.7c0-24.6,0.2-49.1,0.3-73.7
			c0-0.8,0.7-1.6,1.1-2.4c1,0,1.9,0,2.9,0.1C113.8,168.5,113.8,193,113.8,217.5z"/>
		<path class="st27" d="M371.6,318.1c4.5,5.7,4,11.1-1.2,16c-0.9,0.8-1.8,0.7-2.6-0.2c-3.4-5.9-4.2-12.2-4.2-19
			c0.1-36.4-0.1-72.8-0.2-109.2c-1-9.7-0.2-19.4-0.4-29.1c1.6-3.4,3-7.5,7.8-3.2c0.3,44.6,0,89.2,0.1,133.8
			C371,310.8,370.4,314.5,371.6,318.1z"/>
		<path class="st28" d="M364.3,176.7c-0.3,9.7-0.6,19.4-0.9,29c-2.8-6.4-0.7-13.1-1.5-19.6c-0.5-14.1-9.1-25-14.7-37.1
			c-7.3-15.8-19.3-27.2-34.9-34.9c-1.7-0.8-2.9-2.6-4.3-3.9c3.4-2.1,7.2-0.6,10.8-1c12.6,4.3,20.7,14.1,28.3,24.2
			c7.6,10.2,12,22.2,17.4,33.6C365.9,170.2,365.6,173.4,364.3,176.7z"/>
		<path class="st29" d="M367.8,334c0.9,0.1,1.7,0.1,2.6,0.2c-6.8,13.2-13,26.8-22.9,38.2c-0.6-0.8-1.2-1.6-1.8-2.4
			C353.9,358.4,358.7,344.9,367.8,334z"/>
		<path class="st0" d="M321.9,197.9c0.1,17.9,0.2,35.8,0.2,53.8c0,2.9,0.6,6.1-2,8.4c0.1-17.6,0.2-35.1,0.4-52.7
			C320.5,204.2,319.2,200.7,321.9,197.9z"/>
		<path class="st0" d="M381.9,327.7c-6.7-8.4-6.1-18.3-6.1-28.2c0.2-39.6,0.1-79.1,0-118.7c0-6-0.4-11.2,8.4-10.9
			c8,0.3,13.9,1.6,13.6,11.4c-0.4,14.2-1.9,28.7-1.2,42.6c1.2,22.3,0,44.5,1.2,66.6c0.5,9.8-2.2,19.8,1.8,29.5
			c0.6,0.5,0.9,0.9,0.6,1.3c-0.2,0.4-0.4,0.7-0.7,0.7c-2.1,1.3-4.1,2.7-6.2,4C389.9,328.2,386.3,330.4,381.9,327.7z"/>
		<path class="st30" d="M399.8,321.9c0-0.7,0-1.3,0-2c1.7-22.4,1-44.7,0.4-67.1c0.8-1.7,0.4-3.8,1.8-5.3c3.5-0.4,5.5,2.1,7.2,4.4
			c10.1,13.8,19.7,27.9,29.5,41.9c1.7,2.4,1.6,5.6,3.1,8.2c0,4.6,0,9.3-0.1,14c-11.3-15.7-22.7-31.5-34-47.2
			c-1.5-2.1-3.1-4.1-5.9-7.8c0,17.5,0.1,33.5-0.1,49.5C401.8,314.4,403.1,318.7,399.8,321.9z"/>
		<path class="st31" d="M381.9,327.7c3.5-3,7.5-2.9,11.6-1.7c-3.2,3.9-5.4,10.9-12.2,4.2C381.5,329.4,381.7,328.5,381.9,327.7z"/>
		<path class="st1" d="M320,110.2c-4,0-8,0-12,0c-9.3-0.2-18.5-0.4-27.8-0.6c30.8-1.4,61.9-4,92.3,2.1c37.6,7.5,60.9,33.8,67.2,74.8
			c5.1,33,1.8,66.4,2.1,99.6c-2.6,1.2-4.8,0-6.1-1.8c-13.1-16.8-26.2-33.6-34.8-53.4c-0.5-19.8,1-39.7-0.8-59.4
			c-6.3-10.1-16.2-4.8-24.4-4.9c-4.2,0-3.8,6.1-3.8,10.1c0,38.9,0,77.7,0,116.6c0,8.3-0.2,16.6-0.4,24.9c-2.5-3.6-1.4-7.7-1.4-11.6
			c-0.2-44.7-0.3-89.4-0.4-134.2c-4-2.4-5.4-6.6-7.1-10.5c-4.1-9.4-8.4-18.8-14-27.4C341.5,123.6,333.9,113,320,110.2z"/>
		<path class="st32" d="M401.7,233.9c5,0.9,6.2,5.6,8.7,8.9c10.7,14.2,18.2,30.8,31.5,43.1c0,5.4,0,10.7-0.1,16.1
			c-15.1-16.8-25.3-37.2-40.2-54.2C400.6,243.2,400.4,238.6,401.7,233.9z"/>
		<path class="st33" d="M298.5,399.8c-1.5,0.2-3.3,1.7-4.2-0.7c-3.1-8.3,5.3-23.7,15.1-27.9c9.9-4.2,19.1-0.4,24.4,10.2
			c-8.1,6.2-15.5,13.6-26.9,13.4C303.5,394.9,301,397.6,298.5,399.8z"/>
		<path class="st0" d="M401.7,233.9c0,4.6-0.1,9.3-0.1,13.9c-0.5,1.6-1,3.3-1.4,5c0-27.1,0-54.3,0-81.4c2.5,16.5,0.5,33.1,1.1,49.6
			C401.4,225.3,401.5,229.6,401.7,233.9z"/>
		<path class="st34" d="M321.1,402.1c-2.5-0.2-5-0.4-7.4-0.5c7.9-0.8,12.9-7.8,20.2-9.8C331.1,397.1,326.2,399.7,321.1,402.1z"/>
		<path class="st34" d="M346.1,383.3c0,2-0.5,3.7-2.5,4.6c-3,1.9-5.5,5.1-9.8,3.8c2.7-4.8,7.6-6.8,12.1-9.2
			C345.9,382.5,346.1,383.3,346.1,383.3z"/>
		<path class="st35" d="M320,110.2c16.8-4.2,22.3,9.9,29.4,19.5c9.4,12.7,15.9,27.3,20.5,42.6c-1.8,1.5-3.7,2.9-5.5,4.4
			c-8.9-24.1-18.8-47.4-41.2-62.7C321.8,113.1,321,111.5,320,110.2z"/>
	</g>
</g>
</svg>
