<?xml version="1.0" encoding="utf-8"?>
<!-- Generator: Adobe Illustrator 26.3.1, SVG Export Plug-In . SVG Version: 6.00 Build 0)  -->
<svg version="1.1" id="Ebene_1" xmlns="http://www.w3.org/2000/svg" xmlns:xlink="http://www.w3.org/1999/xlink" x="0px" y="0px"
	 viewBox="0 0 512 512" style="enable-background:new 0 0 512 512;" xml:space="preserve">
<style type="text/css">
	.st0{fill:#1D1D1B;}
	.st1{fill:#A6ADAE;}
	.st2{fill:#E64BB5;}
	.st3{fill:#FBFBFB;}
	.st4{fill:#E74BB6;}
	.st5{fill:#181A16;}
	.st6{fill:#F9F9F9;}
	.st7{fill:#F7F8F8;}
	.st8{fill:#CB63BC;}
	.st9{fill:#EEEFEF;}
	.st10{fill:#232321;}
	.st11{fill:#D664B3;}
	.st12{fill:#C977B2;}
	.st13{fill:#EAD7E5;}
	.st14{fill:#65AAE2;}
	.st15{fill:#A5ACAD;}
	.st16{fill:#2ED8F3;}
	.st17{fill:#F4E4F0;}
	.st18{fill:#D950B9;}
	.st19{fill:#EFEFEF;}
	.st20{fill:#FAFEFE;}
	.st21{fill:#080806;}
	.st22{fill:#051707;}
	.st23{fill:#061507;}
	.st24{fill:#E0EAEA;}
	.st25{fill:#4A4C4C;}
	.st26{fill:#FEFEFE;}
	.st27{fill:#F6F3F5;}
	.st28{fill:#C77CB2;}
	.st29{fill:#E8D4E3;}
	.st30{fill:#D36BB4;}
	.st31{fill:#F8F1F7;}
	.st32{fill:#B992B1;}
	.st33{fill:#32D3EF;}
	.st34{fill:#B0D4DC;}
	.st35{fill:#B794B1;}
</style>
<g id="BoredDavid">
	<g>
		<rect class="st0" width="512" height="512"/>
		<path class="st1" d="M234.21,234.19c-3.16,4.16-8.39,4.4-12.93,6.92c1.7,0.99,3.27,1.9,4.83,2.82c-2.32,3.05-4.14,5.55,0.35,8.88
			c8.7,6.45,11.32,15.9,11.34,26.35c0.06,36.13-0.02,72.27,0.08,108.4c0.02,5.9-1.96,10.96-4.5,15.99c-3.46,4.03-8.25,3.7-12.81,3.7
			c-44.53,0.05-89.05,0.1-133.58-0.01c-14.06-0.04-21.13-6.91-21.15-20.64c-0.06-49.5,0.07-99.01,0.12-148.51
			c11.37-5.71,23.48-3.75,35.03-1.93c7.62,1.2,10.22,8.34,10.16,16.23c-0.19,25.92-0.08,51.84-0.07,77.76
			c0-27.22-0.01-54.44,0.01-81.66c0-3.6-0.71-7.4,2.34-10.32c6.82-0.02,4.48,5.36,4.51,8.54c0.25,24.98,0.13,49.96,0.13,74.94
			c0.04-55.52-0.16-111.03,0.03-166.55c-0.03,17.99,0.06,35.97-0.1,53.96c-0.03,3.35,1.51,7.63-3.39,9.36
			c-3.88-2.59-2.43-6.61-2.46-10.05c-0.14-17.64-0.09-35.28-0.06-49.23c0.68,18.63-1.19,40.98,0.92,63.29
			c-2.09,6.22-6.95,5.32-11.75,4.58c-7.72-0.55-15.52,1.07-23.18-0.91c-9-2.14-13.02-7.12-12.52-17.04
			c0.82-16.22,0.24-32.51,0.22-48.78c-0.01-4.39,0.21-8.59,3.94-11.8c13.3-11.42,25.53-24.08,39.72-34.48
			c5.57-3.98,11.83-5.88,18.63-5.85c28.86,0.16,57.69-1.82,86.56-1.09c13.17,0.33,22.46,7.91,22.9,21.19
			c1.03,31.51,0.56,63.05,0.2,94.58C237.68,226.87,235.82,230.54,234.21,234.19z"/>
		<path class="st2" d="M315.49,264.94c-11.2,6.55-23.11,4.82-34.54,1.67c-5.26-1.45-9.25-6.49-9.23-12.98
			c0.14-45.14,0.32-90.28,0.49-135.43c12.92-7.57,36.38-4.78,50.48,5.55c13.29,9.74,21.2,23.38,27.86,37.82
			c4.02,8.7,7.92,17.39,13.48,25.26c1.16,6.78,0.89,13.74,2.83,20.42c0.14,28.28,0.09,56.56,0.03,84.83
			c-0.03,12.97-0.28,25.92,2.46,38.69c-5.08,15.46-12.78,29.43-23.88,41.46c-3.63,1.37-6.45-0.12-8.93-2.61
			c-2.35-2.36-4.9-4.36-7.85-5.99c-13.07-7.22-13.23-9.25-1.42-18.83c4.96-4.03,4.56-8.8,1.33-13.12c-4.1-5.48-4.6-11.48-4.67-17.85
			c-0.16-14.57,1.85-29.27,0.64-43.63c-1.91-22.82-0.97-45.59-1.74-68.21c-0.06-0.1-0.03-0.38-0.18-0.61
			c0.54,1.22-0.3-0.31,0.18,1.03c0.2,15.34,0.09,30.59,0.06,45.84c-0.01,3.6,0.52,7.34-1.55,10.66c-0.44,0.39-0.88,0.78-1.33,1.17
			c-0.69,0.19-1.38,0.38-2.07,0.57c-5.5-1.01-3.83-5.47-3.9-8.73c-0.22-10.92-0.08-21.85-0.08-30.24
			C314.97,234.39,312.17,249.77,315.49,264.94z"/>
		<path class="st2" d="M441.71,406.8c-15.82,5.99-31.83,3.47-47.85,1.13c-4.05,0.98-6.14-1.83-8.05-4.46
			c-6.63-9.1-14.09-17.49-21.64-25.82c-3.8-4.19-6.23-9.06-3.81-14.49c5.34-12.02,10.78-24.06,20-33.81
			c4.77,0.27,9.02-0.73,11.81-5.09c1.94-2.08,4.23-3.81,5.78-6.25c2.19-14.16,0.45-28.39,0.99-42.57c0.14-3.63-0.37-7.33,0.46-10.88
			c1.12-4.75,4.26-6.7,7.43-2.25c13.13,18.44,29.37,34.78,38.4,56.07c1.29,25.44,0.41,50.88,0.52,76.32
			C445.77,399.12,443.56,402.93,441.71,406.8z"/>
		<path class="st3" d="M441.71,406.8c0.02-30.26,0.03-60.52,0.05-90.78c-0.86-4.65-1.78-9.28-3.17-13.8
			c1.1-5.33-1.04-10.59-0.39-15.9c-1.01-32.54,2.61-65.27-2.12-97.61c-6.38-43.65-32.74-71.45-78.38-75.76
			c-25.55-2.41-51.12-2.69-76.73-0.86c-2.4-0.17-4.75-0.43-5.48-3.34c4.02-5.7,9.64-7.53,16.43-7.48
			c22.28,0.15,44.57-0.03,66.85,0.08c47.43,0.24,81.38,29.55,88.99,76.33c1.82,11.21,2.47,22.46,2.48,33.75
			c0.09,58.54,0.02,117.07,0.08,175.61C450.33,394.94,449.67,402.42,441.71,406.8z"/>
		<path class="st4" d="M279.55,406.12c-5.74-3.46-7.72-9.09-7.74-15.21c-0.15-35.78-0.07-71.56,0.01-107.33
			c0-1.18,0.89-2.37,1.37-3.55c9.31-4.81,19.35-3.54,29.02-2.5c7.49,0.81,12.38,5.95,12.58,14.14c0.1,4.25,0.72,8.56-0.69,12.72
			c-12.59,9.41-12.42,23.83-14.56,37.33c-0.39,2.48,1.23,4.43,2.62,6.25c4.6,6.05,4.26,11.49-1.6,16.53
			c-9.89,8.51-14.9,18.97-13.82,32.36C287.08,401.24,288.1,407.86,279.55,406.12z"/>
		<path class="st5" d="M381.32,330.19c-5.8,10.39-11.59,20.79-17.4,31.18c-2.01,3.6-3.51,6.88-0.08,10.85
			c10.17,11.76,20.04,23.78,30.02,35.7c-4.24,4.38-7.07,0.13-10.3-1.67c-6.3,0.49-9-4.67-12.54-8.27
			c-3.67-3.73-6.64-8.1-10.26-11.93c-3.92-4.15-7.92-5.72-12.84-1.84c-4.13,2.66-8.51,4.98-11.92,8.64
			c-0.68,0.63-1.43,1.16-2.22,1.63c-6.25,3.93-12.35,8.17-19.79,9.68c-3.25,0.72-6.51,1.67-9.72-0.15c-3,2.45-4.35,9.16-10.32,4.02
			c-1.93-3.92,1.19-6.45,2.58-9.47c2.5-3.16,5.64-5.96,9.54-6.48c9.86-1.31,17.54-6.72,25.24-12.23c2.99-1.27,5.12-3.8,7.84-5.47
			c2.9-1.13,6.15-1.53,8.35-4.11c7.78-11.82,14.5-24.26,21.44-36.58c2.98-6.59,0.69-13.2,0.06-19.83
			c-0.1-44.47-0.03-88.9-0.05-133.33c0-7.56,0.27-14.85,9.36-17.56c9.81-2.93,18.33,0.07,23.98,8.53
			c1.31,26.77,0.19,53.57,0.64,80.35c-4.03,22.37-0.98,44.98-2.26,67.44c-5.79,1.65-5.33-3.33-6.14-6.25
			c-1.15-4.18-0.53-8.61-0.63-12.93c-0.56-25.28,0.53-50.56-0.89-75.88c-0.68-12.17,1.11-24.56,0.86-36.88
			c-0.06-2.99,0.12-6.03-1.2-8.83c-1.49-3.15-4.2-4.07-7.44-3.78c-3.2,0.29-4.54,2.39-4.98,5.31c-0.4,2.65-0.31,5.32-0.31,7.98
			c-0.02,38.96,0.24,77.93-0.22,116.89c-0.1,7.92,3.76,14.73,3.78,22.38C383.16,328.55,382.43,329.51,381.32,330.19z"/>
		<path class="st6" d="M234.21,234.19c-0.02-33.47,0-66.95-0.06-100.42c-0.03-17.43-5.9-23.36-23.36-23.21
			c-29.23,0.27-58.46,0.67-87.69,1.25c-4.57,0.09-9.11,1.44-13.66,2.21c5.6-7.52,13.17-10.46,22.44-10.46
			c29.91,0,59.82-0.35,89.73-0.42c13.57-0.03,20.21,6.44,20.28,20.07c0.16,31.57-0.03,63.14,0.14,94.71
			C242.06,224.82,239.61,230.11,234.21,234.19z"/>
		<path class="st7" d="M233.39,403.55c1.66-43.19,0.63-86.4,0.56-129.6c-0.02-12.85-8.39-20.43-20.42-24.63
			c3.51-4.24,8.28-4.29,12.58-5.4c11.04,4.8,15.85,13.52,15.85,25.24c0.01,38.94-0.07,77.87,0.05,116.81
			C242.04,393.45,240.35,399.69,233.39,403.55z"/>
		<path class="st8" d="M347.46,372.3c-2.3,1.46-4.61,2.92-6.91,4.37c-2.79,0.44-5.31-0.19-7.2-2.32c-7.63-8.59-17-9.77-26.83-5.23
			c-10.61,4.91-14.27,14.73-15.52,25.64c-0.55,4.84,1.34,9.89-1.26,14.56c-4.02,0.9-7.3-0.54-10.2-3.21
			c5.15-1.02,4.69-5.15,4.32-8.66c-1.53-14.48,3.84-25.95,14.73-35.13c4.45-3.75,6.37-7.23,1.04-12.1
			c-5.66-5.17-1.9-11.72-1.86-17.82c0.05-7.23,3.11-13.56,4.79-20.26c0.94-3.76,3.34-8.43,9.27-6.2c2.43,1.81,2.58,4.29,2.08,6.97
			c-3.64,6.14-8.59,11.6-9.58,19.15c-0.55,4.16-0.66,8.09,3.31,10.55c3.46,2.14,7.19,3.03,11.18,0.8c4.11-2.31,6.64-5.42,6.06-10.33
			c-0.5-4.24-1.68-8.38-1.91-12.69c0.53-13.47-1.08-26.96,0.91-40.37c-0.01-6.02-0.02-12.04-0.03-18.07
			c-2.64-3.47-1.83-7.55-1.85-11.42c-0.09-14.12-0.1-28.25,0.01-42.37c0.03-3.49-0.91-7.36,2.57-10.03c2.12,3.36,1.3,7.13,1.3,10.72
			c0.07,34.29,0.08,68.58,0.04,102.87c-0.01,6.44,1.03,12.2,5.17,17.7c5.66,7.53,3.77,14.04-4.34,19.08
			c-8.14,5.07-8.52,7.43,0.13,10.48c7.2,2.54,9.94,11.95,18.79,10.94C347.02,370.16,347.71,370.87,347.46,372.3z"/>
		<path class="st9" d="M114.28,237.78c0,36.33,0,72.66,0,111.64c-6.7-4.55-5.76-8.67-5.77-12.2c-0.08-27.9,0-55.8-0.07-83.7
			c-0.03-11.36-4.12-15.55-15.58-15.74c-8.96-0.14-17.92,0.19-26.89,0.31c-0.27-4.36,3.49-4.68,6.14-6.11
			c9.24-2.68,18.89,0.7,28.15-1.87c1.27-0.13,2.54-0.26,3.81-0.4C111.07,227.85,115.37,229.4,114.28,237.78z"/>
		<path class="st10" d="M114.28,237.78c-1.24-5.43-5.65-6.84-10.21-8.07c-0.6-0.55-1.19-1.09-1.79-1.64
			c-1.34-0.56-1.37-1.18-0.09-1.87c3.3-1.13,7.37-0.6,9.4-4.43c-0.68-2.17-0.6-3.95,2.24-4.29c4.28-2.38,2.53-6.51,2.56-9.87
			c0.17-20.31,0.04-40.61,0.14-60.92c0.02-3.36-0.85-7.07,3.16-12.29c0,70.03,0,137.59,0,206.93c-4.23-4.34-3.16-8.1-3.17-11.41
			c-0.09-27.3,0-54.6-0.11-81.89C116.39,244.55,117.79,240.6,114.28,237.78z"/>
		<path class="st11" d="M275.49,108.74c1.57,0.26,3.14,0.52,4.72,0.79c8.51-0.95,17.04-0.18,25.55-0.42
			c17.54,5.28,30.62,15.9,40.05,31.75c6.44,10.84,11.4,22.33,17.01,33.54c2.02,4.04,3.09,8.12-0.98,11.71
			c-4.89-0.89-5.47-5.45-7.23-8.82c-7.81-14.94-13.43-30.94-25.47-43.65c-11.99-12.66-26.22-17.13-42.97-15.99
			c-4.64,0.31-9.3,0.38-13.96,0.56C272.69,114.83,272.83,111.35,275.49,108.74z"/>
		<path class="st12" d="M324.76,323.98c6.06,16.76,0.27,26.24-14.61,23.87c-5.47-0.87-10.01-4.29-9.74-9.48
			c0.49-9.35,1.25-19.33,11.47-24.43c5.16,4.05,2.2,9.8,3,13.65c0.79-12.6-0.59-26.24-0.98-39.91c-0.1-3.55-1.23-7.55,4.15-8.35
			c3.81,3.02,2.11,7.27,2.36,11.03c0.94,13.95-1.71,28.03,1.43,41.91C325.07,330.3,320.44,325.56,324.76,323.98z"/>
		<path class="st13" d="M318.04,279.33c-3.98,13.51,0.7,27.07-0.24,40.61c-0.39,5.63-0.05,11.32-0.15,16.97
			c-0.03,1.75-0.89,3.59-2.73,3.59c-1.85,0-2.69-1.83-2.72-3.6c-0.16-7.65-0.23-15.31-0.33-22.97c-0.01-2.66-0.03-5.33-0.04-7.99
			c0.11-2.64,0.3-5.28,0.33-7.92c0.17-14.2-3.1-17.51-17.27-17.66c-7.23-0.08-14.47-0.23-21.7-0.35c2.15-5.14,6.93-5.88,11.5-6.44
			c7.87-0.96,15.83,0.02,23.78-1.2C312.85,271.71,316.79,274.33,318.04,279.33z"/>
		<path class="st14" d="M289.75,409.33c-3.66-10.99-2-21.73,2.91-31.71c7.57-15.39,28.55-18.6,41.25-6.87
			c2.18,2.01,4.44,3.94,6.66,5.92c-2.26,1.6-4.51,3.2-6.76,4.8c-2.54-0.94-4.56-2.65-6.68-4.27c-6.64-5.05-13.45-5.24-20.16-0.19
			c-7.56,5.69-10.87,14.84-8.42,22.78c-1.52,2.74-3.05,5.49-4.57,8.23C292.55,408.46,291.15,408.9,289.75,409.33z"/>
		<path class="st15" d="M100.08,112.08c-10.77,9.64-21.53,19.27-32.3,28.91c-0.9-11.13-4.84-21.69,1.92-31.3
			C79.96,108.82,90.46,104.91,100.08,112.08z"/>
		<path class="st16" d="M348.1,409.6c-12.43,0.31-24.87,0.94-37.29-0.3c-0.32-6.35,5.86-5.54,8.96-8.11
			c5.17-2.44,9.72-5.82,14.08-9.48l-0.07,0.03c3.91-0.92,6.49-5.99,11.45-3.7C349.99,394.72,353.22,401.61,348.1,409.6z"/>
		<path class="st17" d="M345.85,382.5c6.27-7.31,11.21-6.57,17.18,1.18c6.17,8.01,12.45,16.18,20.53,22.57
			c-2.18,7.93-7.91,2.81-12.11,3.3c-11.32-5.2-16.29-17.04-25.55-24.41C345.45,384.27,345.45,383.39,345.85,382.5z"/>
		<path class="st18" d="M346.07,383.29c11.35,5.96,17.3,17.14,25.38,26.26c-7.79,0.01-15.57,0.03-23.35,0.05
			c-0.15-7.51-2.11-14.64-4.51-21.68C343.83,386.06,344.48,384.43,346.07,383.29z"/>
		<path class="st19" d="M100.08,112.08c-10.06-1.65-20.59,2.68-30.38-2.39c3.97-6.23,10.17-6.13,16.5-5.99
			c6.67,0.15,13.34,0.03,20.36,0.03C105.63,108.79,102.58,110.19,100.08,112.08z"/>
		<path class="st20" d="M315.49,264.94c-2.5-1.18-2.92-3.34-2.91-5.81c0.04-17.31,0.03-34.63,0.09-51.94c0-1.28,0.22-2.68,2.96-3.22
			c1.74,5.92,0.52,12.06,0.89,18.03c0.79,12.87-1.66,25.86,1.42,38.66C317.13,262.08,316.31,263.51,315.49,264.94z"/>
		<path class="st21" d="M368.37,99.47c-27.16,0-54.31,0-81.47,0c0-0.28,0-0.56,0-0.85c27.45,0,54.91,0,82.36,0
			C368.97,98.91,368.67,99.19,368.37,99.47z"/>
		<path class="st22" d="M324.57,198.14c-0.24,21.27-0.48,42.55-0.73,63.82c-1.28-0.63-2.55-1.26-3.83-1.89l0.04-0.06
			c2-16.44,0.33-32.95,0.95-49.41c0.16-4.24-0.97-8.59,0.89-12.71C322.98,195.84,323.71,197.76,324.57,198.14z"/>
		<path class="st23" d="M324.76,323.98c-1.89,2.44,2.36,7.05-2.93,8.29c0.09-13.92,0.13-27.83,0.32-41.75
			c0.05-3.54-1.01-7.35,1.72-10.49C324.17,294.68,324.46,309.33,324.76,323.98z"/>
		<path class="st24" d="M321.07,402.09c-3.42,2.4-6.84,4.81-10.26,7.21c-4.03,0.53-8.79,1.96-6.54-5.29c2.78-2.1,5.9-2.92,9.36-2.48
			C316.18,400.79,318.71,400.33,321.07,402.09z"/>
		<path class="st25" d="M100.26,230.11c-9.23,2.94-18.81,0.63-28.15,1.87C81.23,227.44,90.81,229.8,100.26,230.11z"/>
		<path class="st25" d="M102.18,226.2c-0.04,0.63-0.01,1.25,0.09,1.87c-8.03-0.95-16.38,1.9-24.18-1.96
			C86.12,226.14,94.15,226.17,102.18,226.2z"/>
		<path class="st0" d="M192.8,302.31c-0.01,12.3-0.11,24.6,0.03,36.9c0.11,9.87-5.6,12.34-14.2,12.2
			c-11.37-0.18-14.94-2.62-15.02-12.38c-0.2-24.93-0.19-49.86-0.02-74.79c0.07-10.17,3.12-12.5,14.7-12.47
			c11.59,0.03,14.32,2.26,14.47,12.65C192.95,277.05,192.8,289.68,192.8,302.31z"/>
		<path class="st0" d="M163.54,196.04c0.01-8.29,0.09-16.58-0.01-24.87c-0.13-10.02,5.95-11.95,14.38-11.9
			c8.08,0.05,14.87,1.03,14.88,11.33c0.01,17.91,0.02,35.82,0.01,53.73c-0.01,10.17-6.65,11.46-14.81,11.5
			c-8.41,0.03-14.51-1.97-14.46-11.92C163.57,214.61,163.53,205.32,163.54,196.04z"/>
		<path class="st26" d="M113.82,217.49c-0.75,1.43-1.49,2.86-2.24,4.29c-0.72-0.57-2.08-1.13-2.08-1.7
			c0.02-24.56,0.15-49.11,0.34-73.67c0.01-0.8,0.71-1.6,1.09-2.4c0.96,0.02,1.93,0.03,2.89,0.05
			C113.82,168.53,113.82,193.01,113.82,217.49z"/>
		<path class="st27" d="M371.58,318.07c4.49,5.72,4.01,11.07-1.23,16.05c-0.92,0.75-1.78,0.7-2.59-0.17
			c-3.41-5.9-4.18-12.23-4.16-19.01c0.11-36.41-0.11-72.82-0.21-109.23c-0.98-9.67-0.25-19.37-0.39-29.06
			c1.65-3.37,2.99-7.48,7.8-3.25c0.27,44.59,0.02,89.19,0.15,133.78C370.96,310.81,370.35,314.5,371.58,318.07z"/>
		<path class="st28" d="M364.3,176.67c-0.3,9.68-0.61,19.36-0.91,29.04c-2.8-6.36-0.71-13.1-1.55-19.61
			c-0.45-14.12-9.1-25.04-14.68-37.11c-7.3-15.8-19.26-27.25-34.94-34.87c-1.66-0.81-2.85-2.6-4.26-3.94
			c3.42-2.14,7.19-0.64,10.77-1.03c12.63,4.33,20.69,14.07,28.27,24.25c7.61,10.22,12.01,22.17,17.36,33.59
			C365.88,170.19,365.59,173.45,364.3,176.67z"/>
		<path class="st29" d="M367.76,333.95c0.86,0.06,1.73,0.12,2.59,0.17c-6.81,13.21-12.96,26.82-22.88,38.18
			c-0.6-0.79-1.2-1.57-1.8-2.36C353.86,358.44,358.69,344.89,367.76,333.95z"/>
		<path class="st0" d="M321.9,197.9c0.07,17.92,0.16,35.83,0.19,53.75c0,2.92,0.6,6.06-2.03,8.37c0.12-17.56,0.17-35.12,0.43-52.68
			C320.53,204.19,319.16,200.7,321.9,197.9z"/>
		<path class="st0" d="M381.93,327.68c-6.66-8.41-6.11-18.28-6.07-28.21c0.16-39.56,0.11-79.12,0.02-118.68
			c-0.01-6.02-0.39-11.23,8.44-10.91c8.02,0.29,13.91,1.6,13.6,11.36c-0.44,14.23-1.94,28.72-1.16,42.62
			c1.25,22.26,0.02,44.46,1.22,66.64c0.53,9.82-2.17,19.84,1.78,29.45c0.65,0.45,0.87,0.89,0.65,1.33
			c-0.22,0.44-0.44,0.66-0.66,0.66c-2.06,1.34-4.12,2.68-6.19,4.02C389.93,328.19,386.3,330.44,381.93,327.68z"/>
		<path class="st30" d="M399.75,321.94c0-0.67,0.01-1.33,0.01-2c1.69-22.35,1.03-44.72,0.37-67.08c0.78-1.72,0.44-3.83,1.84-5.34
			c3.52-0.35,5.45,2.12,7.17,4.44c10.15,13.75,19.69,27.93,29.55,41.88c1.72,2.44,1.64,5.64,3.13,8.2
			c-0.02,4.65-0.04,9.31-0.06,13.96c-11.33-15.73-22.66-31.46-34.01-47.18c-1.51-2.1-3.12-4.12-5.87-7.75
			c0,17.51,0.08,33.52-0.06,49.52C401.78,314.44,403.15,318.67,399.75,321.94z"/>
		<path class="st31" d="M381.93,327.68c3.52-3.05,7.51-2.86,11.64-1.71c-3.21,3.93-5.37,10.92-12.25,4.22
			C381.52,329.35,381.73,328.52,381.93,327.68z"/>
		<path class="st1" d="M320,110.18c-4.01,0-8.02-0.01-12.03-0.01c-9.26-0.21-18.52-0.43-27.77-0.64
			c30.84-1.38,61.86-3.99,92.32,2.11c37.58,7.54,60.88,33.79,67.25,74.77c5.14,33.01,1.78,66.37,2.11,99.58
			c-2.56,1.24-4.76,0.03-6.14-1.75c-13.07-16.82-26.17-33.64-34.83-53.36c-0.5-19.82,1.03-39.65-0.81-59.43
			c-6.29-10.13-16.18-4.84-24.37-4.91c-4.19-0.03-3.77,6.11-3.76,10.08c0.01,38.86,0.03,77.71-0.01,116.57
			c-0.01,8.29-0.25,16.58-0.39,24.88c-2.47-3.62-1.36-7.72-1.37-11.6c-0.19-44.72-0.26-89.45-0.37-134.18
			c-3.99-2.4-5.39-6.56-7.12-10.5c-4.13-9.42-8.35-18.84-14.04-27.43C341.51,123.55,333.94,113.04,320,110.18z"/>
		<path class="st32" d="M401.68,233.94c5,0.91,6.19,5.56,8.69,8.9c10.69,14.25,18.21,30.81,31.51,43.15
			c-0.02,5.35-0.04,10.7-0.06,16.06c-15.14-16.77-25.31-37.24-40.25-54.16C400.61,243.23,400.42,238.58,401.68,233.94z"/>
		<path class="st33" d="M298.52,399.8c-1.48,0.16-3.34,1.69-4.22-0.68c-3.06-8.27,5.33-23.67,15.08-27.85
			c9.86-4.23,19.08-0.38,24.41,10.2c-8.1,6.19-15.52,13.59-26.9,13.43C303.45,394.85,300.99,397.59,298.52,399.8z"/>
		<path class="st0" d="M401.68,233.94c-0.04,4.65-0.07,9.3-0.11,13.95c-0.48,1.65-0.96,3.31-1.44,4.97
			c-0.01-27.13-0.02-54.27-0.03-81.4c2.52,16.48,0.47,33.06,1.11,49.58C401.39,225.33,401.53,229.63,401.68,233.94z"/>
		<path class="st34" d="M321.07,402.09c-2.48-0.18-4.96-0.37-7.44-0.55c7.93-0.82,12.88-7.79,20.22-9.82
			C331.15,397.1,326.17,399.67,321.07,402.09z"/>
		<path class="st34" d="M346.07,383.29c0.05,2.01-0.53,3.69-2.48,4.63c-3.01,1.94-5.55,5.09-9.8,3.82c2.71-4.8,7.59-6.76,12.07-9.24
			C345.85,382.5,346.07,383.29,346.07,383.29z"/>
		<path class="st35" d="M320,110.18c16.83-4.19,22.26,9.89,29.39,19.55c9.39,12.72,15.91,27.28,20.45,42.57
			c-1.84,1.46-3.69,2.91-5.53,4.37c-8.91-24.05-18.82-47.44-41.21-62.65C321.79,113.13,321.02,111.47,320,110.18z"/>
	</g>
</g>
</svg>
