<?xml version="1.0" encoding="utf-8"?>
<!-- Generator: Adobe Illustrator 26.0.3, SVG Export Plug-In . SVG Version: 6.00 Build 0)  -->
<svg version="1.1" id="Ebene_1" xmlns="http://www.w3.org/2000/svg" xmlns:xlink="http://www.w3.org/1999/xlink" x="0px" y="0px"
	 viewBox="0 0 512 512" style="enable-background:new 0 0 512 512;" xml:space="preserve">
<style type="text/css">
	.st0{fill:url(#SVGID_1_);}
</style>
<g id="CowCitizen">
	<rect y="0" width="512" height="512"/>
	<g>
		
			<linearGradient id="SVGID_1_" gradientUnits="userSpaceOnUse" x1="31.676" y1="225.452" x2="480.324" y2="225.452" gradientTransform="matrix(1 0 0 -1 0 511.89)">
			<stop  offset="0" style="stop-color:#F6BE95"/>
			<stop  offset="0.0099" style="stop-color:#F4C299"/>
			<stop  offset="0.0675" style="stop-color:#E9D5AC"/>
			<stop  offset="0.1268" style="stop-color:#E2E0B7"/>
			<stop  offset="0.19" style="stop-color:#E0E4BB"/>
			<stop  offset="0.4755" style="stop-color:#7CCDF3"/>
			<stop  offset="0.7885" style="stop-color:#6971B3"/>
			<stop  offset="1" style="stop-color:#F6BE95"/>
		</linearGradient>
		<polygon class="st0" points="463.104,218.48 392.993,206.795 447.729,184.654 458.799,134.224 444.653,109.624 376.388,89.943 
			411.443,140.374 381.923,146.524 313.657,99.783 256.154,107.814 256.154,107.779 198.343,99.783 130.077,146.524 
			100.557,140.374 135.612,89.943 67.347,109.624 53.201,134.224 64.271,184.654 119.007,206.795 48.896,218.48 31.676,261.53 
			82.107,286.131 126.387,270.14 133.767,320.571 179.278,429.427 255.443,482.866 255.443,482.899 255.467,482.883 
			255.539,482.933 255.539,482.833 332.722,429.427 378.233,320.571 385.613,270.14 429.893,286.131 480.324,261.53 		"/>
		<g id="Overlaps">
			<g>
				<polygon points="118.133,101.944 73.446,114.538 62.883,130.381 93.758,138.1 				"/>
				<polygon points="88.477,146.631 62.477,139.725 68.977,171.006 				"/>
				<polygon points="97.414,146.631 125.851,153.537 126.257,201.88 73.446,179.537 				"/>
				<polygon points="126.257,262.004 80.352,277.442 41.353,257.942 53.946,224.63 125.851,212.443 				"/>
				<polygon points="133.164,267.692 140.476,318.472 170.132,386.721 207.506,316.847 187.6,252.661 				"/>
				<polygon points="178.663,216.911 251.38,113.726 200.6,107.226 133.57,153.131 133.164,192.13 				"/>
				<polygon points="195.319,357.471 174.194,396.471 183.538,420.439 248.943,403.377 				"/>
			</g>
			<polygon points="190.85,427.752 255.849,473.657 321.66,427.752 257.068,409.471 			"/>
			<g>
				<polygon points="394.581,100.929 439.268,113.522 449.83,129.366 418.956,137.084 				"/>
				<polygon points="424.237,145.616 450.237,138.709 443.737,169.99 				"/>
				<polygon points="415.3,145.616 386.863,152.522 386.456,200.865 439.268,178.521 				"/>
				<polygon points="386.456,260.989 432.362,276.426 471.361,256.926 458.768,223.614 386.863,211.427 				"/>
				<polygon points="379.55,266.676 372.238,317.457 342.582,385.705 305.208,315.832 325.114,251.645 				"/>
				<polygon points="334.051,215.896 261.333,112.71 312.114,106.21 379.144,152.115 379.55,191.115 				"/>
				<polygon points="317.395,356.456 338.52,395.455 329.176,419.424 263.771,402.361 				"/>
			</g>
			<polygon points="320.577,242.911 328.16,219.755 257.068,120.225 186.381,219.349 193.881,242.911 			"/>
			<g>
				<polygon points="297.028,314.816 318.182,250.223 196.209,250.223 216.768,314.816 				"/>
				<polygon points="218.708,320.91 237.974,381.44 256.662,396.877 274.943,382.252 295.032,320.91 				"/>
			</g>
		</g>
	</g>
</g>
</svg>
