<?xml version="1.0" encoding="utf-8"?>
<svg version="1.1" id="Ebene_1" xmlns="http://www.w3.org/2000/svg" xmlns:xlink="http://www.w3.org/1999/xlink" x="0px" y="0px"
	 viewBox="0 0 512 512" style="enable-background:new 0 0 512 512;" xml:space="preserve">
<style type="text/css">
	.st0{fill:#FFFFFF;}
	.st1{fill:#B3788F;}
</style>
<g id="cryptoWine">
	<rect class="st0" width="512" height="512"/>
	<g>
		<path class="st1" d="M289.3,355.2l-27.9-16.1c-3.3-1.9-7.4-1.9-10.8,0l-27.9,16.1c-3.3,1.9-5.4,5.5-5.4,9.3v32.2
			c0,3.8,2.1,7.4,5.4,9.3l27.9,16.1c3.3,1.9,7.4,1.9,10.8,0l27.9-16.1c3.3-1.9,5.4-5.5,5.4-9.3v-32.2
			C294.7,360.7,292.6,357.1,289.3,355.2z"/>
		<path class="st1" d="M247.7,281.9l-27.9-16.1c-3.3-1.9-7.4-1.9-10.8,0l-27.9,16.1c-3.3,1.9-5.4,5.5-5.4,9.3v32.2
			c0,3.8,2.1,7.4,5.4,9.3l27.9,16.1c3.3,1.9,7.4,1.9,10.8,0l27.9-16.1c3.3-1.9,5.4-5.5,5.4-9.3v-32.2
			C253.1,287.4,251,283.8,247.7,281.9z"/>
		<path class="st1" d="M330.9,281.9L303,265.8c-3.3-1.9-7.4-1.9-10.8,0l-27.9,16.1c-3.3,1.9-5.4,5.5-5.4,9.3v32.2
			c0,3.8,2.1,7.4,5.4,9.3l27.9,16.1c3.3,1.9,7.4,1.9,10.8,0l27.9-16.1c3.3-1.9,5.4-5.5,5.4-9.3v-32.2
			C336.3,287.4,334.2,283.8,330.9,281.9z"/>
		<path class="st1" d="M289.3,209l-27.9-16.1c-3.3-1.9-7.4-1.9-10.8,0L222.7,209c-3.3,1.9-5.4,5.5-5.4,9.3v32.2
			c0,3.8,2.1,7.4,5.4,9.3l27.9,16.1c3.3,1.9,7.4,1.9,10.8,0l27.9-16.1c3.3-1.9,5.4-5.5,5.4-9.3v-32.2
			C294.7,214.5,292.6,210.9,289.3,209z"/>
		<path class="st1" d="M205.1,209l-27.9-16.1c-3.3-1.9-7.4-1.9-10.8,0L138.5,209c-3.3,1.9-5.4,5.5-5.4,9.3v32.2
			c0,3.8,2.1,7.4,5.4,9.3l27.9,16.1c3.3,1.9,7.4,1.9,10.8,0l27.9-16.1c3.3-1.9,5.4-5.5,5.4-9.3v-32.2
			C210.5,214.5,208.4,210.9,205.1,209z"/>
		<path class="st1" d="M373.5,209l-27.9-16.1c-3.3-1.9-7.4-1.9-10.8,0L306.9,209c-3.3,1.9-5.4,5.5-5.4,9.3v32.2
			c0,3.8,2.1,7.4,5.4,9.3l27.9,16.1c3.3,1.9,7.4,1.9,10.8,0l27.9-16.1c3.3-1.9,5.4-5.5,5.4-9.3v-32.2
			C378.9,214.5,376.9,210.9,373.5,209z"/>
		<path class="st1" d="M258.3,185.2h-4.6c-0.4,0-0.8-0.3-0.8-0.8v-64.5c0-0.4,0.3-0.8,0.8-0.8h4.6c0.4,0,0.8,0.3,0.8,0.8v64.5
			C259.1,184.9,258.7,185.2,258.3,185.2z"/>
		<path class="st1" d="M297.6,85.6L297.6,85.6c-15.7,0-28.4,12.7-28.4,28.4v21c0,4.1,3.3,7.4,7.4,7.4h21c15.7,0,28.4-12.7,28.4-28.4
			l0,0C326,98.3,313.3,85.6,297.6,85.6z"/>
		<path class="st1" d="M186,150.6L186,150.6c0,15.7,12.7,28.4,28.4,28.4h21c4.1,0,7.4-3.3,7.4-7.4v-21c0-15.7-12.7-28.4-28.4-28.4
			l0,0C198.7,122.2,186,134.9,186,150.6z"/>
	</g>
</g>
</svg>
