<?xml version="1.0" encoding="utf-8"?>
<!-- Generator: Adobe Illustrator 26.0.1, SVG Export Plug-In . SVG Version: 6.00 Build 0)  -->
<svg version="1.1" xmlns="http://www.w3.org/2000/svg" xmlns:xlink="http://www.w3.org/1999/xlink" x="0px" y="0px"
	 viewBox="0 0 512 512" style="enable-background:new 0 0 512 512;" xml:space="preserve">
<style type="text/css">
	.st0{fill:url(#bg_00000035506814449489718190000008056384535122589571_);}
	.st1{fill:#FFFFFF;}
	.st2{fill-rule:evenodd;clip-rule:evenodd;fill:#FFFFFF;}
	.st3{opacity:0.1;}
	.st4{fill:url(#bg_00000160894104200216549250000013586555353260004541_);}
	.st5{fill:url(#bg_00000158731633875538596130000004222684066605481623_);}
	.st6{fill:#FCFCFC;}
	.st7{fill:url(#bg_00000179613659695376401070000007756107538120195261_);}
	.st8{fill:url(#bg_00000108273622881242686330000004363208022112834959_);}
	.st9{fill-rule:evenodd;clip-rule:evenodd;fill:#FCCDD3;}
	.st10{filter:url(#Adobe_OpacityMaskFilter);}
	.st11{mask:url(#mask-2_00000079477019141398897970000007225647416667991979_);fill-rule:evenodd;clip-rule:evenodd;fill:#6534FF;}
	.st12{fill-rule:evenodd;clip-rule:evenodd;fill:#FEFEFE;}
	.st13{fill-rule:evenodd;clip-rule:evenodd;fill:#6534FF;}
	.st14{fill:#8526D1;}
	.st15{fill:#D89738;}
	.st16{fill:#5D1B8F;}
	.st17{fill:#F2A738;}
	.st18{fill-rule:evenodd;clip-rule:evenodd;fill:#F9F9F9;}
	.st19{fill-rule:evenodd;clip-rule:evenodd;fill:#040404;}
	.st20{fill:#FEFEFE;}
	.st21{fill:#F0E20A;}
	.st22{fill:#EFE20A;}
	.st23{fill:#A1DE44;}
	.st24{fill:#FCA433;}
	.st25{fill:#FCAC68;}
	.st26{fill:#F74D7B;}
	.st27{fill:#9FDD46;}
	.st28{fill:#67D1BB;}
	.st29{fill:#FAAC8C;}
	.st30{fill:#FDE723;}
	.st31{fill:#FBAB4C;}
	.st32{fill:#FEF532;}
	.st33{fill:#EDE622;}
	.st34{fill:#5BD0DD;}
	.st35{fill:#B96CAE;}
	.st36{fill:#FBB32B;}
	.st37{fill:#FA9262;}
	.st38{fill:#D5709D;}
	.st39{fill:#9763B8;}
	.st40{fill:#FBDD0F;}
	.st41{fill:#D0EC26;}
	.st42{fill:#FCA036;}
	.st43{fill:#FACF2B;}
	.st44{fill:#D4E52B;}
	.st45{fill:#FCD713;}
	.st46{fill:#FDB83D;}
	.st47{fill:#E9E227;}
	.st48{fill:#CB7896;}
	.st49{fill:#FCD415;}
	.st50{fill:#C1E72E;}
	.st51{fill:#B6DF3A;}
	.st52{fill:#C8DE37;}
	.st53{fill:#C277B4;}
	.st54{fill:#ACE339;}
	.st55{fill:#E79762;}
	.st56{fill:#E77982;}
	.st57{fill:#FCFA68;}
	.st58{fill:#F6C82A;}
	.st59{fill:#B46CB1;}
	.st60{fill:#E1CE32;}
	.st61{fill:#F2C02E;}
	.st62{fill:#F8DB26;}
	.st63{fill:#C97B9F;}
	.st64{fill:#E6F40D;}
	.st65{fill:#D8DC35;}
	.st66{fill:#FDB73F;}
	.st67{fill:#FB7759;}
	.st68{fill:#EDDA2D;}
	.st69{fill:#DA8878;}
	.st70{fill:#EABC6F;}
	.st71{fill:#FDFDC8;}
	.st72{fill:#E8B380;}
	.st73{fill:#D8DB09;}
	.st74{fill:#E4D52E;}
	.st75{fill:#FCC91B;}
	.st76{fill:#FEFB8B;}
	.st77{fill:#F9D515;}
	.st78{fill:#DEE528;}
	.st79{fill:#FBC82E;}
	.st80{fill:#C25CA6;}
	.st81{fill:#FBC331;}
	.st82{fill:#FBB53E;}
	.st83{fill:#FC8E47;}
	.st84{fill:#9D63B7;}
	.st85{fill:#86C591;}
	.st86{fill:#78DEA5;}
	.st87{fill:#FBFCA1;}
	.st88{fill:#D87F7F;}
	.st89{fill:#FDF747;}
	.st90{fill:#E2CD31;}
	.st91{fill:#91E38C;}
	.st92{fill:#C5DD36;}
	.st93{fill:#FBB342;}
	.st94{fill:#D2BC7F;}
	.st95{fill:#65D6CC;}
	.st96{fill:#D5D809;}
	.st97{fill:#AEC383;}
	.st98{fill:#FBBB23;}
	.st99{fill:#F9DA24;}
	.st100{fill:#F9AC4C;}
	.st101{fill:#FBBF59;}
	.st102{fill:#E68B69;}
	.st103{fill:#F3A451;}
	.st104{fill:#FBF00E;}
	.st105{fill:#C9F5A2;}
	.st106{fill:#F9B229;}
	.st107{fill:#E9C745;}
	.st108{fill:#A2A2A2;}
	.st109{fill:#FDF10E;}
	.st110{fill:#F0FC0D;}
	.st111{fill:#010100;}
	.st112{fill:#FC8355;}
	.st113{fill:#FC8D48;}
	.st114{fill:#FCBB23;}
	.st115{fill:#FB9854;}
	.st116{fill:#FA6886;}
	.st117{fill:#FB6D6E;}
	.st118{fill:#E95790;}
	.st119{fill:#FB5D67;}
	.st120{fill:#6FCDA1;}
	.st121{fill:#79D278;}
	.st122{fill:#020101;}
	.st123{fill:#FAFD23;}
	.st124{fill:#E2FE38;}
	.st125{fill:#141304;}
	.st126{fill:#CB5DA2;}
	.st127{fill:#B063B1;}
	.st128{fill:#FC8D76;}
	.st129{fill:#E96F92;}
	.st130{fill:#FC8353;}
	.st131{fill:#FC8B4B;}
	.st132{fill:#FB7A86;}
	.st133{fill:#E3FD7C;}
	.st134{fill:#D8BF73;}
	.st135{fill:#DECA58;}
	.st136{fill:#B6EB2D;}
	.st137{fill:#C0D847;}
	.st138{fill:#A2E749;}
	.st139{fill:#BAF35A;}
	.st140{fill:#B6F180;}
	.st141{fill:#D8FB1A;}
	.st142{fill:#D6FA18;}
	.st143{fill:#FB736E;}
	.st144{fill:#96DE4B;}
	.st145{fill:#75CF83;}
	.st146{fill:#A2C87B;}
	.st147{fill:#8EDD54;}
	.st148{fill:#BDEF28;}
	.st149{fill:#B8EE29;}
	.st150{fill-rule:evenodd;clip-rule:evenodd;fill:#0097A7;}
	.st151{fill:#FEB800;}
	.st152{fill:#FBE000;}
	.st153{fill:#EF3A17;}
	.st154{fill:#0146FD;}
	.st155{fill:#17C50C;}
	.st156{fill:#FEFDFC;}
	.st157{fill:#2081E2;}
	.st158{fill-rule:evenodd;clip-rule:evenodd;fill:#E2E2E2;}
	.st159{fill:#B3788F;}
</style>
<g id="MIVA:SYMM">
</g>
<g id="MIVA-FRACTION">
</g>
<g id="FRACTION-MIVA">
</g>
<g id="MIVA-HNY">
</g>
<g id="MIVA-WXDAI">
</g>
<g id="zeroalpha">
</g>
<g id="POAP">
</g>
<g id="pixeth">
</g>
<g id="xDaiTigers">
</g>
<g id="Fraction_Early">
</g>
<g id="CryptoStamp">
</g>
<g id="Epor.io">
</g>
<g id="nifty-ink">
</g>
<g id="Opensea">
</g>
<g id="Placeholder">
</g>
<g id="Foundation">
</g>
<g id="cryptoWine">
	<g>
		<path class="st159" d="M289.30911,355.17444l-27.92224-16.12c-3.3324-1.92419-7.43788-1.92419-10.77199,0l-27.92053,16.12
			c-3.33238,1.92419-5.38599,5.47919-5.38599,9.32758v32.24173c0,3.84839,2.0536,7.40338,5.38599,9.32755l27.92226,16.12003
			c3.33237,1.92419,7.43787,1.92419,10.77197,0l27.92224-16.12003c3.3324-1.92416,5.38602-5.47916,5.38602-9.32755v-32.24173
			C294.6951,360.65536,292.64148,357.09863,289.30911,355.17444z"/>
		<path class="st159" d="M247.70876,281.90356l-27.92226-16.12003c-3.33237-1.92419-7.43788-1.92419-10.77197,0l-27.92226,16.12003
			c-3.33237,1.92419-5.38599,5.47919-5.38599,9.32755v32.24176c0,3.84836,2.05362,7.40335,5.38599,9.32755l27.92226,16.12003
			c3.33238,1.92419,7.43788,1.92419,10.77197,0l27.92226-16.12003c3.33238-1.92419,5.386-5.47919,5.386-9.32755v-32.24176
			C253.09474,287.38275,251.04286,283.82776,247.70876,281.90356z"/>
		<path class="st159" d="M330.90945,281.90356l-27.92224-16.12003c-3.33237-1.92419-7.43787-1.92419-10.77197,0l-27.92227,16.12003
			c-3.33237,1.92419-5.38599,5.47919-5.38599,9.32755v32.24176c0,3.84836,2.05362,7.40335,5.38599,9.32755l27.92227,16.12003
			c3.33237,1.92419,7.43787,1.92419,10.77197,0l27.92224-16.12003c3.3324-1.92419,5.38599-5.47919,5.38599-9.32755v-32.24176
			C336.29547,287.38275,334.24185,283.82776,330.90945,281.90356z"/>
		<path class="st159" d="M289.30911,208.97438l-27.92224-16.12003c-3.3324-1.92418-7.43788-1.92418-10.77199,0l-27.92053,16.12003
			c-3.33238,1.92418-5.38599,5.47917-5.38599,9.32755v32.24174c0,3.84837,2.0536,7.40338,5.38599,9.32755l27.92226,16.12003
			c3.33237,1.92419,7.43787,1.92419,10.77197,0l27.92224-16.12003c3.3324-1.92416,5.38602-5.47917,5.38602-9.32753v-32.24176
			C294.6951,214.45528,292.64148,210.89854,289.30911,208.97438z"/>
		<path class="st159" d="M205.07986,208.97438l-27.92226-16.12003c-3.33237-1.92418-7.43788-1.92418-10.77197,0l-27.92226,16.12003
			c-3.33238,1.92418-5.386,5.47917-5.386,9.32755v32.24174c0,3.84837,2.05362,7.40338,5.386,9.32755l27.92226,16.12003
			c3.33237,1.92419,7.43787,1.92419,10.77197,0l27.92226-16.12003c3.33237-1.92416,5.38599-5.47917,5.38599-9.32753v-32.24176
			C210.46585,214.45528,208.41397,210.89854,205.07986,208.97438z"/>
		<path class="st159" d="M373.53662,208.97438l-27.92224-16.12003c-3.3324-1.92418-7.4379-1.92418-10.772,0l-27.92227,16.12003
			c-3.33237,1.92418-5.38599,5.47917-5.38599,9.32755v32.24174c0,3.84837,2.05362,7.40338,5.38599,9.32755l27.92227,16.12003
			c3.3324,1.92419,7.43787,1.92419,10.772,0l27.92224-16.12003c3.3324-1.92416,5.38599-5.47917,5.38599-9.32753v-32.24176
			C378.9209,214.45528,376.86902,210.89854,373.53662,208.97438z"/>
		<path class="st159" d="M258.30472,185.21457h-4.60425c-0.4297,0-0.78003-0.3486-0.78003-0.78003v-64.52145
			c0-0.42971,0.3486-0.78003,0.78003-0.78003h4.60425c0.42969,0,0.78003,0.34859,0.78003,0.78003v64.52145
			C259.08301,184.86424,258.73444,185.21457,258.30472,185.21457z"/>
		<path class="st159" d="M297.60297,85.57803L297.60297,85.57803c-15.6955,0-28.41754,12.72379-28.41754,28.41753v21.02625
			c0,4.08307,3.30994,7.39301,7.39301,7.39301h21.02628c15.69547,0,28.41754-12.72379,28.41754-28.41753l0,0
			C326.02048,98.30181,313.29843,85.57803,297.60297,85.57803z"/>
		<path class="st159" d="M185.98297,150.63274L185.98297,150.63274c0,15.6955,12.72379,28.41754,28.41754,28.41754h21.02625
			c4.08307,0,7.39302-3.30995,7.39302-7.39302v-21.02452c0-15.69548-12.72377-28.41753-28.41753-28.41753l0,0
			C198.70676,122.2152,185.98297,134.93726,185.98297,150.63274z"/>
	</g>
</g>
</svg>
