<?xml version="1.0" encoding="utf-8"?>
<svg version="1.1" id="Ebene_1" xmlns="http://www.w3.org/2000/svg" xmlns:xlink="http://www.w3.org/1999/xlink" x="0px" y="0px"
	 viewBox="0 0 512 512" style="enable-background:new 0 0 512 512;" xml:space="preserve">
<style type="text/css">
	.st0{fill:#FEFEFE;}
	.st1{fill:#F0E20A;}
	.st2{fill:#EFE20A;}
	.st3{fill:#A1DE44;}
	.st4{fill:#FCA433;}
	.st5{fill:#FCAC68;}
	.st6{fill:#F74D7B;}
	.st7{fill:#9FDD46;}
	.st8{fill:#67D1BB;}
	.st9{fill:#FAAC8C;}
	.st10{fill:#FDE723;}
	.st11{fill:#FBAB4C;}
	.st12{fill:#FEF532;}
	.st13{fill:#EDE622;}
	.st14{fill:#5BD0DD;}
	.st15{fill:#B96CAE;}
	.st16{fill:#FBB32B;}
	.st17{fill:#FA9262;}
	.st18{fill:#D5709D;}
	.st19{fill:#9763B8;}
	.st20{fill:#FBDD0F;}
	.st21{fill:#D0EC26;}
	.st22{fill:#FCA036;}
	.st23{fill:#FACF2B;}
	.st24{fill:#D4E52B;}
	.st25{fill:#FCD713;}
	.st26{fill:#FDB83D;}
	.st27{fill:#E9E227;}
	.st28{fill:#CB7896;}
	.st29{fill:#FCD415;}
	.st30{fill:#C1E72E;}
	.st31{fill:#B6DF3A;}
	.st32{fill:#C8DE37;}
	.st33{fill:#C277B4;}
	.st34{fill:#ACE339;}
	.st35{fill:#E79762;}
	.st36{fill:#E77982;}
	.st37{fill:#FCFA68;}
	.st38{fill:#F6C82A;}
	.st39{fill:#B46CB1;}
	.st40{fill:#E1CE32;}
	.st41{fill:#F2C02E;}
	.st42{fill:#F8DB26;}
	.st43{fill:#C97B9F;}
	.st44{fill:#E6F40D;}
	.st45{fill:#D8DC35;}
	.st46{fill:#FDB73F;}
	.st47{fill:#FB7759;}
	.st48{fill:#EDDA2D;}
	.st49{fill:#DA8878;}
	.st50{fill:#EABC6F;}
	.st51{fill:#FDFDC8;}
	.st52{fill:#E8B380;}
	.st53{fill:#D8DB09;}
	.st54{fill:#E4D52E;}
	.st55{fill:#FCC91B;}
	.st56{fill:#FEFB8B;}
	.st57{fill:#F9D515;}
	.st58{fill:#DEE528;}
	.st59{fill:#FBC82E;}
	.st60{fill:#C25CA6;}
	.st61{fill:#FBC331;}
	.st62{fill:#FBB53E;}
	.st63{fill:#FC8E47;}
	.st64{fill:#9D63B7;}
	.st65{fill:#86C591;}
	.st66{fill:#78DEA5;}
	.st67{fill:#FBFCA1;}
	.st68{fill:#D87F7F;}
	.st69{fill:#FDF747;}
	.st70{fill:#E2CD31;}
	.st71{fill:#91E38C;}
	.st72{fill:#C5DD36;}
	.st73{fill:#FBB342;}
	.st74{fill:#D2BC7F;}
	.st75{fill:#65D6CC;}
	.st76{fill:#D5D809;}
	.st77{fill:#AEC383;}
	.st78{fill:#FBBB23;}
	.st79{fill:#F9DA24;}
	.st80{fill:#F9AC4C;}
	.st81{fill:#FBBF59;}
	.st82{fill:#E68B69;}
	.st83{fill:#F3A451;}
	.st84{fill:#FBF00E;}
	.st85{fill:#C9F5A2;}
	.st86{fill:#F9B229;}
	.st87{fill:#E9C745;}
	.st88{fill:#A2A2A2;}
	.st89{fill:#FDF10E;}
	.st90{fill:#F0FC0D;}
	.st91{fill:#010100;}
	.st92{fill:#FC8355;}
	.st93{fill:#FC8D48;}
	.st94{fill:#FCBB23;}
	.st95{fill:#FB9854;}
	.st96{fill:#FA6886;}
	.st97{fill:#FB6D6E;}
	.st98{fill:#E95790;}
	.st99{fill:#FB5D67;}
	.st100{fill:#6FCDA1;}
	.st101{fill:#79D278;}
	.st102{fill:#020101;}
	.st103{fill:#FAFD23;}
	.st104{fill:#E2FE38;}
	.st105{fill:#141304;}
	.st106{fill:#CB5DA2;}
	.st107{fill:#B063B1;}
	.st108{fill:#FC8D76;}
	.st109{fill:#E96F92;}
	.st110{fill:#FC8353;}
	.st111{fill:#FC8B4B;}
	.st112{fill:#FB7A86;}
	.st113{fill:#E3FD7C;}
	.st114{fill:#D8BF73;}
	.st115{fill:#DECA58;}
	.st116{fill:#B6EB2D;}
	.st117{fill:#C0D847;}
	.st118{fill:#A2E749;}
	.st119{fill:#BAF35A;}
	.st120{fill:#B6F180;}
	.st121{fill:#D8FB1A;}
	.st122{fill:#D6FA18;}
	.st123{fill:#FB736E;}
	.st124{fill:#96DE4B;}
	.st125{fill:#75CF83;}
	.st126{fill:#A2C87B;}
	.st127{fill:#8EDD54;}
	.st128{fill:#BDEF28;}
	.st129{fill:#B8EE29;}
</style>
<g id="CryptoStamp">
	<rect x="0.6" class="st0" width="511.4" height="511.4"/>
	<g>
		<path d="M29.9,285.3c1.1-19.4,8.3-40.3,22.2-58.4c4.4-5.7,5.5-12.1,7.1-18.4c6.1-24.7,19.6-44.1,40.8-58.1
			c1.8-1.2,2.1-2.3,1.6-4.3c-2.9-11-10.5-16.5-21.3-18.2c-2.4-0.4-3.3-1.2-3.6-3.5c-1.2-9.4-2.8-18.7-3.8-28.1
			C71.1,80,82.5,66,98.7,63.9c9.8-1.3,19.5-2.6,29.2-4.1c2.6-0.4,3.6,0.1,4.7,2.5c4.7,10.6,12.8,15.8,22.9,15.3
			c11.2-0.6,20.2-8.5,21.8-20c0.6-4.2,2.4-5.3,6.2-5.7c11.9-1.5,23.7-3.1,35.5-4.9c2.9-0.4,4.3-0.1,5.7,2.9
			c6.9,15.4,25.3,19.8,37.6,9.1c4.9-4.3,7.2-10.1,7.9-16.4c0.2-2.2,1.1-3,3.2-3.2c13.2-1.7,26.4-3.5,39.6-5.5c2.4-0.4,3.1,0.2,4,2.3
			c4.9,12.2,17.9,18.3,30.3,14.2c9.8-3.3,13.4-11.3,14.8-20.6c0.4-2.3,1-3.1,3.3-3.3c9.4-1.1,18.8-2.5,28.1-3.8
			c19.7-2.9,33.6,8,36.1,27.9c1,7.9,2,15.8,3.4,23.7c0.4,2.6,0,3.6-2.5,4.7c-12.7,5.5-18.6,18.2-13.9,29.8
			c3.7,9.2,11.1,13.7,20.4,15.5c2.4,0.4,3.2,1.2,3.5,3.6c1.5,11.9,3.2,23.7,5,35.5c0.4,2.4-0.5,3.1-2.4,4.1c-7.8,4-13.4,9.9-15,18.8
			c-1.9,10.4,3.6,20.1,13.6,24.4c1.8,0.8,3.7,1.9,5.6,1.9c4.6,0.1,5.7,2.6,6.2,6.7c1.3,11,3,22,4.6,32.9c0.3,2-0.2,3-2.1,4
			c-8.9,4.4-15.1,11-15.7,21.4c-0.7,12,8.3,22.1,21.4,24.2c2.8,0.5,3.7,1.5,4,4.1c1.5,11.7,3.1,23.5,4.9,35.1
			c0.3,2.2-0.2,2.9-2.1,3.9c-9.2,4.7-15.6,11.5-15.7,22.6c-0.1,11.3,7.8,20.8,19.4,22.6c4.7,0.7,5.8,2.7,6.3,6.9
			c0.8,7.8,2,15.6,3.2,23.3c2.7,16.9-8.6,32-25.5,34.3c-9.9,1.4-19.7,2.6-29.6,4.2c-2.4,0.4-3.4-0.1-4.3-2.4
			c-6.3-14.2-20.5-19.5-33.6-12.5c-6.9,3.7-10.4,9.9-11.4,17.4c-0.5,3.7-2,4.8-5.5,5.2c-12.4,1.5-24.7,3.3-37,5.1
			c-2.5,0.4-3.6-0.4-4.7-2.7c-6.4-13.6-19.1-18.8-31.7-13.1c-8,3.6-12,10.3-13.2,18.6c-0.5,3.4-1.9,4.4-5.1,4.8
			c-11.9,1.5-23.7,3.2-35.5,5c-3.3,0.5-5.4,0.3-7.1-3.5c-4.8-10.6-14.4-15.6-24.7-13.8c-11.1,1.9-18.4,9.8-19.8,21.7
			c-0.3,2.4-1.2,3.1-3.5,3.3c-9.6,1.2-19.3,2.5-28.9,4c-18.6,2.9-33.6-8.5-35.7-27.2c-0.9-7.8-2.1-15.5-3.1-23.3
			c-0.2-1.8-0.9-2.4-2.8-2.7c-8.7-1-13.4-5.5-15.2-14.4c-0.3-1.4-1-2.1-2.1-2.8c-13.8-8.4-25.2-19.5-35.1-32.1
			c-8.9-11.3-12.2-24.7-13.5-38.6c-0.6-6.3-2.2-11.5-6-16.7C35.9,322.6,29.9,304.8,29.9,285.3z"/>
		<path class="st0" d="M396.7,113.3c4.1,11.9,11.8,20.6,23,26.2c1.6,0.8,2.1,1.9,2.6,3.6c2,7.9,0.3,13.8-5.2,20.6
			c-17.5,21.4-10.5,51.2,14,64c2.6,1.3,3.3,3,3.9,5.6c1.5,7.1,0.3,12.3-5,18.4c-18.3,21.4-11.1,52.3,14,65c2,1,3.1,2.2,3.2,4.4
			c0,0.9,0.2,1.7,0.4,2.6c1.9,6.3,0,10.8-4.5,16C424.3,361.4,431,393,456.6,406c2.1,1.1,3,2.3,3.2,4.8c0.3,4.2,1.2,8.4,1.8,12.6
			c0.8,5.7-2.3,10.1-8,11c-5.5,0.9-11.1,1.4-16.6,2.4c-2.2,0.4-3.4-0.3-4.8-1.9c-18.8-21-52.6-18.5-68.1,4.9
			c-0.1,0.2-0.3,0.4-0.4,0.6c-1.9,6.6-6.7,8.6-12.9,8.3c-0.4,0-0.7,0.1-1.1,0.2c-4.6,1.2-7.8,0.4-11.6-3.4
			c-20.4-20.5-55.5-14.3-68.4,11.7c-1.1,2.3-2.4,3.4-4.9,3.6c-4.1,0.4-8.1,1.1-12.2,1.7c-1.1,0.2-2.3,0.5-3-1.1
			c3.3-0.4,6.6-0.9,9.3-2.7c7.3-4.9,8.9-12.3,7.4-20.1c-4.6-23.8-17-40.9-42.7-44.9c-0.3-0.1-0.6-0.3-1.1-0.6
			c7.6-10.2,16.9-19.9,12-34.7c6.3,0.2,12.4,1.2,18.5,2.5c18.2,3.9,36.7,6.9,54.2,13.5c2.3,0.9,4.6,1.8,7,2.7c2.9,1.1,6.1,2,8.8,0.9
			c5.8-2.4,10.6-0.7,16,1.5c5.5,2.4,11.7,1.4,17.3-0.2c12.8-3.6,24.8-8.9,35.5-16.9c8.6-6.5,13-15.4,14.5-26
			c2.4-16.7-0.1-32-11.8-45c-4.3-4.7-8.3-9.6-12.5-14.4c-6.5-7.4-12.6-15.1-17.9-23.4c-1.1-1.8-1.6-3.1,0.1-4.8
			c2.5-2.5,1.8-6.8,3.8-9.1c2-2.3,5.9-2.7,8.3-5.3c7-7.4,5.4-20.4-3.5-26.1c-4-2.5-8.1-4.8-12.4-6.9c-1.9-1-2.7-2.3-3.1-4.2
			c-1.3-5.6-2.5-11.2-4.1-16.7c-2.3-8.1-6.1-15.5-11.4-22c-1.2-1.5-1.4-2.3,0.4-3.8c4.9-4,9.7-8.2,14.3-12.6c2.1-2,4.1-2.5,6.9-1.9
			c10.3,2.1,19.9,1,27.5-7.3c5.2-5.7,6-12.6,5.2-19.9C396.3,113,396.5,113,396.7,113.3z"/>
		<path class="st0" d="M394.6,108.7c-1.5-3.3-2.8-6.5-2.5-10.5c0.5-8.2-6.8-14.8-15.5-14.7c-1.8,0-3.3-0.4-4.8-1.3
			c-9.5-5.6-19.6-8.7-30.7-5.6c-9.9,2.7-15.9,10.5-16.1,20.8c0,1.9-0.3,3.5-2.5,3.9c-7.7,1.2-14,5.6-21,8.5c-3,1.2-5.9,2.7-8.7,4.2
			c-2.2,1.2-3.1,1-3-1.7c0.1-4.8-0.8-9.4-2.4-13.9c-4.2-11.8-15.1-15.9-25.8-9.3c-9.9,6.1-18.9,13.3-25.5,23.7
			c-0.8-5.9-1.1-11.3-2.8-16.5c-6-18.1-24.3-23-38.5-10.2c-6.9,6.2-11.8,13.8-16.2,21.8c-1.1,1.9-2.3,3.1-4.5,4
			c-6.9,2.7-11.8,8.2-16.9,13.3c-2.8,2.9-5.6,4.9-9.8,5c-8.5,0.3-16.2,3.5-23.6,7.5c-2.1,1.1-3.2,1-4.1-1.6
			c-4-10.9-11.5-18.7-21.9-23.8c-1.6-0.8-2.4-1.6-2.6-3.6c-0.4-4.5-1.3-8.9-1.9-13.3c-0.8-6.2,2.4-10.3,8.6-11.3
			c2.6-0.4,5.2-0.7,7.8-1.2c6.4-1.3,11.3-0.9,17.1,4.4c20.5,18.8,53.3,12.1,66.4-12.7c1.3-2.5,2.6-4.4,5.7-4.1
			c0.4,0,0.7-0.1,1.1-0.2c7.4-1.8,13.2-1,19.8,4.9c20.8,18.5,54.7,10.4,66.6-14.8c0.8-1.7,1.7-2.4,3.5-2.6c4.4-0.5,8.9-1.2,13.3-2
			c2-0.4,2.9,0.9,4,2.1c16.7,18.4,46.3,19,63.4,1.2c3.1-3.3,5.7-7,7.4-11.1c0.9-2.2,2.2-3,4.4-3.3c5.4-0.7,10.8-1.5,16.3-2.2
			c5.2-0.7,9.4,2.1,10.5,7.3c1,5.1,1.5,10.3,2.3,15.5c0.2,1.3-0.2,2-1.1,2.9c-11.9,10.7-16.8,24-14.6,39.9
			C395.7,108.7,395.3,108.9,394.6,108.7z"/>
		<path class="st1" d="M170.8,264.3c3.6,10.6,5.5,21.7,7.2,32.7c1.7,10.9,2.8,22,2.5,33.1c-0.1,4.4-0.4,8.7-1.6,12.9
			c-2.3,1.5-4,0.3-4.8-1.7c-1.2-3.2-3.2-5.5-5.8-7.5c-1.7-1.3-2.5-3.4-3.5-5.2c-1.1-1.9-2.4-2.9-4.5-1.2c-1.9-0.2-1.7-1.9-2.1-3.1
			c-1.3-4.5-2.7-9-4.2-13.4c-1.4-4-1.6-4.1-5.2-1.5c-1.9,1.3-3.2,3.6-5.6,4.1c-3.4,1-6.7,0.7-10-0.7c-2-0.8-4.3-1.4-6.5-1.5
			c-3.8-0.1-7.1-0.9-8.6-5c-0.6-1.6-2.8-1.5-3.7-2.9c-0.6-4-0.2-7.9,2.6-11.1c1.8-2,3.7-4.1,2.4-7.2c-0.3-0.8,0.1-1.8,0.6-2.5
			c1.4-1.9,2.6-3.9,2.4-6.4c-0.1-1,0.5-2,1.4-2.5c3-1.6,4.1-4.5,5-7.5c0.6-2,1.8-3.8,3.3-5.4c1.4-1.5,2.9-1.9,4.5-0.3
			c0.4,1.5-0.5,2.7-1.2,3.8c-3,4.2-4,9.1-3.9,14.2c0.1,4.4-0.5,8.9,0.8,13.9c2.4-4.9,5.3-9,8.4-12.8c1.4-1.7,1.1-3.4,0.5-5.3
			c-1.4-4.8-3.7-9.3-4.2-14.3c1.7-3.6,4.4-0.2,6.5-0.9c0.4-1.3-0.7-1.4-1.4-1.8c-0.8-0.6-2.1-0.8-2.5-1.6c-2.6-4.7-8.2-5-11.8-8.2
			c-0.7-0.6-1.6-0.9-2.4-0.6c-3.4,1.2-5-1.5-6.9-3.2c-1.1-0.9-0.8-2,0-3c0.8-1.1,1.8-2.1,2.9-2.9c1.9-1.2,3,0.1,4.2,1.2
			c1,0.9,1.9,1.6,3.2,0.7c1.6-1,3.2-2.3,5-0.7c2,1.8-0.8,3-0.7,4.8c3.2,0.3,6.3,0.8,9.1,2.6c1.6,1,2.8,2,2.8,4
			c0,2.4,1.2,3.1,3.4,2.4c4.8-1.4,8.4,1.6,11.8,3.8c2.8,1.8,6.2,3.4,7.1,7.7C167.4,266.5,169.5,264.7,170.8,264.3z"/>
		<path class="st2" d="M303.2,356.4c-18.3-4.8-36.7-9-55.4-12.1c-9.6-1.6-19.3-2-28.8-4.3c-10.6-2.5-20.5-6.3-28.4-14.1
			c-3.7-3.6-6.8-7.3-6.3-13.2c1.1-12-0.8-23.8-3.2-35.6c1.4-1.2,3-1.2,4,0.1c1.9,2.6,4.7,3.1,7.4,3.9c1.1,0.3,2.4,0.4,3,1.4
			c3.5,6.1,11.3,6.9,15.3,12.4c0.4,0.5,1,0.9,1.6,0.9c6.5,0.2,10,5.4,14.4,8.9c1,0.8,2.1,1.3,3.3,1.5c2.2,0.5,4.3,1.4,5.9,2.9
			c1.5,1.6,3.5,2.5,5.4,3.5c1.7,4.2,5.7,6.7,7.8,10.6c0.7,1.3,2.1,1.7,3.3,2.2c2.3,0.9,4.6,1.8,6.5,3.6c1.2,1.2,2.6,1.4,4.1,0.8
			c2.2-0.9,4.5-0.4,5.8,1.3c3.5,4.6,9.8,5.5,13.4,9.7c4.5,5.3,10.9,6.5,16.6,9.4C301.3,351.6,304,352.8,303.2,356.4z"/>
		<path class="st0" d="M232.2,449.1c-13.8-4.5-26.5-3.5-38.5,3.8c-7,4.2-12.3,10.1-15.8,17.4c-1.1,2.4-2.6,3.3-5,3.6
			c-5.6,0.7-11.1,1.6-16.6,2.2c-5.1,0.6-9.1-2-10.2-7.1c-1.1-5.2-1.6-10.6-2.5-15.9c-0.2-1.1,0-1.9,1-2.5c0.1-0.1,0.2-0.1,0.3-0.2
			c4-6,9.4-7.3,16.4-6.4c9.3,1.3,18.6-1.1,27.8-2.3c7.1-0.9,13.8-3,20.8-4.1C219.5,436.2,227.5,440.1,232.2,449.1z"/>
		<path class="st3" d="M172.3,168.6c-0.3-2.2,0.1-4.3,1-6.2c5.9-12.8,9.2-26.6,15.2-39.3c3.8-8,8-15.8,14.1-22.3
			c3-3.2,6.2-7.1,11.4-5.5c5,1.5,5.8,6.3,6.5,10.5c1.7,10,1.3,20.1-0.3,30.1c-1.6-0.7-2.2,0.5-2.9,1.5c-2.4,3-4,6.5-6.4,9.5
			c-1.3,1.7-2.8,3.6-5.4,1.7c0.2-6.4,2.2-12.5,2.8-18.8c0.3-3.6,0.9-7.2,1.1-10.8c0.1-1.2,0.4-2.8-1.2-3.2c-1.3-0.3-1.9,1-2.5,1.9
			c-2.7,3.7-4.2,7.9-5.8,12.1c-3.5,9.7-6.3,19.7-8.6,29.8c-0.5,2.4-1,4.9-2.7,6.8c-1.2,0.1-2.3,0.5-3.4,1.3
			C180.3,171.7,177.9,171.8,172.3,168.6z"/>
		<path class="st4" d="M175.8,256.3c-3.1-5.8-2.1-11.7-1-17.8c1.3-7.1,2.2-14.2,3.3-21.3c1.9,2,4.8,1.9,7.1,3.1c1,0.5,1.5-0.3,2.1-1
			c2.4-2.8,5-3.6,8.8-2.1c4.5,1.7,9.3,0,13.9-0.8c1.8-0.3,3.4-1.5,5.3-1.5c1.7,1.6,0.5,2.9-0.5,4.1c-0.4,0.6-1.2,1-0.6,1.8
			c0.5,0.7,1.2,0.7,2,0.5c2.2-0.7,3.3,0.2,3.6,2.3c-0.6,2.3-1.7,4.5-3.4,6.2c-2.2,1.2-4.3,0.9-6.4-0.1c-2.4-1.1-4.8-1.4-6.9,0.8
			c-1.4,1.5-3.2,1.1-4.9,0.6c-2.9-0.8-5.6-0.7-8.1,1.4c-1.3,1-2.8,1.3-4.6,1.1c-3.1-0.4-5.3,2.3-4.2,5.1c1.2,3.1,2.2,6.3,5.5,8.1
			c1.8,1,3.1,2.4,2.9,4.8c-0.1,1.2,0.6,2.1,1.5,2.9c2.6,2.3,5.9,3.4,8.2,6.3c1.2,1.5,3.8,0.3,5.7,0.9c2.3,0.8,4.1,2.3,5.5,4.3
			c1.3,1.7,2.5,2.9,5,1.9c2.6-1,3.6,2.1,5.7,2.8c2.7,1,2.6,2.9,1.1,5.1c-1,1.5-0.1,2.3,1.2,2.9c1.9,1,3.5,2.4,4.8,4.1
			c0.5,0.6,0.9,1.4,1.6,1.5c3.7,0.3,6.6,1.6,8,5.4c0.4,1.1,2,0.5,3.1,0.4c6.5-0.1,11.7,5.1,11.6,11.5c0,0.8-0.2,1.5-0.9,1.9
			c-3.7,0.8-7.4,0.9-10.8-1.2c-0.9-1.2-0.8-2.8-1.5-4.2c-1-2-1.9-3.8-4.8-2.9c-1.3,0.4-2.5-0.2-3.1-1.4c-2-3.9-5.8-5.8-9.5-6.6
			c-3.9-0.9-6.6-3.2-7.9-6.1c-2.1-4.8-6.4-5-10.1-6.6c-1.5-0.6-2.8-1-3.9-2.4c-2.1-2.6-5.3-3.5-8.2-5
			C187,262.8,180.5,260.9,175.8,256.3z"/>
		<path class="st5" d="M229.1,424.1c-10.1-4-20-2.7-30.3-0.6c-15.5,3.2-31.2,6.6-47.2,3.3c-1.1-0.2-2.2-0.5-3.2-0.8
			c-3-1.7-5.9-3.7-9.6-3.6c-0.8,0-1.5-0.2-2.1-0.7c-3.6-2.8-7.7-3.9-12.2-3.7c-0.9,0-1.7-0.2-2.4-0.9c-1.6-0.5-3.2-1.2-4.5-2.2
			c1.9-2.6,4.1-4.8,6.2-7.2c1.4-0.6,2.8-0.4,3.8,0.6c2,1.9,3.9,1.4,6.1,0.4c4.7-1.9,8.1-0.8,11.2,3.5c1.7,2.3,4.1,3,6,1.2
			c3-2.9,6.2-2.7,9.7-1.6c2.9,1,5.6,0.9,8-1.3c6.6,0.9,13.1,0.1,19.6-1.4c3.3-0.6,6,1.4,8.8,2.4c7.3,2.5,14.8,3.7,22.4,5
			c3.1,0.5,5.1,2.2,7.3,4c0.3,0.2,0.7,0.3,1,0.5C228.5,421.9,230.2,422.3,229.1,424.1z"/>
		<path class="st6" d="M389.2,340.9c-2.5,7.3-8.6,10.8-14.9,14.2c-0.6,0.2-1.3,0.1-1.8-0.2c-5-3-11.2-4.5-14.2-10.3
			c-0.5-0.9-1.4-1.4-2.2-1.9c-3.1-5.3-7.6-8.3-13.6-10.1c-4-1.2-7.9-3.2-12.1-4.1c-1-0.6-1.2-1.5-1.2-2.6c0-0.9,0-2-0.8-2.4
			c-4.4-1.9-5.2-6.3-7-10c1.1-6.7-0.6-13.2-0.6-19.9c0-1.5-0.9-2.2-1.6-3.1c-2.3-3.1-1.3-6.4,2.3-8c2.5,0.7,4,2.6,4.4,5
			c0.3,1.8,0.8,2.7,2.8,2.5c2.8-0.2,3.9,1.4,3.3,4c-0.4,2,0.2,3.3,1.5,4.6c1.7,1.7,3.3,3.4,3.6,6c0.1,1.1,0.8,1.9,1.7,2.3
			c4,1.9,5.3,5.4,5.7,9.4c0.2,1.7,0.5,2.9,2.5,2.9c2.7,0.1,4.3,1.8,5.3,4.1c0.8,1.9,1.9,3.5,4.1,3.9c1.7,0.7,2.8,2.1,3.7,3.5
			c2.3,3.7,5.7,5.8,10,6.3c4,0.6,7.8,1.8,11.7,2.9c1.2,0.4,2.4,0.6,3.6,0.2C386.7,340,388.1,339.7,389.2,340.9z"/>
		<path class="st7" d="M121.2,156.6c11.1-6.2,22.5-11.6,35.6-11.9c2.9-0.1,5-1.1,7-3.5c4-4.9,8.8-9.1,13.8-13.1
			c0.9-0.7,1.8-1.8,3.4-1.2c-3.1,7-7.1,13.8-9.2,21.1c-2.7,9.4-8.8,16.8-12.9,25.4c-3.7-0.3-7.3,0.4-11,0.8c-1.8,0.2-3.3,0.3-5-0.7
			c-3.8-2.1-8.1-3.4-11.8-5.4c-4.2-2.2-6.5-7.2-10-10.7C121,157.2,121.1,156.8,121.2,156.6z"/>
		<path class="st8" d="M83.6,388.1c-2.6-2.7-4.9-5.7-6.7-9c3.1-3.5,7.9-4.5,11.3-7.8c1.2-1.1,3-0.9,4.7-0.8c4.5,0.2,7.5-2.2,9.6-5.9
			c1.7-3,0.3-6.1-3-6.3c-3.4-0.2-4.8-1.5-4.6-4.8c0.2-2.5-0.8-4.1-3.5-4.3c-2.3-0.1-3.6-1.5-4.5-3.4c-0.9-2-2.3-3-4.7-2.9
			c-3.6,0.2-6-2.1-8.3-4.5c-1-1.1-1.6-2.5-2.3-3.8c-1.7-2.9-3-6.2-6.8-7.1c-1.1-0.3-2.2-1.2-2-2.7c2.6-2.4,6.3-2.8,9.1-4.8
			c2.4,0.5,4.1,2.2,5.6,4c0.5,0.7,0.8,1.8,1.6,2c3.9,1.1,6.7,3.7,10,5.9c2.9,2,6.1,3.6,8.9,5.7c1.1,2.5,2.6,4.8,2.9,7.6
			c0.3,2.3,1.9,3.3,4.2,3.4c1.5,0,3,0,4.5,0.1c2.2,0.2,3.6,1.3,2.9,3.7c-0.6,2.2,0.1,3.6,2.3,4.3c0.3,0.1,0.7,0.3,1,0.5
			c1.9,1.2,3.5,2.8,3.4,5c-0.1,2.5-2.9,1.2-4.1,2.2c-0.3,1,0.6,1.5,1,2.2c1.3,2.3,0.5,3.7-1.7,4.8c-2.6,1.3-5.5,1.5-8.2,2.4
			c-1.5,0.6-1.4,2.1-1.9,3.4c-2.7,6.8-6,10.3-13,9.8C88.6,387,86.3,389.3,83.6,388.1z"/>
		<path class="st9" d="M168.5,410.6c-1.3,4.1-4.5,3.4-7.2,2.5c-3.9-1.2-7.3-2-10.4,1.8c-1.4,1.7-5.6,0.6-6.7-1.5
			c-2.5-4.5-6-5.8-10.7-3.5c-2.6,1.3-4.5,1.8-6.4-0.8c-0.9-1.1-2.2-0.9-3.5-0.9c-3.8-2-4.4-4-1.7-7.1c1.7-1.9,2.4-4.7,5.3-5.4
			c0.5-0.1,1-0.1,1.4,0.1c5,1.5,5.3,1.3,6.5-3.8c1-2.2,2.7-3.2,5.1-2.4c1.7,0.6,2.3-0.2,2.4-1.7c0.1-0.9,0.2-1.7,0.5-2.6
			c1.1-3.1,2.6-4,5.9-3.2c1.1,0.3,2.1,0.5,3-0.6c3.2-4,7.7-3.5,12.1-3.2c-0.9,1.5-1.9,3.1-2.9,4.8c2,1.4,4.5,0.8,6.4,1.9
			c1.3,1.5,2.7,3,4.3,4.1c2.6,1.9,3.8,4.2,2.4,7.3c-0.4,0.9-0.1,2-0.7,2.9c-5.9,1.4-11.8,0.4-17.7-0.6c-6.2-1.1-6.2-1.1-9.1,5
			C154.1,406,161.1,409,168.5,410.6z"/>
		<path class="st10" d="M76.4,206.8c1.4-6.2,4.1-11.9,7.3-17.3c2.5-1.5,4.7-1,7.1,0.6c4.3,2.9,8.2,6.6,11.5,10.3
			c2.9,3.2,4.8,5.5,9,3.1c1.2,1.8-1.1,4,0.7,5.7c1.4,3.2,2.7,6.3,2.4,9.9c-0.3,2.5,2.6,4.2,2.2,6.9c-3.7,5.3-8.6,9.1-14.8,10.9
			c-2.5-2.5-6.3-3.2-8.5-6.1c-0.1-0.2-0.1-0.5,0-0.7c2-5.4,2.1-5.6-3.6-7.9c-1.8-0.7-2.7-1.5-2.6-3.3c0-0.5,0.1-1.1-0.2-1.4
			c-2.6-2.2-4.4-4.8-4.6-8.4c0-0.9-1.2-1-2.1-1.1C78.8,207.9,77.4,208,76.4,206.8z"/>
		<path class="st11" d="M271,187.4c1.3,0.7,2.7,1.5,4.6,2.5c-0.6-1.4-1-2.3-1.4-3.2c0.5-0.6,1.3-0.7,2-0.9c3.3-1.1,4.6-3.2,3.6-6.5
			c-0.7-2.3-0.4-3.9,2.2-4.5c2.4-0.5,2.6-2.6,2.4-4.4c-0.3-2.9,0.8-4.9,3-6.7c2.3-1.9,3.5-4.4,2.8-7.6c-0.3-1.4-0.2-2.7,0.9-3.8
			c2.7,2.8,5.5,5.5,8.2,8.3c-0.4,3-2.6,4.7-5,5.8c-1.6,0.7-2.1,1.5-2.4,3.1c-0.5,2.5-1,5-2.2,7.3c-2,0.8-0.8,2.4-0.6,3.3
			c0.4,2,1.4,3.8,2.2,5.7c-2.6,1.2-3.8,3.7-5.6,5.5c-3.3,3.4-5.7,7.3-8.2,11.2c-1.1,1.8-3,3-5,3.8c-3.9,1.5-5.8,4.5-6.6,8.4
			c-0.3,1.6-1,3.1-1.8,4.5c-0.6,1-1.4,1.8-2.7,1.6c-1.2-0.2-1.6-1.1-1.9-2c-0.3-0.9-0.1-2.3-1.3-2.4c-1.4-0.2-1.6,1.3-2.2,2.2
			c-1.4,2-3,3.9-4.1,6.2c-0.6,1.3-1.7,2.2-3.2,2.2c-4.7-1.3-9.5-1.6-14.3-0.5c-3.2-0.3-6.6-0.2-9.3-2.5c-0.6-3.2,1.3-4.6,3.9-5.3
			c1.7-0.5,3.3-0.9,4.2-2.7c1-2,2.5-2.3,4.3-0.9c1.9,1.4,3.6,1.9,4.8-0.7c0.3-0.6,0.8-1.2,1.4-1.2c6-0.3,7.1-5.7,9.7-9.5
			c1.8-2.7,3.8-5,7-5.7c4.3-1,6.9-3.6,8.3-7.7C269.2,189,269.6,187.8,271,187.4z"/>
		<path class="st12" d="M76.4,206.8c1.5,0.1,2.9,0.2,4.4,0.3c2.1,0.1,3.3,0.9,2.9,3.2c-0.2,1.2-0.2,2.9,0.7,3.5
			c2.6,1.6,4.6,3.4,3.6,6.8c2.5-0.6,3.4,2.2,5.5,2.7c3.4,0.9,3.6,1.9,1.7,4.9c-0.5,0.8-1.1,1.7-1.6,2.5c0,0.6,0.4,1.3,0.2,1.8
			c-2.6,5.4,0.3,10.7,0.1,16.1c-0.1,1.4,0.4,2.7,1,3.9c1.3,3,2.2,5.9-0.7,8.6c-1,0.9-0.3,1.8,0,2.7c2.2,7.1,0.9,9.3-5.9,13.2
			c-1.4,0.8-2.5,1.5-2.9,3.1c-0.2,0.7-0.4,1.5-0.9,2c-3.3,3.2-5.2,7.2-6.3,11.6c-0.5,0.3-1,0.3-1.6,0.1c-1.5-1.6,0.1-3.6-0.7-5.1
			c-1.8,0.1-3.2,1.6-5.2,0.9c-3.7-5.3-3.4-7.8,1.4-10.6c2.7,1.2,0.5,3.9,1.8,5.7c0.1,0.3,0.6-0.4,0.2-0.1c-0.1,0.1-0.2,0-0.3-0.2
			c-0.5-2.6,0.2-5.2,0.5-7.7c5.7-2.9,2.3-8,2.6-12.1c0.1-1.5-1.4-3.2,0.6-4.6c1.7-1.2,3.4-2.1,5.3-0.3c0.3-1.7-0.8-3-0.2-4.4
			c1.9-3.2,2.7-6.4-0.4-9.4c-0.1-0.3-0.2-0.7-0.2-1c1.7-2.3,1.3-5.2,2.6-7.7c0-0.1,0.6-0.1,0.1-0.2c-3.8-1.1-3.7-6-7.4-7.4
			c-1-0.4-0.7-2-0.9-3.1c-0.6-3.5-0.7-7.2-3-10.2C74.4,213.3,74.7,209.9,76.4,206.8z"/>
		<path class="st13" d="M251.6,167.7c-3.8-1-7.5-1.9-11.3-2.9c-2-3.1,0.6-4.8,2.4-5.8c3-1.5,3.5-3.1,2.8-6.4
			c-0.9-4.5,1.5-8.1,5.7-9.6c2.6-0.9,3.3-2.5,2.5-4.9c-0.7-2-1-3.8-0.1-5.8c0.7-1.6-0.3-2.8-1.1-4.1c-1.1-1.8-1.3-3.6,0.5-5
			c2.4-1.9,2.9-3.8,0.6-6.2c-0.5-0.5-0.3-1.2,0.1-1.7c4.6-4.9,10-8.9,15.5-12.7c2.1-1.4,3.4-0.8,4.3,1.4c0.8,2.1,1.2,4.3,1.4,6.5
			c0.9,8,0.5,15.9-0.6,23.8c-0.3,2.2-1.2,3.5-3.3,4.4c-3.9,1.6-7.7,3.5-11.4,5.4c-2.6,1.3-5.8,2.3-5.8,6c-0.1,3.8,2.1,6.2,5.4,7.7
			C258.3,162.6,254.2,164.6,251.6,167.7z"/>
		<path class="st14" d="M74.2,337.8c3,2.2,5.4,5.5,10.1,4c1.5-0.5,2.4,1.5,3,2.9c1,2.4,2.2,4,5.2,3.7c2.8-0.2,3.7,1.8,3.4,4.2
			c-0.4,3.4,0.5,5.3,4.3,4.7c1.7-0.3,2.9,0.5,3.5,2.1c0.7,2.2,0.9,4.4-0.6,6.4c-3.4,4.3-3.4,4.3-8.6,5.9c-0.6,0.2-1.1,0.2-1.7,0
			c-2.2-1-4.2-0.3-5.6,1.5c-2.3,3-6.4,2.9-8.8,5.7c-0.2,0.3-1,0.1-1.5,0.2c-4.3-6.7-6-14.3-7.1-22.1c-0.8-5.3-1-10.6-1.4-15.9
			c-0.1-1.2-0.4-2.1-1-3.1C69.1,336.3,70.5,336.3,74.2,337.8z"/>
		<path class="st15" d="M324.2,219.7c2.7,1.6,5.1,3.5,8,4.7c2.4,0.9,3.7,3,4.4,5.3c2.4,7.3,5.3,14.4,8.5,21.4
			c1.2,2.6,0.6,6.3,4.2,7.5c0.9,1.4,1.7,2.9,2.6,4.3c0.5,2.3,0.7,4.6,1.8,6.7c0.7,1.5,0.3,3.1-2.1,3.4c2.5,2.2,3.6,4.7,1.9,7.9
			c-0.6,1.1-0.4,2.3,0.9,2.8c5.5,1.8,5.5,6,4.9,10.5c-0.1,0.5-0.1,1-0.1,1.5c2.7,2.7,2.2,5.8,1.4,9c-0.2,0.7-0.5,1.1-1.2,1.3
			c-1.9-0.4-2-2.1-2.4-3.4c-1.6-5.5-5.7-8.5-10.5-10.7c-2.9-2-5.1-4.3-3.6-8.4c0.6-1.5-0.5-2.9-1.4-4.1c-3.1-4-5.2-8.4-5.6-13.6
			c-0.2-2.4-1-4.6-3.5-5.8c-0.8-0.4-1.5-1.1-1.7-1.9c-0.8-5.5-3-11-1.2-16.7c0.7-2.2-0.2-3.4-1.8-4.3c-2.9-1.7-3.2-3.7-1.6-6.5
			c1.6-2.7,2.3-5.3-1.1-7.4C323.9,222.5,323,221.2,324.2,219.7z"/>
		<path class="st16" d="M155.8,212.8c1.4,0.4,1.4-1.1,2.1-1.5c0.6-0.1,1.3-0.1,1.8,0.2c2.9,2.4,5.5,3.2,8.1-0.4
			c0.4-0.5,1.4-0.4,2,0.3c-0.1,11-1,22-3.1,32.8c-0.5,2.5,0,4.6,0.3,6.9c-2.3-0.4-5.1-0.6-6.6-1.7c-3.1-2.3-6.9-3.2-9.6-5.3
			c-2.7-2.2-6.5-3.7-7.9-7.5c-0.3-0.8-1.3-1.1-2.2-1.2c-3.4-0.7-5.1-2.8-5.2-6.3c0.4-2.3,0.5-4.7,1-7c1.1-4.4,3.4-6.3,7.9-6.5
			c0.9,0,1.8-0.1,2.6,0C150.5,216.3,153.4,215.2,155.8,212.8z"/>
		<path class="st17" d="M249.3,226.3c2.9-2.6,4.1-6.3,6.4-9.3c0.8-1.1,1.2-2.7,2.8-2.4c1.4,0.3,2.3,1.5,1.8,3.1
			c-0.3,1.1,0,2.1,1.2,2.4c1.2,0.3,1.7-0.6,2.1-1.7c0.5-1.5,1.3-2.8,1.6-4.5c0.7-3.7,2.6-6.8,6.5-8.4c3.9-1.6,6.2-4.5,8-8.7
			c1.7-4,6.3-6.4,8.5-10.6c0.3-0.6,2.1-0.4,3.2-0.6c2.7,3.2,5.4,6.4,8.2,9.6c0.6,1.3,1.1,2.6,0.6,4c-0.7,1.6-2.2,1.9-3.7,2
			c-2.4,0.2-2.6,1.3-1.7,3.3c1.9,4.2,1.6,4-1.8,7.2c-2.6,2.4-5,3.8-8.6,3.1c-2-0.4-2.9,1-3.5,2.6c-1,2.7-2.9,4.2-5.8,4.6
			c-1.9,0.2-3.1,1.7-4.7,2.7c-4.8,2.9-9.1,6.9-14.9,7.7C252.8,231,250.6,229.1,249.3,226.3z"/>
		<path class="st18" d="M324.2,219.7c-0.1,1.2,0.2,2.5,1.3,2.9c4.6,1.8,3.4,5.1,1.7,7.9c-1.7,2.8-2,4.4,1.4,6
			c2.3,1.1,3.5,3.1,1.5,5.7c-1.1,1.4-1,2.8-0.3,4.5c1.3,2.8,0.4,6.1,1.1,9.1c0.2,1.1,0.3,2.7,1.2,3c4.7,1.6,4.7,5.7,5.1,9.4
			c0.5,4.4,3,7.7,5.4,11.1c1.4,2,2.4,3.8,0.8,6.1c-0.8,1.1-0.3,2.1,0.6,3c0.9,1,1.8,2,2.7,3.1c-0.6,1.7-2.3,2.8-2.7,4.6
			c-2.6,1.4-4.9,0.9-6.1-1.7c-2.4-5.1-5-10.2-7.4-15.3c-0.3-1.2-0.8-2.4-1.7-3.3c-1.1-1.1-1.3-2.4-0.7-3.8c1.5-3.9-0.5-6.6-3.4-8.6
			c-2.3-1.6-2.8-3.6-3.4-6.2c-1.3-5.8-1.7-11.8-3.5-17.4c-0.4-1.2-1.2-1.8-2.2-2.5c-1.1-0.7-2.1-1.3-2.5-2.6c-0.3-1-0.4-2.2,0.2-2.9
			c2.6-3.1,0.9-6.7,1.4-10.1c0.1-0.8-0.3-1.4-0.9-1.9c-0.5-0.4-1.2-1.3-0.9-1.5c2.5-1.6,0.7-4.7,2.4-6.5
			C318.2,214.4,321.2,217.1,324.2,219.7z"/>
		<path class="st19" d="M358.7,295.9c-1.2-1.9,0.2-3.8,0-5.8c-0.2-2.8-1.3-4.9-4.1-5.4c-2.9-0.5-3.4-2.1-2-4.2
			c2-3.1,0.7-5.1-2.1-7.4c3.9-0.9,3.4-3.1,1.6-5.1c-1.6-1.9-0.4-3.5-0.1-5.3c9.4,13.8,20.7,26,31.5,38.7c6.3,7.5,9.6,15.9,8,25.8
			c-4.4,2.3-6.1,1.7-7.8-2.6c-0.6-1.6-1.1-3.3-2.3-4.7c-2.3-3.5-4.6-6.7-8.8-8.3c-2.2-0.9-3.7-3-4.2-5.4c-1-4.4-3.2-7.4-7.7-8.6
			C359.7,297.5,358.8,297.1,358.7,295.9z"/>
		<path class="st20" d="M303.2,356.4c-1-4.3-4.8-6.1-8.2-6.7c-6.8-1.1-10.3-6.7-15.6-9.6c-4.5-2.5-8.5-5.5-12.3-8.9
			c-1-0.9-2.5-1.2-3.8-0.1c-1.9,1.5-3.4,0.8-4.8-0.7c-1.4-1.5-3.1-2.4-5-3.1c-2.5-0.9-5.7-1.4-5.9-5.1c0-0.3-0.3-0.8-0.6-0.9
			c-4.1-1.2-4.4-5-6-8c1.4-2.4,4-3.5,6.9-2c3.6,1.9,7.2,3.9,10.6,6c2.2,1.3,3.4,3.6,4.5,5.9c1,2.1,2.2,3.2,4.7,2
			c1.5-0.7,3.1-1,4.6,0.1c3.5,9.6,11.4,13.9,20.6,15.2c10.1,1.4,17.9,6.7,25.9,12c2.1,1.4,4,2.9,6,4.4c2.4,1.7,1.8,3.2-0.3,4.6
			c-2,1.3-4,1.6-6.4,0.7C313.3,360,308.2,358.3,303.2,356.4z"/>
		<path class="st21" d="M253.8,115.5c0,0.2,0,0.6,0.1,0.7c4.4,3.1,2.9,5.7-0.6,8.2c-2.1,1.5-0.4,3,0.5,4.1c1.4,1.6,2,3,0.5,4.9
			c-1.1,1.4-0.2,2.8,0.3,4.2c1.4,3.6,0.3,5.6-3.4,6.4c-3.5,0.8-6.4,6.7-4.6,10.2c1.8,3.3,0.3,3.9-2.4,4.9c-2.4,0.9-4.3,2.7-4.1,5.7
			c-5.8-1.3-11.4-3.3-17-5.6c-0.8-0.3-1.8-0.6-1.6-1.7c0.6-3.2,0-6.6,3-9.3c5.4-4.9,9.6-11.3,17.2-13.3c1.2-0.3,1.1-1.5,1.5-2.4
			C246.2,126.4,249.1,120.4,253.8,115.5z"/>
		<path class="st22" d="M330.2,354.9c-6-4.4-12.2-8.5-17.9-13.2c-5.1-4.2-11.1-5.6-17.3-6.9c-2.7-4.1-4.9-8.5-9.5-11.2
			c-3.2-1.8-6.9-1.9-10-3.9c-1.3-1.6-2.6-2.6-3.8,0.1c-4.5,1.4-4.9,1.3-7.7-2.4c-1.1-1.4-2.4-2.5-4.1-3c-5.7-1.7-7.3-4.9-5.5-10.6
			c1.6-1.5,3.5-1.6,5.5-1.2c1.8,0.3,3.6,0.4,5.5,0.2c1.6,0,2.9,0.8,4.3,1.4c3.3,2.9,3.3,3.7-0.1,5.9c0,0.3,0.2,0.6,0.4,0.6
			c4-0.8,7.1-0.3,9.1,4c0.7,1.5,3.2,0.4,4.9,1c3.3,1.2,6.6,2.3,10,2.9c1.2,0.4,2,1.4,3,2.1c4.1,2.2,7.6,4.8,7.7,10.1
			c0,2.1,4.3,3.5,7.1,2.4c1.4-0.5,2.5-1.6,4.2-1.2c2.1,1.9,4.3,3.6,6.8,4.8c1.3,2.3,2.4,4.7,4.1,6.7c1.2,2.4,2.6,4.5,5.8,3.4
			c2,0.4,4-0.9,5.9,0.5c1.1,3.4-1.9,3.8-3.7,4.8C333.3,353.2,331.4,353.5,330.2,354.9z"/>
		<path class="st23" d="M255.4,174.6c3.6,0.1,5.7,2.5,7.7,5.1c0.6,0.9,0.9,2,1.9,2.6c-0.1,2.2-1.9,2.5-3.3,2.9
			c-2.6,0.8-4.3,2.2-5.3,4.8c-0.8,2.2-2.2,3.9-4.5,4.6c-1.1,0.4-2.2,0.9-2.7,1.9c-2.1,4.1-6.1,6.4-9.2,9.5
			c-3.2,3.2-7.5,4.8-12.4,3.4c-4.4-1.7-5.6-1.3-8.1,2.4c-2.3,3.5-5.3,3.7-8,0.6c-0.9-1-1.8-1.6-3.1-1.8c-1.2-0.1-2.5-0.3-3.3-1.4
			c-0.5-3.7,1.3-6.3,4.9-6.9c2-0.4,3.9-0.7,5.4-2.2c1.8-1.7,3.9-2.1,6.1-0.8c1.4,0.8,2.6,0.7,3.4-0.8c1.2-2.1,2.6-3.1,5.4-2.7
			c3,0.4,4.3-2.9,5.4-4.9c1.8-3.1,3.4-5.7,7.3-5.8c0.7,0,1.6-0.5,1.8-1.2c1.9-4.7,7.6-5.4,10-9.6
			C254.8,174.4,255.2,174.5,255.4,174.6z"/>
		<path class="st24" d="M178.3,202.3c-0.4-2.4-1-4.9-0.9-7.4c0.2-4.2,2.3-6.7,6.1-6.9c2.6-0.2,4.9-0.6,7-2.1c1.7-1.2,3.8-1.2,5.8-1
			c3,0.3,5.5-0.3,7.5-3c2.2-2.9,5.8-3.8,8.8-5.5c2.8-1.6,5.2-3.3,5.2-7c0-2,1.5-3.2,3.6-2.8c1.7,0.4,3.2-0.4,4.7-0.3
			c3.7,2.1,8.1,2,11.9,3.8c-2.7,3.6-6.6,6.3-8,10.9c-0.7,2.1-2.7,3.2-4.8,4.3c-3.8,2-7.4,3.7-11.9,3.1c-1.2-0.2-2.6,0.3-3.1,1.7
			c-1.1,3.4-3.8,5-6.6,6.8c-2.9,1.4-5.7,2.3-8.6-0.1c-1.3-1.1-2.9-0.2-4.1,0.7c-3.3,2.3-7.4,2.7-10.7,5
			C179.8,202.9,178.9,203,178.3,202.3z"/>
		<path class="st25" d="M175.8,256.3c5.7,3,11.3,6.2,16.6,9.7c1.5,2.2,0.4,3.8-1.2,5.2c-1.3,1.2-0.8,2,0.6,2.3
			c5.2,1.2,9.8,4.4,15.2,5c1.8,0.2,2.6,1.3,2.4,3.1c-0.1,1,0,2,0.3,3c0.9,3.1,2,3.8,5.2,3.2c4.2-0.8,5.4-0.3,7.4,3.5
			c0.2,0.4,0.3,1.2,0.6,1.3c5.6,1.9,9.1,7.4,15,8.8c1.4,0.5,1.8,1.8,0.9,2.6c-1.9,1.7-1.6,4.3-3.1,6.1c-2.1-1.6-4.4-2.7-7.1-3
			c-0.8-0.1-1.7,0-2-0.7c-1.5-3.7-6.4-3.8-7.9-7.5c-0.2-0.5-1-1-1.5-1c-6.5,0.3-9.5-5.5-14.3-8c-3.2-1.7-6.1-3-7.9-6.4
			c-1-1.9-4.2-1.7-6.4-2.4c-1.6-0.5-3.1-0.9-3.7-2.6c-0.7-2.1-2.5-1-3.8-1.3C179.4,270.2,177.6,263.2,175.8,256.3z"/>
		<path class="st26" d="M227.6,209.1c4.3,0.7,9-0.3,11.4-3.3c2.9-3.5,7.4-5.3,9.3-9.6c0-0.1,0.1-0.3,0.2-0.3c3.8-2.3,7-5.1,8.9-9.4
			c1.2-2.8,5.7-1.5,7.6-4.1c2,1.7,4,3.3,6,5c-0.6,1.5-1.3,3-1.9,4.5c-1.3,3.4-3.6,5.9-7.3,6.6c-4,0.8-6.6,3.1-8.1,6.8
			c-1.2,3-3.4,6.5-5.2,7.6c-2.5,1.6-6,1.7-7.9,4.8c-0.1,0.1-2.6-0.8-3.5-1.7c-2-2-2.9-1.1-3.5,1c-0.4,1.6-1.3,2.2-2.9,2.2
			c-2.8,0-4.7,1.4-5.5,4.1c-2,1.5-4,1.5-6,0c-0.7-0.8-1.2-2.7-2.7-1.4c-2.3,2.2-3.1-0.3-3.9-1.3c-1.2-1.6,0.4-1.8,1.5-2.4
			c1.1-0.6,1.1-2,1.3-3.2c3.9-0.9,7.7-1.9,10.3-5.3C226.3,209.2,227,209.1,227.6,209.1z"/>
		<path class="st27" d="M203.7,196.3c1.8-2.4,5.4-3.1,5.8-7.1c0.2-1.8,3.5-2.1,5.5-1.8c3.1,0.5,5.8,0.4,8-2.4
			c0.9-1.2,2.8-0.2,3.8-1.2c1.3-1.3,2.9-2.5,3.1-4.5c0.4-4.3,5.1-5.4,6.5-9c0.1-0.3,1.1-0.2,1.8-0.3c5.8,1.3,11.6,2.6,17.3,4.5
			c-1.2,2.8-3.6,4.1-6,5.8c-3.5,2.4-5.4,7.3-10.7,6.9c-1.1,3.3-3.4,5.9-5.5,8.6c-0.8,1-1.3,2.5-2.8,1.4c-2.7-1.8-4,0-4.8,1.9
			c-1.1,2.6-2.7,2.8-4.6,1.2c-2.1-1.8-3.6-0.8-5.3,0.5c-3.6-0.9-7.1-2.1-10.8-2.7C204.2,198,203.8,197.1,203.7,196.3z"/>
		<path class="st28" d="M337.6,182.1c0.2,0.1,0.2,0.3,0.2,0.5c0.5,4.1,0,4.9-3.8,4.6c-2.4-0.2-2.9,0.8-2.6,2.8
			c0.4,2.3-0.5,4.1-1.5,6.2c-1.2,2.5-0.4,5.7,0,8.6c0.3,1.9,0.7,3.7,0.4,5.5c-0.2,1.3-0.6,2.6-2.4,1.8c-4.9-1.4-9-4.1-12.6-7.5
			c-2.5-4.2-1.5-10.7,2.2-13.5c2.1,2.1,3.6,4.8,6,6.6c0.7,0.5,1.3,1,2.2,1.3c-3.5-7.9-7.5-15.6-13-22.3c-2.2-2.7-1.9-3.9,0.8-5.7
			c3.4-2.3,6.6-4.9,9.8-7.5c1.5-1.3,2.5-1.1,3.6,0.5c1.6,2.4,3.3,4.7,4.9,7C331.3,175.9,333.2,179.7,337.6,182.1z"/>
		<path class="st29" d="M136.3,229.3c0.3,3.4,2.2,5,5.5,5.2c0.6,0,1.6,0.3,1.7,0.5c0.6,4.4,5.9,4.5,7.3,8.1c0.5,1.3,1.6,2,3.3,1.2
			c2.4-1.2,3.9,0.4,4.5,2.4c0.5,1.9,1.5,2.2,2.9,1.9c2.4-0.5,4,0.8,5.4,2.3c1.9,4.2,2.6,8.9,3.8,13.3c-0.3,1.9-1.7,2.5-3.3,2.3
			c-1.7-0.2-1.9-1.8-2-3.2c-0.1-1.9-1-3-2.8-3.5c-1.1-0.3-2.2-0.7-2.6-1.9c-0.7-1.8-2-2.4-3.8-2.1c-0.5,0.1-1.4-0.2-1.7-0.6
			c-2.2-3-4.9-2.1-7.7-1.1c-1.8,0.6-2.8-0.2-3.1-2.1c-0.2-1.4,0.8-3.1-1-4.1c-2.7-1.4-5.3-3.5-8.6-3c-1.1,0.2-2.2,0.9-2.9-0.6
			c-0.5-1.2,0.1-2.3,1-2.9c0.7-0.5,1.7-0.7,0.8-1.9c-0.5-0.7-1.6-1-2-0.5c-3.4,3.6-6,1.9-8.5-1.2c-0.1-0.2-0.9,0.2-1.4,0.3
			c-1.3-0.4-2.3-1.7-4-0.6c-0.9,0.6-1.8,0-2.3-1.1c2.8-4.8,6.2-8.9,11.6-10.9c0.6,0.1,1.3,0.4,1.5,0.9c0.9,2.4,2.6,2.5,4.7,2
			C134.1,228.4,135.3,228.3,136.3,229.3z"/>
		<path class="st30" d="M226.2,166.3c-1.6,0.8-2.6,3.1-5,1c-0.9-0.8-2.7,0.4-2.4,1.8c0.9,4.9-2.7,6.4-5.8,8.3
			c-3.8,2.2-8.1,3.4-10.6,7.8c-0.9,1.7-4.2,0.4-6.4,0.6c-1.1,0.1-2.2-0.8-3.3-0.1c-3.2,2.2-6.6,3.2-10.6,3.4
			c-2.5,0.1-3.8,3.3-4.6,5.8c-0.8-3.9-1.5-7.9-2.3-11.8c-0.6-1.3,0-2.2,1.1-2.8c2.6-1.3,5.3-2.9,8.1-2.5c2.8,0.3,4.6-0.7,6.7-2.2
			c2.6-1.8,4.9-4.3,8.4-4.7c0.7-0.1,1.4-0.6,1.8-1.3c1.3-2.7,3.4-4.4,6.4-5.3c1.7-0.5,1.9-2.5,2.7-3.9c1.6-2.7,3.7-3,5.5-0.7
			c-0.2,1.8,0.4,2.8,2.3,3.4C220.8,163.9,223.5,165.2,226.2,166.3z"/>
		<path class="st31" d="M121.2,156.6c0.2,0.2,0.5,0.4,0.5,0.5c0,4.3,6.3,1.7,6.4,5.9c0.1,4.2,3.2,4.3,6.4,5.1c3.2,0.8,6.1,3,9.2,4.6
			c0.6,0.3,1.6,1.2,1.9,1c3.1-2.1,6.8,0.2,10-1.5c1.4-0.7,2.9-1.3,3.4,1.1c-2.1,4.3-3.7,8.9-5.2,13.5c-3.5-0.2-6.2-2.7-9.7-3.3
			c-5.6-1-11.3-1-16.9-2.6c-1.7-0.5-3.5-0.6-4.2-2.5c-2.5-6.6-8.3-9.9-13.8-13.3c-0.4-0.3-0.8-0.5-1.1-1
			C112,161.1,116.4,158.6,121.2,156.6z"/>
		<path class="st32" d="M107.8,164.1c0.8,0.2,1.9,0.1,2.5,0.6c5,3.6,10.9,6.4,13.1,12.8c0.3,1,0.6,2.3,1.7,2.2
			c3.7-0.4,6.9,1.7,10.5,1.8c6.4,0.1,12.7,1,17.9,5.3c-0.3,3.2-0.6,6.4-0.9,9.6c-0.1,0-0.3,0.2-0.3,0.1c-3.6-2.8-6.7-2.9-9.2,1.6
			c-0.9,1.7-2.8,1.3-4.3,0.3c-1.9-1.2-3.6-2.6-5.1-4.3c0-3.7,1.3-7.1,3.6-9.6c-3.6,0.7-5.6,4.6-9.4,4.6c-1.1-0.6-2.1-1.5-3.4-1.3
			c-2.3,0.4-4.1-0.2-5.2-2.5c-0.4-0.8-1.4-0.9-2.3-1.1c-1.1-0.2-2.5-0.4-2.9-1.4c-1.4-3.5-4.6-3.9-7.5-5.2c-3-1.3-4.5-4.7-7.1-6.8
			C101.9,168.1,104.7,165.9,107.8,164.1z"/>
		<path class="st33" d="M348.8,107.9c9-3.6,18.2-6.2,28.2-8.5c-2.6,5.4-6.5,8.7-9.8,12.6c-1,1.2-2.2,2.3-3.4,3.5
			c-4,4.1-4,4.1,1.2,6.3c2.5,1,5.1,2,7.9,1.9c4-0.1,5.7-2.3,4.7-6.1c-0.3-1.2-0.7-2.5-1.5-3.4c-1.8-2.2-1.7-4.4-0.1-6.7
			c2.6,3.4,5,6.9,5,11.4c0,4.1-2.1,6.7-6.1,7.8c-5.2,1.4-10.3,0.4-14.9-1.9c-3.1-1.5-5.2-1.5-7.3,1.2c-0.7,0.9-1.7,1.4-2.5,2.1
			c-1.5,0.9-3.1,1.4-4.5,0.1c-1.3-1.2-0.7-2.8,0.1-4.1c2-3.7,0.1-6.5-2-9.2c-1.2-1.5-2.5-2.9-1.3-4.9l0,0
			C344.8,109.5,347.7,111.2,348.8,107.9z"/>
		<path class="st34" d="M215.7,159.7c-2.9-2-4.5-0.4-5.1,2.3c-0.5,2.3-1.4,3.5-3.8,3.8c-1.9,0.3-3.5,1.1-3.9,3.4
			c-0.2,1.3-1.2,2.3-2.5,2.6c-4.8,1.2-8.5,4-11.8,7.5c-0.6,0.7-1.2,0.4-2,0.1c-3.3-1.4-9.6,0.7-11.5,3.8c-1.4-4.7-3.6-9.3-2.8-14.5
			c1.8-0.3,3.3,1,5,1.2c3.1,0.4,5.7-0.7,7.8-3.2c0.7-0.8,1.9-3.2,2.9-0.1c5.2,2.1,12.9-1.6,14.6-7.1c0.7-2.2,1-4.6,1.5-6.9
			c0.3-1.3,0.4-2.7,1.9-3.4c4.1-0.9,5.3-4.6,7.3-7.5c1.6-2.2,3-4.5,4.6-6.8c0.4-0.6,0.8-1.5,1.7-1c0.8,0.4,0.5,1.3,0.6,2
			C219.2,143.9,217.9,151.9,215.7,159.7z"/>
		<path class="st35" d="M315.2,159.6c-5.2,5-5.2,5-9.3-0.7c-1.9-2.7-3.8-5.4-5.7-8.1c-1-3.6-2-7.1-0.9-10.9c0.6-2,1.2-3.8,2.7-5.2
			c2.7-2.4,3.5-5.3,2.7-8.7c4.1-2.4,8.3-4.4,12.7-6c1.2,1,2.4,2.2,3.5,3.3c1.8,1.9,1.3,4.3-1.1,5.4c-4.1,2-4.2,2.1-2.7,6.4
			c0.5,1.5,0.4,2.9,0.2,4.4c-0.4,3-1.7,6-0.3,9.1c0.4,1-0.1,2-0.9,2.7c-2.2,2-2.3,4.2-0.8,6.6C315.7,158.4,315.7,159.1,315.2,159.6z
			"/>
		<path class="st36" d="M315.3,211.8c-0.7,2,1.7,4.8-1.7,6.1c-0.1,0.1-0.2,0.7-0.1,1c3,5.8,3,7.4,0.5,13.1c-0.3,0.8-0.2,1.7-0.3,2.6
			c-2.4,2.6-2.9,6.8-6.8,8.1c-4.2-1.1-4.9-2-4.8-6c0-0.5,0.2-1.1,0-1.5c-3-4.2-2.3-9.3-3.8-13.9c1.3-3.4,1.9-6.7,0.3-10.3
			c-0.6-1.2-0.3-2.7,0.3-4c1-2.3,0.3-4.6,0.6-6.9c0-1.5,0-3.1,0.1-4.6C305,200.7,310.2,206.2,315.3,211.8z"/>
		<path class="st37" d="M72.1,279.2c-3.7,3.3-3.2,6.9-0.8,10.7c0.4,0.5,0.4,1,0.2,1.6c-0.4,0.7-1,1-1.8,1c-0.4-0.1-0.7-0.3-1.1-0.3
			c-6.1-0.1-7.5-4.5-8.5-9.2c0.7-3.1,1.5-6.2,4.1-8.3c1.6-0.7,3.3-1.1,4.7-2.2c1.4-1.1,2.7-2.3,2.1-4.4c-0.3-1.2,0-2.3,0.7-3.2
			c1.4-1.6,1.2-2.7-0.6-3.8c-1.1-0.6-1.4-1.8-1-2.9c0.6-1.7,0.6-3.7,1.7-5.3c1.3-1.9,1.2-3.2-0.9-4.6c-2.8-1.8-2.4-4.7-1.7-7.4
			c0.3-1.1,1.4-2.1-0.2-3.7c-0.2,2.3-1.4,3.4-3.5,3.3c-1.5-0.1-2.4-0.6-2.4-2.2c1.7-2.7,3.3-5.4,5.8-7.5c1-0.5,2.2-0.8,2.2-2.3l0,0
			c1.1-1.8,2.5-1.1,3.8-0.3c1.6,1.1,2.3,2.6,1.9,4.5c-0.3,1.8-1.5,3.4-1.9,5.2c-0.4,1.6,0,2.8,1.9,2.9c2.6,0.8,4.5,2.4,5.6,4.9v0
			c-0.8,3.3,0,6.5,0.8,9.7c-0.2,1.2,0.3,2.2,0.8,3.2c0.5,0.9,0.3,1.9-0.4,2.3c-0.6,0.3-1.4,0.3-2.1-0.7c-1.2-1.8-2.2,0.1-3.3,0.6
			c-1.2,0.6-1.5,1.3-0.8,2.6c1.8,3.2,0.3,6.9,1.6,10.3c0.5,1.2-2.2,2.3-3.9,2.7c-1.3-1.2-2.1-2.4-0.9-4.1c-0.1,0-0.1,0-0.4,0
			C73.2,274.6,73.9,277.2,72.1,279.2z"/>
		<path class="st38" d="M136.3,229.3c-0.7,0-1.5-0.2-2.2,0c-2.8,0.8-5.5,1.6-6.6-2.4c-0.1-0.3-0.8-0.5-1.2-0.8c0-1.3,1.1-1.8,2-2.5
			c3.9-2.7,4-3.1,2-8c-3.8,2.4-7.2,5.2-10.3,8.3c-1,1.1-1.9,2.7-3.9,2.2c0.1-1.2-0.5-2.1-1.1-3c-1.1-1.8-2-3.6-1.4-6.2
			c0.7-2.8-2.1-5.1-2.1-8.1c1.9-3.5,4.8-5.7,8.7-6.5c2.8,3.2,7,3.8,10.4,6.1c1.8,1.2,3.8,1.3,5.8,0.7c6.9-2.1,13.2-0.4,19.3,2.9
			c0.2,0.2,0.2,0.4,0.1,0.7c-1.1,3-2.8,4.7-6.4,3.9c-2.1-0.5-4.5-0.2-6.7-0.1c-3.1,0.2-5.3,3.1-5.6,7.6
			C137,225.9,136.7,227.6,136.3,229.3z"/>
		<path class="st39" d="M327.8,212.1c3.1-1.8,1.5-4.6,1.1-6.9c-0.3-1.6-1.4-2.9,0-4.4c0.6-0.7,0.1-1.4-0.4-2
			c-1.3-1.6-1.3-2.9,0.7-3.9c1.5-0.8,1.8-1.8,1.3-3.4c-0.4-1.1-0.3-2.5-0.3-3.7c-0.1-2,0.6-2.6,2.7-1.9c3.8,1.3,4.4,0.7,4.8-3.4
			c3,7,4.4,14.5,5.7,21.9c0.7,4.2,2.2,7.1,6.2,8.6c1.2,1.6,1.7,3.6-0.8,4c-4.2,0.6-4.5,3.5-5,6.6c-0.3,1.9-0.3,4.1-3.1,4.2
			c-1.1-1.8-2.3-3.5-3.2-5.5C335.7,217.6,333.2,213.5,327.8,212.1z"/>
		<path class="st40" d="M155.7,212.1c-2.6,0.9-4.5-1.1-6.6-1.8c-4.4-1.6-8.5-1.2-12.8-0.1c-2.6,0.7-4.9,0.5-7-1.2
			c-1.6-1.2-3.2-2.4-5.4-2.2c-1.4,0.1-2-0.8-2.4-1.9c-0.3-1-0.7-1.9-1.9-1.9c0-1.3,0.9-1.9,1.8-2.6c4-2.6,7.9-5.3,12.7-6.3
			c2.3,0.4,3.4,2.7,5.4,3.7c1.5,0.8,2.3,0.7,3.4-0.6c4.3-5.5,4.4-5.4,9.8-0.9C153.2,201.7,154.4,206.9,155.7,212.1z"/>
		<path class="st41" d="M227.6,209.1c-1.8,2.9-4.6,4.4-7.5,5.9c-1.7,0.8-2.9,0.9-4.4,0.1c-5.3,3.2-11.4,3-17.3,3.7
			c-0.9,0.1-2-0.3-2.8-0.7c-3.6-1.7-5.8-1.1-7.7,2.3c-0.9,1.5-1.7,2.5-3.3,0.7c-0.9-1-2.1-1-3.4-1.1c-1.6,0-3.2-0.7-3.1-2.9
			c0.1-4.2,0.2-8.3,0.2-12.5c2.6,0.4,5,1.3,7.4,2.4c1.8,0.8,3.2,0.6,4.8-0.6c3.4-2.6,4.4-2.6,7.8,0.1c2.1,1.7,4.4,2.1,6.8,2.5
			c1.1,0.6,2.3,0.9,3.6,0.7c1.7-0.2,2.8,0.5,3.5,2.1c0.5,1.2,1.1,2.7,2.9,2.2c1.6-0.5,3.1-0.8,3.8-2.9
			C220.3,207.1,224.4,206.3,227.6,209.1z"/>
		<path class="st42" d="M251.6,167.7c1.3-4.2,5.7-5.9,7.6-9.6c0.8,0,1.7,0,2.6,0c-0.1-0.4-0.2-0.5-0.2-0.6c-4-8.3-4.1-8.5,4.3-12.3
			c4.7-2.2,9.1-5,14.1-6.5c1.3,1.6,0.3,2.9-0.7,3.8c-3.2,2.9-4.5,5.9-1.7,9.8c0.3,0.4,0.2,0.9,0.2,1.4c0,0.6-0.2,1.1-0.4,1.6
			c-2.1,1.9-4,3.9-5.5,6.4c-1,1.6-2.3,3-3.9,3.9c-2,1.1-3.2,2.5-2.9,5c0.1,1.5-0.2,3-2.4,2.8C259,171.3,255.8,168.5,251.6,167.7z"/>
		<path class="st43" d="M342.7,110.1c0,1.7,0.7,2.8,2,4.1c3.5,3.3,3.9,7,1.7,11.1c-1.3,2.4-0.6,3,4,3.1c-5.2,5.5-11.1,10.2-17.4,16
			c1-9.5-2.3-17.6-2.3-26.1c0-2.7,0.7-4.4,3.6-5.2C337.2,112.3,339.9,111.1,342.7,110.1z"/>
		<path class="st44" d="M160.2,327.4c0.1-1-0.1-2.1,1.4-2.2c1.7-0.1,3.1,0.9,3.6,2.1c1.6,3.6,3.6,6.7,7.2,8.6c1.3,0.7,1.4,2.6,1.8,4
			c0.7,2.5,2.1,3.5,4.6,3.2c-0.1,3.5-1.2,6.8-2.3,10c-0.7,2.2,0,2.5,1.9,2.6c2.5,0.1,5,0,7.3,0.9c1.6,2.4,3.3,4.5,6,5.8
			c1.6,0.7,2.9,2,1.5,4.1c-3.5-0.4-7-0.7-10.5-1.1c-2.7,0.2-4.4-1.1-5.3-3.7c-0.5-1.3-1.4-2.3-2.6-3c-0.9-0.5-1.8-1.1-2.1-2
			c-1.5-4.4-5.5-6.4-8.7-9.1c-2-1.7-3.2-3.3-3.1-5.9c0-3.4-0.2-6.7-0.9-10C159.5,330.2,159,328.7,160.2,327.4z"/>
		<path class="st45" d="M99.5,170.8c2.3,0.9,4.5,1.8,5.5,4.5c0.8,2.1,2.9,2,4.7,2.3c2,0.4,4,0.8,4.2,3.4c0.1,1.3,1.2,2.2,2.2,2.2
			c2.5,0.1,4.5,0.5,5.1,3.4c0.2,1,1.5,0.3,2.3,0.2c1.9-0.3,3.8-0.3,4.6,2c-2.9,3.9-7,6.2-11.3,8.2c-3.4-0.3-5.2-3.3-7.6-5
			c-3.8-2.7-8-4.5-12.1-6.4c-2.7-1.3-5.3-2.7-6.5-5.7C93.2,176.5,96,173.3,99.5,170.8z"/>
		<path class="st46" d="M277,155.2c0-0.5,0-1,0-1.5c1.7-3.8,2.3-3.7,6.5,1.2c1.2-2.9-1.4-5.6-0.5-8.3c0.9-2.7,2.6-4.8,5.1-6.4
			c0,4.3,1,8.3,3.1,12c0.1,1.3-0.5,2.6,0,4c1.1,3.8-1,6.4-3.7,8.5c-1.7,1.3-2.3,2.6-2.2,4.7c0.1,2.7,1.3,6.4-3.9,6.1
			c-1.2-0.1-1.5,1.3-1.1,2.6c1.9,5.4-0.3,8.3-6.1,8.4c-1.8-2.5-3.7-5-5.5-7.5c1.5-1.8,3.7-3.2,2.2-6.4c-0.6-1.4,0.9-2.4,2.6-1.8
			c2.8,1.1,3.2-0.6,3.2-2.7c0-0.7-0.2-1.5-0.1-2.2c0.3-3.7,2.9-4.8,7.2-2.3c-2.5-2.2-3.8-4.4-5.8-6C277.4,157,276.5,156.4,277,155.2
			z"/>
		<path class="st47" d="M338.4,347.6c-2-0.5-4,1.6-6,0c-1.3-3.8,2.2-5.1,4-7.3c0.3-0.3,0.6-0.4,0.9-0.5c3.1,0.6,6,1.6,8.3,3.8
			c2.2,2.1,4,2.1,5.9-0.1c1.3-1.5,2.8-2.5,4.8-1.2c1.7-0.2,2.4,0.9,2.9,2.2c1.2,2.5,3.1,3.7,5.7,4.9c3.1,1.5,6,3.9,9.2,5.6
			c-5.1,3.2-10.7,5.5-16.4,7.3c-1.6-1.7-3.1-3.4-5.8-3.7c-1.9-0.2-2.4-1.9-2.6-3.6c-0.3-2.8-1.3-4.7-4.8-4.1
			C341.9,351.5,340.4,348.9,338.4,347.6z"/>
		<path class="st48" d="M90.6,179.8c4.1,4.1,9.5,5.9,14.6,8.4c3,1.5,5.6,3.8,8.3,5.9c1.2,0.9,1.9,2.3,3.6,2.3
			c-0.9,3.1-2.4,5.8-5.2,7.5c-1.4-0.2-2.3,0.8-3.1,1.7c-1.6,1.8-3.3,1.4-4.2-0.5c-2.5-5.6-8-8.3-12-12.4c-2.3-2.4-5.1-4.1-8.8-3.2
			C85.6,186,87.8,182.7,90.6,179.8z"/>
		<path class="st49" d="M315.2,159.6c0-1-0.6-1.6-1.1-2.3c-1.5-2.1-1.5-4.1,0.7-5.8c1.6-1.2,2.1-2.5,0.9-4.4
			c-1.7-2.7,0.8-5.1,0.8-7.7c0-1.6,0.5-3.1-0.4-4.6c-2-3.3-0.9-5.9,2.9-6.8c1-0.2,2-0.2,2.2-1.5c0.1-1.1,0.1-2.1-1.1-2.9
			c-1.3-0.9-3-1.5-2.6-3.6c1.1-0.6,2.1-1.2,3.3-1.7c0.9-0.4,1.8-0.7,3.3-1.3c-0.4,8.3,3.4,15.6,3.2,23.6
			C327,149.3,322.3,155.2,315.2,159.6z"/>
		<path class="st50" d="M164.2,378.3c-2.9,0.5-5.8,1.1-8.7,1.4c-1.3,0.2-2.3,0.8-2.4,1.9c-0.2,2.8-1.7,2.4-3.5,1.7
			c-3.6-1.3-5.4-0.3-5.7,3.6c-0.3,2.8-0.3,5.3-4.3,3.3c-2.2-1.1-3,1-4,2.3c-3.3,0.6-5.4-1.3-7-3.8c3.5-3.2,7.4-5.4,12.3-5.3
			c-2.1-3.1-1.8-4,3.2-7.5c1.9-0.4,3.3-1.4,4.2-3.1c0.6-1.2,1.2-2.4,2.4-3.2c1.2-0.6,2.5-1.2,3.5-2.1c0.7-0.6,1.7-1.4,2.3-0.9
			c3.2,2.4,5.4,0,7.8-1.5c1-0.2,1.8,0.2,2.5,0.8c1.5,1.6,1.7,3.6,1.8,5.6C167.3,374,166,376.3,164.2,378.3z"/>
		<path class="st51" d="M46.5,282.4c0.3-7.9,2.7-15.4,5.3-22.7c2.5-6.8,5.6-13.3,9.8-19.2c2.2-0.6,2.1,1.2,2,2.4
			c-0.3,4.1-0.6,8.1,0.5,12.1c0.5,2.1-1.7,4.1-1.1,6.5c-0.5,5-2.2,9.6-5.4,13.6c-0.9,1.1-1.6,2.2-2.2,3.4
			C52.6,284.2,52.6,284.1,46.5,282.4z"/>
		<path class="st52" d="M127.5,396.1c-2.8,1.3-3.8,4.2-5.7,6.3c-2,2.4,0.5,4,1.8,5.8c-1.2,3-3.1,5.4-6.1,6.8
			c-6.4-2.5-12.1-6.1-17.1-10.7c-0.5-3,2.3-3.1,3.9-3.9c1.8-0.9,3.2-2.4,4.8-3.1c3.2-1.4,6.4-2.4,8.4-5.5c0.4-0.6,1.8-0.5,2.8-0.6
			C123.3,391.9,126,393.1,127.5,396.1z"/>
		<path class="st53" d="M194.5,380.4c7.2-4.6,14-9.9,21.5-13.9c1.5-0.8,3.6-2.6,5.1-1.1c1.4,1.4-0.2,3.5-1,5.1
			c-4.8,9.2-11.9,16.1-20.9,21.1c-4.9-1.6-5-1.7-4.5-6.7C194.8,383.3,194.4,381.9,194.5,380.4z"/>
		<path class="st54" d="M205.2,209.1c-3.2,1.8-5.5-0.2-7.6-2.1c-2.4-2.3-4.5-2.3-6.6,0.2c-1.7,2.1-3.4,2.1-5.4,0.7
			c-2.2-1.5-5.5-0.8-7.2-3.3c0-0.8,0-1.5-0.1-2.3c3.7-2.4,8.2-2.9,11.9-5.4c2.2-1.5,4.4-2.9,7,0.1c1.9,2.2,4.3-0.6,6.5-0.6
			c1.5,1.1,2.8,2.4,4.9,1.5c3.3-1.4,4.4,2.6,7,3c-0.9,1.7-2.6,2.6-4.3,2.5C207.1,203.1,205.9,205.8,205.2,209.1z"/>
		<path class="st55" d="M235.9,310.1c0.2-2.4-0.4-5.1,2.6-6.4c0.7-0.3,0.3-1.3-0.3-1.8c0.6-2,1.8-1.4,3-0.7
			c3.5,2.1,7.4,1.4,11.2,1.5c1.1,0,1.9,0.4,2.2,1.5c0.3,2.2-0.6,4.5,0.9,6.5c1.1,1.5,1.7,3.1,4.3,2.6c2.1-0.4,4.3,1.7,4.7,3
			c1.4,4.1,4.4,3.4,7.3,3.6c-1.4,1.9,0.9,3.4,0.6,5.2c-1.2,0.1-2.7-0.1-3.6,0.5c-4.2,3.1-5.7,0-7.2-3c-1.7-3.4-3.7-6.3-8.1-6.7
			c-1.4-0.1-2.7-2-4.1-3c-2.8-2-5.7-2.2-8.4,0.2C238.8,313.2,237.2,311.8,235.9,310.1z"/>
		<path class="st56" d="M62.2,261.5c-0.1-0.7-0.6-1.6-0.3-2.1c3-5.6-1.1-11.6,1-17.3c0.3-0.8-0.4-1.4-1.2-1.5c0.5-0.8,1-1.5,1.5-2.3
			c1,2,2.6,1.7,4.1,1.1c1.9-0.8-0.8-2,0.1-3c4.2,0.1,4.6,0.7,2.7,4.3c-1.4,2.7-0.4,6,2.3,7.4c1.9,1,2.3,2.4,1,3.9
			c-1.1,1.3-1.1,2.9-1.8,4.3c-1.4,2.9-1.2,4.5,2.2,5.4c1.6,0.5,0.5,1.5-0.2,2.2c-1.4,1.5-2.4,2.7-1.6,5.2c0.8,2.4-3.6,5.6-7.6,6
			c-0.7-0.7-1.1-1.6-1.7-2.4c-1.4-1.6-1.1-3,0.5-4.4c3.1-2.6,3-2.7,0.1-5.3C62.9,262.5,62.6,262,62.2,261.5z"/>
		<path class="st57" d="M211,407c18.5-2,33.7,7.4,38.3,23.6c-2.6-0.8-4.9-2.6-7.1-4c-2.6-1.7-6.1-2.6-6.8-6.6
			c-0.3-1.7-1.8-0.3-2.6,0.3c-1.8,1.5-3.7,2.4-6.1,1.4l0,0c-0.6-0.6-0.7-1.3-0.4-2.1c0.7-1.7,0.3-2.5-1.7-2.5
			c-2.4,0-3.5-2.3-4.8-3.8c-2.3-2.5-5.1-3.2-8.3-3.6c-0.2,0-0.5,0-0.7,0c-1.3-0.1-2.9-0.3-2.7-1.9C208.4,406.4,210.1,407.4,211,407z
			"/>
		<path class="st58" d="M166.2,366.2c-0.7-0.3-1.5-0.5-2.2-0.8c-2.5-2-2.3-5.7-5-7.5c-0.5-1.1-0.5-2.2-0.3-3.3
			c1.4-2.5-0.6-5.3,0.6-7.8c0.8-1.5,0.1-3.9,2.3-4.8c-0.1,2.2,0.6,3.7,2.8,4.6c3.1,1.2,4,5.4,7.8,5.7c0.1,0-0.2,1.6,0.2,2
			c3.6,3.5,5.4,8.6,10.2,10.9c-3.2,0.1-6.4,0.2-9.6,0.2C170.6,363.6,168.4,364.9,166.2,366.2z"/>
		<path class="st59" d="M277,155.2c2.4,2.6,4.8,5.3,7.1,7.9c0.6,0.6,1.6,1.3,0.6,2.1c-1,0.9-1.4,0-1.9-0.9c-0.7-1.3-1.9-1.9-3.4-1.4
			c-1.7,0.6-2,2-1.9,3.6c0.1,1.1,0.4,2.3,0.2,3.3c-0.3,2.2-1,4.2-3.8,2.1c-0.6-0.4-1.3-1-2-0.4c-0.5,0.4-0.7,1.1-0.3,1.7
			c3.3,4.1-0.7,4.5-2.9,5.8c-2.1-2-4.1-3.9-6.2-5.9c1.3-0.6,2.1-1.6,1.6-3c-1-2.8,0.5-4.2,2.7-5.2c2.5-1.2,3.8-3.5,5.3-5.6
			C273.5,157.6,274.6,155.7,277,155.2z"/>
		<path class="st60" d="M381.8,319.9c1.6,0,1.5,1.4,1.9,2.4c2.1,5.5,2.1,5.5,7.7,5.1c0,1.2-0.1,2.4-0.1,3.7
			c-0.1,0.4-1.1-0.7-0.8,0.4c0.3,0.9,0.8,1.8,0.3,2.8c0,2.4-0.4,4.6-1.7,6.7c-6.9,2.2-12.8-2.1-19.3-2.7c1.1-1.9,3-1.2,4.7-1.3
			c2.2-0.2,4.5,0.2,6.6-0.6c0.7-0.3,1.5-0.6,1.5-1.4c0-0.7-0.6-1-1.2-1.3c-0.7-0.3-1.4-0.6-2.1-0.8c-3.7-1.4-5.6-3.9-5.3-8
			c0.1-1.8-0.7-3.7,0-5.5c1.3-0.9,2.8-0.2,4.2-0.4C379.6,318.8,380.8,319,381.8,319.9z"/>
		<path class="st61" d="M211,407c-0.8,0.3-1.6,0.5-2.6,0.8c2,2.4,4.8,1,6.9,1.4c3.9,0.7,5,3.9,7.6,5.7c0.7,0.5,1,1.7,2.2,1.4
			c5.2-1.4,3.2,1.2,2,3.5c-0.3,0.5-0.2,1.2-0.3,1.8c-0.6-0.2-1.4-0.2-1.7-0.6c-3.3-4.2-8.3-3.2-12.5-4.5c-6.3-1.9-13.1-1.8-18.9-5.2
			c-1.9-1.1-3.8-1.6-5.8-2.2C195.6,407.8,203.3,407.3,211,407z"/>
		<path class="st62" d="M226.9,421.7c2.6,0.2,4.5-1,6.2-2.8c1.6-1.8,3-2.5,3.6,0.8c0.4,2.4,1.9,3.4,4.2,4.7c2.9,1.7,6.7,2.8,8.5,6.3
			c1.9,3.4,2.4,7.2,2.8,11.1c0.1,1.1,0,2.4-1.1,3c-1.2,0.6-2.1-0.5-2.8-1.3c-0.9-1-1.9-2-2.5-3.2c-3.9-7-9.6-12.2-16.7-16.1
			C229.4,422.4,227.5,422.6,226.9,421.7z"/>
		<path class="st63" d="M338.4,347.6c1.5-0.2,2.6,0.6,3.5,1.6c0.9,0.9,1.7,1.5,3.2,1c2.9-0.9,5.2,0.8,5.2,3.9c0,2.8,0.8,3.9,3.8,4
			c2.3,0,3.7,1.7,3.8,4.2c-3.8,1.8-7.8,2.8-12,2.4c-3.1-6-9.1-7.5-14.9-9.2c-0.3-0.2-0.5-0.4-0.8-0.6c-0.2-1.9,0.3-2.7,2.5-3
			C335.1,351.6,338,351,338.4,347.6z"/>
		<path class="st64" d="M340.8,227.8c1.5-0.9,2.4-2.2,2.1-4c-0.5-2.6,1.3-4.4,2-6.6c0.3-1,1-1.2,2-0.9c3.3,1,3-1.1,2.7-3.2
			c4.5,2.4,9,4.8,13.5,7.2c1.5,0.8,3,1.9,2.1,3.8c-0.8,1.7-2.6,1.1-4,0.7c-4.7-1.5-9.4-3.2-14.7-5c0.7,4.3,1.1,8.4,2.8,12.3
			c0.4,0.9,0.9,1.8,1.3,2.7c0.7,1.7,2.7,4,1.2,4.9c-1.8,1.1-3.7-1.3-5-2.8C344.4,234,342.3,231.1,340.8,227.8z"/>
		<path class="st65" d="M83.6,388.1c3.7-2,7.8-1.4,11.7-2.3c3.9-0.9,7.8-5.5,8-9.4c0.1-1.8,0.6-2.8,2.3-3.3c0.5,0.4,1.1,0.8,1.5,1.4
			c1.8,3.9,5.5,6.5,7.1,10.6c-0.2,0.5-0.5,0.9-0.9,1.3c-0.9,0.1-7.8,3.4-8.9,4.3c-1.4,1.1-2.9,1.9-4.7,1.9
			c-3.7-0.1-7.4,0.7-11.2,0.8C86.6,391.8,84.9,390.1,83.6,388.1z"/>
		<path class="st66" d="M71.9,320.6c-2.3,2.9-5.9,3.1-9,4.5c-1.9-5.8-8.4-7.1-11.2-12c-1.4-2.1-2-4.5-2.8-6.8c2.3-2,4.5-2.1,6.2,0.3
			c1.8,2.6,4.3,3.5,7.1,4.2c4.7,1.2,8.3,3.9,9.9,8.6C72.3,319.9,72.2,320.3,71.9,320.6z"/>
		<path class="st67" d="M62.2,261.5c1.1,0.6,2.4,1,3.2,1.8c1.2,1.3,3.3,2.9,0,4.5c-2.9,1.4-4.2,3.1-0.9,5.5c0.6,0.4,0.1,1.1-0.1,1.7
			c-1.9,2.4-2.8,5.3-3.8,8.2c-1.1,1.6-2.9,2.3-4.5,2.2c-3.7-0.3-4.9,2-6,4.7c-1,0.9-2.1,2.1-3.5,1.3c-1.1-0.6-0.5-2-0.5-3.1
			c0-1.7-0.4-3.4,0.3-5.1c-0.1-0.3-0.1-0.5,0.1-0.7c0.8-0.4,1.6-0.9,2.5-0.3c3.1,2.1,4-0.2,4.8-2.4c0.8-2.1,2-3.9,3.4-5.7
			C60.2,270.4,61.5,266,62.2,261.5z"/>
		<path class="st68" d="M317.4,191.1c-2.4,4.2-3.3,8.7-2.2,13.5c-5.1-4.1-8.8-9.3-12-14.8c2.2-3.1,2.8-7.3,6.1-9.8
			C311.9,183.7,314.6,187.4,317.4,191.1z"/>
		<path class="st69" d="M82.4,245.8c-2.1-1.3-3.4-3.7-6-4.5c-1-0.8-2.2-1.4-2.3-2.9c-0.2-1.8,0.9-3.3,1.6-4.8
			c0.6-1.3,0.7-2.9-0.2-3.7c-1.1-1-2.4-2.7-4.4-1.3c0.8-4,1.6-8,2.4-12c2.2,0.3,2.7,2.1,2.8,3.8c0.3,2.7,1.6,5.2,1.1,8
			c-0.1,0.3,0.1,0.9,0.4,1c2.9,1.2,4.2,3.6,5.6,6.3c1.4,2.6,2,6.1,0.1,8.6C83.1,244.8,82.8,245.3,82.4,245.8z"/>
		<path class="st70" d="M169.8,211.3c-1.4-0.1-2.4,0.4-3,1.8c-1.2,2.7-3.2,2.7-5,0.8c-1.2-1.2-2.8-1.6-3.9-2.7
			c1.4-3.3,2.9-6.5,2.2-10.2c-0.1-3.5,1.8-5.1,5.5-4.8c1.4,0.1,2.6,0.7,3.7,1.6C169.3,202.3,170.5,206.8,169.8,211.3z"/>
		<path class="st71" d="M71.9,319.9c-2.9-5.4-7.6-8.1-13.5-9c-1.5-0.2-2.4-1.2-3-2.5c-1.4-2.9-3.6-3.5-6.4-2.1
			c-0.8-3-1.5-5.9-2.3-8.9c2.7,0.7,5.4,1.3,8.1,1.8c1.6,3.1,4.3,4.5,7.6,5c1.7,0.8,1.5,2.7,2.3,4.3c2.4-1.5,4.8-2,6.9,0.6
			c0.3,2.2,0.5,4.3,2.4,5.9c0.8,0.6,1.1,1.6,0.9,2.7C74.1,318.9,73.6,320.1,71.9,319.9z"/>
		<path class="st72" d="M169.3,197.8c-2.1,0.2-4-1.3-6.2-0.4c-1.8,0.7-3.1,1.5-3,3.6c-2.2-9.3,0.8-17.5,5.5-26.3
			C168.2,182.8,169.3,190.2,169.3,197.8z"/>
		<path class="st73" d="M304.7,125.9c1.7,1.6,1.7,6.3-0.5,8c-5.3,4.2-5.4,9.3-3.3,15c0.3,0.9,0.7,1.7-0.7,1.8
			c-3.9-4.1-7-8.5-6.4-14.6c0.3-3.8,1.8-6.6,5.5-7.9C301.1,127.6,302.9,126.7,304.7,125.9z"/>
		<path class="st74" d="M113.1,385.7c0.3-0.3,0.6-0.6,0.9-1c3.2,1.3,5.5,3.6,6.8,6.9c-2.2,1-5.7,0.5-4.9,4.8
			c0.3,1.3-1.1,1.3-2.1,0.9c-2.2-0.8-4.2-1.3-5,1.9c-0.3,1-1.6,1.3-2.8,1.5c-2.3,0.3-4.3,1.4-5.7,3.5c-2-1.2-3.7-2.8-5.3-4.5
			c-0.6-2.7,1.6-3.3,3.2-3.6c4-0.8,7-3.7,11-4.4C112.4,391.1,111.8,387.7,113.1,385.7z"/>
		<path class="st75" d="M51.7,313.1c3.7,4.1,10.8,4.9,11.2,12c0.3,0.4,0.5,1,0.9,1.1c6.2,1.4,7.8,6.9,10.3,11.6
			c-2.3,0-4.5,0.1-6.8,0.2C60.9,330.5,55.6,322.3,51.7,313.1z"/>
		<path class="st59" d="M288.1,140.2c-0.2,0.3-0.3,0.7-0.6,0.9c-3.5,3.7-4.7,7.7-2.4,12.6c0.5,1.1,0,2.6-1.6,2.8
			c-1.4,0.2-1.7-0.9-2.1-2c-1.2-3.5-2-3.6-4.4-0.8c-0.2-0.8-0.2-1.9-0.8-2.4c-3.6-3.9-0.6-6.3,1.9-8.8c1.1-1.1,2.1-2.1,1.8-3.8
			c1.7-0.9,3.4-1.7,5.1-2.6c2.4-1.3,3.9-1.4,3.2,2C288.2,138.8,288.2,139.5,288.1,140.2z"/>
		<path class="st76" d="M193.1,366.5c0.5-2.5-1.3-3.2-3.1-4c-2.6-1.1-4.4-2.8-4.4-5.9c7.5,0.6,14.7,2.5,20.8,7.2
			c1.2,0.9,2.8,2,2.3,3.5c-0.5,1.6-2.5,1.2-4,1.1C200.9,368.3,197,367.6,193.1,366.5z"/>
		<path class="st77" d="M113.1,385.7c0.1,6-0.8,5.5-5.8,7.9c-4.1,1.9-9.4,1.8-12.2,6.2c-2.4-2-4.8-4-6.6-6.5c3.3-2.1,7-1.5,10.6-1.7
			c3-0.1,5.5-1.1,6.4-4c1.2-4,3.4-3.3,6-1.9C112.1,386,112.5,385.9,113.1,385.7z"/>
		<path class="st43" d="M348.8,107.9c-0.3,5.5-3.4,3.4-6.1,2.2c-0.7-3.6-3.1-6.7-2.9-10.7c0.1-4.8,2.6-7.6,7.4-8
			c6.7-0.4,12.6,1.4,18.1,5.6c-3.2,1.4-5.8,1.7-8.7-0.1c-2.5-1.5-5.4-2.5-8.5-2.6c-4.8-0.2-6.9,2.3-5.1,6.8
			C344.2,103.9,344.6,107.6,348.8,107.9z"/>
		<path class="st78" d="M275.5,319.8c3.1-0.6,6.2,0.9,8.5,2.1c5.2,2.7,9.9,6.5,11,13C285.3,334.1,278,328.4,275.5,319.8z"/>
		<path class="st79" d="M179,385.2c2.7-0.5,5.5-1.1,8.2-1.6c0.1,0,0.3,0.1,0.3,0.1c2,3.5,2.9,7.5,4.9,11c-4,2.1-8.2,3.3-12.6,3.7
			C179.4,394.1,178.5,389.7,179,385.2z"/>
		<path class="st80" d="M121.9,417.2c5.4-0.2,10.4,0.3,15.3,3.7c2.3,1.6,6.2,1.1,9,2.9c1,0.6,1.9,1,2,2.3c-4.6-0.4-9-1.9-13.3-3.5
			c-2.8-1.1-5.1-1.2-7.4,1.1c-1.3,1.3-3,2.2-4.8,2.8c-2.4,0.8-3.5-0.2-3-2.5C120.3,421.7,121.2,419.5,121.9,417.2z"/>
		<path class="st81" d="M179,385.2c1.1,4.4,2.3,8.7,0.8,13.2c-2,0.9-4,0.9-6.1,0.8c-0.2-0.8-0.8-1.9-0.5-2.4
			c2.8-4.4-0.8-6.3-3.4-8.4c-1.2-1-2.3-1.7-2.1-3.5C171.5,385,175.2,385.1,179,385.2z"/>
		<path class="st82" d="M309.2,180c-1.9,3.3-2.6,7.4-6.1,9.8c-2.1-2-3.9-4.2-6.2-5.8c-2.7-2.1-2-3.1,0.6-4.2
			c1.4-0.6,2.6-1.4,3.9-2.1C306.4,174.9,306.4,174.9,309.2,180z"/>
		<path class="st83" d="M289.8,176.7c-0.6-3.6,2-6.8,1.7-10.4c0-0.3,0.7-1,0.9-0.9c4.2,1.1,4.8-3.3,7.1-4.9c5,3.9,5.1,6.7-0.1,10.1
			C296.3,172.8,293.4,175.5,289.8,176.7z"/>
		<path class="st84" d="M192.4,394.7c-3.8-2.8-3.8-7.3-5.2-11.1c2.4-1.1,4.9-2.2,7.3-3.2c1.3,1.4,1.5,3.1,0.9,4.8
			c-1,2.8-0.1,4.4,2.6,5.3c0.4,0.1,0.7,0.7,1,1C196.8,392.5,195.1,394.5,192.4,394.7z"/>
		<path class="st85" d="M54.7,299.7c-2.9,0-5.9,0.5-8.1-2.2c-0.6-4.8-1.5-9.5-0.2-14.3c0,2.5,0,5,0,7.5c1.9,0.5,2.6-1,3.8-1.5
			c4,0.5,4.9,3.8,6.1,6.9C56.3,297.5,56,298.8,54.7,299.7z"/>
		<path class="st86" d="M331,355.6c5.7-1,14.1,4.1,14.9,9.2c-2.5,0.5-4.8-0.3-6.5-2C336.9,360.1,333.8,358,331,355.6z"/>
		<path class="st39" d="M337.6,182.1c-6.2-2.2-7.8-5.3-5.9-11.1C334.5,174.2,336.4,178,337.6,182.1z"/>
		<path class="st87" d="M166.2,366.2c2.7-3.7,4.2-3.9,6.8-0.7c-2.8,1-2.8,4.2-4.6,6C167.7,369.8,167,368,166.2,366.2z"/>
		<path class="st19" d="M349.4,258.5c-2.9,1-3.6-1.2-4.1-3.2c-0.4-1.3-0.1-2.9-0.1-4.3C346.6,253.5,348,256,349.4,258.5z"/>
		<path class="st19" d="M390.9,334.2c-0.6-1.6-1.2-3.2-1.9-5c1.6-0.3,1.6,1.2,2.3,1.8C391.5,332.1,391.5,333.2,390.9,334.2z"/>
		<path class="st88" d="M394.6,108.7c0.3-0.3,0.5-0.5,0.8-0.8c1,1.6,1,3.6,1.3,5.4c-0.2,0-0.5,0-0.7,0
			C394.9,111.9,395,110.3,394.6,108.7z"/>
		<path class="st69" d="M71.2,228.5c0.2,0.8,1.5,1.3,1,2.1c-0.8,1.3-2.1-0.2-3.2,0.2C69.7,230,70.4,229.3,71.2,228.5z"/>
		<path class="st89" d="M115.2,236.7c0.6,0.2,1.5,0.6,1.6,0.5c2.4-3,3.4-0.7,4.5,1.1c-0.2,0.3-0.4,0.6-0.6,0.9
			c-0.7,1.3-3.6,2.6-2.3,3.5c1.9,1.3,3.1,5.3,6.8,3.2c0.7-0.4,1.9-1,2.6,0.3c1.4,2.6,3.7,3.5,6.5,3.3c1.2-0.1,2,0.5,2.3,1.5
			c1,3.4,4,4.6,6.7,5.9c1.2,0.6,2.4,1.2,1.6,2.7c-0.7,1.4-2,1.4-3.2,0.7c-1.6-0.9-3-1.8-4.7-0.4c-0.1,0.5-0.4,0.8-0.9,0.8
			c-3.5-1.3-4.3,1.9-5.7,3.7c-1,1.3-1.2,3.2-1.7,4.9c-0.5,1.9-1.4,3.4-3.3,4.3c-2,1-2.1,2.5-2.4,4.7c-0.6,3.7-4,6.8-2.4,11.1
			c0.1,0.2-0.4,0.6-0.7,0.8c-3.9,3.6-5.3,8.1-5.3,13.2c-1.6,1.1-3.2,0.6-4.5-0.4c-5.4-4.3-12.1-6-17.8-9.5c-3.8-5.7-3-9.8,2.6-13.5
			c0.3-0.2,0.9-0.2,0.9-0.5c0.7-4.5,5.6-7.5,4.7-12.7c-0.6-3.5-0.3-7.1,1.2-10.4c1.9-1.8,2.3-4.3,3.4-6.5c2-3.9,4.3-7.5,6.9-10.9
			C112.9,237.8,113.5,236.5,115.2,236.7z"/>
		<path class="st90" d="M92.9,292.9c5.7,3,12,4.7,17,8.9c1.4,1.2,3.1,1.2,4.7,1.6c2.6,0.6,4.7,1.6,5.4,4.6c0.3,1.3,1.6,2,3.2,2.1
			c4.7,0.3,9.2,1,13.5,3c1.2,0.5,2.3,0.7,3.5-0.1c0.9-0.6,2-1.1,2.9,0.2c-0.2,3.5-2.9,5.6-4.4,8.4c-0.9,0.6-1.9,1-2.8,0.4
			c-3.2-2.1-7-2.3-10.6-3.1c-2.5-0.5-4.3-0.1-5.8,1.9c-4.2,2-8.2,1.8-12-1c-2.6-3.4-3.2-7.4-3.9-11.1c0,0.9,0.1,2.2-0.5,3.4
			c-0.4,0.7-1.3,1.4-1.8,0.9c-3.9-3.1-10.2-2.5-12.5-8.1c-0.5-1.2-1.9-1.4-3-2c-1.5-0.9-3.1-1.7-3.1-3.8c0.4-1.4,1.5-2.2,2.6-2.3
			C88.4,296.5,90.6,294.8,92.9,292.9z"/>
		<path d="M138.6,321.4c0.8-3.1,3-5.4,4.5-8.1c2.3-2.4,4.9-4.5,7.6-6.5c2-1.4,2.6-0.9,3.2,1.2c2,6.5,4.2,12.9,6.3,19.4
			c0.4,4.9,2,9.7,1.4,14.7c-0.5,1.8-0.9,3.6-1.4,5.4c-0.3,0.2-0.7,0.5-1,0.4c-5.1-3.4-11.3-5.2-14.4-11.2c-1.3-2.5-2.6-5.1-3.9-7.7
			C140.2,326.5,138.4,324.2,138.6,321.4z"/>
		<path class="st91" d="M136.2,260.7c0.3-0.3,0.6-0.5,0.9-0.8c1.9,5.6,3.8,11.2,5.7,16.8c0.3,0.8,0.2,1.5-0.3,2.1
			c-4.3,4.7-7.4,10.2-10.7,15.9C128.4,283,129.7,273.1,136.2,260.7z"/>
		<path d="M206,149.2c-0.7,3.3-1.5,6.5-2.2,9.8c-1.1,5.2-9.3,10.5-14.5,9.7c-1.7-0.3-1-1.3-1.3-2.1c3.5-9.5,4.8-19.5,8.1-29.1
			c2.4-6.8,4.6-13.7,8.3-19.9c0.9-1.5,1.5-4.2,4.1-3.5c2.7,0.8,1.8,3.3,1.7,5.1C209.8,129.4,207.8,139.3,206,149.2z"/>
		<path class="st92" d="M254.5,304.2c-0.7-0.5-1.5-1-2.2-1.5c-0.2-1.1-0.6-2.2-0.7-3.3c-0.7-5.5-6-9.8-11.2-8.5
			c-2.7,0.7-3.6-0.1-4.2-2.4c-0.4-1.4-0.7-3.3-2.7-3c-3.2,0.5-5.3-0.8-6.8-3.5c-0.5-0.9-1.5-1.9-2.5-2.2c-3.2-1.1-5.4-2.3-1.9-5.6
			c0.8-0.7,0.9-1.7-0.4-2.4c-1.7-0.9-3.7-1.5-4.8-3.4c-0.3-0.6-0.9-0.4-1.2,0c-2.5,2.8-4.1,0.5-5.3-1.2c-1.5-2.1-3.3-3.6-5.4-4.9
			c-1.3-1.9-1.7-4.2-3.2-6.1c-1-1.2-1.1-3,0.9-4c1.4,0.4,2.5,1.6,4.5,1.5c-1.3-1.2-3-0.2-3.9-1.4c-2.9-3.4-2.1-12.4,1.3-15.2
			c1.6-1.3,3.8-1.8,5.2-0.8c3.2,2.3,6.3,1.1,9.6,0.7c2.5,0.3,4.9,0.2,7.2-1c1-0.5,2.1-0.8,3.2-0.2c1.2,3.9,1.3,8.2,3.9,11.6
			c-1.3,5-2.5,5.6-6.1,2.3c-1.9-1.7-4,0.4-5.8-1c2.1,1.4,2.1,2.8,0.2,4c-0.8,0.5-1.9,0.5-2.7,1.1c-2.6,2-2.6,3.7,0,5.5
			c2.1,1.5,4.3,3,5.8,5.2c0.7,1,1.7,1.3,2.9,1.4c3.8,0.5,5.5,2.2,6,5.9c0.1,0.7,0,1.5,0.3,2.2c0.4,0.9,0.7,2,1.8,2.3
			c1.5,0.3,1.4-1.1,1.8-1.9c0.4-0.9,0.8-2,2.1-1.8c1.3,0.2,1.9,1.3,2,2.4c0.2,1.7,0.4,3.4,1,5.1c0.8,2.3,1.7,3,3.6,1
			c0.7-0.7,1.5-1.3,2.5-1.4c2.2,0.2,3.7,1.6,4.9,3.4c0.4,3.2,2,5.9,4.3,8.4c1.6-1.6,2.2-4.6,5.3-3.6c0.3,0.2,0.6,0.4,0.8,0.7
			c-0.4,4,1.8,6.4,5.1,8.1c1.2,0.6,2,1.5,1.7,3c-0.3,1.5-1.4,2-2.7,2.1c-1.2,0.1-2.1,0.8-2.9,1.5c-1.4,0.9-3.1,1.2-4.6,0.6
			C258.9,303,256.8,303.5,254.5,304.2z"/>
		<path class="st93" d="M219.4,237.5c-1.9,1.2-4.2,1-6.3,1.7c-0.9,0.3-1.4,0-1.8-0.8c-1.1-2.3-3.3-1.9-4.9-1.3
			c-1.9,0.7-3.5,2.6-3.2,4.6c0.3,2.1,0.2,3.7-0.7,5.6c-0.8,1.7,0.6,3.5,1.2,5.2l0,0c-2.3,0.8-2.1,2.6-0.7,3.6
			c2.4,1.7,2.2,3.8,2.2,6.2c-3.6,0.1-6.9,0.5-9.1-3.7c-0.7-1.3-3.9-2.2-5.7-3.6c-0.8-0.7-1.9-1.2-1.6-2.3c1.1-3.4-1.3-5-3.5-6
			c-3.8-1.7-3.6-5.7-5.2-8.5c-1.5-2.7,2.7-6.5,5.7-5.5c1.3,0.4,2.4,0.2,3.1-0.5c3.3-3.3,7.1-3.1,11-1.7c1.2,0.4,2.2,0.3,2.9-0.8
			c1.7-2.9,4.6-2.3,6.6-1.3c2.4,1.1,4.6,1.6,7.1,1c3.3-0.4,5.3,2.3,7.9,3.7c1.5,0.8,0.9,2.7-1,3.3C222,236.7,220.7,237,219.4,237.5z
			"/>
		<path class="st94" d="M241.1,301.2c-1,0.1-2.2-0.4-3,0.7c-2.6,1.5-4.5,0.2-5.6-1.8c-1.7-3-4.5-4.1-7.3-4.7
			c-2.1-0.4-2.8-1.4-3.5-3.1c-1.2-2.8-2.4-5.3-6.6-3.4c-3.9,1.8-7.4-1.7-6.7-6.7c0.3-2.2-0.1-2.5-2.1-2.7c-3.8-0.4-7.3-1.9-10.6-3.8
			c-1.6-0.9-3.4-0.5-5-1.3c-0.7-0.4-1.8-0.1-2-1.3c-0.2-1,0.3-1.7,1.2-2.1c2.2-1,2.6-2.8,2.4-5c3.3,1.9,7.7,2.3,9.4,6.5
			c0.1,0.3,0.9,0.8,1.2,0.7c3.9-1.4,5.8,3.7,9.6,2.8c0.3-0.1,1.1,1,1.3,1.6c1.6,4.3,4,7,8.9,8.4c3.6,1.1,8.5,2.3,9.7,7.3
			c0.2,0.9,1.2,1.1,2.2,0.9c1.3-0.2,3-1.9,3.9-0.1C239.7,296.3,242,298.2,241.1,301.2z"/>
		<path class="st95" d="M219.4,237.5c0.7-1.6,1.9-2.1,3.6-1.9c0.9,0.1,1.4-0.2,1.3-1.2c-0.1-0.4,0.3-1.2-0.4-1.3
			c-3.1-0.2-4.8-2.9-7.4-3.9c1-2,2-4,3-6c2,0,4,0,6,0c2.8,1.8,6,1.8,9.1,2.3c0.5,0.3-1,1.6,0.6,1.3c1-0.2,1.8-0.8,2.8-1.1
			c3.7-1.1,6.4,0.5,7.3,4.2c0.3,1.1,0.3,2.2,0.4,3.3c0.4,5.7-0.7,6.9-6.3,6.7c-0.9,0-1.7-0.3-2.6,0c-0.2,1.3,0.4,2.7-0.7,3.8
			c-1.2,0.6-2.2,0.3-3.2-0.4c-2-2-2.1-4.7-2.7-7.2c-2.5-0.1-4.2,2.1-6.6,2.2C222,238.3,220.6,238.3,219.4,237.5z"/>
		<path class="st96" d="M253.8,283.2c-1.5-1-3-2-4.5-3c-0.1-3.6-1.1-7.1-1.6-10.7c0.5-2.4,2.5-3.7,3.9-5.4c0.4-0.4,0.9-0.7,1.4-0.7
			c1.1,0,2,0.4,2.5,1.4c0.9,1.7,2.1,2.7,4,2.9c1,0.1,1.9,0.8,2.3,1.8c1.2,3,4,2.5,6.3,3.1c1.8,0.5,1.8-1.3,2.3-2.3
			c0.4-0.8,1-1.5,2-1.5c1.2,0,1.7,0.8,2.1,1.8c0.5,1.2,0.1,3.3,1.7,3.4c2.2,0.2,4.8,0.5,6.5-0.7c1.4-1.1,4.7-0.8,4-4.1
			c-0.1-0.7,0.9-1.2,1.7-1.1c2.6,0.3,5.2-0.7,7.8,0.3c0.7,0.3,1.7,0.8,2.1,0.2c2.9-3.2,8.3-3.9,9-9.2c0.7-0.6,1.4-0.1,2.1-0.2
			c4.9-0.1,4.9-0.2,6.2,4.6c0.2,0.9,0.6,1.7,1.4,2.1c2.7,1.6,4.5,4.2,6.7,6.2c2,1.8,2.4,3.6,1.6,5.9c-0.8,2-1.1,4.3-3.5,5.2
			c-2.1,0.3-3,1.6-3,3.6c0,1.8-0.1,3.5,2.3,4c1.1,0.2,1.7,1.2,0.9,2.3c-1.4,2-0.8,4.1-0.2,6.1c1.7,4.9,0.5,9.8-0.1,14.7
			c0,2.3-1.1,3.8-3.2,4.5c-2.2,0.8-3.6-0.6-4.9-2c-1.4-1.5-2.8-2.8-4.6-3.8c-0.5-0.3-1.2-0.6-1.4-1.2c-2.1-6.4-8.2-6.2-13.2-7.7
			c-1.9-0.6-3.4-1.2-4.4-3c-1.8-3-4.4-5.1-8.1-5.4c-2.2-0.2-3.4-1.2-3.7-3.5c-0.3-2.7-1.7-3.3-4.4-2.9c-3.2,0.6-6.7,1.2-9.8-0.6l0,0
			c-1.4-4.1-0.3-5.3,4.5-5.2c-3.6,0.4-5.6-1.7-7.5-4.2c-1.8-2.4-4.4-3.9-6.5-5.8c-0.3,2.4-0.2,4.9,0.9,7.4
			C256.2,281.8,256.5,284,253.8,283.2z"/>
		<path class="st97" d="M264.3,288.4c4-0.4,8.1,0.5,12.2-0.9c1.9-0.7,3.3,2.3,3.2,4c-0.2,2.3,0.5,2.9,2.5,2.9c4.3,0,7,2.5,9.1,6
			c0.6,1.1,1,2.4,2.6,2.2c4.9-0.6,8.4,3.6,13,3.9c0.9,0.1,1.8,1,1.4,1.9c-1.1,2.6,0.7,3.3,2.5,4c1.8,0.7,2.6,2.3,3.8,3.5
			c3,3,4.2,2.9,6.5-0.9c0.2-0.4,0.6-0.8,0.9-1.1c0.4,0.4,1.2,0.8,1.3,1.2c0.7,3.7,2.7,6.2,6.1,7.9c2.1,1-0.2,3.5,0.8,5.1
			c1.2,2.3,4.7,2.9,4.4,6.3c-1.2,0.8-2.6,1.3-3.9,0.9c-1.9-0.6-3.1-0.6-4.1,1.6c-0.7,1.5-2.5,1.4-3.9,0.3c-3-0.4-5.3-1.8-6.7-4.5
			c-3.3-3.6-7.8-6.1-10.1-10.7c-0.9-1.8-2.5-2-4.1-1c-1.7,1.1-3.5,1.1-5.3,0.5c-0.8-0.7-1.5-1.5-2.3-2.2c-0.2-0.2-0.4-0.4-0.5-0.6
			c-1-4.7-3.8-5.9-8.4-5.1c-2.7,0.5-5.8-4.4-4.7-7c0.5-1.2,0.6-2.1-0.2-3c-0.9-1-2-1-3.1-0.6c-2.5,1.1-5.2,1.5-7.9,2
			c-1.4-0.1-2.5-1-3.7-1.5c0-2,0.4-3.2,2.8-2.4c1.1,0.4,2-0.2,2.2-1.4c0.2-1-0.4-1.6-1.2-2c-0.7-0.3-1.4-0.5-2-1
			C264.7,294.6,262.8,292.2,264.3,288.4z"/>
		<path d="M374.2,319.1c0.6,2,1.1,4.1,0.9,6.2c-0.3,3.5,1.3,5.7,4.7,6.5c0.8,0.2,1.7,0.6,2.5,0.7c1.3,0.2,2.1,0.9,2.2,2.2
			c0.1,1.3-1,1.9-2.1,2.3c-3.2,1.3-6.6,1-9.9,1c-0.9,0-1.7,0.1-2.6,0.1c-4.6-0.4-8-2.7-10.4-6.7c-0.7-1.2-1.8-2.3-2.8-3.4
			c-2.9-1.4-4.2-4.1-5.3-6.8c-1.3-3.1-0.2-5.7,2.8-7.9c2.4-0.5,4.7-1.1,7.2-1c3.7,0.8,7.8,0.8,10.8,3.7
			C373,316.9,374,317.7,374.2,319.1z"/>
		<path class="st98" d="M354.3,314c-3.1,2-3.3,4.7-1.8,7.6c1.2,2.2,2.8,4.3,4.2,6.4c-2.6,0.3-3.9-1.1-4.8-3.3
			c-1.1-2.8-2.4-5.2-6.2-4.3c-1.6,0.4-2.1-1.1-2.1-2.4c0-4.8-2.1-7.8-6-11c-2.9-2.3-3.7-7.4-7.2-10.1c-0.1,0-0.1-0.3,0-0.4
			c1.7-4.3,1.3-6.8-4.3-5.3c-0.9,0.2-1.4-0.8-1.1-1.5c1-3.2-1.6-4.6-3-6.6c1-1.8,2-3.5,3-5.3c2,0.1,3.9,0.9,6,0.8
			c1.5,2.9,4,5.3,4.2,8.8c0.1,1.1,0.8,2.1,2,2.4c0.9,0.2,1.3,0.8,1.2,1.6c-0.5,4.3,2,4.7,5.3,4.4c4,4.5,7.6,9.2,9.3,15.1
			C353.3,312.1,354,312.9,354.3,314z"/>
		<path class="st99" d="M334.7,334.1c-1.1-2.3-4.6-2.8-4.5-6c4,0,7.8,0.5,11.1,3.2c1,0.8,2.4,1.5,3.7,1.6c5.3,0.3,8.4,3.3,10.3,8
			c0.2,0.6,0.7,1,1.1,1.5c-1.7-0.1-3.1,0.2-4.2,1.7c-2,2.6-4.2,3.6-6.8,0.5c-2.1-2.6-5.7-2.8-8.4-4.4
			C334.6,338.7,335.3,336.1,334.7,334.1z"/>
		<path class="st100" d="M106.2,374.5c-0.2-0.5-0.4-1-0.6-1.4c2.7-0.9,5.5-1.1,8.2-2.2c2.5-1,2.9-1.9,1.2-4c-0.8-1-2.8-1.7-2-3.1
			c0.7-1.2,2.5-0.3,3.9-0.5c0.5-0.1,1-0.1,1.8-0.1c-0.8-2.5-1.6-4.6-4.4-5.4c-2.6-0.8-4.2-2.1-2.7-5.2c0.9-1.8,0.2-2.9-1.9-2.8
			c-1.1,0-2.2,0-3.4,0c-5.3,0-5.9-0.5-6.6-5.8c-0.3-2.3-2.7-3.7-2.3-6.2c2.4-0.7,4.7-1.3,7.2-0.5c1.1,0.7,1.4,1.9,2.2,2.9
			c2.8,3.5,3.9,3.6,7.3,0.7c0.8-0.2,1.5-0.1,2.2,0.2c1.6,1.1,1.8,2.9,2.4,4.5c0.4,1.2,0.5,2.6,1.6,3.3c3.7,2.7,3.4,6.6,3.3,10.4
			c-0.1,4.8-1.7,9.5-1.5,14.3c-1.8,2.4-5.4,3.4-5.4,7.2c-1.7,1.2-2.7-0.3-3.9-1.1C110.3,378.4,108.5,376.1,106.2,374.5z"/>
		<path class="st101" d="M104.8,337.8c-2.5-0.7-4.9,1.5-7.4,0c-3.7-0.7-5.8-4.9-10-4.7c-1.4-4.5-6.6-3.6-9.1-6.2
			c-2.1-2.2-3.9-4.6-6.4-6.3c0-0.2,0-0.5,0-0.7c0.8-0.8,1.5-1.6,2.3-2.3c1.4-2.1,3.1-1.6,4.7-0.3c1.1,0.9,2,2.2,3.5,2.6
			c2,1,3.7,2.1,4.4,4.6c0.8,2.7,4,2.1,5.8,2c3.1-0.1,5.3-0.2,7,3.1c0.9,1.6,4.1,1,5.1,3.3C105.3,334.5,106.3,336.2,104.8,337.8z"/>
		<path class="st102" d="M106.2,374.5c1.7-0.8,2.2,0.9,3.1,1.6c2.3,1.6,4.2,3.8,6.9,5c2.9,0.7,4.9,3.1,7.7,4.1
			c1.5,1.4,3.9,1.7,4.9,3.7c2.2,1.2,4.2,3.1,6.8,3.5c1.3,2.5-1.1,3.8-2.1,5.3c-1,1.4-2.3-0.4-3.5-0.7c-0.8-0.2-1.6-0.6-2.4-1
			c-2.2-1.5-4.4-3-6.6-4.5c-2.3-2.3-4.6-4.6-6.8-6.9C111.1,381.5,108,378.5,106.2,374.5z"/>
		<path class="st103" d="M92.9,292.9c-1.4,4.9-6.7,3.7-9.7,6c-1.6-1.1-3.3-1.9-5-2.8c-0.5-0.8-1-1.5-0.3-2.4
			c-0.1-4.5,1.8-8,5.1-10.8c0.2-0.2,0.5-0.4,0.5-0.6c0.3-5.7,5.7-6.3,9-9.1c2.1-1.7,2.4-7.1,0.1-9.8c-1.3-1.5-1-2.1,0.4-2.7
			c2.8-1.1,2.8-3.7,1.8-5.3c-2.8-4.2-1-9.1-2.7-13.2c-1.7-4.2,0.6-7.7,1.5-11.4c2.6,2.2,6.6,2.4,8.2,5.9c-0.7,6.8,1.2,13.5,0.8,20.3
			c-1.6,2.6-1.3,5.7-1.4,8.5c-0.1,3.3,1.8,6.8-2.6,8.7c-0.2,0.1-0.3,0.4-0.4,0.6c-0.7,2.6-0.3,5-4.1,6.6c-3.9,1.6-3.9,5.7-2,10.2
			C92.3,292.1,92.6,292.5,92.9,292.9z"/>
		<path class="st91" d="M102.6,257c-1-6.7-3.2-13.4-0.8-20.3c5.5-2.4,10.1-6.1,14.2-10.5c5-4.4,9.7-9.1,15.7-12.9
			c0.2,2.5,0.3,4.7,0.6,6.8c0.2,1.6-0.4,2.5-1.8,3.2c-1.5,0.8-2.9,1.9-4.3,2.8c-4.5,2.7-7.9,6.5-11.1,10.6
			c-4.9,5-8.5,10.9-11.1,17.4C103.7,255.1,103.8,256.4,102.6,257z"/>
		<path class="st91" d="M111.8,203.9c1.7-2.5,3.5-5,5.2-7.5c3.7-2.6,7.3-5.1,11-7.7c3.4-1.1,5.6-4.6,9.7-5
			c-1.3,3.7-2.9,6.9-3.6,10.4c-4.8,3.1-10.3,4.9-14.6,8.9c-3,1.6-5.4,3.9-8,6c-0.5,0-1.5,0.5-1.3-0.4
			C110.5,207,110.6,205.2,111.8,203.9z"/>
		<path class="st91" d="M235.8,243.5c-0.1-1.5-0.3-3-0.4-4.6c2,0,4.1-0.2,6.1,0.1c2.5,0.4,3.4-0.7,3.3-2.9c-0.1-2.2-0.3-4.4-0.7-6.6
			c-0.5-2.9-3.3-4.4-5.8-3c-1.9,1.1-3.9,1.5-5.9,2.2c-0.1-1.7,1.5-2.2,2.1-3.2c5-1.4,9.9-1.5,14.8,0.7c2.2,1.8,4.4,3.6,6,6
			c3,3.8,3.1,7.7,0.4,12.6c-0.9,1.6-2.1,3-3.5,4.2c-1,0.8-2,1.4-3.1,2c-3,1.3-6.1,2-9.4,1C235.4,250.8,234.1,247.9,235.8,243.5z"/>
		<path class="st104" d="M77.9,293.7c0.3,0.7,0.5,1.5,0.8,2.2c0.4,2.6-1.3,4.1-3,5.6c-5.2,0.6-6.2,0.1-8-4.1c0.3-1.9,0.7-3.7,2-5.2
			c0.5-0.3,1-0.5,1.4-0.8c2.2-0.3,4.1,0.2,5.3,2.3C76.9,293.7,77.4,293.7,77.9,293.7z"/>
		<path class="st69" d="M83.2,255.5c-2.4-3.1-3.5-6.2-0.8-9.7C86.2,248.7,86.4,251.8,83.2,255.5z"/>
		<path class="st105" d="M72.1,279.2c0.3-1.9,0.5-3.9,0.8-5.8c0.1-0.6,0.5-1.1,1-2.3c0.5,2.2,0.9,3.8,1.2,5.3
			c0.1,3.1-0.4,6.1-1.2,9.1C72,283.7,73.1,281.2,72.1,279.2z"/>
		<path class="st103" d="M76.4,293.7c-1.8-0.8-3.5-1.5-5.3-2.3c0-0.5,0.1-1,0.1-1.5c1.2-1.7,3.5-1.2,5-2.3
			C77.3,289.6,77.2,291.6,76.4,293.7z"/>
		<path class="st106" d="M354.3,314c-0.5-0.2-1.2-0.3-1.3-0.6c-1.5-6.7-6.6-11.5-9.4-17.5c-0.5-2.5,1.3-3.5,3-4.5
			c5.1,0.9,8,4.4,10.4,8.4c1,1.8,0.9,4.1,2.3,5.8c2.6,2,2.2,4.8,2.2,7.5C359.2,313.4,356.8,313.7,354.3,314z"/>
		<path class="st107" d="M361.6,313.2c-1.6-2.2-0.8-5.2-2.2-7.5c0.7-1.7-0.1-3.7,1.3-5.4c0.6-0.8,0-1.8-1.3-2.1
			c-1.5-0.3-1.9-1-0.7-2.3c0.9,0.5,1.7,1.3,2.6,1.4c5.2,0.4,6.9,4.1,7.9,8.3c0.7,2.8,2.1,4.9,4.6,5.9c4.2,1.5,6.5,4.6,8.1,8.4
			c-1.2,0-2.5,0-3.8,0c-1.8-1.3-3.7-2.4-5.9-3C369.1,314.5,365.3,314,361.6,313.2z"/>
		<path class="st108" d="M251.6,248.7c4.9-4.6,6.2-10.1,3.7-16.4c4.8-1,8.8-4.3,12.7-6.7c3.3-2.1,6.5-4.1,10.2-5.4
			c1.1-0.4,1.6-1.9,1.9-3.1c0.6-2.8,2.4-3.6,5-2.9c1.5,0.3,3.5,0.8,4.3-0.2c1.7-2,4-3.1,5.9-4.8c1.1-1-0.1-2.1-0.6-3
			c-2.7-4.6-2.5-4.9,2.8-5.4c0.7-0.1,1.4-0.4,2.1-0.6c1.7,2.1,1.3,4.4,0.4,6.6c-0.7,1.8-1.1,3.8-0.2,5.4c2,3.4,1,6.2-1,9
			c-1.9,2.3-3.3,5.1-6.4,6c-0.8,0.2-1.2,0.9-1.3,1.7c-0.2,1.9-1.4,3.2-2.7,4.3c-1.1,0.9-1.8,2-2.1,3.4c-0.1,0.5-0.1,1.1-0.5,1.4
			c-3.4,2.6-4.9,6-5.6,10.3c-0.4,2.3-3.5,2.5-5,0.2c-1.4-2-2.4-2.1-4.1-0.7c-1.4,1.1-3.2,1.1-5,1.2c-1.8,0.1-3.7-0.3-5.6,0.3
			c0.4,1,2.4,1.3,1.5,2.5c-1.2,1.6-3,2.7-4.9,3C255.5,255,251.8,250.7,251.6,248.7z"/>
		<path class="st109" d="M330.9,278.7c-2.3,2.1-4.1,0.4-6-0.8c0.8-4.9-3.3-7-6.1-9.6c-2.2-2-4.7-3.3-4.1-7c0.3-2-1.4-2.8-2.9-1.8
			c-1.7,1.2-2.8,0.2-4.1-0.4c-0.8-0.6-1-1.6-0.7-2.3c1.2-2.2,1.1-4.1-1-5.8c-0.4-0.3-0.5-1-0.3-1.4c1.4-2.4,0.7-5.2,1.1-7.7
			c3.4-1.5,3-6.3,6.7-7.5c0.5,1.3,1.8,1.6,2.9,2.2c0.9,0.5,2.2,1.2,2,2c-0.5,3.3,2.3,5.8,1.9,9.1c-0.5,4.1,2.3,7.9,2.1,12.1
			c-0.1,1.3,1.3,1.7,2.2,2.3c4.1,2.7,5.3,5.7,3.9,10.3c-0.3,1.1-0.5,1.7,0.6,2.5C330.4,275.9,331.4,277,330.9,278.7z"/>
		<path class="st110" d="M269.5,304.9c2.9-2.2,6.4-2.6,9.8-3.2c1.6-0.3,2.3,1.5,3.1,2.8c0.7,1.2,0,1.8-0.9,2.3
			c-2.1,1.3,0.3,1.6,0.5,2.5c0.8,3.9,3.5,3.3,6.4,3.2c4.7-0.3,4.8,0,5.8,6.7c-3.6,0.9-6.4-2-9.8-2.1c-0.4,0-0.9-0.8-1.2-0.7
			c-3.7,0.7-5.6-1-7.1-4.3c-0.8-1.7-2.6-1.2-4.2-0.3c-2.1,1.1-3.9,0-3.8-2.1c0.1-2.9,2.6-0.1,3.4-1.6
			C271.5,306.7,270.8,305.6,269.5,304.9z"/>
		<path class="st111" d="M296.5,321.4c1.9,0.1,3.5-0.2,5.1-1.5c2-1.6,4.1-1,5.2,1.3c1.5,3,3.3,5.6,6.5,7.1c1.6,0.8,1.8,2.8,2.7,4.3
			c-1-0.1-1.9,0.1-2.7,0.9c-3,2.7-5.9,0.4-8.9-0.4c-0.7-0.2-1.2-1-1-1.8C304.5,325.6,300.2,323.7,296.5,321.4z"/>
		<path class="st47" d="M334.7,334.1c2.6,1.3,0.7,4.3,2.3,6l0,0c-3.7,0.7-6.2,4.6-10.5,3.7c-2.1-1.8-3.6-3.9-3.8-6.7
			c2,0.1,4.1,0.3,3.8-2.9c-0.1-1,0.6-1.9,1.6-1C330.1,335.3,332.4,334,334.7,334.1z"/>
		<path class="st63" d="M326.4,343.8c3.7-0.7,6.2-4.7,10.5-3.7c0.3,1.6-0.9,1.9-1.9,2.6c-1.5,1.1-2.1,3-2.5,4.8
			C328.2,349.9,327.5,346.6,326.4,343.8z"/>
		<path class="st112" d="M307,242c1,2.4,1.6,4.8-0.2,7.2c-0.9,1.3,0.1,2,1.1,2.6c1.7,1.1,2.8,2.2,0.5,3.9c-1.2,0.8-0.5,2.3-0.6,3.5
			c0.6,2.7,0.3,4.9-3,5.7c-0.9,0.2-1.7,1-2.4,1.6c-2.1,1.9-3.4,4.6-7.3,2.2c-1.9-1.2-5.2-0.2-8.3-0.2c2,1.9,3.5,3.4-0.3,3.5
			c-0.5,0-1.3,0.4-1.6,0.8c-2.1,3.8-5.9,0.7-8.7,2.2c-1.2,0.6-2.2-1.5-2.2-3.2c0-1.1,0-2.5-1.5-2.5c-1.3,0-1.4,1.2-1.5,2.2
			c-0.1,2.6-1.2,2.5-3.4,1.9c-2.9-0.8-5.9-1-6.9-4.5c-0.1-0.3-0.6-0.6-0.9-0.6c-2.9,0.4-4.2-1.4-5.2-3.7c-0.2-0.5-1-0.6-1.6-0.9
			c-4.2-2.2-5.7-7.8-3.8-13.5c0.7-0.5,1.5-1,2.2-1.5c0.9,2.3,3.4,3,4.7,5c0.5,0.8,1.4,0.9,1.8,0c0.7-1.6,2.4-1.4,3.6-2
			c0-1-0.5-1.2-1.2-1c-1.3,0.3-1.9-0.4-1.9-1.6c0.1-1.2,1.2-1.1,2-1.1c2.1,0,4.2,0,6.3,0c0.9,0,1.9,0.1,2.5-0.4
			c2.6-1.8,4.9-4.2,6.9,0.9c0.7,1.8,3.4,0.5,3.4-1.2c0-4.1,1-7.2,4.9-8.9c-0.6-4.7,5.7-6,5.3-10.6c0-0.3,0.3-0.9,0.5-0.9
			c3.9-0.3,5-4.7,8.3-5.8c1.4,1.9,2.7,3.6,1.2,6.3c-0.8,1.4,0.8,3,1.7,4.3c0.9,1.4,2.1,2.8,1.6,4.4C301.7,239.9,304,241.1,307,242z"
			/>
		<path class="st113" d="M69.7,292.2c0.2,2-0.7,3.6-1.6,5.2c-1.1,2.1-3.1,2.3-5.2,2.2c-2.2-1.8-4.9-2.6-7.4-3.6
			c-1-2.8-2.8-5.1-5.3-6.7c0.3-2.9,0.9-5.1,4.8-4.4c1.7,0.3,3.7-1,5.6-1.6c0.6,1.8,2.1,3.2,2,5.4c-0.1,1.6,1.5,2.4,2.9,2
			C67.5,290.1,68.5,291.1,69.7,292.2z"/>
		<path class="st56" d="M74.1,238.3c0.8,0.9,2.4,1.3,2.3,2.9C74.3,241.6,73.7,240.8,74.1,238.3z"/>
		<path d="M150.8,370c-1,1.7-2.3,3.3-3,5.1c-0.8,1.8-1.9,1.5-3.1,0.8c-1.8-0.2-3-1.5-4.3-2.6c-3.3-2.7-5-6.5-7.6-9.8
			c-1.9-2.8-4.7-4.8-7.2-7c-2.1-1.8-1.5-7.4,0.9-8.9c1.2-0.7,2.2,0.1,3.1,0.7c2.6,1.8,5,3.6,7.7,5.2c2.5,1.6,5.1,3.1,7.6,4.6
			c2.3,1.3,4.7,2.4,7.1,3.6C155.1,364.4,154.8,366.5,150.8,370z"/>
		<path class="st114" d="M140.8,372.9c1.2,1,2.5,2,3.7,3c-0.4,0.5-0.6,1.2-1.1,1.4c-2.9,1.4-3.9,3.5-2.2,6.7c-5,0-8.6,2.9-12.6,4.9
			c-1.9-0.8-3.7-1.7-5.3-3c-1.2-2.5-0.3-3.6,2.4-4.1c4.2-0.8,7.3-3.5,9.6-6.8C136.8,372.8,138.3,372,140.8,372.9z"/>
		<path class="st115" d="M150.8,370c0.6-1.1,1-2.2,1.7-3.2c1.5-2,1.1-3.4-1.2-4.4c-0.3-0.7,0-1.4,0.6-1.5c2.7-0.7,5-2.4,7.7-2.9
			c3.9,1.1,3.1,4.9,4.5,7.5c-1,1-2.1,2.1-3,3.2c-0.6,0.7-1.3,1.5-2,0.4c-2.1-3-4-1.7-5.9,0.2C152.5,369.9,151.6,370.1,150.8,370z"/>
		<path class="st116" d="M141.6,328.7c0.4,0.6,0.9,1.2,1.1,1.9c2.6,9,10.3,12.7,17.5,17c-0.6,1.1-1,2.3-0.1,3.4c1,1.3,0,2.3-0.6,3.3
			c-4.3,0.9-6.6-1.8-8.8-4.8c-0.7-1.7-1.8-2.8-4-2.5c-1.8,0.3-3.4-0.5-4.8-1.6c-1.6-1.2-3.3-2.2-5.2-2.9c-3.5-1.3-5.9-3.5-7.5-7.1
			c-2-4.5-5.8-7.1-11.1-6c-1.9,0.4-3.4-0.1-4.6-1.7c-0.9-1.2-2.1-2.1-3.6-2.3c-1.5-1.5-3.1-3.1-1.9-5.5c0.6-0.1,1.6-0.6,1.7-0.4
			c2.7,4.3,6.4,0.6,9.5,1.2c0.2-0.1,0.6-0.2,0.7-0.1c2,2,3.7,4.7,7.1,2.2c0.3-0.2,1,0.1,1.4,0.4c0.5,0.2,0.8,0.7,1.3,0.7
			C134,324.3,137.8,326.6,141.6,328.7z"/>
		<path class="st117" d="M151.2,349.1c2.1,2.7,4.8,4.6,8.3,5.2c0,1.2,0,2.5,0,3.7c-1.9,3-6,2.1-8.2,4.5c-2.5-0.8-4.7-2.1-6.8-3.6
			c-1-0.7-1.7-1.9-0.6-2.7c2.3-1.8,3.6-4.3,5.4-6.4C149.7,349.1,150.4,348.8,151.2,349.1z"/>
		<path class="st19" d="M372.2,316.8c3-1,4.6,0.7,5.9,3c-1.3,0.1-2.6-0.1-3.8-0.7C373.6,318.4,372.9,317.6,372.2,316.8z"/>
		<path class="st118" d="M82.4,320.6c-1.3,0.2-2.3-0.3-3-1.5c-1.2-2.2-3-2.7-5.2-1.5c0-1.2-0.8-2.1-1.7-2.7
			c-2.1-1.5-2.1-3.3-1.3-5.5c1.8-1.4,1.8-4.5,4.6-5c0.5,0.2,0.9,0.5,1.2,0.9c0.5,1,1.1,1.9,1.7,2.9c2.5,4.5,2.6,4.5,7.6,3.7
			c3.3,0.7,6.3,2,9.2,3.7c3.8,3.4,3.9,4,2.2,8c-2.3,1.4-4.4,0.6-6-1C88.9,319.8,86,319.1,82.4,320.6z"/>
		<path class="st119" d="M75.8,304.9c-2.3,0.8-1.6,4.5-4.6,4.5c-2.3-1.8-4.5-1.7-6.6,0.4c-1.9-1.2-0.9-3.6-2.3-4.9
			c-1.4-2.2-1.7-4.2,0.7-6c1.9,0,3.5-0.8,5.2-1.5c1.4,3.4,4.3,3.8,7.5,3.8C76.7,302.4,76.7,303.6,75.8,304.9z"/>
		<path class="st120" d="M62.9,298.9c-1.1,1.9-0.6,4-0.7,6c-3.5-0.3-6.9-0.7-7.5-5.2c0.3-1.3,0.5-2.5,0.8-3.8
			C58.6,295.4,61.1,296.2,62.9,298.9z"/>
		<path class="st91" d="M108,319.8c0.1,2.1,1.3,3.6,2.3,5.3c3.2,4.1,7.1,8,5,14c-0.3,0.9-0.7,1.9-1.6,2.4c-1.7,4.4-1.7,4.3-5.5,1.4
			c-1.8-1.3-3.2-2.7-3.3-5.1c0.3-1.8-0.5-3.5-0.8-5.2c-2.6-2.8-2.1-6.5-2.8-9.8c-0.5-2.9-0.3-5.8,0.6-8.6c0.2-0.6,0.5-1.1,0.8-1.7
			c0.3-1.8,0.6-3.6,1.1-6.4C105,311.3,106,315.7,108,319.8z"/>
		<path class="st121" d="M102.5,312.4c0,0.5-0.1,1-0.1,1.5c-2.1,1.7-4.5,2.6-7.3,2.3c-3-1.3-6-2.5-9-3.8c-1.1-4.1-4-5.8-8.1-5.9
			c-0.6,0-1.1-0.4-1.6-0.8c-0.2-0.2-0.5-0.5-0.7-0.7c0-1.2-0.1-2.5-0.1-3.7c1-1.8,2-3.5,3.1-5.3c1.8,0.6,3.8,0.8,4.5,3
			c0,0.9,0.4,1.8,1.2,2.2c2.8,1.5,5.3,3.2,7.3,6c1.2,1.7,3.1,4.1,6.2,2.5c0.8-0.4,1.4,0.7,1.9,1.4
			C100.3,311.9,100.8,313.3,102.5,312.4z"/>
		<path class="st122" d="M141.6,328.7c-1.9,1.8-3,0.7-4.1-1c-1.1-1.7-2.4-3.2-4.8-1.6c-1.5,1-2.2-0.5-3.1-1.2
			c-1.8-1.4-3.5-2.3-5.4-0.1c-1.2,1.5-2,0.7-2.7-0.6c-0.7-1.3-1-2.9-2.5-3.6c1.1-3.2,3.3-2.8,6.2-2.6c4.7,0.3,8.8,2.7,13.3,3.4
			C139.9,323.7,140.9,326.2,141.6,328.7z"/>
		<path class="st123" d="M249.3,250.2c0.5,2.5-0.6,5,0.4,7.6c0.8,2.2,1.8,4.2,3.4,5.9c-0.3,0.3-0.5,0.5-0.8,0.8
			c-0.1,0-0.2,0.1-0.3,0.1c-1.6,0.5-3.1-2.1-4.3-0.7c-1.4,1.6,0.4,3.4,0.9,5.1c-0.5,2.4,1.6,4.3,1.5,6.6c0,1.6,0.2,3.2-0.7,4.6
			c-0.2,0.1-0.4,0.3-0.6,0.4c-1.8,0.6-2.1,4.7-4.8,2.7c-2-1.4-2.6-4.2-2.4-6.8c0.1-1.4-0.2-2.9-1.3-3.1c-1.6-0.4-1.3,1.3-1.4,2.3
			c-0.1,1.5-1,2.5-2.4,2.1c-2.1-0.6-3-2.8-3.2-4.6c-0.7-5.5-0.7-5.7-6.1-6c-1-0.1-1.7-0.6-2.1-1.4c-1.4-2.7-3.8-4.2-6.2-5.8
			c-1.3-0.9-3.5-1.9-2.8-3.4c0.9-1.8,2.1-4.2,4.5-4.5c1.3-0.1,2.5-0.1,2.3-1.5c-0.3-1.7-2,0.2-3.1-1.1c0.7-0.9,0.5-3.2,3-1.5
			c1.1,0.7,1.9,0.3,2.7-0.2c1.2-0.7,1.9-0.5,2.8,0.7c2.7,3.6,2.7,3.6,5-0.6c1.5-0.4,0.4-1.2,0.2-1.8c-0.4-1.1-1.8-2.1-0.5-3.5
			c0.8,0.6,1.8,0.9,2.8,0.8c0,7.4,1.7,8.8,10.3,7.5C247.2,250.9,248.3,250.5,249.3,250.2z"/>
		<path class="st123" d="M253.8,283.2c1.6-0.2,2-1.7,1.2-2.4c-2.7-2.7-0.2-6-1.5-8.8c-0.3-0.7,0.2-1.2,0.9-1.3
			c0.6-0.1,0.9,0.3,1.1,0.7c2.3,4.2,7,6.2,9.3,10.4c0.2,0.3,1,0.5,1.3,0.3c4.6-2.1,3.1,1.8,4.2,3.9c-6-2.7-6-2.7-6.2,2.4
			c-2.1-0.2-3.7,0.2-3.9,2.8c-0.1,1.1-1,1.6-2.1,1.6c-1.1,0-1.2-0.9-1.6-1.7C255.6,288.6,252.8,286.6,253.8,283.2z"/>
		<path class="st91" d="M233,242.8c0,1.8,1.7,2.9,2,4.5c0.1,0.6,0.8,1.6-0.1,1.9c-0.7,0.3-1.1-0.7-1.6-1.2
			c-2.9-3.5-3.9-7.5-3.4-11.9C231,238.3,232,240.5,233,242.8z"/>
		<path class="st123" d="M226.7,269.8c1.5,0.5,2.5,1.4,2.9,2.7c0.2,0.7-0.7,1.2-1.2,1.1c-1.4-0.1-2.7-0.8-3.2-2
			C224.8,270.8,226,270.4,226.7,269.8z"/>
		<path class="st93" d="M203.7,252.5c1.6,0,3.5-2,4.8,0.6c0.4,0.8,0.3,1.7-0.4,1.9C205.9,255.6,204.7,254.1,203.7,252.5L203.7,252.5
			z"/>
		<path class="st95" d="M217.9,235.1c-0.1,0.6,0,1.4-0.9,1.3c-0.8-0.1-1.2-0.8-1.2-1.6c0-0.7,0.3-1.3,1-1.3
			C217.6,233.5,217.8,234.4,217.9,235.1z"/>
		<path class="st112" d="M248.6,269c-0.6-0.5-1.3-0.8-1.7-1.4c-0.9-1.6-1.1-3.4-0.1-4.9c1.5-2.1,2.3,0.8,3.6,0.8
			c0.6,0,1.2,0.7,1.9,1.1C251.1,266,249.8,267.5,248.6,269z"/>
		<path class="st96" d="M301.1,308.6c2.1,0,4.7-0.3,4.7,2.3c0,1.9-2.6,1.9-4.2,2.1c-2.3,0.3-3.6-1.8-3.7-3.3
			C297.8,308,300,308.9,301.1,308.6z"/>
		<path class="st6" d="M319.6,322.9c0.1,0.5,0,1-0.6,1.1c-0.7,0.1-1.1-0.5-1.3-1c-0.2-0.6-0.1-1.3,0.7-1.3
			C319,321.7,319.4,322.2,319.6,322.9z"/>
		<path class="st124" d="M113.6,341.5c4.1-6.6-1.8-11-3.4-16.4c2.1-1.4,2.8,0.3,3.7,1.7c0.9,1.3,1.7,2.4,3.6,1.8
			c6-2.1,11.4,2.4,13.3,7.7c0.8,2.1,1.9,3.3,3.8,4.2c3.1,1.4,6.4,2.7,9,5.1c0.9,0.8,2.2,0.8,3.2,0.6c2.6-0.6,4,0.4,4.4,3
			c-3.1,1.9-3.3,6.3-7,7.8c-0.7,0.3,0.1,1.3,0.3,2c-2.8-1.1-5.3-2.6-7.6-4.5c-0.3-1.2-1-2.4-2-3.1c-2.7-2-5-4.3-7.3-6.7
			c-2.5-2.6-6.8-5.8-11.5-3C115.3,341.5,114.5,341.5,113.6,341.5z"/>
		<path class="st125" d="M116.1,341.5c2.2-2.6,4.6-3.3,7.2-0.6c0.8,0.8,1.7,1.4,2.9,1.4c0.6,0,1.6,0.2,1.7,0.4
			c1.3,4.9,6.7,5.9,9.2,9.7c0.5,0.7,0.6,1.4-0.3,1.9c-3.7-1.6-6.6-4.4-9.9-6.5c-1.2,1.1-1.1,2.8-1.8,4c-1,1.8-0.7,3.1,1.2,4.3
			c2.8,1.8,5.4,4,7,7c-2.3,3.6-2.8,8.7-8.1,9.9c-1.3,0.3-2.5,1.2-3.9,0.6c-1.4-4.5,1.2-8.6,1-13c-0.1-2,0.3-4-0.1-6.2
			c-0.4-2.1-0.9-3.4-2.7-4.8C117.1,347.9,117.6,344.2,116.1,341.5z"/>
		<path class="st126" d="M121.3,373.8c2.2-1,4.4-2.1,6.7-3.1c1.1-0.5,2.3-1.3,2.1-2.3c-0.6-2.9,1.2-4,3.2-5.1c2.8,3,4.4,6.9,7.5,9.7
			c-2.1,0.5-4.6,0.1-4.9,3.7c-0.1,1.7-3,2.2-4.6,3.4c-1.9,1.5-3.1,3.8-6.4,3c-1.9-0.5-1.2,1.9-1.6,3c-2.6-1.3-5.2-2.8-7.3-4.8
			C115,376.7,118.4,375.4,121.3,373.8z"/>
		<path class="st127" d="M102,322.7c0.7,3.3,1.3,6.6,2,9.8c-1-0.6-1.8-1.8-3.3-1.3c-0.4,0.1-1.2,0-1.3-0.2c-2-6.5-7.9-2.5-11.6-4.3
			c-1.2-0.6-2.7-0.2-2.1-2.5c0.7-2.6-2.3-2.4-3.3-3.8c3.6-2.8,5.9-2.8,8.8,0.4c1.8,2,3.7,2.6,6.1,2.6
			C98.9,323.4,100.5,323.4,102,322.7z"/>
		<path class="st108" d="M296.4,228.1c0.5,0.6,1.2,1.2,1.1,1.6c-0.3,1.2-1.2,2.1-2.4,2.4c-0.6,0.1-0.8-0.5-0.7-1
			C294.6,229.8,295.4,229,296.4,228.1z"/>
		<path class="st128" d="M76.5,305.6c1.2,0,2.4,0,3.7,0c4.1,0.2,6,2.4,6,6.7c-3.2,1.9-5.7,1.4-7.2-1.8
			C78.1,308.9,76.7,307.6,76.5,305.6z"/>
		<path class="st129" d="M102,322.7c-1.1,2.5-2.8,2-4.6,0.9c1.4-3.1-0.1-5.4-2.2-7.5c2.4-1,4.7-2,7.3-2.3
			C102.3,316.8,102.1,319.8,102,322.7z"/>
	</g>
</g>
</svg>
