<?xml version="1.0" encoding="utf-8"?>
<!-- Generator: Adobe Illustrator 27.5.0, SVG Export Plug-In . SVG Version: 6.00 Build 0)  -->
<svg version="1.1" id="Ebene_1" xmlns="http://www.w3.org/2000/svg" xmlns:xlink="http://www.w3.org/1999/xlink" x="0px" y="0px"
	 viewBox="0 0 256 256" style="enable-background:new 0 0 256 256;" xml:space="preserve">
<style type="text/css">
	.st0{fill:#5244F3;}
	.st1{fill:#FFFFFF;}
</style>
<rect class="st0" width="256" height="256"/>
<path class="st1" d="M84.49,106.321V70.414h8.509c3.404,0,6.807,0.52,9.643,2.082c2.836,1.561,5.105,3.643,6.807,6.245
	c1.702,2.602,2.269,5.724,2.269,9.367c0,2.082-0.567,3.643-1.135,5.724c-0.567,1.561-1.702,3.643-2.836,4.684
	c-1.135,1.561-2.269,2.602-3.971,3.643c-1.702,1.041-3.404,2.082-5.673,2.602c-2.269,0.52-4.538,1.041-6.807,1.041H84.49V106.321z
	 M68.606,118.811h24.393c5.673,0,10.778-0.52,15.316-2.082c4.538-1.561,8.509-3.643,11.345-6.245
	c2.836-2.602,5.105-5.724,6.807-9.887c1.702-3.643,2.269-7.806,2.269-12.49s-1.135-8.847-2.836-12.489
	c-1.135-3.643-3.971-6.765-6.807-9.367c-3.404-2.602-6.807-4.684-11.345-6.245c-4.538-1.561-9.644-2.602-15.316-2.602H68.606
	V118.811z"/>
<polygon class="st1" points="192.396,93.614 166.178,108.503 166.178,108.502 139.975,93.613 166.177,129.125 166.178,129.127 "/>
<polygon class="st1" points="192.38,88.835 192.38,88.834 166.178,47.02 166.178,47.019 166.178,47.02 166.178,47.019 
	166.178,47.02 139.975,88.834 139.976,88.835 139.976,88.835 148.271,93.55 166.178,103.731 166.178,103.731 192.38,88.835 "/>
<path class="st1" d="M70.622,197.978h44.645V184.68H93.434l-0.098-0.271l10.28-9.86c9.007-8.593,11.063-13.75,11.063-20.896
	c0-11.578-10.28-18.634-21.833-18.634c-11.651,0-18.896,5.337-22.91,11.76l11.357,7.508c2.839-3.98,6.266-5.699,10.28-5.699
	c4.112,0,7.049,2.895,7.049,6.784c0,4.432-2.937,8.232-8.224,13.388l-19.973,19.629L70.622,197.978z"/>
<path class="st1" d="M163.966,198.792c13.315,0,23.106-6.875,23.106-17.82c0-7.146-4.014-12.302-10.378-15.016v-0.271
	c5.189-2.985,8.322-7.87,8.322-13.93c0-10.674-9.79-16.735-22.029-16.735c-9.986,0-18.21,4.885-21.147,11.669l12.728,6.242
	c1.567-3.166,3.916-4.885,7.93-4.885c4.21,0,7.245,2.533,7.245,6.332c0,3.528-2.448,6.151-7.147,6.151h-5.483v11.398h4.406
	c6.07,0,9.105,3.166,9.105,7.056c0,4.523-3.72,6.965-7.832,6.965c-5.189,0-8.224-2.261-9.693-6.513l-13.805,5.066
	C142.525,192.641,151.63,198.792,163.966,198.792z"/>
</svg>
