<?xml version="1.0" encoding="utf-8"?>
<!-- Generator: Adobe Illustrator 26.3.1, SVG Export Plug-In . SVG Version: 6.00 Build 0)  -->
<svg version="1.1" id="Ebene_1" xmlns="http://www.w3.org/2000/svg" xmlns:xlink="http://www.w3.org/1999/xlink" x="0px" y="0px"
	 viewBox="0 0 256 256" style="enable-background:new 0 0 256 256;" xml:space="preserve">
<style type="text/css">
	.st0{fill:#DD445E;}
</style>
<rect class="st0" width="256" height="256"/>
<g>
	<path d="M140.184,84.941l0.559-0.559c1.678-2.237,2.796-5.033,4.474-7.27c1.678-3.355,3.914-6.71,5.592-9.507
		c1.118-1.678,2.237-3.914,3.355-5.592c1.678-3.355,3.914-6.71,5.592-10.066c1.118-1.678,2.237-3.355,3.355-5.592
		c0.559-1.118,1.118-2.237,1.678-3.355c0,0,0,0,0.559,0c0.559,1.118,1.118,2.237,2.237,3.355c2.237,3.914,4.474,7.829,6.711,11.743
		c1.678,2.796,2.796,5.033,4.474,7.829c1.678,3.914,3.914,7.829,6.151,11.743c1.678,2.237,2.796,5.033,4.474,7.27c0,0,0,0,0,0.559
		c-0.559,0.559-1.118,0.559-1.678,1.118c-3.355,2.237-7.27,4.474-10.625,6.71c-3.355,2.237-6.711,3.914-10.066,6.151
		c-0.559,0.559-1.118,0.559-1.678,1.118h-0.559c-3.355-2.237-6.711-3.914-9.507-6.151c-2.796-1.678-5.033-3.355-7.829-5.033
		C145.217,87.737,142.98,86.618,140.184,84.941C140.743,84.941,140.743,84.941,140.184,84.941z"/>
	<path d="M140.184,92.769C140.743,92.769,140.743,92.769,140.184,92.769c1.678,1.118,2.796,1.678,3.914,2.237
		c2.796,1.678,5.033,3.355,7.829,4.474c1.118,0.559,2.796,1.678,3.915,2.237l7.829,5.033l0.559,0.559h0.559
		c1.118-0.559,2.237-1.678,3.355-2.237c3.355-1.678,6.151-3.915,8.947-5.592c2.237-1.678,5.033-2.796,7.27-4.474
		c1.118-0.559,2.796-1.678,3.914-2.237c-1.678,2.796-3.914,5.592-5.592,8.388c-1.678,2.796-3.355,5.033-5.033,7.829
		c-1.678,2.796-3.355,5.033-5.033,7.829c-1.678,2.237-3.355,5.033-5.033,7.27c-1.118,1.678-2.237,2.796-2.796,4.474v0.559v-0.559
		c-0.559-1.118-1.118-1.678-1.678-2.796c-1.118-1.678-2.237-3.355-3.355-5.033c-1.118-1.678-2.237-3.355-3.355-5.033
		c-1.118-1.678-2.237-2.796-2.796-4.474c-1.118-1.678-2.237-3.355-3.914-5.592c-1.118-1.118-1.678-2.796-2.796-3.914
		c-1.118-1.678-2.237-2.796-2.796-4.474C142.421,95.566,141.303,94.447,140.184,92.769
		C140.743,92.769,140.743,92.769,140.184,92.769z"/>
	<path d="M84.263,105.072V66.487h8.388c3.355,0,6.711,0.559,9.507,2.237s5.033,3.914,6.711,6.71
		c1.678,2.796,2.237,6.151,2.237,10.066c0,2.237-0.559,3.914-1.118,6.151c-0.559,1.678-1.678,3.914-2.796,5.033
		c-1.118,1.678-2.237,2.796-3.914,3.914c-1.678,1.118-3.355,2.237-5.592,2.796c-2.237,0.559-4.474,1.118-6.711,1.118h-6.71V105.072z
		 M68.606,118.493h24.046c5.592,0,10.625-0.559,15.099-2.237c4.474-1.678,8.388-3.915,11.184-6.711
		c2.796-2.796,5.033-6.151,6.71-10.625c1.678-3.915,2.237-8.388,2.237-13.421c0-5.033-1.118-9.507-2.796-13.421
		c-1.118-3.914-3.914-7.27-6.711-10.066c-3.355-2.796-6.71-5.033-11.184-6.71c-4.474-1.678-9.506-2.796-15.099-2.796H68.606V118.493
		z"/>
	<path d="M70.225,201h44.185v-14.244H92.802l-0.097-0.291l10.174-10.562c8.915-9.205,10.949-14.728,10.949-22.383
		c0-12.403-10.174-19.96-21.608-19.96c-11.531,0-18.701,5.717-22.674,12.597l11.24,8.042c2.81-4.264,6.201-6.105,10.174-6.105
		c4.07,0,6.976,3.101,6.976,7.267c0,4.748-2.907,8.817-8.139,14.341l-19.767,21.026L70.225,201z M140.418,201h44.185v-14.244
		h-21.608l-0.097-0.291l10.174-10.562c8.914-9.205,10.949-14.728,10.949-22.383c0-12.403-10.174-19.96-21.608-19.96
		c-11.531,0-18.701,5.717-22.674,12.597l11.24,8.042c2.81-4.264,6.201-6.105,10.174-6.105c4.07,0,6.977,3.101,6.977,7.267
		c0,4.748-2.907,8.817-8.139,14.341l-19.767,21.026L140.418,201z"/>
</g>
</svg>
