<?xml version="1.0" encoding="utf-8"?>
<svg version="1.1" id="Ebene_1" xmlns="http://www.w3.org/2000/svg" xmlns:xlink="http://www.w3.org/1999/xlink" x="0px" y="0px"
	 viewBox="0 0 512 512" style="enable-background:new 0 0 512 512;" xml:space="preserve">
<style type="text/css">
	.st0{fill:#FFFFFF;}
	.st1{fill:url(#SVGID_1_);}
	.st2{fill:#A0A8D4;}
	.st3{fill:url(#SVGID_00000048477254823530203900000006812364763421098369_);}
	.st4{fill:url(#SVGID_00000051363359622527785080000015450997810488418997_);}
</style>
<g id="ENS">
	<rect class="st0" width="512" height="512"/>
	<g>
		<g id="Layer_1">

				<linearGradient id="SVGID_1_" gradientUnits="userSpaceOnUse" x1="260.3665" y1="2086.4485" x2="107.7566" y2="2251.8884" gradientTransform="matrix(1 0 0 1 -6 -2035.897)">
				<stop  offset="0.58" style="stop-color:#A0A8D4"/>
				<stop  offset="0.73" style="stop-color:#8791C7"/>
				<stop  offset="0.91" style="stop-color:#6470B4"/>
			</linearGradient>
			<path class="st1" d="M115.9,215.9c4.2,8.9,14.4,26.4,14.4,26.4L249.2,45.8l-116,81c-6.9,4.6-12.6,10.9-16.5,18.2
				C105.9,167.3,105.6,193.3,115.9,215.9z"/>
			<path class="st2" d="M68.7,280.6c2.7,38,21.6,73.1,51.9,96.1L249,466.2c0,0-80.3-115.7-148-230.9c-6.9-12.2-11.5-25.5-13.6-39.3
				c-0.9-6.2-0.9-12.6,0-18.9c-1.8,3.3-5.2,10-5.2,10c-6.9,14-11.5,29-13.9,44.4C67,247.9,67.1,264.3,68.7,280.6z"/>

				<linearGradient id="SVGID_00000011719726841481004730000004920026844600860593_" gradientUnits="userSpaceOnUse" x1="263.6521" y1="2497.335" x2="416.2852" y2="2331.9263" gradientTransform="matrix(1 0 0 1 -6 -2035.897)">
				<stop  offset="0.58" style="stop-color:#A0A8D4"/>
				<stop  offset="0.73" style="stop-color:#8791C7"/>
				<stop  offset="0.91" style="stop-color:#6470B4"/>
			</linearGradient>
			<path style="fill:url(#SVGID_00000011719726841481004730000004920026844600860593_);" d="M396.2,296.1
				c-4.2-8.9-14.4-26.4-14.4-26.4L262.8,466.2l116-81c6.9-4.6,12.6-10.9,16.5-18.2C406.1,344.7,406.4,318.7,396.2,296.1z"/>
			<path class="st2" d="M443.3,231.4c-2.7-38-21.6-73.1-51.9-96.1L263,45.8c0,0,80.2,115.7,148,230.9c6.8,12.2,11.4,25.5,13.6,39.3
				c0.9,6.2,0.9,12.6,0,18.9c1.8-3.3,5.2-10,5.2-10c6.9-14,11.5-29,13.9-44.4C445,264.1,444.9,247.7,443.3,231.4z"/>

				<linearGradient id="SVGID_00000064324826607167974790000004474346340120012928_" gradientUnits="userSpaceOnUse" x1="262" y1="2079.5898" x2="262" y2="2503.4248" gradientTransform="matrix(1 0 0 1 -6 -2035.897)">
				<stop  offset="0" style="stop-color:#513EFF"/>
				<stop  offset="0.18" style="stop-color:#5157FF"/>
				<stop  offset="0.57" style="stop-color:#5298FF"/>
				<stop  offset="1" style="stop-color:#52E5FF"/>
			</linearGradient>
			<path style="fill:url(#SVGID_00000064324826607167974790000004474346340120012928_);" d="M116.6,145c3.9-7.3,9.6-13.6,16.5-18.2
				l116-81L130.3,242.4c0,0-10.4-17.6-14.4-26.4C105.6,193.3,105.9,167.4,116.6,145z M68.7,280.6c2.7,38,21.6,73.1,51.9,96.1
				L249,466.2c0,0-80.3-115.7-148-230.9c-6.9-12.2-11.5-25.5-13.6-39.3c-0.9-6.2-0.9-12.6,0-18.9c-1.8,3.3-5.2,10-5.2,10
				c-6.9,14-11.5,29-13.9,44.4C67,247.9,67.1,264.3,68.7,280.6z M396,296.2c-4.2-8.9-14.4-26.4-14.4-26.4L262.8,466.2l116-81
				c6.9-4.6,12.6-10.9,16.5-18.2c10.7-22.4,11-48.3,0.8-71L396,296.2z M443.1,231.5c-2.6-38-21.6-73.1-51.9-96.1L263,45.8
				c0,0,80.2,115.7,148,230.9c6.8,12.2,11.4,25.5,13.6,39.3c0.9,6.2,0.9,12.6,0,18.9c1.8-3.3,5.2-10,5.2-10
				c6.9-14,11.5-29,13.9-44.4c1.4-16.3,1.2-32.7-0.4-49L443.1,231.5z"/>
		</g>
	</g>
</g>
</svg>
