<?xml version="1.0" encoding="utf-8"?>
<svg version="1.1" id="Ebene_1" xmlns="http://www.w3.org/2000/svg" xmlns:xlink="http://www.w3.org/1999/xlink" x="0px" y="0px"
	 viewBox="0 0 512 512" style="enable-background:new 0 0 512 512;" xml:space="preserve">
<style type="text/css">
	.st0{fill:#0097A7;}
	.st1{fill-rule:evenodd;clip-rule:evenodd;fill:#FFFFFF;}
</style>
<g id="Epor.io">
	<rect class="st0" width="512" height="512"/>
	<path class="st1" d="M239.5,512c-7.3-12.8-16-28.9-24.8-46.5c-10.6-21.2-21.3-45-29.5-68.1c-8.1-22.9-14-46.3-14.2-66.6
		c-0.4-42.6,24.4-74.2,46.9-94.2c9.9-8.8,19.8-15.7,27.8-20.7l-70.8-81L152,108.6h34.8h198.1v31.6H221.6l60.7,69.5l13.9,16
		l-19.2,8.8l0,0l0,0l0,0l0,0l-0.1,0c0,0-0.1,0-0.1,0.1c-0.1,0.1-0.2,0.1-0.4,0.2c-0.5,0.2-1.3,0.6-2.3,1.2c-2,1.1-5,2.7-8.7,4.9
		c-7.3,4.4-16.9,10.9-26.5,19.4c-19.5,17.3-36.5,40.9-36.3,70.3c0.1,15.1,4.7,34.7,12.4,56.4c7.6,21.5,17.7,43.9,27.9,64.5
		c10.2,20.5,20.5,38.9,28.1,52.1c1.8,3,3.4,5.8,4.8,8.3"/>
</g>
</svg>
