<?xml version="1.0" encoding="utf-8"?>
<!-- Generator: Adobe Illustrator 26.0.3, SVG Export Plug-In . SVG Version: 6.00 Build 0)  -->
<svg version="1.1" id="Ebene_1" xmlns="http://www.w3.org/2000/svg" xmlns:xlink="http://www.w3.org/1999/xlink" x="0px" y="0px"
	 viewBox="0 0 512 512" style="enable-background:new 0 0 512 512;" xml:space="preserve">
<style type="text/css">
	.st0{fill:url(#bg_00000132078511053100336720000014263661760784606638_);}
	.st1{fill:#FFFFFF;}
	.st2{fill-rule:evenodd;clip-rule:evenodd;fill:#FFFFFF;}
	.st3{opacity:0.1;}
	.st4{fill:#FCFCFC;}
</style>
<g id="MIVA-HNY">
	
		<linearGradient id="bg_00000092453322603204721560000015504245533943782547_" gradientUnits="userSpaceOnUse" x1="-36.0592" y1="206.5021" x2="548.0593" y2="309.4979" gradientTransform="matrix(1 0 0 -1 0 514)">
		<stop  offset="0" style="stop-color:#8349D1"/>
		<stop  offset="0.9944" style="stop-color:#FBAF40"/>
	</linearGradient>
	
		<rect id="bg_00000070822500607465079680000015067090477928386712_" style="fill:url(#bg_00000092453322603204721560000015504245533943782547_);" width="512" height="512"/>
	<g id="Flowr_00000070819978580957129270000014392068979687984270_">
		<g id="Flower_00000075856512943238150910000006609350034927982525_">
			<g id="Stiel_00000078742163858302581250000008626575684175688092_">
				<path class="st1" d="M249,448.8l-0.9-4.2c-6.5-30.8-15.3-72.9-15-117.3c0.4-69.7,13.3-108.6,14.8-112.8l8.6,3
					c-5.1,14.7-13.9,54.5-14.3,109.8c-0.3,43.4,8.5,85,14.8,115.4l0.9,4.2L249,448.8z"/>
			</g>
			<g id="Leaf1_00000028286431349550853140000005623959963861249709_">
				<path class="st1" d="M253.6,368.4c-3.2,4.4-6.4,8.8-9.7,13.2c-1.5-1.2-3.2-2.4-4.9-3.8c1.8-1.9,3.4-3.7,5.2-5.4
					c6.7-6.4,13.5-12.7,21.5-17.5c7.8-4.7,16-8.6,24.9-10.5c0.1,0,0.3-0.1,0.4-0.3c-1.4,0.1-2.9,0.2-4.3,0.4
					c-8.9,1.1-17.3,4.1-25.4,8.1c-3.7,1.8-7.3,4-10.9,6c-0.3,0.2-0.6,0.3-1.1,0.4c0.7-1.9,1.3-3.8,2.1-5.6
					c8.8-18.3,23.3-27.9,43.6-28.2c11.6-0.2,21.9,4,30.7,11.6c0.6,0.5,0.8,1,0.5,1.8c-0.9,2.8-1.6,5.8-2.7,8.6
					c-4.4,10.7-11.7,18.9-22.1,24c-16,7.9-31.7,6.9-46.9-2.3c-0.1-0.1-0.3-0.2-0.4-0.3c0,0-0.1,0-0.1,0
					C253.8,368.5,253.7,368.4,253.6,368.4z"/>
			</g>
			<g id="Leaf1_00000003793585402737715850000018333222628867119775_">
				<path class="st1" d="M227.9,376.9c3.8,5.3,7.7,10.5,11.6,15.9c1.8-1.4,3.8-2.9,5.9-4.5c-2.1-2.2-4.1-4.5-6.2-6.5
					c-8-7.7-16.2-15.2-25.7-21c-9.3-5.7-19.1-10.2-29.8-12.6c-0.2,0-0.3-0.1-0.4-0.4c1.7,0.1,3.4,0.2,5.2,0.5
					c10.7,1.4,20.7,5,30.4,9.7c4.5,2.2,8.7,4.8,13.1,7.2c0.4,0.2,0.7,0.4,1.4,0.5c-0.8-2.2-1.5-4.5-2.5-6.7
					c-10.5-21.9-27.9-33.4-52.2-33.8c-13.9-0.2-26.2,4.7-36.8,13.9c-0.7,0.6-0.9,1.2-0.6,2.1c1.1,3.4,1.9,7,3.2,10.3
					c5.2,12.9,14,22.6,26.4,28.7c19.1,9.4,37.9,8.3,56.1-2.7c0.2-0.1,0.4-0.2,0.5-0.3c0,0,0.1,0,0.1,0
					C227.6,377.1,227.8,377,227.9,376.9z"/>
			</g>
			<g id="Leaf3_00000067955323624869260420000001690089544887941036_">
				<path class="st1" d="M248.2,286.5c-2.5,2.4-5,4.8-7.5,7.2c-0.8-0.9-1.7-1.9-2.7-2.9c1.3-1,2.6-2,3.9-2.8
					c4.9-3.3,9.8-6.5,15.4-8.7c5.4-2.1,10.9-3.6,16.7-3.9c0.1,0,0.2,0,0.3-0.2c-0.9-0.1-1.8-0.2-2.7-0.2c-5.7-0.3-11.3,0.7-16.8,2.3
					c-2.5,0.7-5,1.7-7.5,2.6c-0.2,0.1-0.4,0.2-0.8,0.1c0.6-1.1,1.2-2.2,1.9-3.3c7.5-10.5,17.6-14.9,30.4-12.9
					c7.3,1.1,13.3,4.9,18,10.6c0.3,0.4,0.4,0.7,0.1,1.2c-0.9,1.7-1.6,3.5-2.6,5.1c-3.9,6.2-9.4,10.6-16.4,12.6
					c-10.9,3.2-20.6,0.9-29.1-6.5c-0.1-0.1-0.2-0.1-0.3-0.2c0,0,0,0-0.1,0C248.4,286.6,248.3,286.6,248.2,286.5z"/>
			</g>
			<g id="Leaf2_00000011716544332927252740000013887836095619913402_">
				<path class="st1" d="M228.8,292.8c2.5,2.4,5,4.8,7.5,7.2c0.8-0.9,1.7-1.9,2.7-2.9c-1.3-1-2.6-2-3.9-2.8
					c-4.9-3.3-9.8-6.5-15.4-8.7c-5.4-2.1-10.9-3.6-16.7-3.9c-0.1,0-0.2,0-0.3-0.2c0.9-0.1,1.8-0.2,2.7-0.2
					c5.7-0.3,11.3,0.7,16.8,2.3c2.5,0.7,5,1.7,7.5,2.6c0.2,0.1,0.4,0.2,0.8,0.1c-0.6-1.1-1.2-2.2-1.9-3.3
					c-7.5-10.5-17.6-14.9-30.4-12.9c-7.3,1.1-13.3,4.9-18,10.6c-0.3,0.4-0.4,0.7-0.1,1.2c0.9,1.7,1.6,3.5,2.6,5.1
					c3.9,6.2,9.4,10.6,16.4,12.6c10.9,3.2,20.6,0.9,29.1-6.5c0.1-0.1,0.2-0.1,0.3-0.2c0,0,0,0,0.1,0
					C228.7,292.9,228.8,292.8,228.8,292.8z"/>
			</g>
			<g id="Leaf2_00000002386101206308171060000009082807261702161051_">
				<path class="st1" d="M241.2,235c0.8,0.8,1.6,1.5,2.4,2.3c0.3-0.3,0.5-0.6,0.8-0.9c-0.4-0.3-0.8-0.6-1.2-0.9
					c-1.5-1-3.1-2-4.8-2.7c-1.7-0.7-3.4-1.1-5.3-1.2c0,0-0.1,0-0.1-0.1c0.3,0,0.6-0.1,0.9-0.1c1.8-0.1,3.6,0.2,5.3,0.7
					c0.8,0.2,1.6,0.5,2.4,0.8c0.1,0,0.1,0,0.2,0c-0.2-0.3-0.4-0.7-0.6-1c-2.4-3.3-5.6-4.7-9.6-4.1c-2.3,0.4-4.2,1.5-5.7,3.3
					c-0.1,0.1-0.1,0.2,0,0.4c0.3,0.5,0.5,1.1,0.8,1.6c1.2,2,3,3.3,5.2,4c3.4,1,6.5,0.3,9.2-2.1C241,235.1,241.1,235,241.2,235
					C241.1,235,241.1,235,241.2,235C241.1,235,241.2,235,241.2,235z"/>
			</g>
			<g id="Logo_00000177472400088549786140000016245462790438924977_">
				<g id="Head_00000112623733697027884010000009604147284418105510_">
					<path class="st2" d="M267.5,117.4c-28.9,0-52.3,23.4-52.3,52.3c0,28.9,23.4,52.3,52.3,52.3s52.3-23.4,52.3-52.3
						C319.8,140.8,296.4,117.4,267.5,117.4z M267.5,211.4c-22.8,0-41.5-18.3-41.7-41.1c0-0.2,0-0.4,0-0.6c0-0.2,0-0.4,0-0.6
						c0.2-11.3,9.4-20.4,20.6-20.6c11.5,0,20.9,9.4,20.9,20.9c0.1,0.1,0.1,0.2,0.2,0.3c0,0,0-0.1,0-0.1c0-11.5,9.4-20.9,20.9-20.9
						c11.5,0,20.9,9.4,20.9,20.9c0,1.3-0.1,2.6-0.4,3.9C307.1,194.8,289.1,211.4,267.5,211.4z"/>
				</g>
				<g id="Eye_00000025439646285806178600000005015061695234669228_">
					<path class="st2" d="M254.3,166.9c-2.1-3.2-5.5-5.5-9.4-5.5c-3-0.4-6.2,1.1-7.4,4.2c-1.1,3,0,6,1.9,8.3c2.5,2.3,6,4.2,9.8,4.2
						c1.5,0,3-0.4,4.3-0.9c2.3-1.5,3.4-4.2,2.5-6.8C255.6,169.1,255,168,254.3,166.9z"/>
				</g>
				<g id="Nose_00000003783495265599706930000005691620109018055602_">
					<path class="st2" d="M263.9,190.1c-0.6,0.6-0.9,1.5-0.6,2.5c0.9,1.9,3.6,7.2,3.6,7.2c0.2,0.4,0.4,0.6,0.4,0.4
						c0.2,0,0.4-0.2,0.6-0.4l3.6-7.2c0.4-0.9-0.2-2.1-0.6-2.5C267.5,186.7,267.5,186.7,263.9,190.1z"/>
				</g>
				<g id="Eye_00000003790411029260548180000012230502543084346813_">
					<path class="st2" d="M290.3,161.4c-4,0-7.4,2.3-9.4,5.5c-0.8,1.1-1.3,2.3-1.7,3.4c-1.1,2.6,0.2,5.3,2.5,6.8
						c1.3,0.8,2.8,0.9,4.5,1.1c3.6,0,7.2-1.9,9.6-4.3c1.9-2.3,3-5.3,1.9-8.3C296.5,162.5,293.3,161,290.3,161.4z"/>
				</g>
			</g>
		</g>
		<g>
			<path class="st1" d="M256,457c-110.8,0-201-90.2-201-201c0-110.8,90.2-201,201-201c110.8,0,201,90.2,201,201
				C457,366.8,366.8,457,256,457z M256,70.1C153.5,70.1,70.1,153.5,70.1,256S153.5,441.9,256,441.9S441.9,358.5,441.9,256
				S358.5,70.1,256,70.1z"/>
		</g>
	</g>
	<g id="Honeyswap_00000167382052566827577980000012559251085371254405_" class="st3">
		<path class="st4" d="M396,599.9c-6.4,0-12.7-1.7-18.2-5l-85.7-50.7c-5.5-3.3-10.1-8-13.3-13.6c-3.2-5.6-4.9-12-4.9-18.5V410.5
			c0-6.5,1.7-12.9,4.9-18.5c3.2-5.6,7.8-10.3,13.3-13.6l85.8-50.7c5.5-3.3,11.8-5,18.2-5c6.4,0,12.7,1.7,18.2,5l85.7,50.7
			c5.5,3.3,10.1,8,13.2,13.6c3.2,5.6,4.8,12,4.9,18.5V512c0,6.5-1.7,12.9-4.8,18.5c-3.2,5.6-7.7,10.4-13.2,13.6l-85.8,50.8
			C408.7,598.2,402.4,599.9,396,599.9z M461.4,539l26.7-15.8c1.9-1.1,3.5-2.8,4.6-4.8c1.1-2,1.7-4.3,1.7-6.5v-19H297.7v19
			c0,2.3,0.6,4.6,1.7,6.5c1.1,2,2.7,3.6,4.6,4.8l26.7,15.8H461.4z M494.3,429.4v-18.9c0-2.3-0.6-4.5-1.7-6.5c-1.1-2-2.7-3.6-4.6-4.8
			l-26.9-15.9H331l-27,15.9c-1.9,1.1-3.5,2.8-4.6,4.7c-1.1,2-1.7,4.2-1.7,6.5v18.9H494.3z"/>
		<path class="st4" d="M286.5,548.6c-5.8-3.4-10.7-8.4-14-14.4c-0.5-0.9-1-1.8-1.4-2.7c-12.8,3.7-25.6,5.5-38.2,5.5
			c-8.2,0-16.3-0.8-24-2.3c-21.7-4.3-34.6-13.4-37.5-17.7l96-57v-28l-109.2,64.8c-10.5,6.6-13.9,18.9-8.4,30.5
			c6.4,13.6,27.9,25.8,54.5,31.1c9.3,1.8,18.9,2.8,28.4,2.8h0.2c19,0,38.1-3.5,57.1-10.5L286.5,548.6z"/>
		<path class="st4" d="M633.5,496.7L524.7,432V460l96.2,56.9c-1.6,3.4-14.7,13.3-37.7,17.9c-7.7,1.5-15.8,2.3-24,2.3
			c-12.6,0-25.5-1.9-38.2-5.5c-0.4,0.9-0.9,1.8-1.4,2.7c-3.3,5.9-8.1,10.9-13.9,14.4l-3.6,2.1c18.9,7,38.1,10.5,57.1,10.5
			c0,0,0.2,0,0.2,0c9.5,0,19.1-0.9,28.4-2.8c26.7-5.3,48.1-17.5,54.5-31.1C647.7,515.7,644.3,503.5,633.5,496.7z"/>
		<path class="st4" d="M378.8,304.7c-3.1,0-6.2-1.3-8.4-3.6c-2.2-2.3-3.4-5.3-3.4-8.5c0-9.7-3.7-18.8-10.4-25.7
			c-6.7-6.8-15.5-10.6-24.9-10.6c-3.1,0-6.2-1.3-8.4-3.6c-2.2-2.3-3.4-5.3-3.4-8.5c0-3.2,1.2-6.2,3.4-8.5c2.2-2.3,5.3-3.6,8.4-3.6
			c15.8,0,30.6,6.3,41.8,17.7c11.1,11.4,17.3,26.6,17.3,42.7c0,3.2-1.3,6.3-3.4,8.5C385,303.4,382,304.7,378.8,304.7z"/>
		<path class="st4" d="M414.3,304.7c-3.1,0-6.2-1.3-8.4-3.6c-2.2-2.3-3.4-5.3-3.4-8.5c0-16.1,6.2-31.3,17.3-42.7
			c11-11.3,26.2-17.7,41.8-17.8c3.1,0,6.2,1.3,8.4,3.6c2.2,2.3,3.4,5.3,3.4,8.5c0,3.2-1.2,6.2-3.5,8.5c-2.2,2.3-5.3,3.6-8.4,3.6
			c-9.4,0-18.3,3.8-24.9,10.6c-6.6,6.8-10.4,16.1-10.4,25.7c0,3.2-1.2,6.2-3.4,8.5C420.4,303.4,417.5,304.7,414.3,304.7z"/>
	</g>
</g>
</svg>
