<?xml version="1.0" encoding="utf-8"?>
<!-- Generator: Adobe Illustrator 26.0.1, SVG Export Plug-In . SVG Version: 6.00 Build 0)  -->
<svg version="1.1" xmlns="http://www.w3.org/2000/svg" xmlns:xlink="http://www.w3.org/1999/xlink" x="0px" y="0px"
	 viewBox="0 0 512 512" style="enable-background:new 0 0 512 512;" xml:space="preserve">
<style type="text/css">
	.st0{fill:url(#bg_00000000222531364004917750000003317998295150010515_);}
	.st1{fill:#FFFFFF;}
	.st2{fill-rule:evenodd;clip-rule:evenodd;fill:#FFFFFF;}
	.st3{opacity:0.1;}
	.st4{fill:url(#bg_00000017516846193921766880000015365031722372603297_);}
	.st5{fill:url(#bg_00000162333408150820158470000002461986070127744683_);}
	.st6{fill:#FCFCFC;}
	.st7{fill:url(#bg_00000065042245117136867110000009976454022711344532_);}
	.st8{fill:url(#bg_00000069381224627535449150000008915290611593197443_);}
	.st9{fill-rule:evenodd;clip-rule:evenodd;fill:#FCCDD3;}
	.st10{filter:url(#Adobe_OpacityMaskFilter);}
	.st11{mask:url(#mask-2_00000079477019141398897970000007225647416667991979_);fill-rule:evenodd;clip-rule:evenodd;fill:#6534FF;}
	.st12{fill-rule:evenodd;clip-rule:evenodd;fill:#FEFEFE;}
	.st13{fill-rule:evenodd;clip-rule:evenodd;fill:#6534FF;}
	.st14{fill:#8526D1;}
	.st15{fill:#D89738;}
	.st16{fill:#5D1B8F;}
	.st17{fill:#F2A738;}
	.st18{fill-rule:evenodd;clip-rule:evenodd;fill:#F9F9F9;}
	.st19{fill-rule:evenodd;clip-rule:evenodd;fill:#040404;}
	.st20{fill:#FEFEFE;}
	.st21{fill:#F0E20A;}
	.st22{fill:#EFE20A;}
	.st23{fill:#A1DE44;}
	.st24{fill:#FCA433;}
	.st25{fill:#FCAC68;}
	.st26{fill:#F74D7B;}
	.st27{fill:#9FDD46;}
	.st28{fill:#67D1BB;}
	.st29{fill:#FAAC8C;}
	.st30{fill:#FDE723;}
	.st31{fill:#FBAB4C;}
	.st32{fill:#FEF532;}
	.st33{fill:#EDE622;}
	.st34{fill:#5BD0DD;}
	.st35{fill:#B96CAE;}
	.st36{fill:#FBB32B;}
	.st37{fill:#FA9262;}
	.st38{fill:#D5709D;}
	.st39{fill:#9763B8;}
	.st40{fill:#FBDD0F;}
	.st41{fill:#D0EC26;}
	.st42{fill:#FCA036;}
	.st43{fill:#FACF2B;}
	.st44{fill:#D4E52B;}
	.st45{fill:#FCD713;}
	.st46{fill:#FDB83D;}
	.st47{fill:#E9E227;}
	.st48{fill:#CB7896;}
	.st49{fill:#FCD415;}
	.st50{fill:#C1E72E;}
	.st51{fill:#B6DF3A;}
	.st52{fill:#C8DE37;}
	.st53{fill:#C277B4;}
	.st54{fill:#ACE339;}
	.st55{fill:#E79762;}
	.st56{fill:#E77982;}
	.st57{fill:#FCFA68;}
	.st58{fill:#F6C82A;}
	.st59{fill:#B46CB1;}
	.st60{fill:#E1CE32;}
	.st61{fill:#F2C02E;}
	.st62{fill:#F8DB26;}
	.st63{fill:#C97B9F;}
	.st64{fill:#E6F40D;}
	.st65{fill:#D8DC35;}
	.st66{fill:#FDB73F;}
	.st67{fill:#FB7759;}
	.st68{fill:#EDDA2D;}
	.st69{fill:#DA8878;}
	.st70{fill:#EABC6F;}
	.st71{fill:#FDFDC8;}
	.st72{fill:#E8B380;}
	.st73{fill:#D8DB09;}
	.st74{fill:#E4D52E;}
	.st75{fill:#FCC91B;}
	.st76{fill:#FEFB8B;}
	.st77{fill:#F9D515;}
	.st78{fill:#DEE528;}
	.st79{fill:#FBC82E;}
	.st80{fill:#C25CA6;}
	.st81{fill:#FBC331;}
	.st82{fill:#FBB53E;}
	.st83{fill:#FC8E47;}
	.st84{fill:#9D63B7;}
	.st85{fill:#86C591;}
	.st86{fill:#78DEA5;}
	.st87{fill:#FBFCA1;}
	.st88{fill:#D87F7F;}
	.st89{fill:#FDF747;}
	.st90{fill:#E2CD31;}
	.st91{fill:#91E38C;}
	.st92{fill:#C5DD36;}
	.st93{fill:#FBB342;}
	.st94{fill:#D2BC7F;}
	.st95{fill:#65D6CC;}
	.st96{fill:#D5D809;}
	.st97{fill:#AEC383;}
	.st98{fill:#FBBB23;}
	.st99{fill:#F9DA24;}
	.st100{fill:#F9AC4C;}
	.st101{fill:#FBBF59;}
	.st102{fill:#E68B69;}
	.st103{fill:#F3A451;}
	.st104{fill:#FBF00E;}
	.st105{fill:#C9F5A2;}
	.st106{fill:#F9B229;}
	.st107{fill:#E9C745;}
	.st108{fill:#A2A2A2;}
	.st109{fill:#FDF10E;}
	.st110{fill:#F0FC0D;}
	.st111{fill:#010100;}
	.st112{fill:#FC8355;}
	.st113{fill:#FC8D48;}
	.st114{fill:#FCBB23;}
	.st115{fill:#FB9854;}
	.st116{fill:#FA6886;}
	.st117{fill:#FB6D6E;}
	.st118{fill:#E95790;}
	.st119{fill:#FB5D67;}
	.st120{fill:#6FCDA1;}
	.st121{fill:#79D278;}
	.st122{fill:#020101;}
	.st123{fill:#FAFD23;}
	.st124{fill:#E2FE38;}
	.st125{fill:#141304;}
	.st126{fill:#CB5DA2;}
	.st127{fill:#B063B1;}
	.st128{fill:#FC8D76;}
	.st129{fill:#E96F92;}
	.st130{fill:#FC8353;}
	.st131{fill:#FC8B4B;}
	.st132{fill:#FB7A86;}
	.st133{fill:#E3FD7C;}
	.st134{fill:#D8BF73;}
	.st135{fill:#DECA58;}
	.st136{fill:#B6EB2D;}
	.st137{fill:#C0D847;}
	.st138{fill:#A2E749;}
	.st139{fill:#BAF35A;}
	.st140{fill:#B6F180;}
	.st141{fill:#D8FB1A;}
	.st142{fill:#D6FA18;}
	.st143{fill:#FB736E;}
	.st144{fill:#96DE4B;}
	.st145{fill:#75CF83;}
	.st146{fill:#A2C87B;}
	.st147{fill:#8EDD54;}
	.st148{fill:#BDEF28;}
	.st149{fill:#B8EE29;}
</style>
<g id="MIVA:SYMM">
</g>
<g id="MIVA-FRACTION">
</g>
<g id="FRACTION-MIVA">
</g>
<g id="MIVA-HNY">
</g>
<g id="MIVA-WXDAI">
	
		<linearGradient id="bg_00000077311001524742571350000004115715886053293744_" gradientUnits="userSpaceOnUse" x1="-36.05923" y1="307.49792" x2="548.0592" y2="204.50208">
		<stop  offset="0" style="stop-color:#8349D1"/>
		<stop  offset="0.99441" style="stop-color:#4DA4A1"/>
	</linearGradient>
	
		<rect id="bg_00000133487942470341921900000013762376409657356672_" style="fill:url(#bg_00000077311001524742571350000004115715886053293744_);" width="512" height="512"/>
	<g id="Flowr">
		<g id="Flower">
			<g id="Stiel">
				<path class="st1" d="M248.9704,448.81058l-0.87141-4.1586c-6.45998-30.77914-15.3062-72.93317-15.02434-117.33914
					c0.44272-69.6615,13.32283-108.56894,14.79044-112.77548l8.56067,2.98538
					c-5.13995,14.73805-13.93231,54.45935-14.28427,109.84912c-0.27596,43.43347,8.45515,85.03854,14.83102,115.41776
					l0.87216,4.16449L248.9704,448.81058z"/>
			</g>
			<g id="Leaf1">
				<path class="st1" d="M253.61179,368.38165c-3.19917,4.38611-6.39835,8.77222-9.65712,13.24005
					c-1.52864-1.16351-3.17822-2.41913-4.94051-3.7605c1.78603-1.87759,3.42448-3.73795,5.20645-5.44885
					c6.69189-6.42511,13.51633-12.68826,21.49969-17.54364c7.7894-4.73743,15.95428-8.5549,24.90805-10.522
					c0.13107-0.02878,0.25879-0.07288,0.36292-0.32568c-1.43506,0.12479-2.87634,0.20059-4.30414,0.38229
					c-8.94754,1.13882-17.31921,4.13535-25.3526,8.10043c-3.72742,1.83978-7.3007,3.99179-10.94278,6.00421
					c-0.30081,0.16623-0.59326,0.34756-1.13568,0.4021c0.69853-1.86121,1.26118-3.78748,2.11656-5.57358
					c8.76131-18.2941,23.33153-27.90268,43.59038-28.21646c11.60001-0.17966,21.89505,3.9577,30.72424,11.5788
					c0.62207,0.53696,0.75464,0.99448,0.49026,1.79199c-0.94449,2.84888-1.58881,5.81223-2.71225,8.58414
					c-4.35031,10.73352-11.71133,18.88876-22.07297,24.005c-15.96234,7.88168-31.6626,6.93716-46.87985-2.27356
					c-0.14951-0.09052-0.2973-0.18393-0.44905-0.27048c-0.02536-0.01447-0.06691-0.00055-0.10097,0.00024
					C253.84555,368.48468,253.72867,368.43317,253.61179,368.38165z"/>
			</g>
			<g id="Leaf1_5_">
				<path class="st1" d="M227.91682,376.92886c3.83113,5.25256,7.66228,10.50513,11.56483,15.85556
					c1.8306-1.39337,3.80605-2.897,5.91646-4.50336c-2.13884-2.2485-4.10098-4.47635-6.23495-6.52527
					c-8.01385-7.69437-16.18642-15.19476-25.74684-21.00928c-9.32817-5.67328-19.10596-10.24487-29.82851-12.60056
					c-0.15697-0.03448-0.30992-0.08728-0.4346-0.39005c1.71854,0.14944,3.44455,0.2402,5.1544,0.45782
					c10.71507,1.3638,20.74051,4.95224,30.36084,9.70062c4.46376,2.20322,8.74294,4.78036,13.10449,7.19034
					c0.36023,0.19904,0.71046,0.4162,1.36002,0.48151c-0.83652-2.22888-1.51031-4.53568-2.53467-6.67459
					c-10.49207-21.90802-27.94054-33.41473-52.20145-33.7905c-13.89151-0.21515-26.22026,4.73953-36.79362,13.86612
					c-0.74496,0.64304-0.90373,1.19095-0.58711,2.146c1.13106,3.41165,1.90265,6.96042,3.24803,10.27991
					c5.20967,12.85388,14.02486,22.62012,26.43335,28.74704c19.11562,9.43869,37.9174,8.30756,56.14073-2.72269
					c0.17903-0.10837,0.35603-0.22025,0.53775-0.32388c0.03036-0.01733,0.08012-0.00067,0.12093,0.00031
					C227.63687,377.05225,227.77684,376.99057,227.91682,376.92886z"/>
			</g>
			<g id="Leaf3">
				<path class="st1" d="M248.22937,286.52393c-2.47968,2.39917-4.95935,4.79837-7.48523,7.24228
					c-0.83089-0.89462-1.72751-1.86005-2.68539-2.89139c1.32233-0.98181,2.55037-1.96884,3.85207-2.84671
					c4.88828-3.29672,9.84196-6.47763,15.36852-8.65112c5.39227-2.1207,10.91974-3.62454,16.7403-3.88397
					c0.08521-0.00381,0.16998-0.01755,0.26263-0.16455c-0.9122-0.0777-1.82297-0.18677-2.73682-0.22803
					c-5.72668-0.25854-11.29449,0.70874-16.75569,2.31931c-2.53394,0.74728-5.00528,1.70682-7.50452,2.5715
					c-0.20642,0.07141-0.40926,0.1532-0.75484,0.12845c0.63954-1.08963,1.20107-2.23477,1.93069-3.26035
					c7.47313-10.50446,17.64059-14.93912,30.36093-12.93552c7.28354,1.14725,13.28107,4.85611,17.98233,10.58734
					c0.33124,0.40381,0.36456,0.70474,0.1124,1.17542c-0.90082,1.68143-1.6261,3.46713-2.63065,5.08093
					c-3.88986,6.24899-9.38504,10.55646-16.4292,12.63501c-10.85168,3.20209-20.58078,0.90558-29.10966-6.51483
					c-0.08379-0.07291-0.1662-0.14746-0.25182-0.21811c-0.01431-0.01184-0.04184-0.00763-0.06326-0.01083
					C248.36456,286.6138,248.29697,286.56888,248.22937,286.52393z"/>
			</g>
			<g id="Leaf2">
				<path class="st1" d="M228.84354,292.79724c2.47968,2.3992,4.95935,4.79837,7.48523,7.24228
					c0.83089-0.89462,1.72752-1.86002,2.68539-2.89139c-1.32233-0.98181-2.55037-1.96884-3.85205-2.84671
					c-4.88829-3.29672-9.84198-6.47763-15.36852-8.65112c-5.39227-2.1207-10.91975-3.62451-16.74031-3.88397
					c-0.08522-0.00378-0.16998-0.01752-0.26263-0.16452c0.9122-0.07773,1.82298-0.18677,2.73682-0.22803
					c5.72668-0.25858,11.29451,0.70871,16.75569,2.31927c2.53394,0.74728,5.00528,1.70685,7.50453,2.5715
					c0.20641,0.07144,0.40924,0.15323,0.75482,0.12848c-0.63954-1.08966-1.20107-2.2348-1.93069-3.26038
					c-7.47313-10.50446-17.64059-14.93912-30.36095-12.93552c-7.28352,1.14725-13.28105,4.85614-17.98232,10.58737
					c-0.33124,0.40381-0.36458,0.70471-0.11241,1.17538c0.90083,1.68143,1.62613,3.46713,2.63068,5.08093
					c3.88983,6.24899,9.38504,10.55646,16.42918,12.63501c10.8517,3.20209,20.58076,0.90558,29.10966-6.51483
					c0.08379-0.07291,0.1662-0.14743,0.25182-0.21811c0.01431-0.01181,0.04184-0.00763,0.06326-0.0108
					C228.70834,292.88715,228.77594,292.84219,228.84354,292.79724z"/>
			</g>
			<g id="Leaf2_5_">
				<path class="st1" d="M241.18422,234.9743c0.78239,0.757,1.56477,1.51399,2.36176,2.2851
					c0.26216-0.28227,0.54506-0.58687,0.84729-0.91229c-0.41722-0.30978-0.80469-0.6212-1.21541-0.89819
					c-1.54236-1.04019-3.10535-2.04384-4.84909-2.72961c-1.70139-0.66913-3.44542-1.14362-5.28194-1.22548
					c-0.02689-0.00121-0.05362-0.00554-0.08286-0.05191c0.28781-0.02452,0.57518-0.05893,0.86353-0.07195
					c1.80688-0.08159,3.56366,0.22362,5.28677,0.73178c0.79951,0.23578,1.57927,0.53854,2.36784,0.81137
					c0.06512,0.02252,0.12912,0.04834,0.23816,0.04053c-0.20178-0.34381-0.37895-0.70512-0.60918-1.02872
					c-2.35793-3.31438-5.56598-4.71361-9.57953-4.08144c-2.29811,0.36198-4.19046,1.53221-5.67381,3.34055
					c-0.10451,0.12741-0.11502,0.22235-0.03546,0.37086c0.28423,0.53052,0.51308,1.09395,0.83003,1.60313
					c1.22733,1.97169,2.96118,3.3308,5.18376,3.98663c3.42395,1.01031,6.49368,0.28572,9.18472-2.05557
					c0.02644-0.02301,0.05244-0.04652,0.07945-0.06883c0.00452-0.00372,0.01321-0.0024,0.01997-0.0034
					C241.14156,235.00267,241.16289,234.98849,241.18422,234.9743z"/>
			</g>
			<g id="Logo">
				<g id="Head">
					<path class="st2" d="M267.47638,117.42343c-28.87379,0-52.27463,23.40106-52.27463,52.27484
						c0,28.87357,23.40083,52.27463,52.27463,52.27463s52.27463-23.40106,52.27463-52.27463
						C319.75101,140.82449,296.35016,117.42343,267.47638,117.42343z M267.47638,211.40451
						c-22.83484,0-41.51772-18.30539-41.70645-41.14021c0-0.18875,0-0.3775,0-0.56602c0-0.18874,0-0.37749,0-0.56622
						c0.18874-11.32294,9.43591-20.38136,20.5701-20.57034c11.5119,0,20.9476,9.43593,20.9476,20.94783
						c0.0661,0.11079,0.12976,0.21198,0.19543,0.3212c-0.00021-0.04468-0.00668-0.08778-0.00668-0.13246
						c0-11.51189,9.43591-20.94759,20.9476-20.94759c11.51166,0,20.9476,9.4357,20.9476,20.94759
						c0,1.31787-0.13782,2.60402-0.37415,3.85666C307.05191,194.75829,289.13831,211.40451,267.47638,211.40451z"/>
				</g>
				<g id="Eye_1_">
					<path class="st2" d="M254.26622,166.86732c-2.07597-3.20822-5.47295-5.47272-9.43593-5.47272
						c-3.01949-0.37749-6.22771,1.13225-7.35995,4.15172c-1.13225,3.0197,0,6.03896,1.88724,8.30368
						c2.45323,2.26472,6.03896,4.15173,9.81319,4.15173c1.50974,0,3.01949-0.3775,4.34047-0.94351
						c2.26472-1.50996,3.39697-4.15195,2.45346-6.79393C255.5872,169.13205,255.02119,167.99957,254.26622,166.86732z"/>
				</g>
				<g id="Nose">
					<path class="st2" d="M263.89066,190.07964c-0.56601,0.56602-0.94351,1.50975-0.56601,2.45325
						c0.94351,1.88724,3.58548,7.17143,3.58548,7.17143c0.18875,0.37726,0.3775,0.56601,0.3775,0.37726
						c0.18875,0,0.3775-0.18874,0.56622-0.37726l3.58551-7.17143c0.37747-0.9435-0.18875-2.07574-0.56601-2.45325
						C267.47638,186.68268,267.47638,186.68268,263.89066,190.07964z"/>
				</g>
				<g id="Eye">
					<path class="st2" d="M290.31119,161.39461c-3.96298,0-7.35992,2.2645-9.43591,5.47272
						c-0.75476,1.13225-1.32098,2.26472-1.69849,3.39697c-1.13223,2.64198,0.18875,5.28397,2.45346,6.79393
						c1.32101,0.75476,2.83075,0.94351,4.52924,1.13225c3.58548,0,7.1712-1.88722,9.62445-4.34047
						c1.88721-2.26472,3.01947-5.28419,1.88721-8.30368C296.53891,162.52686,293.33069,161.01712,290.31119,161.39461z"/>
				</g>
			</g>
		</g>
		<g>
			<path class="st1" d="M256,456.98166c-110.82162,0-200.98166-90.1593-200.98166-200.98166
				c0-110.82162,90.16003-200.98166,200.98166-200.98166c110.82236,0,200.98166,90.16003,200.98166,200.98166
				C456.98166,366.82236,366.82236,456.98166,256,456.98166z M256,70.12975C153.51105,70.12975,70.12975,153.51105,70.12975,256
				S153.51105,441.87024,256,441.87024S441.87024,358.48895,441.87024,256S358.48895,70.12975,256,70.12975z"/>
		</g>
	</g>
	<g id="Honeyswap_00000072238991886697081750000011213556238768145813_" class="st3">
		<path class="st6" d="M396.00446,599.88257c-6.37659,0-12.67535-1.73669-18.20941-5.02869l-85.69437-50.70117
			c-5.50818-3.26599-10.10919-7.97076-13.29736-13.62146c-3.17532-5.62488-4.86014-12.04028-4.87314-18.54642V410.46585
			c0.01303-6.48669,1.69781-12.88913,4.88605-18.52701c3.16232-5.61832,7.75027-10.32294,13.25848-13.58905l85.77213-50.74008
			c5.50818-3.26596,11.79395-4.99615,18.15753-4.99615c6.42841,0,12.72705,1.73669,18.24826,5.01569l85.72025,50.70767
			c5.49518,3.29199,10.07028,7.99661,13.23257,13.62143c3.16235,5.60535,4.84717,12.00143,4.87317,18.49448v101.51901
			c-0.01294,6.48019-1.68475,12.88266-4.84711,18.50748c-3.16235,5.63776-7.72443,10.35535-13.20676,13.64734l-85.811,50.75311
			C408.69263,598.15881,402.39398,599.88257,396.00446,599.88257z M461.37683,539.04626l26.67264-15.77289
			c1.87927-1.14056,3.47342-2.7865,4.58798-4.76953c1.10165-1.99591,1.69778-4.26404,1.69778-6.5321v-19.03885H297.67365v19.03885
			c0.013,2.29401,0.60916,4.56207,1.72372,6.5321c1.11453,1.98285,2.70871,3.62891,4.6398,4.76953l26.65964,15.77289H461.37683z
			 M494.33524,429.40106v-18.93521c-0.013-2.2746-0.60913-4.52969-1.72369-6.50607c-1.11453-1.97-2.70871-3.61594-4.61395-4.75
			l-26.91882-15.92194H330.98199l-26.9577,15.94781c-1.91812,1.12756-3.5123,2.76059-4.62683,4.73059
			c-1.11456,1.97-1.71082,4.2251-1.72372,6.5191v18.91571H494.33524z"/>
		<path class="st6" d="M286.49689,548.62396c-5.80524-3.44214-10.65433-8.40057-14.0145-14.35614
			c-0.505-0.89453-0.96182-1.81348-1.39462-2.74341c-12.77267,3.65118-25.58484,5.50275-38.21625,5.51294
			c-8.19104,0-16.27832-0.79059-24.01567-2.31989c-21.72171-4.30273-34.6174-13.414-37.50751-17.7428l95.99809-56.99286v-27.97519
			l-109.15306,64.80167c-10.52388,6.64874-13.90649,18.92218-8.4113,30.53473c6.44139,13.59546,27.85204,25.80414,54.53754,31.09204
			c9.34445,1.82745,18.89636,2.76062,28.38338,2.76062h0.19453c18.98758,0,38.14569-3.54065,57.08441-10.50977L286.49689,548.62396z
			"/>
		<path class="st6" d="M633.54321,496.65265l-108.88086-64.63394v27.94632l96.19257,56.89288
			c-1.60706,3.38263-14.73602,13.32336-37.6889,17.87244c-7.73743,1.5293-15.82465,2.31989-24.01569,2.31989
			c-12.63965,0-25.46008-1.85968-38.23486-5.51868c-0.42297,0.90857-0.86963,1.80646-1.36169,2.68158
			c-3.33289,5.94183-8.14096,10.91376-13.91895,14.38336l-3.58658,2.12128c18.94119,6.97046,38.09225,10.50378,57.06326,10.50378
			c0,0,0.1944,0,0.2074-0.00006c9.5,0,19.05188-0.93317,28.3833-2.7735c26.67261-5.2879,48.08325-17.49664,54.52454-31.1051
			C647.72192,515.74341,644.33929,503.46979,633.54321,496.65265z"/>
		<path class="st6" d="M378.80591,304.65036c-3.13644,0-6.20798-1.30246-8.42432-3.56406
			c-2.22925-2.2746-3.44754-5.30078-3.44754-8.51498c-0.013-9.69443-3.70673-18.81207-10.38135-25.68112
			c-6.66147-6.83017-15.52643-10.59515-24.93567-10.60815c-3.13644,0-6.20798-1.30247-8.42435-3.56407
			c-2.22919-2.27461-3.44751-5.30077-3.44751-8.52148c0-3.21422,1.21832-6.24037,3.44751-8.51498
			c2.21622-2.2616,5.2879-3.56406,8.42435-3.56406c15.78574,0.01938,30.61255,6.32466,41.75848,17.74928
			c11.13303,11.41812,17.27628,26.58185,17.28912,42.69821c0,3.17532-1.2572,6.27924-3.44748,8.51498
			C384.97516,303.38025,381.98123,304.65036,378.80591,304.65036z"/>
		<path class="st6" d="M414.29163,304.65683c-3.13647,0-6.20801-1.29608-8.42435-3.56406
			c-2.2291-2.2746-3.44739-5.3009-3.44739-8.52145c0.013-16.11636,6.15619-31.27997,17.28912-42.69171
			c10.99042-11.26259,26.20602-17.7364,41.77145-17.75578c3.14938,0,6.22104,1.30246,8.42435,3.58356
			c2.21622,2.2616,3.44754,5.28789,3.44754,8.50198c0,3.21408-1.2312,6.24039-3.46039,8.51498
			c-2.19034,2.26158-5.26193,3.56404-8.41138,3.56404c-9.40921,0.01303-18.26132,3.78452-24.93594,10.62106
			c-6.59686,6.75238-10.38132,16.10983-10.3942,25.67459c0,3.2077-1.21835,6.23401-3.44754,8.50851
			C420.44788,303.39325,417.46695,304.65683,414.29163,304.65683z"/>
	</g>
</g>
<g id="zeroalpha">
</g>
<g id="POAP">
</g>
<g id="pixeth">
</g>
<g id="xDaiTigers">
</g>
<g id="Fraction_Early">
</g>
<g id="CryptoStamp">
</g>
</svg>
