<?xml version="1.0" encoding="utf-8"?>
<!-- Generator: Adobe Illustrator 26.0.3, SVG Export Plug-In . SVG Version: 6.00 Build 0)  -->
<svg version="1.1" id="Ebene_1" xmlns="http://www.w3.org/2000/svg" xmlns:xlink="http://www.w3.org/1999/xlink" x="0px" y="0px"
	 viewBox="0 0 512 512" style="enable-background:new 0 0 512 512;" xml:space="preserve">
<style type="text/css">
	.st0{fill:url(#bg_00000059278833659198860120000010930405770420423818_);}
	.st1{fill:#FFFFFF;}
	.st2{fill-rule:evenodd;clip-rule:evenodd;fill:#FFFFFF;}
	.st3{opacity:0.1;}
	.st4{fill:#FCFCFC;}
</style>
<g id="FRACTION-MIVA">
	
		<linearGradient id="bg_00000082352784174030486660000012798299917237605262_" gradientUnits="userSpaceOnUse" x1="-36.0592" y1="206.5021" x2="548.0593" y2="309.4979" gradientTransform="matrix(1 0 0 -1 0 514)">
		<stop  offset="0" style="stop-color:#111111"/>
		<stop  offset="1" style="stop-color:#8349D1"/>
	</linearGradient>
	
		<rect id="bg_00000060008883970302430380000005591745387671652791_" style="fill:url(#bg_00000082352784174030486660000012798299917237605262_);" width="512" height="512"/>
	<g id="Flowr_00000134942729765007907730000015736540739982591408_">
		<g id="Flower_00000027566486471065094170000016841923368487267001_">
			<g id="Stiel_00000070080341482225393990000010152789932718817450_">
				<path class="st1" d="M249,448.8l-0.9-4.2c-6.5-30.8-15.3-72.9-15-117.3c0.4-69.7,13.3-108.6,14.8-112.8l8.6,3
					c-5.1,14.7-13.9,54.5-14.3,109.8c-0.3,43.4,8.5,85,14.8,115.4l0.9,4.2L249,448.8z"/>
			</g>
			<g id="Leaf1_00000169522144456157518060000012460019582263014030_">
				<path class="st1" d="M253.6,368.4c-3.2,4.4-6.4,8.8-9.7,13.2c-1.5-1.2-3.2-2.4-4.9-3.8c1.8-1.9,3.4-3.7,5.2-5.4
					c6.7-6.4,13.5-12.7,21.5-17.5c7.8-4.7,16-8.6,24.9-10.5c0.1,0,0.3-0.1,0.4-0.3c-1.4,0.1-2.9,0.2-4.3,0.4
					c-8.9,1.1-17.3,4.1-25.4,8.1c-3.7,1.8-7.3,4-10.9,6c-0.3,0.2-0.6,0.3-1.1,0.4c0.7-1.9,1.3-3.8,2.1-5.6
					c8.8-18.3,23.3-27.9,43.6-28.2c11.6-0.2,21.9,4,30.7,11.6c0.6,0.5,0.8,1,0.5,1.8c-0.9,2.8-1.6,5.8-2.7,8.6
					c-4.4,10.7-11.7,18.9-22.1,24c-16,7.9-31.7,6.9-46.9-2.3c-0.1-0.1-0.3-0.2-0.4-0.3c0,0-0.1,0-0.1,0
					C253.8,368.5,253.7,368.4,253.6,368.4z"/>
			</g>
			<g id="Leaf1_00000175318969582314971560000004349161736019035834_">
				<path class="st1" d="M227.9,376.9c3.8,5.3,7.7,10.5,11.6,15.9c1.8-1.4,3.8-2.9,5.9-4.5c-2.1-2.2-4.1-4.5-6.2-6.5
					c-8-7.7-16.2-15.2-25.7-21c-9.3-5.7-19.1-10.2-29.8-12.6c-0.2,0-0.3-0.1-0.4-0.4c1.7,0.1,3.4,0.2,5.2,0.5
					c10.7,1.4,20.7,5,30.4,9.7c4.5,2.2,8.7,4.8,13.1,7.2c0.4,0.2,0.7,0.4,1.4,0.5c-0.8-2.2-1.5-4.5-2.5-6.7
					c-10.5-21.9-27.9-33.4-52.2-33.8c-13.9-0.2-26.2,4.7-36.8,13.9c-0.7,0.6-0.9,1.2-0.6,2.1c1.1,3.4,1.9,7,3.2,10.3
					c5.2,12.9,14,22.6,26.4,28.7c19.1,9.4,37.9,8.3,56.1-2.7c0.2-0.1,0.4-0.2,0.5-0.3c0,0,0.1,0,0.1,0
					C227.6,377.1,227.8,377,227.9,376.9z"/>
			</g>
			<g id="Leaf3_00000096057962020124962200000016834343755402626745_">
				<path class="st1" d="M248.2,286.5c-2.5,2.4-5,4.8-7.5,7.2c-0.8-0.9-1.7-1.9-2.7-2.9c1.3-1,2.6-2,3.9-2.8
					c4.9-3.3,9.8-6.5,15.4-8.7c5.4-2.1,10.9-3.6,16.7-3.9c0.1,0,0.2,0,0.3-0.2c-0.9-0.1-1.8-0.2-2.7-0.2c-5.7-0.3-11.3,0.7-16.8,2.3
					c-2.5,0.7-5,1.7-7.5,2.6c-0.2,0.1-0.4,0.2-0.8,0.1c0.6-1.1,1.2-2.2,1.9-3.3c7.5-10.5,17.6-14.9,30.4-12.9
					c7.3,1.1,13.3,4.9,18,10.6c0.3,0.4,0.4,0.7,0.1,1.2c-0.9,1.7-1.6,3.5-2.6,5.1c-3.9,6.2-9.4,10.6-16.4,12.6
					c-10.9,3.2-20.6,0.9-29.1-6.5c-0.1-0.1-0.2-0.1-0.3-0.2c0,0,0,0-0.1,0C248.4,286.6,248.3,286.6,248.2,286.5z"/>
			</g>
			<g id="Leaf2_00000090295432331054021020000006933138556791120272_">
				<path class="st1" d="M228.8,292.8c2.5,2.4,5,4.8,7.5,7.2c0.8-0.9,1.7-1.9,2.7-2.9c-1.3-1-2.6-2-3.9-2.8
					c-4.9-3.3-9.8-6.5-15.4-8.7c-5.4-2.1-10.9-3.6-16.7-3.9c-0.1,0-0.2,0-0.3-0.2c0.9-0.1,1.8-0.2,2.7-0.2
					c5.7-0.3,11.3,0.7,16.8,2.3c2.5,0.7,5,1.7,7.5,2.6c0.2,0.1,0.4,0.2,0.8,0.1c-0.6-1.1-1.2-2.2-1.9-3.3
					c-7.5-10.5-17.6-14.9-30.4-12.9c-7.3,1.1-13.3,4.9-18,10.6c-0.3,0.4-0.4,0.7-0.1,1.2c0.9,1.7,1.6,3.5,2.6,5.1
					c3.9,6.2,9.4,10.6,16.4,12.6c10.9,3.2,20.6,0.9,29.1-6.5c0.1-0.1,0.2-0.1,0.3-0.2c0,0,0,0,0.1,0
					C228.7,292.9,228.8,292.8,228.8,292.8z"/>
			</g>
			<g id="Leaf2_00000062166042195022672930000005515580781061429637_">
				<path class="st1" d="M241.2,235c0.8,0.8,1.6,1.5,2.4,2.3c0.3-0.3,0.5-0.6,0.8-0.9c-0.4-0.3-0.8-0.6-1.2-0.9
					c-1.5-1-3.1-2-4.8-2.7c-1.7-0.7-3.4-1.1-5.3-1.2c0,0-0.1,0-0.1-0.1c0.3,0,0.6-0.1,0.9-0.1c1.8-0.1,3.6,0.2,5.3,0.7
					c0.8,0.2,1.6,0.5,2.4,0.8c0.1,0,0.1,0,0.2,0c-0.2-0.3-0.4-0.7-0.6-1c-2.4-3.3-5.6-4.7-9.6-4.1c-2.3,0.4-4.2,1.5-5.7,3.3
					c-0.1,0.1-0.1,0.2,0,0.4c0.3,0.5,0.5,1.1,0.8,1.6c1.2,2,3,3.3,5.2,4c3.4,1,6.5,0.3,9.2-2.1C241,235.1,241.1,235,241.2,235
					C241.1,235,241.1,235,241.2,235C241.1,235,241.2,235,241.2,235z"/>
			</g>
			<g>
				<path class="st2" d="M267.1,210.9c-22.7-0.1-41.2-18.2-41.4-40.9c0-0.2,0-0.4,0-0.6c0-0.2,0-0.4,0-0.6
					c0.2-11.3,9.4-20.3,20.5-20.5c11.5,0,20.8,9.4,20.8,20.8c0,0,0.1,0.1,0.1,0.1v-52c-28.7,0.1-51.9,23.3-51.9,52
					c0,28.7,23.2,52,51.9,52V210.9z"/>
				<path class="st2" d="M267,199.7c0.2,0,0.4-0.2,0.6-0.4l3.6-7.1c0.4-0.9-0.2-2.1-0.6-2.4c-1.7-1.7-2.5-2.5-3.4-2.5
					c-0.9,0-1.8,0.8-3.5,2.5c-0.6,0.6-0.9,1.5-0.6,2.4c0.9,1.9,3.6,7.1,3.6,7.1C266.7,199.6,266.9,199.8,267,199.7
					C267,199.8,267,199.7,267,199.7z"/>
				<path class="st2" d="M290.8,161.1c-0.3,0-0.6,0-0.9,0.1c-3.9,0-7.3,2.3-9.4,5.4c-0.8,1.1-1.3,2.3-1.7,3.4
					c-1.1,2.6,0.2,5.3,2.4,6.8c1.3,0.8,2.8,0.9,4.5,1.1c3.6,0,7.1-1.9,9.6-4.3c1.9-2.3,3-5.3,1.9-8.3
					C296.2,162.6,293.5,161.1,290.8,161.1z"/>
				<path id="Eye_00000174567871488872841930000013688844038790485386_" class="st2" d="M254,166.6c-2.1-3.2-5.4-5.4-9.4-5.4
					c-3-0.4-6.2,1.1-7.3,4.1c-1.1,3,0,6,1.9,8.3c2.4,2.3,6,4.1,9.8,4.1c1.5,0,3-0.4,4.3-0.9c2.3-1.5,3.4-4.1,2.4-6.8
					C255.3,168.9,254.8,167.8,254,166.6z"/>
				<g>
					<path id="t5_00000056397744536530627050000015850057392713128834_" class="st1" d="M309.9,198.4c0.3,0.1,0.6,0.1,1,0.2
						c-0.1,0.2-0.2,0.3-0.3,0.5c-0.3-0.2-0.6-0.4-0.8-0.6C309.9,198.5,309.9,198.5,309.9,198.4z"/>
					<path id="t2_00000006709669447216516560000006704774889011242120_" class="st1" d="M285.4,155.4c0.1,0.6-0.6,1.3-1.4,1.4
						C284.5,156.3,285,155.9,285.4,155.4z"/>
					<path id="t1_00000116921183355800649390000013565715222833456531_" class="st1" d="M279.3,147.5c-0.2,0.3-0.3,0.6-0.4,0.8
						c0,0-0.1,0-0.1,0c0-0.2,0-0.5,0.1-0.7C278.8,147.5,279,147.5,279.3,147.5z"/>
					<path id="m5_00000111154811749619590990000017698127171119926151_" class="st1" d="M270.3,150.3c0-1,0-2,0-3c0.1,0,0.1,0,0.2,0
						c0,1,0,2,0,3C270.4,150.3,270.3,150.3,270.3,150.3z"/>
					<path id="m4_00000063621606069526966340000015504989610313800837_" class="st1" d="M281,194.8c-1-0.4-1-0.4-1.7-2.2
						C280,192.6,280.4,193,281,194.8z"/>
					<path id="m3_00000109729550387994311810000018027928854476643210_" class="st1" d="M307.6,178.2c-1.3,0.6-2.6,1.4-4.1,0.4
						C304.9,178.2,306.2,177.4,307.6,178.2z"/>
					<path id="m2_00000090998709564917159090000007281991332316072626_" class="st1" d="M300.9,147.4c0.3,0.5,0.5,0.9,0.8,1.4
						c-0.6,0.4-1.2,0.7-1.8,1.1c-0.3-0.4-0.5-0.8-0.8-1.2C299.5,148.3,300.2,147.9,300.9,147.4z"/>
					<path id="m1_00000130608425896410096050000007230723949156728466_" class="st1" d="M286.9,135.4c0.4,0.4,0.7,0.8,1.1,1.2
						c-0.6,0.1-1.2,0.3-1.9,0.4C286.4,136.4,286.6,136,286.9,135.4z"/>
					<path id="j7_00000119805879249937856800000009556781269061850757_" class="st1" d="M276.8,194.1c-0.1-0.4-0.2-0.8-0.3-1.2
						c0.3-0.1,0.6-0.2,0.9-0.3c0.5,1.1,0.9,2.1,1.4,3.2c0.6-0.3,0.8,0,1.1,0.5c0.2,0.5,0.5,1.1,0.8,1.6c-0.3,0.1-0.5,0.3-0.8,0.4
						c0.3,0.6,0.5,1.3,0.8,1.9c-0.9-0.2-1.6-0.6-1.7-1.6c-0.2,0.1-0.4,0.1-0.6,0.2c0.1,0.2,0.1,0.4,0.2,0.8
						c-0.5-0.2-0.9-0.4-1.4-0.7c0.4-0.2,0.6-0.3,0.8-0.5c-0.2-0.7-0.4-1.5-0.6-2.2c-0.2,0-0.4,0.1-0.7,0.1c-0.2-0.8-0.3-1.6-0.5-2.5
						C276.5,194,276.6,194,276.8,194.1z"/>
					<path id="j6_00000008836885776856523970000000033802700410036124_" class="st1" d="M286,200.4c-0.6-0.3-1.1-0.6-1.7-0.9
						c-0.1,0-0.1-0.1-0.2-0.1c-1.4-0.3-1.7-1.5-2.1-2.6c0.5-0.2,1.1-0.4,1.7-0.7c0.8,1.4,1.7,2.8,2.5,4.1
						C286.1,200.3,286.1,200.3,286,200.4z"/>
					<path id="j5_00000071526434426653103930000005163794991580742306_" class="st1" d="M310.1,200.3c-1.8-0.7-3.6-1.3-5.4-2.2
						c-0.9-0.5-1.7-1.3-2.5-1.9c-0.5-0.4-1.1-0.9-1.6-1.4c0.5-0.3,1-0.6,1.5-0.8c0.1-0.1,0.4,0,0.6,0.1c2.4,1.9,4.7,3.8,7.1,5.6
						C309.9,200,310,200.1,310.1,200.3C310.2,200.3,310.2,200.3,310.1,200.3z"/>
					<path id="j4_00000147191391889465193030000007831386630584209802_" class="st1" d="M289.1,154.3c-1,0.7-2,1.4-3,2.1
						c-0.1,0.1-0.2,0.1-0.4,0.1c0.1-0.1,0.1-0.3,0.2-0.3c0.8-0.7,1.6-1.3,2.4-1.9c0.2-0.1,0.4-0.1,0.7-0.1
						C289,154.2,289,154.2,289.1,154.3z"/>
					<path id="j3_00000070802916910938615650000002405837055835496853_" class="st1" d="M280.2,154.9c0.5-0.9,1-1.8,1.4-2.7
						c0.2-0.4,0.5-0.9,0.4-1.4c0-0.2,0.2-0.5,0.4-1c0.1,0.5,0.1,0.8,0.2,1.2c0.2-0.3,0.3-0.6,0.5-0.8c0.1-0.1,0.3-0.2,0.5-0.3
						c0,0.1,0.1,0.1,0.1,0.2c-0.2,0.3-0.4,0.5-0.5,0.8c0.6,0.2,0.6-1,1.4-0.5c-0.1,0.2-0.2,0.3-0.4,0.5c0.5-0.1,0.8-0.2,1.2-0.3
						c0,0.1,0.1,0.1,0.1,0.2C283.8,152.1,282,153.5,280.2,154.9C280.3,154.9,280.3,154.9,280.2,154.9z"/>
					<path id="j2_00000001645308499740517160000013512417579603672231_" class="st1" d="M285.7,143.4c-0.7,1-1.4,1.9-2.1,2.9
						c0.3,0,0.4,0,0.6,0.1c-0.3,0.8-2.8,3.6-3.2,3.6c0.2-0.3,0.4-0.6,0.5-0.9c-0.1,0-0.1-0.1-0.2-0.1c-0.3,0.4-0.7,0.8-1,1.3
						c-0.1,0-0.1-0.1-0.2-0.1c0.2-0.4,0.4-0.8,0.6-1.2c0,0-0.1,0-0.1,0c0-0.3,0-0.5,0.1-0.8c0.1-0.4,0.3-0.7,0.5-1.1
						c0.1-0.3,0.3-0.5,0.6-0.5c0.1,0,0.3-0.2,0.4-0.3c0.2-0.4,0.5-0.9,0.7-1.3c0.5-1.2,1.6-1.4,2.7-1.6
						C285.6,143.3,285.7,143.3,285.7,143.4z"/>
					<path id="j1_00000153689542569311041860000013443878646308964500_" class="st1" d="M274,142.6c-0.1,0.5-0.2,0.9-0.2,1.3
						c0.2,0,0.3,0.1,0.5,0.1c-0.1,0.4-0.2,0.7-0.3,1.1c0,0.2,0,0.4,0,0.6c0.1-0.1,0.3-0.2,0.4-0.4c0,0,0.1,0,0.1,0
						c-0.1,0.8-0.2,1.7-0.5,2.5c-0.3,0.9-0.8,1.7-1.3,2.6c-0.2-0.3-0.4-0.4-0.4-0.6c-0.1-1.9-0.1-3.7-0.2-5.6c0-0.7,0.2-1.1,0.9-1.2
						C273.3,142.8,273.6,142.7,274,142.6z"/>
					<path id="f9_00000138550911277018408860000012164775310601454220_" class="st1" d="M297.3,208.5c-1.1-1.4-2.2-2.7-3.3-4.1
						c-0.9-1.1-1.8-2.2-2.8-3.4c0.5,0.1,0.8,0.2,1.3,0.4c-0.9-1.1-1.6-2-2.4-3c0.6-0.1,1-0.1,1.6-0.2c-1.1-1.2-2.1-2.3-3.2-3.4
						c-0.2,0.2-0.3,0.4-0.5,0.5c-0.6-0.7-1.1-1.3-1.6-2c-0.2-0.3-0.4-0.5-0.8-0.3c-0.1,0-0.4,0-0.4-0.1c-0.2-0.3-0.4-0.6-0.7-0.9
						c0.4,0.1,0.6,0.1,1,0.2c-0.5-0.7-1-1.3-1.5-1.9c0.4-0.1,0.8-0.2,1.1-0.3c0-0.1,0.1-0.1,0.1-0.2c-0.3-0.2-0.5-0.3-0.8-0.5
						c0.2-0.2,0.3-0.3,0.4-0.4c-0.1-0.1-0.3-0.2-0.3-0.3c-0.5-0.6-1.4-0.8-1.7-1.7c-0.2-0.5-1-0.7-1.2-1.3c0,0-0.1,0-0.1-0.1
						c-0.7-0.4-1.4-0.7-2.3-1.2c0.1,0.2,0.1,0.3,0.2,0.4c0.8,1.5,1.6,3.1,2.4,4.6c0.1,0.2,0.1,0.3,0.1,0.5c0,0.6,0,1.3,0.8,1.4
						c0,0,0.1,0.1,0.1,0.1c0.3,0.6,0.6,1.2,1,1.9c-0.4-0.1-0.6-0.2-0.9-0.4c0.2,0.4,0.3,0.6,0.4,0.8c0.3-0.1,0.4-0.1,0.7-0.2
						c0.3,0.6,0.7,1.3,1,1.9c0.1,0.1,0.2,0.3,0.3,0.3c0.3,0.1,1.2,1.5,1.2,1.8c0,0.1-0.1,0.2-0.1,0.2c-0.6,0.5-0.4,1,0,1.6
						c0.2,0.4,0.4,0.9,1,0.9c0.9,0,1.4,0.4,1.7,1.2c0,0.1,0.2,0.2,0.2,0.3c0,0.3,0.1,0.5,0.1,0.8c-0.1,0.3-0.2,0.6-0.4,1
						c-0.4-0.6-0.8-1.1-1-1.7c-0.4-1-1.3-1.1-2.2-1.1c0.5,1,1,2,1.5,3c-0.8,0-1.4-0.2-1.8-1c-0.4-0.9-0.7-1.9-2.2-1.6
						c0.3-0.4,0.5-0.6,0.6-0.9c0.1-0.1,0-0.5-0.1-0.5c-0.4-0.3-0.9-0.4-1.5-0.7c0.7,1.7,1.4,3.2,2,4.8c0.3,0.9,0.8,1.4,1.8,1.5
						c0.7,0.1,0.9,0.5,0.6,1.2c-0.2,0.7-0.5,1.4-0.7,2.1c0.4,0.1,0.8,0.2,1.2,0.3c0.9,0.2,0.9,0.2,1,0.6c-0.6,0-1.2,0.1-1.9,0.1
						c0.2,0.5,0.3,0.9,0.5,1.3c0.5-0.3,0.9-0.6,1.3-0.8c0.2-0.1,0.5-0.1,0.7,0c0.7,0.3,1.4,0.7,2.1,1c0.7,0.3,1.2,1.3,1.2,2
						c0,0.8-0.1,1.6-0.1,2.4c1.2-0.3,0.3-1.2,0.7-1.7c0.1,0.1,0.2,0.2,0.3,0.4c0-0.7,0.1-1.3,0.1-2.1c0.8,0.5,1.5,0.9,2.1,1.3
						c0.4-0.3,0.7,0.4,1,0.3c0.5-1.3,1.5-1.8,2.8-1.9C298.5,210.5,298,209.4,297.3,208.5z M288.9,203.9c0.3-0.3,0.6-0.5,1-0.8
						c0.3,0.5,0.6,1,0.9,1.4C290.1,204.4,289.3,204.6,288.9,203.9z"/>
					<path id="f7_00000044863919140932268300000002152630017510770836_" class="st1" d="M306.5,200.8c0.6,0,1.2,0,1.7,0
						c-0.5-0.5-1.1-0.8-1.5-1.3c-1-0.9-1.9-1-2.9-0.1c-0.1,0.1-0.2,0.1-0.3,0.1c-0.1,0-0.3,0.1-0.3,0c-0.7-0.6-1.4-1.1-2.1-1.7
						c0,0,0-0.1,0.1-0.1c0.2,0.1,0.5,0.2,0.9,0.4c-2.5-2.3-5.3-4-7.4-6.4c-0.2-0.3-0.6-0.5-0.9-0.7c0.8,0.1,1.5,0.3,2.2,0.6
						c0.1,0,0.2,0,0.5,0c0.7,0.6,1.6,1.3,2.5,2c0.2,0.1,0.4,0.3,0.6,0.3c0.7,0,1.4-0.1,2.3-0.1c-0.3-0.2-0.5-0.4-0.6-0.5
						c-1.2-0.9-2.5-1.8-3.7-2.6c-0.5-0.3-0.9-0.7-1.6-0.8c-0.9-0.2-1.6-0.9-2.5-1.4c0.4-0.1,0.8-0.3,1.2-0.4
						c-1.7-0.9-3.2-1.7-4.8-2.5c0,0.1,0,0.2-0.1,0.3c-0.1,0.2-0.1,0.6-0.2,0.6c-0.3,0-0.6,0-0.8-0.1c-0.1,0-0.3-0.2-0.4-0.3
						c-0.7-0.5-0.7-0.5-1.6,0.1c0.2,0.2,0.4,0.4,0.6,0.7c-0.4,0.1-0.7,0.2-1.1,0.3c0.5,0.7,1,1.2,1.5,1.9c-0.4-0.1-0.6-0.1-0.8-0.2
						c0.5,0.5,0.5,1.6,1.5,1.2c0,0,0.1,0,0.1,0c0.5,0.6,0.9,1.1,1.4,1.7c0,0.1-0.1,0.1-0.1,0.2c-0.3,0-0.6-0.1-0.9-0.1
						c0.3,0.5,0.7,0.9,1.1,1.5c0.1-0.4,0.1-0.6,0.1-0.9c0.3,0.2,0.6,0.2,0.7,0.4c0.3,0.4,0.7,0.6,1.2,0.7c0.4,0.1,0.8,0.2,1.1,0.3
						c0.2,0.1,0.4,0.4,0.6,0.7c0.1,0.2,0.1,0.5,0.3,0.7c0.8,0.9,1.6,1.7,2.3,2.5c-0.3,0.3-0.5,0.2-0.7,0c-0.9-1-1.9-2-2.9-3
						c-0.1,0.6-0.4,0.9-1.2,0.8c0.8,0.5,0.6,1,0.3,1.5c0,0.1-0.1,0.2-0.1,0.3c-0.2,0.6-0.1,0.7,0.5,0.9c0.4,0.1,0.9,0.1,1.3,0.2
						c0.2,0.1,0.5,0.2,0.6,0.4c2.1,2.6,4.2,5.2,6.3,7.8c0.1,0.1,0.1,0.4,0,0.6c-0.3,0.5-0.6,1-0.8,1.6c-0.1,0.1-0.1,0.4,0,0.5
						c0.2,0.3,0.4,0.6,0.7,1c0.3-0.2,0.6-0.5,0.9-0.7c0.9-0.5,1.3-1.1,1-2.1c0-0.1-0.1-0.3,0-0.5c0-0.2,0.1-0.4,0.2-0.5
						c0.2,0,0.4,0,0.6,0.1c0.2,0.1,0.2,0.4,0.3,0.6c0.7-0.6,1.1-1.2,1.9-1.1c-0.1-0.3-0.1-0.5-0.2-0.8c0.6,0.3,1,0,1.3-0.4
						c0.3-0.4,0.6-0.7,0.9-1.1c0.2-0.2,0.2-0.4,0.1-0.7C307.3,202.3,306.9,201.6,306.5,200.8z M305.6,202.2
						c-0.3-0.4-0.6-0.8-0.9-1.3c0.4,0,0.6,0,0.9,0c0,0.4,0.1,0.8,0.1,1.3C305.7,202.1,305.6,202.1,305.6,202.2z"/>
					<path id="f3_00000047039690876512742890000009782527006768415667_" class="st1" d="M310.2,139.8c-0.9,0.3-1.9,0.6-2.8,1
						c0,0,0-0.1,0-0.1c0.5-0.4,1.1-0.8,1.6-1.1c0,0,0-0.1-0.1-0.1c-0.5,0.1-1,0.3-1.7,0.4c0.8-0.9,1.5-1.8,2.2-2.6
						c-0.1-0.2-0.2-0.4-0.4-0.5c-0.5-0.6-1-1.3-1.7-1.8c-0.9-0.6-1.9-1.1-2.6-1.9c-0.4-0.4-0.7-0.3-1.1,0c0.2,0.2,0.3,0.3,0.5,0.5
						c-1.3,0.2-2.7-0.3-3.3,1.4c1.1-0.1,2-1,3.3-0.6c-1.6,1.7-3.1,3.3-4.7,5.1c1-0.2,1.9-0.4,2.8-0.6c0.1,0.5,0.2,0.2-1,1.5
						c-0.8,0.9-1.8,0.5-2.6,0.6c0.1-0.4,0.2-0.8,0.2-1.2c0.1-0.5,0-1,0.1-1.5c0-0.2,0.1-0.5,0.2-0.6c0.9-0.6,1-1.3,0.8-2.3
						c-0.1-0.3-0.1-0.6-0.1-0.9c0-0.1,0-0.3,0.1-0.4c0.5-0.5,0.8-1,1.5-1.2c0.8-0.2,1.6-0.5,2.3-0.8c0-0.1,0-0.1-0.1-0.2
						c-0.8-0.1-1.5,0.6-2.2,0.7c0-0.1,0-0.1,0.1-0.2c-0.4-0.1-0.7-0.3-1.2-0.4c0.2-0.7,0.5-1.5,0.7-2.4c-0.1,0-0.3-0.1-0.5-0.1
						c-0.1,0-0.3,0-0.4-0.1c-0.4-0.5-0.8-0.9-1.3-1.5c0,0-0.2,0-0.3,0c-0.1,0.3-0.2,0.6-0.3,0.8c-1,1.5-2.1,3-3.1,4.6
						c-1,1.4-2,2.8-3,4.2c-0.9-0.7-1.7-1.3-2.5-2c-0.2,0.4-0.5,0.8-0.7,1.3c-0.2-0.3-0.4-0.5-0.6-0.8c-0.3,0.5-0.5,1-0.8,1.4
						c-0.2,0.3-1.2,0.3-1.5,0.1c-0.2,0.5-0.5,1.1-0.7,1.6c-0.4-0.2-0.7-0.4-1-0.6c0,0-0.1,0.1-0.1,0.1c0.1,0.1,0.2,0.2,0.3,0.3
						c0.4,0.2,0.8,0.5,1.2,0.7c0.4,0.2,0.6,0.4,0.4,0.8c0.4,0.1,0.7,0.1,1.1,0.2c-0.4,0.7,0.4,0.9,0.5,1.4c-0.5,0.8-1.1,1.6-1.6,2.3
						c0,0,0.1,0.1,0.1,0.1c0.4-0.1,1-0.1,1.2-0.3c0.6-0.9,1.6-0.9,2.4-1.3c0.6,0.7,0.2,1.2-0.2,1.7c0.6-0.2,1.3-0.5,2-0.7
						c-0.1-0.2-0.2-0.4-0.3-0.6c0.6-0.8,1.2-1.5,1.8-2.2c0.8-0.9,1.6-1.7,2.4-2.6c0.1-0.1,0.3-0.2,0.4-0.2c0.7,0,1.4,0,2.1,0
						c0,0.1,0,0.1,0,0.2c-1.5,1.7-3.1,3.3-4.7,5c0.4,0.1,0.6,0.1,0.9,0.2c0.6,0.2,1,0,1.4-0.5c0.7-0.9,1.8-0.8,2.8-1.1
						c-0.6,0.6-1.2,1.1-1.7,1.7c-0.2,0.2-0.3,0.5-0.4,0.7c-1.2,0.2-1.6,1.6-2.7,2.1c-0.3-0.7-0.6-1.5-0.9-2.3
						c-0.6,0.8-1.2,1.5-1.8,2.2c-0.2,0.3-0.5,0.4-0.8,0.2c-0.1-0.1-0.5-0.1-0.5,0c-0.8,1.1-1.6,2.2-2.4,3.4c0.3,0,0.5,0,0.8,0.1
						c-0.7,0.8-1.3,1.6-1.9,2.4c-0.1,0.1-0.1,0.4-0.2,0.6c0.1,0,0.1,0,0.2,0.1c-0.1,0.1-0.2,0.3-0.3,0.4c1.8,0,2.8-1.4,4-2.2
						c0.1,0.3,0.1,0.5,0.2,0.7c0.9-0.7,1.8-1.3,2.7-1.9c0.3-0.2,0.7-0.4,1-0.4c1.1,0.1,2.1-0.3,2.9-1c0.4-0.3,0.9-0.5,1.4-0.8
						c0.6-0.4,1.2-0.6,1.9-0.6c0.2,0,0.4-0.1,0.5-0.2c1.2-0.7,2.3-1.4,3.5-2.1c0.1-0.1,0.3-0.2,0.3-0.4c0.3-0.6,0.5-1.2,0.8-1.8
						c0.1-0.1,0.1-0.3,0.2-0.3c1-0.5,1.9-1.1,2.9-1.6c0.9-0.5,1.9-0.9,2.8-1.3C310.7,139.7,310.5,139.6,310.2,139.8z M297.6,146.9
						c0.7-0.3,1-1.1,1.9-0.9C298.6,146.9,298,147.2,297.6,146.9z"/>
					<path id="f2_00000125575238078340055190000010874751029360518272_" class="st1" d="M296.5,127.7c0-0.5-0.1-1-0.1-1.4
						c-0.1,0.1-0.2,0.1-0.3,0.1c0-0.1,0-0.3,0-0.4c-0.1,0-0.1-0.1-0.2-0.1c0,0.2-0.1,0.3-0.1,0.5c-0.1-0.2-0.1-0.2-0.1-0.3
						c0-0.2,0-0.4-0.1-0.6c-0.2,0.1-0.4,0.1-0.6,0.2c-0.5,0.4-1,0.7-1.6,1.2c-0.2-0.5-0.4-1-0.6-1.6c-0.3,0.5-0.5,0.9-0.7,1.4
						c-0.2-0.6-0.4-1.1-0.6-1.6c-0.4-0.8-0.4-1.5,0.1-2.2c0,0,0-0.1-0.1-0.2c-1.4-0.6-2.9-1.2-4.5-1.9c-0.1,0.6-0.1,1-0.1,1.5
						c-0.8,0.3-1.6,0.6-2.5,0.9c-0.3,0.1-0.5,0.3-0.6,0.7c-0.4,1.5-0.8,3-1.3,4.5c-0.3,1.1-0.6,2.1-0.9,3.2c-0.1,0-0.1,0-0.2,0
						c0-1.7,0-3.4,0-5.1c-0.1,0-0.1,0-0.2,0c-0.1,0.2-0.1,0.4-0.2,0.6c-0.6,2.1-1.2,4.3-1.8,6.4c-0.1,0.2-0.3,0.4-0.6,0.5
						c-0.1,0.1-0.3-0.1-0.5-0.2c-0.1-0.1-0.2-0.2-0.3-0.3c-0.5,1.6-0.5,1.6,0.7,2.5c0,0.2,0,0.4-0.1,0.6c0.4-0.1,0.8-0.1,1.3-0.2
						c-0.1,0.5-0.1,1-0.4,1.4c-0.1,0.2-0.7,0.1-1.1,0.1c-0.3,1.5-0.7,3.1-1,4.6c-0.1,0-0.1,0-0.2,0c0-1,0-2.1,0-3.1
						c-0.1,0-0.1,0-0.2,0c-0.2,1.8-0.5,3.5-0.7,5.3c0.2,0,0.4-0.1,0.6-0.1c-0.1,0.5-0.2,0.8-0.2,1.2c0.2,0,0.3,0.1,0.5,0.1
						c-0.1,0.5-0.3,1-0.4,1.6c0.3,0.1,0.5,0.2,0.8,0.3c0.2-0.6,0.5-1.1,0.7-1.6c0.1-0.1,0.2-0.4,0.3-0.4c0.6,0,0.7-0.4,0.9-0.8
						c0.3-0.5,0.5-1,0.8-1.5c0.1-0.2,0.3-0.4,0.4-0.4c0.6-0.2,1.2-0.4,1.9-0.6c0.1,0,0.3-0.1,0.4-0.2c0.5-0.7,1.1-1.5,1.6-2.3
						c-0.2-0.5-1-0.8-0.5-1.4c-0.2-0.1-0.4-0.2-0.6-0.3c-0.5-0.1-0.5-0.5-0.4-0.8c0-0.2,0.3-0.3,0.5-0.4c0.6-0.1,0.9-0.4,1.2-0.9
						c0.4-0.9,0.9-1.7,1.4-2.6c0.9,0.7,1.7,1.3,2.5,2c0.9-1.3,1.8-2.6,2.8-4c-1,0.3-1.8,0.6-2.8,0.9c0.8-1.4,1.6-2.6,2.3-3.7
						c1-0.1,1.8-0.3,2.8-0.4c-1.1,1.9-2.2,3.7-3.3,5.5c2.3-0.2,3.7-1.4,4.5-3.5c0.1,0,0.1,0,0.2,0c0,0.2,0.1,0.4,0.2,0.7
						c0.8-1.1,1.6-2.1,2.3-3.2c0.1-0.2,0.1-0.5,0.2-0.9C297.3,127.2,296.9,127.4,296.5,127.7z M282.7,133.3
						c-0.3,0.8-0.6,1.7-0.9,2.6c0.3,0,0.5,0.1,0.8,0.1c-0.2,0.4-0.3,0.7-0.5,1.1c-0.4-0.2-0.7-0.4-1-0.6c0.8-1.2,0.5-2.6,0.5-3.9
						c0-0.6,0.5-0.7,0.8-0.9C282.9,132.2,282.9,132.7,282.7,133.3z"/>
					<path id="f1_00000181058181477341827570000009685525775348722309_" class="st1" d="M282.6,120.7c0.2-0.3,0.2-0.4,0.3-0.5
						c-0.3-0.2-1.1,0.5-0.9-0.6c-0.8-0.2-1.6-0.4-2.4-0.6c-0.1,0.7-0.3,1.3-0.4,1.9c-0.1,0.5-0.4,0.7-1,0.9c0.1-0.9,0.1-1.7,0.3-2.4
						c0.1-0.6-0.6-0.6-0.5-1.1c0,0,0,0-0.1,0c0,0.1-0.1,0.3-0.2,0.4c-0.6-0.1-1.1-0.2-1.7-0.3c-0.2,1.4-0.4,2.7-0.5,4.1
						c-0.5-0.4-0.7-0.9-0.5-1.6c0.1-0.3,0.1-0.6,0.1-0.9c0.1-0.8,0.2-1.6,0.3-2.5c-0.9-0.1-1.6-0.2-2.5-0.2
						c-0.1,1.9-0.3,3.7-0.4,5.4c-0.7,0.1-1.2-0.4-1.1-1c0.1-1.2,0.2-2.4,0.3-3.6c0,0-0.1,0-0.1,0c-0.3,0.9-0.6,1.7-1,2.6
						c0,0-0.1,0-0.1,0c-0.1-1-0.1-2-0.2-3c-0.3,1.6-0.5,3.1-0.7,4.7c-0.1,0.6-0.2,1.1-0.3,1.7c-0.1,0.6,0,1.3-0.1,1.9
						c-0.3,1.3,0,2.4,0.9,3.3c0.2,0.2,0.3,0.5,0.3,0.7c0.1,3.8,0.1,7.7,0.2,11.5c0,0.6,0,1.2,0,1.8c0,0.2,0,0.4,0,0.6
						c1.2-0.2,1.2-0.3,1.3-1.3c0-0.3,0.1-0.5,0.1-0.8c0.3,0,0.5,0,0.7-0.1c0.4-1.7,0.7-3.4,1.1-5c1.1,0.1,1.1,0.1,1.3-0.9
						c0.1-0.2,0.1-0.5,0.2-0.7c-0.1-0.1-0.1-0.1-0.2-0.2c-0.3-0.2-0.5-0.4-0.8-0.6c0.3-0.2,0.6-0.4,1-0.5c0.4-0.1,0.6-0.4,0.8-0.8
						c0.5-1.9,1-3.7,1.6-5.6c0.2-0.7,0.4-1.4,0.6-2c0.7,0.1,1.3,0.3,1.9,0.4c0.1-0.4,0.2-0.7,0.3-0.9c0.1-1.6,1-2.4,2.5-2.7
						c0.5-0.1,0.9-0.3,0.9-0.9c0.4,0.2,0.7,0.3,1,0.5c0.1-0.3,0.2-0.6,0.3-0.9C284.5,120.7,283.7,120.1,282.6,120.7z M272.2,129.7
						c0,0-0.1,0-0.1,0c-0.3-0.7-1.2-1-1.1-2c0.5,0,0.9-0.1,1.3-0.1C272.3,128.3,272.2,129,272.2,129.7z M275.8,123
						c-0.1,0-0.2-0.2-0.2-0.4c0,0,0,0,0,0c0,0,0,0,0,0c0,0,0,0,0,0c0.5-0.2,0.9-0.4,1.4-0.6C277,122.6,276.3,123.2,275.8,123z"/>
					<path class="st1" d="M289.5,216c0.1-0.6-0.2-1.2-0.4-1.7c-0.3-0.5-0.5-1.1-0.9-1.6c-0.1-0.2-0.4-0.5-0.6-0.6
						c-0.7-0.4-1.4-0.7-2.3-1.1c0.3,0,0.5,0,0.8-0.1c-0.5-1.3-1.1-2.5-1.7-3.8c-0.2,0.7-0.4,1.2-0.7,1.9c-0.4-0.9-0.8-1.7-1.1-2.5
						c-0.2-0.8-0.7-1.2-1.6-1.3c-0.2,0-0.6-0.1-0.6-0.3c-0.3-0.7-0.5-1.5-0.8-2.2c0.3,0,0.5,0.1,0.8,0.1c-0.3-0.6-0.6-1.1-0.9-1.7
						c-0.3,0.4-0.5,0.7-0.9,1.1c-0.2-1.7-1.3-2.5-2.7-3c-0.4-0.1-0.6-0.4-0.7-0.8c-0.1-0.5-0.3-1.1-0.5-1.6c0,0-0.1,0-0.1,0
						c0,0.3,0,0.5,0,0.9c-0.1-0.3-0.2-0.5-0.3-0.7c-0.2,0-0.4,0.1-0.6,0.1c-0.2-0.8-0.3-1.5-0.5-2.3c0.2,0,0.4,0.1,0.6,0.1
						c-0.1-0.4-0.2-0.8-0.3-1.1c0,0,0,0-0.1,0l-1.8,3.5c0,1.4,0,2.9,0,4.3c0,2.2-0.1,4.3,0,6.5c0.1,1.1-0.5,1.9-1.1,2.7
						c-0.1,0.2-0.3,0.5-0.3,0.7c0,1.7,0,3.4,0,5.1c0,0.9,0,1.7,0,2.6c-0.5,0.1-0.9,0.2-1.4,0.3c0,0.4,0,0.8,0,1.2c0.8,0,1.6,0,2.5,0
						c0-0.3,0-0.6,0-0.9c0.4-0.1,0.8-0.1,1.2-0.2c0,0.5,0.1,1,0.1,1.5c0.8-0.1,1.6-0.2,2.5-0.3c-0.1-0.6-0.1-1.1-0.2-1.6
						c0.5-0.1,1.1-0.2,1.6-0.3c0,0.4-0.1,0.7-0.1,1c0,0,0.1,0,0.1,0c0.3-0.7,0.6-1.5,0.9-2.2c0.1,0,0.1,0,0.2-0.1
						c0.2,0.7,0.5,1.4,0.7,2.2c3.9-0.6,7.6-1.7,11.1-3.5C289.6,216.4,289.4,216.2,289.5,216z M274.9,201.5c0,0-0.1,0-0.1,0
						c-0.1-0.4-0.2-0.8-0.3-1.3c0.1,0,0.2,0,0.3-0.1c0,0.2,0.1,0.4,0.1,0.6c0,0.2,0.1,0.4,0.1,0.6
						C275,201.5,274.9,201.5,274.9,201.5z M277.3,216.3C277.2,216.3,277.2,216.4,277.3,216.3c-0.1,0-0.1,0-0.2,0
						c-0.2-0.5-0.3-0.9-0.5-1.5c0.1,0,0.2,0,0.2,0.1c0.2,0,0.4,0.1,0.5,0.1c0,0,0.1,0,0.1,0C277.4,215.5,277.3,215.9,277.3,216.3z
						 M280.4,213.5c0-0.2-0.1-0.3-0.1-0.5c0,0-0.1,0-0.1,0c-0.2,0.6-0.3,1.2-0.6,1.7c-0.6,1.2-0.6,2.2,0.5,3.1c0,0,0.1,0.1,0.1,0.2
						c-0.5,0.1-1,0.2-1.5,0.2c-0.3,0-0.8-0.6-0.8-0.9c0-0.7,0.1-1.4,0.1-2.1c0.2,0.1,0.5,0.1,1,0.2c-0.2-0.6-0.3-1.2-0.5-1.7
						c-0.1-0.2-0.1-0.5-0.2-0.7c-0.1-0.5-0.2-1.1-0.5-1.3c-0.3-0.2-0.9-0.1-1.3,0c-0.4,0-0.6-0.1-0.6-0.5c0-0.3-0.1-0.6-0.2-1
						c0.4,0,0.7,0,1.1,0c0-0.5-0.1-0.9-0.6-1.1c-1.1-0.5-1.2-1.2-0.6-2.2c0.4-0.6,1-0.8,1.6-1.2c0,0,0,0,0,0l0,0c0,0,0,0,0,0
						c0,0,0,0,0,0c-0.2-0.6,0-1.1,0.3-1.6c0,0,0,0,0,0c0,0,0.1-0.1,0.1-0.1c0,0,0,0,0,0c0,0,0-0.1,0.1-0.1c0,0,0,0,0-0.1
						c0,0,0,0,0-0.1c0,0,0.1-0.1,0.1-0.1c0,0,0,0,0,0c0,0,0.1,0.1,0.1,0.1c0,0,0,0,0,0.1c0,0,0,0,0,0.1c0,0,0,0,0,0.1c0,0,0,0,0,0.1
						c0,0,0,0.1,0,0.1c0,0,0,0,0,0c0,0,0,0.1,0,0.1c0,0,0,0,0,0c0,0,0,0.1,0,0.1c0,0,0,0,0,0c0,0,0,0.1,0,0.1c0,0,0,0,0,0
						c0,0,0,0.1,0,0.1c0,0,0,0,0,0c0,0,0,0.1,0,0.1c0,0,0,0,0,0c0,0,0,0.1-0.1,0.1c0,0,0,0,0,0c0,0,0,0.1-0.1,0.1c0,0,0,0,0,0
						c0,0,0,0.1-0.1,0.1c0,0,0,0,0,0c0,0-0.1,0.1-0.1,0.1c0,0,0,0,0,0c0,0-0.1,0-0.1,0.1c0,0,0,0-0.1,0c0,0-0.1,0-0.1,0.1
						c0,0,0,0-0.1,0.1c0,0,0,0-0.1,0.1c0,0-0.1,0-0.1,0.1c0,0,0,0,0,0c0,0,0,0,0,0c-0.2,0.3-0.4,0.7-0.6,1c-0.4,0.6-0.3,0.9,0.3,1.2
						c0.3,0.1,0.6,0.2,0.8,0.4c0.2,0.2,0.4,0.4,0.6,0.7c0.3,0.5,0.4,1.1,0.7,1.6c0,0.1,0.3,0.2,0.4,0.2c0.5,0,0.9,0,1.4-0.1
						C281.5,212.6,281.6,213.1,280.4,213.5z M283.3,211.8c0-0.1-0.1-0.2-0.1-0.3c-0.1-0.2-0.1-0.4-0.2-0.6c0-0.1-0.1-0.2-0.1-0.3
						c0.3,0.1,0.6,0.2,0.9,0.2c0.1,0,0.3,0.1,0.4,0.1c0.1,0,0.3,0.1,0.4,0.1C284.1,211.3,283.8,211.5,283.3,211.8z"/>
					<path class="st1" d="M273.9,193.3l0,0.1l-0.1,0.1l-0.2,0.3c0.2,0,0.5,0.1,0.7,0.1c0.1,0,0.4-0.1,0.4-0.2c0-0.3,0-0.6-0.1-0.8
						c-0.1-0.3-0.3-0.6-0.4-0.8C274.1,192.5,274.1,192.9,273.9,193.3z"/>
					<path class="st1" d="M316,148.3c-1.7,0.4-3.4,0.8-5,1.2c0.4-1,0.7-1.9,1.7-2.2c0.8-0.3,1.5-0.8,2.3-1.2
						c-0.7-1.2-1.4-2.3-2.1-3.4c-0.1-0.1-0.3-0.3-0.4-0.2c-0.6,0.2-1.2,0.4-1.8,0.7c-0.6,0.4-1.2,0.8-1.8,1.3
						c-1.2,0.9-2.5,1.7-3.7,2.6c0.2,0.3,0.3,0.6,0.6,1c-0.4,0-0.7,0-0.9,0.1c-0.9,0.5-1.8,1.1-2.6,1.6c-0.1,0.1-0.1,0.2-0.1,0.4
						c-0.5,0.3-1,0.6-1.5,0.9c-0.3-0.3-0.6-0.7-0.9-1c-0.2,0.1-0.4,0.3-0.6,0.4c0.6,0.5,1.5,0.6,1.9,1.4c-1.1,0.7-2.1,1.3-3.2,1.9
						c-0.2-0.3-0.5-0.5-0.7-0.8c-1.5,1.1-3,2.1-4.5,3.2c-0.1-0.3-0.1-0.5-0.2-0.7c-0.9,0.8-1.8,1.5-2.7,2.2c0.1,0.1,0.3,0.2,0.4,0.3
						c-0.2,0.1-0.4,0.3-0.6,0.4c0,0,0,0,0.1,0c0.3,0,0.7,0,1-0.1c0.3-0.2,0.6-0.3,0.8-0.5c0.3-0.2,0.6-0.2,0.9-0.3
						c0,0.1,0.1,0.1,0.1,0.2c-0.3,0.2-0.6,0.4-1,0.6c1.2,0.1,2.3,0.3,3.3,0.8c1.4-0.4,2.7-0.8,4.1-1.1c0.1,0.3,0.3,0.6,0.4,0.9
						c0.6-0.1,1.2-0.2,1.7-0.3c0.1,0,0.2,0,0.3,0c-0.2-0.4-0.4-0.7-0.7-1.1c0.3-0.1,0.5-0.2,0.8-0.2c0.6-0.1,0.9-0.4,0.8-1
						c-0.1-0.5,0.2-0.7,0.6-0.8c0.5-0.2,0.5,0.2,0.7,0.4c0.2,0.2,0.5,0.5,0.6,0.5c0.6-0.1,1.2-0.4,1.8-0.6c-0.4-0.2-0.6-0.4-0.9-0.6
						c0.1-0.3,0.1-0.6,0.2-0.9c-0.4,0.2-0.8,0.3-1.2,0.5c-0.1-0.2-0.3-0.3-0.5-0.6c0.7,0,1.3-0.1,1.9-0.1c0.1,0.2,0.1,0.4,0.1,0.6
						c0.7-0.2,1.3-0.5,2-0.7c1.2-0.4,1.2-0.4,1.9,0.6c0.5,0.7,0.4,0.6,1.1,0.1c1.1-0.9,2.1-2.1,3.7-2.2c0.9,0,1.9-0.3,2.9-0.5
						C316.9,150.6,316.5,149.4,316,148.3z M303.6,153.6c-0.2-0.2-0.3-0.3-0.6-0.6c0.5-0.2,1-0.5,1.6-0.7
						C304.5,152.9,304.4,153.5,303.6,153.6z M305,151.3c0.2-0.5,0.3-0.9,0.5-1.2c0.1,0,0.1,0,0.2,0c0.1,0.2,0.2,0.4,0.2,0.6
						C305.6,150.9,305.3,151,305,151.3z"/>
					<path class="st1" d="M318.4,175c0.2-0.4,0.4-0.7,0.6-1c-1.4-0.1-2.8-0.2-4.1-0.3c0.4-0.2,0.8-0.4,1.2-0.5
						c1.2-0.3,2.3-0.8,3.5-0.7c0.3,0,0.7-0.4,1.1-0.6c0,0,0,0,0-0.1c-0.2,0-0.4-0.1-0.6-0.1c0.1-0.9,0.1-1.7,0.2-2.7
						c-0.1-0.1-0.3-0.2-0.6-0.4c0.2,0,0.3,0,0.4,0c-0.1-0.7-0.1-1.3-0.2-2c0.2,0,0.3,0,0.5-0.1c-1.1-0.6-2.2-1.2-3.4-1.8
						c1.3-0.1,2.3-0.2,3.5-0.3c-0.1-0.9-0.2-1.7-0.3-2.5c-0.3,0-0.5,0-0.7,0.1c-0.1-0.8-0.3-1.5-0.4-2.3c-0.2,0-0.4,0-0.5,0
						c-1.2,0.3-2.4,0.5-3.6,0.8c-0.6,0.2-1,0-1.4-0.5c1.9-0.7,3.8-0.9,5.7-1.1c0-0.1,0-0.1,0-0.2c-0.9,0.1-1.8,0.2-2.7,0.2
						c0-0.1,0-0.1,0-0.2c0.8-0.4,1.6-0.7,2.6-1.2c-2.1,0.2-3.9,1.4-6.1,0.8c0.3-0.1,0.5-0.2,0.7-0.3c1.5-0.6,2.9-1.3,4.4-1.9
						c0.2-0.1,0.3-0.2,0.4-0.3c-0.2-0.1-0.3-0.2-0.5-0.3c0-0.1,0.1-0.1,0.1-0.3c-1.9,0.2-3.8,0.4-5.7,0.6c-0.5,0.1-1.1,0.1-1.6,0.2
						c-0.5,0.1-1,0.2-1.4,0.4c0,0.1,0,0.1,0,0.2c1-0.2,1.3,0.6,2,1c-1.5,0.4-2.8,0.8-4.2,1.2c-0.1-0.5-0.1-1-0.2-1.6
						c-0.6,0.4-1.2,0.5-1.7,0c-0.1-0.1-0.3,0-0.4,0.1c-1.2,0.4-2.4,0.9-3.6,1.3c-0.1,0-0.2,0-0.3,0c-0.5,0.2-1.1,0.4-1.6,0.7
						c0.7,0,1.3,0,2-0.1c1.2-0.1,2.4-0.1,3.5-0.4c0.6-0.1,1,0.1,1.5,0.4c-0.4,0.2-0.7,0.3-1,0.4c0.1,0.1,0.2,0.3,0.3,0.4
						c-0.3,0.1-0.6,0.2-0.9,0.3c0.4,0.1,0.8,0,1.1,0c0.3,0,0.7,0.2,1.1,0.3c-0.9,0.4-1.7,0.8-2.5,1.1c-0.6,0.2-0.9,0.4-0.8,1.1
						c0.1,0.4-0.1,0.7-0.6,0.7c-0.3,0.1-0.7,0.2-1,0.3c0.2,0.4,0.3,0.7,0.5,1c-0.6,0.1-1.2,0.3-1.8,0.4c-0.1-0.3-0.3-0.6-0.4-1
						c-0.2,0.1-0.4,0.1-0.5,0.2c0,0,0,0,0,0c0.8,2.2,0.8,4.6,0.1,6.9c0.6,0.1,1.2,0.3,1.8,0.4c-0.2,0.1-0.3,0.1-0.5,0.2
						c0.5,0.2,0.9,0.4,1.3,0.5c-0.3,1-1,1.9-0.3,2.9c-0.3,0-0.4,0-0.5,0c0.3,0.7,0.6,1.3,0.9,2.1c-0.9-0.1-1.9-0.8-2.3,0.7
						c0.9,0.2,1.8,0.5,2.7,0.8c-0.1-0.3-0.1-0.5-0.1-0.6c0.4,0,0.8,0,1.1-0.1c1.1-0.5,2.2-0.5,3.3,0c0.1,0,0.2,0.1,0.3,0.1
						c1.4,0.4,1.4,0.4,1.6,1.9c0,0.2,0.2,0.4,0.3,0.5c1.2,0.4,2.4,0.7,3.6,1.1c0.2,0.1,0.4,0.1,0.4,0.3c0.2,0.3,0.3,0.7,0.4,1.1
						c-1,0.2-2,0.4-3,0.6c0,0,0,0.1,0,0.1c1.2,0.4,2.5,0.8,3.8,1.3c0-0.3,0-0.5,0-0.8c1,0.1,2,0.3,3,0.4c0.4-0.9,0.4-0.9-0.3-1.6
						c-0.3-0.2-0.6-0.5-0.8-0.8c0-0.1,0.1-0.1,0.1-0.2c0.7,0.1,1.4,0.2,2.2,0.3c0,0,0-0.1,0-0.1c-0.4-0.2-0.8-0.3-1.3-0.5
						c0.3-0.2,0.5-0.3,0.8-0.5c-2-0.5-4-0.7-5.8-1.6c0.8,0.2,1.5,0.4,2.4,0.7c-0.2-0.7-0.4-1.2-0.6-1.8c0.4,0.1,0.6,0.2,0.9,0.3
						c0.5,0.3,1,0.6,1.5,0.8c0.5,0.2,1.1,0.3,1.7,0.5c0.2,0,0.3,0,0.5,0c0,0,0-0.1,0-0.1c-0.2-0.1-0.4-0.2-0.6-0.3
						c0.2-0.2,0.4-0.4,0.7-0.7c-0.6-0.2-1.1-0.3-1.7-0.5c0,0,0-0.1,0-0.1c0.8,0,1.5,0,2.1,0c0-0.4,0-0.7,0.1-1.1
						c0.1-0.4,0-0.7-0.3-1C319.2,175.7,318.8,175.3,318.4,175z M316.6,165.7c0.2,0,0.3,0,0.4,0.1c0.5,0.1,1,0.3,1.5,0.4
						c-0.2,0.3-1.3,0.5-2.1,0.3C316.4,166.2,316.5,166,316.6,165.7z M309.8,161.6c-1.1,0.6-1.4-0.7-2.1-0.9
						C308.7,159.9,309.5,160.3,309.8,161.6z M305.2,175.5c0.4-0.1,0.7-0.1,1.1-0.2c0,0,0-0.1,0-0.1c-0.6-0.1-1.1-0.2-1.8-0.3
						c1.7-0.5,2.7-0.6,3.2,0.6C306.9,176,306.1,175.7,305.2,175.5z M310.6,175.3c1.1-0.2,2.3,0.2,2.4,0.7
						C312.2,175.8,311.5,175.6,310.6,175.3z M313.6,171.6c-1.7-0.1-3.3,0-5,0c-0.1-0.5-0.1-1-0.2-1.6c-1,0.1-1.9,0.1-2.8,0.2
						c-0.2,0-0.5,0.1-0.7,0.1c-0.9,0-1.7,0.1-1.8,1.2c0,0.1-0.1,0.1-0.4,0.3c0.3-0.9,0.6-1.6,0.8-2.3c0.2-0.5,0.5-1,0.6-1.6
						c0.1-0.6,0.6-1.2,1.1-1.7c0.5-0.5,1.2-0.8,1.9-0.7c0.3,0,0.5,0,0.9-0.1c0,0.2,0.1,0.4,0.1,0.5c0.1,1,0.1,1,1.2,1
						c2.1,0,4.2,0,6.2,0c0.6,0,0.9,0.2,1.1,0.6c0.1,0.3,0.3,0.5,0.5,1c-1.3-0.3-2.5-0.5-3.7-0.7c0,0,0,0.1-0.1,0.1
						c0.4,0.3,0.8,0.5,1.2,0.8c1.1,0.9,2.3,1.3,3.7,1.1c0.4-0.1,0.9,0,1.3,0c0,0,0,0.1,0,0.1c-0.2,0-0.4,0.1-0.6,0.1
						c-1,0-2.1,0-3.2,0c0.2,0.3,0.3,0.6,0.5,0.9C315.5,171.3,314.6,171.7,313.6,171.6z"/>
					<path class="st1" d="M313.4,195.6c1.2-2.1,2.3-4.2,3-6.4c0.1-0.2-0.1-0.4-0.2-0.6c-1-1-2-1.9-2.9-2.9c-0.1-0.1-0.2-0.2-0.4-0.3
						c0.4,1.2,0.8,2.3,1.3,3.5c-0.5-0.3-0.9-0.5-1.3-0.7c-0.1-0.1-0.2-0.2-0.2-0.3c0.1-0.4-0.3-0.5-0.5-0.6
						c-2.2-0.8-4.3-1.5-6.5-2.3c-1.1-0.4-2.3-0.8-3.4-1.2c0-0.1,0-0.2,0.1-0.2c0.4,0.1,0.9,0.3,1.5,0.4c-0.4-0.8-0.3-1.9-1.6-2
						c0.5-0.2,0.9-0.3,1.4-0.5c-1.1-0.3-2-0.6-2.9-0.8c0-0.1,0-0.1,0-0.2c2.9,0.5,5.5,1.9,8.4,2.7c0-0.6-0.1-1.1-0.1-1.7
						c0.4,0,0.8,0.1,1.1,0.1c0,0,0,0,0,0c-2.6-0.7-5.2-1.4-7.8-2.2c-0.1,0.2-0.1,0.3-0.2,0.4c-2.1-0.4-4.2-0.9-6.2-1.3
						c-0.2,0-0.6,0-0.8,0.1c-0.4,0.2-0.8,0.2-1.2,0.1c-0.1,0-0.2-0.1-0.3-0.1c-1.2,0.7-2.4,1.2-3.7,1.6c0.2,0.2,0.4,0.3,0.6,0.5
						c0.1,0.1,0.3,0.2,0.3,0.2c0.6-0.4,0.9,0.1,1.2,0.4c0.4,0.4,0.9,0.4,1.4,0.2c0-0.2,0-0.4,0-0.7c1.5,0.8,3,1.5,4.5,2.3
						c-0.5,0.2-0.8,0.3-1.2,0.4c1,0.6,1.9,1.2,2.9,1.8c0.2-0.4,0.3-0.7,0.5-1c0.2,0.1,0.4,0.2,0.5,0.3c0.6,0.3,1.2,0.7,1.8,1
						c0.4,0.2,0.6,0.4,0.7,0.8c0.1,0.4,0.4,0.7,0.8,0.8c1.1,0.5,2.1,1.1,3.2,1.7c0.4,0.2,0.5,0.4,0.3,0.9c-1.5-0.8-3.1-1.6-4.7-2.4
						c0.2,0.5,0.3,0.8,0.5,1.3c-1.8-0.9-3.4-1.8-5.1-2.6c-0.3,0.8-0.5,1.5-0.8,2.3c1.3,0.9,2.6,1.9,4,2.8c-0.3,0-0.6,0.1-0.9,0.1
						c0.5,0.4,1,0.8,1.4,1.2c0.1,0.1,0.3,0.1,0.3,0.1c0.6-0.4,1.2-0.2,1.8-0.3c0.5-0.1,0.7,0.1,0.9,0.5c0.3,0.9,0.6,1.7,1,2.6
						c0.1,0.2,0.2,0.4,0.3,0.6c0.7-0.4,1.3-0.8,2-1.2c0.2,0.9-0.6,1.4-0.7,2.2c0.3,0.3,0.7,0.5,1.1,0.9c0-1,0-1.8,0-2.7
						c1.3,0.6,2.2,2,3.9,2c-0.9-1.2-1.7-2.3-2.5-3.4c0,0,0.1-0.1,0.1-0.1C311.1,194.2,312.2,194.9,313.4,195.6z"/>
				</g>
			</g>
		</g>
		<g>
			<path class="st1" d="M256,457c-110.8,0-201-90.2-201-201c0-110.8,90.2-201,201-201c110.8,0,201,90.2,201,201
				C457,366.8,366.8,457,256,457z M256,70.1C153.5,70.1,70.1,153.5,70.1,256S153.5,441.9,256,441.9S441.9,358.5,441.9,256
				S358.5,70.1,256,70.1z"/>
		</g>
	</g>
	<g id="Honeyswap_00000064349993832098805080000000985132041773463223_" class="st3">
		<path class="st4" d="M396,599.9c-6.4,0-12.7-1.7-18.2-5l-85.7-50.7c-5.5-3.3-10.1-8-13.3-13.6c-3.2-5.6-4.9-12-4.9-18.5V410.5
			c0-6.5,1.7-12.9,4.9-18.5c3.2-5.6,7.8-10.3,13.3-13.6l85.8-50.7c5.5-3.3,11.8-5,18.2-5c6.4,0,12.7,1.7,18.2,5l85.7,50.7
			c5.5,3.3,10.1,8,13.2,13.6c3.2,5.6,4.8,12,4.9,18.5V512c0,6.5-1.7,12.9-4.8,18.5c-3.2,5.6-7.7,10.4-13.2,13.6l-85.8,50.8
			C408.7,598.2,402.4,599.9,396,599.9z M461.4,539l26.7-15.8c1.9-1.1,3.5-2.8,4.6-4.8c1.1-2,1.7-4.3,1.7-6.5v-19H297.7v19
			c0,2.3,0.6,4.6,1.7,6.5c1.1,2,2.7,3.6,4.6,4.8l26.7,15.8H461.4z M494.3,429.4v-18.9c0-2.3-0.6-4.5-1.7-6.5c-1.1-2-2.7-3.6-4.6-4.8
			l-26.9-15.9H331l-27,15.9c-1.9,1.1-3.5,2.8-4.6,4.7c-1.1,2-1.7,4.2-1.7,6.5v18.9H494.3z"/>
		<path class="st4" d="M286.5,548.6c-5.8-3.4-10.7-8.4-14-14.4c-0.5-0.9-1-1.8-1.4-2.7c-12.8,3.7-25.6,5.5-38.2,5.5
			c-8.2,0-16.3-0.8-24-2.3c-21.7-4.3-34.6-13.4-37.5-17.7l96-57v-28l-109.2,64.8c-10.5,6.6-13.9,18.9-8.4,30.5
			c6.4,13.6,27.9,25.8,54.5,31.1c9.3,1.8,18.9,2.8,28.4,2.8h0.2c19,0,38.1-3.5,57.1-10.5L286.5,548.6z"/>
		<path class="st4" d="M633.5,496.7L524.7,432V460l96.2,56.9c-1.6,3.4-14.7,13.3-37.7,17.9c-7.7,1.5-15.8,2.3-24,2.3
			c-12.6,0-25.5-1.9-38.2-5.5c-0.4,0.9-0.9,1.8-1.4,2.7c-3.3,5.9-8.1,10.9-13.9,14.4l-3.6,2.1c18.9,7,38.1,10.5,57.1,10.5
			c0,0,0.2,0,0.2,0c9.5,0,19.1-0.9,28.4-2.8c26.7-5.3,48.1-17.5,54.5-31.1C647.7,515.7,644.3,503.5,633.5,496.7z"/>
		<path class="st4" d="M378.8,304.7c-3.1,0-6.2-1.3-8.4-3.6c-2.2-2.3-3.4-5.3-3.4-8.5c0-9.7-3.7-18.8-10.4-25.7
			c-6.7-6.8-15.5-10.6-24.9-10.6c-3.1,0-6.2-1.3-8.4-3.6c-2.2-2.3-3.4-5.3-3.4-8.5c0-3.2,1.2-6.2,3.4-8.5c2.2-2.3,5.3-3.6,8.4-3.6
			c15.8,0,30.6,6.3,41.8,17.7c11.1,11.4,17.3,26.6,17.3,42.7c0,3.2-1.3,6.3-3.4,8.5C385,303.4,382,304.7,378.8,304.7z"/>
		<path class="st4" d="M414.3,304.7c-3.1,0-6.2-1.3-8.4-3.6c-2.2-2.3-3.4-5.3-3.4-8.5c0-16.1,6.2-31.3,17.3-42.7
			c11-11.3,26.2-17.7,41.8-17.8c3.1,0,6.2,1.3,8.4,3.6c2.2,2.3,3.4,5.3,3.4,8.5c0,3.2-1.2,6.2-3.5,8.5c-2.2,2.3-5.3,3.6-8.4,3.6
			c-9.4,0-18.3,3.8-24.9,10.6c-6.6,6.8-10.4,16.1-10.4,25.7c0,3.2-1.2,6.2-3.4,8.5C420.4,303.4,417.5,304.7,414.3,304.7z"/>
	</g>
</g>
</svg>
