<?xml version="1.0" encoding="utf-8"?>
<!-- Generator: Adobe Illustrator 26.0.3, SVG Export Plug-In . SVG Version: 6.00 Build 0)  -->
<svg version="1.1" id="Ebene_1" xmlns="http://www.w3.org/2000/svg" xmlns:xlink="http://www.w3.org/1999/xlink" x="0px" y="0px"
	 viewBox="0 0 512 512" style="enable-background:new 0 0 512 512;" xml:space="preserve">
<style type="text/css">
	.st0{fill:url(#bg_00000019640535001501740980000002743729284405449150_);}
	.st1{fill:#FFFFFF;}
	.st2{fill-rule:evenodd;clip-rule:evenodd;fill:#FFFFFF;}
	.st3{opacity:0.1;}
</style>
<g id="MIVA-FRACTION">
	
		<linearGradient id="bg_00000026852414097315152400000003035313451931576709_" gradientUnits="userSpaceOnUse" x1="-802.0593" y1="972.5021" x2="-217.9408" y2="1075.4979" gradientTransform="matrix(-1 0 0 1 -254 -768)">
		<stop  offset="0" style="stop-color:#111111"/>
		<stop  offset="1" style="stop-color:#8349D1"/>
	</linearGradient>
	
		<polygon id="bg_00000092448880540474199420000014262498700585618588_" style="fill:url(#bg_00000026852414097315152400000003035313451931576709_);" points="
		0,0 512,0 512,512 0,512 	"/>
	<g id="Flowr_00000183236645510323266550000015817282034946882238_">
		<g id="Flower_00000114051562020454536770000002965129912806004379_">
			<g id="Stiel_00000168100470376546372880000012290249052061623937_">
				<path class="st1" d="M249,448.8l-0.9-4.2c-6.5-30.8-15.3-72.9-15-117.3c0.4-69.7,13.3-108.6,14.8-112.8l8.6,3
					c-5.1,14.7-13.9,54.5-14.3,109.8c-0.3,43.4,8.5,85,14.8,115.4l0.9,4.2L249,448.8z"/>
			</g>
			<g id="Leaf1_00000083046996997095739760000011783916160663246010_">
				<path class="st1" d="M253.6,368.4c-3.2,4.4-6.4,8.8-9.7,13.2c-1.5-1.2-3.2-2.4-4.9-3.8c1.8-1.9,3.4-3.7,5.2-5.4
					c6.7-6.4,13.5-12.7,21.5-17.5c7.8-4.7,16-8.6,24.9-10.5c0.1,0,0.3-0.1,0.4-0.3c-1.4,0.1-2.9,0.2-4.3,0.4
					c-8.9,1.1-17.3,4.1-25.4,8.1c-3.7,1.8-7.3,4-10.9,6c-0.3,0.2-0.6,0.3-1.1,0.4c0.7-1.9,1.3-3.8,2.1-5.6
					c8.8-18.3,23.3-27.9,43.6-28.2c11.6-0.2,21.9,4,30.7,11.6c0.6,0.5,0.8,1,0.5,1.8c-0.9,2.8-1.6,5.8-2.7,8.6
					c-4.4,10.7-11.7,18.9-22.1,24c-16,7.9-31.7,6.9-46.9-2.3c-0.1-0.1-0.3-0.2-0.4-0.3c0,0-0.1,0-0.1,0
					C253.8,368.5,253.7,368.4,253.6,368.4z"/>
			</g>
			<g id="Leaf1_00000009550803135193800390000011884563061608640398_">
				<path class="st1" d="M227.9,376.9c3.8,5.3,7.7,10.5,11.6,15.9c1.8-1.4,3.8-2.9,5.9-4.5c-2.1-2.2-4.1-4.5-6.2-6.5
					c-8-7.7-16.2-15.2-25.7-21c-9.3-5.7-19.1-10.2-29.8-12.6c-0.2,0-0.3-0.1-0.4-0.4c1.7,0.1,3.4,0.2,5.2,0.5
					c10.7,1.4,20.7,5,30.4,9.7c4.5,2.2,8.7,4.8,13.1,7.2c0.4,0.2,0.7,0.4,1.4,0.5c-0.8-2.2-1.5-4.5-2.5-6.7
					c-10.5-21.9-27.9-33.4-52.2-33.8c-13.9-0.2-26.2,4.7-36.8,13.9c-0.7,0.6-0.9,1.2-0.6,2.1c1.1,3.4,1.9,7,3.2,10.3
					c5.2,12.9,14,22.6,26.4,28.7c19.1,9.4,37.9,8.3,56.1-2.7c0.2-0.1,0.4-0.2,0.5-0.3c0,0,0.1,0,0.1,0
					C227.6,377.1,227.8,377,227.9,376.9z"/>
			</g>
			<g id="Leaf3_00000145045413656508652480000012568813432730314937_">
				<path class="st1" d="M248.2,286.5c-2.5,2.4-5,4.8-7.5,7.2c-0.8-0.9-1.7-1.9-2.7-2.9c1.3-1,2.6-2,3.9-2.8
					c4.9-3.3,9.8-6.5,15.4-8.7c5.4-2.1,10.9-3.6,16.7-3.9c0.1,0,0.2,0,0.3-0.2c-0.9-0.1-1.8-0.2-2.7-0.2c-5.7-0.3-11.3,0.7-16.8,2.3
					c-2.5,0.7-5,1.7-7.5,2.6c-0.2,0.1-0.4,0.2-0.8,0.1c0.6-1.1,1.2-2.2,1.9-3.3c7.5-10.5,17.6-14.9,30.4-12.9
					c7.3,1.1,13.3,4.9,18,10.6c0.3,0.4,0.4,0.7,0.1,1.2c-0.9,1.7-1.6,3.5-2.6,5.1c-3.9,6.2-9.4,10.6-16.4,12.6
					c-10.9,3.2-20.6,0.9-29.1-6.5c-0.1-0.1-0.2-0.1-0.3-0.2c0,0,0,0-0.1,0C248.4,286.6,248.3,286.6,248.2,286.5z"/>
			</g>
			<g id="Leaf2_00000183934039905464289490000006632646730951860904_">
				<path class="st1" d="M228.8,292.8c2.5,2.4,5,4.8,7.5,7.2c0.8-0.9,1.7-1.9,2.7-2.9c-1.3-1-2.6-2-3.9-2.8
					c-4.9-3.3-9.8-6.5-15.4-8.7c-5.4-2.1-10.9-3.6-16.7-3.9c-0.1,0-0.2,0-0.3-0.2c0.9-0.1,1.8-0.2,2.7-0.2
					c5.7-0.3,11.3,0.7,16.8,2.3c2.5,0.7,5,1.7,7.5,2.6c0.2,0.1,0.4,0.2,0.8,0.1c-0.6-1.1-1.2-2.2-1.9-3.3
					c-7.5-10.5-17.6-14.9-30.4-12.9c-7.3,1.1-13.3,4.9-18,10.6c-0.3,0.4-0.4,0.7-0.1,1.2c0.9,1.7,1.6,3.5,2.6,5.1
					c3.9,6.2,9.4,10.6,16.4,12.6c10.9,3.2,20.6,0.9,29.1-6.5c0.1-0.1,0.2-0.1,0.3-0.2c0,0,0,0,0.1,0
					C228.7,292.9,228.8,292.8,228.8,292.8z"/>
			</g>
			<g id="Leaf2_00000054249569228261560070000014305258496049871518_">
				<path class="st1" d="M241.2,235c0.8,0.8,1.6,1.5,2.4,2.3c0.3-0.3,0.5-0.6,0.8-0.9c-0.4-0.3-0.8-0.6-1.2-0.9
					c-1.5-1-3.1-2-4.8-2.7c-1.7-0.7-3.4-1.1-5.3-1.2c0,0-0.1,0-0.1-0.1c0.3,0,0.6-0.1,0.9-0.1c1.8-0.1,3.6,0.2,5.3,0.7
					c0.8,0.2,1.6,0.5,2.4,0.8c0.1,0,0.1,0,0.2,0c-0.2-0.3-0.4-0.7-0.6-1c-2.4-3.3-5.6-4.7-9.6-4.1c-2.3,0.4-4.2,1.5-5.7,3.3
					c-0.1,0.1-0.1,0.2,0,0.4c0.3,0.5,0.5,1.1,0.8,1.6c1.2,2,3,3.3,5.2,4c3.4,1,6.5,0.3,9.2-2.1C241,235.1,241.1,235,241.2,235
					C241.1,235,241.1,235,241.2,235C241.1,235,241.2,235,241.2,235z"/>
			</g>
			<g>
				<path class="st2" d="M267.1,210.9c-22.7-0.1-41.2-18.2-41.4-40.9c0-0.2,0-0.4,0-0.6c0-0.2,0-0.4,0-0.6
					c0.2-11.3,9.4-20.3,20.5-20.5c11.5,0,20.8,9.4,20.8,20.8c0,0,0.1,0.1,0.1,0.1v-52c-28.7,0.1-51.9,23.3-51.9,52
					c0,28.7,23.2,52,51.9,52V210.9z"/>
				<path class="st2" d="M267,199.7c0.2,0,0.4-0.2,0.6-0.4l3.6-7.1c0.4-0.9-0.2-2.1-0.6-2.4c-1.7-1.7-2.5-2.5-3.4-2.5
					c-0.9,0-1.8,0.8-3.5,2.5c-0.6,0.6-0.9,1.5-0.6,2.4c0.9,1.9,3.6,7.1,3.6,7.1C266.7,199.6,266.9,199.8,267,199.7
					C267,199.8,267,199.7,267,199.7z"/>
				<path class="st2" d="M290.8,161.1c-0.3,0-0.6,0-0.9,0.1c-3.9,0-7.3,2.3-9.4,5.4c-0.8,1.1-1.3,2.3-1.7,3.4
					c-1.1,2.6,0.2,5.3,2.4,6.8c1.3,0.8,2.8,0.9,4.5,1.1c3.6,0,7.1-1.9,9.6-4.3c1.9-2.3,3-5.3,1.9-8.3
					C296.2,162.6,293.5,161.1,290.8,161.1z"/>
				<path id="Eye_00000098212843671010384780000017366697176873366188_" class="st2" d="M254,166.6c-2.1-3.2-5.4-5.4-9.4-5.4
					c-3-0.4-6.2,1.1-7.3,4.1c-1.1,3,0,6,1.9,8.3c2.4,2.3,6,4.1,9.8,4.1c1.5,0,3-0.4,4.3-0.9c2.3-1.5,3.4-4.1,2.4-6.8
					C255.3,168.9,254.8,167.8,254,166.6z"/>
				<g>
					<path id="t5_00000127018980030590669770000017209678654241912470_" class="st1" d="M309.9,198.4c0.3,0.1,0.6,0.1,1,0.2
						c-0.1,0.2-0.2,0.3-0.3,0.5c-0.3-0.2-0.6-0.4-0.8-0.6C309.9,198.5,309.9,198.5,309.9,198.4z"/>
					<path id="t2_00000040542292645749900360000009398406141120063415_" class="st1" d="M285.4,155.4c0.1,0.6-0.6,1.3-1.4,1.4
						C284.5,156.3,285,155.9,285.4,155.4z"/>
					<path id="t1_00000102541030725849825120000015459823336532242080_" class="st1" d="M279.3,147.5c-0.2,0.3-0.3,0.6-0.4,0.8
						c0,0-0.1,0-0.1,0c0-0.2,0-0.5,0.1-0.7C278.8,147.5,279,147.5,279.3,147.5z"/>
					<path id="m5_00000142899208487724998460000007701017527205512863_" class="st1" d="M270.3,150.3c0-1,0-2,0-3c0.1,0,0.1,0,0.2,0
						c0,1,0,2,0,3C270.4,150.3,270.3,150.3,270.3,150.3z"/>
					<path id="m4_00000051347233224263206730000010880165850366525065_" class="st1" d="M281,194.8c-1-0.4-1-0.4-1.7-2.2
						C280,192.6,280.4,193,281,194.8z"/>
					<path id="m3_00000010996487449848792960000013556015152700047528_" class="st1" d="M307.6,178.2c-1.3,0.6-2.6,1.4-4.1,0.4
						C304.9,178.2,306.2,177.4,307.6,178.2z"/>
					<path id="m2_00000111148963023595747490000003953901678888330900_" class="st1" d="M300.9,147.4c0.3,0.5,0.5,0.9,0.8,1.4
						c-0.6,0.4-1.2,0.7-1.8,1.1c-0.3-0.4-0.5-0.8-0.8-1.2C299.5,148.3,300.2,147.9,300.9,147.4z"/>
					<path id="m1_00000090974532414195691120000016538008337611719586_" class="st1" d="M286.9,135.4c0.4,0.4,0.7,0.8,1.1,1.2
						c-0.6,0.1-1.2,0.3-1.9,0.4C286.4,136.4,286.6,136,286.9,135.4z"/>
					<path id="j7_00000137133118346198326850000014622481260987048338_" class="st1" d="M276.8,194.1c-0.1-0.4-0.2-0.8-0.3-1.2
						c0.3-0.1,0.6-0.2,0.9-0.3c0.5,1.1,0.9,2.1,1.4,3.2c0.6-0.3,0.8,0,1.1,0.5c0.2,0.5,0.5,1.1,0.8,1.6c-0.3,0.1-0.5,0.3-0.8,0.4
						c0.3,0.6,0.5,1.3,0.8,1.9c-0.9-0.2-1.6-0.6-1.7-1.6c-0.2,0.1-0.4,0.1-0.6,0.2c0.1,0.2,0.1,0.4,0.2,0.8
						c-0.5-0.2-0.9-0.4-1.4-0.7c0.4-0.2,0.6-0.3,0.8-0.5c-0.2-0.7-0.4-1.5-0.6-2.2c-0.2,0-0.4,0.1-0.7,0.1c-0.2-0.8-0.3-1.6-0.5-2.5
						C276.5,194,276.6,194,276.8,194.1z"/>
					<path id="j6_00000165220799463142402470000002420447012151077790_" class="st1" d="M286,200.4c-0.6-0.3-1.1-0.6-1.7-0.9
						c-0.1,0-0.1-0.1-0.2-0.1c-1.4-0.3-1.7-1.5-2.1-2.6c0.5-0.2,1.1-0.4,1.7-0.7c0.8,1.4,1.7,2.8,2.5,4.1
						C286.1,200.3,286.1,200.3,286,200.4z"/>
					<path id="j5_00000181797088239591277820000014006069342670972849_" class="st1" d="M310.1,200.3c-1.8-0.7-3.6-1.3-5.4-2.2
						c-0.9-0.5-1.7-1.3-2.5-1.9c-0.5-0.4-1.1-0.9-1.6-1.4c0.5-0.3,1-0.6,1.5-0.8c0.1-0.1,0.4,0,0.6,0.1c2.4,1.9,4.7,3.8,7.1,5.6
						C309.9,200,310,200.1,310.1,200.3C310.2,200.3,310.2,200.3,310.1,200.3z"/>
					<path id="j4_00000108302806544520162740000002552086124816340907_" class="st1" d="M289.1,154.3c-1,0.7-2,1.4-3,2.1
						c-0.1,0.1-0.2,0.1-0.4,0.1c0.1-0.1,0.1-0.3,0.2-0.3c0.8-0.7,1.6-1.3,2.4-1.9c0.2-0.1,0.4-0.1,0.7-0.1
						C289,154.2,289,154.2,289.1,154.3z"/>
					<path id="j3_00000162349876449056588990000013693488836569526458_" class="st1" d="M280.2,154.9c0.5-0.9,1-1.8,1.4-2.7
						c0.2-0.4,0.5-0.9,0.4-1.4c0-0.2,0.2-0.5,0.4-1c0.1,0.5,0.1,0.8,0.2,1.2c0.2-0.3,0.3-0.6,0.5-0.8c0.1-0.1,0.3-0.2,0.5-0.3
						c0,0.1,0.1,0.1,0.1,0.2c-0.2,0.3-0.4,0.5-0.5,0.8c0.6,0.2,0.6-1,1.4-0.5c-0.1,0.2-0.2,0.3-0.4,0.5c0.5-0.1,0.8-0.2,1.2-0.3
						c0,0.1,0.1,0.1,0.1,0.2C283.8,152.1,282,153.5,280.2,154.9C280.3,154.9,280.3,154.9,280.2,154.9z"/>
					<path id="j2_00000044900729301005011360000003873552039005224333_" class="st1" d="M285.7,143.4c-0.7,1-1.4,1.9-2.1,2.9
						c0.3,0,0.4,0,0.6,0.1c-0.3,0.8-2.8,3.6-3.2,3.6c0.2-0.3,0.4-0.6,0.5-0.9c-0.1,0-0.1-0.1-0.2-0.1c-0.3,0.4-0.7,0.8-1,1.3
						c-0.1,0-0.1-0.1-0.2-0.1c0.2-0.4,0.4-0.8,0.6-1.2c0,0-0.1,0-0.1,0c0-0.3,0-0.5,0.1-0.8c0.1-0.4,0.3-0.7,0.5-1.1
						c0.1-0.3,0.3-0.5,0.6-0.5c0.1,0,0.3-0.2,0.4-0.3c0.2-0.4,0.5-0.9,0.7-1.3c0.5-1.2,1.6-1.4,2.7-1.6
						C285.6,143.3,285.7,143.3,285.7,143.4z"/>
					<path id="j1_00000140005778759370640850000006771018848820843141_" class="st1" d="M274,142.6c-0.1,0.5-0.2,0.9-0.2,1.3
						c0.2,0,0.3,0.1,0.5,0.1c-0.1,0.4-0.2,0.7-0.3,1.1c0,0.2,0,0.4,0,0.6c0.1-0.1,0.3-0.2,0.4-0.4c0,0,0.1,0,0.1,0
						c-0.1,0.8-0.2,1.7-0.5,2.5c-0.3,0.9-0.8,1.7-1.3,2.6c-0.2-0.3-0.4-0.4-0.4-0.6c-0.1-1.9-0.1-3.7-0.2-5.6c0-0.7,0.2-1.1,0.9-1.2
						C273.3,142.8,273.6,142.7,274,142.6z"/>
					<path id="f9_00000168100789725409899260000007783752617796112816_" class="st1" d="M297.3,208.5c-1.1-1.4-2.2-2.7-3.3-4.1
						c-0.9-1.1-1.8-2.2-2.8-3.4c0.5,0.1,0.8,0.2,1.3,0.4c-0.9-1.1-1.6-2-2.4-3c0.6-0.1,1-0.1,1.6-0.2c-1.1-1.2-2.1-2.3-3.2-3.4
						c-0.2,0.2-0.3,0.4-0.5,0.5c-0.6-0.7-1.1-1.3-1.6-2c-0.2-0.3-0.4-0.5-0.8-0.3c-0.1,0-0.4,0-0.4-0.1c-0.2-0.3-0.4-0.6-0.7-0.9
						c0.4,0.1,0.6,0.1,1,0.2c-0.5-0.7-1-1.3-1.5-1.9c0.4-0.1,0.8-0.2,1.1-0.3c0-0.1,0.1-0.1,0.1-0.2c-0.3-0.2-0.5-0.3-0.8-0.5
						c0.2-0.2,0.3-0.3,0.4-0.4c-0.1-0.1-0.3-0.2-0.3-0.3c-0.5-0.6-1.4-0.8-1.7-1.7c-0.2-0.5-1-0.7-1.2-1.3c0,0-0.1,0-0.1-0.1
						c-0.7-0.4-1.4-0.7-2.3-1.2c0.1,0.2,0.1,0.3,0.2,0.4c0.8,1.5,1.6,3.1,2.4,4.6c0.1,0.2,0.1,0.3,0.1,0.5c0,0.6,0,1.3,0.8,1.4
						c0,0,0.1,0.1,0.1,0.1c0.3,0.6,0.6,1.2,1,1.9c-0.4-0.1-0.6-0.2-0.9-0.4c0.2,0.4,0.3,0.6,0.4,0.8c0.3-0.1,0.4-0.1,0.7-0.2
						c0.3,0.6,0.7,1.3,1,1.9c0.1,0.1,0.2,0.3,0.3,0.3c0.3,0.1,1.2,1.5,1.2,1.8c0,0.1-0.1,0.2-0.1,0.2c-0.6,0.5-0.4,1,0,1.6
						c0.2,0.4,0.4,0.9,1,0.9c0.9,0,1.4,0.4,1.7,1.2c0,0.1,0.2,0.2,0.2,0.3c0,0.3,0.1,0.5,0.1,0.8c-0.1,0.3-0.2,0.6-0.4,1
						c-0.4-0.6-0.8-1.1-1-1.7c-0.4-1-1.3-1.1-2.2-1.1c0.5,1,1,2,1.5,3c-0.8,0-1.4-0.2-1.8-1c-0.4-0.9-0.7-1.9-2.2-1.6
						c0.3-0.4,0.5-0.6,0.6-0.9c0.1-0.1,0-0.5-0.1-0.5c-0.4-0.3-0.9-0.4-1.5-0.7c0.7,1.7,1.4,3.2,2,4.8c0.3,0.9,0.8,1.4,1.8,1.5
						c0.7,0.1,0.9,0.5,0.6,1.2c-0.2,0.7-0.5,1.4-0.7,2.1c0.4,0.1,0.8,0.2,1.2,0.3c0.9,0.2,0.9,0.2,1,0.6c-0.6,0-1.2,0.1-1.9,0.1
						c0.2,0.5,0.3,0.9,0.5,1.3c0.5-0.3,0.9-0.6,1.3-0.8c0.2-0.1,0.5-0.1,0.7,0c0.7,0.3,1.4,0.7,2.1,1c0.7,0.3,1.2,1.3,1.2,2
						c0,0.8-0.1,1.6-0.1,2.4c1.2-0.3,0.3-1.2,0.7-1.7c0.1,0.1,0.2,0.2,0.3,0.4c0-0.7,0.1-1.3,0.1-2.1c0.8,0.5,1.5,0.9,2.1,1.3
						c0.4-0.3,0.7,0.4,1,0.3c0.5-1.3,1.5-1.8,2.8-1.9C298.5,210.5,298,209.4,297.3,208.5z M288.9,203.9c0.3-0.3,0.6-0.5,1-0.8
						c0.3,0.5,0.6,1,0.9,1.4C290.1,204.4,289.3,204.6,288.9,203.9z"/>
					<path id="f7_00000148660605202034179420000017803589518057275316_" class="st1" d="M306.5,200.8c0.6,0,1.2,0,1.7,0
						c-0.5-0.5-1.1-0.8-1.5-1.3c-1-0.9-1.9-1-2.9-0.1c-0.1,0.1-0.2,0.1-0.3,0.1c-0.1,0-0.3,0.1-0.3,0c-0.7-0.6-1.4-1.1-2.1-1.7
						c0,0,0-0.1,0.1-0.1c0.2,0.1,0.5,0.2,0.9,0.4c-2.5-2.3-5.3-4-7.4-6.4c-0.2-0.3-0.6-0.5-0.9-0.7c0.8,0.1,1.5,0.3,2.2,0.6
						c0.1,0,0.2,0,0.5,0c0.7,0.6,1.6,1.3,2.5,2c0.2,0.1,0.4,0.3,0.6,0.3c0.7,0,1.4-0.1,2.3-0.1c-0.3-0.2-0.5-0.4-0.6-0.5
						c-1.2-0.9-2.5-1.8-3.7-2.6c-0.5-0.3-0.9-0.7-1.6-0.8c-0.9-0.2-1.6-0.9-2.5-1.4c0.4-0.1,0.8-0.3,1.2-0.4
						c-1.7-0.9-3.2-1.7-4.8-2.5c0,0.1,0,0.2-0.1,0.3c-0.1,0.2-0.1,0.6-0.2,0.6c-0.3,0-0.6,0-0.8-0.1c-0.1,0-0.3-0.2-0.4-0.3
						c-0.7-0.5-0.7-0.5-1.6,0.1c0.2,0.2,0.4,0.4,0.6,0.7c-0.4,0.1-0.7,0.2-1.1,0.3c0.5,0.7,1,1.2,1.5,1.9c-0.4-0.1-0.6-0.1-0.8-0.2
						c0.5,0.5,0.5,1.6,1.5,1.2c0,0,0.1,0,0.1,0c0.5,0.6,0.9,1.1,1.4,1.7c0,0.1-0.1,0.1-0.1,0.2c-0.3,0-0.6-0.1-0.9-0.1
						c0.3,0.5,0.7,0.9,1.1,1.5c0.1-0.4,0.1-0.6,0.1-0.9c0.3,0.2,0.6,0.2,0.7,0.4c0.3,0.4,0.7,0.6,1.2,0.7c0.4,0.1,0.8,0.2,1.1,0.3
						c0.2,0.1,0.4,0.4,0.6,0.7c0.1,0.2,0.1,0.5,0.3,0.7c0.8,0.9,1.6,1.7,2.3,2.5c-0.3,0.3-0.5,0.2-0.7,0c-0.9-1-1.9-2-2.9-3
						c-0.1,0.6-0.4,0.9-1.2,0.8c0.8,0.5,0.6,1,0.3,1.5c0,0.1-0.1,0.2-0.1,0.3c-0.2,0.6-0.1,0.7,0.5,0.9c0.4,0.1,0.9,0.1,1.3,0.2
						c0.2,0.1,0.5,0.2,0.6,0.4c2.1,2.6,4.2,5.2,6.3,7.8c0.1,0.1,0.1,0.4,0,0.6c-0.3,0.5-0.6,1-0.8,1.6c-0.1,0.1-0.1,0.4,0,0.5
						c0.2,0.3,0.4,0.6,0.7,1c0.3-0.2,0.6-0.5,0.9-0.7c0.9-0.5,1.3-1.1,1-2.1c0-0.1-0.1-0.3,0-0.5c0-0.2,0.1-0.4,0.2-0.5
						c0.2,0,0.4,0,0.6,0.1c0.2,0.1,0.2,0.4,0.3,0.6c0.7-0.6,1.1-1.2,1.9-1.1c-0.1-0.3-0.1-0.5-0.2-0.8c0.6,0.3,1,0,1.3-0.4
						c0.3-0.4,0.6-0.7,0.9-1.1c0.2-0.2,0.2-0.4,0.1-0.7C307.3,202.3,306.9,201.6,306.5,200.8z M305.6,202.2
						c-0.3-0.4-0.6-0.8-0.9-1.3c0.4,0,0.6,0,0.9,0c0,0.4,0.1,0.8,0.1,1.3C305.7,202.1,305.6,202.1,305.6,202.2z"/>
					<path id="f3_00000106844595274245898040000013071633604351454626_" class="st1" d="M310.2,139.8c-0.9,0.3-1.9,0.6-2.8,1
						c0,0,0-0.1,0-0.1c0.5-0.4,1.1-0.8,1.6-1.1c0,0,0-0.1-0.1-0.1c-0.5,0.1-1,0.3-1.7,0.4c0.8-0.9,1.5-1.8,2.2-2.6
						c-0.1-0.2-0.2-0.4-0.4-0.5c-0.5-0.6-1-1.3-1.7-1.8c-0.9-0.6-1.9-1.1-2.6-1.9c-0.4-0.4-0.7-0.3-1.1,0c0.2,0.2,0.3,0.3,0.5,0.5
						c-1.3,0.2-2.7-0.3-3.3,1.4c1.1-0.1,2-1,3.3-0.6c-1.6,1.7-3.1,3.3-4.7,5.1c1-0.2,1.9-0.4,2.8-0.6c0.1,0.5,0.2,0.2-1,1.5
						c-0.8,0.9-1.8,0.5-2.6,0.6c0.1-0.4,0.2-0.8,0.2-1.2c0.1-0.5,0-1,0.1-1.5c0-0.2,0.1-0.5,0.2-0.6c0.9-0.6,1-1.3,0.8-2.3
						c-0.1-0.3-0.1-0.6-0.1-0.9c0-0.1,0-0.3,0.1-0.4c0.5-0.5,0.8-1,1.5-1.2c0.8-0.2,1.6-0.5,2.3-0.8c0-0.1,0-0.1-0.1-0.2
						c-0.8-0.1-1.5,0.6-2.2,0.7c0-0.1,0-0.1,0.1-0.2c-0.4-0.1-0.7-0.3-1.2-0.4c0.2-0.7,0.5-1.5,0.7-2.4c-0.1,0-0.3-0.1-0.5-0.1
						c-0.1,0-0.3,0-0.4-0.1c-0.4-0.5-0.8-0.9-1.3-1.5c0,0-0.2,0-0.3,0c-0.1,0.3-0.2,0.6-0.3,0.8c-1,1.5-2.1,3-3.1,4.6
						c-1,1.4-2,2.8-3,4.2c-0.9-0.7-1.7-1.3-2.5-2c-0.2,0.4-0.5,0.8-0.7,1.3c-0.2-0.3-0.4-0.5-0.6-0.8c-0.3,0.5-0.5,1-0.8,1.4
						c-0.2,0.3-1.2,0.3-1.5,0.1c-0.2,0.5-0.5,1.1-0.7,1.6c-0.4-0.2-0.7-0.4-1-0.6c0,0-0.1,0.1-0.1,0.1c0.1,0.1,0.2,0.2,0.3,0.3
						c0.4,0.2,0.8,0.5,1.2,0.7c0.4,0.2,0.6,0.4,0.4,0.8c0.4,0.1,0.7,0.1,1.1,0.2c-0.4,0.7,0.4,0.9,0.5,1.4c-0.5,0.8-1.1,1.6-1.6,2.3
						c0,0,0.1,0.1,0.1,0.1c0.4-0.1,1-0.1,1.2-0.3c0.6-0.9,1.6-0.9,2.4-1.3c0.6,0.7,0.2,1.2-0.2,1.7c0.6-0.2,1.3-0.5,2-0.7
						c-0.1-0.2-0.2-0.4-0.3-0.6c0.6-0.8,1.2-1.5,1.8-2.2c0.8-0.9,1.6-1.7,2.4-2.6c0.1-0.1,0.3-0.2,0.4-0.2c0.7,0,1.4,0,2.1,0
						c0,0.1,0,0.1,0,0.2c-1.5,1.7-3.1,3.3-4.7,5c0.4,0.1,0.6,0.1,0.9,0.2c0.6,0.2,1,0,1.4-0.5c0.7-0.9,1.8-0.8,2.8-1.1
						c-0.6,0.6-1.2,1.1-1.7,1.7c-0.2,0.2-0.3,0.5-0.4,0.7c-1.2,0.2-1.6,1.6-2.7,2.1c-0.3-0.7-0.6-1.5-0.9-2.3
						c-0.6,0.8-1.2,1.5-1.8,2.2c-0.2,0.3-0.5,0.4-0.8,0.2c-0.1-0.1-0.5-0.1-0.5,0c-0.8,1.1-1.6,2.2-2.4,3.4c0.3,0,0.5,0,0.8,0.1
						c-0.7,0.8-1.3,1.6-1.9,2.4c-0.1,0.1-0.1,0.4-0.2,0.6c0.1,0,0.1,0,0.2,0.1c-0.1,0.1-0.2,0.3-0.3,0.4c1.8,0,2.8-1.4,4-2.2
						c0.1,0.3,0.1,0.5,0.2,0.7c0.9-0.7,1.8-1.3,2.7-1.9c0.3-0.2,0.7-0.4,1-0.4c1.1,0.1,2.1-0.3,2.9-1c0.4-0.3,0.9-0.5,1.4-0.8
						c0.6-0.4,1.2-0.6,1.9-0.6c0.2,0,0.4-0.1,0.5-0.2c1.2-0.7,2.3-1.4,3.5-2.1c0.1-0.1,0.3-0.2,0.3-0.4c0.3-0.6,0.5-1.2,0.8-1.8
						c0.1-0.1,0.1-0.3,0.2-0.3c1-0.5,1.9-1.1,2.9-1.6c0.9-0.5,1.9-0.9,2.8-1.3C310.7,139.7,310.5,139.6,310.2,139.8z M297.6,146.9
						c0.7-0.3,1-1.1,1.9-0.9C298.6,146.9,298,147.2,297.6,146.9z"/>
					<path id="f2_00000168806950207621007560000006192149548284511678_" class="st1" d="M296.5,127.7c0-0.5-0.1-1-0.1-1.4
						c-0.1,0.1-0.2,0.1-0.3,0.1c0-0.1,0-0.3,0-0.4c-0.1,0-0.1-0.1-0.2-0.1c0,0.2-0.1,0.3-0.1,0.5c-0.1-0.2-0.1-0.2-0.1-0.3
						c0-0.2,0-0.4-0.1-0.6c-0.2,0.1-0.4,0.1-0.6,0.2c-0.5,0.4-1,0.7-1.6,1.2c-0.2-0.5-0.4-1-0.6-1.6c-0.3,0.5-0.5,0.9-0.7,1.4
						c-0.2-0.6-0.4-1.1-0.6-1.6c-0.4-0.8-0.4-1.5,0.1-2.2c0,0,0-0.1-0.1-0.2c-1.4-0.6-2.9-1.2-4.5-1.9c-0.1,0.6-0.1,1-0.1,1.5
						c-0.8,0.3-1.6,0.6-2.5,0.9c-0.3,0.1-0.5,0.3-0.6,0.7c-0.4,1.5-0.8,3-1.3,4.5c-0.3,1.1-0.6,2.1-0.9,3.2c-0.1,0-0.1,0-0.2,0
						c0-1.7,0-3.4,0-5.1c-0.1,0-0.1,0-0.2,0c-0.1,0.2-0.1,0.4-0.2,0.6c-0.6,2.1-1.2,4.3-1.8,6.4c-0.1,0.2-0.3,0.4-0.6,0.5
						c-0.1,0.1-0.3-0.1-0.5-0.2c-0.1-0.1-0.2-0.2-0.3-0.3c-0.5,1.6-0.5,1.6,0.7,2.5c0,0.2,0,0.4-0.1,0.6c0.4-0.1,0.8-0.1,1.3-0.2
						c-0.1,0.5-0.1,1-0.4,1.4c-0.1,0.2-0.7,0.1-1.1,0.1c-0.3,1.5-0.7,3.1-1,4.6c-0.1,0-0.1,0-0.2,0c0-1,0-2.1,0-3.1
						c-0.1,0-0.1,0-0.2,0c-0.2,1.8-0.5,3.5-0.7,5.3c0.2,0,0.4-0.1,0.6-0.1c-0.1,0.5-0.2,0.8-0.2,1.2c0.2,0,0.3,0.1,0.5,0.1
						c-0.1,0.5-0.3,1-0.4,1.6c0.3,0.1,0.5,0.2,0.8,0.3c0.2-0.6,0.5-1.1,0.7-1.6c0.1-0.1,0.2-0.4,0.3-0.4c0.6,0,0.7-0.4,0.9-0.8
						c0.3-0.5,0.5-1,0.8-1.5c0.1-0.2,0.3-0.4,0.4-0.4c0.6-0.2,1.2-0.4,1.9-0.6c0.1,0,0.3-0.1,0.4-0.2c0.5-0.7,1.1-1.5,1.6-2.3
						c-0.2-0.5-1-0.8-0.5-1.4c-0.2-0.1-0.4-0.2-0.6-0.3c-0.5-0.1-0.5-0.5-0.4-0.8c0-0.2,0.3-0.3,0.5-0.4c0.6-0.1,0.9-0.4,1.2-0.9
						c0.4-0.9,0.9-1.7,1.4-2.6c0.9,0.7,1.7,1.3,2.5,2c0.9-1.3,1.8-2.6,2.8-4c-1,0.3-1.8,0.6-2.8,0.9c0.8-1.4,1.6-2.6,2.3-3.7
						c1-0.1,1.8-0.3,2.8-0.4c-1.1,1.9-2.2,3.7-3.3,5.5c2.3-0.2,3.7-1.4,4.5-3.5c0.1,0,0.1,0,0.2,0c0,0.2,0.1,0.4,0.2,0.7
						c0.8-1.1,1.6-2.1,2.3-3.2c0.1-0.2,0.1-0.5,0.2-0.9C297.3,127.2,296.9,127.4,296.5,127.7z M282.7,133.3
						c-0.3,0.8-0.6,1.7-0.9,2.6c0.3,0,0.5,0.1,0.8,0.1c-0.2,0.4-0.3,0.7-0.5,1.1c-0.4-0.2-0.7-0.4-1-0.6c0.8-1.2,0.5-2.6,0.5-3.9
						c0-0.6,0.5-0.7,0.8-0.9C282.9,132.2,282.9,132.7,282.7,133.3z"/>
					<path id="f1_00000050654460102367955490000012691262916666913171_" class="st1" d="M282.6,120.7c0.2-0.3,0.2-0.4,0.3-0.5
						c-0.3-0.2-1.1,0.5-0.9-0.6c-0.8-0.2-1.6-0.4-2.4-0.6c-0.1,0.7-0.3,1.3-0.4,1.9c-0.1,0.5-0.4,0.7-1,0.9c0.1-0.9,0.1-1.7,0.3-2.4
						c0.1-0.6-0.6-0.6-0.5-1.1c0,0,0,0-0.1,0c0,0.1-0.1,0.3-0.2,0.4c-0.6-0.1-1.1-0.2-1.7-0.3c-0.2,1.4-0.4,2.7-0.5,4.1
						c-0.5-0.4-0.7-0.9-0.5-1.6c0.1-0.3,0.1-0.6,0.1-0.9c0.1-0.8,0.2-1.6,0.3-2.5c-0.9-0.1-1.6-0.2-2.5-0.2
						c-0.1,1.9-0.3,3.7-0.4,5.4c-0.7,0.1-1.2-0.4-1.1-1c0.1-1.2,0.2-2.4,0.3-3.6c0,0-0.1,0-0.1,0c-0.3,0.9-0.6,1.7-1,2.6
						c0,0-0.1,0-0.1,0c-0.1-1-0.1-2-0.2-3c-0.3,1.6-0.5,3.1-0.7,4.7c-0.1,0.6-0.2,1.1-0.3,1.7c-0.1,0.6,0,1.3-0.1,1.9
						c-0.3,1.3,0,2.4,0.9,3.3c0.2,0.2,0.3,0.5,0.3,0.7c0.1,3.8,0.1,7.7,0.2,11.5c0,0.6,0,1.2,0,1.8c0,0.2,0,0.4,0,0.6
						c1.2-0.2,1.2-0.3,1.3-1.3c0-0.3,0.1-0.5,0.1-0.8c0.3,0,0.5,0,0.7-0.1c0.4-1.7,0.7-3.4,1.1-5c1.1,0.1,1.1,0.1,1.3-0.9
						c0.1-0.2,0.1-0.5,0.2-0.7c-0.1-0.1-0.1-0.1-0.2-0.2c-0.3-0.2-0.5-0.4-0.8-0.6c0.3-0.2,0.6-0.4,1-0.5c0.4-0.1,0.6-0.4,0.8-0.8
						c0.5-1.9,1-3.7,1.6-5.6c0.2-0.7,0.4-1.4,0.6-2c0.7,0.1,1.3,0.3,1.9,0.4c0.1-0.4,0.2-0.7,0.3-0.9c0.1-1.6,1-2.4,2.5-2.7
						c0.5-0.1,0.9-0.3,0.9-0.9c0.4,0.2,0.7,0.3,1,0.5c0.1-0.3,0.2-0.6,0.3-0.9C284.5,120.7,283.7,120.1,282.6,120.7z M272.2,129.7
						c0,0-0.1,0-0.1,0c-0.3-0.7-1.2-1-1.1-2c0.5,0,0.9-0.1,1.3-0.1C272.3,128.3,272.2,129,272.2,129.7z M275.8,123
						c-0.1,0-0.2-0.2-0.2-0.4c0,0,0,0,0,0c0,0,0,0,0,0c0,0,0,0,0,0c0.5-0.2,0.9-0.4,1.4-0.6C277,122.6,276.3,123.2,275.8,123z"/>
					<path class="st1" d="M289.5,216c0.1-0.6-0.2-1.2-0.4-1.7c-0.3-0.5-0.5-1.1-0.9-1.6c-0.1-0.2-0.4-0.5-0.6-0.6
						c-0.7-0.4-1.4-0.7-2.3-1.1c0.3,0,0.5,0,0.8-0.1c-0.5-1.3-1.1-2.5-1.7-3.8c-0.2,0.7-0.4,1.2-0.7,1.9c-0.4-0.9-0.8-1.7-1.1-2.5
						c-0.2-0.8-0.7-1.2-1.6-1.3c-0.2,0-0.6-0.1-0.6-0.3c-0.3-0.7-0.5-1.5-0.8-2.2c0.3,0,0.5,0.1,0.8,0.1c-0.3-0.6-0.6-1.1-0.9-1.7
						c-0.3,0.4-0.5,0.7-0.9,1.1c-0.2-1.7-1.3-2.5-2.7-3c-0.4-0.1-0.6-0.4-0.7-0.8c-0.1-0.5-0.3-1.1-0.5-1.6c0,0-0.1,0-0.1,0
						c0,0.3,0,0.5,0,0.9c-0.1-0.3-0.2-0.5-0.3-0.7c-0.2,0-0.4,0.1-0.6,0.1c-0.2-0.8-0.3-1.5-0.5-2.3c0.2,0,0.4,0.1,0.6,0.1
						c-0.1-0.4-0.2-0.8-0.3-1.1c0,0,0,0-0.1,0l-1.8,3.5c0,1.4,0,2.9,0,4.3c0,2.2-0.1,4.3,0,6.5c0.1,1.1-0.5,1.9-1.1,2.7
						c-0.1,0.2-0.3,0.5-0.3,0.7c0,1.7,0,3.4,0,5.1c0,0.9,0,1.7,0,2.6c-0.5,0.1-0.9,0.2-1.4,0.3c0,0.4,0,0.8,0,1.2c0.8,0,1.6,0,2.5,0
						c0-0.3,0-0.6,0-0.9c0.4-0.1,0.8-0.1,1.2-0.2c0,0.5,0.1,1,0.1,1.5c0.8-0.1,1.6-0.2,2.5-0.3c-0.1-0.6-0.1-1.1-0.2-1.6
						c0.5-0.1,1.1-0.2,1.6-0.3c0,0.4-0.1,0.7-0.1,1c0,0,0.1,0,0.1,0c0.3-0.7,0.6-1.5,0.9-2.2c0.1,0,0.1,0,0.2-0.1
						c0.2,0.7,0.5,1.4,0.7,2.2c3.9-0.6,7.6-1.7,11.1-3.5C289.6,216.4,289.4,216.2,289.5,216z M274.9,201.5c0,0-0.1,0-0.1,0
						c-0.1-0.4-0.2-0.8-0.3-1.3c0.1,0,0.2,0,0.3-0.1c0,0.2,0.1,0.4,0.1,0.6c0,0.2,0.1,0.4,0.1,0.6
						C275,201.5,274.9,201.5,274.9,201.5z M277.3,216.3C277.2,216.3,277.2,216.4,277.3,216.3c-0.1,0-0.1,0-0.2,0
						c-0.2-0.5-0.3-0.9-0.5-1.5c0.1,0,0.2,0,0.2,0.1c0.2,0,0.4,0.1,0.5,0.1c0,0,0.1,0,0.1,0C277.4,215.5,277.3,215.9,277.3,216.3z
						 M280.4,213.5c0-0.2-0.1-0.3-0.1-0.5c0,0-0.1,0-0.1,0c-0.2,0.6-0.3,1.2-0.6,1.7c-0.6,1.2-0.6,2.2,0.5,3.1c0,0,0.1,0.1,0.1,0.2
						c-0.5,0.1-1,0.2-1.5,0.2c-0.3,0-0.8-0.6-0.8-0.9c0-0.7,0.1-1.4,0.1-2.1c0.2,0.1,0.5,0.1,1,0.2c-0.2-0.6-0.3-1.2-0.5-1.7
						c-0.1-0.2-0.1-0.5-0.2-0.7c-0.1-0.5-0.2-1.1-0.5-1.3c-0.3-0.2-0.9-0.1-1.3,0c-0.4,0-0.6-0.1-0.6-0.5c0-0.3-0.1-0.6-0.2-1
						c0.4,0,0.7,0,1.1,0c0-0.5-0.1-0.9-0.6-1.1c-1.1-0.5-1.2-1.2-0.6-2.2c0.4-0.6,1-0.8,1.6-1.2c0,0,0,0,0,0l0,0c0,0,0,0,0,0
						c0,0,0,0,0,0c-0.2-0.6,0-1.1,0.3-1.6c0,0,0,0,0,0c0,0,0.1-0.1,0.1-0.1c0,0,0,0,0,0c0,0,0-0.1,0.1-0.1c0,0,0,0,0-0.1
						c0,0,0,0,0-0.1c0,0,0.1-0.1,0.1-0.1c0,0,0,0,0,0c0,0,0.1,0.1,0.1,0.1c0,0,0,0,0,0.1c0,0,0,0,0,0.1c0,0,0,0,0,0.1c0,0,0,0,0,0.1
						c0,0,0,0.1,0,0.1c0,0,0,0,0,0c0,0,0,0.1,0,0.1c0,0,0,0,0,0c0,0,0,0.1,0,0.1c0,0,0,0,0,0c0,0,0,0.1,0,0.1c0,0,0,0,0,0
						c0,0,0,0.1,0,0.1c0,0,0,0,0,0c0,0,0,0.1,0,0.1c0,0,0,0,0,0c0,0,0,0.1-0.1,0.1c0,0,0,0,0,0c0,0,0,0.1-0.1,0.1c0,0,0,0,0,0
						c0,0,0,0.1-0.1,0.1c0,0,0,0,0,0c0,0-0.1,0.1-0.1,0.1c0,0,0,0,0,0c0,0-0.1,0-0.1,0.1c0,0,0,0-0.1,0c0,0-0.1,0-0.1,0.1
						c0,0,0,0-0.1,0.1c0,0,0,0-0.1,0.1c0,0-0.1,0-0.1,0.1c0,0,0,0,0,0c0,0,0,0,0,0c-0.2,0.3-0.4,0.7-0.6,1c-0.4,0.6-0.3,0.9,0.3,1.2
						c0.3,0.1,0.6,0.2,0.8,0.4c0.2,0.2,0.4,0.4,0.6,0.7c0.3,0.5,0.4,1.1,0.7,1.6c0,0.1,0.3,0.2,0.4,0.2c0.5,0,0.9,0,1.4-0.1
						C281.5,212.6,281.6,213.1,280.4,213.5z M283.3,211.8c0-0.1-0.1-0.2-0.1-0.3c-0.1-0.2-0.1-0.4-0.2-0.6c0-0.1-0.1-0.2-0.1-0.3
						c0.3,0.1,0.6,0.2,0.9,0.2c0.1,0,0.3,0.1,0.4,0.1c0.1,0,0.3,0.1,0.4,0.1C284.1,211.3,283.8,211.5,283.3,211.8z"/>
					<path class="st1" d="M273.9,193.3l0,0.1l-0.1,0.1l-0.2,0.3c0.2,0,0.5,0.1,0.7,0.1c0.1,0,0.4-0.1,0.4-0.2c0-0.3,0-0.6-0.1-0.8
						c-0.1-0.3-0.3-0.6-0.4-0.8C274.1,192.5,274.1,192.9,273.9,193.3z"/>
					<path class="st1" d="M316,148.3c-1.7,0.4-3.4,0.8-5,1.2c0.4-1,0.7-1.9,1.7-2.2c0.8-0.3,1.5-0.8,2.3-1.2
						c-0.7-1.2-1.4-2.3-2.1-3.4c-0.1-0.1-0.3-0.3-0.4-0.2c-0.6,0.2-1.2,0.4-1.8,0.7c-0.6,0.4-1.2,0.8-1.8,1.3
						c-1.2,0.9-2.5,1.7-3.7,2.6c0.2,0.3,0.3,0.6,0.6,1c-0.4,0-0.7,0-0.9,0.1c-0.9,0.5-1.8,1.1-2.6,1.6c-0.1,0.1-0.1,0.2-0.1,0.4
						c-0.5,0.3-1,0.6-1.5,0.9c-0.3-0.3-0.6-0.7-0.9-1c-0.2,0.1-0.4,0.3-0.6,0.4c0.6,0.5,1.5,0.6,1.9,1.4c-1.1,0.7-2.1,1.3-3.2,1.9
						c-0.2-0.3-0.5-0.5-0.7-0.8c-1.5,1.1-3,2.1-4.5,3.2c-0.1-0.3-0.1-0.5-0.2-0.7c-0.9,0.8-1.8,1.5-2.7,2.2c0.1,0.1,0.3,0.2,0.4,0.3
						c-0.2,0.1-0.4,0.3-0.6,0.4c0,0,0,0,0.1,0c0.3,0,0.7,0,1-0.1c0.3-0.2,0.6-0.3,0.8-0.5c0.3-0.2,0.6-0.2,0.9-0.3
						c0,0.1,0.1,0.1,0.1,0.2c-0.3,0.2-0.6,0.4-1,0.6c1.2,0.1,2.3,0.3,3.3,0.8c1.4-0.4,2.7-0.8,4.1-1.1c0.1,0.3,0.3,0.6,0.4,0.9
						c0.6-0.1,1.2-0.2,1.7-0.3c0.1,0,0.2,0,0.3,0c-0.2-0.4-0.4-0.7-0.7-1.1c0.3-0.1,0.5-0.2,0.8-0.2c0.6-0.1,0.9-0.4,0.8-1
						c-0.1-0.5,0.2-0.7,0.6-0.8c0.5-0.2,0.5,0.2,0.7,0.4c0.2,0.2,0.5,0.5,0.6,0.5c0.6-0.1,1.2-0.4,1.8-0.6c-0.4-0.2-0.6-0.4-0.9-0.6
						c0.1-0.3,0.1-0.6,0.2-0.9c-0.4,0.2-0.8,0.3-1.2,0.5c-0.1-0.2-0.3-0.3-0.5-0.6c0.7,0,1.3-0.1,1.9-0.1c0.1,0.2,0.1,0.4,0.1,0.6
						c0.7-0.2,1.3-0.5,2-0.7c1.2-0.4,1.2-0.4,1.9,0.6c0.5,0.7,0.4,0.6,1.1,0.1c1.1-0.9,2.1-2.1,3.7-2.2c0.9,0,1.9-0.3,2.9-0.5
						C316.9,150.6,316.5,149.4,316,148.3z M303.6,153.6c-0.2-0.2-0.3-0.3-0.6-0.6c0.5-0.2,1-0.5,1.6-0.7
						C304.5,152.9,304.4,153.5,303.6,153.6z M305,151.3c0.2-0.5,0.3-0.9,0.5-1.2c0.1,0,0.1,0,0.2,0c0.1,0.2,0.2,0.4,0.2,0.6
						C305.6,150.9,305.3,151,305,151.3z"/>
					<path class="st1" d="M318.4,175c0.2-0.4,0.4-0.7,0.6-1c-1.4-0.1-2.8-0.2-4.1-0.3c0.4-0.2,0.8-0.4,1.2-0.5
						c1.2-0.3,2.3-0.8,3.5-0.7c0.3,0,0.7-0.4,1.1-0.6c0,0,0,0,0-0.1c-0.2,0-0.4-0.1-0.6-0.1c0.1-0.9,0.1-1.7,0.2-2.7
						c-0.1-0.1-0.3-0.2-0.6-0.4c0.2,0,0.3,0,0.4,0c-0.1-0.7-0.1-1.3-0.2-2c0.2,0,0.3,0,0.5-0.1c-1.1-0.6-2.2-1.2-3.4-1.8
						c1.3-0.1,2.3-0.2,3.5-0.3c-0.1-0.9-0.2-1.7-0.3-2.5c-0.3,0-0.5,0-0.7,0.1c-0.1-0.8-0.3-1.5-0.4-2.3c-0.2,0-0.4,0-0.5,0
						c-1.2,0.3-2.4,0.5-3.6,0.8c-0.6,0.2-1,0-1.4-0.5c1.9-0.7,3.8-0.9,5.7-1.1c0-0.1,0-0.1,0-0.2c-0.9,0.1-1.8,0.2-2.7,0.2
						c0-0.1,0-0.1,0-0.2c0.8-0.4,1.6-0.7,2.6-1.2c-2.1,0.2-3.9,1.4-6.1,0.8c0.3-0.1,0.5-0.2,0.7-0.3c1.5-0.6,2.9-1.3,4.4-1.9
						c0.2-0.1,0.3-0.2,0.4-0.3c-0.2-0.1-0.3-0.2-0.5-0.3c0-0.1,0.1-0.1,0.1-0.3c-1.9,0.2-3.8,0.4-5.7,0.6c-0.5,0.1-1.1,0.1-1.6,0.2
						c-0.5,0.1-1,0.2-1.4,0.4c0,0.1,0,0.1,0,0.2c1-0.2,1.3,0.6,2,1c-1.5,0.4-2.8,0.8-4.2,1.2c-0.1-0.5-0.1-1-0.2-1.6
						c-0.6,0.4-1.2,0.5-1.7,0c-0.1-0.1-0.3,0-0.4,0.1c-1.2,0.4-2.4,0.9-3.6,1.3c-0.1,0-0.2,0-0.3,0c-0.5,0.2-1.1,0.4-1.6,0.7
						c0.7,0,1.3,0,2-0.1c1.2-0.1,2.4-0.1,3.5-0.4c0.6-0.1,1,0.1,1.5,0.4c-0.4,0.2-0.7,0.3-1,0.4c0.1,0.1,0.2,0.3,0.3,0.4
						c-0.3,0.1-0.6,0.2-0.9,0.3c0.4,0.1,0.8,0,1.1,0c0.3,0,0.7,0.2,1.1,0.3c-0.9,0.4-1.7,0.8-2.5,1.1c-0.6,0.2-0.9,0.4-0.8,1.1
						c0.1,0.4-0.1,0.7-0.6,0.7c-0.3,0.1-0.7,0.2-1,0.3c0.2,0.4,0.3,0.7,0.5,1c-0.6,0.1-1.2,0.3-1.8,0.4c-0.1-0.3-0.3-0.6-0.4-1
						c-0.2,0.1-0.4,0.1-0.5,0.2c0,0,0,0,0,0c0.8,2.2,0.8,4.6,0.1,6.9c0.6,0.1,1.2,0.3,1.8,0.4c-0.2,0.1-0.3,0.1-0.5,0.2
						c0.5,0.2,0.9,0.4,1.3,0.5c-0.3,1-1,1.9-0.3,2.9c-0.3,0-0.4,0-0.5,0c0.3,0.7,0.6,1.3,0.9,2.1c-0.9-0.1-1.9-0.8-2.3,0.7
						c0.9,0.2,1.8,0.5,2.7,0.8c-0.1-0.3-0.1-0.5-0.1-0.6c0.4,0,0.8,0,1.1-0.1c1.1-0.5,2.2-0.5,3.3,0c0.1,0,0.2,0.1,0.3,0.1
						c1.4,0.4,1.4,0.4,1.6,1.9c0,0.2,0.2,0.4,0.3,0.5c1.2,0.4,2.4,0.7,3.6,1.1c0.2,0.1,0.4,0.1,0.4,0.3c0.2,0.3,0.3,0.7,0.4,1.1
						c-1,0.2-2,0.4-3,0.6c0,0,0,0.1,0,0.1c1.2,0.4,2.5,0.8,3.8,1.3c0-0.3,0-0.5,0-0.8c1,0.1,2,0.3,3,0.4c0.4-0.9,0.4-0.9-0.3-1.6
						c-0.3-0.2-0.6-0.5-0.8-0.8c0-0.1,0.1-0.1,0.1-0.2c0.7,0.1,1.4,0.2,2.2,0.3c0,0,0-0.1,0-0.1c-0.4-0.2-0.8-0.3-1.3-0.5
						c0.3-0.2,0.5-0.3,0.8-0.5c-2-0.5-4-0.7-5.8-1.6c0.8,0.2,1.5,0.4,2.4,0.7c-0.2-0.7-0.4-1.2-0.6-1.8c0.4,0.1,0.6,0.2,0.9,0.3
						c0.5,0.3,1,0.6,1.5,0.8c0.5,0.2,1.1,0.3,1.7,0.5c0.2,0,0.3,0,0.5,0c0,0,0-0.1,0-0.1c-0.2-0.1-0.4-0.2-0.6-0.3
						c0.2-0.2,0.4-0.4,0.7-0.7c-0.6-0.2-1.1-0.3-1.7-0.5c0,0,0-0.1,0-0.1c0.8,0,1.5,0,2.1,0c0-0.4,0-0.7,0.1-1.1
						c0.1-0.4,0-0.7-0.3-1C319.2,175.7,318.8,175.3,318.4,175z M316.6,165.7c0.2,0,0.3,0,0.4,0.1c0.5,0.1,1,0.3,1.5,0.4
						c-0.2,0.3-1.3,0.5-2.1,0.3C316.4,166.2,316.5,166,316.6,165.7z M309.8,161.6c-1.1,0.6-1.4-0.7-2.1-0.9
						C308.7,159.9,309.5,160.3,309.8,161.6z M305.2,175.5c0.4-0.1,0.7-0.1,1.1-0.2c0,0,0-0.1,0-0.1c-0.6-0.1-1.1-0.2-1.8-0.3
						c1.7-0.5,2.7-0.6,3.2,0.6C306.9,176,306.1,175.7,305.2,175.5z M310.6,175.3c1.1-0.2,2.3,0.2,2.4,0.7
						C312.2,175.8,311.5,175.6,310.6,175.3z M313.6,171.6c-1.7-0.1-3.3,0-5,0c-0.1-0.5-0.1-1-0.2-1.6c-1,0.1-1.9,0.1-2.8,0.2
						c-0.2,0-0.5,0.1-0.7,0.1c-0.9,0-1.7,0.1-1.8,1.2c0,0.1-0.1,0.1-0.4,0.3c0.3-0.9,0.6-1.6,0.8-2.3c0.2-0.5,0.5-1,0.6-1.6
						c0.1-0.6,0.6-1.2,1.1-1.7c0.5-0.5,1.2-0.8,1.9-0.7c0.3,0,0.5,0,0.9-0.1c0,0.2,0.1,0.4,0.1,0.5c0.1,1,0.1,1,1.2,1
						c2.1,0,4.2,0,6.2,0c0.6,0,0.9,0.2,1.1,0.6c0.1,0.3,0.3,0.5,0.5,1c-1.3-0.3-2.5-0.5-3.7-0.7c0,0,0,0.1-0.1,0.1
						c0.4,0.3,0.8,0.5,1.2,0.8c1.1,0.9,2.3,1.3,3.7,1.1c0.4-0.1,0.9,0,1.3,0c0,0,0,0.1,0,0.1c-0.2,0-0.4,0.1-0.6,0.1
						c-1,0-2.1,0-3.2,0c0.2,0.3,0.3,0.6,0.5,0.9C315.5,171.3,314.6,171.7,313.6,171.6z"/>
					<path class="st1" d="M313.4,195.6c1.2-2.1,2.3-4.2,3-6.4c0.1-0.2-0.1-0.4-0.2-0.6c-1-1-2-1.9-2.9-2.9c-0.1-0.1-0.2-0.2-0.4-0.3
						c0.4,1.2,0.8,2.3,1.3,3.5c-0.5-0.3-0.9-0.5-1.3-0.7c-0.1-0.1-0.2-0.2-0.2-0.3c0.1-0.4-0.3-0.5-0.5-0.6
						c-2.2-0.8-4.3-1.5-6.5-2.3c-1.1-0.4-2.3-0.8-3.4-1.2c0-0.1,0-0.2,0.1-0.2c0.4,0.1,0.9,0.3,1.5,0.4c-0.4-0.8-0.3-1.9-1.6-2
						c0.5-0.2,0.9-0.3,1.4-0.5c-1.1-0.3-2-0.6-2.9-0.8c0-0.1,0-0.1,0-0.2c2.9,0.5,5.5,1.9,8.4,2.7c0-0.6-0.1-1.1-0.1-1.7
						c0.4,0,0.8,0.1,1.1,0.1c0,0,0,0,0,0c-2.6-0.7-5.2-1.4-7.8-2.2c-0.1,0.2-0.1,0.3-0.2,0.4c-2.1-0.4-4.2-0.9-6.2-1.3
						c-0.2,0-0.6,0-0.8,0.1c-0.4,0.2-0.8,0.2-1.2,0.1c-0.1,0-0.2-0.1-0.3-0.1c-1.2,0.7-2.4,1.2-3.7,1.6c0.2,0.2,0.4,0.3,0.6,0.5
						c0.1,0.1,0.3,0.2,0.3,0.2c0.6-0.4,0.9,0.1,1.2,0.4c0.4,0.4,0.9,0.4,1.4,0.2c0-0.2,0-0.4,0-0.7c1.5,0.8,3,1.5,4.5,2.3
						c-0.5,0.2-0.8,0.3-1.2,0.4c1,0.6,1.9,1.2,2.9,1.8c0.2-0.4,0.3-0.7,0.5-1c0.2,0.1,0.4,0.2,0.5,0.3c0.6,0.3,1.2,0.7,1.8,1
						c0.4,0.2,0.6,0.4,0.7,0.8c0.1,0.4,0.4,0.7,0.8,0.8c1.1,0.5,2.1,1.1,3.2,1.7c0.4,0.2,0.5,0.4,0.3,0.9c-1.5-0.8-3.1-1.6-4.7-2.4
						c0.2,0.5,0.3,0.8,0.5,1.3c-1.8-0.9-3.4-1.8-5.1-2.6c-0.3,0.8-0.5,1.5-0.8,2.3c1.3,0.9,2.6,1.9,4,2.8c-0.3,0-0.6,0.1-0.9,0.1
						c0.5,0.4,1,0.8,1.4,1.2c0.1,0.1,0.3,0.1,0.3,0.1c0.6-0.4,1.2-0.2,1.8-0.3c0.5-0.1,0.7,0.1,0.9,0.5c0.3,0.9,0.6,1.7,1,2.6
						c0.1,0.2,0.2,0.4,0.3,0.6c0.7-0.4,1.3-0.8,2-1.2c0.2,0.9-0.6,1.4-0.7,2.2c0.3,0.3,0.7,0.5,1.1,0.9c0-1,0-1.8,0-2.7
						c1.3,0.6,2.2,2,3.9,2c-0.9-1.2-1.7-2.3-2.5-3.4c0,0,0.1-0.1,0.1-0.1C311.1,194.2,312.2,194.9,313.4,195.6z"/>
				</g>
			</g>
		</g>
		<g>
			<path class="st1" d="M256,457c-110.8,0-201-90.2-201-201c0-110.8,90.2-201,201-201c110.8,0,201,90.2,201,201
				C457,366.8,366.8,457,256,457z M256,70.1C153.5,70.1,70.1,153.5,70.1,256S153.5,441.9,256,441.9S441.9,358.5,441.9,256
				S358.5,70.1,256,70.1z"/>
		</g>
	</g>
	<g id="Symmetric" class="st3">
		<path class="st2" d="M515,276.1c0,0-2.1-2.6-12.8-2.6c-10.8,0.1-130.9,0-130.9,0l27-50.1c0,0,42,0,59,0c18,0,29.5,5.8,41.1,24.4
			C507,261.9,509.4,266.1,515,276.1z"/>
		<path class="st2" d="M352,223.5c0,0-61,107.8-68,120.7c-7,12.9-11.6,16.5-11.5,28.2c0,11.7,2.4,29.7,28.2,29.5
			c0,0,126.7,0.1,138.6,0c10.1-0.1,13,1.7,12.8,5.1c-0.2,3.4-4.6,9.9-10.3,19.3c-2.4,3.9-5.1,8.5-7.7,12.8
			c-3.7,6.1-6.4,11.6-14.1,11.6c0,0-144,0.1-159.2,0c-18.3-0.1-25.4-3.4-37.2-24.4c-11.8-21-14-23.2-14.1-38.5
			c-0.1-15.3,3.8-19.2,14.1-37.2s45-78.9,57.8-100.1c12.8-21.2,26.9-27,44.9-27H352L352,223.5z"/>
		<path id="Shape_7_copy" class="st2" d="M260.8,489.2c0,0,2.1,2.6,12.8,2.6s130.9,0,130.9,0l-27,50c0,0-42,0-59,0
			c-18,0-29.5-5.8-41.1-24.4C268.8,503.3,266.4,499.1,260.8,489.2z"/>
		<path id="Shape_8_copy" class="st2" d="M423.9,541.8c0,0,61-107.8,68-120.6c7-12.9,11.6-16.5,11.5-28.2c0-11.7-2.4-29.6-28.2-29.5
			c0,0-126.7-0.1-138.6,0c-10.1,0.1-13-1.7-12.8-5.1c0.2-3.4,4.6-9.9,10.3-19.2c2.4-3.9,5.1-8.5,7.7-12.8
			c3.7-6.1,6.4-11.6,14.1-11.5c0,0,144-0.1,159.2,0c18.3,0.1,25.4,3.4,37.2,24.4c11.8,21,14,23.2,14.1,38.5
			c0.1,15.3-3.8,19.2-14.1,37.2s-45,78.9-57.8,100.1c-12.8,21.2-26.9,27-44.9,27L423.9,541.8L423.9,541.8z"/>
	</g>
</g>
</svg>
