<?xml version="1.0" encoding="utf-8"?>
<svg version="1.1" id="NFT" xmlns="http://www.w3.org/2000/svg" xmlns:xlink="http://www.w3.org/1999/xlink" x="0px" y="0px"
	 viewBox="0 0 512 512" style="enable-background:new 0 0 512 512;" xml:space="preserve">
<style type="text/css">
	.st0{fill:url(#bg_00000174593659996869043970000009856512351298455452_);}
	.st1{fill:#FFFFFF;}
	.st2{fill-rule:evenodd;clip-rule:evenodd;fill:#FFFFFF;}
	.st3{fill:url(#bg_00000039822414027420584760000007003094986613553542_);}
	.st4{fill:url(#bg_00000106140148384187523890000011760862184693520311_);}
</style>
<linearGradient id="bg_00000021114004930976318730000001977888361523949991_" gradientUnits="userSpaceOnUse" x1="-36.05923" y1="307.49792" x2="548.0592" y2="204.50208">
	<stop  offset="0" style="stop-color:#8349D1"/>
	<stop  offset="0.99441" style="stop-color:#4DA4A1"/>
</linearGradient>
<rect id="bg" style="fill:url(#bg_00000021114004930976318730000001977888361523949991_);" width="512" height="512"/>
<g id="Flowr">
	<g id="Flower">
		<g id="Stiel">
			<path class="st1" d="M248.9704,448.81058l-0.87141-4.1586c-6.45998-30.77914-15.3062-72.93317-15.02434-117.33914
				c0.44272-69.6615,13.32283-108.56894,14.79044-112.77548l8.56067,2.98538
				c-5.13995,14.73805-13.93231,54.45935-14.28427,109.84912c-0.27596,43.43347,8.45515,85.03854,14.83102,115.41776
				l0.87216,4.16449L248.9704,448.81058z"/>
		</g>
		<g id="Leaf1">
			<path class="st1" d="M253.61179,368.38165c-3.19917,4.38611-6.39835,8.77222-9.65712,13.24005
				c-1.52864-1.16351-3.17822-2.41913-4.94051-3.7605c1.78603-1.87759,3.42448-3.73795,5.20645-5.44885
				c6.69189-6.42511,13.51633-12.68826,21.49969-17.54364c7.7894-4.73743,15.95428-8.5549,24.90805-10.522
				c0.13107-0.02878,0.25879-0.07288,0.36292-0.32568c-1.43506,0.12479-2.87634,0.20059-4.30414,0.38229
				c-8.94754,1.13882-17.31921,4.13535-25.3526,8.10043c-3.72742,1.83978-7.3007,3.99179-10.94278,6.00421
				c-0.30081,0.16623-0.59326,0.34756-1.13568,0.4021c0.69853-1.86121,1.26118-3.78748,2.11656-5.57358
				c8.76131-18.2941,23.33153-27.90268,43.59038-28.21646c11.60001-0.17966,21.89505,3.9577,30.72424,11.5788
				c0.62207,0.53696,0.75464,0.99448,0.49026,1.79199c-0.94449,2.84888-1.58881,5.81223-2.71225,8.58414
				c-4.35031,10.73352-11.71133,18.88876-22.07297,24.005c-15.96234,7.88168-31.6626,6.93716-46.87985-2.27356
				c-0.14951-0.09052-0.2973-0.18393-0.44905-0.27048c-0.02536-0.01447-0.06691-0.00055-0.10097,0.00024
				C253.84555,368.48468,253.72867,368.43317,253.61179,368.38165z"/>
		</g>
		<g id="Leaf1_5_">
			<path class="st1" d="M227.91682,376.92886c3.83113,5.25256,7.66228,10.50513,11.56483,15.85556
				c1.8306-1.39337,3.80605-2.897,5.91646-4.50336c-2.13884-2.2485-4.10098-4.47635-6.23495-6.52527
				c-8.01385-7.69437-16.18642-15.19476-25.74684-21.00928c-9.32817-5.67328-19.10596-10.24487-29.82851-12.60056
				c-0.15697-0.03448-0.30992-0.08728-0.4346-0.39005c1.71854,0.14944,3.44455,0.2402,5.1544,0.45782
				c10.71507,1.3638,20.74051,4.95224,30.36084,9.70062c4.46376,2.20322,8.74294,4.78036,13.10449,7.19034
				c0.36023,0.19904,0.71046,0.4162,1.36002,0.48151c-0.83652-2.22888-1.51031-4.53568-2.53467-6.67459
				c-10.49207-21.90802-27.94054-33.41473-52.20145-33.7905c-13.89151-0.21515-26.22026,4.73953-36.79362,13.86612
				c-0.74496,0.64304-0.90373,1.19095-0.58711,2.146c1.13106,3.41165,1.90265,6.96042,3.24803,10.27991
				c5.20967,12.85388,14.02486,22.62012,26.43335,28.74704c19.11562,9.43869,37.9174,8.30756,56.14073-2.72269
				c0.17903-0.10837,0.35603-0.22025,0.53775-0.32388c0.03036-0.01733,0.08012-0.00067,0.12093,0.00031
				C227.63687,377.05225,227.77684,376.99057,227.91682,376.92886z"/>
		</g>
		<g id="Leaf3">
			<path class="st1" d="M248.22937,286.52393c-2.47968,2.39917-4.95935,4.79837-7.48523,7.24228
				c-0.83089-0.89462-1.72751-1.86005-2.68539-2.89139c1.32233-0.98181,2.55037-1.96884,3.85207-2.84671
				c4.88828-3.29672,9.84196-6.47763,15.36852-8.65112c5.39227-2.1207,10.91974-3.62454,16.7403-3.88397
				c0.08521-0.00381,0.16998-0.01755,0.26263-0.16455c-0.9122-0.0777-1.82297-0.18677-2.73682-0.22803
				c-5.72668-0.25854-11.29449,0.70874-16.75569,2.31931c-2.53394,0.74728-5.00528,1.70682-7.50452,2.5715
				c-0.20642,0.07141-0.40926,0.1532-0.75484,0.12845c0.63954-1.08963,1.20107-2.23477,1.93069-3.26035
				c7.47313-10.50446,17.64059-14.93912,30.36093-12.93552c7.28354,1.14725,13.28107,4.85611,17.98233,10.58734
				c0.33124,0.40381,0.36456,0.70474,0.1124,1.17542c-0.90082,1.68143-1.6261,3.46713-2.63065,5.08093
				c-3.88986,6.24899-9.38504,10.55646-16.4292,12.63501c-10.85168,3.20209-20.58078,0.90558-29.10966-6.51483
				c-0.08379-0.07291-0.1662-0.14746-0.25182-0.21811c-0.01431-0.01184-0.04184-0.00763-0.06326-0.01083
				C248.36456,286.6138,248.29697,286.56888,248.22937,286.52393z"/>
		</g>
		<g id="Leaf2">
			<path class="st1" d="M228.84354,292.79724c2.47968,2.3992,4.95935,4.79837,7.48523,7.24228
				c0.83089-0.89462,1.72752-1.86002,2.68539-2.89139c-1.32233-0.98181-2.55037-1.96884-3.85205-2.84671
				c-4.88829-3.29672-9.84198-6.47763-15.36852-8.65112c-5.39227-2.1207-10.91975-3.62451-16.74031-3.88397
				c-0.08522-0.00378-0.16998-0.01752-0.26263-0.16452c0.9122-0.07773,1.82298-0.18677,2.73682-0.22803
				c5.72668-0.25858,11.29451,0.70871,16.75569,2.31927c2.53394,0.74728,5.00528,1.70685,7.50453,2.5715
				c0.20641,0.07144,0.40924,0.15323,0.75482,0.12848c-0.63954-1.08966-1.20107-2.2348-1.93069-3.26038
				c-7.47313-10.50446-17.64059-14.93912-30.36095-12.93552c-7.28352,1.14725-13.28105,4.85614-17.98232,10.58737
				c-0.33124,0.40381-0.36458,0.70471-0.11241,1.17538c0.90083,1.68143,1.62613,3.46713,2.63068,5.08093
				c3.88983,6.24899,9.38504,10.55646,16.42918,12.63501c10.8517,3.20209,20.58076,0.90558,29.10966-6.51483
				c0.08379-0.07291,0.1662-0.14743,0.25182-0.21811c0.01431-0.01181,0.04184-0.00763,0.06326-0.0108
				C228.70834,292.88715,228.77594,292.84219,228.84354,292.79724z"/>
		</g>
		<g id="Leaf2_5_">
			<path class="st1" d="M241.18422,234.9743c0.78239,0.757,1.56477,1.51399,2.36176,2.2851
				c0.26216-0.28227,0.54506-0.58687,0.84729-0.91229c-0.41722-0.30978-0.80469-0.6212-1.21541-0.89819
				c-1.54236-1.04019-3.10535-2.04384-4.84909-2.72961c-1.70139-0.66913-3.44542-1.14362-5.28194-1.22548
				c-0.02689-0.00121-0.05362-0.00554-0.08286-0.05191c0.28781-0.02452,0.57518-0.05893,0.86353-0.07195
				c1.80688-0.08159,3.56366,0.22362,5.28677,0.73178c0.79951,0.23578,1.57927,0.53854,2.36784,0.81137
				c0.06512,0.02252,0.12912,0.04834,0.23816,0.04053c-0.20178-0.34381-0.37895-0.70512-0.60918-1.02872
				c-2.35793-3.31438-5.56598-4.71361-9.57953-4.08144c-2.29811,0.36198-4.19046,1.53221-5.67381,3.34055
				c-0.10451,0.12741-0.11502,0.22235-0.03546,0.37086c0.28423,0.53052,0.51308,1.09395,0.83003,1.60313
				c1.22733,1.97169,2.96118,3.3308,5.18376,3.98663c3.42395,1.01031,6.49368,0.28572,9.18472-2.05557
				c0.02644-0.02301,0.05244-0.04652,0.07945-0.06883c0.00452-0.00372,0.01321-0.0024,0.01997-0.0034
				C241.14156,235.00267,241.16289,234.98849,241.18422,234.9743z"/>
		</g>
		<g id="Logo">
			<g id="Head">
				<path class="st2" d="M267.47638,117.42343c-28.87379,0-52.27463,23.40106-52.27463,52.27484
					c0,28.87357,23.40083,52.27463,52.27463,52.27463s52.27463-23.40106,52.27463-52.27463
					C319.75101,140.82449,296.35016,117.42343,267.47638,117.42343z M267.47638,211.40451
					c-22.83484,0-41.51772-18.30539-41.70645-41.14021c0-0.18875,0-0.3775,0-0.56602c0-0.18874,0-0.37749,0-0.56622
					c0.18874-11.32294,9.43591-20.38136,20.5701-20.57034c11.5119,0,20.9476,9.43593,20.9476,20.94783
					c0.0661,0.11079,0.12976,0.21198,0.19543,0.3212c-0.00021-0.04468-0.00668-0.08778-0.00668-0.13246
					c0-11.51189,9.43591-20.94759,20.9476-20.94759c11.51166,0,20.9476,9.4357,20.9476,20.94759
					c0,1.31787-0.13782,2.60402-0.37415,3.85666C307.05191,194.75829,289.13831,211.40451,267.47638,211.40451z"/>
			</g>
			<g id="Eye_1_">
				<path class="st2" d="M254.26622,166.86732c-2.07597-3.20822-5.47295-5.47272-9.43593-5.47272
					c-3.01949-0.37749-6.22771,1.13225-7.35995,4.15172c-1.13225,3.0197,0,6.03896,1.88724,8.30368
					c2.45323,2.26472,6.03896,4.15173,9.81319,4.15173c1.50974,0,3.01949-0.3775,4.34047-0.94351
					c2.26472-1.50996,3.39697-4.15195,2.45346-6.79393C255.5872,169.13205,255.02119,167.99957,254.26622,166.86732z"/>
			</g>
			<g id="Nose">
				<path class="st2" d="M263.89066,190.07964c-0.56601,0.56602-0.94351,1.50975-0.56601,2.45325
					c0.94351,1.88724,3.58548,7.17143,3.58548,7.17143c0.18875,0.37726,0.3775,0.56601,0.3775,0.37726
					c0.18875,0,0.3775-0.18874,0.56622-0.37726l3.58551-7.17143c0.37747-0.9435-0.18875-2.07574-0.56601-2.45325
					C267.47638,186.68268,267.47638,186.68268,263.89066,190.07964z"/>
			</g>
			<g id="Eye">
				<path class="st2" d="M290.31119,161.39461c-3.96298,0-7.35992,2.2645-9.43591,5.47272
					c-0.75476,1.13225-1.32098,2.26472-1.69849,3.39697c-1.13223,2.64198,0.18875,5.28397,2.45346,6.79393
					c1.32101,0.75476,2.83075,0.94351,4.52924,1.13225c3.58548,0,7.1712-1.88722,9.62445-4.34047
					c1.88721-2.26472,3.01947-5.28419,1.88721-8.30368C296.53891,162.52686,293.33069,161.01712,290.31119,161.39461z"/>
			</g>
		</g>
	</g>
	<g>
		<path class="st1" d="M256,456.98166c-110.82162,0-200.98166-90.1593-200.98166-200.98166
			c0-110.82162,90.16003-200.98166,200.98166-200.98166c110.82236,0,200.98166,90.16003,200.98166,200.98166
			C456.98166,366.82236,366.82236,456.98166,256,456.98166z M256,70.12975C153.51105,70.12975,70.12975,153.51105,70.12975,256
			S153.51105,441.87024,256,441.87024S441.87024,358.48895,441.87024,256S358.48895,70.12975,256,70.12975z"/>
	</g>
</g>
</svg>
