<?xml version="1.0" encoding="utf-8"?>
<!-- Generator: Adobe Illustrator 26.0.1, SVG Export Plug-In . SVG Version: 6.00 Build 0)  -->
<svg version="1.1" xmlns="http://www.w3.org/2000/svg" xmlns:xlink="http://www.w3.org/1999/xlink" x="0px" y="0px"
	 viewBox="0 0 512 512" style="enable-background:new 0 0 512 512;" xml:space="preserve">
<style type="text/css">
	.st0{fill:url(#bg_00000126318534237198452910000012690479865747835555_);}
	.st1{fill:#FFFFFF;}
	.st2{fill-rule:evenodd;clip-rule:evenodd;fill:#FFFFFF;}
	.st3{opacity:0.1;}
	.st4{fill:url(#bg_00000109021969555419515580000013596104994781522338_);}
	.st5{fill:url(#bg_00000009557264278259057540000003594772857631669391_);}
	.st6{fill:#FCFCFC;}
	.st7{fill:url(#bg_00000104673462813676638950000000537229826007178147_);}
	.st8{fill:url(#bg_00000109752338461422459360000012281187734227844486_);}
	.st9{fill-rule:evenodd;clip-rule:evenodd;fill:#FCCDD3;}
	.st10{filter:url(#Adobe_OpacityMaskFilter);}
	.st11{mask:url(#mask-2_00000079477019141398897970000007225647416667991979_);fill-rule:evenodd;clip-rule:evenodd;fill:#6534FF;}
	.st12{fill-rule:evenodd;clip-rule:evenodd;fill:#FEFEFE;}
	.st13{fill-rule:evenodd;clip-rule:evenodd;fill:#6534FF;}
	.st14{fill:#8526D1;}
	.st15{fill:#D89738;}
	.st16{fill:#5D1B8F;}
	.st17{fill:#F2A738;}
	.st18{fill-rule:evenodd;clip-rule:evenodd;fill:#F9F9F9;}
	.st19{fill-rule:evenodd;clip-rule:evenodd;fill:#040404;}
	.st20{fill:#FEFEFE;}
	.st21{fill:#F0E20A;}
	.st22{fill:#EFE20A;}
	.st23{fill:#A1DE44;}
	.st24{fill:#FCA433;}
	.st25{fill:#FCAC68;}
	.st26{fill:#F74D7B;}
	.st27{fill:#9FDD46;}
	.st28{fill:#67D1BB;}
	.st29{fill:#FAAC8C;}
	.st30{fill:#FDE723;}
	.st31{fill:#FBAB4C;}
	.st32{fill:#FEF532;}
	.st33{fill:#EDE622;}
	.st34{fill:#5BD0DD;}
	.st35{fill:#B96CAE;}
	.st36{fill:#FBB32B;}
	.st37{fill:#FA9262;}
	.st38{fill:#D5709D;}
	.st39{fill:#9763B8;}
	.st40{fill:#FBDD0F;}
	.st41{fill:#D0EC26;}
	.st42{fill:#FCA036;}
	.st43{fill:#FACF2B;}
	.st44{fill:#D4E52B;}
	.st45{fill:#FCD713;}
	.st46{fill:#FDB83D;}
	.st47{fill:#E9E227;}
	.st48{fill:#CB7896;}
	.st49{fill:#FCD415;}
	.st50{fill:#C1E72E;}
	.st51{fill:#B6DF3A;}
	.st52{fill:#C8DE37;}
	.st53{fill:#C277B4;}
	.st54{fill:#ACE339;}
	.st55{fill:#E79762;}
	.st56{fill:#E77982;}
	.st57{fill:#FCFA68;}
	.st58{fill:#F6C82A;}
	.st59{fill:#B46CB1;}
	.st60{fill:#E1CE32;}
	.st61{fill:#F2C02E;}
	.st62{fill:#F8DB26;}
	.st63{fill:#C97B9F;}
	.st64{fill:#E6F40D;}
	.st65{fill:#D8DC35;}
	.st66{fill:#FDB73F;}
	.st67{fill:#FB7759;}
	.st68{fill:#EDDA2D;}
	.st69{fill:#DA8878;}
	.st70{fill:#EABC6F;}
	.st71{fill:#FDFDC8;}
	.st72{fill:#E8B380;}
	.st73{fill:#D8DB09;}
	.st74{fill:#E4D52E;}
	.st75{fill:#FCC91B;}
	.st76{fill:#FEFB8B;}
	.st77{fill:#F9D515;}
	.st78{fill:#DEE528;}
	.st79{fill:#FBC82E;}
	.st80{fill:#C25CA6;}
	.st81{fill:#FBC331;}
	.st82{fill:#FBB53E;}
	.st83{fill:#FC8E47;}
	.st84{fill:#9D63B7;}
	.st85{fill:#86C591;}
	.st86{fill:#78DEA5;}
	.st87{fill:#FBFCA1;}
	.st88{fill:#D87F7F;}
	.st89{fill:#FDF747;}
	.st90{fill:#E2CD31;}
	.st91{fill:#91E38C;}
	.st92{fill:#C5DD36;}
	.st93{fill:#FBB342;}
	.st94{fill:#D2BC7F;}
	.st95{fill:#65D6CC;}
	.st96{fill:#D5D809;}
	.st97{fill:#AEC383;}
	.st98{fill:#FBBB23;}
	.st99{fill:#F9DA24;}
	.st100{fill:#F9AC4C;}
	.st101{fill:#FBBF59;}
	.st102{fill:#E68B69;}
	.st103{fill:#F3A451;}
	.st104{fill:#FBF00E;}
	.st105{fill:#C9F5A2;}
	.st106{fill:#F9B229;}
	.st107{fill:#E9C745;}
	.st108{fill:#A2A2A2;}
	.st109{fill:#FDF10E;}
	.st110{fill:#F0FC0D;}
	.st111{fill:#010100;}
	.st112{fill:#FC8355;}
	.st113{fill:#FC8D48;}
	.st114{fill:#FCBB23;}
	.st115{fill:#FB9854;}
	.st116{fill:#FA6886;}
	.st117{fill:#FB6D6E;}
	.st118{fill:#E95790;}
	.st119{fill:#FB5D67;}
	.st120{fill:#6FCDA1;}
	.st121{fill:#79D278;}
	.st122{fill:#020101;}
	.st123{fill:#FAFD23;}
	.st124{fill:#E2FE38;}
	.st125{fill:#141304;}
	.st126{fill:#CB5DA2;}
	.st127{fill:#B063B1;}
	.st128{fill:#FC8D76;}
	.st129{fill:#E96F92;}
	.st130{fill:#FC8353;}
	.st131{fill:#FC8B4B;}
	.st132{fill:#FB7A86;}
	.st133{fill:#E3FD7C;}
	.st134{fill:#D8BF73;}
	.st135{fill:#DECA58;}
	.st136{fill:#B6EB2D;}
	.st137{fill:#C0D847;}
	.st138{fill:#A2E749;}
	.st139{fill:#BAF35A;}
	.st140{fill:#B6F180;}
	.st141{fill:#D8FB1A;}
	.st142{fill:#D6FA18;}
	.st143{fill:#FB736E;}
	.st144{fill:#96DE4B;}
	.st145{fill:#75CF83;}
	.st146{fill:#A2C87B;}
	.st147{fill:#8EDD54;}
	.st148{fill:#BDEF28;}
	.st149{fill:#B8EE29;}
</style>
<g id="MIVA:SYMM">
</g>
<g id="MIVA-FRACTION">
</g>
<g id="FRACTION-MIVA">
	
		<linearGradient id="bg_00000150074402699166824110000013862335259944208786_" gradientUnits="userSpaceOnUse" x1="-36.05923" y1="307.49792" x2="548.0592" y2="204.50208">
		<stop  offset="0" style="stop-color:#111111"/>
		<stop  offset="1" style="stop-color:#8349D1"/>
	</linearGradient>
	
		<rect id="bg_00000060008883970302430380000005591745387671652791_" style="fill:url(#bg_00000150074402699166824110000013862335259944208786_);" width="512" height="512"/>
	<g id="Flowr_00000134942729765007907730000015736540739982591408_">
		<g id="Flower_00000027566486471065094170000016841923368487267001_">
			<g id="Stiel_00000070080341482225393990000010152789932718817450_">
				<path class="st1" d="M248.9704,448.81058l-0.87141-4.1586c-6.45998-30.77914-15.3062-72.93317-15.02434-117.33914
					c0.44272-69.6615,13.32283-108.56894,14.79044-112.77548l8.56067,2.98538
					c-5.13995,14.73805-13.93231,54.45935-14.28427,109.84912c-0.27596,43.43347,8.45515,85.03854,14.83102,115.41776
					l0.87216,4.16449L248.9704,448.81058z"/>
			</g>
			<g id="Leaf1_00000169522144456157518060000012460019582263014030_">
				<path class="st1" d="M253.61179,368.38165c-3.19917,4.38611-6.39835,8.77222-9.65712,13.24005
					c-1.52864-1.16351-3.17822-2.41913-4.94051-3.7605c1.78603-1.87759,3.42448-3.73795,5.20645-5.44885
					c6.69189-6.42511,13.51633-12.68826,21.49969-17.54364c7.7894-4.73743,15.95428-8.5549,24.90805-10.522
					c0.13107-0.02878,0.25879-0.07288,0.36292-0.32568c-1.43506,0.12479-2.87634,0.20059-4.30414,0.38229
					c-8.94754,1.13882-17.31921,4.13535-25.3526,8.10043c-3.72742,1.83978-7.3007,3.99179-10.94278,6.00421
					c-0.30081,0.16623-0.59326,0.34756-1.13568,0.4021c0.69853-1.86121,1.26118-3.78748,2.11656-5.57358
					c8.76131-18.2941,23.33153-27.90268,43.59038-28.21646c11.60001-0.17966,21.89505,3.9577,30.72424,11.5788
					c0.62207,0.53696,0.75464,0.99448,0.49026,1.79199c-0.94449,2.84888-1.58881,5.81223-2.71225,8.58414
					c-4.35031,10.73352-11.71133,18.88876-22.07297,24.005c-15.96234,7.88168-31.6626,6.93716-46.87985-2.27356
					c-0.14951-0.09052-0.2973-0.18393-0.44905-0.27048c-0.02536-0.01447-0.06691-0.00055-0.10097,0.00024
					C253.84555,368.48468,253.72867,368.43317,253.61179,368.38165z"/>
			</g>
			<g id="Leaf1_00000175318969582314971560000004349161736019035834_">
				<path class="st1" d="M227.91682,376.92886c3.83113,5.25256,7.66228,10.50513,11.56483,15.85556
					c1.8306-1.39337,3.80605-2.897,5.91646-4.50336c-2.13884-2.2485-4.10098-4.47635-6.23495-6.52527
					c-8.01385-7.69437-16.18642-15.19476-25.74684-21.00928c-9.32817-5.67328-19.10596-10.24487-29.82851-12.60056
					c-0.15697-0.03448-0.30992-0.08728-0.4346-0.39005c1.71854,0.14944,3.44455,0.2402,5.1544,0.45782
					c10.71507,1.3638,20.74051,4.95224,30.36084,9.70062c4.46376,2.20322,8.74294,4.78036,13.10449,7.19034
					c0.36023,0.19904,0.71046,0.4162,1.36002,0.48151c-0.83652-2.22888-1.51031-4.53568-2.53467-6.67459
					c-10.49207-21.90802-27.94054-33.41473-52.20145-33.7905c-13.89151-0.21515-26.22026,4.73953-36.79362,13.86612
					c-0.74496,0.64304-0.90373,1.19095-0.58711,2.146c1.13106,3.41165,1.90265,6.96042,3.24803,10.27991
					c5.20967,12.85388,14.02486,22.62012,26.43335,28.74704c19.11562,9.43869,37.9174,8.30756,56.14073-2.72269
					c0.17903-0.10837,0.35603-0.22025,0.53775-0.32388c0.03036-0.01733,0.08012-0.00067,0.12093,0.00031
					C227.63687,377.05225,227.77684,376.99057,227.91682,376.92886z"/>
			</g>
			<g id="Leaf3_00000096057962020124962200000016834343755402626745_">
				<path class="st1" d="M248.22937,286.52393c-2.47968,2.39917-4.95935,4.79837-7.48523,7.24228
					c-0.83089-0.89462-1.72751-1.86005-2.68539-2.89139c1.32233-0.98181,2.55037-1.96884,3.85207-2.84671
					c4.88828-3.29672,9.84196-6.47763,15.36852-8.65112c5.39227-2.1207,10.91974-3.62454,16.7403-3.88397
					c0.08521-0.00381,0.16998-0.01755,0.26263-0.16455c-0.9122-0.0777-1.82297-0.18677-2.73682-0.22803
					c-5.72668-0.25854-11.29449,0.70874-16.75569,2.31931c-2.53394,0.74728-5.00528,1.70682-7.50452,2.5715
					c-0.20642,0.07141-0.40926,0.1532-0.75484,0.12845c0.63954-1.08963,1.20107-2.23477,1.93069-3.26035
					c7.47313-10.50446,17.64059-14.93912,30.36093-12.93552c7.28354,1.14725,13.28107,4.85611,17.98233,10.58734
					c0.33124,0.40381,0.36456,0.70474,0.1124,1.17542c-0.90082,1.68143-1.6261,3.46713-2.63065,5.08093
					c-3.88986,6.24899-9.38504,10.55646-16.4292,12.63501c-10.85168,3.20209-20.58078,0.90558-29.10966-6.51483
					c-0.08379-0.07291-0.1662-0.14746-0.25182-0.21811c-0.01431-0.01184-0.04184-0.00763-0.06326-0.01083
					C248.36456,286.6138,248.29697,286.56888,248.22937,286.52393z"/>
			</g>
			<g id="Leaf2_00000090295432331054021020000006933138556791120272_">
				<path class="st1" d="M228.84354,292.79724c2.47968,2.3992,4.95935,4.79837,7.48523,7.24228
					c0.83089-0.89462,1.72752-1.86002,2.68539-2.89139c-1.32233-0.98181-2.55037-1.96884-3.85205-2.84671
					c-4.88829-3.29672-9.84198-6.47763-15.36852-8.65112c-5.39227-2.1207-10.91975-3.62451-16.74031-3.88397
					c-0.08522-0.00378-0.16998-0.01752-0.26263-0.16452c0.9122-0.07773,1.82298-0.18677,2.73682-0.22803
					c5.72668-0.25858,11.29451,0.70871,16.75569,2.31927c2.53394,0.74728,5.00528,1.70685,7.50453,2.5715
					c0.20641,0.07144,0.40924,0.15323,0.75482,0.12848c-0.63954-1.08966-1.20107-2.2348-1.93069-3.26038
					c-7.47313-10.50446-17.64059-14.93912-30.36095-12.93552c-7.28352,1.14725-13.28105,4.85614-17.98232,10.58737
					c-0.33124,0.40381-0.36458,0.70471-0.11241,1.17538c0.90083,1.68143,1.62613,3.46713,2.63068,5.08093
					c3.88983,6.24899,9.38504,10.55646,16.42918,12.63501c10.8517,3.20209,20.58076,0.90558,29.10966-6.51483
					c0.08379-0.07291,0.1662-0.14743,0.25182-0.21811c0.01431-0.01181,0.04184-0.00763,0.06326-0.0108
					C228.70834,292.88715,228.77594,292.84219,228.84354,292.79724z"/>
			</g>
			<g id="Leaf2_00000062166042195022672930000005515580781061429637_">
				<path class="st1" d="M241.18422,234.9743c0.78239,0.757,1.56477,1.51399,2.36176,2.2851
					c0.26216-0.28227,0.54506-0.58687,0.84729-0.91229c-0.41722-0.30978-0.80469-0.6212-1.21541-0.89819
					c-1.54236-1.04019-3.10535-2.04384-4.84909-2.72961c-1.70139-0.66913-3.44542-1.14362-5.28194-1.22548
					c-0.02689-0.00121-0.05362-0.00554-0.08286-0.05191c0.28781-0.02452,0.57518-0.05893,0.86353-0.07195
					c1.80688-0.08159,3.56366,0.22362,5.28677,0.73178c0.79951,0.23578,1.57927,0.53854,2.36784,0.81137
					c0.06512,0.02252,0.12912,0.04834,0.23816,0.04053c-0.20178-0.34381-0.37895-0.70512-0.60918-1.02872
					c-2.35793-3.31438-5.56598-4.71361-9.57953-4.08144c-2.29811,0.36198-4.19046,1.53221-5.67381,3.34055
					c-0.10451,0.12741-0.11502,0.22235-0.03546,0.37086c0.28423,0.53052,0.51308,1.09395,0.83003,1.60313
					c1.22733,1.97169,2.96118,3.3308,5.18376,3.98663c3.42395,1.01031,6.49368,0.28572,9.18472-2.05557
					c0.02644-0.02301,0.05244-0.04652,0.07945-0.06883c0.00452-0.00372,0.01321-0.0024,0.01997-0.0034
					C241.14156,235.00267,241.16289,234.98849,241.18422,234.9743z"/>
			</g>
			<g>
				<path class="st2" d="M267.05106,210.94688c-22.6712-0.05768-41.20226-18.24696-41.38972-40.9312c0-0.18782,0-0.3756,0-0.56319
					c0-0.18777,0-0.3756,0-0.56337c0.18776-11.26614,9.38857-20.27917,20.46695-20.46718
					c11.45415,0,20.84254,9.38857,20.84254,20.84277c0.02713,0.04546,0.05362,0.08839,0.08023,0.13185v-51.95406
					c-28.67929,0.05838-51.90492,23.31709-51.90492,52.00999c0,28.69272,23.22563,51.95142,51.90492,52.0098V210.94688z"/>
				<path class="st2" d="M266.97079,199.68347c0.18784,0,0.37558-0.18784,0.56342-0.3754l3.5675-7.13542
					c0.37558-0.93881-0.18774-2.06537-0.56314-2.44093c-1.68997-1.68997-2.535-2.535-3.40344-2.535
					c-0.86841,0-1.76041,0.84503-3.54425,2.535c-0.56314,0.56313-0.93872,1.50212-0.56314,2.44093
					c0.93872,1.8777,3.56747,7.13542,3.56747,7.13542c0.13748,0.27483,0.27493,0.44908,0.33881,0.44908
					C266.95731,199.75716,266.97079,199.73376,266.97079,199.68347z"/>
				<path class="st2" d="M290.79297,161.13374c-0.30518,0-0.61038,0.0188-0.91403,0.0567
					c-3.94315,0-7.32306,2.25319-9.38861,5.44528c-0.75098,1.12665-1.31439,2.25337-1.68997,3.37993
					c-1.12656,2.62877,0.18784,5.25754,2.44113,6.75995c1.31439,0.75098,2.81659,0.93872,4.50656,1.12654
					c3.5675,0,7.13525-1.87779,9.5762-4.31873c1.87769-2.25337,3.00433-5.25772,1.87769-8.26198
					C296.18927,162.62073,293.50708,161.13374,290.79297,161.13374z"/>
				<path id="Eye_00000174567871488872841930000013688844038790485386_" class="st2" d="M254.01471,166.63577
					c-2.06557-3.19214-5.4455-5.44528-9.38861-5.44528c-3.00433-0.3756-6.19647,1.12657-7.32304,4.13091
					c-1.12657,3.00456,0,6.00867,1.87776,8.26204c2.44095,2.25336,6.00868,4.13091,9.76399,4.13091
					c1.50217,0,3.00433-0.3756,4.3187-0.93877c2.25337-1.5024,3.37993-4.13113,2.44116-6.75987
					C255.32907,168.88913,254.7659,167.76234,254.01471,166.63577z"/>
				<g>
					<path id="t5_00000056397744536530627050000015850057392713128834_" class="st1" d="M309.89926,198.42847
						c0.32034,0.05721,0.64072,0.11443,1.03342,0.18457c-0.10294,0.18233-0.17953,0.31804-0.28442,0.50381
						c-0.29742-0.21336-0.55487-0.39803-0.81229-0.5827C309.85706,198.49895,309.87814,198.4637,309.89926,198.42847z"/>
					<path id="t2_00000006709669447216516560000006704774889011242120_" class="st1" d="M285.43515,155.4389
						c0.09018,0.59964-0.61661,1.26389-1.44562,1.35989C284.50668,156.31232,284.9523,155.89314,285.43515,155.4389z"/>
					<path id="t1_00000116921183355800649390000013565715222833456531_" class="st1" d="M279.28513,147.52838
						c-0.18649,0.34525-0.29764,0.55101-0.40878,0.75679c-0.04419-0.00394-0.08835-0.00786-0.13254-0.0118
						c0.01331-0.24832,0.01682-0.49828,0.05701-0.74219C278.80429,147.50993,279.04895,147.52838,279.28513,147.52838z"/>
					<path id="m5_00000111154811749619590990000017698127171119926151_" class="st1" d="M270.25647,150.30629
						c0-0.99599,0-1.99199,0-2.98798c0.0592,0.00153,0.11841,0.00307,0.17761,0.00458c0,0.99629,0,1.99258,0,2.98886
						C270.37488,150.30994,270.31567,150.30812,270.25647,150.30629z"/>
					<path id="m4_00000063621606069526966340000015504989610313800837_" class="st1" d="M281.03516,194.81984
						c-1.01804-0.39462-1.01804-0.39462-1.6962-2.2123C280.01639,192.56828,280.35635,193.00546,281.03516,194.81984z"/>
					<path id="m3_00000109729550387994311810000018027928854476643210_" class="st1" d="M307.64117,178.19539
						c-1.31876,0.62032-2.56845,1.38097-4.05939,0.36656C304.9249,178.24434,306.16043,177.44234,307.64117,178.19539z"/>
					<path id="m2_00000090998709564917159090000007281991332316072626_" class="st1" d="M300.90298,147.36807
						c0.26477,0.46297,0.50604,0.88483,0.77307,1.35176c-0.6012,0.36879-1.16916,0.71718-1.7955,1.10136
						c-0.25333-0.39662-0.50467-0.79013-0.76279-1.19427C299.52481,148.33989,300.19122,147.86996,300.90298,147.36807z"/>
					<path id="m1_00000130608425896410096050000007230723949156728466_" class="st1" d="M286.88782,135.39464
						c0.39301,0.43443,0.71783,0.79347,1.09146,1.20648c-0.64963,0.13493-1.22009,0.25342-1.90646,0.39598
						C286.36264,136.42723,286.59949,135.96156,286.88782,135.39464z"/>
					<path id="j7_00000119805879249937856800000009556781269061850757_" class="st1" d="M276.84818,194.088
						c-0.1106-0.44986-0.20831-0.8472-0.30539-1.24208c0.28616-0.10736,0.55414-0.20789,0.88666-0.33263
						c0.4682,1.06621,0.93396,2.12682,1.41833,3.2298c0.59207-0.31563,0.8389,0.00723,1.05066,0.50444
						c0.23151,0.54366,0.53381,1.05716,0.83228,1.63614c-0.25461,0.1331-0.48984,0.25613-0.77142,0.40337
						c0.26694,0.63521,0.52969,1.26027,0.8194,1.9496c-0.90314-0.23891-1.59396-0.57948-1.67688-1.60133
						c-0.2489,0.08644-0.42581,0.14786-0.64026,0.22234c0.06805,0.22545,0.12799,0.42404,0.23346,0.77353
						c-0.49792-0.23433-0.88235-0.41524-1.41916-0.66786c0.3725-0.21584,0.58072-0.33647,0.82501-0.478
						c-0.20609-0.73395-0.41296-1.47069-0.62686-2.23244c-0.22366,0.0451-0.41125,0.08295-0.67331,0.13577
						c-0.17291-0.8214-0.34143-1.62198-0.52353-2.48711C276.5033,193.9754,276.64581,194.02193,276.84818,194.088z"/>
					<path id="j6_00000008836885776856523970000000033802700410036124_" class="st1" d="M286.01089,200.38176
						c-0.57495-0.29652-1.14981-0.59319-1.72495-0.88931c-0.07022-0.03615-0.13846-0.08568-0.21344-0.10168
						c-1.40576-0.30014-1.67764-1.49969-2.11377-2.63809c0.54953-0.22803,1.07468-0.44594,1.66254-0.68987
						c0.84769,1.39363,1.68231,2.76576,2.51691,4.13788C286.09576,200.26105,286.05334,200.3214,286.01089,200.38176z"/>
					<path id="j5_00000071526434426653103930000005163794991580742306_" class="st1" d="M310.14136,200.33379
						c-1.79752-0.71777-3.63864-1.34573-5.37503-2.18935c-0.93857-0.45598-1.70197-1.27557-2.53723-1.94016
						c-0.53967-0.42938-1.06635-0.87506-1.64896-1.35471c0.52353-0.28154,0.97858-0.55905,1.46347-0.76691
						c0.14468-0.06201,0.41766,0.01424,0.55634,0.12321c2.37949,1.87013,4.74725,3.75519,7.11703,5.63762
						c0.16629,0.13208,0.32855,0.26926,0.49268,0.40405C310.18689,200.27629,310.16412,200.30504,310.14136,200.33379z"/>
					<path id="j4_00000147191391889465193030000007831386630584209802_" class="st1" d="M289.05682,154.30566
						c-0.98383,0.69637-1.96738,1.3931-2.95184,2.0885c-0.09521,0.06725-0.19617,0.1264-0.39667,0.11282
						c0.07867-0.117,0.13547-0.26031,0.2395-0.34682c0.79102-0.65767,1.58069-1.31807,2.39761-1.94254
						c0.16336-0.12488,0.44165-0.09946,0.66693-0.14333C289.02719,154.15143,289.04199,154.22855,289.05682,154.30566z"/>
					<path id="j3_00000070802916910938615650000002405837055835496853_" class="st1" d="M280.22922,154.86624
						c0.4765-0.89787,0.95932-1.79248,1.42688-2.69501c0.23193-0.44769,0.51251-0.86484,0.41376-1.44113
						c-0.04086-0.23846,0.21634-0.528,0.40939-0.95055c0.06146,0.45775,0.10123,0.75406,0.15912,1.18549
						c0.19983-0.32133,0.31659-0.56819,0.48923-0.7664c0.11987-0.13768,0.31659-0.20844,0.47897-0.3091
						c0.03931,0.05699,0.07858,0.11397,0.11786,0.17096c-0.17532,0.27235-0.35062,0.54472-0.53537,0.83174
						c0.64417,0.23521,0.60861-1.03708,1.35944-0.53551c-0.10718,0.15274-0.20599,0.29359-0.3692,0.52617
						c0.45935-0.12198,0.83353-0.22136,1.20776-0.32074c0.0321,0.06824,0.06421,0.13646,0.09631,0.2047
						c-1.7215,1.38271-3.44296,2.76544-5.16446,4.14816C280.289,154.89876,280.25909,154.88249,280.22922,154.86624z"/>
					<path id="j2_00000001645308499740517160000013512417579603672231_" class="st1" d="M285.70703,143.39857
						c-0.67554,0.96539-1.3511,1.9308-2.06219,2.94696c0.2587,0.02025,0.44849,0.03511,0.63901,0.05002
						c-0.28787,0.82274-2.77887,3.60924-3.23959,3.58751c0.18518-0.306,0.36249-0.59898,0.53979-0.89197
						c-0.05731-0.04884-0.11459-0.0977-0.17188-0.14655c-0.33334,0.41766-0.66669,0.83533-1.00003,1.25301
						c-0.06488-0.0453-0.12976-0.09059-0.19467-0.13589c0.19312-0.39233,0.3862-0.7847,0.57928-1.17703
						c-0.04037-0.00722-0.08072-0.01443-0.12106-0.02164c0.01517-0.25865-0.01794-0.5323,0.05667-0.77248
						c0.11658-0.37538,0.31979-0.72289,0.46039-1.09207c0.11456-0.3008,0.25256-0.50934,0.62723-0.51111
						c0.12805-0.00061,0.29749-0.16756,0.375-0.30093c0.24832-0.42732,0.49283-0.86176,0.68399-1.3165
						c0.52451-1.24776,1.63208-1.42239,2.73422-1.6217C285.64447,143.29831,285.67575,143.34845,285.70703,143.39857z"/>
					<path id="j1_00000153689542569311041860000013443878646308964500_" class="st1" d="M273.95743,142.5546
						c-0.08597,0.47955-0.15796,0.881-0.23685,1.32089c0.15305,0.03503,0.29474,0.06744,0.48148,0.11018
						c-0.10095,0.37875-0.215,0.73306-0.28381,1.09596c-0.03409,0.17998,0.01501,0.37572,0.02649,0.56432
						c0.12555-0.12389,0.25107-0.24777,0.37659-0.37166c0.04343-0.00035,0.08688-0.00073,0.13034-0.00108
						c-0.14221,0.82309-0.18021,1.68297-0.45435,2.45947c-0.3056,0.86568-0.8259,1.65553-1.33881,2.64426
						c-0.19412-0.26506-0.44131-0.44624-0.44812-0.63603c-0.06659-1.85793-0.05511-3.71922-0.15012-5.57524
						c-0.03693-0.7211,0.17545-1.0985,0.87088-1.24982C273.2522,142.84598,273.55646,142.69876,273.95743,142.5546z"/>
					<path id="f9_00000138550911277018408860000012164775310601454220_" class="st1" d="M297.27701,208.52277
						c-1.09296-1.35922-2.20239-2.7052-3.30295-4.0583c-0.89444-1.09969-1.78625-2.20157-2.78134-3.42841
						c0.48572,0.13779,0.81131,0.23015,1.27823,0.36261c-0.85678-1.0625-1.62009-2.00906-2.43582-3.02063
						c0.55719-0.0641,1.01352-0.11661,1.57797-0.18155c-1.11084-1.18942-2.14197-2.2935-3.1778-3.4026
						c-0.18933,0.2119-0.32739,0.36639-0.48871,0.54694c-0.55981-0.68367-1.09586-1.31767-1.60638-1.97159
						c-0.21536-0.27586-0.40961-0.45239-0.79062-0.29112c-0.11639,0.04927-0.35764-0.0193-0.44736-0.11888
						c-0.22931-0.2545-0.40549-0.55684-0.67212-0.93925c0.37241,0.07767,0.61118,0.12746,0.95636,0.19945
						c-0.54388-0.68169-1.02127-1.28006-1.548-1.9402c0.41226-0.10033,0.75485-0.18367,1.09741-0.26703
						c0.02878-0.05934,0.05756-0.11868,0.08627-0.17804c-0.25351-0.15483-0.50699-0.30966-0.76639-0.46806
						c0.19955-0.17947,0.29459-0.26494,0.41177-0.37032c-0.13904-0.11533-0.2663-0.18636-0.34625-0.29292
						c-0.4823-0.64253-1.38745-0.79309-1.71091-1.71199c-0.16196-0.46007-0.98163-0.69312-1.17749-1.33859
						c-0.008-0.02634-0.06723-0.03699-0.10242-0.05524c-0.71832-0.37193-1.43661-0.74393-2.30936-1.19589
						c0.1116,0.22801,0.14453,0.29799,0.17972,0.36682c0.79141,1.5473,1.58649,3.0928,2.36935,4.64444
						c0.07645,0.1515,0.10599,0.34026,0.10934,0.51265c0.01263,0.64578-0.02155,1.30626,0.84976,1.44745
						c0.04608,0.00746,0.09381,0.07387,0.12015,0.12372c0.31741,0.6008,0.63092,1.20366,0.99527,1.90135
						c-0.35712-0.1485-0.58072-0.24142-0.91415-0.38007c0.16565,0.35896,0.2764,0.59895,0.3862,0.83688
						c0.25586-0.06036,0.44424-0.10483,0.68198-0.16096c0.33298,0.64359,0.65109,1.27719,0.99014,1.89937
						c0.07468,0.13702,0.20395,0.28136,0.34265,0.33847c0.26535,0.10931,1.2435,1.48238,1.19464,1.75511
						c-0.01334,0.07413-0.05423,0.1584-0.10953,0.2076c-0.57364,0.51015-0.37946,1.01756-0.03784,1.5607
						c0.24738,0.39333,0.35773,0.90904,0.97147,0.88702c0.86176-0.03091,1.3923,0.41237,1.70853,1.17517
						c0.04504,0.10858,0.15549,0.19806,0.17548,0.3074c0.04617,0.25224,0.11087,0.52148,0.06592,0.76498
						c-0.05957,0.32268-0.21655,0.62732-0.36719,1.03607c-0.37961-0.62407-0.79163-1.14737-1.03738-1.73962
						c-0.42841-1.03249-1.27621-1.08282-2.2485-1.12575c0.51462,1.0058,1.00229,1.95901,1.53198,2.99423
						c-0.84958-0.04175-1.4473-0.16159-1.76666-0.96629c-0.35876-0.90402-0.71613-1.91629-2.19162-1.63701
						c0.27997-0.40511,0.49515-0.64218,0.61496-0.92033c0.06226-0.14442,0.01801-0.46654-0.08502-0.52736
						c-0.42786-0.25264-0.89645-0.43634-1.50534-0.71689c0.72687,1.70032,1.43164,3.20464,2.00952,4.75621
						c0.33221,0.89195,0.81302,1.39594,1.78452,1.49048c0.66946,0.06514,0.8605,0.49408,0.63284,1.1528
						c-0.23721,0.68623-0.48404,1.36916-0.74426,2.10312c0.44156,0.09343,0.84457,0.1768,1.2467,0.26418
						c0.89511,0.19452,0.89496,0.19533,0.97531,0.56029c-0.60373,0.04518-1.2059,0.09026-1.871,0.14003
						c0.17609,0.47464,0.32184,0.86758,0.47928,1.29195c0.47443-0.28883,0.86356-0.57079,1.29187-0.76718
						c0.20926-0.09595,0.52603-0.1144,0.73441-0.02646c0.71112,0.30011,1.39529,0.66396,2.09055,1.00179
						c0.68335,0.33202,1.22549,1.25998,1.18524,2.01398c-0.04166,0.77995-0.07309,1.56044-0.11069,2.37814
						c1.20447-0.25803,0.33508-1.19278,0.68094-1.70779c0.08917,0.11102,0.17569,0.21872,0.33517,0.41714
						c0.04465-0.72629,0.08237-1.34045,0.12936-2.10478c0.78757,0.47845,1.4566,0.8849,2.07394,1.25995
						c0.40265-0.26317,0.7171,0.38531,1.03473,0.30287c0.49796-1.31082,1.45615-1.8378,2.77356-1.89909
						C298.48196,210.47925,298.01065,209.43515,297.27701,208.52277z M288.87918,203.89961
						c0.32028-0.25166,0.61945-0.48674,0.96237-0.7562c0.30939,0.50735,0.59341,0.97314,0.87744,1.43893
						C290.09515,204.40182,289.34158,204.62622,288.87918,203.89961z"/>
					<path id="f7_00000044863919140932268300000002152630017510770836_" class="st1" d="M306.52545,200.83664
						c0.62491,0,1.16092,0,1.6969,0c-0.49649-0.4906-1.0766-0.80943-1.535-1.25381
						c-0.96017-0.93079-1.88339-1.02698-2.86884-0.07947c-0.0694,0.06674-0.16327,0.12297-0.2554,0.14709
						c-0.10342,0.0271-0.25616,0.06018-0.32159,0.00806c-0.69794-0.55589-1.38281-1.1282-2.07126-1.696
						c0.02191-0.0338,0.04379-0.0676,0.0657-0.10139c0.2496,0.10162,0.49921,0.20325,0.90817,0.36975
						c-2.51437-2.26695-5.26892-3.98166-7.36661-6.44882c-0.23703-0.27878-0.56662-0.47891-0.8533-0.71552
						c0.78693,0.11662,1.49847,0.34869,2.21521,0.5636c0.10962,0.03288,0.24298-0.01341,0.54303-0.03714
						c0.72336,0.58887,1.61038,1.31853,2.50778,2.03517c0.17947,0.14336,0.39926,0.3372,0.59927,0.33578
						c0.71945-0.00504,1.43839-0.08368,2.31433-0.14558c-0.30798-0.23067-0.47385-0.36125-0.64606-0.48279
						c-1.2464-0.87975-2.48163-1.77617-3.74765-2.62682c-0.48682-0.32709-0.93402-0.66766-1.57074-0.84361
						c-0.86752-0.23972-1.61459-0.91528-2.47739-1.44316c0.431-0.14372,0.76028-0.25356,1.23309-0.41124
						c-1.67139-0.86739-3.2178-1.66989-4.8071-2.49467c-0.02448,0.14861-0.0293,0.22452-0.05017,0.29573
						c-0.06021,0.20535-0.09796,0.56436-0.19675,0.58278c-0.26172,0.04877-0.5571-0.02707-0.82666-0.09953
						c-0.14383-0.03867-0.26208-0.17273-0.39157-0.26422c-0.74637-0.5274-0.74634-0.52745-1.59238,0.08954
						c0.19321,0.21378,0.38461,0.42555,0.60809,0.67278c-0.39462,0.08992-0.73166,0.16672-1.13272,0.25813
						c0.51968,0.65079,0.99078,1.24077,1.51913,1.9024c-0.35394-0.08429-0.60086-0.14311-0.84775-0.20192
						c0.45081,0.50859,0.4725,1.58327,1.54245,1.15022c0.02457-0.00996,0.08032,0.02074,0.10303,0.04793
						c0.47333,0.56688,0.944,1.136,1.41516,1.70468c-0.03992,0.0676-0.07977,0.13519-0.11963,0.20279
						c-0.29852-0.03716-0.59702-0.07431-0.9408-0.11707c0.33417,0.4649,0.65567,0.91223,1.05209,1.46379
						c0.0596-0.35744,0.09418-0.56479,0.14301-0.85767c0.28607,0.15239,0.60004,0.22089,0.74097,0.41499
						c0.30661,0.42239,0.71674,0.59186,1.18515,0.71323c0.36386,0.09427,0.75104,0.16466,1.06912,0.34773
						c0.23679,0.13628,0.40665,0.41957,0.55588,0.66771c0.12704,0.21126,0.12366,0.51776,0.2789,0.69244
						c0.76001,0.85506,1.55383,1.68008,2.33511,2.51511c-0.27338,0.32874-0.46765,0.22827-0.69565-0.01888
						c-0.92249-1.00003-1.85974-1.9864-2.85849-3.04904c-0.08994,0.61345-0.39059,0.88158-1.15634,0.79994
						c0.77618,0.52907,0.5675,1.02518,0.33658,1.52455c-0.04141,0.08957-0.06915,0.18558-0.10135,0.27924
						c-0.19043,0.55363-0.07684,0.74593,0.51517,0.85605c0.44806,0.08336,0.90414,0.13342,1.34378,0.24777
						c0.22949,0.05969,0.49185,0.17635,0.63641,0.35197c2.129,2.586,4.24481,5.18289,6.34448,7.79269
						c0.10883,0.13524,0.12384,0.44688,0.04623,0.61258c-0.25128,0.53673-0.57733,1.03793-0.84882,1.56607
						c-0.06952,0.13525-0.11285,0.35699-0.04898,0.47382c0.17706,0.32382,0.41696,0.61327,0.65704,0.95157
						c0.32693-0.24745,0.58603-0.5007,0.89279-0.66489c0.86472-0.46278,1.29236-1.10165,0.99304-2.10597
						c-0.04407-0.14795-0.05353-0.32138-0.0238-0.47211c0.03296-0.16716,0.10004-0.42888,0.20468-0.45746
						c0.16846-0.04601,0.42535,0.01111,0.56122,0.12471c0.15469,0.12941,0.21759,0.36856,0.32846,0.57504
						c0.65799-0.64886,1.05508-1.2455,1.88986-1.05891c-0.08817-0.30611-0.14545-0.50491-0.22787-0.79117
						c0.63626,0.30821,0.98682,0.01717,1.31232-0.41081c0.28735-0.37779,0.60379-0.73784,0.94086-1.07196
						c0.24576-0.24359,0.22797-0.44089,0.07208-0.72443C307.27255,202.33891,306.92981,201.62994,306.52545,200.83664z
						 M305.59824,202.15697c-0.28857-0.40074-0.57715-0.8015-0.94083-1.30653c0.3764,0,0.62427,0,0.91544,0
						c0.0495,0.43663,0.09625,0.8488,0.14301,1.26096C305.67667,202.12657,305.63742,202.14177,305.59824,202.15697z"/>
					<path id="f3_00000047039690876512742890000009782527006768415667_" class="st1" d="M310.15656,139.75838
						c-0.91727,0.3456-1.85034,0.64926-2.77707,0.96971c-0.01196-0.02856-0.0239-0.05711-0.03583-0.08565
						c0.53244-0.38011,1.06485-0.76021,1.59729-1.1403c-0.01883-0.03346-0.03766-0.06689-0.05652-0.10037
						c-0.52136,0.1355-1.04272,0.271-1.68262,0.43729c0.77594-0.94095,1.46631-1.77817,2.16376-2.62399
						c-0.13235-0.18794-0.23083-0.36043-0.36008-0.50557c-0.53812-0.60449-0.99207-1.34984-1.65231-1.76379
						c-0.90631-0.56825-1.85703-1.05321-2.57101-1.86896c-0.37994-0.43413-0.71078-0.29692-1.11108-0.0336
						c0.1889,0.16132,0.33951,0.28998,0.5466,0.46681c-1.26096,0.2074-2.74637-0.30882-3.27234,1.36044
						c1.09116-0.08627,2.04211-1.02472,3.33572-0.5849c-1.5755,1.69188-3.0943,3.32288-4.72836,5.07765
						c1.0351-0.21873,1.89627-0.40071,2.7529-0.58171c0.1347,0.51013,0.20319,0.17696-1.048,1.54852
						c-0.82941,0.90921-1.76218,0.49161-2.5925,0.56688c0.08185-0.42004,0.18396-0.8037,0.2258-1.1938
						c0.05493-0.51186,0.04321-1.03093,0.09988-1.5425c0.02185-0.19727,0.09839-0.46461,0.24258-0.55969
						c0.85587-0.56432,1.01947-1.32272,0.75748-2.25716c-0.07898-0.28157-0.07117-0.58955-0.08521-0.88628
						c-0.00613-0.12999-0.01569-0.31013,0.05902-0.38539c0.45151-0.45479,0.78796-1.02756,1.49298-1.2092
						c0.79114-0.20383,1.55533-0.51236,2.33124-0.77533c-0.02005-0.07324-0.0401-0.1465-0.06015-0.21974
						c-0.8262-0.11412-1.47119,0.56482-2.24783,0.66762c0.02332-0.0513,0.04663-0.10262,0.06995-0.15393
						c-0.35529-0.13013-0.71057-0.26025-1.16809-0.42781c0.22968-0.73795,0.46271-1.48676,0.73608-2.36511
						c-0.06165-0.01538-0.26263-0.0704-0.46594-0.11449c-0.13025-0.02821-0.31848,0.00874-0.38727-0.06766
						c-0.41467-0.4608-0.80237-0.94589-1.27917-1.51916c-0.00516-0.00059-0.18164-0.02069-0.26459-0.03014
						c-0.12015,0.32312-0.17099,0.61902-0.32407,0.84595c-1.02963,1.52629-2.07455,3.04243-3.1272,4.55299
						c-0.98135,1.40826-1.97845,2.80553-2.9888,4.23622c-0.85638-0.68454-1.66837-1.33356-2.51413-2.00958
						c-0.24426,0.44411-0.45779,0.83234-0.73221,1.33125c-0.22208-0.28047-0.39929-0.50427-0.60159-0.75972
						c-0.29279,0.52676-0.51016,1.01956-0.82208,1.44264c-0.20279,0.27507-1.23709,0.28015-1.47028,0.07329
						c-0.23975,0.54448-0.47708,1.0835-0.72467,1.64575c-0.35834-0.20833-0.68747-0.39966-1.01657-0.59099
						c-0.03961,0.04582-0.07922,0.09166-0.11884,0.13748c0.09198,0.1071,0.16455,0.24663,0.27951,0.31538
						c0.39069,0.23375,0.78342,0.47261,1.2001,0.65215c0.39786,0.17145,0.60788,0.38803,0.37939,0.83629
						c0.38174,0.0723,0.70956,0.13438,1.06714,0.2021c-0.39859,0.69023,0.43777,0.88698,0.49799,1.39229
						c-0.54163,0.77719-1.08536,1.55739-1.62906,2.33755c0.03516,0.04985,0.07028,0.09969,0.1055,0.14954
						c0.40714-0.09767,0.99475-0.05992,1.18839-0.31787c0.63989-0.85251,1.6138-0.90523,2.40491-1.28925
						c0.55872,0.66736,0.23004,1.17992-0.16431,1.71463c0.64584-0.22841,1.29166-0.45682,2.01572-0.71288
						c-0.12137-0.24234-0.22379-0.44682-0.28204-0.56325c0.63446-0.76346,1.20816-1.4937,1.82477-2.18567
						c0.79138-0.88811,1.61362-1.7489,2.43307-2.61148c0.09869-0.10393,0.26123-0.20265,0.39703-0.20662
						c0.70331-0.02057,1.40759-0.00955,2.11157-0.00955c0.01453,0.05653,0.02908,0.11307,0.04364,0.16962
						c-1.53973,1.65454-3.0795,3.3091-4.68256,5.03171c0.36658,0.06926,0.6232,0.08781,0.8588,0.16814
						c0.59793,0.20387,1.03497,0.01874,1.42331-0.45805c0.70697-0.86807,1.80154-0.76935,2.75241-1.05798
						c-0.55658,0.60327-1.15619,1.1441-1.72516,1.71548c-0.19394,0.19475-0.31082,0.46625-0.44815,0.67975
						c-1.23276,0.21419-1.61127,1.59309-2.67044,2.10619c-0.28748-0.74741-0.56857-1.47835-0.88345-2.29709
						c-0.64066,0.78703-1.23822,1.49452-1.80304,2.22725c-0.24335,0.3157-0.46173,0.4285-0.84137,0.2186
						c-0.13858-0.07663-0.46701-0.06551-0.53851,0.03133c-0.80875,1.09532-1.58438,2.21509-2.41263,3.39038
						c0.29016,0.01886,0.49026,0.03186,0.77325,0.05025c-0.66937,0.82222-1.30106,1.57849-1.90448,2.35669
						c-0.11472,0.14801-0.11752,0.38286-0.17197,0.57762c0.05426,0.02316,0.10858,0.04633,0.16287,0.06947
						c-0.10507,0.13493-0.21021,0.26987-0.34192,0.43896c1.79752,0.0273,2.7623-1.35756,4.04886-2.2429
						c0.05402,0.25409,0.09592,0.45102,0.15192,0.71419c0.93796-0.66484,1.81302-1.30992,2.71716-1.91119
						c0.2821-0.18761,0.65189-0.38078,0.96603-0.35802c1.1322,0.08206,2.06244-0.33484,2.94897-0.96661
						c0.43451-0.30966,0.92316-0.5426,1.36362-0.84477c0.57016-0.39113,1.1669-0.64873,1.87637-0.62724
						c0.18069,0.00548,0.38223-0.09097,0.54553-0.18855c1.15643-0.69109,2.30765-1.39098,3.45377-2.09909
						c0.13867-0.08568,0.28116-0.21741,0.34552-0.36183c0.26523-0.59474,0.49548-1.20499,0.7522-1.8037
						c0.05075-0.11832,0.14001-0.25032,0.24792-0.30916c0.96933-0.52852,1.93637-1.06308,2.92493-1.55388
						c0.91379-0.45366,1.85318-0.85576,2.79984-1.28906C310.70914,139.71252,310.51917,139.62178,310.15656,139.75838z
						 M297.59671,146.89674c0.66672-0.27481,1.02698-1.06964,1.92337-0.88547
						C298.60297,146.90565,298.03156,147.1891,297.59671,146.89674z"/>
					<path id="f2_00000125575238078340055190000010874751029360518272_" class="st1" d="M296.51257,127.65074
						c-0.0304-0.51596-0.05655-0.96008-0.0842-1.42899c-0.13248,0.06136-0.21545,0.09981-0.3111,0.14411
						c-0.0062-0.13673-0.01193-0.26435-0.0177-0.39197c-0.05002-0.03812-0.10004-0.07624-0.15012-0.11437
						c-0.04196,0.15525-0.08386,0.31051-0.12582,0.46576c-0.1283-0.1703-0.13589-0.22738-0.14166-0.28464
						c-0.0202-0.2005-0.03976-0.40107-0.05957-0.60161c-0.18863,0.08131-0.39578,0.13535-0.56241,0.24894
						c-0.53214,0.36277-1.04913,0.74765-1.6189,1.15771c-0.2092-0.54662-0.39313-1.02714-0.61462-1.60583
						c-0.27664,0.51237-0.4888,0.90531-0.74225,1.37466c-0.22028-0.60872-0.35675-1.13285-0.59357-1.60684
						c-0.37622-0.75298-0.422-1.45547,0.09686-2.15267c0.0137-0.01842-0.01825-0.07085-0.05469-0.19576
						c-1.41022-0.61086-2.87341-1.24466-4.48807-1.94405c-0.05292,0.56398-0.09232,0.98393-0.13959,1.48788
						c-0.75372,0.2637-1.62497,0.58016-2.50479,0.87053c-0.34885,0.11514-0.54254,0.29157-0.64169,0.67298
						c-0.39349,1.51353-0.83057,3.01576-1.25378,4.52154c-0.30139,1.07248-0.60641,2.14394-0.90985,3.21585
						c-0.06265-0.00587-0.12524-0.01172-0.18787-0.01756c0-1.69974,0-3.39946,0-5.09917
						c-0.05173-0.00252-0.10349-0.00504-0.15521-0.00753c-0.05771,0.18369-0.12042,0.36595-0.17233,0.55126
						c-0.59808,2.13526-1.18274,4.27444-1.80859,6.40148c-0.06641,0.22552-0.34613,0.43452-0.57761,0.54533
						c-0.11227,0.05374-0.34818-0.12663-0.51608-0.22215c-0.1048-0.05965-0.18719-0.15872-0.29568-0.25423
						c-0.51749,1.60112-0.51749,1.60112,0.66425,2.45609c-0.02371,0.1787-0.04825,0.36354-0.07947,0.59903
						c0.43192-0.07831,0.81198-0.14719,1.31894-0.23909c-0.12796,0.52533-0.13281,1.03175-0.37729,1.35939
						c-0.13828,0.18536-0.67017,0.07707-1.07294,0.10431c-0.3233,1.53183-0.65115,3.0851-0.979,4.63838
						c-0.05347-0.0051-0.1069-0.01019-0.16034-0.01529c0-1.02531,0-2.05063,0-3.07596
						c-0.05292-0.00267-0.1058-0.00534-0.15872-0.00803c-0.24213,1.75058-0.48425,3.50116-0.73279,5.29808
						c0.2363-0.0396,0.40894-0.06853,0.6142-0.10292c-0.08643,0.45245-0.15982,0.83676-0.23871,1.24963
						c0.17096,0.03851,0.31378,0.07069,0.47928,0.10797c-0.13779,0.54137-0.26682,1.04846-0.396,1.55603
						c0.29211,0.132,0.51859,0.23436,0.77036,0.34813c0.24719-0.56598,0.47583-1.1129,0.72708-1.64919
						c0.06937-0.14799,0.21289-0.38145,0.31107-0.37589c0.56052,0.0318,0.67383-0.3943,0.86093-0.75584
						c0.25491-0.49246,0.49557-0.99306,0.77155-1.47334c0.09998-0.17398,0.25836-0.36844,0.43469-0.43466
						c0.60837-0.22844,1.23813-0.39944,1.85577-0.60414c0.14105-0.04674,0.31116-0.10811,0.39182-0.21838
						c0.54797-0.74937,1.07556-1.51366,1.59644-2.2542c-0.16119-0.51027-0.95844-0.75154-0.46234-1.4297
						c-0.21451-0.11688-0.37811-0.24269-0.56296-0.29956c-0.45615-0.14037-0.50983-0.50552-0.40866-0.84964
						c0.04883-0.16597,0.34567-0.33603,0.5498-0.36467c0.58206-0.08165,0.93204-0.35301,1.17914-0.90309
						c0.39349-0.87585,0.88159-1.70918,1.35101-2.60101c0.86099,0.68832,1.67258,1.33716,2.51425,2.01003
						c0.94153-1.33548,1.84393-2.61548,2.84961-4.04193c-1.00583,0.32269-1.83371,0.58832-2.79501,0.89674
						c0.84265-1.38454,1.60181-2.6319,2.26987-3.7296c0.98856-0.13997,1.84467-0.26118,2.80911-0.39775
						c-1.14157,1.88374-2.23444,3.68707-3.33545,5.50388c2.29697-0.15874,3.68359-1.42819,4.48801-3.45206
						c0.05136,0.01039,0.10275,0.02078,0.15414,0.03117c0.04764,0.17947,0.09531,0.35896,0.18713,0.70476
						c0.81232-1.11237,1.57507-2.13008,2.30023-3.1739c0.13522-0.19465,0.11975-0.494,0.20737-0.90078
						C297.27579,127.19456,296.92844,127.40217,296.51257,127.65074z M282.69891,133.29004
						c-0.33688,0.84068-0.61536,1.70476-0.93793,2.61279c0.26401,0.0482,0.4848,0.08853,0.75311,0.13753
						c-0.16446,0.37695-0.31961,0.73251-0.4975,1.14034c-0.35202-0.19089-0.65613-0.3558-1.02899-0.558
						c0.78494-1.23363,0.53384-2.57916,0.5108-3.88918c-0.01114-0.63087,0.48874-0.67958,0.81912-0.94858
						C282.93103,132.21962,282.93295,132.70601,282.69891,133.29004z"/>
					<path id="f1_00000181058181477341827570000009685525775348722309_" class="st1" d="M282.58691,120.67625
						c0.17929-0.26971,0.23846-0.35873,0.31516-0.47407c-0.32031-0.20039-1.13162,0.45934-0.91177-0.55003
						c-0.80127-0.19388-1.56012-0.37749-2.35135-0.56892c-0.14966,0.70691-0.32474,1.31957-0.39801,1.94417
						c-0.06424,0.54768-0.39175,0.70284-1.0047,0.85104c0.08929-0.86867,0.09222-1.66203,0.27396-2.41212
						c0.13428-0.5544-0.58542-0.60751-0.46216-1.07324c-0.01654,0.00634-0.03308,0.01268-0.07489,0.02869
						c-0.04672,0.12649-0.09961,0.26963-0.15656,0.42374c-0.5553-0.08649-1.09726-0.17092-1.70819-0.26608
						c-0.18085,1.39021-0.35507,2.72997-0.5293,4.06935c-0.46783-0.41718-0.71994-0.89737-0.5253-1.55531
						c0.08893-0.30066,0.09711-0.62559,0.13782-0.94003c0.10571-0.81669,0.2092-1.63369,0.31924-2.4952
						c-0.86252-0.08204-1.64218-0.15621-2.46857-0.2348c-0.13101,1.86532-0.2569,3.65797-0.38205,5.44034
						c-0.67001,0.08034-1.1564-0.39728-1.11148-1.03497c0.08508-1.2076,0.16971-2.41522,0.25455-3.62283
						c-0.04379-0.00751-0.08765-0.01503-0.13147-0.02253c-0.32224,0.85568-0.6445,1.71136-0.96674,2.56705
						c-0.02966-0.00604-0.05939-0.01208-0.08911-0.01811c-0.06323-0.98942-0.12653-1.97885-0.18976-2.96825
						c-0.29352,1.55698-0.45877,3.11084-0.65067,4.6614c-0.07004,0.566-0.23886,1.12045-0.2984,1.6869
						c-0.06638,0.63153,0.04587,1.29738-0.10648,1.90117c-0.33249,1.31784-0.03873,2.38835,0.935,3.32109
						c0.17419,0.16682,0.28329,0.48358,0.2876,0.73343c0.06573,3.83699,0.11014,7.67435,0.15674,11.51164
						c0.00723,0.59482-0.00146,1.1898,0.00244,1.78468c0.00125,0.19017,0.01947,0.38022,0.03021,0.5755
						c1.17349-0.20819,1.21207-0.2509,1.34457-1.34084c0.03271-0.26903,0.08813-0.53528,0.13409-0.80864
						c0.26578-0.02573,0.47571-0.04605,0.71002-0.06874c0.35474-1.68088,0.70807-3.35507,1.05859-5.01595
						c1.07349,0.09525,1.07404,0.09538,1.34885-0.88246c0.06351-0.22589,0.1221-0.45317,0.18488-0.68707
						c-0.0795-0.06316-0.13892-0.11307-0.20108-0.15926c-0.27179-0.20183-0.5444-0.40259-0.81674-0.60374
						c0.3255-0.18054,0.63281-0.42148,0.98111-0.52632c0.43069-0.12962,0.6376-0.35545,0.75296-0.78922
						c0.4989-1.87578,1.0322-3.74243,1.55579-5.6116c0.18979-0.67747,0.38748-1.35271,0.58133-2.02817
						c0.68521,0.14388,1.29404,0.27174,1.91589,0.40232c0.10501-0.36956,0.23428-0.65046,0.25882-0.94023
						c0.13293-1.56782,0.97943-2.43398,2.51971-2.67823c0.46329-0.07346,0.87445-0.26907,0.94061-0.86164
						c0.35327,0.16749,0.66309,0.31436,1.00665,0.47726c0.11447-0.31618,0.20551-0.56765,0.31137-0.85995
						C284.45239,120.72834,283.67361,120.1478,282.58691,120.67625z M272.19833,129.6631
						c-0.04941,0.01357-0.09882,0.0271-0.14825,0.04065c-0.32022-0.66896-1.17972-1.03848-1.05453-2.02672
						c0.45456-0.0485,0.85669-0.09141,1.33939-0.1429C272.28693,128.28276,272.24265,128.97295,272.19833,129.6631z
						 M275.83304,123.02804c-0.1059-0.03567-0.15857-0.22919-0.23383-0.35608c-0.00818,0.00359-0.01639,0.00722-0.02457,0.01081
						c0,0,0.01892-0.02069,0.01904-0.02065c0.00192,0.00307,0.00363,0.00668,0.00552,0.00984
						c0.47263-0.2085,0.94543-0.41705,1.43024-0.63092C276.99945,122.56784,276.26675,123.17414,275.83304,123.02804z"/>
					<path class="st1" d="M289.47345,216.04144c0.12039-0.63857-0.15506-1.15317-0.44284-1.6785
						c-0.29492-0.53864-0.54083-1.10535-0.85547-1.63141c-0.14215-0.23758-0.36761-0.46376-0.6095-0.59608
						c-0.70416-0.38503-1.43567-0.72005-2.27951-1.13527c0.33392-0.02396,0.51797-0.03717,0.75217-0.05396
						c-0.54672-1.25244-1.07077-2.45296-1.65372-3.78809c-0.24814,0.67729-0.43726,1.19354-0.67978,1.85568
						c-0.40155-0.91246-0.82907-1.66243-1.05966-2.46864c-0.24179-0.84503-0.74554-1.17546-1.55304-1.25484
						c-0.23013-0.02257-0.57352-0.13222-0.64682-0.29831c-0.31293-0.70914-0.54425-1.45432-0.82413-2.23897
						c0.29898,0.04303,0.50671,0.07295,0.8421,0.12122c-0.31436-0.60516-0.57883-1.11435-0.87155-1.67776
						c-0.27979,0.36852-0.50955,0.67133-0.86401,1.1384c-0.23041-1.72639-1.25842-2.54344-2.68155-2.95453
						c-0.43118-0.1246-0.63242-0.39687-0.72574-0.82814c-0.1189-0.54883-0.30289-1.08342-0.4588-1.62418
						c-0.03781,0.00761-0.07559,0.01532-0.1134,0.02304c0,0.26399,0,0.52798,0,0.91449
						c-0.13406-0.30466-0.21664-0.49249-0.29904-0.67986c-0.22638,0.04294-0.41257,0.07817-0.62811,0.119
						c-0.15747-0.76584-0.30759-1.49579-0.46506-2.26172c0.21436,0.03377,0.36697,0.05771,0.5705,0.08974
						c-0.12103-0.42686-0.22235-0.7841-0.32126-1.13297c-0.02048-0.00111-0.03433-0.00185-0.05396-0.00285l-1.75366,3.50757
						c0.01617,1.42523,0.03598,2.85046,0.04919,4.27579c0.02008,2.16171-0.07312,4.32764,0.03479,6.48412
						c0.05707,1.14105-0.48358,1.90202-1.0849,2.71329c-0.14709,0.19847-0.28152,0.46486-0.28491,0.70206
						c-0.02414,1.68556-0.01285,3.37158-0.01285,5.0574c0,0.85045,0,1.7009,0,2.58345
						c-0.48193,0.09204-0.92194,0.17609-1.36304,0.26024c0,0.4388,0,0.8264,0,1.17178c0.83917,0,1.63538,0,2.45041,0
						c0-0.33795,0-0.58736,0-0.85182c0.42908-0.05882,0.82977-0.11369,1.24399-0.17039
						c0.04544,0.51991,0.08459,0.96854,0.12994,1.48717c0.84293-0.0891,1.63803-0.17307,2.45993-0.25996
						c-0.06927-0.58066-0.12949-1.08571-0.19482-1.63353c0.54471-0.08754,1.05609-0.16966,1.60446-0.25784
						c-0.0459,0.3987-0.08194,0.71161-0.11792,1.02451c0.03128,0.00624,0.06268,0.01257,0.09396,0.01891
						c0.28601-0.73647,0.57202-1.47285,0.85806-2.20923c0.05533-0.01735,0.11066-0.0347,0.16599-0.05194
						c0.23904,0.70528,0.47809,1.41064,0.73401,2.16556c3.85965-0.55112,7.57901-1.69354,11.05948-3.46452
						C289.56046,216.35004,289.44684,216.18248,289.47345,216.04144z M274.86548,201.54201
						c-0.04407,0.01045-0.08801,0.02083-0.13205,0.03119c-0.08929-0.42357-0.17859-0.84723-0.26794-1.27089
						c0.08423-0.01909,0.16855-0.03816,0.25281-0.05725c0.04651,0.21095,0.09305,0.42191,0.13965,0.63287
						c0.04651,0.21095,0.09314,0.42192,0.13965,0.63287C274.95355,201.52127,274.90961,201.53163,274.86548,201.54201z
						 M277.27695,216.33646c-0.02817,0.00679-0.05624,0.01358-0.08432,0.02037c-0.02817,0.00688-0.05627,0.01367-0.08435,0.02046
						c-0.15881-0.46477-0.31766-0.92953-0.51971-1.52057c0.08752,0.0201,0.16763,0.03853,0.24335,0.05597
						c0.1893,0.04349,0.35117,0.08075,0.5322,0.12231c0.03625,0.00835,0.07324,0.01689,0.11133,0.0256
						C277.40228,215.5307,277.33963,215.93353,277.27695,216.33646z M280.40637,213.49654
						c-0.04111-0.16884-0.08185-0.33557-0.1225-0.50238c-0.03946-0.01221-0.07883-0.02441-0.11829-0.03662
						c-0.20462,0.57709-0.33942,1.19217-0.6282,1.72356c-0.64453,1.186-0.58682,2.2162,0.46652,3.12566
						c0.04037,0.03487,0.05515,0.09946,0.11496,0.21297c-0.53156,0.08635-1.03046,0.18205-1.5336,0.24298
						c-0.25427,0.03084-0.77536-0.60451-0.75848-0.92403c0.03644-0.68619,0.09616-1.37119,0.14948-2.09995
						c0.21866,0.05174,0.53479,0.12662,0.96396,0.2283c-0.1759-0.63197-0.33191-1.19052-0.48682-1.74953
						c-0.06339-0.22876-0.11816-0.46008-0.18771-0.68692c-0.1384-0.45137-0.15866-1.05571-0.46506-1.30383
						c-0.26831-0.21729-0.86301-0.05341-1.31082-0.02037c-0.35721,0.02634-0.55679-0.05634-0.58597-0.4566
						c-0.02277-0.31198-0.11966-0.61856-0.19141-0.9657c0.37897,0,0.72803,0,1.12424,0
						c-0.0155-0.52405-0.08853-0.89778-0.64133-1.13452c-1.12296-0.48083-1.24078-1.18666-0.61075-2.22072
						c0.39511-0.64856,1.02838-0.84659,1.61179-1.16518c0.00632-0.01157,0.01248-0.02332,0.0188-0.03487l0.01572,0.01164
						c-0.00552-0.00412-0.01553-0.01155-0.01498-0.01146c0.00461-0.00304,0.00854-0.00624,0.01312-0.00928
						c-0.15707-0.6059-0.01779-1.11517,0.29816-1.5659c0.00128-0.00174,0.00266-0.00348,0.00385-0.00513
						c0.02515-0.0358,0.05121-0.07121,0.07855-0.10617c0.00595-0.00761,0.01248-0.01506,0.01843-0.02258
						c0.02313-0.02899,0.04645-0.05798,0.07092-0.08653c0.01486-0.01733,0.03076-0.03432,0.04608-0.05138
						c0.0166-0.01863,0.03284-0.03745,0.04999-0.05588c0.03323-0.03543,0.06738-0.07057,0.10251-0.10544
						c0.00467,0.00551,0.00809,0.01129,0.01257,0.01678c0.02588,0.03157,0.05075,0.0636,0.0723,0.09636
						c0.01138,0.01743,0.02011,0.03551,0.0303,0.05331c0.01239,0.02138,0.02597,0.04248,0.03659,0.06432
						c0.01083,0.02249,0.01865,0.04561,0.02771,0.06845c0.00699,0.01772,0.01553,0.03516,0.02148,0.05313
						c0.00864,0.02634,0.01413,0.05331,0.02039,0.08002c0.00348,0.01505,0.00851,0.02974,0.01126,0.04478
						c0.00543,0.02936,0.00763,0.05919,0.01019,0.08891c0.00119,0.01285,0.00375,0.0256,0.00433,0.03854
						c0.00156,0.03249-0.00009,0.06525-0.00186,0.09808c-0.00055,0.01047,0.00018,0.02074-0.00064,0.0313
						c-0.00293,0.0345-0.00888,0.06918-0.01523,0.10387c-0.00174,0.009-0.0022,0.01799-0.00412,0.02699
						c-0.00745,0.03542-0.01788,0.07101-0.02899,0.10652c-0.00256,0.00836-0.00415,0.01671-0.0069,0.02505
						c-0.01202,0.03587-0.02698,0.07176-0.04266,0.10764c-0.00348,0.00807-0.00595,0.01616-0.00964,0.02414
						c-0.01633,0.03542-0.03549,0.07074-0.05515,0.10597c-0.00476,0.00845-0.00851,0.01698-0.0134,0.02542
						c-0.0199,0.03386-0.04257,0.06754-0.06552,0.10112c-0.00668,0.00974-0.0123,0.01955-0.01917,0.02928
						c-0.02258,0.03156-0.04791,0.06276-0.07324,0.09387c-0.00943,0.01164-0.0177,0.02339-0.02744,0.03487
						c-0.0242,0.02844-0.05109,0.05652-0.07761,0.08459c-0.01321,0.01395-0.02515,0.02809-0.03891,0.04195
						c-0.02505,0.02513-0.05249,0.04973-0.07938,0.07451c-0.0177,0.01633-0.03424,0.03285-0.05267,0.049
						c-0.02469,0.02138-0.05157,0.04221-0.07755,0.06331c-0.02341,0.01891-0.04578,0.03809-0.07028,0.05672
						c-0.02286,0.01733-0.04773,0.03404-0.07156,0.0511c-0.0278,0.01991-0.05441,0.04019-0.08362,0.05965
						c0.00204,0.00771,0.00333,0.01506,0.00534,0.02277c-0.01193,0.0067-0.02405,0.01303-0.03607,0.01955
						c-0.1882,0.34006-0.36136,0.68921-0.56918,1.01634c-0.35339,0.55617-0.2796,0.90063,0.29022,1.18335
						c0.28381,0.14076,0.60123,0.23582,0.84714,0.42476c0.2262,0.1738,0.42578,0.4222,0.55093,0.67958
						c0.25464,0.52396,0.43762,1.0826,0.68481,1.61078c0.0437,0.09323,0.25656,0.15167,0.39044,0.15021
						c0.47415-0.00523,0.94781-0.04349,1.41672-0.06891C281.5274,212.60802,281.63974,213.09903,280.40637,213.49654z
						 M283.31134,211.8141c-0.03772-0.09956-0.07443-0.19655-0.11121-0.29391c-0.07379-0.19453-0.14783-0.39017-0.23053-0.60846
						c-0.04138-0.1091-0.08478-0.224-0.13147-0.34723c0.32126,0.08066,0.60928,0.15297,0.8942,0.22453
						c0.14243,0.0358,0.28409,0.0713,0.42871,0.10765c0.14462,0.03633,0.29218,0.07339,0.4465,0.11212
						C284.14243,211.29776,283.76224,211.53395,283.31134,211.8141z"/>
					<path class="st1" d="M273.89343,193.28957l-0.04642,0.11598l-0.05588,0.11168l-0.15518,0.31033
						c0.22711,0.02643,0.45413,0.05946,0.68188,0.06607c0.13782,0.00394,0.39484-0.11159,0.39822-0.18214
						c0.01257-0.26299-0.00256-0.55434-0.10736-0.79071c-0.12689-0.2863-0.28003-0.56102-0.42474-0.83952
						C274.13623,192.4805,274.05576,192.88388,273.89343,193.28957z"/>
					<path class="st1" d="M316.02011,148.25232c-1.71585,0.42018-3.35074,0.82043-5.04364,1.23492
						c0.35629-1.00571,0.67792-1.85678,1.72418-2.23218c0.78769-0.28253,1.5058-0.75923,2.31586-1.18124
						c-0.72269-1.18289-1.39758-2.30035-2.09177-3.40581c-0.0769-0.1225-0.29428-0.27565-0.39447-0.2449
						c-0.59875,0.1837-1.21777,0.35245-1.76157,0.65096c-0.63855,0.35052-1.20764,0.82787-1.8063,1.25089
						c-1.22583,0.86623-2.4512,1.73282-3.69559,2.61252c0.18289,0.33292,0.33914,0.61728,0.56561,1.02939
						c-0.39795,0.03889-0.72354-0.01707-0.94815,0.108c-0.89926,0.50082-1.77081,1.05222-2.64081,1.60352
						c-0.08139,0.05157-0.08002,0.2339-0.1358,0.41705c-0.45135,0.27382-0.97293,0.59021-1.52304,0.92395
						c-0.29153-0.34659-0.56863-0.6761-0.87576-1.0414c-0.19968,0.14488-0.37375,0.27115-0.55359,0.40164
						c0.61588,0.53745,1.46542,0.61121,1.88513,1.37576c-1.08994,0.66197-2.14676,1.30374-3.20981,1.94946
						c-0.24969-0.2963-0.45148-0.53578-0.68335-0.81097c-1.50055,1.05452-2.98361,2.09665-4.50189,3.16354
						c-0.05972-0.27455-0.10312-0.47394-0.1604-0.73674c-0.92862,0.75436-1.80228,1.46414-2.70959,2.20125
						c0.14563,0.09618,0.25858,0.17078,0.41052,0.27126c-0.19315,0.13763-0.3685,0.26244-0.55762,0.39723
						c0.02264-0.00046,0.04486-0.00514,0.06754-0.00542c0.32529-0.0345,0.65454-0.04836,0.9823-0.05203
						c0.27878-0.16692,0.55377-0.34044,0.83502-0.50294c0.27463-0.15874,0.62555-0.18553,0.94138-0.27289
						c0.03146,0.07368,0.06296,0.14746,0.09442,0.22124c-0.28024,0.17819-0.578,0.36758-0.95312,0.60608
						c1.1629,0.0869,2.26971,0.34933,3.2858,0.78391c1.36493-0.38025,2.71362-0.75592,4.0571-1.13013
						c0.14856,0.3364,0.27402,0.62068,0.40515,0.91743c0.58908-0.089,1.15213-0.17416,1.71518-0.25932
						c0.10654-0.01651,0.21307-0.03304,0.31961-0.04964c-0.21893-0.36475-0.43799-0.7296-0.66565-1.10875
						c0.26511-0.07414,0.50873-0.17627,0.7608-0.20583c0.59616-0.07001,0.87411-0.37163,0.79327-0.97569
						c-0.06506-0.48633,0.19241-0.67444,0.6235-0.83025c0.45578-0.16481,0.53149,0.18663,0.74704,0.38503
						c0.20233,0.18619,0.47119,0.51331,0.64691,0.47624c0.59738-0.12608,1.16647-0.38596,1.83597-0.62692
						c-0.37851-0.2316-0.64362-0.39383-0.90726-0.55515c0.05957-0.28987,0.11343-0.55194,0.18427-0.89661
						c-0.44046,0.185-0.80045,0.3363-1.19565,0.5023c-0.14059-0.16122-0.27631-0.31685-0.50284-0.57663
						c0.72556-0.04074,1.32602-0.07451,1.94522-0.10938c0.0524,0.20985,0.09286,0.3719,0.14728,0.59012
						c0.69263-0.24179,1.34229-0.46808,1.99149-0.69556c1.16913-0.40971,1.16904-0.40999,1.90039,0.60086
						c0.5134,0.70958,0.4487,0.63324,1.09598,0.08469c1.09665-0.92917,2.07214-2.0694,3.71008-2.15125
						c0.9324-0.04671,1.85294-0.33199,2.87305-0.52789C316.89578,150.58379,316.46085,149.42577,316.02011,148.25232z
						 M303.63239,153.58473c-0.16003-0.16644-0.33319-0.34666-0.56967-0.59259c0.53799-0.2383,1.02719-0.45494,1.5849-0.70197
						C304.49942,152.93773,304.37903,153.50482,303.63239,153.58473z M304.96274,151.26016
						c0.18369-0.47102,0.3316-0.85017,0.47952-1.22942c0.06662,0.01376,0.13324,0.02753,0.19986,0.04129
						c0.07645,0.19893,0.15286,0.39787,0.24536,0.63875C305.60477,150.87871,305.33792,151.03717,304.96274,151.26016z"/>
					<path class="st1" d="M318.37222,174.9836c0.22665-0.412,0.37787-0.68674,0.57397-1.04314
						c-1.41681-0.10471-2.75613-0.2037-4.0954-0.30263c0.39301-0.23738,0.78262-0.37494,1.18124-0.47725
						c1.16177-0.29794,2.27246-0.79282,3.5318-0.70802c0.34464,0.02321,0.72067-0.41669,1.08102-0.64629
						c0.00626-0.00394-0.00476-0.03505-0.01276-0.08524c-0.19315-0.04221-0.39767-0.08699-0.64426-0.14095
						c0.05634-0.8754,0.11115-1.72667,0.17068-2.65254c-0.09589-0.0658-0.30649-0.21031-0.56992-0.39099
						c0.17029,0,0.27591,0,0.42456,0c-0.05487-0.66049-0.10809-1.29997-0.16223-1.95111
						c0.16794-0.02028,0.2919-0.03534,0.52304-0.06342c-1.13608-0.61783-2.18134-1.18628-3.37433-1.83513
						c1.2663-0.09525,2.34644-0.17636,3.48141-0.2617c-0.09323-0.86687-0.17828-1.65866-0.26501-2.46544
						c-0.2894,0.02946-0.48413,0.04919-0.70361,0.07149c-0.13864-0.7607-0.27539-1.51122-0.41623-2.28366
						c-0.20737,0.01147-0.36603,0.00046-0.51596,0.03166c-1.20923,0.25226-2.42819,0.46973-3.62018,0.78777
						c-0.62369,0.16637-0.99872-0.03918-1.40063-0.54266c1.86267-0.67528,3.76974-0.90605,5.67422-1.14784
						c-0.00797-0.06863-0.01605-0.13719-0.02405-0.20583c-0.88651,0.08066-1.77298,0.16132-2.65939,0.24188
						c-0.00891-0.05009-0.01773-0.1003-0.02661-0.15048c0.81235-0.36577,1.62469-0.73143,2.59048-1.16629
						c-2.11563,0.19463-3.91516,1.4156-6.05612,0.75363c0.28537-0.13947,0.48779-0.24719,0.69702-0.33923
						c1.46854-0.646,2.94028-1.28502,4.40579-1.9379c0.16537-0.07368,0.29834-0.21996,0.44626-0.33255
						c-0.16003-0.0981-0.32016-0.19609-0.47882-0.29327c0.02991-0.05798,0.07339-0.14259,0.14536-0.28253
						c-1.94745,0.20004-3.81927,0.3933-5.69141,0.58406c-0.53229,0.05414-1.07028,0.07195-1.59671,0.15976
						c-0.48514,0.08093-0.95837,0.23344-1.4368,0.35448c0.0043,0.05386,0.00861,0.10782,0.01285,0.16168
						c0.95734-0.22124,1.32547,0.5802,2.01718,1.02158c-1.47214,0.42099-2.81854,0.80612-4.18643,1.1973
						c-0.0712-0.54112-0.13177-1.00157-0.20453-1.55461c-0.63086,0.38713-1.18729,0.53395-1.72934,0.01192
						c-0.06891-0.06642-0.3017,0.00212-0.4433,0.05185c-1.21417,0.42587-2.42477,0.86182-3.63647,1.29475
						c-0.10654,0.01651-0.21307,0.03313-0.31961,0.04964c-0.53415,0.21822-1.06836,0.43642-1.6026,0.65472
						c0.68152,0.03871,1.34219-0.01671,2.00232-0.07892c1.18106-0.1114,2.37717-0.14746,3.53638-0.37274
						c0.60956-0.11855,0.98395,0.07323,1.51608,0.3831c-0.41211,0.16801-0.71298,0.29071-1.03323,0.42128
						c0.10452,0.14241,0.18555,0.25281,0.27261,0.37135c-0.345,0.10855-0.6449,0.2029-0.94476,0.29732
						c0.40302,0.0701,0.78006-0.02249,1.14774,0.00613c0.33786,0.02625,0.66556,0.18298,1.09518,0.31126
						c-0.92944,0.41586-1.67831,0.82117-2.47424,1.08351c-0.58215,0.19197-0.87845,0.44275-0.77786,1.07553
						c0.06708,0.42183-0.12637,0.65022-0.5636,0.72133c-0.33914,0.05516-0.66556,0.18802-1.00058,0.28731
						c0.1763,0.35953,0.32559,0.66417,0.50607,1.03232c-0.62738,0.13461-1.18106,0.25352-1.7597,0.37778
						c-0.14398-0.33218-0.27426-0.63251-0.41724-0.9622c-0.18295,0.05147-0.36493,0.10258-0.54718,0.15388
						c0.00085,0.0022,0.00214,0.00412,0.00296,0.00633c0.82977,2.21291,0.82996,4.57823,0.07864,6.86896
						c0.60663,0.12698,1.2106,0.25343,1.82776,0.38263c-0.19003,0.06737-0.28976,0.10269-0.46796,0.16582
						c0.48007,0.20032,0.88806,0.37062,1.2984,0.54185c-0.28839,0.99506-0.98047,1.85953-0.27875,2.91286
						c-0.28329-0.01605-0.40552-0.02303-0.47141-0.02679c0.29236,0.66591,0.5806,1.32256,0.90131,2.05316
						c-0.91461-0.09782-1.93332-0.77521-2.31982,0.69234c0.88062,0.24664,1.76199,0.49348,2.69336,0.75436
						c-0.05908-0.27483-0.1001-0.46577-0.11893-0.55304c0.40118-0.03781,0.79559,0.01247,1.11307-0.12076
						c1.10104-0.46202,2.17987-0.46826,3.27414-0.01707c0.09094,0.03754,0.18939,0.05708,0.28482,0.0836
						c1.41367,0.39401,1.40515,0.39493,1.58325,1.86641c0.02155,0.17839,0.15967,0.44431,0.30197,0.49055
						c1.18188,0.38429,2.37881,0.72189,3.56714,1.08664c0.16589,0.05092,0.38364,0.13654,0.44971,0.2695
						c0.17352,0.34915,0.27658,0.73326,0.42227,1.14462c-1.04019,0.1917-2.03241,0.37457-3.02454,0.55745
						c-0.00137,0.04753-0.00275,0.09506-0.00412,0.14259c1.23959,0.40999,2.47913,0.82007,3.77945,1.25015
						c0-0.28951,0-0.49918,0-0.78564c1.02075,0.13681,1.99307,0.26701,2.96655,0.39751
						c0.44321-0.91266,0.44284-0.9122-0.29364-1.56142c-0.28317-0.24968-0.56396-0.5022-0.84586-0.75336
						c0.0256-0.05919,0.05112-0.11845,0.07672-0.17773c0.71774,0.08423,1.43552,0.16856,2.15326,0.25279
						c0.00745-0.03441,0.01486-0.06882,0.02222-0.10323c-0.40366-0.17435-0.80731-0.3486-1.26254-0.54515
						c0.29218-0.1749,0.5235-0.31337,0.84494-0.50569c-2.00021-0.53415-3.98904-0.72299-5.78177-1.62427
						c0.76895,0.20811,1.5379,0.41623,2.41559,0.6537c-0.22794-0.65178-0.4187-1.19711-0.64203-1.83559
						c0.35959,0.14049,0.62259,0.21767,0.86108,0.34181c0.49402,0.2572,0.95322,0.59544,1.46744,0.79622
						c0.54919,0.21443,1.14334,0.3174,1.72208,0.45018c0.15884,0.03642,0.3331,0.00558,0.50018,0.00558
						c0.0079-0.04587,0.01578-0.09166,0.02368-0.13754c-0.18665-0.10397-0.37338-0.20784-0.57553-0.32034
						c0.24005-0.21912,0.44943-0.41026,0.71518-0.65288c-0.61847-0.18205-1.14352-0.33658-1.66858-0.4911
						c0.00644-0.04294,0.01294-0.0858,0.01938-0.12865c0.7626,0,1.52515,0,2.13776,0
						c0.04376-0.39017,0.03613-0.73528,0.12909-1.05075c0.12488-0.42384,0.01559-0.71538-0.31317-0.98561
						C319.15347,175.70026,318.75165,175.32109,318.37222,174.9836z M316.60574,165.66728
						c0.17426,0.03313,0.27014,0.04588,0.36301,0.06993c0.51147,0.13258,1.02231,0.26793,1.53918,0.40384
						c-0.22574,0.34097-1.26382,0.50954-2.13464,0.33749C316.44772,166.21895,316.52066,165.96413,316.60574,165.66728z
						 M309.78293,161.58356c-1.1235,0.55707-1.37595-0.6595-2.13986-0.94304
						C308.69006,159.91624,309.51709,160.3145,309.78293,161.58356z M305.24359,175.54802
						c0.36099-0.07332,0.72198-0.14664,1.08289-0.21986c0.00494-0.04008,0.00992-0.08018,0.01486-0.12019
						c-0.55167-0.08452-1.10342-0.16904-1.7887-0.27391c1.70465-0.48964,2.67026-0.60425,3.17813,0.5546
						C306.89484,176.01196,306.0701,175.70833,305.24359,175.54802z M310.62723,175.33972
						c1.05157-0.15279,2.25275,0.17334,2.42468,0.68454C312.2215,175.78981,311.46701,175.57683,310.62723,175.33972z
						 M313.64212,171.62598c-1.65866-0.0713-3.32266-0.01936-5.02942-0.01936c-0.06882-0.52654-0.13205-1.0103-0.20609-1.57729
						c-0.95615,0.05653-1.89725,0.11086-2.83807,0.16875c-0.2373,0.0145-0.47552,0.06854-0.71069,0.05598
						c-0.90891-0.04828-1.69962,0.05872-1.83221,1.19812c-0.00687,0.05826-0.13138,0.10268-0.35025,0.26244
						c0.31586-0.87669,0.55627-1.59555,0.83447-2.29935c0.21124-0.53442,0.52277-0.99304,0.62537-1.61389
						c0.10251-0.61967,0.5845-1.24979,1.05774-1.71503c0.49561-0.48743,1.15903-0.82007,1.93744-0.73573
						c0.26886,0.02917,0.54773-0.03358,0.8508-0.05652c0.0379,0.20206,0.08176,0.37318,0.10059,0.54698
						c0.11212,1.03653,0.11011,1.0368,1.17151,1.0369c2.08115,0.00009,4.16272,0.02332,6.24323-0.0155
						c0.55533-0.01038,0.88358,0.15985,1.10562,0.64655c0.12958,0.28409,0.311,0.5446,0.54837,0.95157
						c-1.3154-0.26611-2.49185-0.50414-3.66833-0.74208c-0.01926,0.03203-0.03854,0.06415-0.0578,0.09618
						c0.40933,0.26775,0.8454,0.50247,1.22281,0.80933c1.09766,0.89247,2.32083,1.28648,3.7366,1.09976
						c0.42807-0.05635,0.86981-0.00873,1.3053-0.00873c0.01248,0.04984,0.02496,0.09956,0.03754,0.1494
						c-0.19278,0.03935-0.38522,0.11084-0.57837,0.11295c-1.04709,0.0112-2.09427,0.00533-3.24524,0.00533
						c0.17416,0.3374,0.31924,0.61847,0.479,0.92816C315.48358,171.30884,314.64517,171.6691,313.64212,171.62598z"/>
					<path class="st1" d="M313.37079,195.58286c1.24713-2.06729,2.27402-4.15192,3.04251-6.35748
						c0.05341-0.15352-0.07486-0.44266-0.20975-0.57791c-0.96597-0.96826-1.95471-1.91396-2.93893-2.86395
						c-0.09946-0.09607-0.21664-0.17361-0.42944-0.34172c0.43393,1.20877,0.81815,2.27916,1.25244,3.48912
						c-0.52228-0.29408-0.91623-0.50652-1.29849-0.7382c-0.08655-0.05249-0.1983-0.18179-0.18665-0.25877
						c0.06534-0.43146-0.25455-0.47652-0.53076-0.57451c-2.16428-0.76823-4.32883-1.53581-6.49255-2.30522
						c-1.14618-0.40761-2.29108-0.8186-3.43643-1.22804c0.02182-0.0757,0.04376-0.15141,0.0657-0.22711
						c0.44705,0.1369,0.8941,0.27373,1.45862,0.4465c-0.44513-0.78088-0.27151-1.85081-1.60141-2.03067
						c0.50974-0.17673,0.86752-0.30078,1.37183-0.47559c-1.06067-0.30438-1.96268-0.56314-2.86459-0.82201
						c0.01651-0.05487,0.03311-0.10974,0.04974-0.16461c2.90506,0.45256,5.52328,1.87331,8.38034,2.65474
						c-0.0434-0.57388-0.08276-1.0937-0.12506-1.6528c0.4375,0.04294,0.78418,0.07698,1.13086,0.11102
						c0.0011-0.01228,0.00229-0.02467,0.00339-0.03688c-2.60278-0.72142-5.2056-1.44286-7.81381-2.16574
						c-0.07471,0.16232-0.13498,0.29353-0.19611,0.4265c-2.09958-0.43237-4.15311-0.8642-6.21222-1.26776
						c-0.24554-0.04819-0.56223-0.01479-0.77399,0.10652c-0.41586,0.2384-0.7955,0.23555-1.23999,0.10672
						c-0.10635-0.03082-0.21353-0.05974-0.31985-0.09038c-1.19217,0.67471-2.44049,1.18756-3.7034,1.5536
						c0.19839,0.15681,0.3898,0.32172,0.58801,0.47853c0.10211,0.08084,0.28702,0.20866,0.34262,0.17297
						c0.57352-0.3687,0.89716,0.12581,1.22952,0.38806c0.44687,0.35245,0.86868,0.42191,1.36456,0.18105
						c0.00946-0.19858,0.0192-0.40128,0.03159-0.66042c1.51614,0.75987,2.96771,1.48746,4.53436,2.27264
						c-0.45267,0.16086-0.75272,0.26758-1.15454,0.41046c1.02332,0.62195,1.94644,1.18298,2.90808,1.7674
						c0.16483-0.36594,0.30814-0.68407,0.46973-1.04295c0.19949,0.0947,0.37918,0.16911,0.54846,0.26244
						c0.60297,0.33218,1.18692,0.70427,1.80927,0.99432c0.36676,0.17105,0.64828,0.35686,0.72601,0.76823
						c0.08194,0.43393,0.37769,0.6515,0.75436,0.8385c1.08185,0.53699,2.1427,1.11618,3.22394,1.65454
						c0.3765,0.18756,0.46844,0.42247,0.26804,0.90221c-1.54333-0.79796-3.05511-1.57948-4.69397-2.4268
						c0.17004,0.49193,0.29163,0.8441,0.46368,1.34209c-1.79126-0.92494-3.42114-1.76657-5.10513-2.63611
						c-0.28427,0.7897-0.54929,1.52617-0.82455,2.29091c1.32162,0.93742,2.61722,1.85651,3.97214,2.8177
						c-0.33896,0.04919-0.57828,0.08397-0.92346,0.13406c0.54248,0.4444,0.98203,0.81172,1.43164,1.1662
						c0.0834,0.06587,0.25858,0.14507,0.30502,0.10846c0.55652-0.43861,1.22098-0.15617,1.81943-0.29208
						c0.46616-0.10579,0.74631,0.09506,0.90494,0.5425c0.311,0.87688,0.64087,1.74722,0.97598,2.61528
						c0.08112,0.21013,0.21317,0.40054,0.33905,0.63196c0.69711-0.41513,1.32935-0.79163,2.00452-1.19371
						c0.21786,0.92953-0.60535,1.4045-0.73636,2.16115c0.34015,0.27042,0.68729,0.54634,1.12885,0.89725
						c0-0.96716,0-1.8121,0-2.66621c1.32108,0.60388,2.18134,1.98938,3.87177,1.95323
						c-0.85486-1.18803-1.6618-2.30972-2.46884-3.43141c0.04587-0.04872,0.09186-0.09753,0.13782-0.14627
						C311.11685,194.22672,312.23453,194.89923,313.37079,195.58286z"/>
				</g>
			</g>
		</g>
		<g>
			<path class="st1" d="M256,456.98166c-110.82162,0-200.98166-90.1593-200.98166-200.98166
				c0-110.82162,90.16003-200.98166,200.98166-200.98166c110.82236,0,200.98166,90.16003,200.98166,200.98166
				C456.98166,366.82236,366.82236,456.98166,256,456.98166z M256,70.12975C153.51105,70.12975,70.12975,153.51105,70.12975,256
				S153.51105,441.87024,256,441.87024S441.87024,358.48895,441.87024,256S358.48895,70.12975,256,70.12975z"/>
		</g>
	</g>
	<g id="Honeyswap_00000064349993832098805080000000985132041773463223_" class="st3">
		<path class="st6" d="M396.00446,599.88257c-6.37659,0-12.67535-1.73669-18.20941-5.02869l-85.69437-50.70117
			c-5.50818-3.26599-10.10919-7.97076-13.29736-13.62146c-3.17532-5.62488-4.86014-12.04028-4.87314-18.54642V410.46585
			c0.01303-6.48669,1.69781-12.88913,4.88605-18.52701c3.16232-5.61832,7.75027-10.32294,13.25848-13.58905l85.77213-50.74008
			c5.50818-3.26596,11.79395-4.99615,18.15753-4.99615c6.42841,0,12.72705,1.73669,18.24826,5.01569l85.72025,50.70767
			c5.49518,3.29199,10.07028,7.99661,13.23257,13.62143c3.16235,5.60535,4.84717,12.00143,4.87317,18.49448v101.51901
			c-0.01294,6.48019-1.68475,12.88266-4.84711,18.50748c-3.16235,5.63776-7.72443,10.35535-13.20676,13.64734l-85.811,50.75311
			C408.69263,598.15881,402.39398,599.88257,396.00446,599.88257z M461.37683,539.04626l26.67264-15.77289
			c1.87927-1.14056,3.47342-2.7865,4.58798-4.76953c1.10165-1.99591,1.69778-4.26404,1.69778-6.5321v-19.03885H297.67365v19.03885
			c0.013,2.29401,0.60916,4.56207,1.72372,6.5321c1.11453,1.98285,2.70871,3.62891,4.6398,4.76953l26.65964,15.77289H461.37683z
			 M494.33524,429.40106v-18.93521c-0.013-2.2746-0.60913-4.52969-1.72369-6.50607c-1.11453-1.97-2.70871-3.61594-4.61395-4.75
			l-26.91882-15.92194H330.98199l-26.9577,15.94781c-1.91812,1.12756-3.5123,2.76059-4.62683,4.73059
			c-1.11456,1.97-1.71082,4.2251-1.72372,6.5191v18.91571H494.33524z"/>
		<path class="st6" d="M286.49689,548.62396c-5.80524-3.44214-10.65433-8.40057-14.0145-14.35614
			c-0.505-0.89453-0.96182-1.81348-1.39462-2.74341c-12.77267,3.65118-25.58484,5.50275-38.21625,5.51294
			c-8.19104,0-16.27832-0.79059-24.01567-2.31989c-21.72171-4.30273-34.6174-13.414-37.50751-17.7428l95.99809-56.99286v-27.97519
			l-109.15306,64.80167c-10.52388,6.64874-13.90649,18.92218-8.4113,30.53473c6.44139,13.59546,27.85204,25.80414,54.53754,31.09204
			c9.34445,1.82745,18.89636,2.76062,28.38338,2.76062h0.19453c18.98758,0,38.14569-3.54065,57.08441-10.50977L286.49689,548.62396z
			"/>
		<path class="st6" d="M633.54321,496.65265l-108.88086-64.63394v27.94632l96.19257,56.89288
			c-1.60706,3.38263-14.73602,13.32336-37.6889,17.87244c-7.73743,1.5293-15.82465,2.31989-24.01569,2.31989
			c-12.63965,0-25.46008-1.85968-38.23486-5.51868c-0.42297,0.90857-0.86963,1.80646-1.36169,2.68158
			c-3.33289,5.94183-8.14096,10.91376-13.91895,14.38336l-3.58658,2.12128c18.94119,6.97046,38.09225,10.50378,57.06326,10.50378
			c0,0,0.1944,0,0.2074-0.00006c9.5,0,19.05188-0.93317,28.3833-2.7735c26.67261-5.2879,48.08325-17.49664,54.52454-31.1051
			C647.72192,515.74341,644.33929,503.46979,633.54321,496.65265z"/>
		<path class="st6" d="M378.80591,304.65036c-3.13644,0-6.20798-1.30246-8.42432-3.56406
			c-2.22925-2.2746-3.44754-5.30078-3.44754-8.51498c-0.013-9.69443-3.70673-18.81207-10.38135-25.68112
			c-6.66147-6.83017-15.52643-10.59515-24.93567-10.60815c-3.13644,0-6.20798-1.30247-8.42435-3.56407
			c-2.22919-2.27461-3.44751-5.30077-3.44751-8.52148c0-3.21422,1.21832-6.24037,3.44751-8.51498
			c2.21622-2.2616,5.2879-3.56406,8.42435-3.56406c15.78574,0.01938,30.61255,6.32466,41.75848,17.74928
			c11.13303,11.41812,17.27628,26.58185,17.28912,42.69821c0,3.17532-1.2572,6.27924-3.44748,8.51498
			C384.97516,303.38025,381.98123,304.65036,378.80591,304.65036z"/>
		<path class="st6" d="M414.29163,304.65683c-3.13647,0-6.20801-1.29608-8.42435-3.56406
			c-2.2291-2.2746-3.44739-5.3009-3.44739-8.52145c0.013-16.11636,6.15619-31.27997,17.28912-42.69171
			c10.99042-11.26259,26.20602-17.7364,41.77145-17.75578c3.14938,0,6.22104,1.30246,8.42435,3.58356
			c2.21622,2.2616,3.44754,5.28789,3.44754,8.50198c0,3.21408-1.2312,6.24039-3.46039,8.51498
			c-2.19034,2.26158-5.26193,3.56404-8.41138,3.56404c-9.40921,0.01303-18.26132,3.78452-24.93594,10.62106
			c-6.59686,6.75238-10.38132,16.10983-10.3942,25.67459c0,3.2077-1.21835,6.23401-3.44754,8.50851
			C420.44788,303.39325,417.46695,304.65683,414.29163,304.65683z"/>
	</g>
</g>
<g id="MIVA-HNY">
</g>
<g id="MIVA-WXDAI">
</g>
<g id="zeroalpha">
</g>
<g id="POAP">
</g>
<g id="pixeth">
</g>
<g id="xDaiTigers">
</g>
<g id="Fraction_Early">
</g>
<g id="CryptoStamp">
</g>
</svg>
