<?xml version="1.0" encoding="utf-8"?>
<svg version="1.1" id="Ebene_1" xmlns="http://www.w3.org/2000/svg" xmlns:xlink="http://www.w3.org/1999/xlink" x="0px" y="0px"
	 viewBox="0 0 512 512" style="enable-background:new 0 0 512 512;" xml:space="preserve">
<style type="text/css">
	.st0{fill:#FFFFFF;}
	.st1{fill:#6F5655;}
	.st2{fill:#543F3F;}
	.st3{fill:#D69B92;}
	.st4{fill:#C39891;}
	.st5{fill:#BB938C;}
	.st6{fill:#524242;}
	.st7{fill:#6B5D5C;}
	.st8{fill:#836966;}
	.st9{fill:#846966;}
	.st10{fill:#7F6563;}
	.st11{fill:#563C3A;}
	.st12{fill:#DD9F94;}
	.st13{fill:#F7B8A8;}
	.st14{fill:#443031;}
	.st15{fill:#3A2E2F;}
	.st16{fill:#6E4946;}
	.st17{fill:#553837;}
	.st18{fill:#483635;}
	.st19{fill:#573E3D;}
	.st20{fill:#4D3533;}
	.st21{fill:#6D5E5C;}
	.st22{fill:#674441;}
	.st23{fill:#694542;}
</style>
<g id="Foam">
	<rect class="st0" width="512" height="512"/>
	<g>
		<path class="st1" d="M445.2,272.7c1.2-0.2,1.5,0.7,1.7,1.6c0.1,0.6,0.1,1.3,0.1,2c0,33.6,0,67.2,0,100.7c0,2.3-0.9,3.4-3,4.3
			c-6.4,2.6-13.1,4.8-19.1,8.3c-8,4.7-16.8,7.2-24.9,11.5c-4.4,2.3-9.1,4-13.5,6.3c-1.8,0.9-3.5,0.9-5.3,0.1
			c-3.7-1.7-7.7-3-11.3-4.9c-8-4.3-16.8-6.6-24.6-11.1c-7.2-4.1-15.1-6.4-22.5-10c-3.5-1.7-3.5-1.6-3.5,2.4c0,17.1,0,34.2,0,51.3
			c0,2.1-0.5,3.2-2.7,4.1c-7.5,3.1-14.8,6.6-22.2,10c-2.2,1-4.5,1.8-6.5,2.9c-5,2.7-10,5.4-15.3,7.5c-3.7,1.5-7.2,3.3-10.9,4.7
			c-1.7,0.6-2.9,2-4.7,2.5c-1.2,0.2-1.3-0.7-1.5-1.5c-0.2-1.1-0.1-2.2-0.1-3.4c0-32.1,0-64.3,0-96.4c0-1.6,0-3.1-0.3-4.7
			c-0.2-1,0.7-1.1,1.3-1.5c5.2-2.9,10.8-4.8,16.2-7.3c3.6-1.3,6.9-3.1,10.2-5c3.9-2.3,8.3-3.8,12.5-5.5c4.5-1.8,8.8-4.1,13.2-6.2
			c0.5-0.2,1.3-0.4,1.2-1.2c-0.1-0.6-0.8-0.6-1.2-0.8c-2.4-1.1-4.8-2.2-7.2-3.1c-2.2-0.9-3.5-2.8-5.5-3.9c-3.8-2-7.6-3.8-11.5-5.7
			c-2.1-1-3.9-2.5-6.1-3.3c-1.2-0.5-2.2-0.6-3.5-0.2c-5.1,1.9-10.1,4.3-15.1,6.4c-1.1,0.5-2.2,1.3-3.6,1c-0.2-0.2-0.3-0.4-0.4-0.7
			c-0.3-1-0.2-1.9-0.2-2.9c0-18.8-0.1-37.5,0.1-56.3c0-0.4,0-0.8,0-1.3c0-0.9,0-1.9,0-2.8c0-0.4,0-0.8,0-1.2c0-3.1,0-6.2,0-9.2
			c0-10.5-0.3-21,0.1-31.5c0.2-1,1.1-1.4,1.9-1.7c10.6-4.4,20.9-9.4,31.4-13.9c3.2-1.4,6.3-3.2,9.4-4.8c5.2-2.7,10.7-4.6,16-7.1
			c1-0.5,2.8-0.6,2.8-1.8c0-1-1.7-1.4-2.8-2c-1.3-0.7-3.1-0.7-3.9-2.3c0.2-0.6,0.7-0.9,1.2-0.8c3.5,0.4,5-2.2,6.8-4.4
			c0.3-0.3,0.6-0.7,0.6-1.2c-0.2-4.8,1-9.5,0.4-14.3c-0.3-1.9,0.5-3.8,1.2-5.6c0.6-1.7,1.4-3.3,0.1-5.1c-0.4-0.5-0.3-1.2,0-1.7
			c0.6-1.2,0.9-2.3-0.2-3.5c-0.5-0.6,0-1.2,0.2-1.9c0.3-1.9,1.1-3.8,0.7-5.6c-0.4-1.7-1.1-3.4-1.6-5.1c-0.5-1.6-1-3.1-0.8-4.8
			c3.2,0.1,5.9,1.8,8.6,3.2c1.1,0.6,2.1,1.4,3.4,1.8c2.8,0.9,4.9,2.8,7.2,4.5c1.1,0.7,1.3,1.7,0.3,2.6c-1.5,1.5-2.5,2.6-0.6,4.9
			c0.8,1,1.1,3.2,1.4,4.9c0.2,1.1-1,2.8-1.8,3.6c-1.1,1-1,1.7-0.9,2.8c0,0.1,0,0.2,0,0.2c-1.9,2.7-0.5,5.3,0.3,7.8
			c0.4,1.1,0.3,1.8-0.4,2.7c-0.8,1.1-1,2.2,0.1,3.2c0.9,0.7,0.5,1.6,0.3,2.5c-0.6,2.1-1.3,4.2,0.6,6.3c0.9,1,0.9,2.6,0.7,4.1
			c-0.1,0.7-0.3,1.5,0.6,1.9c0.8,0.4,1.2-0.1,1.6-0.6c0.4-0.6,1.1-0.4,1.6-0.1c0.8,0.5,1.1,1.2,1,2.1c-0.1,0.9-0.7,1.7-1.1,2.4
			c-0.3,0.5-0.1,1.1,0.3,1.4c0.4,0.4,0.8,0,1.2-0.2c2.1-1.3,4.1-2.4,6.7-1.1c1.4,0.7,1.5-0.7,1.5-1.7c-0.1-2.6-0.1-2.6,2.3-1.8
			c0.8,0.3,1.6,0.6,2.5,0c1.7-1.1,1.8-1,0.2-2.2c-1.1-0.9-1.1-3,0.1-3c1.6,0,2.2-1.4,3.6-1.7c-0.5-0.8-1.5-0.8-1.9-1.7
			c-0.5-1.4-1-2.5,0.8-3.3c1.1-0.5,2.1-1.2,1.7-2.8c-0.1-0.6,0.4-1.1,0.8-1.6c0.3-0.4,0.5-0.8-0.1-1.1c-1.6-0.8-1.2-1.7-0.2-2.8
			c0.4-0.5,0.4-1.1,0.3-1.7c-0.1-0.4-0.5-1-0.2-1.3c1.5-1.8-0.2-3.8,0.3-5.8c0.3-1,0.1-2.4-0.5-3.5c-0.7-1.3-1.2-2.6,0.9-3
			c0.5-0.1,0.3-0.3,0.1-0.5c-1-1.6,0.2-1.8,1.2-1.5c2.1,0.6,4.7,0.5,5.8,3c-1.3,1.1-2.6,2.2-0.6,3.9c0.3,0.2,0.2,0.7,0.3,1.1
			c0.6,1.7,0.1,3.7,1.3,5.3c0.4,0.5,0.4,1.7,0,2.2c-1.6,2.2-0.9,4.7-1.3,7.1c-0.1,0.4-0.1,0.8-0.2,1.1c-1.3,2.9-1.5,5.9-1.2,8.9
			c0.1,1.7-0.5,2.5-1.9,3.1c-1.1,0.5-1.7,1.1-1.2,2.4c0.4,1.1-0.3,2-0.8,3c-1,2-1.7,4,0.3,5.9c0.8,0.8,0.4,1.6-0.4,2.1
			c-1.1,0.6-1.1,1.7-1.6,2.6c-1,2-1.5,3.9-0.7,6c0.2,0.5-0.6,0.8-0.9,1.5c2.3-0.2,3.2,0.7,2.5,2.9c-0.3,1,0,1.8,1.3,1.8
			c1,0,1.4,0.6,1.1,1.5c-0.4,1.3,0.2,2.6-0.5,4.1c-0.6,1.2,0.1,2.9-0.6,4.5c-0.3,0.7,1,1.1,1.6,1.7c-1.6-1.5-1.2-2.7,0-4.2
			c1.4-1.8,1.9-4.1,3.3-6c0.8-1.1,1.6-1.5,2.5-0.6c0.7,0.8,1.9,0.7,2.4,1.2c1.2,1.1,1.9,0.4,2.8-0.1c0.8-0.5,1.7-0.3,2.6-0.2
			c2.1,0.2,2.8-0.4,3-2.6c0.1-0.7,0-1.5,0-2.2c0-16,0-32.1,0-48.1c0-1.1-0.2-2.3,0.4-3.3c0.5-0.7,1.1-1.2,1.9-1.5
			c5.8-2.2,11.1-5.6,16.9-7.7c9.1-3.4,17.7-8.1,26.6-11.9c4.7-2,9.3-4.4,13.9-6.7c1.3-0.6,2.6-1.5,4.2-0.9c0.4,0.9,0.2,1.9,0.2,2.9
			c0,26.3,0,52.6-0.1,78.9c0,7.3,0,14.5,0.1,21.8c0,1.6-0.6,2.5-2,3.1c-9.8,4.3-19.2,9.7-29.2,13.8c-2.1,0.9-4.8,1.6-6.4,3.7
			c-5.2,2.3-10.5,4.5-15.8,6.7c-2,0.8-3.8,2.1-5.6,3.1c-2.7,2.2-5.4,2.5-8.4,0.6c-6-3.7-12.6-6-18.9-9c-0.8-0.5-1.8-0.6-2.6-1.1
			c-6.9-3.8-14.1-7-21.4-9.8c-2.7-1-5.1-2.5-7.6-3.8c-2.4-1.3-4.9-2.3-7.3-3.4c-1.4-0.6-2.1-0.4-2.1,1.3c0,10.2,0,20.4,0,30.6
			c0,0.7,0.1,1.3,0.5,1.9c1.7,1.9,4.1,2.4,6.3,3.2c5.6,2.2,11.2,4.6,16.8,6.8c1.3,0.5,2.5,1.4,3.6,2.2c1.3,0.9,2.7,1.6,4.2,2
			c5.3,2.2,10.6,4.4,15.8,6.9c3.2,1.5,6.5,2.9,9.6,4.8c0.4,0.3,0.7,0.6,1,0.8c2.4,1.4,2.4,1.4,0.7,3.6c-0.3,0.4-0.6,0.8-0.5,1.2
			c0.8,2.5-0.3,5.1,0.3,7.6c0.4,1.6,0.4,3.3,0.2,4.9c-0.3,2.7-0.7,5.4-0.6,8.1c0,1,0,2.1-0.6,2.8c-1.8,2.4-1.4,5.5-2.4,8
			c-1,2.5-0.9,5.7-4,7.6c1.2-0.3,2-0.2,2.4,0.7c0.3,0.8-0.1,1.4-0.6,1.8c-1.2,0.9-0.8,1.7,0,2.6c0.9,1,1.8,2,1.1,3.6
			c-0.1,0.2-0.1,0.6,0,0.6c1.8,0.6,1.8,3.3,4.1,3.4c1,0.1,2,0.6,2.9,1.1c1.6,0.9,2.1,0.6,2.2-1.3c0-0.7,0-1.3,0-2
			c0-16.2,0-32.4,0-48.6c0-1.3-0.3-2.7,0.8-3.9c3.4-1.8,7-3.2,10.6-4.7c2.1-0.9,4.1-2.2,6.2-3c7.2-3.4,14.7-5.8,21.6-9.9
			c5.3-3.1,11.2-4.9,16.8-7.5C441.1,275.3,443.5,274.7,445.2,272.7z"/>
		<path class="st2" d="M65.8,273.2c5.5-2.4,11-4.9,16.5-7.3c3.3-1.4,6.1-3.7,9.6-4.9c3.8-1.4,7.5-3.3,11.3-4.9
			c0.8-1,1.8-0.8,2.9-0.4c6.3,2.8,12.9,4.9,18.7,8.7c1,0.6,2.2,1.7,3.3,1.1c1.2-0.6,0.6-2.2,0.6-3.3c0-32.4,0-64.7,0-97.1
			c0-1.3-0.1-2.5,0.1-3.8c0.3-1.6,1.5-2.3,2.8-2.9c8.4-4.2,17.1-7.5,25.6-11.5c6.6-3.1,13.2-5.9,19.7-9.2c4.2-2.2,8.5-4.4,13-6
			c1-0.3,2.2-1.1,2.9,0.5c0.2,0.8,0.2,1.6,0.2,2.5c0,17.9,0,35.8,0,53.8c0,0.4,0,0.7-0.1,1.1c0.1,8.8,0.1,17.7,0,26.5
			c-0.1,5.7-0.1,11.5,0,17.2c0,1.1,0.1,2.2-0.2,3.3c-0.3,1.1-1.2,1.4-2.1,1.8c-10.1,4.3-19.6,10.1-29.9,14c-1.5,0.6-2.8,1.7-4.3,2.4
			c-0.5,0.2-1.1,0.4-1.1,1c0,0.6,0.6,0.8,1.1,1c2.5,1,5,2,7.5,3.1c7.5,3.5,14.6,7.6,22.3,10.5c2,0.7,3.9,1.5,5.8,2.5
			c0.9,0.8,0.9,1.9,0.9,2.9c0,6.8,0.1,13.7,0,20.5c0.1,11.8,0.1,23.7,0,35.5c0.2,15.2,0.1,30.4,0.1,45.6c0,0.9,0,1.8-0.7,2.5
			c-3.1,1.3-6.1,2.6-9.1,3.9c-3.9,1.7-7.8,3.3-11.7,5.1c-3.4,1.5-6.2,3.9-9.7,5.2c-5.1,1.9-10.1,4-15,6.5c-5.4,2.8-11,5.2-16.6,7.7
			c-1.2,0.5-1.2-0.5-1.4-1.1c-0.2-1-0.1-2.1-0.1-3.1c0-32.4,0-64.9,0.1-97.3c0-3-0.9-4.6-3.7-5.7c-8.2-3-15.9-7.2-24-10.6
			c-11.2-4.8-21.9-10.7-33.3-15.1C66.8,274.8,65.4,274.8,65.8,273.2z"/>
		<path class="st3" d="M192.3,379.8c0-16,0-32,0.1-48c0.1-0.2,0.3-0.3,0.5-0.3c0.9,0,1.7,0.4,2.6,0.6c5.1,1.8,9.9,4.3,14.7,6.6
			c6,2.9,12.5,4.8,18.3,8.1c7.9,4.4,16.3,7.3,24.5,11.1c1,0.5,2,1,2.4,2.2c1.2,0.6,0.9,1.8,0.9,2.8c0,28.3,0,56.6,0,84.9
			c0,5.6,0,11.2,0,16.9c0,0.8-0.5,1.9,0.9,2.2c-1,0.7-2,0.4-2.9-0.2c-4.2-2.8-9.1-4.1-13.6-6.3c-5-2.4-10.2-4.4-15-7.2
			c-5.1-3-11-4.6-16.3-7.3c-5.2-2.6-10.5-4.8-15.8-7.2c-1.2-0.6-1.1-1.6-1.1-2.7c0-8.2,0-16.3,0-24.5
			C192.3,400.9,192.3,390.3,192.3,379.8z"/>
		<path class="st4" d="M65.8,273.2c2,2,4.8,2.5,7.2,3.6c5.4,2.4,11.1,4.1,16.2,7.1c7.5,4.5,15.8,6.9,23.4,10.9
			c4.8,2.5,9.7,4.3,14.6,6.5c1.5,0.7,2,1.6,2,3.2c0,33.8,0,67.6,0,101.4c0,0.8-0.7,2.1,0.9,2.3c-0.8,0.8-1.6,0.5-2.5,0.1
			c-9.4-4.2-18.8-8.3-28.2-12.5c-2.2-1-4.4-1.8-6.6-2.8c-4.9-2.3-9.6-5.3-14.8-7.2c-3.6-1.3-6.9-3.1-10.5-4.5
			c-1.8-0.7-2.3-1.8-2.3-3.6c0-7.9,0.1-15.9,0.1-23.8c0-25.9,0-51.7,0-77.6C65.3,275.3,65,274.1,65.8,273.2z"/>
		<path class="st5" d="M129.3,160.7c0,34.7,0,69.4,0,104.1c0,2.4-0.2,2.5-2.2,1.4c-6.9-3.9-14.1-7-21.3-10c-0.9-0.4-1.7-0.5-2.5-0.2
			c0.1-0.7-0.3-1.1-0.9-1.4c-5.7-2.6-11.2-5.5-17.1-7.6c-4.7-1.7-8.9-4.3-13.3-6.5c-1.5-0.7-2.9-1.5-4.5-2c-1.5-0.4-1.9-1.3-1.9-2.8
			c0-34.2,0-68.5,0-102.7c0-0.7-0.3-1.5,0.5-2c2.4,0.5,4.6,1.5,6.7,2.6c7.2,3.6,14.6,6.9,21.9,10.2c5,2.3,10,4.8,15.2,6.8
			c5.3,2,10.2,4.7,15.4,6.9C126.7,158.3,128.4,158.9,129.3,160.7z"/>
		<path class="st6" d="M319.3,131c1.2,3.4,1.3,7.2,3.3,10.3c0.4,0.6,0,1-0.4,1.4c-0.5,0.5-1,1.2-0.6,1.8c0.8,1.1,0.3,1.7-0.4,2.5
			c-0.3,0.4-0.7,1-0.1,1.4c1.9,1,0.9,2.1,0.4,3.3c-0.3,0.6-0.7,1.2-0.2,1.9c1.2,1.4,1,2.7,0.3,4.3c-1.7,3.8-1.6,7.8-1.2,11.9
			c0.2,2.2-0.7,4.5-0.6,6.8c0.1,3.2-1.8,4.8-3.7,7c-1.8,2.1-3.8,0.8-5.4,1.6c-0.9,0.7-1.7,0-2.5-0.3c-4.5-1.4-8.5-4-12.7-6
			c-7.1-3.4-14.4-6.1-21.5-9.5c-5.9-2.8-12.1-5.1-17.8-8.3c-0.7-1.3-0.5-2.8-0.7-4.2c-0.3-2.4-1.5-4.1-3.6-5c-1.5-0.6-2.6-1.8-4.2-2
			c-0.9-0.1-1.1-1.2-0.9-2c0.2-1.3-0.3-2.2-1.2-3c-1-0.9-1.5-2-1.2-3.4c0.4-1.7-0.1-3.3-0.8-4.8c-0.2-0.5-0.8-1.1-0.5-1.4
			c1.5-1.4,1.8-3.1,1.4-5.1c2.8-3.2,1.8-7.4,3.1-11.1c0.9-2.6,0.2-5.3,1.1-8c0.8-2.3,0.1-5,0.6-7.5c0.1-0.5-0.3-1-0.7-1.4
			c-1.1-1.1-0.7-2,0.5-2.8c1.3-0.4,2.4,0.3,3.4,0.8c2.5,1.3,4.9,1.1,7.5-0.1c7.4-3.4,14.7-7,22.1-10.4c5.7-2.6,11.7-4.8,17.3-7.6
			c5-2.5,10.4-4.3,15.2-7.1c1.4-0.8,2.9-1.6,4.6-1.4c0.5,0.4,0.5,1,0.5,1.6c0,15.5,0,31-0.1,46.5C319.1,124.7,319.8,127.8,319.3,131
			z"/>
		<path class="st7" d="M256.2,160.7c5.2,2.2,10.5,4.4,15.6,6.9c5.5,2.7,11.2,4.8,16.7,7.3c4.5,2,9,4,13.2,6.6
			c2.7,1.6,5.9,2.4,8.9,3.5c2.3,1.4,5,1.9,7.1,3.6c0.3,0.3,0.8,0.4,0.8,0.9c0,0.5-0.5,0.7-0.9,0.9c-5,2.1-10,4.3-15.1,6.3
			c-2.8,1.1-5.4,2.7-8,4.1c-5.8,3.1-12,5.3-17.9,8.2c-5.7,2.8-11.6,5.1-17.3,7.8c-1,0.5-2.1,0.8-3.1,1.1c-0.9,0.7-1.7,0-2.5-0.4
			c-7.3-2.9-14.4-6.3-21.5-9.6c-3.4-1.6-7-2.7-10.3-4.5c-9.1-5-18.8-8.7-28.3-12.9c-0.5-0.2-0.9-0.5-1.3-0.9c0-17,0-34.1-0.1-51.1
			c0-2.3,0-4.6,0-7c-0.2-0.2-0.2-0.3,0-0.5c0.6-0.8,0.3-1.7,0.3-2.6c0-17.5,0-35,0-52.5c0-0.8-0.4-1.8,0.4-2.5
			c1.6-0.4,2.9,0.6,4.2,1.3c2.1,1.2,4.2,2.3,6.4,3.3c0.7,0.3,1.4,0.5,1.4,1.5c-0.7,1.4-1,3-0.9,4.6c0.3,3.5-0.5,7-0.6,10.5
			c-0.1,3,0,6.1,0.1,9.1c0.1,3.2-0.6,6.4,0.2,9.7c0.9,3.6-0.3,7.3-0.3,11c0,3.8,0,7.6-0.1,11.4c-0.4,8.5-0.2,17-0.8,25.5
			c-0.1,2.1,0.5,3.8,1.2,5.6c1,3.1,1.6,6.4,3.9,9c0.3,0.4,0.5,0.9,0.7,1.4c0.8,2.4,1.7,2.8,4.2,2c2.4-0.8,4.6-2.2,6.8-3.4
			c4.6-1.6,8.9-3.8,13.4-5.6c6.9-2.8,13.4-6.6,20.4-9.3C254.3,160.5,255.2,159.9,256.2,160.7z"/>
		<path class="st8" d="M319.3,131c0.1-3.1-0.5-6.3,0.4-9.4c0,2.5,0.1,4.9,0,7.4c0,1.5,0.6,1.8,1.9,1.2c4-1.8,8.1-3.2,11.9-5.2
			c5-2.6,10.4-4,15.3-6.6c4.4-2.3,9-4.2,13.4-6.3c6.4-3,13-5.5,19.6-8.3c1.5-0.6,2.8-0.6,4.3,0c7.1,3.1,14.3,5.8,21.2,9.1
			c7.4,3.6,14.9,6.9,22.4,10.5c5.2,2.5,10.4,4.7,15.7,7.1c0.6,0.3,1.3,0.4,1.7,1.1c-5.2,1.3-9.7,4.3-14.5,6.5
			c-3.7,1.7-7.4,3.4-11.2,5c-4.5,1.9-8.6,4.4-13.2,6.2c-4.6,1.8-9.4,3.5-13.7,5.9c-3.5,2-7.3,3.2-10.8,5.2c-0.3,0.3-0.7,0.2-1,0.1
			c-4-1.9-8.1-3.8-12.1-5.7c-0.3-0.2-0.6-0.4-0.8-0.7c-2-1.6-4.4-2.2-6.8-2.6c0,0.3,0,0.4,0,0.6c0.2,0.9,1.8-0.1,1.5,1.1
			c-0.2,0.8-1.1,0.4-1.8,0.6c-1.6,0.4-0.9,1.2-0.5,2.1c0.6,1.6,1.6,3.2,0.4,4.9c-0.4,0.7-0.2,0.9,1.7,2.4c-1.6,0.9-2.5,2-1.4,3.9
			c0.4,0.7,0,1.8-0.7,2.2c-1.6,0.9-0.8,1.4,0.3,1.5c2.1,0.2,1.1,1,0.4,1.7c-0.8,0.8-1.2,1.4-0.8,2.7c0.5,1.6-1.7,1.3-2.3,2.3
			c-0.2,0.4-1.6,0.2-1,0.9c0.6,0.7-0.2,2.5,1.6,2.1c0.8-0.1,1.1,0.4,1.1,1c0.1,0.8-0.4,1-1.1,1.1c-1.3,0-1.7,0.7-1.1,2.2
			c-1.1-0.4-1.8-2.4-2.6-0.4c-0.3,0.6-0.5,1.7,0.9,1.7c1.1,0,1.4,1,1.5,1.8c0.2,0.8-1,0.5-1.2,0.7c-1.7,1.8-3.3,1.1-4.9,0.1
			c-0.3-0.2-0.6-0.2-0.8,0.1c-0.1,0.2-0.1,0.7,0.1,0.8c1,1,0.2,1.8-0.1,2.6c-0.4,1.1-0.8,1.1-1.8,0.6c-2.2-1.1-5-0.7-6.6,0.9
			c-0.4,0.4-0.6,1.7-1.3,0.7c-0.5-0.7-2-1.7-0.8-2.8c0.7-0.7,1-1.5,1.2-2.3c0.2-0.9-0.4-1.5-1.1-1.7c-0.8-0.3-0.8,0.3-1,1
			c-0.3,1.2-1.1,0-1.7,0.2c-1,0.2-1.7-0.5-1.4-1.5c0.8-2.7,0-4.8-1.8-6.9c-1-1.1,0.5-2.9,0.6-4.4c0.1-1.1,0.9-1.8-0.7-2.7
			c-1.1-0.6-0.7-2.2,0.1-3c1.6-1.6,0.4-3.1,0-4.4c-0.6-1.9-1.7-3.6,0-5.5c0.6-0.7,0.3-1.7-0.2-2.5c-0.6-0.8-0.6-1.5,0.7-1.1
			c0.5,0.1,1.2-0.2,1-0.4c-1.8-1.9,3.6-2.5,0.7-4.4c-1.4-1,0.1-3.3-0.5-3.5c-2.2-0.6-1.3-2-1.3-3.2c0-0.6,0.4-1.3,1-1.7
			c2.4-1.3,1.1-2-0.3-3.1c-2.6-1.9-5.6-3-8.3-4.6C325.8,133.7,322.4,132.6,319.3,131z"/>
		<path class="st9" d="M204.9,79.2c-4-2-7.9-3.9-11.9-5.9c8.3-4.5,17.2-7.5,25.6-11.6c5.5-2.7,11.3-4.6,16.5-7.8
			c2.1-1.2,4.6-1.9,6.8-3c4-2.1,8.2-3.9,12.3-5.7c1.3-0.5,2.3-0.6,3.6-0.1c6.8,2.5,13.1,6,19.7,9c3.9,1.8,8,3.3,11.7,5.4
			c7.5,4.1,15.6,6.6,23.2,10.4c2.2,1.1,4.6,1.9,6.6,3.5c-5.1,2.4-10.3,4.7-15.4,7.1c-8,3.9-16.4,7-24.4,10.9
			c-6.3,3.1-12.6,5.9-18.9,9c-3.2,1.6-6.1,1.5-9.1-0.2c-0.7-0.4-1.4-0.8-2.3-0.7c-1.7-0.1-3.1-1.1-4.6-1.8
			c-6.6-3.2-13.3-6.5-20.1-9.4c-3.9-1.6-7.8-3.1-11.5-5C210.2,81.9,207.4,80.9,204.9,79.2z"/>
		<path class="st10" d="M192.3,131c0,0.2,0,0.3,0,0.5c-3.4,1.1-6.7,2.2-9.7,4.3c-0.7,0.5-1.5,0.6-2.3,1c-6,2.7-12,5.3-17.9,8.2
			c-7.3,3.6-14.8,6.5-22.2,9.7c-3.3,1.4-6.4,3.3-9.8,4.8c-0.5,0.2-0.8,0.8-1.2,1.3c-6-3.6-12.4-6.5-19-9.1
			c-5.9-2.4-11.6-5.2-17.4-7.8c-3.2-1.4-6.6-2.4-9.6-4.2c-3.1-1.8-6.5-3.1-9.6-4.8c-2.1-1.1-4.3-2-6.5-2.9c-0.5-0.2-1-0.3-1.2-0.9
			c4.6-2,9.3-3.6,13.7-6c5.1-2.7,10.6-4.4,15.6-7.1c10.5-5.7,21.6-10,32.4-14.8c0.9-0.4,1.7-0.4,2.6,0c7.4,3.2,14.9,6.2,22.2,9.6
			c7.7,3.7,15.5,7.2,23.2,10.8C181.1,126.2,186.7,128.8,192.3,131z"/>
		<path class="st11" d="M445.2,272.7c-0.1,1.6-1.3,2.1-2.5,2.6c-5.7,2.4-11.3,4.9-17,7.3c-2.5,1-4.5,2.8-7,3.8
			c-5,2.2-10,4.4-15.1,6.5c-1,0.4-1.8,1.4-3,1.4c-0.1-1.4,1.2-1.6,1.9-2.2c0.9-0.8,1.3-1.6,0.2-2.6c-0.2-0.2-0.5-0.4-0.6-0.7
			c-0.1-3-2.2-5.1-3.2-7.7c-0.9-2.4-2.4-4.5-4-6.4c-0.7-0.9-1.2-1.6-1.1-2.8c0.1-1-0.1-1.9-0.3-2.9c-0.3-1.5-0.6-3,0.7-4.5
			c-2.4,0.5-4.3,1.4-6.4,0.6c0.9-1.4,2.6-1.9,3.9-2.5c5.2-2.5,10.7-4.5,16-6.8c0.6-0.2,1.1-0.5,1.7-0.2c4.7,2.1,9.5,4.2,14.2,6.3
			c0.7,0.3,1.3,0.9,2,1.4c2.1,2.2,4.9,3.3,7.7,4.4c2,0.8,4,1.7,5.8,2.8c0.7,0.4,1.5,0,2.1,0.5C442.7,271.6,444,272.1,445.2,272.7z"
			/>
		<path class="st1" d="M441.5,271c-1,0.4-1.8,0.3-2.9-0.3c-3.6-2.2-7.9-3.2-11.6-5.5c-0.8-0.5-1.2-0.9-1.2-1.9
			C431.1,265.9,436.3,268.4,441.5,271z"/>
		<path class="st12" d="M192.4,296c0-6.9,0-13.8-0.1-20.7c0-0.9,0.2-2-0.9-2.5c1.1-2.5,0.8-5.2,0.6-7.7c-0.3-3.9-0.2-7.9-0.1-11.8
			c0.1-5.1,0-10.1,0.2-15.2c0-0.3,0.1-0.6,0.2-0.9c0-7.1,0-14.1,0.1-21.2c1.3,1,1.6,2.4,1.3,3.9c-0.6,3-0.6,5.9,0,8.9
			c0,0.2,0.2,0.5,0.1,0.7c-0.7,2,0.7,2.9,2.1,3.8c0.7,0.5,1.6,0.9,1.5,2.1c-0.2,1.9,1.1,2.6,2.4,2.5c1.9-0.1,3.5,1.4,5.5,0.6
			c1.1-0.4,1.7,0.8,1.8,2c0,0.5-0.3,0.9-0.4,1.3c-0.2,0.7-1.3,1.5-0.4,2.1c0.9,0.6,2.1,1.3,3.3,0.5c0.2-0.1,0.4-0.2,0.6-0.3
			c0.8-0.4,1.7-0.7,2.5,0.1c0.8,0.8-0.1,1.5-0.6,2.4c2.1-0.1,3.5,0.8,4.4,2.3c0.9,1.4,0.5,3.1,0.4,4.9c1.3-0.4,1.3-1.6,1.8-2.3
			c1.1-1.5,1.6-1.5,2.6-0.1c0.4,0.6,0.8,1.1,1.5,1.3c2.5,1,2.5,1,3.2,3.3c0,0.3,0.4-0.1,0.2,0c-0.1,0-0.1,0-0.1-0.2
			c-0.1-1.7,0.9-1.7,2-1.2c1.2,0.5,2.1,1.7,3.6,1.5c0.5-0.1,0.6,0.5,0.8,0.9c1.1,2.1,1.5,4.5,3,6.3c0.6,0.7-0.3,1.2-0.6,1.8
			c1.2-0.4,0.9-1.3,0.9-2.2c0-0.8,0.2-1.6,0.9-1.9c0.9-0.4,1,0.6,1.4,1.1c0.4,0.7,0.9,1.2,1.3,0c0.2-0.6,0.6-0.9,1.2-0.7
			c1.4,0.6,2.4,0.2,3.5-0.7c0.4-0.3,0.8-0.3,1.2,0.2c0.8,1.1,0.2,3.4-1.2,3.9c-1.1,0.4-2,0.9-3.4,2.1c2.8-1.1,3.8,0.4,4.9,1.9
			c0.8,1,1.3,1.2,2.6,0.6c1.8-0.9,3.7-2.4,6-1.3c0.7-1.3-1.3-3.6,1.7-3.7c0,13.2,0.1,26.4,0.1,39.5c0,6.9-0.1,13.8-0.1,20.7
			c-0.7,0.7-1.4,0.2-2-0.1c-5.9-2.6-12.1-4.7-17.8-8c-1.6-0.9-3.4-1.2-4.9-2.1c-5.3-2.5-10.8-4.4-16-7.1c-2.1-1.1-4.1-2.2-6.2-3.2
			c-5-2.1-9.9-4.3-14.9-6.4C193.5,297.1,192.6,297,192.4,296z"/>
		<path class="st13" d="M256.2,264.2c-1.5,0.3-1.4,1.3-1,2.4c0.2,0.8,0.5,1.8-0.2,2.3c-0.8,0.6-1-0.8-1.5-0.8
			c-1.9-0.2-3.6,0.7-4.8,1.7c-1.6,1.4-2.2,0.5-2.9-0.6c-0.5-0.7-1.1-1.2-1.6-1.8c-0.7-0.7-1.1-1-2-0.3c-0.5,0.4-1.4,0.4-1.8-0.3
			c-0.4-1,0.6-1,1.2-1.2c1.1-0.5,2-1.3,3.3-1.6c1.7-0.4-0.6-2.1,0.5-3.2c-1.6,1.6-3.1,2.3-4.9,0.8c-0.7,0.7,0.7,2-0.8,2
			c-1.4,0-2.3-0.8-2.2-2.6c-0.8,1-1.3,1.8-0.9,2.8c0.2,0.5,0.2,1.1-0.3,1.4c-0.7,0.5-1.7,1.2-2.2,0.5c-0.9-1.3,1.4-0.9,1.2-2.3
			c-0.9-0.4-1.6-1-1.5-2.7c0.1-1.3-1.8-2.4-1.7-4.2c0-0.1-0.3-0.3-0.3-0.3c-1.6,1.2-2.2-0.6-3.3-1.1c-0.5-0.3-1.2-1.1-1.8-0.4
			c-0.7,0.7,0.3,1.1,0.6,1.6c0.1,0.2,0.1,0.4,0.1,0.8c-1.6-0.3-2.4-1.2-2.3-2.5c0.1-1.1-0.2-1.2-1.1-1.3c-1.5-0.1-3.1-0.2-3.2-2.3
			c-0.1-0.7-0.7-0.8-1.1-0.1c-0.4,0.7-1,1.3-1.1,2.2c-0.1,1-0.9,1.6-1.7,1.4c-1-0.2-0.7-1.1-0.5-2c0.7-2.9-0.2-5-3.7-5.3
			c-0.5,0-1.3,0.1-1.5-0.6c-0.2-0.7,0.5-0.8,0.9-1.1c0.4-0.3,0.8-0.5,0.5-1c-0.3-0.4-0.8-0.7-1.2-0.4c-2.1,1.8-4.1,1.1-6.3,0
			c0-0.9,0.6-1.7,1.1-2.5c0.5-1,0.8-1.8-0.2-2.6c-0.9-0.7-1.6,0-2.4,0.5c-0.2,0.2-0.4,0.4-0.9,1c0.3-2.3-1.1-2.2-2.3-1.9
			c-1.7,0.3-2.6-1.1-3.9-1.5c-0.3-0.1-0.4-0.4-0.2-0.8c1.3-2.5-1.1-2.8-2.3-3.4c-0.8-0.4-1.4-1-1.3-1.5c0.7-3.3-0.9-6.6-0.1-9.8
			c0.4-2,0.5-3.8-0.4-5.6c0-8.8,0-17.7,0-26.5c4.4,1.3,8.4,3.4,12.6,5.1c4.4,1.8,8.8,3.6,12.9,6c6.2,3.5,13,5.4,19.2,8.7
			c6.2,3.3,12.7,5.7,19.1,8.5c0,10.8-0.1,21.6-0.1,32.4c-0.5,3.2-0.8,6.3,0,9.5c0,0.3,0,0.6,0,0.9c-0.5,0.9-0.6,1.8,0,2.7
			C256.2,263.6,256.2,263.9,256.2,264.2z"/>
		<path class="st14" d="M231.5,313.7c7.8,3.5,15.5,6.9,23.3,10.4c0.4,0.2,0.8,0.2,1.3,0.3c0.2,0,0.3,0.1,0.5,0.1
			c0.5-0.3,1.1-0.3,1.7-0.5c2.7-0.7,3-0.4,2.6,2.3c-0.2,1.6,0.9,2.8,1.7,4c1.6,2.5,3.5,4.8,5.4,7c0.9,1.1,1.8,2.2,3,3
			c1.8,1.1,1.6,3.3,2.7,4.8c0.6,0.8,1,1.7,2,2.2c1.3,0.6,1.3,1.6,0.4,2.7c-0.9,1.2-2.4,1.5-3.5,2.4c-3.5,2-7.4,3.4-11.2,4.9
			c-2.2,0.9-3.9,2.8-6.4,2.7c-6.9-4.1-14.8-6.1-21.8-9.9c-7.3-4-15.1-7-22.6-10.5c-5.2-2.4-10.4-5-15.8-7.2c-0.6-1.1,0.3-1.6,1-1.8
			c6-1.5,10.4-6,16-8.5c4.1-1.8,8.1-3.7,12.2-5.7c1.7-0.8,3.2-1.9,5-2.6C230,313.6,230.7,313.3,231.5,313.7z"/>
		<path class="st15" d="M388.1,265.1c2-0.7,4.4,0.2,6.1-1.6c0.1-0.1,0.6-0.1,0.8,0.1c0.4,0.4,0.3,0.9,0,1.2c-1.6,1.4-0.9,3-0.6,4.6
			c0.2,1,0.7,2,0.1,3c-0.3,0.6,0,1.3,0.7,1.7c1.2,0.6,1.5,1.9,2.1,2.9c1.3,1.8,2.5,3.6,2.8,5.9c0.1,0.6,0.7,0.7,1.2,0.8
			c0.8,0.1,1.2,0.6,1,1.4c-0.5,1.8-0.1,3.2,1.4,4.5c1.1,0.9,0.5,2-0.5,2.8c-0.9,0.7-2,1-2.6,2c-4.3,2.4-9,4.1-13.5,6.1
			c-1,0.4-2.1,0.8-3.1,1.1c-0.9,0.7-1.9,0.4-2.8-0.1c-1.7-0.8-3.3-1.7-4.9-2.6c-4.3-1.4-8.2-4-12.3-5.7c-4.3-1.8-8.6-3.7-12.8-5.5
			c-1-1.5-0.3-2.7,0.8-3.8c1.5-1.5,2.7-3,2.2-5.5c-0.4-1.9-0.7-2.6-2.7-2.6c-0.9,0-1.9,0.2-2.2-0.9c-0.3-1.1,0.5-1.6,1.3-2.2
			c-1.8-0.1-3.2-0.8-4.2-2.3c-0.7-1-2.3-1-3-2.2c-0.4-0.8-0.7-1.4-0.1-2.2c4.2-5.1,10.2-7.2,16-9.4c0.5-0.2,1.2-0.2,1.7,0.2
			c3.9,1.7,7.7,3.4,11.6,5c2.1,0.9,4,2.1,6,3.3C381.8,266.7,384.8,267.6,388.1,265.1z"/>
		<path class="st16" d="M369.6,153.9c4.9,1.6,9.3,4.2,13.9,6.3c0,17.7,0,35.4,0,53.1c0,3.5-0.7,4.2-4.3,3.6c-2-0.4-2.8,1.4-4.1,2.1
			c-1-0.5,0.2-1.3-0.4-1.8c-0.1,0-0.2-0.1-0.3-0.1c-1,0.4-2.2,1.8-2.3-0.8c0-0.6-0.6-0.8-1.2-0.7c-0.6,0-0.6,0.4-0.7,0.9
			c-0.2,1.4-1.6,2-2.1,3.3c-0.5,1.3-0.3,3-2.1,3.8c-0.8,0.4-0.6,1.8,0.7,2.2c0.6,0.2,1.2,0.4,0.7,1.2c-0.5,1-1.2,0.4-1.7,0.1
			c-0.7-0.4-1.1-1.2-1.9-1.5c-0.6-0.2-0.6-0.9-0.1-1.3c1.4-1,1.3-2.2,0.5-3.5c-0.1-0.2-0.1-0.6-0.1-0.6c2.1-0.9-0.1-2.9,1.1-4.1
			c0.5-0.5,0-1-0.7-1c-2.2,0-2.8-0.8-1.8-2.9c0.6-1.4,0.5-1.9-1.1-1.4c-1,0.3-1.7-0.3-1.9-1.1c-0.4-1.3,0.7-0.6,1.2-0.8
			c0.6-0.2,0.3-0.7,0.2-1.1c-0.4-1.6-2.2-3.4,0.7-4.4c0.1,0,0.2-0.3,0.2-0.4c-0.8-2,0.1-3,1.9-3.7c0.9-0.4,0.5-1-0.1-1.3
			c-2.2-1.2-1.4-3.1-1-4.8c0.4-1.9,2.9-3.4,0.8-5.6c-0.4-0.4,0.2-0.8,0.7-0.8c1,0,1.5-1,2.4-1.1c0.3,0,0.5-0.3,0.8-0.5
			c-1.2-1.5,1.1-3-0.1-4.5c-0.7-0.8-0.4-1.5,0-2.5c1.1-2.6,2.2-5.2,1.4-8.2c-0.2-0.7,0.1-1.3,0.4-1.9c1.1-1.7,2.3-3.4-0.2-4.9
			c-0.1-0.1-0.2-0.5-0.1-0.6c1.7-1.4-1-2.8,0-4.2c0.1-0.1-0.1-0.4-0.3-0.6c-0.7-0.6-2-0.6-1.4-2.3
			C367.7,154.4,368.8,154.5,369.6,153.9z"/>
		<path class="st17" d="M272.9,352.4c0.6-1.3,2-1.7,3-2.7c1.2-1.3,0.9-2-0.6-2.2c-1-0.1-1.2-0.5-1.5-1.5c-1-3.1-2.9-5.6-5.3-7.8
			c-1.5-1.3-3.3-2.9-3.9-4.4c-0.8-1.9-3.1-2.8-3.1-5c0-0.3-0.5-0.8-0.8-1c-0.9-0.6-1-1.2-0.2-2c0.3-0.4,0.9-0.7,0.5-1.3
			c-0.4-0.6-1-0.7-1.6-0.4c-0.9,0.3-1.7,0.4-2.6,0.3c4.5-2.4,9.4-4.1,14.1-6.3c0.4-0.2,0.9-0.3,1.2-0.5c3.1-2,6.1-1.7,9,0.3
			c4.5,3,9.5,5.1,14.3,7.3c2.4,1.1,3.8,3.6,6.3,4.4c2.6,0.9,5.1,2.2,7.6,3.2c0.7,0.3,1.7,0.3,1.7,1.2c0.1,0.9-0.9,1.2-1.5,1.5
			c-4.6,2.2-9.2,4.3-13.8,6.4c-4.3,1.9-8.9,3.2-12.9,5.7C279.6,349.6,276.4,351.3,272.9,352.4z"/>
		<path class="st18" d="M319.5,296.1c0.3,6.7,0.6,13-0.1,19.4c-0.1,1.3,0.2,2.6,0.3,3.9c0.1,1.3-0.2,2.4-1.5,2.9
			c-2.6,1.1-5.1,2.1-7.7,3.2c-1.3,0.5-2.3,0.2-3.6-0.4c-4.8-2.2-9.8-4.1-14.6-6.3c-3.2-1.4-6.3-3-9.4-4.5c-0.4-0.2-1.1-0.3-1.1-1
			c0-0.6,0.7-0.7,1.2-0.9c3.2-1.4,6.5-2.6,9.6-4.2c5.5-2.8,11-5.6,16.7-7.9C312.6,299.1,315.8,297.6,319.5,296.1z"/>
		<path class="st19" d="M376.4,298.8c1.9,0.4,3.5,1.5,5.3,2.2c0.8,0.3,1.5,0.5,2.4,0.5c-0.6,0.9-0.5,2-0.5,3.1c0,17.1,0,34.2,0,51.3
			c0,0.9,0.4,2.1-0.7,2.6c-1,0.5-1.7-0.3-2.4-0.8c-1.7-1-3.5-1.6-5.8-1.5c0.6-1.5,1-2.7-1.3-2.6c-0.6,0-1.3-0.6-0.7-1.2
			c2.4-2.5-0.7-3.1-1.4-4.6c-0.2-0.4-0.8-0.3-1-1c0.8-0.4,1.6-0.8,2.2-1.6c0.4-0.4,0.7-0.8,0.1-1.3c-0.4-0.4-0.8-0.6-1.3,0
			c-0.4,0.6-1,1.2-1.6,0.3c-0.4-0.7,0.3-1.4,0.9-1.6c1.7-0.6,2.2-2,2.2-3.3c0.1-2,2.3-3.4,1.5-5.7c-0.2-0.5,0.8-1.4,1.2-2.1
			c-0.3-0.7-1.1,0-1.5-0.6c0.2-0.9,1.3-1.1,1.9-1.8c1-1.2,1.4-2.6,1.3-4.2c-0.1-3.1,0.2-6.1,0.8-9.1c0.2-0.9-0.1-1.7-0.3-2.4
			c-0.8-2.9,0.7-5.9-0.5-8.7c-0.4-0.9,0.2-2,1.1-2.4c2.1-0.9,0.8-1.6-0.2-1.9C377.3,300,376.7,299.7,376.4,298.8z"/>
		<path class="st20" d="M320.1,273.2c3.5-1.5,7.1-3,10.6-4.4c2.4-1,4.8-1.8,7.1-2.9c2.7-1.3,5.2-2.9,7.9-4.2
			c4.1-1.9,8.2-3.6,12.4-5.5c0.2-0.1,0.4-0.4,0.6-0.6c0.7,0.5,1.7,0.2,2.3,0.9c-1.5-0.2-2.7,0.7-4,1.2c-2.8,1-5.2,2.8-8.1,3.8
			c-2.4,0.8-3.3,3.4-5.3,4.7c-0.3,0.2-0.6,0.8-0.2,0.9c1.1,0.3,0.7,2.3,2.1,1.9c0.8-0.2,1,0,1.3,0.7c0.6,1.8,2,2.3,3.7,2.2
			c0.5,0,1.1-0.2,1.3,0.5c0.1,0.6-0.5,0.7-0.9,0.7c-0.9,0.1-1.4,0.7-1.3,1.5c0.2,1,1,0.5,1.7,0.4c2.4-0.3,3,1.2,3.5,3.2
			c0.8,3.3-1.3,4.6-3,6.5c-0.7,0.8-0.6,1.8-0.5,2.8c-2.4-0.2-4.2-1.8-6.1-3c-2.9-1.8-6.1-2.9-9.2-4.2c-3.4-1.4-6.8-2.7-10.2-4.2
			c-1.6-0.7-3.2-1.5-4.9-2.2C320.3,273.9,320.2,273.6,320.1,273.2z"/>
		<path class="st12" d="M256.1,259.7c-0.6-0.1-1.3-0.4-1.2-1.1c0.7-2.6,0.1-5.2,0.4-7.7c0-0.4,0.4-0.6,0.8-0.7
			C256.2,253.4,256.2,256.5,256.1,259.7z"/>
		<path class="st12" d="M256.1,263.3c-1.6-0.9-0.9-1.8,0-2.7C256.2,261.5,256.2,262.4,256.1,263.3z"/>
		<path class="st21" d="M192.4,296c5.7,2.4,11.4,4.9,17,7.3c-0.1,0.4-0.3,1,0,1.3c1.5,2.5,0.6,5.1,0.3,7.6c-0.2,1.9-0.4,3.8-0.2,5.8
			c0.4,4.2-0.5,5.9-4.3,7.6c-3.4,1.4-6.1,4.1-9.6,5.1c-0.9,0.3-1.8,0.7-2.8,0.9c-0.1,0-0.3,0.1-0.4,0.1
			C192.4,319.8,192.4,307.9,192.4,296z"/>
		<path class="st22" d="M192.8,331.6c0.4-1,1.5-1,2.3-1.3c4.2-1.6,7.7-4.5,11.8-6.2c2.5-1.1,2.4-3.7,2.1-5.9
			c-0.6-3.5,0.6-6.8,0.7-10.1c0-0.9,0.3-1.6-0.5-2.4c-0.8-0.7-1.1-1.8,0.4-2.4c7.1,3.9,14.6,7.1,22.1,10.3c-2.7,0.6-4.9,2.4-7.4,3.5
			c-5.3,2.3-10.3,4.9-15.4,7.5c-2.1,1-4.1,2.2-5.9,3.6c-1.7,1.3-3.6,2.1-5.6,2.6c-0.9,0.2-2,0.4-2.1,1.6
			C194.3,332.2,193.6,331.9,192.8,331.6z"/>
		<path class="st23" d="M213,82.8c5.6,2.4,11.3,4.7,16.8,7.2c4.9,2.3,9.9,4.5,14.7,7.1c1.5,0.8,3.2,1.1,4.5,2.3
			c-0.5,0.9-1.5,1.7,0.3,2.4c1,0.3,0.7,1.3,0.5,2c-0.5,2-0.6,3.9-0.4,5.9c0.1,1.1,0.1,2.2-0.9,3.1c-0.2,0.2-0.5,0.9-0.4,1
			c1.7,1.8,0.3,3.6-0.2,5.1c-0.7,2.4-1.2,5-1.3,7.3c-0.1,2.1-1.2,2.8-2,4.1c-0.4,0.7,0.2,1.3,0.8,1.7c1.1,0.8,0.8,1.3-0.3,1.6
			c-1.5,0.4-2.4,0.7-1,2.6c0.9,1.2,1.3,3.3,0.7,5.1c-0.4,1-0.2,1.7,0.6,2.4c1.2,1.1,2.8,2.1,1.7,4.2c-0.1,0.3,0.2,1.4,0.6,1.2
			c1.7-0.7,2.1,1.1,3.1,1.4c4.3,1.1,5.3,4.3,5.4,8.2c0,0.6,0,1.2,0,1.8c-3.1,0.3-5.6,2-8.3,3.2c-9.4,4.2-18.4,9-28.2,12.2
			c-1.7,0.4-3.3,0.2-4.2-1.5c-0.3-0.5-0.8-0.9-1.2-1.3c-0.6-0.4-1.1-0.8-1.4-1.4c-1.4-2.6-2.3-5.5-3.7-8.1c-0.1-0.2-0.1-0.5-0.1-0.7
			c1.2-5-1.3-10-0.1-15c-1.2-2.6,0.4-5.1,0.2-7.7c-0.1-0.8,0.3-1.6,0.7-2.3c0.7-1.1,1.6-2.1-0.2-3.1c-0.6-0.3-0.3-1.3,0-1.9
			c1.1-2.9,0.7-6,1.7-9c0.8-2.1,0.4-4.9-0.1-7.4c-0.4-1.9,0.7-3.7,0.6-5.7c-0.2-2.8,0.6-5.7-0.7-8.3c-0.4-0.8-0.2-1.6-0.2-2.4
			c0.2-1.6,0.2-3.3-1-4.7c-0.7-0.8-0.6-1.7-0.3-2.5c0.9-2.2,0.9-4.5,0.4-6.8C209.6,83.6,210.5,82.6,213,82.8z"/>
		<path class="st1" d="M213,82.8c-2.3,0.4-2.9,1.1-2.3,3.3c0.7,2.6,0.5,5-0.6,7.4c-0.3,0.6-0.4,1.2,0.2,1.6c2.1,1.6,1.6,3.7,1.1,5.7
			c0,0.1-0.2,0.3-0.1,0.4c1.7,2.3,1,5.1,1.4,7.6c0.1,0.8,0.3,1.4-0.2,2.1c-0.4,0.5,0,1.3-0.1,1.5c-0.7,2.2,0,4.4-0.3,6.6
			c-0.1,1.2,0,2.5,0.1,3.7c0.1,0.5,0.4,1.1,0.1,1.5c-2.3,2.7-0.8,6.3-2.1,9.3c-0.3,0.7-0.6,1.3,0.8,1.4c1.3,0.1,0.7,1.6,0.3,2.1
			c-1.2,1.4-2.1,2.8-1.3,4.8c0.2,0.5-0.3,1.3-0.7,1.8c-0.3,0.5-0.6,0.9-0.5,1.4c1.2,3.8-0.4,7.9,0.7,11.5c0.7,2.5-0.5,4.7,0.2,6.6
			c1,3,1.9,6.3,4.1,8.9c0.8,1,2.1,1.4,2.6,2.8c0.3,0.7,2.1,0.7,3.2,1c-2.9,1.8-5.7,4-9.4,4.1c-1.5,0-2.5-0.3-2.4-2.1
			c0-0.5-0.1-1.1-0.4-1.5c-2.3-2.3-2.8-5.5-4.1-8.3c-1.6-3.7-1.5-7.6-1.3-11.6c0.1-2.8-0.2-5.8,0.4-8.3c0.7-3.5-0.9-6.7,0.3-10.2
			c0.6-1.8,0.3-4.2,0.2-6.3c-0.1-4.5-0.3-9,0.3-13.4c0.2-1.7,0.3-3.5,0-5.1c-0.4-2.1-1-4.2,0-6.3c0.3-0.6,0.1-1.3-0.4-1.9
			c-0.5-0.6-0.6-1.3-0.3-1.9c1.7-3.4-0.4-6.9,0.2-10.3c0.8-4,0.3-8.1,0.8-12.1c0.1-0.6,0.5-1.3,1.2-1.6
			C207.9,79.8,210.4,81.6,213,82.8z"/>
		<path class="st1" d="M358.7,180.8c-0.2,0.6-0.6,0.6-1.1,0.5c-0.2,0-0.4-0.3-0.4-0.4c0.1-0.5,0.6-0.6,1-0.7
			C358.7,180.2,358.7,180.5,358.7,180.8z"/>
		<path class="st12" d="M201.1,232.5c0.2,0.6-0.8,0.8-0.5,1.3c1,2.1-0.4,2.2-2.1,2.2C199.6,235,197.4,231.9,201.1,232.5z"/>
		<path class="st12" d="M247,267.7c0.7-0.4-0.7-1.9,0.9-1.7c1,0.1,1.2,1.1,1.7,1.9c-0.6,0.4-1.2,0.9-1.8,1
			C247,269.1,246.9,268.4,247,267.7z"/>
		<path class="st12" d="M219.2,243.9c0,0.6-0.5,0.9-1,0.9c-0.6,0-1.2-0.1-1.3-0.8c-0.1-0.6,0.5-0.9,1-0.9
			C218.4,243,219,243.2,219.2,243.9z"/>
		<path class="st12" d="M253.1,264c0,0.5-0.1,1-0.7,1c-0.6,0-0.7-0.5-0.7-0.9c0-0.5,0.2-1,0.7-1C253.1,263,253,263.6,253.1,264z"/>
		<path class="st12" d="M208.4,241.3c0.6,0,1,0.3,0.9,0.9c0,0.4-0.2,0.7-0.6,0.8c-0.6,0-0.8-0.5-1-1
			C207.7,241.5,208,241.3,208.4,241.3z"/>
	</g>
</g>
</svg>
