<?xml version="1.0" encoding="utf-8"?>
<!-- Generator: Adobe Illustrator 26.0.3, SVG Export Plug-In . SVG Version: 6.00 Build 0)  -->
<svg version="1.1" xmlns="http://www.w3.org/2000/svg" xmlns:xlink="http://www.w3.org/1999/xlink" x="0px" y="0px"
	 viewBox="0 0 512 512" style="enable-background:new 0 0 512 512;" xml:space="preserve">
<style type="text/css">
	.st0{fill:url(#bg_00000148663657845025849500000001431024383159413146_);}
	.st1{fill:#FFFFFF;}
	.st2{fill-rule:evenodd;clip-rule:evenodd;fill:#FFFFFF;}
	.st3{opacity:0.1;}
	.st4{fill:url(#bg_00000106862725267995958700000003577881986896251294_);}
	.st5{fill:url(#bg_00000121960844338634142560000017100998314634235281_);}
	.st6{fill:#FCFCFC;}
	.st7{fill:url(#bg_00000120544475081836505460000008072832403777630362_);}
	.st8{fill:url(#bg_00000018233871178313990380000016045191196841618099_);}
	.st9{fill-rule:evenodd;clip-rule:evenodd;fill:#FCCDD3;}
	.st10{filter:url(#Adobe_OpacityMaskFilter);}
	.st11{mask:url(#mask-2_00000079477019141398897970000007225647416667991979_);fill-rule:evenodd;clip-rule:evenodd;fill:#6534FF;}
	.st12{fill-rule:evenodd;clip-rule:evenodd;fill:#FEFEFE;}
	.st13{fill-rule:evenodd;clip-rule:evenodd;fill:#6534FF;}
	.st14{fill:#8526D1;}
	.st15{fill:#D89738;}
	.st16{fill:#5D1B8F;}
	.st17{fill:#F2A738;}
	.st18{fill-rule:evenodd;clip-rule:evenodd;fill:#F9F9F9;}
	.st19{fill-rule:evenodd;clip-rule:evenodd;fill:#040404;}
	.st20{fill:#FEFEFE;}
	.st21{fill:#F0E20A;}
	.st22{fill:#EFE20A;}
	.st23{fill:#A1DE44;}
	.st24{fill:#FCA433;}
	.st25{fill:#FCAC68;}
	.st26{fill:#F74D7B;}
	.st27{fill:#9FDD46;}
	.st28{fill:#67D1BB;}
	.st29{fill:#FAAC8C;}
	.st30{fill:#FDE723;}
	.st31{fill:#FBAB4C;}
	.st32{fill:#FEF532;}
	.st33{fill:#EDE622;}
	.st34{fill:#5BD0DD;}
	.st35{fill:#B96CAE;}
	.st36{fill:#FBB32B;}
	.st37{fill:#FA9262;}
	.st38{fill:#D5709D;}
	.st39{fill:#9763B8;}
	.st40{fill:#FBDD0F;}
	.st41{fill:#D0EC26;}
	.st42{fill:#FCA036;}
	.st43{fill:#FACF2B;}
	.st44{fill:#D4E52B;}
	.st45{fill:#FCD713;}
	.st46{fill:#FDB83D;}
	.st47{fill:#E9E227;}
	.st48{fill:#CB7896;}
	.st49{fill:#FCD415;}
	.st50{fill:#C1E72E;}
	.st51{fill:#B6DF3A;}
	.st52{fill:#C8DE37;}
	.st53{fill:#C277B4;}
	.st54{fill:#ACE339;}
	.st55{fill:#E79762;}
	.st56{fill:#E77982;}
	.st57{fill:#FCFA68;}
	.st58{fill:#F6C82A;}
	.st59{fill:#B46CB1;}
	.st60{fill:#E1CE32;}
	.st61{fill:#F2C02E;}
	.st62{fill:#F8DB26;}
	.st63{fill:#C97B9F;}
	.st64{fill:#E6F40D;}
	.st65{fill:#D8DC35;}
	.st66{fill:#FDB73F;}
	.st67{fill:#FB7759;}
	.st68{fill:#EDDA2D;}
	.st69{fill:#DA8878;}
	.st70{fill:#EABC6F;}
	.st71{fill:#FDFDC8;}
	.st72{fill:#E8B380;}
	.st73{fill:#D8DB09;}
	.st74{fill:#E4D52E;}
	.st75{fill:#FCC91B;}
	.st76{fill:#FEFB8B;}
	.st77{fill:#F9D515;}
	.st78{fill:#DEE528;}
	.st79{fill:#FBC82E;}
	.st80{fill:#C25CA6;}
	.st81{fill:#FBC331;}
	.st82{fill:#FBB53E;}
	.st83{fill:#FC8E47;}
	.st84{fill:#9D63B7;}
	.st85{fill:#86C591;}
	.st86{fill:#78DEA5;}
	.st87{fill:#FBFCA1;}
	.st88{fill:#D87F7F;}
	.st89{fill:#FDF747;}
	.st90{fill:#E2CD31;}
	.st91{fill:#91E38C;}
	.st92{fill:#C5DD36;}
	.st93{fill:#FBB342;}
	.st94{fill:#D2BC7F;}
	.st95{fill:#65D6CC;}
	.st96{fill:#D5D809;}
	.st97{fill:#AEC383;}
	.st98{fill:#FBBB23;}
	.st99{fill:#F9DA24;}
	.st100{fill:#F9AC4C;}
	.st101{fill:#FBBF59;}
	.st102{fill:#E68B69;}
	.st103{fill:#F3A451;}
	.st104{fill:#FBF00E;}
	.st105{fill:#C9F5A2;}
	.st106{fill:#F9B229;}
	.st107{fill:#E9C745;}
	.st108{fill:#A2A2A2;}
	.st109{fill:#FDF10E;}
	.st110{fill:#F0FC0D;}
	.st111{fill:#010100;}
	.st112{fill:#FC8355;}
	.st113{fill:#FC8D48;}
	.st114{fill:#FCBB23;}
	.st115{fill:#FB9854;}
	.st116{fill:#FA6886;}
	.st117{fill:#FB6D6E;}
	.st118{fill:#E95790;}
	.st119{fill:#FB5D67;}
	.st120{fill:#6FCDA1;}
	.st121{fill:#79D278;}
	.st122{fill:#020101;}
	.st123{fill:#FAFD23;}
	.st124{fill:#E2FE38;}
	.st125{fill:#141304;}
	.st126{fill:#CB5DA2;}
	.st127{fill:#B063B1;}
	.st128{fill:#FC8D76;}
	.st129{fill:#E96F92;}
	.st130{fill:#FC8353;}
	.st131{fill:#FC8B4B;}
	.st132{fill:#FB7A86;}
	.st133{fill:#E3FD7C;}
	.st134{fill:#D8BF73;}
	.st135{fill:#DECA58;}
	.st136{fill:#B6EB2D;}
	.st137{fill:#C0D847;}
	.st138{fill:#A2E749;}
	.st139{fill:#BAF35A;}
	.st140{fill:#B6F180;}
	.st141{fill:#D8FB1A;}
	.st142{fill:#D6FA18;}
	.st143{fill:#FB736E;}
	.st144{fill:#96DE4B;}
	.st145{fill:#75CF83;}
	.st146{fill:#A2C87B;}
	.st147{fill:#8EDD54;}
	.st148{fill:#BDEF28;}
	.st149{fill:#B8EE29;}
	.st150{fill:#0097A7;}
	.st151{fill:#FEB800;}
	.st152{fill:#FBE000;}
	.st153{fill:#EF3A17;}
	.st154{fill:#0146FD;}
	.st155{fill:#17C50C;}
	.st156{fill:#FEFDFC;}
	.st157{fill:#2081E2;}
	.st158{fill-rule:evenodd;clip-rule:evenodd;fill:#E2E2E2;}
	.st159{fill:#B3788F;}
	.st160{fill:url(#SVGID_1_);}
	.st161{fill:#A0A8D4;}
	.st162{fill:url(#SVGID_00000166672080055361650780000009408529566010699951_);}
	.st163{fill:url(#SVGID_00000084531532301770559770000013086030102472246198_);}
	.st164{fill:#6F5655;}
	.st165{fill:#543F3F;}
	.st166{fill:#D69B92;}
	.st167{fill:#C39891;}
	.st168{fill:#BB938C;}
	.st169{fill:#524242;}
	.st170{fill:#6B5D5C;}
	.st171{fill:#836966;}
	.st172{fill:#846966;}
	.st173{fill:#7F6563;}
	.st174{fill:#563C3A;}
	.st175{fill:#DD9F94;}
	.st176{fill:#F7B8A8;}
	.st177{fill:#443031;}
	.st178{fill:#3A2E2F;}
	.st179{fill:#6E4946;}
	.st180{fill:#553837;}
	.st181{fill:#483635;}
	.st182{fill:#573E3D;}
	.st183{fill:#4D3533;}
	.st184{fill:#6D5E5C;}
	.st185{fill:#674441;}
	.st186{fill:#694542;}
	.st187{fill:#ECBB2B;}
	.st188{fill:#5B4E29;}
	.st189{fill:#766329;}
	.st190{fill:#C8A02A;}
	.st191{fill:#786429;}
	.st192{fill:#7B6629;}
	.st193{fill:#CCA32A;}
	.st194{fill:#796529;}
	.st195{fill:#AD8C29;}
	.st196{fill:#8D7429;}
	.st197{fill:#B18E2A;}
	.st198{fill:#A08229;}
	.st199{fill:#A48529;}
	.st200{fill:#8E7429;}
	.st201{fill:#8C7329;}
	.st202{fill:#BA962A;}
	.st203{fill:#D0A62B;}
	.st204{fill:#CBA22A;}
	.st205{fill:#CEA42A;}
	.st206{fill:#967A29;}
	.st207{fill:#CDA42A;}
	.st208{fill:#D3A82B;}
	.st209{fill:#B08E29;}
	.st210{fill:#C79F2A;}
	.st211{fill:#B9942A;}
	.st212{fill:#D2A72B;}
	.st213{fill:#907629;}
	.st214{fill:#A28329;}
	.st215{fill:#957A29;}
	.st216{fill:#B29029;}
	.st217{fill:#CAA22A;}
	.st218{fill:#F1EDBA;}
	.st219{fill:#FDFDFD;}
	.st220{fill:#776329;}
	.st221{fill:#947929;}
	.st222{fill:#AA8A29;}
	.st223{fill:#7A6529;}
	.st224{fill:#917E4B;}
	.st225{fill:#8F7A3E;}
	.st226{fill:#695628;}
	.st227{fill:#634F21;}
	.st228{fill:#968556;}
	.st229{fill:#80692A;}
	.st230{fill:#755D22;}
	.st231{fill:#77622E;}
	.st232{fill:#957E38;}
	.st233{fill:#715D2D;}
	.st234{fill:#85703E;}
	.st235{fill:#A27F2D;}
	.st236{fill:#847141;}
	.st237{fill:#948358;}
	.st238{fill:#715E2F;}
	.st239{fill:#7F6A35;}
	.st240{fill:#667A4A;}
	.st241{fill:#7B6735;}
	.st242{fill:#7C946B;}
	.st243{fill:#7D9D59;}
	.st244{fill:#A39264;}
	.st245{fill:#7B6328;}
	.st246{fill:#6E5A26;}
	.st247{fill:#877750;}
	.st248{fill:#AF9438;}
	.st249{fill:#AF9236;}
	.st250{fill:#857546;}
	.st251{fill:#5C7C34;}
	.st252{fill:#85964B;}
	.st253{fill:#88994C;}
	.st254{fill:#9C9666;}
	.st255{fill:#808853;}
	.st256{fill:#6C6D2C;}
	.st257{fill:#998040;}
	.st258{fill:#97AB5E;}
	.st259{fill:#6F5B2B;}
	.st260{fill:#896E2A;}
	.st261{fill:#7A913F;}
	.st262{fill:#969A65;}
	.st263{fill:#BB9F3D;}
	.st264{fill:#989D75;}
	.st265{fill:#A0A75A;}
	.st266{fill:#A39F4E;}
	.st267{fill:#B2A562;}
	.st268{fill:#ADAD53;}
	.st269{fill:#907125;}
	.st270{fill:#B7A75A;}
	.st271{fill:#735B1D;}
	.st272{fill:#587342;}
	.st273{fill:#696FA6;}
	.st274{fill:#875E9A;}
	.st275{fill:#6C6EA0;}
	.st276{fill:#7B5A87;}
	.st277{fill:#496F62;}
	.st278{fill:#987260;}
	.st279{fill:#8CA045;}
	.st280{fill:#926D93;}
	.st281{fill:#725919;}
	.st282{fill:#C3B552;}
	.st283{fill:#547B47;}
	.st284{fill:#A17CB3;}
	.st285{fill:#A583B1;}
	.st286{fill:#D6CC6A;}
	.st287{fill:#698D48;}
	.st288{fill:#9EA369;}
	.st289{fill:#A19963;}
	.st290{fill:#A59B44;}
	.st291{fill:#9A98A4;}
	.st292{fill:#51762B;}
	.st293{fill:#CCC054;}
	.st294{fill:#7380A2;}
	.st295{fill:#497E44;}
	.st296{fill:#687DB1;}
	.st297{fill:#5D7D33;}
	.st298{fill:#65743D;}
	.st299{fill:#818BA6;}
	.st300{fill:#C0B44F;}
	.st301{fill:#7C8779;}
	.st302{fill:#B99E4F;}
	.st303{fill:#767F9C;}
	.st304{fill:#9CAB71;}
	.st305{fill:#9C76A4;}
	.st306{fill:#616895;}
	.st307{fill:#C2AD10;}
	.st308{fill:#6F81AE;}
	.st309{fill:#A88734;}
	.st310{fill:#899F67;}
	.st311{fill:#A6AA6B;}
	.st312{fill:#CDBE4F;}
	.st313{fill:#7E7150;}
	.st314{fill:#D4C748;}
	.st315{fill:#6A8F2A;}
	.st316{fill:#C4B42A;}
	.st317{fill:#9B9093;}
	.st318{fill:#6977AD;}
	.st319{fill:#D7C72B;}
	.st320{fill:#587F2E;}
	.st321{fill:#94B068;}
	.st322{fill:#6D914F;}
	.st323{fill:#587E3E;}
	.st324{fill:#C2B044;}
	.st325{fill:#C0A813;}
	.st326{fill:#749536;}
	.st327{fill:#C9B949;}
	.st328{fill:#4C6F41;}
	.st329{fill:#B2A65B;}
	.st330{fill:#BDAF57;}
	.st331{fill:#6D7F46;}
	.st332{fill:#614A14;}
	.st333{fill:#B7B28D;}
	.st334{fill:#6E5919;}
	.st335{fill:#BDB863;}
	.st336{fill:#869866;}
	.st337{fill:#949651;}
	.st338{fill:#739356;}
	.st339{fill:#876849;}
	.st340{fill:#A9A488;}
	.st341{fill:#676E88;}
	.st342{fill:#A5925D;}
	.st343{fill:#816D3A;}
	.st344{fill:#A9964D;}
	.st345{fill:#F2E48B;}
	.st346{fill:#ECDB7A;}
	.st347{fill:#EEDF81;}
	.st348{fill:#E3D77F;}
	.st349{fill:#877034;}
	.st350{fill:#DEC963;}
	.st351{fill:#715D2E;}
	.st352{fill:#AC933D;}
	.st353{fill:#AF9034;}
	.st354{fill:#705B27;}
	.st355{fill:#8F7B47;}
	.st356{fill:#84754E;}
	.st357{fill:#877441;}
	.st358{fill:#907D4B;}
	.st359{fill:#E3CC6A;}
	.st360{fill:#E1C65C;}
	.st361{fill:#E3D38A;}
	.st362{fill:#E3CD6F;}
	.st363{fill:#C79438;}
	.st364{fill:#C08E32;}
	.st365{fill:#CA9836;}
	.st366{fill:#C0A946;}
	.st367{fill:#525D97;}
	.st368{fill:#6A6D8B;}
	.st369{fill:#B8A041;}
	.st370{fill:#9B8038;}
	.st371{fill:#746139;}
	.st372{fill:#BA9D45;}
	.st373{fill:#A6946A;}
	.st374{fill:#2D261E;}
	.st375{fill:#B0923A;}
	.st376{fill:#AC9E7C;}
	.st377{fill:#766950;}
	.st378{fill:#30271C;}
	.st379{fill:#654D1B;}
	.st380{fill:#9D874B;}
	.st381{fill:#AA9452;}
	.st382{fill:#E2C969;}
	.st383{fill:#E1C75C;}
	.st384{fill:#D8C367;}
	.st385{fill:#957C3B;}
	.st386{fill:#E7D77B;}
	.st387{fill:#86754A;}
	.st388{fill:#CCAD43;}
	.st389{fill:#728847;}
	.st390{fill:#616E91;}
	.st391{fill:#436434;}
	.st392{fill:#9A9B56;}
	.st393{fill:#5A68AB;}
	.st394{fill:#3A3FA3;}
	.st395{fill:#CEC09B;}
	.st396{fill:#3F458D;}
	.st397{fill:#A89D18;}
	.st398{fill:#A19A13;}
	.st399{fill:#C2AC1B;}
	.st400{fill:#B5B227;}
	.st401{fill:#BFA448;}
	.st402{fill:#8DA763;}
	.st403{fill:#938358;}
	.st404{fill:#62863D;}
	.st405{fill:#688A4C;}
	.st406{fill:#A4AA53;}
	.st407{fill:#787CA6;}
	.st408{fill:#61804F;}
	.st409{fill:#688141;}
	.st410{fill:#DEC45B;}
	.st411{fill:#D1B669;}
	.st412{fill:#ADB022;}
	.st413{fill:#DFD378;}
	.st414{fill:#A9A87D;}
	.st415{fill:#A6819B;}
	.st416{fill:#A8A574;}
	.st417{fill:#A685AF;}
	.st418{fill:#C5B424;}
	.st419{fill:#C6BA64;}
	.st420{fill:#727FAD;}
	.st421{fill:#C8BC47;}
	.st422{fill:#BDB037;}
	.st423{fill:#8992AE;}
	.st424{fill:#757098;}
	.st425{fill:#CAB918;}
	.st426{fill:#D4C866;}
	.st427{fill:#D6CC68;}
	.st428{fill:#AFB346;}
	.st429{fill:#668E47;}
	.st430{fill:#AA882F;}
	.st431{fill:#E3D070;}
	.st432{fill:#C0A646;}
	.st433{fill:#9166A0;}
	.st434{fill:#7D8694;}
	.st435{fill:#797F3C;}
	.st436{fill:#968F73;}
	.st437{fill:#796E53;}
	.st438{fill:#6479AC;}
	.st439{fill:#4F65A7;}
	.st440{fill:#4A5A9F;}
	.st441{fill:#BBA519;}
	.st442{fill:#5A75B0;}
	.st443{fill:#608440;}
	.st444{fill:#4E5232;}
	.st445{fill:#B79B3E;}
	.st446{fill:#687E4F;}
	.st447{fill:#BFA545;}
	.st448{fill:#797950;}
	.st449{fill:#7B8B53;}
	.st450{fill:#A98E36;}
	.st451{fill:#9B9C5B;}
	.st452{fill:#8B8553;}
	.st453{fill:#866586;}
	.st454{fill:#956C38;}
	.st455{fill:#5A75AB;}
	.st456{fill:#53553A;}
	.st457{fill:#587536;}
	.st458{fill:#C6B85C;}
	.st459{fill:#517327;}
	.st460{fill:#64659C;}
	.st461{fill:#858D9C;}
	.st462{fill:#4E66A1;}
	.st463{fill:#AD8E36;}
	.st464{fill:#4D629A;}
	.st465{fill:#373A93;}
	.st466{fill:#91986B;}
	.st467{fill:#6D8D3D;}
	.st468{fill:#98749B;}
	.st469{fill:#9A7498;}
	.st470{fill:#8C598E;}
	.st471{fill:#7C7B9C;}
	.st472{fill:#7E8B34;}
	.st473{fill:#6072AB;}
	.st474{fill:#A28335;}
	.st475{fill:#C2B134;}
	.st476{fill:#696BAC;}
	.st477{fill:#C4B210;}
	.st478{fill:#A8AFB0;}
	.st479{fill:#7C9A5F;}
	.st480{fill:#A7A577;}
	.st481{fill:#737A95;}
	.st482{fill:#44723E;}
	.st483{fill:#3F613F;}
	.st484{fill:#8DA766;}
	.st485{fill:#5662AA;}
	.st486{fill:#5D812D;}
	.st487{fill:#5B852A;}
	.st488{fill:#567D2B;}
	.st489{fill:#ADADA0;}
	.st490{fill:#8B5E8F;}
	.st491{fill:#84558C;}
	.st492{fill:#718C3C;}
	.st493{fill:#897A2F;}
	.st494{fill:#61884B;}
	.st495{fill:#697AA7;}
	.st496{fill:#C0AE2F;}
	.st497{fill:#70538C;}
	.st498{fill:#B69C10;}
	.st499{fill:#C0B45D;}
	.st500{fill:#C0B14D;}
	.st501{fill:#8190AE;}
	.st502{fill:#54733F;}
	.st503{fill:#6B835E;}
	.st504{fill:#B29331;}
	.st505{fill:#B29537;}
	.st506{fill:#B79D41;}
	.st507{fill:#BDA343;}
	.st508{fill:#C2A33E;}
	.st509{fill:#B18F2F;}
	.st510{fill:#7C577E;}
	.st511{fill:#879637;}
	.st512{fill:#63822A;}
	.st513{fill:#7C85A0;}
	.st514{fill:#6769A3;}
	.st515{fill:#AC9F41;}
	.st516{fill:#658D45;}
	.st517{fill:#4256AC;}
	.st518{fill:#A2AF5E;}
	.st519{fill:#88A674;}
	.st520{fill:#5A6DAF;}
	.st521{fill:#CAB10B;}
	.st522{fill:#CCAF4C;}
	.st523{fill:#67743F;}
	.st524{fill:#C9AA40;}
	.st525{fill:#8A6A9B;}
	.st526{fill:#708830;}
	.st527{fill:#6175B1;}
	.st528{fill:#708C38;}
	.st529{fill:#809343;}
	.st530{fill:#7B8F4C;}
	.st531{fill:#A87823;}
	.st532{fill:#C3A506;}
	.st533{fill:#669436;}
	.st534{fill:#999665;}
	.st535{fill:#916DA5;}
	.st536{fill:#79853C;}
	.st537{fill:#698B49;}
	.st538{fill:#AFAAA4;}
	.st539{fill:#946A9C;}
	.st540{fill:#44634C;}
	.st541{fill:#6B8B48;}
	.st542{fill:#885FA2;}
	.st543{fill:#897A3B;}
	.st544{fill:#865F9C;}
	.st545{fill:#60874B;}
	.st546{fill:#7A879D;}
	.st547{fill:#3D4190;}
	.st548{fill:#835EA5;}
	.st549{fill:#63719C;}
	.st550{fill:#BDAF4A;}
	.st551{fill:#946E9A;}
	.st552{fill:#82761F;}
	.st553{fill:#C9AA54;}
	.st554{fill:#796638;}
	.st555{fill:#967B3F;}
	.st556{fill:#A28845;}
	.st557{fill:#DCC257;}
	.st558{fill:#877030;}
	.st559{fill:#796433;}
	.st560{fill:#A48A40;}
	.st561{fill:#AE9242;}
	.st562{fill:#BAA98B;}
	.st563{fill:#9E9783;}
	.st564{fill:#B4A17B;}
	.st565{fill:#5E8358;}
	.st566{fill:#CFB447;}
	.st567{fill:#D3BF60;}
	.st568{fill:#C9AA4B;}
	.st569{fill:#7D662E;}
	.st570{fill:#977C35;}
	.st571{fill:#856E31;}
	.st572{fill:#887034;}
	.st573{fill:#8B7232;}
	.st574{fill:#615129;}
	.st575{fill:#8D7432;}
	.st576{fill:#C2A341;}
	.st577{fill:#AC964E;}
	.st578{fill:#BA9E46;}
	.st579{fill:#B29D55;}
	.st580{fill:#B99E50;}
	.st581{fill:#DFC35A;}
	.st582{fill:#C6AF5E;}
	.st583{fill:#C8AD50;}
	.st584{fill:#C6B057;}
	.st585{fill:#D6C058;}
	.st586{fill:#71623E;}
	.st587{fill:#D1BF6D;}
	.st588{fill:#D4C064;}
	.st589{fill:#E2C865;}
	.st590{fill:#D8C56B;}
	.st591{fill:#444B91;}
	.st592{fill:#C9AB4B;}
	.st593{fill:#98834E;}
	.st594{fill:#BDA144;}
	.st595{fill:#C2B393;}
	.st596{fill:#B49A3F;}
	.st597{fill:#393127;}
	.st598{fill:#AF923A;}
	.st599{fill:#A88331;}
	.st600{fill:#BDA041;}
	.st601{fill:#BEB091;}
	.st602{fill:#322C26;}
	.st603{fill:#7E7565;}
	.st604{fill:#937F54;}
	.st605{fill:#4E5F31;}
	.st606{fill:#2F261F;}
	.st607{fill:#BEB193;}
	.st608{fill:#726451;}
	.st609{fill:#6E654E;}
	.st610{fill:#414FAB;}
	.st611{fill:#697040;}
	.st612{fill:#454833;}
	.st613{fill:#465A2D;}
	.st614{fill:#3E5E3A;}
	.st615{fill:#4D6631;}
	.st616{fill:#A29881;}
	.st617{fill:#362F26;}
	.st618{fill:#392C1C;}
	.st619{fill:#443925;}
	.st620{fill:#827565;}
	.st621{fill:#36542B;}
	.st622{fill:#7D6D45;}
	.st623{fill:#937D41;}
	.st624{fill:#BAA65D;}
	.st625{fill:#E8D67A;}
	.st626{fill:#3F4592;}
	.st627{fill:#97B066;}
	.st628{fill:#A7B659;}
	.st629{fill:#6C9247;}
	.st630{fill:#567F2B;}
	.st631{fill:#688E35;}
	.st632{fill:#6F8D52;}
	.st633{fill:#5A8032;}
	.st634{fill:#8DAC82;}
	.st635{fill:#798ABB;}
	.st636{fill:#6E8D53;}
	.st637{fill:#698F30;}
	.st638{fill:#789849;}
	.st639{fill:#B2B089;}
	.st640{fill:#5B8039;}
	.st641{fill:#739F64;}
	.st642{fill:#66933D;}
	.st643{fill:#7C83AB;}
	.st644{fill:#5E64B9;}
	.st645{fill:#7E78B4;}
	.st646{fill:#6D7C9E;}
	.st647{fill:#729340;}
	.st648{fill:#545BB1;}
	.st649{fill:#55884E;}
	.st650{fill:#CDC03E;}
	.st651{fill:#668E38;}
	.st652{fill:#6878B6;}
	.st653{fill:#C5A65E;}
	.st654{fill:#628B2D;}
	.st655{fill:#477438;}
	.st656{fill:#828DAE;}
	.st657{fill:#C9AE59;}
	.st658{fill:#607B4C;}
	.st659{fill:#57842D;}
	.st660{fill:#D7CEAD;}
	.st661{fill:#D8B84D;}
	.st662{fill:#7E9A5E;}
	.st663{fill:#CECD68;}
	.st664{fill:#CBAE5F;}
	.st665{fill:#5E8541;}
	.st666{fill:#497132;}
	.st667{fill:#54764B;}
	.st668{fill:#52622D;}
	.st669{fill:#4F7B36;}
	.st670{fill:#AAA780;}
	.st671{fill:#9F7CAC;}
	.st672{fill:#6E7AB7;}
	.st673{fill:#7984A7;}
	.st674{fill:#63872C;}
	.st675{fill:#68709E;}
	.st676{fill:#6D73B1;}
	.st677{fill:#C4AE5A;}
	.st678{fill:#6A68A1;}
	.st679{fill:#5C7A4C;}
	.st680{fill:#C1B87A;}
	.st681{fill:#C7B318;}
	.st682{fill:#65852E;}
	.st683{fill:#8C9835;}
	.st684{fill:#815E3B;}
	.st685{fill:#644E28;}
	.st686{fill:#34388E;}
	.st687{fill:#687C5F;}
	.st688{fill:#C2AA52;}
	.st689{fill:#6F7842;}
	.st690{fill:#808456;}
	.st691{fill:#608541;}
	.st692{fill:#67805B;}
	.st693{fill:#8D7E62;}
	.st694{fill:#7B864E;}
	.st695{fill:#877F65;}
	.st696{fill:#828F4A;}
	.st697{fill:#6D8D46;}
	.st698{fill:#618747;}
	.st699{fill:#798AB3;}
	.st700{fill:#747DA3;}
	.st701{fill:#BCB27F;}
	.st702{fill:#8D6B37;}
	.st703{fill:#808940;}
	.st704{fill:#637D47;}
	.st705{fill:#647EB7;}
	.st706{fill:#7683B4;}
	.st707{fill:#5C6933;}
	.st708{fill:#8C9348;}
	.st709{fill:#72864B;}
	.st710{fill:#5C78BE;}
	.st711{fill:#6E81AF;}
	.st712{fill:#708C47;}
	.st713{fill:#7E84BD;}
	.st714{fill:#7E8185;}
	.st715{fill:#7E87A9;}
	.st716{fill:#7F6C2F;}
	.st717{fill:#675B24;}
	.st718{fill:#6A80AE;}
	.st719{fill:#6D9534;}
	.st720{fill:#B8B2A9;}
	.st721{fill:#9894AA;}
	.st722{fill:#838593;}
	.st723{fill:#9A9E9E;}
	.st724{fill:#39605D;}
	.st725{fill:#ABA8AC;}
	.st726{fill:#717DA4;}
	.st727{fill:#6378B6;}
	.st728{fill:#4C7A4A;}
	.st729{fill:#B6983A;}
	.st730{fill:#B9A14A;}
	.st731{fill:#7E8D54;}
	.st732{fill:#835BAD;}
	.st733{fill:#798E4F;}
	.st734{fill:#9D7065;}
	.st735{fill:#9D9950;}
	.st736{fill:#828042;}
	.st737{fill:#849549;}
	.st738{fill:#C5B983;}
	.st739{fill:#7F90B9;}
	.st740{fill:#7E899E;}
	.st741{fill:#728041;}
	.st742{fill:#91968B;}
	.st743{fill:#ABA262;}
	.st744{fill:#8A8E8E;}
	.st745{fill:#50743A;}
	.st746{fill:#8191AC;}
	.st747{fill:#838FA8;}
	.st748{fill:#707EB1;}
	.st749{fill:#7784B6;}
	.st750{fill:#868863;}
	.st751{fill:#727193;}
	.st752{fill:#A1A3A5;}
	.st753{fill:#926E9F;}
	.st754{fill:#9175A2;}
	.st755{fill:#8995A3;}
	.st756{fill:#818EAF;}
	.st757{fill:#9F8B46;}
	.st758{fill:#808667;}
	.st759{fill:#758EB6;}
	.st760{fill:#A98631;}
	.st761{fill:#797B87;}
	.st762{fill:#C6B42A;}
	.st763{fill:#487644;}
	.st764{fill:#787BA6;}
	.st765{fill:#A16B93;}
	.st766{fill:#667EAC;}
	.st767{fill:#9CA7B3;}
	.st768{fill:#9CA2A4;}
	.st769{fill:#C9B750;}
	.st770{fill:#B59B41;}
	.st771{fill:#817FAB;}
	.st772{fill:#778F54;}
	.st773{fill:#716B91;}
	.st774{fill:#3F583C;}
	.st775{fill:#6A6B9B;}
	.st776{fill:#B4AB79;}
	.st777{fill:#9876A8;}
	.st778{fill:#9B573E;}
	.st779{fill:#7D7DAC;}
	.st780{fill:#86A33E;}
	.st781{fill:#887B9F;}
	.st782{fill:#A88C24;}
	.st783{fill:#648F3A;}
	.st784{fill:#A0A3AE;}
	.st785{fill:#A3822E;}
	.st786{fill:#5A8347;}
	.st787{fill:#83A161;}
	.st788{fill:#9B7AA9;}
	.st789{fill:#AA9749;}
	.st790{fill:#7FA36F;}
	.st791{fill:#656EBF;}
	.st792{fill:#6C6EAA;}
	.st793{fill:#8F9A5D;}
	.st794{fill:#978EA2;}
	.st795{fill:#CBBA0E;}
	.st796{fill:#BCA236;}
	.st797{fill:#A2A970;}
	.st798{fill:#8F6DB0;}
	.st799{fill:#A7B571;}
	.st800{fill:#618D57;}
	.st801{fill:#86A979;}
	.st802{fill:#6777BF;}
	.st803{fill:#868596;}
	.st804{fill:#434DB3;}
	.st805{fill:#58883F;}
	.st806{fill:#74913E;}
	.st807{fill:#8583AA;}
	.st808{fill:#CBBD44;}
	.st809{fill:#6773AD;}
	.st810{fill:#768847;}
	.st811{fill:#949EB5;}
	.st812{fill:#638C42;}
	.st813{fill:#4C5CA5;}
	.st814{fill:#687FBB;}
	.st815{fill:#5C8333;}
	.st816{fill:#7C8FB4;}
	.st817{fill:#698A36;}
	.st818{fill:#A0A5B5;}
	.st819{fill:#777DAB;}
	.st820{fill:#527223;}
	.st821{fill:#757BC1;}
	.st822{fill:#52855E;}
	.st823{fill:#CDB209;}
	.st824{fill:#AEA64E;}
	.st825{fill:#B19B11;}
	.st826{fill:#607E45;}
	.st827{fill:#C0B256;}
	.st828{fill:#BDA714;}
	.st829{fill:#CBB313;}
	.st830{fill:#424AB1;}
	.st831{fill:#AAAB24;}
	.st832{fill:#5B67AD;}
	.st833{fill:#A68340;}
	.st834{fill:#65892C;}
	.st835{fill:#8690B6;}
	.st836{fill:#9399B3;}
	.st837{fill:#A0AC7D;}
	.st838{fill:#949964;}
	.st839{fill:#A48827;}
	.st840{fill:#9D9775;}
	.st841{fill:#7987A2;}
	.st842{fill:#B8B060;}
	.st843{fill:#6884B4;}
	.st844{fill:#B69F14;}
	.st845{fill:#B0A558;}
	.st846{fill:#7C5D8C;}
	.st847{fill:#926FA8;}
	.st848{fill:#9CAB65;}
	.st849{fill:#7778AF;}
	.st850{fill:#C7BA7E;}
	.st851{fill:#85A15A;}
	.st852{fill:#9E9E44;}
	.st853{fill:#5B5EAA;}
	.st854{fill:#7B7FB6;}
	.st855{fill:#777EAC;}
	.st856{fill:#606EB5;}
	.st857{fill:#5B8128;}
	.st858{fill:#BCB278;}
	.st859{fill:#C8AA48;}
	.st860{fill:#D3B44F;}
	.st861{fill:#BBAD90;}
	.st862{fill:#988D78;}
	.st863{fill:#65794A;}
	.st864{fill:#A89E8B;}
	.st865{fill:#6C885C;}
	.st866{fill:#636832;}
	.st867{fill:#75886D;}
	.st868{fill:#D1B54B;}
	.st869{fill:#7D875F;}
	.st870{fill:#B6A581;}
	.st871{fill:#92863D;}
	.st872{fill:#BEAF8C;}
	.st873{fill:#60511F;}
	.st874{fill:#78947C;}
	.st875{fill:#D0BA5B;}
	.st876{fill:#5A7776;}
	.st877{fill:#B45425;}
	.st878{fill:#6376AB;}
	.st879{fill:#D2B144;}
	.st880{fill:#B1950C;}
	.st881{fill:#4F60A0;}
	.st882{fill:#657544;}
	.st883{fill:#CCAF48;}
	.st884{fill:#D1B64B;}
	.st885{fill:#C8AA42;}
	.st886{fill:#D1B147;}
	.st887{fill:#CEAD45;}
	.st888{fill:#CDAF44;}
	.st889{fill:#CEB048;}
	.st890{fill:#BCA844;}
	.st891{fill:#C09F47;}
	.st892{fill:#737690;}
	.st893{fill:#8D94A6;}
	.st894{fill:#D1AF45;}
	.st895{fill:#BAB179;}
	.st896{fill:#96986D;}
	.st897{fill:#6C7A8F;}
	.st898{fill:#779055;}
	.st899{fill:#916DAE;}
	.st900{fill:#AC9548;}
	.st901{fill:#B8A218;}
	.st902{fill:#C2A847;}
	.st903{fill:#717C56;}
	.st904{fill:#8A8F7A;}
	.st905{fill:#6E5979;}
	.st906{fill:#6E4181;}
	.st907{fill:#BCB035;}
	.st908{fill:#8D763D;}
	.st909{fill:#CFB85D;}
	.st910{fill:#DEC966;}
	.st911{fill:#77622C;}
	.st912{fill:#7C83B7;}
	.st913{fill:#6E7A49;}
	.st914{fill:#BFA042;}
	.st915{fill:#A58E64;}
	.st916{fill:#B4A15D;}
	.st917{fill:#928875;}
	.st918{fill:#884674;}
	.st919{fill:#864F8A;}
	.st920{fill:#AA8E38;}
	.st921{fill:#794480;}
	.st922{fill:#919379;}
	.st923{fill:#A59881;}
	.st924{fill:#606FB7;}
	.st925{fill:#3A3C89;}
	.st926{fill:#484A9C;}
	.st927{fill:#A49881;}
	.st928{fill:#8184A6;}
	.st929{fill:#8D816F;}
	.st930{fill:#C2B095;}
	.st931{fill:#6E836A;}
	.st932{fill:#D0BF9F;}
	.st933{fill:#AA5E37;}
	.st934{fill:#C15627;}
	.st935{fill:#4A3A26;}
	.st936{fill:#C35722;}
	.st937{fill:#AB5430;}
	.st938{fill:#A2893F;}
	.st939{fill:#88733B;}
	.st940{fill:#816B35;}
	.st941{fill:#D2BC5D;}
	.st942{fill:#5C4E35;}
	.st943{fill:#382F29;}
	.st944{fill:#D5C6AA;}
	.st945{fill:#D8C36D;}
	.st946{fill:#58472D;}
	.st947{fill:#D7BE65;}
	.st948{fill:#BFA345;}
	.st949{fill:#473E35;}
	.st950{fill:#D4B851;}
	.st951{fill:#B2A37D;}
	.st952{fill:#CFC09F;}
	.st953{fill:#C0B495;}
	.st954{fill:#342E28;}
	.st955{fill:#3C332B;}
	.st956{fill:#3E352B;}
	.st957{fill:#3E3328;}
	.st958{fill:#B3923C;}
	.st959{fill:#DBCEB3;}
	.st960{fill:#3F3629;}
	.st961{fill:#3D322A;}
	.st962{fill:#D0C4A3;}
	.st963{fill:#C9BD9E;}
	.st964{fill:#D1C4A3;}
	.st965{fill:#C8B99E;}
	.st966{fill:#4C3A2C;}
	.st967{fill:#D1BB81;}
	.st968{fill:#908671;}
	.st969{fill:#2C2317;}
	.st970{fill:#594A35;}
	.st971{fill:#4F4029;}
	.st972{fill:#D6C196;}
	.st973{fill:#352B1F;}
	.st974{fill:#493529;}
	.st975{fill:#BFA649;}
	.st976{fill:#BCAF92;}
	.st977{fill:#6D835E;}
	.st978{fill:#A1957B;}
	.st979{fill:#9E9072;}
	.st980{fill:#A3967C;}
	.st981{fill:#C2AD52;}
	.st982{fill:#B6A889;}
	.st983{fill:#C8BC9F;}
	.st984{fill:#C0AD54;}
	.st985{fill:#363029;}
	.st986{fill:#C5B69A;}
	.st987{fill:#392F24;}
	.st988{fill:#ABA38B;}
	.st989{fill:#937130;}
	.st990{fill:#3F352A;}
	.st991{fill:#566BB4;}
	.st992{fill:#D2C29D;}
	.st993{fill:#58452D;}
	.st994{fill:#CDBB9D;}
	.st995{fill:#718A5C;}
	.st996{fill:#C4AF81;}
	.st997{fill:#8A7027;}
	.st998{fill:#BCAF8E;}
	.st999{fill:#6165A4;}
	.st1000{fill:#5565A6;}
	.st1001{fill:#CFBB97;}
	.st1002{fill:#7B632C;}
	.st1003{fill:#CAB996;}
	.st1004{fill:#958366;}
	.st1005{fill:#7B6B5A;}
	.st1006{fill:#466333;}
	.st1007{fill:#54483E;}
	.st1008{fill:#406036;}
	.st1009{fill:#4D6C45;}
	.st1010{fill:#312A22;}
	.st1011{fill:#A99C81;}
	.st1012{fill:#CAB455;}
	.st1013{fill:#9D8F72;}
	.st1014{fill:#6167AB;}
	.st1015{fill:#3D4EAB;}
	.st1016{fill:#D0B44E;}
	.st1017{fill:#C9B45B;}
	.st1018{fill:#3A332B;}
	.st1019{fill:#D7C8A7;}
	.st1020{fill:#C9C0A5;}
	.st1021{fill:#DDCD77;}
	.st1022{fill:#6A874F;}
	.st1023{fill:#8DA37A;}
	.st1024{fill:#7B9647;}
	.st1025{fill:#AB8DB5;}
	.st1026{fill:#5D8941;}
	.st1027{fill:#5557B4;}
	.st1028{fill:#C6BD1D;}
	.st1029{fill:#646AAF;}
	.st1030{fill:#819A39;}
	.st1031{fill:#D6C997;}
	.st1032{fill:#857EC0;}
	.st1033{fill:#8195B7;}
	.st1034{fill:#56862B;}
	.st1035{fill:#C7BC8D;}
	.st1036{fill:#6C9132;}
	.st1037{fill:#A9B2B8;}
	.st1038{fill:#9765A5;}
	.st1039{fill:#A6A57F;}
	.st1040{fill:#8694BB;}
	.st1041{fill:#7E89B1;}
	.st1042{fill:#C9B212;}
	.st1043{fill:#D5CF78;}
	.st1044{fill:#CABD8B;}
	.st1045{fill:#A277A7;}
	.st1046{fill:#7371BA;}
	.st1047{fill:#C7BA63;}
	.st1048{fill:#C0C071;}
	.st1049{fill:#B4AA8F;}
	.st1050{fill:#A79B90;}
	.st1051{fill:#987B4A;}
	.st1052{fill:#383B8D;}
	.st1053{fill:#3E409C;}
	.st1054{fill:#656EA3;}
	.st1055{fill:#545FA2;}
	.st1056{fill:#393D8F;}
	.st1057{fill:#A59787;}
	.st1058{fill:#656A92;}
	.st1059{fill:#A7998B;}
	.st1060{fill:#AAA096;}
	.st1061{fill:#A4978D;}
	.st1062{fill:#608266;}
	.st1063{fill:#5259AA;}
	.st1064{fill:#6B8D6A;}
	.st1065{fill:#AB9E96;}
	.st1066{fill:#AEA196;}
	.st1067{fill:#A8A08E;}
	.st1068{fill:#C8A84C;}
	.st1069{fill:#BCB5A5;}
	.st1070{fill:#BBAB8D;}
	.st1071{fill:#C5522C;}
	.st1072{fill:#CCC0A3;}
	.st1073{fill:#A0A66B;}
	.st1074{fill:#BEAC6E;}
	.st1075{fill:#B4A988;}
	.st1076{fill:#B09439;}
	.st1077{fill:#73893E;}
	.st1078{fill:#A0A27A;}
	.st1079{fill:#494F9C;}
	.st1080{fill:#4846A7;}
	.st1081{fill:#9F9B75;}
	.st1082{fill:#9D9A65;}
	.st1083{fill:#58567A;}
	.st1084{fill:#A3A27C;}
	.st1085{fill:#9468A7;}
	.st1086{fill:#6771AD;}
	.st1087{fill:#728251;}
	.st1088{fill:#70816B;}
	.st1089{fill:#748946;}
	.st1090{fill:#B9AC8E;}
	.st1091{fill:#ACAB7E;}
	.st1092{fill:#7D9343;}
	.st1093{fill:#AAA175;}
	.st1094{fill:#A35D55;}
	.st1095{fill:#718045;}
	.st1096{fill:#83619A;}
	.st1097{fill:#7884A6;}
	.st1098{fill:#636CA0;}
	.st1099{fill:#CABB97;}
	.st1100{fill:#885DA8;}
	.st1101{fill:#6A6EAA;}
	.st1102{fill:#6D87B8;}
	.st1103{fill:#7D835B;}
	.st1104{fill:#737C9B;}
	.st1105{fill:#627AB5;}
	.st1106{fill:#567684;}
	.st1107{fill:#CAB71A;}
	.st1108{fill:#6D7946;}
	.st1109{fill:#414EAD;}
	.st1110{fill:#C0AA14;}
	.st1111{fill:#CFBF9B;}
	.st1112{fill:#818298;}
	.st1113{fill:#63833B;}
	.st1114{fill:#B8AB8F;}
	.st1115{fill:#65594A;}
	.st1116{fill:#788BB1;}
	.st1117{fill:#C3A17D;}
	.st1118{fill:#B9B0A4;}
	.st1119{fill:#C6AA49;}
	.st1120{fill:#6B5946;}
	.st1121{fill:#61512B;}
	.st1122{fill:#777F9E;}
	.st1123{fill:#7185C9;}
	.st1124{fill:#CA5E27;}
	.st1125{fill:#5A453C;}
	.st1126{fill:#706EB8;}
	.st1127{fill:#6C5837;}
	.st1128{fill:#79674D;}
	.st1129{fill:#63718B;}
	.st1130{fill:#7384AE;}
	.st1131{fill:#867632;}
	.st1132{fill:#5265B8;}
	.st1133{fill:#678D3F;}
	.st1134{fill:#5A4832;}
	.st1135{fill:#747CA6;}
	.st1136{fill:#7E8697;}
	.st1137{fill:#857D96;}
	.st1138{fill:#598B4D;}
	.st1139{fill:#B3A653;}
	.st1140{fill:#6B74B2;}
	.st1141{fill:#C7AE4D;}
	.st1142{fill:#C1AC23;}
	.st1143{fill:#CEAD43;}
	.st1144{fill:#C6A544;}
	.st1145{fill:#BEA746;}
	.st1146{fill:#CFB244;}
	.st1147{fill:#CCAA41;}
	.st1148{fill:#CEAF48;}
	.st1149{fill:#687492;}
	.st1150{fill:#BFAB56;}
	.st1151{fill:#D7BA55;}
	.st1152{fill:#D4B64C;}
	.st1153{fill:#C0AB47;}
	.st1154{fill:#BDA650;}
	.st1155{fill:#CBAD49;}
	.st1156{fill:#5C6FA9;}
	.st1157{fill:#AA9C46;}
	.st1158{fill:#819559;}
	.st1159{fill:#608F3D;}
	.st1160{fill:#6278B1;}
	.st1161{fill:#B29E31;}
	.st1162{fill:#5B74A9;}
	.st1163{fill:#ABA587;}
	.st1164{fill:#BEA44A;}
	.st1165{fill:#C8AC49;}
	.st1166{fill:#B2A896;}
	.st1167{fill:#C8AB4E;}
	.st1168{fill:#466B37;}
	.st1169{fill:#C7B751;}
	.st1170{fill:#C6A747;}
	.st1171{fill:#C6B94C;}
	.st1172{fill:#8D68A0;}
	.st1173{fill:#BEA243;}
	.st1174{fill:#C4AC50;}
	.st1175{fill:#86925F;}
	.st1176{fill:#63824F;}
	.st1177{fill:#A15554;}
	.st1178{fill:#5D763F;}
	.st1179{fill:#9772A0;}
	.st1180{fill:#487143;}
	.st1181{fill:#8C9156;}
	.st1182{fill:#63753C;}
	.st1183{fill:#6E813F;}
	.st1184{fill:#BAAC84;}
	.st1185{fill:#74759A;}
	.st1186{fill:#868C8E;}
	.st1187{fill:#8C979E;}
	.st1188{fill:#6B823B;}
	.st1189{fill:#818BA3;}
	.st1190{fill:#4958C7;}
	.st1191{fill:#B8A30F;}
	.st1192{fill:#6B7A5F;}
	.st1193{fill:#5D4A2D;}
	.st1194{fill:#CCC170;}
	.st1195{fill:#577836;}
	.st1196{fill:#707FAE;}
	.st1197{fill:#ABB4BC;}
	.st1198{fill:#A6B0AB;}
	.st1199{fill:#6A5629;}
	.st1200{fill:#ACB2BC;}
	.st1201{fill:#7A79BD;}
	.st1202{fill:#CFBE36;}
	.st1203{fill:#C8BE76;}
	.st1204{fill:#8B9EBB;}
	.st1205{fill:#6F88B8;}
	.st1206{fill:#647CBC;}
	.st1207{fill:#7B7BB1;}
	.st1208{fill:#9A7447;}
	.st1209{fill:#708AB5;}
	.st1210{fill:#C4BE71;}
	.st1211{fill:#B0943E;}
	.st1212{fill:#C7A553;}
	.st1213{fill:#9C79A6;}
	.st1214{fill:#C9B51F;}
	.st1215{fill:#587C37;}
	.st1216{fill:#C7BA6A;}
	.st1217{fill:#5C8043;}
	.st1218{fill:#C7BA4D;}
	.st1219{fill:#B39A3A;}
	.st1220{fill:#C6A648;}
	.st1221{fill:#444FB2;}
	.st1222{fill:#6F87B0;}
	.st1223{fill:#C3A644;}
	.st1224{fill:#BAAC78;}
	.st1225{fill:#979D6C;}
	.st1226{fill:#7C9251;}
	.st1227{fill:#6F7AA7;}
	.st1228{fill:#7B944D;}
	.st1229{fill:#CAB76A;}
	.st1230{fill:#BEAE3C;}
	.st1231{fill:#CCB115;}
	.st1232{fill:#A1A45E;}
	.st1233{fill:#779E2D;}
	.st1234{fill:#ACAA7D;}
	.st1235{fill:#9F9041;}
	.st1236{fill:#767FB1;}
	.st1237{fill:#608138;}
	.st1238{fill:#6B8C44;}
	.st1239{fill:#809A55;}
	.st1240{fill:#A4A67A;}
	.st1241{fill:#A072A8;}
	.st1242{fill:#668A49;}
	.st1243{fill:#A4A548;}
	.st1244{fill:#9D6DA0;}
	.st1245{fill:#9F74A4;}
	.st1246{fill:#6F8B3B;}
	.st1247{fill:#6C80B3;}
	.st1248{fill:#6F8C38;}
	.st1249{fill:#AC8A5A;}
	.st1250{fill:#535AB0;}
	.st1251{fill:#93B488;}
	.st1252{fill:#5A5F9A;}
	.st1253{fill:#588537;}
	.st1254{fill:#556BBB;}
	.st1255{fill:#BFB110;}
	.st1256{fill:#C8BC35;}
	.st1257{fill:#AFB5AF;}
	.st1258{fill:#C9B50C;}
	.st1259{fill:#8A9A61;}
	.st1260{fill:#C7B844;}
	.st1261{fill:#7A8DBC;}
	.st1262{fill:#B49D92;}
	.st1263{fill:#271F6F;}
	.st1264{fill:#D0BE98;}
	.st1265{fill:#A1B686;}
	.st1266{fill:#BFB26E;}
	.st1267{fill:#ABB25F;}
	.st1268{fill:#8378AF;}
	.st1269{fill:#B1732F;}
	.st1270{fill:#8863A4;}
	.st1271{fill:#4B7646;}
	.st1272{fill:#5A5640;}
	.st1273{fill:#BEB99C;}
	.st1274{fill:#7E8CB2;}
	.st1275{fill:#C6BB8C;}
	.st1276{fill:#C2A956;}
	.st1277{fill:#887D6D;}
	.st1278{fill:#A4967B;}
	.st1279{fill:#BB552C;}
	.st1280{fill:#AB8837;}
	.st1281{fill:#6C433C;}
	.st1282{fill:#4E4D8E;}
	.st1283{fill:#979343;}
	.st1284{fill:#CF6A25;}
	.st1285{fill:#5571A9;}
	.st1286{fill:#8B8294;}
	.st1287{fill:#AA9F89;}
	.st1288{fill:#B85E37;}
	.st1289{fill:#D0B754;}
	.st1290{fill:#CEB24B;}
	.st1291{fill:#D9BD51;}
	.st1292{fill:#646FB1;}
	.st1293{fill:#C8C4AC;}
	.st1294{fill:#CBB251;}
	.st1295{fill:#BFB04F;}
	.st1296{fill:#46509C;}
	.st1297{fill:#D8BE53;}
	.st1298{fill:#CCB755;}
	.st1299{fill:#676FA0;}
	.st1300{fill:#C3A43D;}
	.st1301{fill:#C1A413;}
	.st1302{fill:#D0B551;}
	.st1303{fill:#8F6F9D;}
	.st1304{fill:#A2A362;}
	.st1305{fill:#7C6F51;}
	.st1306{fill:#9D6952;}
	.st1307{fill:#5E6BA4;}
	.st1308{fill:#9592AC;}
	.st1309{fill:#CAAF0A;}
	.st1310{fill:#A4A79B;}
	.st1311{fill:#A9B0B8;}
	.st1312{fill:#AFAAB0;}
	.st1313{fill:#C0B650;}
	.st1314{fill:#636DB0;}
	.st1315{fill:#6F75A6;}
	.st1316{fill:#C4BA6E;}
	.st1317{fill:#6572AC;}
	.st1318{fill:#4A7048;}
	.st1319{fill:#6A71AA;}
	.st1320{fill:#687B4D;}
	.st1321{fill:#737AA7;}
	.st1322{fill:#6B74AB;}
	.st1323{fill:#B69E3D;}
	.st1324{fill:#B9A356;}
	.st1325{fill:#80424D;}
	.st1326{fill:#728966;}
	.st1327{fill:#A28C3F;}
	.st1328{fill:#B55534;}
	.st1329{fill:#7C6A4F;}
	.st1330{fill:#AF9B7A;}
	.st1331{fill:#BEA649;}
	.st1332{fill:#A79576;}
	.st1333{fill:#809577;}
	.st1334{fill:#CABB92;}
	.st1335{fill:#798364;}
	.st1336{fill:#A95168;}
	.st1337{fill:#887A7E;}
	.st1338{fill:#817852;}
	.st1339{fill:#B85332;}
	.st1340{fill:#B1B093;}
	.st1341{fill:#91846A;}
	.st1342{fill:#A78E4A;}
	.st1343{fill:#AF933B;}
	.st1344{fill:#BD5328;}
	.st1345{fill:#B8AF89;}
	.st1346{fill:#738F6E;}
	.st1347{fill:#D1B44F;}
	.st1348{fill:#678859;}
	.st1349{fill:#876299;}
	.st1350{fill:#8965AA;}
	.st1351{fill:#CBBB9B;}
	.st1352{fill:#CDAF49;}
	.st1353{fill:#BDB092;}
	.st1354{fill:#A89F8A;}
	.st1355{fill:#D8C79F;}
	.st1356{fill:#D9C6A6;}
	.st1357{fill:#B7A350;}
	.st1358{fill:#B09540;}
	.st1359{fill:#C7B255;}
	.st1360{fill:#B1923A;}
	.st1361{fill:#443B35;}
	.st1362{fill:#433930;}
	.st1363{fill:#3B312B;}
	.st1364{fill:#D1C7AC;}
	.st1365{fill:#D3C6A4;}
	.st1366{fill:#2E271F;}
	.st1367{fill:#D1BC59;}
	.st1368{fill:#A98B37;}
	.st1369{fill:#A98A39;}
	.st1370{fill:#7A8364;}
	.st1371{fill:#774B90;}
	.st1372{fill:#D3C39A;}
	.st1373{fill:#D6C79F;}
	.st1374{fill:#A88C39;}
	.st1375{fill:#B0A48B;}
	.st1376{fill:#5F4C2A;}
	.st1377{fill:#513E2D;}
	.st1378{fill:#918671;}
	.st1379{fill:#271B17;}
	.st1380{fill:#C6B592;}
	.st1381{fill:#CFBF97;}
	.st1382{fill:#D3BE62;}
	.st1383{fill:#CDAE48;}
	.st1384{fill:#CFBF9E;}
	.st1385{fill:#CBBB9D;}
	.st1386{fill:#D2BE8A;}
	.st1387{fill:#E0D0AB;}
	.st1388{fill:#BEA044;}
	.st1389{fill:#A59A84;}
	.st1390{fill:#3E372E;}
	.st1391{fill:#3B332B;}
	.st1392{fill:#CDC5AC;}
	.st1393{fill:#CDB85C;}
	.st1394{fill:#473E33;}
	.st1395{fill:#DBBD52;}
	.st1396{fill:#9C7D34;}
	.st1397{fill:#41382E;}
	.st1398{fill:#CEC1A1;}
	.st1399{fill:#D8CCA7;}
	.st1400{fill:#CDC1A4;}
	.st1401{fill:#BEBA8E;}
	.st1402{fill:#C3B595;}
	.st1403{fill:#31281D;}
	.st1404{fill:#4E3D27;}
	.st1405{fill:#D0BFA0;}
	.st1406{fill:#D1BE9D;}
	.st1407{fill:#6A512B;}
	.st1408{fill:#A79477;}
	.st1409{fill:#AFA285;}
	.st1410{fill:#42498F;}
	.st1411{fill:#5E6EAF;}
	.st1412{fill:#3C44AD;}
	.st1413{fill:#C4B79D;}
	.st1414{fill:#6268B4;}
	.st1415{fill:#A58735;}
	.st1416{fill:#647E45;}
	.st1417{fill:#2A221A;}
	.st1418{fill:#403229;}
	.st1419{fill:#4A3D34;}
	.st1420{fill:#3B342D;}
	.st1421{fill:#91A155;}
	.st1422{fill:#B2AE4E;}
	.st1423{fill:#8CAF88;}
	.st1424{fill:#7686B4;}
	.st1425{fill:#C9B312;}
	.st1426{fill:#9C78A2;}
	.st1427{fill:#C2AF1A;}
	.st1428{fill:#4C7B34;}
	.st1429{fill:#484DB5;}
	.st1430{fill:#9264A6;}
	.st1431{fill:#C0B522;}
	.st1432{fill:#A68360;}
	.st1433{fill:#7574B6;}
	.st1434{fill:#6980C6;}
	.st1435{fill:#D9CDA3;}
	.st1436{fill:#CBC226;}
	.st1437{fill:#D3C10F;}
	.st1438{fill:#A0A8B2;}
	.st1439{fill:#A8B1BB;}
	.st1440{fill:#D5C11C;}
	.st1441{fill:#AEAD58;}
	.st1442{fill:#B0B080;}
	.st1443{fill:#87A39B;}
	.st1444{fill:#D9CF65;}
	.st1445{fill:#8BAA7F;}
	.st1446{fill:#7889B9;}
	.st1447{fill:#C6B986;}
	.st1448{fill:#AE7C5F;}
	.st1449{fill:#8A7E5B;}
	.st1450{fill:#767164;}
	.st1451{fill:#7C776A;}
	.st1452{fill:#C2A74A;}
	.st1453{fill:#D2B652;}
	.st1454{fill:#BBAF92;}
	.st1455{fill:#CCAF49;}
	.st1456{fill:#847968;}
	.st1457{fill:#463A28;}
	.st1458{fill:#56865A;}
	.st1459{fill:#958C7B;}
	.st1460{fill:#CAAF4F;}
	.st1461{fill:#A64B32;}
	.st1462{fill:#BDB080;}
	.st1463{fill:#98A57B;}
	.st1464{fill:#D07452;}
	.st1465{fill:#7EA572;}
	.st1466{fill:#A0AD83;}
	.st1467{fill:#B3A583;}
	.st1468{fill:#B2AA81;}
	.st1469{fill:#BDB684;}
	.st1470{fill:#C1B885;}
	.st1471{fill:#8CAE85;}
	.st1472{fill:#564C66;}
	.st1473{fill:#C0A472;}
	.st1474{fill:#A787B0;}
	.st1475{fill:#B1AB57;}
	.st1476{fill:#9C9285;}
	.st1477{fill:#CBC26E;}
	.st1478{fill:#CAC359;}
	.st1479{fill:#55875B;}
	.st1480{fill:#BFAD4F;}
	.st1481{fill:#BFBA5F;}
	.st1482{fill:#94464C;}
	.st1483{fill:#3D3C96;}
	.st1484{fill:#62745E;}
	.st1485{fill:#5A3E44;}
	.st1486{fill:#73945E;}
	.st1487{fill:#B5AC5E;}
	.st1488{fill:#434195;}
	.st1489{fill:#C3AB48;}
	.st1490{fill:#D3B347;}
	.st1491{fill:#BDAF87;}
	.st1492{fill:#C4B998;}
	.st1493{fill:#7483B2;}
	.st1494{fill:#B5963F;}
	.st1495{fill:#C5BE9E;}
	.st1496{fill:#C7A746;}
	.st1497{fill:#88823F;}
	.st1498{fill:#C5AA46;}
	.st1499{fill:#312C27;}
	.st1500{fill:#C8B359;}
	.st1501{fill:#8A9B6A;}
	.st1502{fill:#6C8442;}
	.st1503{fill:#9B8F51;}
	.st1504{fill:#352D25;}
	.st1505{fill:#C6B694;}
	.st1506{fill:#9C8F73;}
	.st1507{fill:#CCBC9C;}
	.st1508{fill:#D6CDB4;}
	.st1509{fill:#91A25C;}
	.st1510{fill:#988E7A;}
	.st1511{fill:#6B76A3;}
	.st1512{fill:#32271E;}
	.st1513{fill:#322B23;}
	.st1514{fill:#BFA03D;}
	.st1515{fill:#D2C3A2;}
	.st1516{fill:#514226;}
	.st1517{fill:#403023;}
	.st1518{fill:#D3BF9B;}
	.st1519{fill:#A6A184;}
	.st1520{fill:#C2B12B;}
	.st1521{fill:#90A1B6;}
	.st1522{fill:#D2C167;}
	.st1523{fill:#6B82B6;}
	.st1524{fill:#7787C0;}
	.st1525{fill:#7C93C3;}
	.st1526{fill:#73955B;}
	.st1527{fill:#CABE53;}
	.st1528{fill:#C4BC5C;}
	.st1529{fill:#BFA041;}
	.st1530{fill:#7485C2;}
	.st1531{fill:#C0AE79;}
	.st1532{fill:#BBA145;}
	.st1533{fill:#9CA2A5;}
	.st1534{fill:#6E8AB6;}
	.st1535{fill:#626FAD;}
	.st1536{fill:#74954E;}
	.st1537{fill:#7384B4;}
	.st1538{fill:#B1AA7B;}
	.st1539{fill:#9EA376;}
	.st1540{fill:#709451;}
	.st1541{fill:#9977A8;}
	.st1542{fill:#743C98;}
	.st1543{fill:#788EB4;}
	.st1544{fill:#9568A3;}
	.st1545{fill:#999399;}
	.st1546{fill:#C7B937;}
	.st1547{fill:#98B17C;}
	.st1548{fill:#C5C073;}
	.st1549{fill:#B7B199;}
	.st1550{fill:#9DB2A9;}
	.st1551{fill:#B6BBBD;}
	.st1552{fill:#936BB2;}
	.st1553{fill:#D1C392;}
	.st1554{fill:#7888A7;}
	.st1555{fill:#8CAF5B;}
	.st1556{fill:#607D2E;}
	.st1557{fill:#99995F;}
	.st1558{fill:#9C75A2;}
	.st1559{fill:#9979AB;}
	.st1560{fill:#986EB7;}
	.st1561{fill:#C7BE73;}
	.st1562{fill:#B49B49;}
	.st1563{fill:#6A8636;}
	.st1564{fill:#604B8C;}
	.st1565{fill:#7E8FA6;}
	.st1566{fill:#464FAB;}
	.st1567{fill:#C8BDA1;}
	.st1568{fill:#A39880;}
	.st1569{fill:#A9A77B;}
	.st1570{fill:#9F9F7A;}
	.st1571{fill:#7583AF;}
	.st1572{fill:#84818B;}
	.st1573{fill:#9D9178;}
	.st1574{fill:#717FB0;}
	.st1575{fill:#4A3B2F;}
	.st1576{fill:#817F9F;}
	.st1577{fill:#ADA99A;}
	.st1578{fill:#7B6A4D;}
	.st1579{fill:#826F4D;}
	.st1580{fill:#6A6048;}
	.st1581{fill:#59482F;}
	.st1582{fill:#C8BFA0;}
	.st1583{fill:#54482F;}
	.st1584{fill:#D6C39B;}
	.st1585{fill:#A4A47F;}
	.st1586{fill:#7F9F51;}
	.st1587{fill:#84916E;}
	.st1588{fill:#5F6927;}
	.st1589{fill:#C6AD35;}
	.st1590{fill:#AAA4AA;}
	.st1591{fill:#828D35;}
	.st1592{fill:#7A7DA6;}
	.st1593{fill:#427845;}
	.st1594{fill:#817FA8;}
	.st1595{fill:#B1A783;}
	.st1596{fill:#465E38;}
	.st1597{fill:#788B68;}
	.st1598{fill:#D2C3A4;}
	.st1599{fill:#4347A2;}
	.st1600{fill:#91A979;}
	.st1601{fill:#8B9381;}
	.st1602{fill:#6E6E8A;}
	.st1603{fill:#7F7158;}
	.st1604{fill:#483B2B;}
	.st1605{fill:#7D769B;}
	.st1606{fill:#4C4033;}
	.st1607{fill:#503E32;}
	.st1608{fill:#504134;}
	.st1609{fill:#7D6B50;}
	.st1610{fill:#624C37;}
	.st1611{fill:#34231C;}
	.st1612{fill:#706453;}
	.st1613{fill:#635648;}
	.st1614{fill:#786644;}
	.st1615{fill:#7C6A43;}
	.st1616{fill:#4D3C2E;}
	.st1617{fill:#645847;}
	.st1618{fill:#5C6FB0;}
	.st1619{fill:#4D3D28;}
	.st1620{fill:#AA4C60;}
	.st1621{fill:#C1AAB3;}
	.st1622{fill:#AE8AAC;}
	.st1623{fill:#976B7D;}
	.st1624{fill:#81539E;}
	.st1625{fill:#80714C;}
	.st1626{fill:#C2B597;}
	.st1627{fill:#C95B36;}
	.st1628{fill:#AB5632;}
	.st1629{fill:#7EA475;}
	.st1630{fill:#877F91;}
	.st1631{fill:#87A588;}
	.st1632{fill:#93886E;}
	.st1633{fill:#7770A0;}
	.st1634{fill:#908582;}
	.st1635{fill:#847C6F;}
	.st1636{fill:#807785;}
	.st1637{fill:#A2977E;}
	.st1638{fill:#736C62;}
	.st1639{fill:#756A8A;}
	.st1640{fill:#9F8B70;}
	.st1641{fill:#5B8868;}
	.st1642{fill:#82779B;}
	.st1643{fill:#827775;}
	.st1644{fill:#6F529F;}
	.st1645{fill:#B7A47A;}
	.st1646{fill:#C1A54A;}
	.st1647{fill:#BEA647;}
	.st1648{fill:#8C858C;}
	.st1649{fill:#3C3431;}
	.st1650{fill:#BEA143;}
	.st1651{fill:#B7A988;}
	.st1652{fill:#AC9F88;}
	.st1653{fill:#C0B599;}
	.st1654{fill:#504331;}
	.st1655{fill:#938978;}
	.st1656{fill:#453929;}
	.st1657{fill:#514334;}
	.st1658{fill:#D9CBA7;}
	.st1659{fill:#392D23;}
	.st1660{fill:#DBCAA6;}
	.st1661{fill:#9E7BB6;}
	.st1662{fill:#A380B6;}
	.st1663{fill:#B6B24E;}
	.st1664{fill:#638652;}
	.st1665{fill:#8194C4;}
	.st1666{fill:#7977B4;}
	.st1667{fill:#C3B316;}
	.st1668{fill:#7085B6;}
	.st1669{fill:#C7BF6A;}
	.st1670{fill:#6E81AE;}
	.st1671{fill:#8CAA76;}
	.st1672{fill:#3B3123;}
	.st1673{fill:#463B2C;}
	.st1674{fill:#4F4225;}
	.st1675{fill:#C7B051;}
	.st1676{fill:#BBA044;}
	.st1677{fill:#3E3730;}
	.st1678{fill:#CBB962;}
	.st1679{fill:#9F9582;}
	.st1680{fill:#9B7F32;}
	.st1681{fill:#867C6C;}
	.st1682{fill:#B5A88D;}
	.st1683{fill:#837867;}
	.st1684{fill:#D4C6A5;}
	.st1685{fill:#BA993F;}
	.st1686{fill:#A8863B;}
	.st1687{fill:#D4C9A9;}
	.st1688{fill:#B39645;}
	.st1689{fill:#ADA187;}
	.st1690{fill:#B29540;}
	.st1691{fill:#493B2D;}
	.st1692{fill:#CFB891;}
	.st1693{fill:#C9B994;}
	.st1694{fill:#3D2F25;}
	.st1695{fill:#C4B391;}
	.st1696{fill:#372920;}
	.st1697{fill:#D6C69D;}
	.st1698{fill:#D4C398;}
	.st1699{fill:#D0BE9B;}
	.st1700{fill:#3B2A21;}
	.st1701{fill:#CABDA6;}
	.st1702{fill:#47371F;}
	.st1703{fill:#3D342C;}
	.st1704{fill:#7F5397;}
	.st1705{fill:#396D4D;}
	.st1706{fill:#B59C97;}
	.st1707{fill:#2A231B;}
	.st1708{fill:#3D3631;}
	.st1709{fill:#D0C19F;}
	.st1710{fill:#766B58;}
	.st1711{fill:#574937;}
	.st1712{fill:#372E22;}
	.st1713{fill:#C9BB9E;}
	.st1714{fill:#E0CEAE;}
	.st1715{fill:#DDCDA8;}
	.st1716{fill:#CBB95C;}
	.st1717{fill:#362E21;}
	.st1718{fill:#C3B496;}
	.st1719{fill:#6C3C4B;}
	.st1720{fill:#9E9995;}
	.st1721{fill:#B7A061;}
	.st1722{fill:#54549C;}
	.st1723{fill:#85A583;}
	.st1724{fill:#443C2D;}
	.st1725{fill:#4F5396;}
	.st1726{fill:#B3A88A;}
	.st1727{fill:#CEC09F;}
	.st1728{fill:#554934;}
	.st1729{fill:#3D301C;}
	.st1730{fill:#7E84A7;}
	.st1731{fill:#818D72;}
	.st1732{fill:#576E4B;}
	.st1733{fill:#506E49;}
	.st1734{fill:#A0AE8C;}
	.st1735{fill:#D6C383;}
	.st1736{fill:#AA9D82;}
	.st1737{fill:#A89A80;}
	.st1738{fill:#362820;}
	.st1739{fill:#A4853B;}
	.st1740{fill:#3E342B;}
	.st1741{fill:#503F28;}
	.st1742{fill:#CEBE9C;}
	.st1743{fill:#5A493A;}
	.st1744{fill:#DDD1AF;}
	.st1745{fill:#CFBE9A;}
	.st1746{fill:#83785F;}
	.st1747{fill:#7E7363;}
	.st1748{fill:#514B74;}
	.st1749{fill:#CBBA7E;}
	.st1750{fill:#C3B16E;}
	.st1751{fill:#526C3A;}
	.st1752{fill:#706335;}
	.st1753{fill:#BAA6AB;}
	.st1754{fill:#5C444B;}
	.st1755{fill:#C9BE51;}
	.st1756{fill:#A3977E;}
	.st1757{fill:#A99145;}
	.st1758{fill:#D4C7AD;}
	.st1759{fill:#312924;}
	.st1760{fill:#D2C7A9;}
	.st1761{fill:#AC8C36;}
	.st1762{fill:#AEAAA7;}
	.st1763{fill:#A3A01B;}
	.st1764{fill:#936A94;}
	.st1765{fill:#5D75B6;}
	.st1766{fill:#576D20;}
	.st1767{fill:#8B5B9B;}
	.st1768{fill:#9C8F72;}
	.st1769{fill:#352E25;}
	.st1770{fill:#D5CCAA;}
	.st1771{fill:#5F72B3;}
	.st1772{fill:#D3C7A5;}
	.st1773{fill:#AB8F3C;}
	.st1774{fill:#C0B471;}
	.st1775{fill:#8F5F9C;}
	.st1776{fill:#808DAD;}
	.st1777{fill:#577729;}
	.st1778{fill:#8B865F;}
	.st1779{fill:#CAB41A;}
	.st1780{fill:#CAB112;}
	.st1781{fill:#C1AD1F;}
	.st1782{fill:#A0A07E;}
	.st1783{fill:#9268B0;}
	.st1784{fill:#2E2820;}
	.st1785{fill:#46773D;}
	.st1786{fill:#D5C5A3;}
	.st1787{fill:#839B59;}
	.st1788{fill:#927A48;}
	.st1789{fill:#63853A;}
	.st1790{fill:#A17EB4;}
	.st1791{fill:#C9B20C;}
	.st1792{fill:#4B874F;}
	.st1793{fill:#B7A830;}
	.st1794{fill:#557630;}
	.st1795{fill:#B9AC7D;}
	.st1796{fill:#BDAD7E;}
	.st1797{fill:#A99F84;}
	.st1798{fill:#5C863F;}
	.st1799{fill:#C6A945;}
	.st1800{fill:#B4AA84;}
	.st1801{fill:#B3A266;}
	.st1802{fill:#74706D;}
	.st1803{fill:#B4AA7B;}
	.st1804{fill:#C2A442;}
	.st1805{fill:#B4A980;}
	.st1806{fill:#9393B0;}
	.st1807{fill:#3F2F84;}
	.st1808{fill:#7E51A5;}
	.st1809{fill:#BDAAA2;}
	.st1810{fill:#A98F3E;}
	.st1811{fill:#B7A98C;}
	.st1812{fill:#C69EA6;}
	.st1813{fill:#AE647E;}
	.st1814{fill:#55333A;}
	.st1815{fill:#B6A4B2;}
	.st1816{fill:#AA5A72;}
	.st1817{fill:#A1B48C;}
	.st1818{fill:#C4C2AB;}
	.st1819{fill:#B5AB9F;}
	.st1820{fill:#80A874;}
	.st1821{fill:#CAB69D;}
	.st1822{fill:#BEA347;}
	.st1823{fill:#A99942;}
	.st1824{fill:#AFA381;}
	.st1825{fill:#36312D;}
	.st1826{fill:#9D9275;}
	.st1827{fill:#DCCFAB;}
	.st1828{fill:#C5BA9C;}
	.st1829{fill:#30271B;}
	.st1830{fill:#628052;}
	.st1831{fill:#D3C963;}
	.st1832{fill:#3E3126;}
	.st1833{fill:#D4C3A1;}
	.st1834{fill:#40372D;}
	.st1835{fill:#BBA04B;}
	.st1836{fill:#D9CBA9;}
	.st1837{fill:#D0C7AD;}
	.st1838{fill:#D3C49F;}
	.st1839{fill:#2F281D;}
	.st1840{fill:#D5CBAC;}
	.st1841{fill:#3B3225;}
	.st1842{fill:#3B3228;}
	.st1843{fill:#908778;}
	.st1844{fill:#41372C;}
	.st1845{fill:#32281E;}
	.st1846{fill:#D3C7A7;}
	.st1847{fill:#473B22;}
	.st1848{fill:#403933;}
	.st1849{fill:#6A5043;}
	.st1850{fill:#5E4639;}
	.st1851{fill:#413B33;}
	.st1852{fill:#D5C9A4;}
	.st1853{fill:#B5A35F;}
	.st1854{fill:#D2C5A8;}
	.st1855{fill:#4A4235;}
	.st1856{fill:#302A1B;}
	.st1857{fill:#AB949D;}
	.st1858{fill:#C0A52F;}
	.st1859{fill:#CFC3A2;}
	.st1860{fill:#B5A685;}
	.st1861{fill:#DCCFAE;}
	.st1862{fill:#BC9C3C;}
	.st1863{fill:#443B4F;}
	.st1864{fill:#4E3E4D;}
	.st1865{fill:#BAA64D;}
	.st1866{fill:#BDB180;}
	.st1867{fill:#666E16;}
	.st1868{fill:#707EB0;}
	.st1869{fill:#796FAA;}
	.st1870{fill:#B8B8BA;}
	.st1871{fill:#B2B5B7;}
	.st1872{fill:#546816;}
	.st1873{fill:#75488C;}
	.st1874{fill:#C0B37F;}
	.st1875{fill:#594B71;}
	.st1876{fill:#4D3D67;}
	.st1877{fill:#4D3931;}
	.st1878{fill:#9C9480;}
	.st1879{fill:#CFC5A8;}
	.st1880{fill:#3A2A39;}
	.st1881{fill:#C5B77E;}
	.st1882{fill:#5A465A;}
	.st1883{fill:#FEDA03;}
	.st1884{fill:#784FFE;}
	.st1885{fill:#FF007A;}
</style>
<g id="MIVA:SYMM">
</g>
<g id="MIVA-FRACTION">
</g>
<g id="FRACTION-MIVA">
</g>
<g id="MIVA-HNY">
</g>
<g id="MIVA-WXDAI">
</g>
<g id="zeroalpha">
</g>
<g id="POAP">
</g>
<g id="pixeth">
</g>
<g id="xDaiTigers">
</g>
<g id="Fraction_Early">
</g>
<g id="CryptoStamp">
</g>
<g id="Epor.io">
</g>
<g id="nifty-ink">
</g>
<g id="Opensea">
</g>
<g id="Placeholder">
</g>
<g id="Foundation">
</g>
<g id="cryptoWine">
</g>
<g id="ENS">
</g>
<g id="Foam">
	<rect x="0" class="st1" width="512" height="512"/>
	<g>
		<path class="st164" d="M445.23,272.739c1.24-0.203,1.542,0.706,1.733,1.583c0.141,0.646,0.067,1.342,0.067,2.016
			c0.003,33.58-0.013,67.16,0.039,100.74c0.004,2.298-0.9,3.426-2.992,4.273c-6.429,2.604-13.128,4.815-19.064,8.299
			c-7.962,4.672-16.786,7.245-24.858,11.484c-4.427,2.325-9.112,3.995-13.541,6.252c-1.811,0.922-3.499,0.889-5.336,0.062
			c-3.742-1.684-7.678-2.985-11.281-4.916c-7.961-4.268-16.809-6.638-24.588-11.082c-7.231-4.13-15.135-6.424-22.536-9.989
			c-3.47-1.672-3.516-1.583-3.516,2.39c0.001,17.09-0.03,34.179,0.049,51.269c0.01,2.149-0.52,3.207-2.679,4.112
			c-7.479,3.135-14.803,6.639-22.194,9.986c-2.175,0.985-4.452,1.771-6.548,2.898c-5.017,2.698-10.02,5.398-15.323,7.52
			c-3.667,1.467-7.208,3.251-10.891,4.673c-1.682,0.649-2.91,2.042-4.667,2.474c-1.219,0.234-1.343-0.684-1.492-1.484
			c-0.205-1.109-0.119-2.242-0.119-3.365c-0.003-32.146-0.003-64.293-0.001-96.439c0-1.574,0.032-3.149-0.305-4.695
			c-0.17-1.039,0.7-1.144,1.331-1.496c5.186-2.887,10.808-4.801,16.179-7.274c3.582-1.306,6.898-3.073,10.204-5.014
			c3.918-2.3,8.306-3.799,12.541-5.518c4.521-1.836,8.823-4.125,13.244-6.169c0.516-0.239,1.267-0.437,1.156-1.179
			c-0.085-0.567-0.779-0.619-1.249-0.829c-2.395-1.065-4.771-2.187-7.208-3.138c-2.181-0.851-3.496-2.824-5.471-3.858
			c-3.781-1.979-7.638-3.815-11.482-5.667c-2.095-1.009-3.93-2.461-6.121-3.306c-1.191-0.459-2.235-0.618-3.453-0.156
			c-5.119,1.942-10.062,4.299-15.126,6.366c-1.147,0.468-2.227,1.297-3.607,0.965c-0.183-0.204-0.312-0.431-0.4-0.689
			c-0.267-0.956-0.226-1.932-0.225-2.901c0.031-18.757-0.089-37.515,0.074-56.271c0.008-0.417-0.001-0.835,0.016-1.252
			c0.014-0.942,0.044-1.885-0.018-2.828c-0.03-0.41,0.021-0.819,0.01-1.229c0-3.079,0.042-6.156-0.017-9.235
			c-0.023-10.517-0.27-21.035,0.119-31.545c0.236-1.008,1.061-1.373,1.905-1.722c10.589-4.37,20.897-9.376,31.429-13.878
			c3.229-1.38,6.282-3.158,9.404-4.775c5.192-2.689,10.724-4.613,16.016-7.075c1.033-0.481,2.818-0.58,2.788-1.776
			c-0.026-1.046-1.71-1.442-2.772-1.99c-1.344-0.694-3.101-0.726-3.899-2.335c0.218-0.55,0.671-0.886,1.214-0.826
			c3.506,0.388,5.025-2.248,6.841-4.435c0.285-0.344,0.601-0.727,0.586-1.187c-0.158-4.765,1.036-9.485,0.373-14.281
			c-0.267-1.929,0.513-3.792,1.175-5.604c0.617-1.687,1.41-3.339,0.113-5.092c-0.366-0.495-0.285-1.173-0.026-1.732
			c0.56-1.207,0.921-2.331-0.168-3.499c-0.532-0.571,0.049-1.244,0.158-1.885c0.316-1.855,1.109-3.8,0.674-5.566
			c-0.418-1.699-1.057-3.41-1.559-5.122c-0.457-1.557-1.043-3.123-0.818-4.808c3.242,0.077,5.903,1.798,8.64,3.203
			c1.117,0.573,2.125,1.374,3.352,1.768c2.776,0.89,4.904,2.84,7.232,4.458c1.058,0.735,1.262,1.67,0.276,2.63
			c-1.514,1.475-2.452,2.628-0.579,4.874c0.846,1.015,1.09,3.237,1.389,4.896c0.205,1.134-0.96,2.847-1.765,3.589
			c-1.061,0.979-1.017,1.721-0.889,2.784c0.017,0.14-0.005,0.219-0.009,0.224c-1.941,2.687-0.522,5.276,0.326,7.826
			c0.351,1.056,0.279,1.832-0.352,2.698c-0.776,1.064-1.046,2.17,0.146,3.184c0.852,0.725,0.548,1.575,0.316,2.477
			c-0.551,2.139-1.273,4.212,0.627,6.26c0.925,0.997,0.943,2.645,0.728,4.103c-0.11,0.746-0.264,1.491,0.625,1.949
			c0.829,0.428,1.166-0.057,1.614-0.639c0.43-0.559,1.077-0.43,1.626-0.08c0.764,0.488,1.097,1.196,0.983,2.108
			c-0.116,0.927-0.665,1.654-1.083,2.447c-0.276,0.522-0.143,1.054,0.278,1.435c0.447,0.405,0.812,0.004,1.182-0.235
			c2.062-1.334,4.078-2.357,6.675-1.074c1.399,0.691,1.542-0.672,1.512-1.678c-0.078-2.589-0.1-2.588,2.287-1.787
			c0.844,0.283,1.6,0.609,2.543,0.009c1.722-1.096,1.772-1.027,0.183-2.241c-1.138-0.87-1.102-3.028,0.072-3.035
			c1.625-0.009,2.214-1.366,3.561-1.667c-0.546-0.826-1.531-0.824-1.882-1.709c-0.541-1.366-1-2.493,0.846-3.275
			c1.102-0.467,2.059-1.215,1.717-2.758c-0.132-0.594,0.414-1.091,0.785-1.563c0.304-0.386,0.53-0.815-0.052-1.108
			c-1.639-0.825-1.241-1.735-0.217-2.779c0.448-0.456,0.425-1.096,0.277-1.706c-0.105-0.436-0.461-1.021-0.237-1.291
			c1.527-1.838-0.157-3.82,0.316-5.75c0.251-1.023,0.104-2.382-0.473-3.491c-0.691-1.328-1.171-2.6,0.942-3.047
			c0.549-0.116,0.269-0.272,0.113-0.53c-0.959-1.591,0.16-1.776,1.21-1.475c2.11,0.605,4.66,0.495,5.771,3.036
			c-1.31,1.114-2.638,2.21-0.642,3.894c0.267,0.225,0.184,0.717,0.307,1.06c0.618,1.718,0.14,3.685,1.343,5.303
			c0.397,0.534,0.405,1.666,0.038,2.174c-1.593,2.207-0.937,4.743-1.294,7.122c-0.056,0.37-0.077,0.765-0.224,1.099
			c-1.255,2.853-1.483,5.871-1.213,8.898c0.148,1.668-0.531,2.519-1.9,3.108c-1.083,0.466-1.707,1.09-1.204,2.427
			c0.408,1.085-0.29,2.022-0.767,2.953c-1.043,2.038-1.675,4.024,0.302,5.946c0.777,0.756,0.435,1.595-0.395,2.054
			c-1.1,0.607-1.135,1.659-1.609,2.598c-1.03,2.042-1.455,3.871-0.683,6.023c0.171,0.477-0.57,0.79-0.896,1.463
			c2.33-0.155,3.239,0.669,2.454,2.908c-0.338,0.965,0.014,1.781,1.314,1.761c0.975-0.014,1.407,0.593,1.146,1.476
			c-0.391,1.324,0.214,2.649-0.54,4.106c-0.599,1.159,0.12,2.931-0.582,4.464c-0.313,0.684,0.976,1.12,1.622,1.678
			c-1.602-1.484-1.156-2.706,0.033-4.246c1.392-1.803,1.91-4.148,3.281-6.045c0.816-1.129,1.637-1.484,2.511-0.554
			c0.743,0.791,1.862,0.712,2.37,1.153c1.217,1.055,1.887,0.374,2.821-0.144c0.824-0.457,1.747-0.257,2.648-0.181
			c2.131,0.18,2.82-0.431,2.999-2.608c0.061-0.747,0.028-1.499,0.028-2.249c0.001-16.045-0.003-32.09,0.008-48.135
			c0.001-1.115-0.159-2.257,0.351-3.325c0.479-0.705,1.134-1.191,1.921-1.49c5.804-2.208,11.085-5.559,16.895-7.743
			c9.111-3.424,17.662-8.096,26.61-11.896c4.722-2.005,9.31-4.419,13.914-6.741c1.274-0.643,2.626-1.513,4.222-0.883
			c0.43,0.933,0.215,1.921,0.215,2.881c-0.009,26.308-0.04,52.616-0.052,78.924c-0.003,7.269-0.003,14.54,0.105,21.808
			c0.024,1.607-0.552,2.459-1.969,3.081c-9.848,4.326-19.215,9.667-29.193,13.757c-2.137,0.876-4.76,1.625-6.362,3.725
			c-5.226,2.323-10.508,4.517-15.784,6.72c-1.995,0.833-3.75,2.059-5.635,3.067c-2.669,2.179-5.362,2.457-8.406,0.56
			c-5.953-3.709-12.579-6.045-18.927-8.951c-0.81-0.467-1.777-0.565-2.567-1.081c-6.902-3.789-14.091-6.963-21.434-9.767
			c-2.682-1.024-5.131-2.455-7.632-3.776c-2.394-1.264-4.885-2.266-7.324-3.402c-1.392-0.648-2.102-0.399-2.1,1.277
			c0.01,10.186-0.013,20.372,0.017,30.558c0.002,0.685,0.137,1.34,0.506,1.927c1.677,1.9,4.148,2.359,6.313,3.221
			c5.614,2.235,11.17,4.61,16.782,6.846c1.339,0.534,2.45,1.438,3.61,2.235c1.321,0.907,2.695,1.589,4.243,1.951
			c5.313,2.162,10.588,4.437,15.773,6.866c3.211,1.504,6.521,2.888,9.569,4.754c0.371,0.255,0.658,0.614,1.047,0.847
			c2.358,1.41,2.361,1.412,0.694,3.628c-0.278,0.369-0.616,0.801-0.48,1.217c0.821,2.498-0.259,5.058,0.338,7.578
			c0.378,1.594,0.395,3.256,0.18,4.916c-0.345,2.673-0.689,5.351-0.577,8.062c0.041,0.982-0.012,2.062-0.576,2.831
			c-1.784,2.429-1.397,5.486-2.441,8.013c-1.035,2.506-0.931,5.736-4.012,7.644c1.197-0.332,1.995-0.192,2.374,0.745
			c0.307,0.757-0.127,1.371-0.644,1.775c-1.192,0.934-0.775,1.7,0.048,2.578c0.933,0.996,1.849,2.038,1.123,3.581
			c-0.093,0.199-0.109,0.601,0.008,0.637c1.84,0.552,1.83,3.273,4.095,3.397c1.026,0.056,1.973,0.643,2.912,1.134
			c1.636,0.855,2.062,0.572,2.195-1.326c0.047-0.672,0.016-1.349,0.016-2.024c0-16.193-0.006-32.385,0.011-48.578
			c0.001-1.323-0.259-2.728,0.751-3.87c3.395-1.841,7.024-3.166,10.574-4.655c2.127-0.892,4.055-2.157,6.193-3.001
			c7.153-3.374,14.714-5.812,21.567-9.903c5.271-3.146,11.229-4.924,16.795-7.505C441.079,275.335,443.547,274.721,445.23,272.739z"
			/>
		<path class="st165" d="M65.829,273.158c5.497-2.436,10.978-4.911,16.499-7.292c3.302-1.424,6.147-3.672,9.553-4.945
			c3.833-1.433,7.518-3.26,11.268-4.916c0.831-1.024,1.842-0.819,2.852-0.377c6.303,2.762,12.871,4.947,18.736,8.665
			c0.991,0.628,2.19,1.659,3.263,1.119c1.188-0.598,0.61-2.166,0.611-3.304c0.025-32.357,0.019-64.715,0.023-97.072
			c0-1.272-0.064-2.547,0.106-3.812c0.28-1.615,1.528-2.272,2.835-2.922c8.384-4.168,17.144-7.499,25.613-11.459
			c6.564-3.069,13.229-5.926,19.705-9.211c4.245-2.154,8.492-4.417,13.016-6.007c0.99-0.348,2.158-1.071,2.902,0.471
			c0.246,0.807,0.237,1.635,0.238,2.459c0.012,17.924,0.003,35.848,0.006,53.772c0,0.376-0.029,0.749-0.065,1.122
			c0.117,8.836,0.065,17.671,0.04,26.507c-0.142,5.732-0.084,11.466-0.021,17.199c0.012,1.117,0.079,2.234-0.16,3.332
			c-0.281,1.105-1.244,1.401-2.139,1.786c-10.104,4.349-19.558,10.088-29.887,13.962c-1.539,0.577-2.818,1.703-4.319,2.399
			c-0.453,0.21-1.083,0.386-1.056,1.025c0.027,0.624,0.649,0.775,1.117,0.963c2.504,1.006,5.011,2.01,7.456,3.148
			c7.461,3.471,14.627,7.567,22.348,10.495c1.954,0.741,3.923,1.484,5.758,2.53c0.851,0.797,0.888,1.856,0.89,2.896
			c0.016,6.835,0.07,13.671-0.017,20.507c0.067,11.827,0.129,23.653-0.027,35.479c0.18,15.191,0.052,30.382,0.063,45.573
			c0.001,0.889,0.01,1.817-0.727,2.509c-3.05,1.315-6.101,2.629-9.15,3.945c-3.899,1.682-7.824,3.308-11.689,5.066
			c-3.353,1.525-6.229,3.893-9.744,5.217c-5.084,1.915-10.142,3.998-14.959,6.496c-5.43,2.816-11.048,5.169-16.61,7.668
			c-1.195,0.536-1.221-0.462-1.37-1.122c-0.233-1.026-0.129-2.089-0.129-3.137c-0.003-32.442-0.039-64.885,0.058-97.327
			c0.009-2.994-0.874-4.628-3.742-5.677c-8.225-3.007-15.935-7.212-23.991-10.627c-11.23-4.76-21.948-10.657-33.329-15.092
			C66.814,274.842,65.394,274.763,65.829,273.158z"/>
		<path class="st166" d="M192.31,379.758c0.024-16,0.047-31.999,0.071-47.999c0.129-0.188,0.306-0.3,0.531-0.339
			c0.902,0.013,1.701,0.431,2.554,0.642c5.073,1.826,9.863,4.278,14.722,6.584c6.018,2.855,12.477,4.81,18.272,8.058
			c7.862,4.407,16.346,7.327,24.453,11.124c1.023,0.479,2,1.041,2.394,2.215c1.166,0.642,0.906,1.759,0.906,2.775
			c-0.001,28.31-0.007,56.62-0.013,84.93c-0.001,5.617-0.018,11.234,0.014,16.851c0.005,0.799-0.466,1.896,0.894,2.182
			c-1.018,0.746-2.034,0.4-2.911-0.175c-4.217-2.764-9.067-4.149-13.568-6.293c-5.01-2.386-10.173-4.357-15.028-7.184
			c-5.119-2.98-10.993-4.628-16.33-7.275c-5.2-2.579-10.547-4.798-15.825-7.185c-1.238-0.56-1.13-1.616-1.129-2.672
			c0.008-8.173,0.014-16.347,0.012-24.52C192.326,400.904,192.316,390.331,192.31,379.758z"/>
		<path class="st167" d="M65.829,273.158c1.987,2.045,4.779,2.521,7.233,3.622c5.366,2.407,11.145,4.075,16.153,7.056
			c7.486,4.455,15.812,6.899,23.438,10.887c4.753,2.486,9.742,4.345,14.618,6.498c1.527,0.674,1.997,1.569,1.995,3.22
			c-0.044,33.796-0.032,67.592,0.011,101.388c0.001,0.792-0.725,2.061,0.881,2.323c-0.791,0.797-1.638,0.451-2.457,0.09
			c-9.41-4.153-18.812-8.323-28.225-12.467c-2.184-0.961-4.44-1.763-6.598-2.776c-4.946-2.324-9.58-5.264-14.752-7.159
			c-3.563-1.306-6.937-3.124-10.493-4.454c-1.842-0.689-2.328-1.808-2.318-3.554c0.045-7.948,0.063-15.895,0.059-23.843
			c-0.012-25.868-0.043-51.736-0.042-77.604C65.332,275.302,64.969,274.123,65.829,273.158z"/>
		<path class="st168" d="M129.272,160.726c-0.012,34.685-0.022,69.371-0.04,104.056c-0.001,2.361-0.204,2.545-2.211,1.42
			c-6.871-3.852-14.072-6.983-21.324-10.018c-0.9-0.377-1.669-0.516-2.547-0.18c0.139-0.739-0.299-1.087-0.893-1.353
			c-5.701-2.558-11.227-5.501-17.127-7.617c-4.669-1.675-8.863-4.344-13.308-6.487c-1.478-0.712-2.949-1.5-4.51-1.963
			c-1.513-0.449-1.945-1.251-1.944-2.756c0.029-34.234,0.015-68.468,0.025-102.702c0-0.702-0.297-1.533,0.538-2.035
			c2.368,0.494,4.559,1.517,6.693,2.564c7.248,3.557,14.581,6.918,21.937,10.244c5.042,2.28,9.988,4.819,15.153,6.787
			c5.262,2.005,10.207,4.657,15.363,6.863C126.739,158.262,128.42,158.945,129.272,160.726z"/>
		<path class="st169" d="M319.265,130.969c1.174,3.42,1.311,7.17,3.298,10.334c0.356,0.567-0.008,0.996-0.4,1.37
			c-0.525,0.501-0.985,1.218-0.585,1.783c0.754,1.065,0.311,1.707-0.38,2.483c-0.316,0.354-0.705,1.034-0.057,1.356
			c1.938,0.964,0.949,2.146,0.367,3.334c-0.294,0.599-0.736,1.242-0.175,1.87c1.232,1.382,1.037,2.711,0.313,4.318
			c-1.706,3.785-1.562,7.783-1.223,11.851c0.185,2.22-0.683,4.515-0.612,6.762c0.1,3.185-1.849,4.8-3.694,6.984
			c-1.817,2.15-3.767,0.757-5.445,1.575c-0.929,0.666-1.708-0.049-2.52-0.3c-4.524-1.396-8.514-3.951-12.727-6.007
			c-7.062-3.445-14.449-6.147-21.509-9.547c-5.911-2.847-12.105-5.082-17.829-8.318c-0.685-1.313-0.521-2.782-0.672-4.175
			c-0.262-2.412-1.451-4.101-3.626-4.969c-1.453-0.58-2.57-1.763-4.215-2.024c-0.927-0.147-1.092-1.217-0.945-2.045
			c0.227-1.282-0.308-2.166-1.186-2.962c-1.015-0.919-1.492-2.003-1.188-3.414c0.362-1.684-0.122-3.267-0.774-4.804
			c-0.203-0.479-0.762-1.148-0.478-1.426c1.479-1.445,1.769-3.141,1.42-5.057c2.785-3.193,1.795-7.447,3.104-11.06
			c0.925-2.553,0.193-5.297,1.1-7.995c0.762-2.267,0.103-5.019,0.579-7.535c0.103-0.544-0.319-0.972-0.684-1.361
			c-1.056-1.125-0.674-2.004,0.474-2.753c1.3-0.444,2.359,0.282,3.391,0.817c2.545,1.317,4.917,1.129,7.51-0.063
			c7.411-3.405,14.721-7.021,22.137-10.408c5.718-2.611,11.664-4.765,17.275-7.569c5.017-2.507,10.371-4.265,15.211-7.142
			c1.385-0.823,2.879-1.648,4.636-1.443c0.497,0.441,0.529,1.016,0.528,1.633c-0.028,15.493-0.045,30.986-0.064,46.48
			C319.114,124.67,319.778,127.842,319.265,130.969z"/>
		<path class="st170" d="M256.246,160.657c5.233,2.213,10.483,4.361,15.59,6.888c5.453,2.697,11.18,4.838,16.743,7.318
			c4.496,2.005,8.971,4.02,13.207,6.612c2.676,1.638,5.905,2.372,8.886,3.512c2.251,1.439,4.997,1.899,7.118,3.612
			c0.343,0.277,0.848,0.386,0.818,0.926c-0.029,0.529-0.476,0.676-0.905,0.856c-5.025,2.107-10.025,4.276-15.072,6.329
			c-2.778,1.13-5.36,2.661-7.977,4.057c-5.82,3.106-12.047,5.267-17.923,8.169c-5.694,2.813-11.598,5.1-17.347,7.755
			c-1.009,0.466-2.095,0.764-3.146,1.14c-0.943,0.674-1.708-0.041-2.499-0.354c-7.3-2.894-14.39-6.255-21.479-9.623
			c-3.377-1.604-7.003-2.714-10.274-4.492c-9.149-4.972-18.828-8.74-28.336-12.9c-0.491-0.215-0.911-0.508-1.272-0.895
			c-0.018-17.043-0.036-34.086-0.055-51.129c-0.003-2.317-0.01-4.635-0.015-6.952c-0.249-0.171-0.245-0.336,0.013-0.494
			c0.561-0.815,0.335-1.741,0.335-2.62c0.002-17.507-0.019-35.015-0.003-52.522c0.001-0.842-0.397-1.802,0.411-2.533
			c1.646-0.407,2.926,0.572,4.175,1.293c2.083,1.201,4.178,2.347,6.406,3.256c0.676,0.276,1.448,0.542,1.411,1.518
			c-0.706,1.446-1.017,2.974-0.861,4.575c0.343,3.528-0.491,6.989-0.568,10.495c-0.067,3.035,0.021,6.129,0.12,9.095
			c0.107,3.194-0.649,6.432,0.231,9.72c0.95,3.551-0.333,7.277-0.297,10.951c0.037,3.795,0.042,7.596-0.117,11.397
			c-0.355,8.483-0.246,16.984-0.805,25.457c-0.136,2.064,0.546,3.79,1.161,5.624c1.041,3.108,1.628,6.398,3.863,8.996
			c0.34,0.396,0.506,0.911,0.68,1.41c0.823,2.353,1.712,2.792,4.194,1.978c2.433-0.798,4.57-2.219,6.836-3.367
			c4.576-1.637,8.941-3.782,13.441-5.605c6.918-2.801,13.382-6.607,20.363-9.278C254.27,160.459,255.213,159.877,256.246,160.657z"
			/>
		<path class="st171" d="M319.265,130.969c0.141-3.142-0.504-6.313,0.357-9.428c0.013,2.472,0.058,4.945,0.029,7.416
			c-0.018,1.545,0.553,1.817,1.927,1.205c3.95-1.758,8.051-3.214,11.875-5.207c4.959-2.584,10.398-4.03,15.299-6.621
			c4.39-2.322,8.951-4.24,13.426-6.343c6.411-3.012,13.05-5.537,19.582-8.294c1.457-0.615,2.829-0.632,4.306,0.007
			c7.056,3.051,14.281,5.75,21.167,9.141c7.397,3.644,14.943,6.937,22.374,10.479c5.176,2.467,10.436,4.71,15.655,7.061
			c0.594,0.268,1.301,0.416,1.655,1.076c-5.208,1.284-9.676,4.267-14.463,6.486c-3.723,1.726-7.449,3.443-11.227,5.044
			c-4.462,1.892-8.612,4.428-13.158,6.168c-4.644,1.777-9.393,3.46-13.695,5.891c-3.513,1.985-7.317,3.233-10.8,5.195
			c-0.325,0.283-0.677,0.24-1.033,0.077c-4.044-1.861-8.059-3.785-12.097-5.657c-0.342-0.159-0.631-0.389-0.808-0.735
			c-1.983-1.649-4.371-2.183-6.834-2.643c0,0.301-0.024,0.45,0.004,0.589c0.176,0.873,1.786-0.109,1.532,1.061
			c-0.168,0.774-1.145,0.439-1.775,0.577c-1.64,0.358-0.882,1.172-0.499,2.132c0.624,1.561,1.555,3.165,0.374,4.93
			c-0.449,0.671-0.217,0.933,1.749,2.374c-1.609,0.902-2.472,2.014-1.381,3.9c0.398,0.688,0.041,1.774-0.71,2.198
			c-1.649,0.932-0.811,1.38,0.291,1.491c2.093,0.21,1.13,0.991,0.393,1.704c-0.789,0.763-1.22,1.365-0.776,2.674
			c0.547,1.614-1.718,1.251-2.265,2.306c-0.188,0.363-1.623,0.153-1.012,0.857c0.592,0.682-0.201,2.467,1.609,2.136
			c0.802-0.147,1.082,0.363,1.15,1.021c0.082,0.789-0.401,1.042-1.105,1.051c-1.324,0.016-1.705,0.705-1.071,2.222
			c-1.062-0.401-1.831-2.41-2.612-0.414c-0.251,0.642-0.538,1.718,0.929,1.71c1.103-0.006,1.382,1.043,1.524,1.776
			c0.164,0.848-0.991,0.467-1.229,0.734c-1.652,1.849-3.257,1.146-4.92,0.128c-0.274-0.168-0.623-0.233-0.761,0.096
			c-0.098,0.233-0.082,0.672,0.074,0.827c0.958,0.951,0.179,1.753-0.1,2.646c-0.351,1.123-0.795,1.138-1.785,0.615
			c-2.167-1.147-4.973-0.659-6.642,0.943c-0.385,0.37-0.636,1.706-1.308,0.685c-0.485-0.736-2.006-1.676-0.761-2.843
			c0.728-0.682,1.008-1.471,1.244-2.308c0.25-0.883-0.391-1.46-1.102-1.72c-0.812-0.296-0.829,0.268-0.974,0.971
			c-0.254,1.23-1.111,0.044-1.717,0.169c-0.964,0.199-1.699-0.512-1.419-1.479c0.79-2.728-0.021-4.79-1.818-6.935
			c-0.952-1.137,0.522-2.861,0.648-4.388c0.09-1.082,0.899-1.831-0.68-2.663c-1.099-0.578-0.669-2.243,0.087-2.978
			c1.615-1.569,0.403-3.111,0.011-4.422c-0.576-1.928-1.736-3.595,0.042-5.516c0.633-0.684,0.347-1.667-0.227-2.494
			c-0.57-0.822-0.591-1.463,0.735-1.15c0.484,0.114,1.214-0.223,1.011-0.428c-1.832-1.861,3.583-2.465,0.711-4.45
			c-1.407-0.972,0.088-3.347-0.515-3.499c-2.224-0.561-1.299-2.048-1.307-3.2c-0.005-0.625,0.391-1.322,1.032-1.66
			c2.397-1.262,1.108-2.044-0.27-3.051c-2.599-1.898-5.63-3.021-8.308-4.642C325.795,133.69,322.424,132.599,319.265,130.969z"/>
		<path class="st172" d="M204.937,79.234c-3.957-1.972-7.914-3.944-11.871-5.916c8.261-4.465,17.164-7.531,25.567-11.637
			c5.473-2.675,11.269-4.648,16.535-7.775c2.102-1.248,4.565-1.873,6.753-2.997c4.035-2.072,8.173-3.896,12.338-5.679
			c1.26-0.54,2.303-0.591,3.627-0.098c6.787,2.525,13.141,6.012,19.713,8.995c3.909,1.774,7.954,3.325,11.74,5.384
			c7.473,4.065,15.613,6.641,23.192,10.438c2.217,1.11,4.621,1.943,6.628,3.48c-5.134,2.355-10.299,4.658-15.382,7.105
			c-8.044,3.872-16.431,6.956-24.443,10.855c-6.269,3.051-12.635,5.896-18.871,9.001c-3.235,1.611-6.103,1.527-9.113-0.177
			c-0.716-0.406-1.448-0.802-2.319-0.743c-1.707-0.091-3.113-1.052-4.559-1.758c-6.645-3.243-13.278-6.497-20.094-9.381
			c-3.856-1.631-7.782-3.113-11.529-4.999C210.245,81.902,207.409,80.917,204.937,79.234z"/>
		<path class="st173" d="M192.322,130.993c-0.004,0.164-0.008,0.329-0.013,0.494c-3.353,1.13-6.717,2.22-9.662,4.293
			c-0.653,0.46-1.511,0.621-2.256,0.961c-5.971,2.721-12.013,5.298-17.885,8.218c-7.263,3.612-14.82,6.506-22.243,9.727
			c-3.301,1.432-6.447,3.299-9.761,4.781c-0.499,0.223-0.826,0.83-1.232,1.26c-6.04-3.632-12.438-6.481-18.979-9.1
			c-5.899-2.361-11.586-5.246-17.391-7.845c-3.172-1.42-6.552-2.448-9.551-4.158c-3.137-1.788-6.481-3.1-9.643-4.808
			c-2.087-1.128-4.336-1.96-6.537-2.866c-0.499-0.206-0.982-0.342-1.241-0.857c4.583-1.973,9.338-3.629,13.704-6.001
			c5.055-2.747,10.588-4.383,15.594-7.099c10.484-5.687,21.587-9.958,32.441-14.8c0.872-0.389,1.745-0.356,2.61,0.017
			c7.397,3.187,14.889,6.174,22.163,9.621c7.709,3.653,15.462,7.206,23.181,10.825C181.139,126.242,186.652,128.781,192.322,130.993
			z"/>
		<path class="st174" d="M445.23,272.739c-0.073,1.574-1.303,2.072-2.466,2.575c-5.659,2.446-11.299,4.941-17.011,7.259
			c-2.499,1.014-4.534,2.783-6.976,3.847c-5.024,2.189-10.041,4.398-15.09,6.528c-1.019,0.43-1.799,1.386-3.014,1.364
			c-0.089-1.358,1.174-1.593,1.907-2.247c0.931-0.83,1.332-1.632,0.235-2.611c-0.224-0.2-0.55-0.42-0.56-0.684
			c-0.108-2.974-2.198-5.126-3.197-7.73c-0.903-2.354-2.355-4.455-3.995-6.364c-0.739-0.86-1.248-1.645-1.074-2.79
			c0.15-0.984-0.073-1.944-0.278-2.895c-0.319-1.487-0.599-2.959,0.749-4.494c-2.369,0.496-4.313,1.362-6.376,0.597
			c0.921-1.385,2.574-1.926,3.863-2.539c5.232-2.487,10.672-4.534,16.03-6.758c0.559-0.232,1.081-0.534,1.683-0.158
			c4.743,2.091,9.495,4.163,14.222,6.291c0.724,0.326,1.332,0.908,1.994,1.372c2.116,2.243,4.944,3.257,7.683,4.403
			c1.997,0.835,3.988,1.686,5.837,2.802c0.703,0.424,1.478,0.013,2.11,0.457C442.747,271.555,443.989,272.147,445.23,272.739z"/>
		<path class="st164" d="M441.506,270.963c-1.016,0.405-1.843,0.3-2.867-0.329c-3.647-2.238-7.91-3.213-11.576-5.478
			c-0.823-0.509-1.243-0.942-1.187-1.855C431.086,265.855,436.296,268.409,441.506,270.963z"/>
		<path class="st175" d="M192.416,296.013c-0.021-6.898-0.042-13.795-0.065-20.693c-0.003-0.942,0.176-1.957-0.933-2.486
			c1.076-2.504,0.781-5.164,0.613-7.73c-0.258-3.944-0.165-7.884-0.081-11.812c0.108-5.069,0.049-10.139,0.183-15.206
			c0.008-0.298,0.125-0.582,0.229-0.862c0.02-7.059,0.04-14.118,0.059-21.176c1.34,0.992,1.639,2.425,1.328,3.896
			c-0.632,2.982-0.622,5.928,0.037,8.887c0.049,0.219,0.195,0.467,0.131,0.653c-0.706,2.048,0.666,2.88,2.078,3.793
			c0.712,0.46,1.64,0.944,1.506,2.053c-0.226,1.878,1.149,2.561,2.446,2.504c1.882-0.083,3.486,1.361,5.53,0.552
			c1.12-0.443,1.741,0.845,1.8,2.007c0.023,0.451-0.279,0.851-0.378,1.282c-0.166,0.727-1.345,1.493-0.445,2.121
			c0.903,0.631,2.08,1.328,3.343,0.529c0.189-0.12,0.394-0.216,0.597-0.312c0.837-0.397,1.697-0.748,2.482,0.057
			c0.817,0.837-0.066,1.482-0.555,2.381c2.09-0.113,3.472,0.811,4.425,2.31c0.922,1.45,0.507,3.143,0.448,4.898
			c1.316-0.425,1.268-1.602,1.8-2.332c1.07-1.471,1.627-1.537,2.604-0.071c0.389,0.584,0.78,1.055,1.455,1.313
			c2.522,0.963,2.517,0.975,3.246,3.279c-0.025,0.299,0.44-0.086,0.161,0.024c-0.088,0.035-0.081-0.036-0.092-0.206
			c-0.11-1.702,0.857-1.72,2.01-1.213c1.193,0.525,2.09,1.699,3.628,1.477c0.47-0.068,0.627,0.533,0.833,0.938
			c1.058,2.085,1.455,4.472,3.018,6.336c0.576,0.686-0.326,1.18-0.613,1.839c1.188-0.446,0.87-1.341,0.856-2.179
			c-0.013-0.759,0.168-1.59,0.945-1.895c0.926-0.364,1.027,0.581,1.378,1.103c0.446,0.662,0.924,1.174,1.325-0.027
			c0.201-0.601,0.618-0.936,1.184-0.701c1.358,0.564,2.448,0.248,3.474-0.73c0.352-0.335,0.817-0.288,1.154,0.174
			c0.835,1.147,0.207,3.431-1.157,3.897c-1.079,0.369-1.995,0.944-3.361,2.054c2.753-1.127,3.831,0.44,4.894,1.862
			c0.75,1.003,1.309,1.22,2.563,0.583c1.843-0.936,3.691-2.394,5.967-1.304c0.651-1.306-1.298-3.633,1.694-3.712
			c0.02,13.182,0.052,26.364,0.054,39.545c0.001,6.89-0.055,13.781-0.085,20.671c-0.723,0.721-1.412,0.164-2.048-0.118
			c-5.943-2.637-12.14-4.708-17.787-8.004c-1.556-0.908-3.395-1.181-4.937-2.134c-5.299-2.457-10.829-4.4-16.007-7.125
			c-2.05-1.079-4.094-2.169-6.158-3.223c-4.982-2.11-9.929-4.301-14.917-6.397C193.543,297.076,192.635,297.012,192.416,296.013z"/>
		<path class="st176" d="M256.158,264.167c-1.514,0.303-1.376,1.278-1.024,2.401c0.245,0.782,0.538,1.764-0.156,2.315
			c-0.796,0.632-0.986-0.75-1.54-0.814c-1.855-0.215-3.647,0.685-4.837,1.706c-1.623,1.393-2.182,0.498-2.865-0.567
			c-0.46-0.716-1.08-1.193-1.639-1.775c-0.674-0.701-1.101-1.039-1.997-0.321c-0.539,0.432-1.445,0.407-1.752-0.328
			c-0.405-0.97,0.629-0.971,1.164-1.217c1.098-0.505,1.997-1.262,3.286-1.593c1.652-0.425-0.595-2.099,0.519-3.215
			c-1.556,1.648-3.086,2.266-4.854,0.844c-0.672,0.652,0.725,1.995-0.761,2.023c-1.4,0.026-2.3-0.813-2.154-2.6
			c-0.8,1.018-1.339,1.778-0.863,2.81c0.249,0.539,0.186,1.075-0.301,1.41c-0.668,0.459-1.728,1.217-2.188,0.526
			c-0.861-1.294,1.422-0.947,1.226-2.315c-0.935-0.392-1.603-1.047-1.467-2.746c0.104-1.299-1.832-2.445-1.715-4.178
			c0.005-0.081-0.277-0.273-0.308-0.251c-1.64,1.189-2.239-0.555-3.273-1.115c-0.535-0.29-1.166-1.05-1.785-0.401
			c-0.714,0.749,0.333,1.109,0.601,1.647c0.084,0.17,0.065,0.391,0.121,0.785c-1.59-0.261-2.415-1.229-2.263-2.531
			c0.133-1.137-0.2-1.214-1.105-1.307c-1.463-0.149-3.056-0.17-3.24-2.295c-0.058-0.668-0.695-0.804-1.081-0.128
			c-0.399,0.698-1.021,1.263-1.08,2.178c-0.064,0.987-0.949,1.562-1.717,1.385c-0.99-0.228-0.742-1.112-0.536-2.006
			c0.657-2.852-0.22-4.962-3.688-5.294c-0.51-0.049-1.309,0.14-1.539-0.631c-0.211-0.705,0.464-0.839,0.874-1.112
			c0.377-0.251,0.845-0.46,0.498-1.02c-0.267-0.429-0.842-0.66-1.165-0.372c-2.07,1.848-4.146,1.065-6.284-0.006
			c0.005-0.888,0.64-1.674,1.089-2.495c0.522-0.954,0.802-1.845-0.164-2.568c-0.878-0.658-1.65,0.025-2.368,0.507
			c-0.23,0.155-0.381,0.428-0.878,1.01c0.258-2.305-1.115-2.18-2.274-1.94c-1.675,0.347-2.551-1.054-3.852-1.489
			c-0.309-0.103-0.375-0.449-0.219-0.755c1.267-2.492-1.12-2.827-2.333-3.381c-0.845-0.386-1.418-0.964-1.31-1.475
			c0.698-3.311-0.862-6.585-0.136-9.828c0.442-1.974,0.487-3.785-0.406-5.598c-0.014-8.826-0.028-17.653-0.042-26.479
			c4.366,1.291,8.39,3.424,12.599,5.099c4.414,1.757,8.783,3.637,12.911,5.963c6.174,3.48,13.03,5.425,19.242,8.724
			c6.188,3.286,12.735,5.665,19.108,8.479c-0.026,10.796-0.053,21.591-0.079,32.387c-0.522,3.162-0.797,6.325-0.011,9.489
			c0.005,0.291,0.009,0.583,0.013,0.874c-0.459,0.906-0.633,1.813-0.012,2.724C256.153,263.594,256.156,263.881,256.158,264.167z"/>
		<path class="st177" d="M231.525,313.651c7.775,3.472,15.548,6.947,23.328,10.406c0.395,0.176,0.848,0.221,1.274,0.326
			c0.175,0.027,0.349,0.054,0.524,0.081c0.539-0.282,1.147-0.307,1.722-0.455c2.687-0.693,2.984-0.383,2.636,2.26
			c-0.208,1.578,0.948,2.792,1.72,3.961c1.621,2.454,3.475,4.766,5.445,6.965c0.944,1.054,1.75,2.245,2.992,3.012
			c1.761,1.088,1.606,3.288,2.723,4.789c0.618,0.83,0.972,1.736,2.039,2.22c1.346,0.61,1.311,1.595,0.411,2.721
			c-0.931,1.165-2.366,1.546-3.454,2.446c-3.547,2.023-7.376,3.434-11.151,4.922c-2.172,0.856-3.896,2.761-6.427,2.737
			c-6.934-4.086-14.838-6.099-21.83-9.948c-7.326-4.032-15.093-6.971-22.63-10.469c-5.244-2.434-10.421-5.009-15.78-7.188
			c-0.582-1.111,0.324-1.616,1.011-1.791c6.008-1.528,10.428-6.021,15.973-8.465c4.086-1.801,8.147-3.723,12.17-5.693
			c1.674-0.819,3.214-1.891,4.955-2.596C229.958,313.578,230.692,313.263,231.525,313.651z"/>
		<path class="st178" d="M388.084,265.093c1.982-0.693,4.373,0.155,6.085-1.619c0.125-0.13,0.622-0.086,0.801,0.058
			c0.434,0.35,0.307,0.916-0.008,1.192c-1.558,1.368-0.89,2.951-0.619,4.56c0.165,0.983,0.711,1.951,0.141,3.044
			c-0.333,0.638,0.002,1.318,0.692,1.694c1.19,0.649,1.461,1.932,2.15,2.91c1.295,1.838,2.537,3.559,2.806,5.855
			c0.069,0.586,0.686,0.691,1.226,0.789c0.769,0.139,1.234,0.596,0.999,1.423c-0.52,1.827-0.096,3.216,1.43,4.485
			c1.098,0.914,0.514,2.027-0.48,2.816c-0.865,0.687-1.992,1.03-2.634,2.011c-4.332,2.415-8.989,4.11-13.514,6.098
			c-1.013,0.445-2.08,0.768-3.122,1.147c-0.937,0.654-1.875,0.371-2.768-0.062c-1.67-0.81-3.322-1.66-4.898-2.648
			c-4.335-1.439-8.158-3.975-12.338-5.749c-4.292-1.821-8.566-3.682-12.848-5.526c-1.039-1.516-0.285-2.728,0.756-3.78
			c1.52-1.537,2.699-3.013,2.214-5.492c-0.379-1.934-0.663-2.614-2.718-2.618c-0.91-0.002-1.914,0.237-2.241-0.923
			c-0.299-1.062,0.505-1.626,1.348-2.181c-1.81-0.131-3.181-0.793-4.212-2.308c-0.688-1.01-2.293-0.963-2.95-2.25
			c-0.414-0.811-0.717-1.443-0.058-2.232c4.216-5.053,10.154-7.187,16.023-9.416c0.498-0.189,1.186-0.227,1.728,0.168
			c3.876,1.665,7.729,3.389,11.639,4.97c2.122,0.858,4.044,2.075,5.95,3.26C381.831,266.739,384.849,267.6,388.084,265.093z"/>
		<path class="st179" d="M369.635,153.931c4.87,1.611,9.309,4.173,13.938,6.315c0.002,17.697,0.006,35.395,0.003,53.092
			c-0.001,3.543-0.722,4.223-4.265,3.597c-2.033-0.359-2.83,1.35-4.142,2.142c-0.97-0.526,0.25-1.304-0.407-1.84
			c-0.06-0.023-0.22-0.15-0.319-0.113c-0.977,0.369-2.24,1.774-2.303-0.766c-0.015-0.593-0.649-0.76-1.216-0.738
			c-0.583,0.023-0.58,0.356-0.657,0.882c-0.2,1.36-1.619,1.995-2.105,3.338c-0.47,1.299-0.348,2.963-2.094,3.826
			c-0.821,0.406-0.618,1.781,0.704,2.165c0.647,0.188,1.158,0.359,0.715,1.207c-0.519,0.994-1.153,0.443-1.663,0.103
			c-0.662-0.441-1.078-1.167-1.921-1.456c-0.597-0.205-0.637-0.906-0.118-1.274c1.425-1.011,1.259-2.172,0.513-3.473
			c-0.101-0.176-0.119-0.611-0.051-0.64c2.077-0.905-0.121-2.94,1.11-4.135c0.472-0.458,0.045-0.959-0.667-0.951
			c-2.155,0.026-2.772-0.831-1.829-2.918c0.641-1.419,0.531-1.861-1.056-1.359c-1.023,0.323-1.693-0.276-1.926-1.073
			c-0.381-1.299,0.734-0.593,1.225-0.778c0.593-0.224,0.28-0.688,0.17-1.121c-0.396-1.561-2.205-3.37,0.701-4.421
			c0.099-0.036,0.226-0.28,0.19-0.364c-0.842-1.99,0.072-3.015,1.87-3.743c0.891-0.361,0.459-0.988-0.138-1.315
			c-2.232-1.223-1.382-3.12-0.978-4.805c0.444-1.856,2.856-3.373,0.78-5.637c-0.372-0.405,0.247-0.827,0.7-0.836
			c0.986-0.018,1.467-1.005,2.385-1.143c0.269-0.04,0.505-0.3,0.756-0.46c-1.246-1.456,1.092-3.003-0.115-4.461
			c-0.681-0.823-0.389-1.538,0.001-2.457c1.099-2.593,2.244-5.232,1.381-8.181c-0.209-0.713,0.081-1.347,0.447-1.914
			c1.097-1.7,2.287-3.37-0.239-4.896c-0.126-0.076-0.206-0.532-0.13-0.595c1.669-1.382-0.993-2.802,0.035-4.192
			c0.063-0.085-0.123-0.441-0.275-0.583c-0.663-0.618-1.993-0.606-1.389-2.256C367.733,154.402,368.82,154.472,369.635,153.931z"/>
		<path class="st180" d="M272.884,352.385c0.609-1.3,2.028-1.711,2.96-2.682c1.227-1.278,0.917-1.981-0.622-2.213
			c-0.997-0.15-1.22-0.507-1.52-1.455c-0.971-3.072-2.887-5.575-5.268-7.753c-1.458-1.333-3.285-2.887-3.898-4.35
			c-0.796-1.901-3.062-2.777-3.052-5.03c0.002-0.341-0.461-0.786-0.818-1.009c-0.948-0.592-0.998-1.199-0.25-1.981
			c0.346-0.361,0.866-0.725,0.484-1.332c-0.38-0.605-1.024-0.658-1.599-0.435c-0.871,0.337-1.749,0.361-2.65,0.318
			c4.544-2.431,9.432-4.085,14.094-6.253c0.405-0.188,0.875-0.261,1.245-0.497c3.085-1.969,6.069-1.708,9.049,0.269
			c4.486,2.977,9.45,5.052,14.299,7.312c2.414,1.125,3.754,3.56,6.349,4.427c2.603,0.87,5.066,2.157,7.602,3.235
			c0.669,0.284,1.665,0.274,1.719,1.171c0.052,0.851-0.905,1.179-1.52,1.471c-4.574,2.178-9.163,4.329-13.793,6.384
			c-4.299,1.909-8.927,3.245-12.902,5.667C279.6,349.599,276.442,351.332,272.884,352.385z"/>
		<path class="st181" d="M319.46,296.083c0.338,6.689,0.608,13.038-0.109,19.4c-0.145,1.284,0.173,2.624,0.313,3.934
			c0.142,1.329-0.204,2.366-1.534,2.914c-2.553,1.053-5.103,2.115-7.652,3.178c-1.268,0.529-2.332,0.228-3.596-0.351
			c-4.821-2.204-9.763-4.142-14.616-6.279c-3.189-1.405-6.306-2.974-9.445-4.489c-0.448-0.216-1.149-0.33-1.111-0.954
			c0.036-0.59,0.718-0.707,1.183-0.909c3.218-1.404,6.541-2.603,9.648-4.218c5.473-2.844,10.963-5.619,16.709-7.884
			C312.577,299.112,315.838,297.63,319.46,296.083z"/>
		<path class="st182" d="M376.371,298.846c1.913,0.38,3.515,1.51,5.295,2.215c0.781,0.309,1.542,0.512,2.371,0.495
			c-0.631,0.948-0.459,2.02-0.459,3.059c-0.004,17.099,0.002,34.199-0.016,51.298c-0.001,0.921,0.385,2.053-0.747,2.622
			c-0.997,0.501-1.677-0.337-2.426-0.777c-1.714-1.008-3.549-1.567-5.75-1.488c0.639-1.462,0.977-2.729-1.27-2.617
			c-0.634,0.032-1.296-0.64-0.728-1.218c2.405-2.452-0.749-3.137-1.392-4.595c-0.155-0.351-0.844-0.308-0.99-1.007
			c0.809-0.376,1.624-0.849,2.247-1.585c0.368-0.435,0.709-0.798,0.135-1.313c-0.449-0.403-0.834-0.603-1.283,0.032
			c-0.401,0.568-1.02,1.204-1.56,0.322c-0.424-0.692,0.278-1.372,0.883-1.572c1.666-0.551,2.159-2.043,2.216-3.34
			c0.089-2.028,2.348-3.394,1.463-5.7c-0.179-0.465,0.761-1.359,1.221-2.115c-0.262-0.744-1.12,0.024-1.536-0.649
			c0.206-0.931,1.313-1.143,1.891-1.829c0.992-1.179,1.397-2.635,1.338-4.179c-0.119-3.073,0.163-6.116,0.774-9.118
			c0.18-0.886-0.133-1.683-0.34-2.393c-0.843-2.882,0.654-5.857-0.535-8.73c-0.362-0.875,0.162-2.022,1.149-2.448
			c2.061-0.889,0.785-1.593-0.172-1.893C377.256,300.042,376.697,299.664,376.371,298.846z"/>
		<path class="st183" d="M320.137,273.236c3.535-1.479,7.066-2.965,10.605-4.435c2.375-0.986,4.814-1.837,7.128-2.949
			c2.691-1.294,5.219-2.929,7.921-4.198c4.078-1.915,8.246-3.637,12.369-5.458c0.249-0.11,0.433-0.368,0.647-0.557
			c0.66,0.541,1.668,0.205,2.268,0.899c-1.52-0.221-2.736,0.683-4.045,1.164c-2.795,1.026-5.227,2.832-8.071,3.805
			c-2.364,0.809-3.274,3.418-5.338,4.658c-0.307,0.184-0.589,0.812-0.238,0.921c1.054,0.326,0.658,2.264,2.124,1.897
			c0.789-0.197,1.044-0.004,1.273,0.714c0.567,1.777,1.978,2.315,3.681,2.247c0.547-0.022,1.147-0.169,1.284,0.496
			c0.118,0.575-0.463,0.691-0.901,0.73c-0.941,0.085-1.44,0.711-1.274,1.496c0.202,0.954,0.999,0.479,1.657,0.394
			c2.405-0.31,2.969,1.193,3.458,3.223c0.798,3.319-1.266,4.645-2.958,6.485c-0.7,0.761-0.579,1.823-0.542,2.801
			c-2.432-0.198-4.2-1.834-6.105-3.033c-2.905-1.829-6.108-2.875-9.229-4.154c-3.405-1.396-6.828-2.747-10.229-4.154
			c-1.643-0.679-3.246-1.454-4.88-2.153C320.337,273.903,320.183,273.628,320.137,273.236z"/>
		<path class="st175" d="M256.149,259.708c-0.648-0.088-1.335-0.426-1.17-1.074c0.653-2.567,0.147-5.17,0.397-7.74
			c0.041-0.418,0.406-0.583,0.784-0.674C256.156,253.383,256.153,256.546,256.149,259.708z"/>
		<path class="st175" d="M256.15,263.307c-1.557-0.915-0.929-1.82,0.012-2.724C256.158,261.491,256.154,262.399,256.15,263.307z"/>
		<path class="st184" d="M192.416,296.013c5.68,2.435,11.361,4.87,17.041,7.305c-0.095,0.441-0.26,0.957-0.041,1.321
			c1.498,2.495,0.557,5.079,0.317,7.624c-0.181,1.927-0.447,3.817-0.241,5.784c0.439,4.199-0.474,5.94-4.301,7.567
			c-3.373,1.434-6.072,4.064-9.634,5.128c-0.919,0.275-1.798,0.706-2.755,0.885c-0.14,0.046-0.281,0.091-0.422,0.133
			C192.392,319.844,192.404,307.929,192.416,296.013z"/>
		<path class="st185" d="M192.803,331.627c0.423-0.995,1.475-0.982,2.26-1.276c4.196-1.568,7.674-4.462,11.777-6.226
			c2.515-1.081,2.43-3.708,2.066-5.883c-0.581-3.478,0.646-6.752,0.709-10.143c0.017-0.909,0.293-1.58-0.54-2.365
			c-0.767-0.722-1.147-1.837,0.384-2.417c7.131,3.924,14.609,7.108,22.068,10.334c-2.719,0.603-4.878,2.395-7.372,3.475
			c-5.254,2.277-10.326,4.926-15.449,7.472c-2.075,1.031-4.05,2.177-5.873,3.624c-1.651,1.311-3.574,2.123-5.648,2.581
			c-0.933,0.206-1.959,0.386-2.116,1.636C194.312,332.168,193.557,331.897,192.803,331.627z"/>
		<path class="st186" d="M213.026,82.843c5.605,2.395,11.269,4.663,16.796,7.224c4.938,2.288,9.938,4.46,14.716,7.096
			c1.468,0.81,3.205,1.122,4.492,2.308c-0.491,0.854-1.534,1.724,0.3,2.352c0.951,0.326,0.688,1.315,0.52,1.962
			c-0.51,1.969-0.615,3.929-0.393,5.941c0.124,1.118,0.119,2.245-0.88,3.102c-0.246,0.211-0.5,0.86-0.397,0.967
			c1.706,1.766,0.261,3.594-0.169,5.143c-0.673,2.426-1.163,5.044-1.298,7.345c-0.123,2.102-1.187,2.846-2.033,4.143
			c-0.447,0.685,0.236,1.269,0.784,1.66c1.144,0.815,0.783,1.273-0.324,1.585c-1.543,0.435-2.405,0.677-0.984,2.64
			c0.871,1.203,1.336,3.337,0.683,5.126c-0.369,1.012-0.165,1.679,0.568,2.387c1.177,1.138,2.821,2.111,1.673,4.242
			c-0.136,0.253,0.163,1.404,0.639,1.215c1.663-0.66,2.079,1.108,3.129,1.388c4.313,1.148,5.346,4.308,5.373,8.192
			c0.004,0.599,0.015,1.199,0.023,1.798c-3.053,0.285-5.589,1.961-8.284,3.162c-9.35,4.165-18.419,8.977-28.187,12.173
			c-1.745,0.425-3.251,0.201-4.196-1.546c-0.294-0.543-0.753-0.923-1.247-1.272c-0.555-0.391-1.121-0.809-1.447-1.397
			c-1.44-2.597-2.285-5.468-3.663-8.097c-0.1-0.191-0.108-0.455-0.056-0.665c1.248-5.015-1.263-10.014-0.062-15.027
			c-1.194-2.579,0.41-5.096,0.178-7.662c-0.074-0.819,0.269-1.633,0.708-2.339c0.678-1.088,1.616-2.068-0.178-3.105
			c-0.559-0.323-0.267-1.319-0.036-1.914c1.114-2.871,0.681-5.99,1.741-8.968c0.76-2.135,0.436-4.928-0.076-7.414
			c-0.396-1.922,0.706-3.71,0.553-5.663c-0.219-2.782,0.64-5.65-0.736-8.338c-0.396-0.774-0.248-1.585-0.169-2.417
			c0.156-1.646,0.225-3.3-1.039-4.661c-0.7-0.754-0.603-1.655-0.259-2.536c0.876-2.239,0.906-4.474,0.372-6.831
			C209.589,83.606,210.545,82.641,213.026,82.843z"/>
		<path class="st164" d="M213.026,82.843c-2.327,0.423-2.867,1.066-2.265,3.269c0.703,2.574,0.547,5.01-0.592,7.398
			c-0.283,0.593-0.402,1.184,0.173,1.624c2.079,1.591,1.556,3.675,1.143,5.747c-0.029,0.143-0.164,0.342-0.111,0.413
			c1.709,2.323,1.012,5.063,1.4,7.617c0.119,0.782,0.304,1.424-0.217,2.08c-0.42,0.528,0.032,1.262-0.061,1.533
			c-0.746,2.182-0.022,4.379-0.261,6.55c-0.136,1.232-0.013,2.506,0.115,3.748c0.053,0.51,0.418,1.12,0.088,1.51
			c-2.318,2.733-0.815,6.326-2.148,9.273c-0.31,0.686-0.613,1.267,0.769,1.412c1.262,0.132,0.743,1.625,0.339,2.093
			c-1.237,1.433-2.071,2.772-1.27,4.76c0.185,0.458-0.333,1.263-0.651,1.84c-0.258,0.469-0.627,0.919-0.459,1.446
			c1.216,3.82-0.416,7.895,0.67,11.516c0.739,2.463-0.466,4.722,0.183,6.615c1.04,3.035,1.941,6.316,4.104,8.868
			c0.816,0.963,2.062,1.401,2.622,2.824c0.257,0.654,2.071,0.695,3.178,1.014c-2.904,1.842-5.668,3.972-9.351,4.065
			c-1.513,0.038-2.496-0.282-2.381-2.077c0.031-0.486-0.103-1.15-0.424-1.465c-2.34-2.3-2.847-5.483-4.073-8.307
			c-1.605-3.699-1.5-7.608-1.3-11.557c0.141-2.78-0.166-5.783,0.35-8.324c0.701-3.455-0.853-6.726,0.284-10.173
			c0.598-1.814,0.28-4.206,0.241-6.342c-0.083-4.48-0.283-8.96,0.341-13.434c0.235-1.688,0.326-3.485,0.007-5.141
			c-0.411-2.137-0.99-4.16,0.033-6.283c0.286-0.593,0.069-1.326-0.411-1.888c-0.484-0.567-0.611-1.319-0.326-1.907
			c1.657-3.416-0.449-6.909,0.238-10.272c0.822-4.025,0.275-8.086,0.759-12.099c0.077-0.639,0.478-1.267,1.176-1.553
			C207.904,79.829,210.363,81.565,213.026,82.843z"/>
		<path class="st164" d="M358.736,180.837c-0.174,0.551-0.618,0.582-1.07,0.474c-0.162-0.039-0.418-0.307-0.392-0.41
			c0.125-0.494,0.577-0.641,1.013-0.682C358.672,180.183,358.732,180.512,358.736,180.837z"/>
		<path class="st175" d="M201.051,232.544c0.215,0.609-0.78,0.809-0.539,1.319c1.002,2.113-0.39,2.201-2.108,2.211
			C199.571,235.011,197.428,231.87,201.051,232.544z"/>
		<path class="st175" d="M246.968,267.746c0.695-0.395-0.668-1.882,0.944-1.715c1.048,0.109,1.233,1.143,1.681,1.873
			c-0.608,0.362-1.18,0.915-1.832,1.035C246.977,269.085,246.858,268.416,246.968,267.746z"/>
		<path class="st175" d="M219.164,243.89c-0.047,0.632-0.484,0.867-1.029,0.909c-0.616,0.047-1.242-0.075-1.325-0.812
			c-0.073-0.644,0.46-0.869,1-0.915C218.426,243.019,218.976,243.163,219.164,243.89z"/>
		<path class="st175" d="M253.065,264.01c-0.016,0.462-0.069,0.959-0.653,0.968c-0.588,0.009-0.674-0.478-0.653-0.944
			c0.022-0.475,0.231-0.952,0.716-0.987C253.109,263.002,253.034,263.581,253.065,264.01z"/>
		<path class="st175" d="M208.432,241.274c0.609-0.009,0.957,0.254,0.949,0.898c-0.005,0.405-0.167,0.747-0.586,0.767
			c-0.64,0.03-0.828-0.507-0.966-0.991C207.694,241.473,208.044,241.333,208.432,241.274z"/>
	</g>
</g>
<g id="NFTBeez_00000167391764337955545130000012586990163054116534_">
</g>
<g id="KISS">
</g>
<g id="rarible">
</g>
<g id="zapper">
</g>
<g id="univ3">
</g>
</svg>
