<?xml version="1.0" encoding="utf-8"?>
<!-- Generator: Adobe Illustrator 26.0.1, SVG Export Plug-In . SVG Version: 6.00 Build 0)  -->
<svg version="1.1" xmlns="http://www.w3.org/2000/svg" xmlns:xlink="http://www.w3.org/1999/xlink" x="0px" y="0px"
	 viewBox="0 0 512 512" style="enable-background:new 0 0 512 512;" xml:space="preserve">
<style type="text/css">
	.st0{fill:url(#bg_00000137829912645337292920000016988294909029147275_);}
	.st1{fill:#FFFFFF;}
	.st2{fill-rule:evenodd;clip-rule:evenodd;fill:#FFFFFF;}
	.st3{opacity:0.1;}
	.st4{fill:url(#bg_00000017481660468131027710000013733483968199917959_);}
	.st5{fill:url(#bg_00000126296160292993110850000003703484087968384416_);}
	.st6{fill:#FCFCFC;}
	.st7{fill:url(#bg_00000124141185522226359990000013950187247490056882_);}
	.st8{fill:url(#bg_00000140692634624231261890000000012318859132502717_);}
	.st9{fill-rule:evenodd;clip-rule:evenodd;fill:#FCCDD3;}
	.st10{filter:url(#Adobe_OpacityMaskFilter);}
	.st11{mask:url(#mask-2_00000079477019141398897970000007225647416667991979_);fill-rule:evenodd;clip-rule:evenodd;fill:#6534FF;}
	.st12{fill-rule:evenodd;clip-rule:evenodd;fill:#FEFEFE;}
	.st13{fill-rule:evenodd;clip-rule:evenodd;fill:#6534FF;}
	.st14{fill:#8526D1;}
	.st15{fill:#D89738;}
	.st16{fill:#5D1B8F;}
	.st17{fill:#F2A738;}
	.st18{fill-rule:evenodd;clip-rule:evenodd;fill:#F9F9F9;}
	.st19{fill-rule:evenodd;clip-rule:evenodd;fill:#040404;}
	.st20{fill:#FEFEFE;}
	.st21{fill:#F0E20A;}
	.st22{fill:#EFE20A;}
	.st23{fill:#A1DE44;}
	.st24{fill:#FCA433;}
	.st25{fill:#FCAC68;}
	.st26{fill:#F74D7B;}
	.st27{fill:#9FDD46;}
	.st28{fill:#67D1BB;}
	.st29{fill:#FAAC8C;}
	.st30{fill:#FDE723;}
	.st31{fill:#FBAB4C;}
	.st32{fill:#FEF532;}
	.st33{fill:#EDE622;}
	.st34{fill:#5BD0DD;}
	.st35{fill:#B96CAE;}
	.st36{fill:#FBB32B;}
	.st37{fill:#FA9262;}
	.st38{fill:#D5709D;}
	.st39{fill:#9763B8;}
	.st40{fill:#FBDD0F;}
	.st41{fill:#D0EC26;}
	.st42{fill:#FCA036;}
	.st43{fill:#FACF2B;}
	.st44{fill:#D4E52B;}
	.st45{fill:#FCD713;}
	.st46{fill:#FDB83D;}
	.st47{fill:#E9E227;}
	.st48{fill:#CB7896;}
	.st49{fill:#FCD415;}
	.st50{fill:#C1E72E;}
	.st51{fill:#B6DF3A;}
	.st52{fill:#C8DE37;}
	.st53{fill:#C277B4;}
	.st54{fill:#ACE339;}
	.st55{fill:#E79762;}
	.st56{fill:#E77982;}
	.st57{fill:#FCFA68;}
	.st58{fill:#F6C82A;}
	.st59{fill:#B46CB1;}
	.st60{fill:#E1CE32;}
	.st61{fill:#F2C02E;}
	.st62{fill:#F8DB26;}
	.st63{fill:#C97B9F;}
	.st64{fill:#E6F40D;}
	.st65{fill:#D8DC35;}
	.st66{fill:#FDB73F;}
	.st67{fill:#FB7759;}
	.st68{fill:#EDDA2D;}
	.st69{fill:#DA8878;}
	.st70{fill:#EABC6F;}
	.st71{fill:#FDFDC8;}
	.st72{fill:#E8B380;}
	.st73{fill:#D8DB09;}
	.st74{fill:#E4D52E;}
	.st75{fill:#FCC91B;}
	.st76{fill:#FEFB8B;}
	.st77{fill:#F9D515;}
	.st78{fill:#DEE528;}
	.st79{fill:#FBC82E;}
	.st80{fill:#C25CA6;}
	.st81{fill:#FBC331;}
	.st82{fill:#FBB53E;}
	.st83{fill:#FC8E47;}
	.st84{fill:#9D63B7;}
	.st85{fill:#86C591;}
	.st86{fill:#78DEA5;}
	.st87{fill:#FBFCA1;}
	.st88{fill:#D87F7F;}
	.st89{fill:#FDF747;}
	.st90{fill:#E2CD31;}
	.st91{fill:#91E38C;}
	.st92{fill:#C5DD36;}
	.st93{fill:#FBB342;}
	.st94{fill:#D2BC7F;}
	.st95{fill:#65D6CC;}
	.st96{fill:#D5D809;}
	.st97{fill:#AEC383;}
	.st98{fill:#FBBB23;}
	.st99{fill:#F9DA24;}
	.st100{fill:#F9AC4C;}
	.st101{fill:#FBBF59;}
	.st102{fill:#E68B69;}
	.st103{fill:#F3A451;}
	.st104{fill:#FBF00E;}
	.st105{fill:#C9F5A2;}
	.st106{fill:#F9B229;}
	.st107{fill:#E9C745;}
	.st108{fill:#A2A2A2;}
	.st109{fill:#FDF10E;}
	.st110{fill:#F0FC0D;}
	.st111{fill:#010100;}
	.st112{fill:#FC8355;}
	.st113{fill:#FC8D48;}
	.st114{fill:#FCBB23;}
	.st115{fill:#FB9854;}
	.st116{fill:#FA6886;}
	.st117{fill:#FB6D6E;}
	.st118{fill:#E95790;}
	.st119{fill:#FB5D67;}
	.st120{fill:#6FCDA1;}
	.st121{fill:#79D278;}
	.st122{fill:#020101;}
	.st123{fill:#FAFD23;}
	.st124{fill:#E2FE38;}
	.st125{fill:#141304;}
	.st126{fill:#CB5DA2;}
	.st127{fill:#B063B1;}
	.st128{fill:#FC8D76;}
	.st129{fill:#E96F92;}
	.st130{fill:#FC8353;}
	.st131{fill:#FC8B4B;}
	.st132{fill:#FB7A86;}
	.st133{fill:#E3FD7C;}
	.st134{fill:#D8BF73;}
	.st135{fill:#DECA58;}
	.st136{fill:#B6EB2D;}
	.st137{fill:#C0D847;}
	.st138{fill:#A2E749;}
	.st139{fill:#BAF35A;}
	.st140{fill:#B6F180;}
	.st141{fill:#D8FB1A;}
	.st142{fill:#D6FA18;}
	.st143{fill:#FB736E;}
	.st144{fill:#96DE4B;}
	.st145{fill:#75CF83;}
	.st146{fill:#A2C87B;}
	.st147{fill:#8EDD54;}
	.st148{fill:#BDEF28;}
	.st149{fill:#B8EE29;}
	.st150{fill-rule:evenodd;clip-rule:evenodd;fill:#0097A7;}
	.st151{fill:#FEB800;}
	.st152{fill:#FBE000;}
	.st153{fill:#EF3A17;}
	.st154{fill:#0146FD;}
	.st155{fill:#17C50C;}
	.st156{fill:#FEFDFC;}
	.st157{fill:#2081E2;}
	.st158{fill-rule:evenodd;clip-rule:evenodd;fill:#E2E2E2;}
</style>
<g id="MIVA:SYMM">
</g>
<g id="MIVA-FRACTION">
</g>
<g id="FRACTION-MIVA">
</g>
<g id="MIVA-HNY">
</g>
<g id="MIVA-WXDAI">
</g>
<g id="zeroalpha">
</g>
<g id="POAP">
</g>
<g id="pixeth">
</g>
<g id="xDaiTigers">
</g>
<g id="Fraction_Early">
</g>
<g id="CryptoStamp">
</g>
<g id="Epor.io">
</g>
<g id="nifty-ink">
</g>
<g id="Opensea">
</g>
<g id="Placeholder">
</g>
<g id="Foundation">
	<rect class="st1" width="512" height="512"/>
	<path d="M366.93988,302.95633c-14.69083,0.00018-29.38162,0.00043-44.07245-0.00064
		c-0.71072-0.00003-1.42502,0.03217-2.13156-0.02548c-2.46051-0.20071-4.28445-1.86053-4.65872-4.28955
		c-0.13129-0.85214-0.11942-1.7312-0.11954-2.59796c-0.00555-29.38351-0.00476-58.76703-0.00354-88.15054
		c0-0.63173-0.02255-1.26666,0.03024-1.89465c0.2428-2.8887,2.17441-4.78375,5.05722-4.96661
		c0.62952-0.03992,1.26334-0.01401,1.89517-0.01402c29.30264-0.00043,58.60529-0.0005,87.90793,0.00041
		c0.71072,0.00002,1.42505-0.03183,2.13156,0.02605c2.66287,0.21812,4.51883,2.00319,4.83591,4.67
		c0.0928,0.78072,0.07864,1.5766,0.07874,2.36554c0.00339,29.30453,0.00275,58.60907,0.00253,87.91364
		c0,0.31595-0.01569,0.63254-0.00043,0.94769c0.20468,4.23172-2.84674,6.09723-6.17023,6.06976
		C396.79599,302.88654,381.86761,302.95618,366.93988,302.95633z"/>
	<path d="M308.8472,252.179c-0.18042,30.1443-24.60507,54.25883-54.73047,54.03554
		c-29.78313-0.2207-53.83115-24.71716-53.6403-54.64044c0.19025-29.82938,24.62772-53.96828,54.48157-53.81592
		C284.77448,197.91035,309.02542,222.40051,308.8472,252.179z"/>
	<path d="M153.13173,302.60477c-17.76743,0.00006-35.53483,0.00031-53.30224-0.00092
		c-0.71055-0.00006-1.42634,0.0383-2.13067-0.03183c-2.04858-0.20401-3.02171-1.82184-2.23302-3.71814
		c0.2407-0.57877,0.60728-1.1058,0.92298-1.65262c17.79906-30.82959,35.59871-61.65883,53.39934-92.48749
		c0.35521-0.61516,0.67125-1.26175,1.0945-1.82707c1.21545-1.62355,3.14159-1.59618,4.35789,0.04868
		c0.32657,0.44164,0.56711,0.9473,0.84334,1.42577c17.8385,30.89824,35.67686,61.79654,53.5128,92.69626
		c0.39423,0.68301,0.84509,1.35007,1.12241,2.08038c0.60103,1.58295-0.25308,3.08264-1.92328,3.37418
		c-0.76929,0.13431-1.57361,0.08945-2.36205,0.0896C188.6664,302.60568,170.89906,302.60471,153.13173,302.60477z"/>
</g>
</svg>
