<?xml version="1.0" encoding="utf-8"?>
<svg version="1.1" id="Ebene_1" xmlns="http://www.w3.org/2000/svg" xmlns:xlink="http://www.w3.org/1999/xlink" x="0px" y="0px"
	 viewBox="0 0 512 512" style="enable-background:new 0 0 512 512;" xml:space="preserve">
<style type="text/css">
	.st0{fill:#FFFFFF;}
</style>
<g id="Foundation">
	<rect class="st0" width="512" height="512"/>
	<path d="M366.9,303c-14.7,0-29.4,0-44.1,0c-0.7,0-1.4,0-2.1,0c-2.5-0.2-4.3-1.9-4.7-4.3c-0.1-0.9-0.1-1.7-0.1-2.6
		c0-29.4,0-58.8,0-88.2c0-0.6,0-1.3,0-1.9c0.2-2.9,2.2-4.8,5.1-5c0.6,0,1.3,0,1.9,0c29.3,0,58.6,0,87.9,0c0.7,0,1.4,0,2.1,0
		c2.7,0.2,4.5,2,4.8,4.7c0.1,0.8,0.1,1.6,0.1,2.4c0,29.3,0,58.6,0,87.9c0,0.3,0,0.6,0,0.9c0.2,4.2-2.8,6.1-6.2,6.1
		C396.8,302.9,381.9,303,366.9,303z"/>
	<path d="M308.8,252.2c-0.2,30.1-24.6,54.3-54.7,54c-29.8-0.2-53.8-24.7-53.6-54.6c0.2-29.8,24.6-54,54.5-53.8
		C284.8,197.9,309,222.4,308.8,252.2z"/>
	<path d="M153.1,302.6c-17.8,0-35.5,0-53.3,0c-0.7,0-1.4,0-2.1,0c-2-0.2-3-1.8-2.2-3.7c0.2-0.6,0.6-1.1,0.9-1.7
		c17.8-30.8,35.6-61.7,53.4-92.5c0.4-0.6,0.7-1.3,1.1-1.8c1.2-1.6,3.1-1.6,4.4,0c0.3,0.4,0.6,0.9,0.8,1.4
		c17.8,30.9,35.7,61.8,53.5,92.7c0.4,0.7,0.8,1.4,1.1,2.1c0.6,1.6-0.3,3.1-1.9,3.4c-0.8,0.1-1.6,0.1-2.4,0.1
		C188.7,302.6,170.9,302.6,153.1,302.6z"/>
</g>
</svg>
