<?xml version="1.0" encoding="utf-8"?>
<svg version="1.1" id="Ebene_1" xmlns="http://www.w3.org/2000/svg" xmlns:xlink="http://www.w3.org/1999/xlink" x="0px" y="0px"
	 viewBox="0 0 512 512" style="enable-background:new 0 0 512 512;" xml:space="preserve">
<style type="text/css">
	.st0{fill:#FFFFFF;}
</style>
<g id="Fraction_Early">
	<rect width="512" height="512"/>
	<g>
		<path class="st0" d="M438.9,434.8c1.6,0,2.9,0.6,4.1,1.7c1.1,1.1,1.7,2.5,1.7,4.1v23c0,1.6-0.6,2.9-1.7,4.1
			c-1.1,1.1-2.5,1.7-4.1,1.7h-28.7c-1.6,0-2.9-0.6-4.1-1.7c-1.1-1.1-1.7-2.5-1.7-4.1v-23c0-1.6,0.6-2.9,1.7-4.1
			c1.1-1.1,2.5-1.7,4.1-1.7H438.9z M438.9,441.3h-28.7v21.3h28.7V441.3z"/>
		<path class="st0" d="M444.6,385.9v11.5l-34,15.6v3.3l4.1-2.5h29.9v6.6h-40.2v-11.6l34-15.5V390l-4.1,2.5h-29.9v-6.6H444.6z"/>
		<path class="st0" d="M444.6,342.5v28.7h-28.7l-5.7-5.7v5.7h-5.7v-28.7h5.7v22.1h16.4l-4.9-4.9v-17.2h5.7v22.1h11.5v-22.1H444.6z"
			/>
		<path class="st0" d="M438.9,279.7c1.6,0,2.9,0.6,4.1,1.7c1.1,1.1,1.7,2.5,1.7,4.1v23c0,1.6-0.6,2.9-1.7,4.1
			c-1.1,1.1-2.5,1.7-4.1,1.7h-28.7c-1.6,0-2.9-0.6-4.1-1.7c-1.1-1.1-1.7-2.5-1.7-4.1v-23c0-1.6,0.6-2.9,1.7-4.1
			c1.1-1.1,2.5-1.7,4.1-1.7H438.9z M438.9,286.3h-28.7v21.3h28.7V286.3z"/>
		<path class="st0" d="M433.2,236.6v22.1h11.5v6.6h-28.7l-5.7-5.7v5.7h-5.7v-28.7h5.7v22.1h22.1l-4.9-4.9v-17.2H433.2z"/>
		<path class="st0" d="M444.6,180.4v28.7h-5.7v-16.4h-27.5v0.8l13.1,13.1l-4.2,4.1l-15.9-15.9v-8.7h34.5v-5.7H444.6z"/>
		<path class="st0" d="M444.6,137.8v28.7H436l-16.2-22.1h-9.6v15.6h5.7v6.6h-5.7c-1.6,0-2.9-0.6-4.1-1.7c-1.1-1.1-1.7-2.5-1.7-4.1
			v-17.2c0-1.6,0.6-2.9,1.7-4.1c1.1-1.1,2.5-1.7,4.1-1.7h11.9l16,21.7h0.8v-21.7H444.6z"/>
		<path class="st0" d="M444.6,95.1v28.7h-5.7v-16.4h-27.5v0.8l13.1,13.1l-4.2,4.1l-15.9-15.9v-8.7h34.5v-5.7H444.6z"/>
		<path class="st0" d="M444.6,52.5v28.7H436L419.8,59h-9.6v15.6h5.7v6.6h-5.7c-1.6,0-2.9-0.6-4.1-1.7c-1.1-1.1-1.7-2.5-1.7-4.1V58.2
			c0-1.6,0.6-2.9,1.7-4.1c1.1-1.1,2.5-1.7,4.1-1.7h11.9l16,21.7h0.8V52.5H444.6z"/>
	</g>
	<g>
		<g id="Symbol_00000097467678650009441320000012985674678104448686_">
			<g id="Fractured_00000120519370026894142580000002645519631389623186_">
				<path id="t5_00000122687851786164069640000003348722547216520357_" class="st0" d="M333.8,288.3c1,0.2,1.9,0.3,3.1,0.6
					c-0.3,0.5-0.5,1-0.9,1.5c-0.9-0.6-1.7-1.2-2.4-1.8C333.6,288.5,333.7,288.4,333.8,288.3z"/>
				<path id="t4_00000013159023215537804410000009136502045649996473_" class="st0" d="M265,214.5c1.8,0.2,3.5,0.5,5.3,0.7
					c1.3,0.2,1.3,0.2,1.2,1.9c-2.2-0.8-4.3-1.5-6.5-2.3C265,214.8,265,214.6,265,214.5z"/>
				<path id="t3_00000024718534526117703910000001225329118107825824_" class="st0" d="M264.6,173.6c-1.6,0.6-2.9,1-4.3,1.5
					C261.9,173.1,263,172.7,264.6,173.6z"/>
				<path id="t2_00000135669759446392080290000000782669233822420925_" class="st0" d="M260,158.7c0.3,1.8-1.9,3.8-4.4,4.1
					C257.2,161.3,258.5,160,260,158.7z"/>
				<path id="t1_00000172413328086535158680000014481824691347490984_" class="st0" d="M241.4,134.8c-0.6,1-0.9,1.7-1.2,2.3
					c-0.1,0-0.3,0-0.4,0c0-0.7,0.1-1.5,0.2-2.2C240,134.8,240.7,134.8,241.4,134.8z"/>
				<path id="m5_00000093173767855608967780000008454500724464600741_" class="st0" d="M214.2,143.2c0-3,0-6,0-9c0.2,0,0.4,0,0.5,0
					c0,3,0,6,0,9C214.5,143.2,214.4,143.2,214.2,143.2z"/>
				<path id="m4_00000076566355679396440430000009257191231883002040_" class="st0" d="M246.7,277.4c-3.1-1.2-3.1-1.2-5.1-6.7
					C243.6,270.6,244.7,272,246.7,277.4z"/>
				<path id="m3_00000183936526507190833410000004780803739155160741_" class="st0" d="M326.9,227.3c-4,1.9-7.7,4.2-12.2,1.1
					C318.7,227.4,322.5,225,326.9,227.3z"/>
				<path id="m2_00000038398989060589202850000001776763732408972713_" class="st0" d="M306.6,134.3c0.8,1.4,1.5,2.7,2.3,4.1
					c-1.8,1.1-3.5,2.2-5.4,3.3c-0.8-1.2-1.5-2.4-2.3-3.6C302.5,137.3,304.5,135.8,306.6,134.3z"/>
				<path id="m1_00000050640855870327776620000002317555092335124400_" class="st0" d="M264.3,98.2c1.2,1.3,2.2,2.4,3.3,3.6
					c-2,0.4-3.7,0.8-5.7,1.2C262.8,101.3,263.5,99.9,264.3,98.2z"/>
				<path id="j7_00000164475078083761549210000005114039339775278232_" class="st0" d="M234.1,275.2c-0.3-1.4-0.6-2.6-0.9-3.7
					c0.9-0.3,1.7-0.6,2.7-1c1.4,3.2,2.8,6.4,4.3,9.7c1.8-1,2.5,0,3.2,1.5c0.7,1.6,1.6,3.2,2.5,4.9c-0.8,0.4-1.5,0.8-2.3,1.2
					c0.8,1.9,1.6,3.8,2.5,5.9c-2.7-0.7-4.8-1.7-5.1-4.8c-0.8,0.3-1.3,0.4-1.9,0.7c0.2,0.7,0.4,1.3,0.7,2.3c-1.5-0.7-2.7-1.3-4.3-2
					c1.1-0.7,1.8-1,2.5-1.4c-0.6-2.2-1.2-4.4-1.9-6.7c-0.7,0.1-1.2,0.3-2,0.4c-0.5-2.5-1-4.9-1.6-7.5
					C233,274.9,233.5,275,234.1,275.2z"/>
				<path id="j6_00000018945031961592934650000002428645038141886618_" class="st0" d="M261.7,294.2c-1.7-0.9-3.5-1.8-5.2-2.7
					c-0.2-0.1-0.4-0.3-0.6-0.3c-4.2-0.9-5.1-4.5-6.4-8c1.7-0.7,3.2-1.3,5-2.1c2.6,4.2,5.1,8.3,7.6,12.5
					C262,293.9,261.8,294,261.7,294.2z"/>
				<path id="j5_00000014628237718803056160000003084556837386752696_" class="st0" d="M334.5,294.1c-5.4-2.2-11-4.1-16.2-6.6
					c-2.8-1.4-5.1-3.8-7.7-5.9c-1.6-1.3-3.2-2.6-5-4.1c1.6-0.8,3-1.7,4.4-2.3c0.4-0.2,1.3,0,1.7,0.4c7.2,5.6,14.3,11.3,21.5,17
					c0.5,0.4,1,0.8,1.5,1.2C334.6,293.9,334.5,294,334.5,294.1z"/>
				<path id="j4_00000010278891489070857850000013471258031189328056_" class="st0" d="M270.9,155.3c-3,2.1-5.9,4.2-8.9,6.3
					c-0.3,0.2-0.6,0.4-1.2,0.3c0.2-0.4,0.4-0.8,0.7-1c2.4-2,4.8-4,7.2-5.9c0.5-0.4,1.3-0.3,2-0.4C270.8,154.8,270.8,155,270.9,155.3
					z"/>
				<path id="j3_00000031898963202416686100000005533968547300446108_" class="st0" d="M244.3,156.9c1.4-2.7,2.9-5.4,4.3-8.1
					c0.7-1.4,1.5-2.6,1.2-4.3c-0.1-0.7,0.7-1.6,1.2-2.9c0.2,1.4,0.3,2.3,0.5,3.6c0.6-1,1-1.7,1.5-2.3c0.4-0.4,1-0.6,1.4-0.9
					c0.1,0.2,0.2,0.3,0.4,0.5c-0.5,0.8-1.1,1.6-1.6,2.5c1.9,0.7,1.8-3.1,4.1-1.6c-0.3,0.5-0.6,0.9-1.1,1.6c1.4-0.4,2.5-0.7,3.6-1
					c0.1,0.2,0.2,0.4,0.3,0.6c-5.2,4.2-10.4,8.3-15.6,12.5C244.4,157,244.4,157,244.3,156.9z"/>
				<path id="j2_00000044897461824295735120000012440531110738013115_" class="st0" d="M260.8,122.4c-2,2.9-4.1,5.8-6.2,8.9
					c0.8,0.1,1.4,0.1,1.9,0.2c-0.9,2.5-8.4,10.9-9.8,10.8c0.6-0.9,1.1-1.8,1.6-2.7c-0.2-0.1-0.3-0.3-0.5-0.4c-1,1.3-2,2.5-3,3.8
					c-0.2-0.1-0.4-0.3-0.6-0.4c0.6-1.2,1.2-2.4,1.7-3.5c-0.1,0-0.2,0-0.4-0.1c0-0.8-0.1-1.6,0.2-2.3c0.4-1.1,1-2.2,1.4-3.3
					c0.3-0.9,0.8-1.5,1.9-1.5c0.4,0,0.9-0.5,1.1-0.9c0.7-1.3,1.5-2.6,2.1-4c1.6-3.8,4.9-4.3,8.2-4.9
					C260.6,122.1,260.7,122.2,260.8,122.4z"/>
				<path id="j1_00000171683772651371232810000016570429528911132063_" class="st0" d="M225.4,119.8c-0.3,1.4-0.5,2.7-0.7,4
					c0.5,0.1,0.9,0.2,1.5,0.3c-0.3,1.1-0.6,2.2-0.9,3.3c-0.1,0.5,0,1.1,0.1,1.7c0.4-0.4,0.8-0.7,1.1-1.1c0.1,0,0.3,0,0.4,0
					c-0.4,2.5-0.5,5.1-1.4,7.4c-0.9,2.6-2.5,5-4,8c-0.6-0.8-1.3-1.3-1.4-1.9c-0.2-5.6-0.2-11.2-0.5-16.8c-0.1-2.2,0.5-3.3,2.6-3.8
					C223.2,120.7,224.1,120.2,225.4,119.8z"/>
				<path id="f10_00000160909462701506681370000013902764646489957810_" class="st0" d="M237.3,346.3
					C237.3,346.3,237.3,346.3,237.3,346.3c-0.2-0.3-0.3-0.7-0.3-1c0.1-2.1,0.3-4.1,0.5-6.3c0.7,0.2,1.6,0.4,2.9,0.7
					c-0.5-1.9-1-3.6-1.5-5.3c-0.2-0.7-0.4-1.4-0.6-2.1c-0.4-1.4-0.5-3.2-1.4-3.9c-0.8-0.7-2.6-0.2-4-0.1c-1.1,0.1-1.7-0.2-1.8-1.4
					c-0.1-0.9-0.4-1.9-0.6-2.9c1.1,0,2.2,0,3.4,0c0-1.6-0.3-2.7-1.9-3.4c-3.4-1.5-3.7-3.6-1.8-6.7c1.2-2,3.1-2.6,4.9-3.5
					c0,0,0-0.1,0.1-0.1l0,0c0,0,0,0,0,0c0,0,0,0,0,0c-0.5-1.8-0.1-3.4,0.9-4.7c0,0,0,0,0,0c0.1-0.1,0.2-0.2,0.2-0.3c0,0,0,0,0.1-0.1
					c0.1-0.1,0.1-0.2,0.2-0.3c0-0.1,0.1-0.1,0.1-0.2c0.1-0.1,0.1-0.1,0.2-0.2c0.1-0.1,0.2-0.2,0.3-0.3c0,0,0,0,0,0.1
					c0.1,0.1,0.2,0.2,0.2,0.3c0,0-0.1-0.1-0.1-0.1l2.4-4.6c0,0.1-0.1,0.1-0.1,0.2c-0.7-5.2-3.8-7.7-8.1-8.9
					c-1.3-0.4-1.9-1.2-2.2-2.5c-0.4-1.7-0.9-3.3-1.4-4.9c-0.1,0-0.2,0-0.3,0.1c0,0.8,0,1.6,0,2.8c-0.4-0.9-0.7-1.5-0.9-2.1
					c-0.7,0.1-1.2,0.2-1.9,0.4c-0.5-2.3-0.9-4.5-1.4-6.8c0.6,0.1,1.1,0.2,1.7,0.3c-0.4-1.3-0.7-2.4-1-3.4c-0.6,0-1-0.1-1.5-0.1
					c0-0.2,0-0.4,0-0.6c1.2,0.1,2.4,0.3,3.6,0.3c0.4,0,1.2-0.3,1.2-0.5c0-0.8,0-1.7-0.3-2.4c-0.8-1.7-1.7-3.4-2.6-5.1
					c-0.7-1.3-1.6-2.5-1.9-3.8c-0.6-3-2.7-4.9-4.1-7.3c-0.2,0.6-0.2,1.1-0.2,1.6c0.2,13.8,0.3,27.6,0.5,41.3
					c0.1,6.5-0.2,13.1,0.1,19.6c0.2,3.4-1.5,5.7-3.3,8.2c-0.4,0.6-0.8,1.4-0.9,2.1c-0.1,5.1,0,10.2,0,15.3c0,2.6,0,5.1,0,7.8
					c-1.5,0.3-2.8,0.5-4.1,0.8c0,1.3,0,2.5,0,3.5c2.5,0,4.9,0,7.4,0c0-1,0-1.8,0-2.6c1.3-0.2,2.5-0.3,3.8-0.5
					c0.1,1.6,0.3,2.9,0.4,4.5c2.5-0.3,4.9-0.5,7.4-0.8c-0.2-1.8-0.4-3.3-0.6-4.9c1.6-0.3,3.2-0.5,4.8-0.8c-0.1,1.2-0.2,2.1-0.4,3.1
					c0.1,0,0.2,0,0.3,0.1c0.9-2.2,1.7-4.4,2.6-6.7c0.2-0.1,0.3-0.1,0.5-0.2c0,0.1,0,0.1,0.1,0.2L237.3,346.3z M228.1,297.7
					c-0.1,0-0.3,0.1-0.4,0.1c-0.3-1.3-0.5-2.6-0.8-3.8c0.3-0.1,0.5-0.1,0.8-0.2c0.1,0.6,0.3,1.3,0.4,1.9c0.1,0.6,0.3,1.3,0.4,1.9
					C228.4,297.7,228.2,297.7,228.1,297.7z M235.4,342.3c-0.1,0-0.2,0-0.3,0.1c-0.1,0-0.2,0-0.3,0.1c-0.5-1.4-1-2.8-1.6-4.6
					c0.3,0.1,0.5,0.1,0.7,0.2c0.6,0.1,1.1,0.2,1.6,0.4c0.1,0,0.2,0.1,0.3,0.1C235.7,339.9,235.6,341.1,235.4,342.3z"/>
				<path id="f9_00000159441875474132521750000005696083620145772165_" class="st0" d="M272.1,341.4c0.4-1.9-0.5-3.5-1.3-5.1
					c-0.9-1.6-1.6-3.3-2.6-4.9c-0.4-0.7-1.1-1.4-1.8-1.8c-2.1-1.2-4.3-2.2-6.9-3.4c1-0.1,1.6-0.1,2.3-0.2c-1.6-3.8-3.2-7.4-5-11.4
					c-0.7,2-1.3,3.6-2.1,5.6c-1.2-2.8-2.5-5-3.2-7.4c-0.7-2.5-2.2-3.5-4.7-3.8c-0.7-0.1-1.7-0.4-2-0.9c-0.9-2.1-1.6-4.4-2.5-6.8
					c0.9,0.1,1.5,0.2,2.5,0.4c-0.9-1.8-1.7-3.4-2.6-5.1c-0.8,1.1-1.5,2-2.5,3.3l-2.4,4.6c0,0,0.1,0.1,0.1,0.1c0,0.1,0.1,0.1,0.1,0.2
					c0,0.1,0.1,0.1,0.1,0.2c0,0.1,0.1,0.1,0.1,0.2c0,0.1,0,0.1,0.1,0.2c0,0.1,0,0.2,0.1,0.2c0,0,0,0.1,0,0.1c0,0.1,0,0.2,0,0.3
					c0,0,0,0.1,0,0.1c0,0.1,0,0.2,0,0.3c0,0,0,0.1,0,0.1c0,0.1,0,0.2,0,0.3c0,0,0,0.1,0,0.1c0,0.1-0.1,0.2-0.1,0.3c0,0,0,0.1,0,0.1
					c0,0.1-0.1,0.2-0.1,0.3c0,0,0,0,0,0.1c0,0.1-0.1,0.2-0.2,0.3c0,0,0,0.1,0,0.1c-0.1,0.1-0.1,0.2-0.2,0.3c0,0,0,0.1-0.1,0.1
					c-0.1,0.1-0.1,0.2-0.2,0.3c0,0-0.1,0.1-0.1,0.1c-0.1,0.1-0.2,0.2-0.2,0.3c0,0-0.1,0.1-0.1,0.1c-0.1,0.1-0.2,0.2-0.2,0.2
					c-0.1,0-0.1,0.1-0.2,0.1c-0.1,0.1-0.2,0.1-0.2,0.2c-0.1,0.1-0.1,0.1-0.2,0.2c-0.1,0.1-0.1,0.1-0.2,0.2c-0.1,0.1-0.2,0.1-0.3,0.2
					c0,0,0,0,0,0.1v0c0,0-0.1,0-0.1,0.1c-0.6,1-1.1,2.1-1.7,3.1c-1.1,1.7-0.8,2.7,0.9,3.6c0.9,0.4,1.8,0.7,2.6,1.3
					c0.7,0.5,1.3,1.3,1.7,2c0.8,1.6,1.3,3.3,2.1,4.9c0.1,0.3,0.8,0.5,1.2,0.5c1.4,0,2.9-0.1,4.3-0.2c2.2,5.6,2.5,7.1-1.2,8.3
					c-0.1-0.5-0.2-1-0.4-1.5c-0.1,0-0.2-0.1-0.4-0.1c-0.6,1.7-1,3.6-1.9,5.2c-1.9,3.6-1.8,6.7,1.4,9.4c0.1,0.1,0.2,0.3,0.3,0.6
					c-1.6,0.3-3.1,0.5-4.6,0.7c-0.6,0.1-1.5-0.9-2-1.8l-0.2,0.7c0.7,2.1,1.4,4.1,2.2,6.4c11.6-1.7,22.9-5.1,33.4-10.4
					C272.4,342.4,272.1,341.9,272.1,341.4z M253.6,328.7c-0.1-0.3-0.2-0.6-0.3-0.9c-0.2-0.6-0.4-1.2-0.7-1.8c-0.1-0.3-0.3-0.7-0.4-1
					c1,0.2,1.8,0.5,2.7,0.7c0.4,0.1,0.9,0.2,1.3,0.3c0.4,0.1,0.9,0.2,1.3,0.3C256.1,327.1,254.9,327.8,253.6,328.7z"/>
				<path id="f8_00000023968935805559014150000005817442529944740747_" class="st0" d="M295.7,318.8c-3.3-4.1-6.6-8.2-10-12.2
					c-2.7-3.3-5.4-6.6-8.4-10.3c1.5,0.4,2.4,0.7,3.9,1.1c-2.6-3.2-4.9-6.1-7.3-9.1c1.7-0.2,3.1-0.4,4.8-0.5
					c-3.4-3.6-6.5-6.9-9.6-10.3c-0.6,0.6-1,1.1-1.5,1.6c-1.7-2.1-3.3-4-4.8-5.9c-0.6-0.8-1.2-1.4-2.4-0.9c-0.4,0.1-1.1-0.1-1.3-0.4
					c-0.7-0.8-1.2-1.7-2-2.8c1.1,0.2,1.8,0.4,2.9,0.6c-1.6-2.1-3.1-3.9-4.7-5.9c1.2-0.3,2.3-0.6,3.3-0.8c0.1-0.2,0.2-0.4,0.3-0.5
					c-0.8-0.5-1.5-0.9-2.3-1.4c0.6-0.5,0.9-0.8,1.2-1.1c-0.4-0.3-0.8-0.6-1-0.9c-1.5-1.9-4.2-2.4-5.2-5.2c-0.5-1.4-3-2.1-3.6-4
					c0-0.1-0.2-0.1-0.3-0.2c-2.2-1.1-4.3-2.2-7-3.6c0.3,0.7,0.4,0.9,0.5,1.1c2.4,4.7,4.8,9.3,7.1,14c0.2,0.5,0.3,1,0.3,1.5
					c0,1.9-0.1,3.9,2.6,4.4c0.1,0,0.3,0.2,0.4,0.4c1,1.8,1.9,3.6,3,5.7c-1.1-0.4-1.8-0.7-2.8-1.1c0.5,1.1,0.8,1.8,1.2,2.5
					c0.8-0.2,1.3-0.3,2.1-0.5c1,1.9,2,3.9,3,5.7c0.2,0.4,0.6,0.8,1,1c0.8,0.3,3.8,4.5,3.6,5.3c0,0.2-0.2,0.5-0.3,0.6
					c-1.7,1.5-1.1,3.1-0.1,4.7c0.7,1.2,1.1,2.7,2.9,2.7c2.6-0.1,4.2,1.2,5.2,3.5c0.1,0.3,0.5,0.6,0.5,0.9c0.1,0.8,0.3,1.6,0.2,2.3
					c-0.2,1-0.7,1.9-1.1,3.1c-1.1-1.9-2.4-3.5-3.1-5.2c-1.3-3.1-3.8-3.3-6.8-3.4c1.6,3,3,5.9,4.6,9c-2.6-0.1-4.4-0.5-5.3-2.9
					c-1.1-2.7-2.2-5.8-6.6-4.9c0.8-1.2,1.5-1.9,1.9-2.8c0.2-0.4,0.1-1.4-0.3-1.6c-1.3-0.8-2.7-1.3-4.5-2.2c2.2,5.1,4.3,9.7,6.1,14.3
					c1,2.7,2.5,4.2,5.4,4.5c2,0.2,2.6,1.5,1.9,3.5c-0.7,2.1-1.5,4.1-2.2,6.3c1.3,0.3,2.5,0.5,3.8,0.8c2.7,0.6,2.7,0.6,2.9,1.7
					c-1.8,0.1-3.6,0.3-5.6,0.4c0.5,1.4,1,2.6,1.4,3.9c1.4-0.9,2.6-1.7,3.9-2.3c0.6-0.3,1.6-0.3,2.2-0.1c2.1,0.9,4.2,2,6.3,3
					c2.1,1,3.7,3.8,3.6,6.1c-0.1,2.4-0.2,4.7-0.3,7.2c3.6-0.8,1-3.6,2.1-5.2c0.3,0.3,0.5,0.7,1,1.3c0.1-2.2,0.2-4,0.4-6.3
					c2.4,1.4,4.4,2.7,6.3,3.8c1.2-0.8,2.2,1.2,3.1,0.9c1.5-4,4.4-5.5,8.4-5.7C299.3,324.7,297.9,321.5,295.7,318.8z M270.4,304.8
					c1-0.8,1.9-1.5,2.9-2.3c0.9,1.5,1.8,2.9,2.6,4.3C274,306.3,271.7,307,270.4,304.8z"/>
				<path id="f7_00000163753744766456821420000006480477547926138810_" class="st0" d="M323.6,295.6c1.9,0,3.5,0,5.1,0
					c-1.5-1.5-3.2-2.4-4.6-3.8c-2.9-2.8-5.7-3.1-8.7-0.2c-0.2,0.2-0.5,0.4-0.8,0.4c-0.3,0.1-0.8,0.2-1,0c-2.1-1.7-4.2-3.4-6.2-5.1
					c0.1-0.1,0.1-0.2,0.2-0.3c0.8,0.3,1.5,0.6,2.7,1.1c-7.6-6.8-15.9-12-22.2-19.4c-0.7-0.8-1.7-1.4-2.6-2.2
					c2.4,0.4,4.5,1.1,6.7,1.7c0.3,0.1,0.7,0,1.6-0.1c2.2,1.8,4.9,4,7.6,6.1c0.5,0.4,1.2,1,1.8,1c2.2,0,4.3-0.3,7-0.4
					c-0.9-0.7-1.4-1.1-1.9-1.5c-3.8-2.7-7.5-5.4-11.3-7.9c-1.5-1-2.8-2-4.7-2.5c-2.6-0.7-4.9-2.8-7.5-4.4c1.3-0.4,2.3-0.8,3.7-1.2
					c-5-2.6-9.7-5-14.5-7.5c-0.1,0.4-0.1,0.7-0.2,0.9c-0.2,0.6-0.3,1.7-0.6,1.8c-0.8,0.1-1.7-0.1-2.5-0.3c-0.4-0.1-0.8-0.5-1.2-0.8
					c-2.3-1.6-2.3-1.6-4.8,0.3c0.6,0.6,1.2,1.3,1.8,2c-1.2,0.3-2.2,0.5-3.4,0.8c1.6,2,3,3.7,4.6,5.7c-1.1-0.3-1.8-0.4-2.6-0.6
					c1.4,1.5,1.4,4.8,4.7,3.5c0.1,0,0.2,0.1,0.3,0.1c1.4,1.7,2.8,3.4,4.3,5.1c-0.1,0.2-0.2,0.4-0.4,0.6c-0.9-0.1-1.8-0.2-2.8-0.4
					c1,1.4,2,2.8,3.2,4.4c0.2-1.1,0.3-1.7,0.4-2.6c0.9,0.5,1.8,0.7,2.2,1.3c0.9,1.3,2.2,1.8,3.6,2.2c1.1,0.3,2.3,0.5,3.2,1
					c0.7,0.4,1.2,1.3,1.7,2c0.4,0.6,0.4,1.6,0.8,2.1c2.3,2.6,4.7,5.1,7,7.6c-0.8,1-1.4,0.7-2.1-0.1c-2.8-3-5.6-6-8.6-9.2
					c-0.3,1.9-1.2,2.7-3.5,2.4c2.3,1.6,1.7,3.1,1,4.6c-0.1,0.3-0.2,0.6-0.3,0.8c-0.6,1.7-0.2,2.2,1.6,2.6c1.4,0.3,2.7,0.4,4.1,0.7
					c0.7,0.2,1.5,0.5,1.9,1.1c6.4,7.8,12.8,15.6,19.1,23.5c0.3,0.4,0.4,1.3,0.1,1.8c-0.8,1.6-1.7,3.1-2.6,4.7
					c-0.2,0.4-0.3,1.1-0.1,1.4c0.5,1,1.3,1.8,2,2.9c1-0.7,1.8-1.5,2.7-2c2.6-1.4,3.9-3.3,3-6.4c-0.1-0.4-0.2-1-0.1-1.4
					c0.1-0.5,0.3-1.3,0.6-1.4c0.5-0.1,1.3,0,1.7,0.4c0.5,0.4,0.7,1.1,1,1.7c2-2,3.2-3.8,5.7-3.2c-0.3-0.9-0.4-1.5-0.7-2.4
					c1.9,0.9,3,0.1,4-1.2c0.9-1.1,1.8-2.2,2.8-3.2c0.7-0.7,0.7-1.3,0.2-2.2C325.8,300.1,324.8,298,323.6,295.6z M320.8,299.6
					c-0.9-1.2-1.7-2.4-2.8-3.9c1.1,0,1.9,0,2.8,0c0.1,1.3,0.3,2.6,0.4,3.8C321,299.5,320.9,299.5,320.8,299.6z"/>
				<path id="f6_00000002350740776684578320000004657523588863480233_" class="st0" d="M334.1,237.8c-1-0.1-2.1-0.2-3.4-0.3
					c0.1,1.7,0.2,3.3,0.4,5c-8.6-2.4-16.5-6.6-25.3-8c0,0.2-0.1,0.3-0.1,0.5c2.7,0.8,5.4,1.6,8.6,2.5c-1.5,0.5-2.6,0.9-4.1,1.4
					c4,0.5,3.5,3.8,4.8,6.1c-1.7-0.5-3.1-0.9-4.4-1.3c-0.1,0.2-0.1,0.5-0.2,0.7c3.5,1.2,6.9,2.5,10.4,3.7c6.5,2.3,13.1,4.6,19.6,7
					c0.8,0.3,1.8,0.4,1.6,1.7c0,0.2,0.3,0.6,0.6,0.8c1.2,0.7,2.3,1.3,3.9,2.2c-1.3-3.6-2.5-6.9-3.8-10.5c0.6,0.5,1,0.7,1.3,1
					c3,2.9,6,5.7,8.9,8.6c0.4,0.4,0.8,1.3,0.6,1.7c-2.3,6.7-5.4,12.9-9.2,19.2c-3.4-2.1-6.8-4.1-10.2-6.1c-0.1,0.1-0.3,0.3-0.4,0.4
					c2.4,3.4,4.9,6.8,7.4,10.3c-5.1,0.1-7.7-4.1-11.7-5.9c0,2.6,0,5.1,0,8c-1.3-1.1-2.4-1.9-3.4-2.7c0.4-2.3,2.9-3.7,2.2-6.5
					c-2,1.2-3.9,2.3-6,3.6c-0.4-0.7-0.8-1.3-1-1.9c-1-2.6-2-5.2-2.9-7.9c-0.5-1.3-1.3-2-2.7-1.6c-1.8,0.4-3.8-0.4-5.5,0.9
					c-0.1,0.1-0.7-0.1-0.9-0.3c-1.4-1.1-2.7-2.2-4.3-3.5c1-0.2,1.8-0.3,2.8-0.4c-4.1-2.9-8-5.7-12-8.5c0.8-2.3,1.6-4.5,2.5-6.9
					c5.1,2.6,10,5.2,15.4,8c-0.5-1.5-0.9-2.6-1.4-4c4.9,2.6,9.5,4.9,14.2,7.3c0.6-1.4,0.3-2.2-0.8-2.7c-3.3-1.6-6.5-3.4-9.7-5
					c-1.1-0.6-2-1.2-2.3-2.5c-0.2-1.2-1.1-1.8-2.2-2.3c-1.9-0.9-3.6-2-5.5-3c-0.5-0.3-1.1-0.5-1.7-0.8c-0.5,1.1-0.9,2-1.4,3.1
					c-2.9-1.8-5.7-3.5-8.8-5.3c1.2-0.4,2.1-0.8,3.5-1.2c-4.7-2.4-9.1-4.6-13.7-6.9c0,0.8-0.1,1.4-0.1,2c-1.5,0.7-2.8,0.5-4.1-0.5
					c-1-0.8-2-2.3-3.7-1.2c-0.2,0.1-0.7-0.3-1-0.5c-1.8-1.4-3.6-2.8-5.3-4.3c-0.6-0.5-0.9-1.4-1.4-2.1c-0.6-0.7-1.2-1.3-1.9-2
					c-0.5-0.4-1-0.8-1.5-1.1c-0.9-0.5-1.8-1-2.6-1.7c1.2,0.4,2.4,0.8,3.7,1.2c0.2-0.4,0.3-0.7,0.6-1.2c6.3,1.8,12.5,3.5,18.8,5.3
					c1.3,0.4,2.5,0.4,3.7-0.3c0.6-0.4,1.6-0.5,2.3-0.3c6.2,1.2,12.4,2.5,18.7,3.8c0.2-0.4,0.4-0.8,0.6-1.3
					c7.9,2.2,15.7,4.4,23.6,6.5C334.1,237.7,334.1,237.7,334.1,237.8z"/>
				<path id="f12_00000005960876961359376080000008662808205892094637_" class="st0" d="M362.9,210c1,0.1,2.2-1.3,3.3-1.9
					c0,0,0-0.1,0-0.3c-0.6-0.1-1.2-0.3-1.9-0.4c0.1-1.7,0.2-3.4,0.3-5.2l-1.1,0c0,0,0,0,0,0c-0.6,0.1-1.2,0.3-1.7,0.3
					c-3.2,0-6.3,0-9.8,0c0.5,1,1,1.9,1.4,2.8c-2.7,1.2-5.2,2.3-8.3,2.2c-5-0.2-10-0.1-15.2-0.1c-0.2-1.6-0.4-3-0.6-4.8
					c-2.9,0.2-5.7,0.3-8.6,0.5c-0.7,0-1.4,0.2-2.1,0.2c-2.7-0.1-5.1,0.2-5.5,3.6c0,0.2-0.4,0.3-1,0.8l-0.7,1.2
					c0.3,0.1,0.6,0.3,0.9,0.4c-0.9,3-3,5.6-0.8,8.8c-0.9,0-1.2-0.1-1.4-0.1c0.9,2,1.8,4,2.7,6.2c-2.8-0.3-5.8-2.3-7,2.1
					c2.7,0.7,5.3,1.5,8.1,2.3c-0.2-0.8-0.3-1.4-0.4-1.7c1.2-0.1,2.4,0,3.4-0.4c3.3-1.4,6.6-1.4,9.9-0.1c0.3,0.1,0.6,0.2,0.9,0.3
					c4.3,1.2,4.2,1.2,4.8,5.6c0.1,0.5,0.5,1.3,0.9,1.5c3.6,1.2,7.2,2.2,10.8,3.3c0.5,0.2,1.2,0.4,1.4,0.8c0.5,1.1,0.8,2.2,1.3,3.5
					c-3.1,0.6-6.1,1.1-9.1,1.7c0,0.1,0,0.3,0,0.4c3.7,1.2,7.5,2.5,11.4,3.8c0-0.9,0-1.5,0-2.4c3.1,0.4,6,0.8,8.9,1.2
					c1.3-2.8,1.3-2.8-0.9-4.7c-0.9-0.8-1.7-1.5-2.6-2.3c0.1-0.2,0.2-0.4,0.2-0.5c2.2,0.3,4.3,0.5,6.5,0.8c0-0.1,0-0.2,0.1-0.3
					c-1.2-0.5-2.4-1.1-3.8-1.6c0.9-0.5,1.6-0.9,2.5-1.5c-6-1.6-12-2.2-17.4-4.9c2.3,0.6,4.6,1.3,7.3,2c-0.7-2-1.3-3.6-1.9-5.5
					c1.1,0.4,1.9,0.7,2.6,1c1.5,0.8,2.9,1.8,4.4,2.4c1.7,0.6,3.4,1,5.2,1.4c0.5,0.1,1,0,1.5,0c0-0.1,0-0.3,0.1-0.4
					c-0.6-0.3-1.1-0.6-1.7-1c0.7-0.7,1.4-1.2,2.2-2c-1.9-0.5-3.4-1-5-1.5c0-0.1,0-0.3,0.1-0.4c2.3,0,4.6,0,6.4,0
					c0.1-1.2,0.1-2.2,0.4-3.2c0.4-1.3,0-2.2-0.9-3c-1.3-1.1-2.5-2.2-3.6-3.2c0.7-1.2,1.1-2.1,1.7-3.1c-4.3-0.3-8.3-0.6-12.4-0.9
					c1.2-0.7,2.4-1.1,3.6-1.4C355.8,211.2,359.1,209.7,362.9,210z M319.7,219.3c1.1-0.2,2.2-0.4,3.3-0.7c0-0.1,0-0.2,0-0.4
					c-1.7-0.3-3.3-0.5-5.4-0.8c5.1-1.5,8.1-1.8,9.6,1.7C324.7,220.7,322.2,219.8,319.7,219.3z M335.9,218.7c3.2-0.5,6.8,0.5,7.3,2.1
					C340.8,220,338.5,219.4,335.9,218.7z"/>
				<path id="f5_00000036216690706426120770000001147925377311081873_" class="st0" d="M286.4,199.6c0.1,1.3,1,1.2,1.8,1.3
					c2.6,0.4,5.1,0.7,8.1,1.1c-1.2,0.7-1.9,1.1-3,1.7c5.7,1.2,10.9,2.3,16.4,3.4c-0.6,0.2-0.9,0.3-1.4,0.5c1.1,0.5,2.1,0.9,3,1.3
					l0.7-1.2c0,0,0,0,0,0c1-2.6,1.7-4.8,2.5-6.9c0.6-1.6,1.6-3,1.9-4.9c0.3-1.9,1.8-3.8,3.2-5.2c1.5-1.5,3.5-2.5,5.8-2.2
					c0.8,0.1,1.7-0.1,2.6-0.2c0.1,0.6,0.2,1.1,0.3,1.6c0.3,3.1,0.3,3.1,3.5,3.1c6.3,0,12.6,0.1,18.8,0c1.7,0,2.7,0.5,3.3,1.9
					c0.4,0.9,0.9,1.6,1.7,2.9c-4-0.8-7.5-1.5-11.1-2.2c-0.1,0.1-0.1,0.2-0.2,0.3c1.2,0.8,2.5,1.5,3.7,2.4c3.3,2.7,7,3.9,11.3,3.3
					c1.3-0.2,2.6,0,3.9,0c0,0.1,0.1,0.3,0.1,0.4l1.1,0c0.1-0.9,0.1-1.8,0.2-2.8c-0.3-0.2-0.9-0.6-1.7-1.2c0.5,0,0.8,0,1.3,0
					c-0.2-2-0.3-3.9-0.5-5.9c0.5-0.1,0.9-0.1,1.6-0.2c-3.4-1.9-6.6-3.6-10.2-5.5c3.8-0.3,7.1-0.5,10.5-0.8c-0.3-2.6-0.5-5-0.8-7.4
					c-0.9,0.1-1.5,0.1-2.1,0.2c-0.4-2.3-0.8-4.6-1.3-6.9c-0.6,0-1.1,0-1.6,0.1c-3.6,0.8-7.3,1.4-10.9,2.4c-1.9,0.5-3-0.1-4.2-1.6
					c5.6-2,11.4-2.7,17.1-3.5c0-0.2,0-0.4-0.1-0.6c-2.7,0.2-5.3,0.5-8,0.7c0-0.2-0.1-0.3-0.1-0.5c2.5-1.1,4.9-2.2,7.8-3.5
					c-6.4,0.6-11.8,4.3-18.3,2.3c0.9-0.4,1.5-0.7,2.1-1c4.4-1.9,8.9-3.9,13.3-5.8c0.5-0.2,0.9-0.7,1.3-1c-0.5-0.3-1-0.6-1.4-0.9
					c0.1-0.2,0.2-0.4,0.4-0.9c-5.9,0.6-11.5,1.2-17.2,1.8c-1.6,0.2-3.2,0.2-4.8,0.5c-1.5,0.2-2.9,0.7-4.3,1.1c0,0.2,0,0.3,0,0.5
					c2.9-0.7,4,1.7,6.1,3.1c-4.4,1.3-8.5,2.4-12.6,3.6c-0.2-1.6-0.4-3-0.6-4.7c-1.9,1.2-3.6,1.6-5.2,0c-0.2-0.2-0.9,0-1.3,0.2
					c-3.7,1.3-7.3,2.6-11,3.9c-0.3,0-0.6,0.1-1,0.1c-1.6,0.7-3.2,1.3-4.8,2c2.1,0.1,4-0.1,6-0.2c3.6-0.3,7.2-0.4,10.7-1.1
					c1.8-0.4,3,0.2,4.6,1.2c-1.2,0.5-2.2,0.9-3.1,1.3c0.3,0.4,0.6,0.8,0.8,1.1c-1,0.3-1.9,0.6-2.8,0.9c1.2,0.2,2.4-0.1,3.5,0
					c1,0.1,2,0.6,3.3,0.9c-2.8,1.3-5.1,2.5-7.5,3.3c-1.8,0.6-2.6,1.3-2.3,3.2c0.2,1.3-0.4,2-1.7,2.2c-1,0.2-2,0.6-3,0.9
					c0.5,1.1,1,2,1.5,3.1c-1.9,0.4-3.6,0.8-5.3,1.1c-0.4-1-0.8-1.9-1.3-2.9c-5,1.4-9.9,2.8-15.2,4.3c1.2,0.5,1.9,0.9,3,1.4
					c-1.9,0.4-3.4,0.6-4.9,1.1c-1,0.3-1.8,0.9-2.7,1.4c0.1,0.2,0.1,0.4,0.2,0.6c-4.5-0.7-9.1-0.1-13.5-1.5c0-0.2,0-0.3,0-0.5
					c3.9-0.3,7.9-0.6,12.1-0.9c-0.6-0.5-1-0.8-1.3-1c1.8-1.3,4.9,0.7,5.7-2.7c2.2-0.5,4.4-1,6.8-1.5c-2.3-2.1-4.6-1.2-7-0.5
					c-0.1-1.2-0.2-2.3-0.3-3.2c-1-0.2-1.9-0.3-3-0.5c1.4-1.3,3.9-1.3,2.8-3.8c-7.6,4.2-15.1,8.5-22.6,12.7c1.7-0.1,3.5-0.4,4.9,1.3
					c-1.9,0.1-3.7,0.3-5.5,0.4c1.7,0.6,3.4,0.8,5.1,1.1c0.5,0.1,0.9,0.2,1.3,0.4c0.8,0.4,1.4,1,2.2,1.4c0.9,0.4,1.9,0.6,2.8,0.9
					c0,0.1,0,0.2-0.1,0.3c-2.2,0.2-4.3,0.3-6.5,0.5c0,0.2-0.1,0.4-0.1,0.5c1.1,0.3,2.2,0.8,3.3,0.9c3.9,0.3,7.9,0.5,11.8,0.8
					C285.5,198.8,286.4,199.3,286.4,199.6z M354,189.5c0.5,0.1,0.8,0.1,1.1,0.2c1.5,0.4,3.1,0.8,4.6,1.2c-0.7,1-3.8,1.5-6.4,1
					C353.5,191.2,353.7,190.4,354,189.5z M333.4,177.2c-3.4,1.7-4.1-2-6.5-2.8C330.1,172.2,332.6,173.4,333.4,177.2z"/>
				<path id="f4_00000132049572986296481070000015718991378745302433_" class="st0" d="M352.2,137c-5.2,1.3-10.1,2.5-15.2,3.7
					c1.1-3,2-5.6,5.2-6.7c2.4-0.9,4.5-2.3,7-3.6c-2.2-3.6-4.2-6.9-6.3-10.3c-0.2-0.4-0.9-0.8-1.2-0.7c-1.8,0.6-3.7,1.1-5.3,2
					c-1.9,1.1-3.6,2.5-5.4,3.8c-3.7,2.6-7.4,5.2-11.1,7.9c0.6,1,1,1.9,1.7,3.1c-1.2,0.1-2.2-0.1-2.9,0.3c-2.7,1.5-5.3,3.2-8,4.8
					c-0.2,0.2-0.2,0.7-0.4,1.3c-1.4,0.8-2.9,1.8-4.6,2.8c-0.9-1-1.7-2-2.6-3.1c-0.6,0.4-1.1,0.8-1.7,1.2c1.9,1.6,4.4,1.8,5.7,4.1
					c-3.3,2-6.5,3.9-9.7,5.9c-0.8-0.9-1.4-1.6-2.1-2.4c-4.5,3.2-9,6.3-13.6,9.5c-0.2-0.8-0.3-1.4-0.5-2.2c-2.8,2.3-5.4,4.4-8.2,6.6
					c0.4,0.3,0.8,0.5,1.2,0.8c-2.8,2-5.5,3.9-8.2,5.8c0.1,0.2,0.2,0.3,0.3,0.5c0.6-0.2,1.2-0.4,1.8-0.7c3.4-2,6.7-4.1,10.1-6.1
					c0.8-0.5,1.9-0.6,2.8-0.8c0.1,0.2,0.2,0.4,0.3,0.7c-1,0.6-2,1.2-3.4,2.2c2.6,0.3,4,1.3,3.5,4c6.6-1.8,12.9-3.6,19.2-5.3
					c0.4,1,0.8,1.9,1.2,2.8c1.8-0.3,3.5-0.5,5.2-0.8c0.3,0,0.6-0.1,1-0.1c-0.7-1.1-1.3-2.2-2-3.3c0.8-0.2,1.5-0.5,2.3-0.6
					c1.8-0.2,2.6-1.1,2.4-2.9c-0.2-1.5,0.6-2,1.9-2.5c1.4-0.5,1.6,0.6,2.3,1.2c0.6,0.6,1.4,1.5,2,1.4c1.8-0.4,3.5-1.2,5.5-1.9
					c-1.1-0.7-1.9-1.2-2.7-1.7c0.2-0.9,0.3-1.7,0.6-2.7c-1.3,0.6-2.4,1-3.6,1.5c-0.4-0.5-0.8-1-1.5-1.7c2.2-0.1,4-0.2,5.9-0.3
					c0.2,0.6,0.3,1.1,0.4,1.8c2.1-0.7,4-1.4,6-2.1c3.5-1.2,3.5-1.2,5.7,1.8c1.5,2.1,1.4,1.9,3.3,0.3c3.3-2.8,6.2-6.2,11.2-6.5
					c2.8-0.1,5.6-1,8.7-1.6C354.9,144,353.5,140.5,352.2,137z M314.9,153.1c-0.5-0.5-1-1-1.7-1.8c1.6-0.7,3.1-1.4,4.8-2.1
					C317.5,151.1,317.1,152.8,314.9,153.1z M318.9,146.1c0.6-1.4,1-2.6,1.4-3.7c0.2,0,0.4,0.1,0.6,0.1c0.2,0.6,0.5,1.2,0.7,1.9
					C320.8,144.9,320,145.4,318.9,146.1z"/>
				<path id="f3_00000002386656122745875530000003066749422159498167_" class="st0" d="M334.5,111.4c-2.8,1-5.6,2-8.4,2.9
					c0-0.1-0.1-0.2-0.1-0.3c1.6-1.1,3.2-2.3,4.8-3.4c-0.1-0.1-0.1-0.2-0.2-0.3c-1.6,0.4-3.1,0.8-5.1,1.3c2.3-2.8,4.4-5.4,6.5-7.9
					c-0.4-0.6-0.7-1.1-1.1-1.5c-1.6-1.8-3-4.1-5-5.3c-2.7-1.7-5.6-3.2-7.8-5.6c-1.1-1.3-2.1-0.9-3.4-0.1c0.6,0.5,1,0.9,1.6,1.4
					c-3.8,0.6-8.3-0.9-9.9,4.1c3.3-0.3,6.2-3.1,10.1-1.8c-4.8,5.1-9.3,10-14.3,15.3c3.1-0.7,5.7-1.2,8.3-1.8
					c0.4,1.5,0.6,0.5-3.2,4.7c-2.5,2.7-5.3,1.5-7.8,1.7c0.2-1.3,0.6-2.4,0.7-3.6c0.2-1.5,0.1-2.9,0.3-4.4l-2.5,1c0,0.1,0,0.1,0,0.2
					c-4.6,5-9.3,10-14.1,15.2c1.1,0.2,1.9,0.3,2.6,0.5c1.8,0.6,3.1,0.1,4.3-1.4c2.1-2.6,5.4-2.3,8.3-3.2c-1.7,1.8-3.5,3.5-5.2,5.2
					c-0.6,0.6-0.9,1.4-1.4,2.1c-3.7,0.6-4.9,4.8-8.1,6.4c-0.9-2.3-1.7-4.5-2.7-6.9c-0.1,0.1-0.2,0.2-0.2,0.3l-0.3,0.8l-0.5,0.2
					c-1.6,1.9-3,3.7-4.5,5.5c-0.7,1-1.4,1.3-2.5,0.7c-0.4-0.2-1.4-0.2-1.6,0.1c-2.4,3.3-4.8,6.7-7.3,10.2c0.9,0.1,1.5,0.1,2.3,0.2
					c-2,2.5-3.9,4.8-5.7,7.1c-0.3,0.4-0.4,1.2-0.5,1.7c0.2,0.1,0.3,0.1,0.5,0.2c-0.3,0.4-0.6,0.8-1,1.3c5.4,0.1,8.3-4.1,12.2-6.8
					c0.2,0.8,0.3,1.4,0.5,2.2c2.8-2,5.5-4,8.2-5.8c0.9-0.6,2-1.1,2.9-1.1c3.4,0.2,6.2-1,8.9-2.9c1.3-0.9,2.8-1.6,4.1-2.5
					c1.7-1.2,3.5-2,5.7-1.9c0.5,0,1.2-0.3,1.6-0.6c3.5-2.1,7-4.2,10.4-6.3c0.4-0.3,0.8-0.7,1-1.1c0.8-1.8,1.5-3.6,2.3-5.4
					c0.2-0.4,0.4-0.8,0.7-0.9c2.9-1.6,5.8-3.2,8.8-4.7c2.8-1.4,5.6-2.6,8.4-3.9C336.2,111.2,335.6,111,334.5,111.4z M296.6,132.9
					c2-0.8,3.1-3.2,5.8-2.7C299.7,132.9,298,133.8,296.6,132.9z"/>
				<path id="f11_00000124867873620406160840000002012351409396283807_" class="st0" d="M261,111.3c1.2,0.5,1.8,1.2,1.1,2.5
					c1.2,0.2,2.1,0.4,3.2,0.6c-1.2,2.1,1.3,2.7,1.5,4.2c-1.6,2.3-3.3,4.7-4.9,7.1c0.1,0.2,0.2,0.3,0.3,0.5c1.2-0.3,3-0.2,3.6-1
					c1.9-2.6,4.9-2.7,7.3-3.9c1.7,2,0.7,3.6-0.5,5.2c1.9-0.7,3.9-1.4,6.1-2.1c-0.4-0.7-0.7-1.3-0.9-1.7c1.9-2.3,3.6-4.5,5.5-6.6
					c2.4-2.7,4.9-5.3,7.3-7.9c0.3-0.3,0.8-0.6,1.2-0.6c2.1-0.1,4.2,0,6.4,0c0,0.1,0.1,0.2,0.1,0.3l2.5-1c0-0.1,0-0.2,0-0.3
					c0.1-0.6,0.3-1.4,0.7-1.7c2.6-1.7,3.1-4,2.3-6.8c-0.2-0.8-0.2-1.8-0.3-2.7c0-0.4,0-0.9,0.2-1.2c1.4-1.4,2.4-3.1,4.5-3.6
					c2.4-0.6,4.7-1.5,7-2.3c-0.1-0.2-0.1-0.4-0.2-0.7c-2.5-0.3-4.4,1.7-6.8,2c0.1-0.2,0.1-0.3,0.2-0.5c-1.1-0.4-2.1-0.8-3.5-1.3
					c0.7-2.2,1.4-4.5,2.2-7.1c-0.2,0-0.8-0.2-1.4-0.3c-0.4-0.1-1,0-1.2-0.2c-1.3-1.4-2.4-2.9-3.9-4.6c0,0-0.5-0.1-0.8-0.1
					c-0.4,1-0.5,1.9-1,2.6c-3.1,4.6-6.3,9.2-9.4,13.7c-3,4.2-6,8.5-9,12.8c-2.6-2.1-5-4-7.6-6.1c-0.7,1.3-1.4,2.5-2.2,4
					c-0.7-0.8-1.2-1.5-1.8-2.3c-0.9,1.6-1.5,3.1-2.5,4.4c-0.6,0.8-3.7,0.8-4.4,0.2c-0.7,1.6-1.4,3.3-2.2,5c-1.1-0.6-2.1-1.2-3.1-1.8
					c-0.1,0.1-0.2,0.3-0.4,0.4c0.3,0.3,0.5,0.7,0.8,1C258.5,110,259.7,110.7,261,111.3z"/>
				<path id="f2_00000085972642655659927360000012719356420463052735_" class="st0" d="M293.4,74.9c-0.1-1.6-0.2-2.9-0.3-4.3
					c-0.4,0.2-0.6,0.3-0.9,0.4c0-0.4,0-0.8-0.1-1.2c-0.2-0.1-0.3-0.2-0.5-0.3c-0.1,0.5-0.3,0.9-0.4,1.4c-0.4-0.5-0.4-0.7-0.4-0.9
					c-0.1-0.6-0.1-1.2-0.2-1.8c-0.6,0.2-1.2,0.4-1.7,0.8c-1.6,1.1-3.2,2.3-4.9,3.5c-0.6-1.6-1.2-3.1-1.9-4.8
					c-0.8,1.5-1.5,2.7-2.2,4.1c-0.7-1.8-1.1-3.4-1.8-4.8c-1.1-2.3-1.3-4.4,0.3-6.5c0-0.1-0.1-0.2-0.2-0.6c-4.3-1.8-8.7-3.8-13.5-5.9
					c-0.2,1.7-0.3,3-0.4,4.5c-2.3,0.8-4.9,1.7-7.6,2.6c-1.1,0.3-1.6,0.9-1.9,2c-1.2,4.6-2.5,9.1-3.8,13.6c-0.9,3.2-1.8,6.5-2.7,9.7
					c-0.2,0-0.4,0-0.6-0.1c0-5.1,0-10.3,0-15.4c-0.2,0-0.3,0-0.5,0c-0.2,0.6-0.4,1.1-0.5,1.7c-1.8,6.4-3.6,12.9-5.5,19.3
					c-0.2,0.7-1,1.3-1.7,1.6c-0.3,0.2-1.1-0.4-1.6-0.7c-0.3-0.2-0.6-0.5-0.9-0.8c-1.6,4.8-1.6,4.8,2,7.4c-0.1,0.5-0.1,1.1-0.2,1.8
					c1.3-0.2,2.4-0.4,4-0.7c-0.4,1.6-0.4,3.1-1.1,4.1c-0.4,0.6-2,0.2-3.2,0.3c-1,4.6-2,9.3-3,14c-0.2,0-0.3,0-0.5,0
					c0-3.1,0-6.2,0-9.3c-0.2,0-0.3,0-0.5,0c-0.7,5.3-1.5,10.6-2.2,16c0.7-0.1,1.2-0.2,1.9-0.3c-0.3,1.4-0.5,2.5-0.7,3.8
					c0.5,0.1,0.9,0.2,1.4,0.3c-0.4,1.6-0.8,3.2-1.2,4.7c0.9,0.4,1.6,0.7,2.3,1c0.7-1.7,1.4-3.4,2.2-5c0.2-0.4,0.6-1.2,0.9-1.1
					c1.7,0.1,2-1.2,2.6-2.3c0.8-1.5,1.5-3,2.3-4.4c0.3-0.5,0.8-1.1,1.3-1.3c1.8-0.7,3.7-1.2,5.6-1.8c0.4-0.1,0.9-0.3,1.2-0.7
					c1.7-2.3,3.2-4.6,4.8-6.8c-0.5-1.5-2.9-2.3-1.4-4.3c-0.6-0.4-1.1-0.7-1.7-0.9c-1.4-0.4-1.5-1.5-1.2-2.6c0.1-0.5,1-1,1.7-1.1
					c1.8-0.2,2.8-1.1,3.6-2.7c1.2-2.6,2.7-5.2,4.1-7.8c2.6,2.1,5,4,7.6,6.1c2.8-4,5.6-7.9,8.6-12.2c-3,1-5.5,1.8-8.4,2.7
					c2.5-4.2,4.8-7.9,6.8-11.2c3-0.4,5.6-0.8,8.5-1.2c-3.4,5.7-6.7,11.1-10.1,16.6c6.9-0.5,11.1-4.3,13.5-10.4
					c0.2,0,0.3,0.1,0.5,0.1c0.1,0.5,0.3,1.1,0.6,2.1c2.4-3.4,4.8-6.4,6.9-9.6c0.4-0.6,0.4-1.5,0.6-2.7
					C295.7,73.5,294.6,74.1,293.4,74.9z M251.7,91.9c-1,2.5-1.9,5.1-2.8,7.9c0.8,0.1,1.5,0.3,2.3,0.4c-0.5,1.1-1,2.2-1.5,3.4
					c-1.1-0.6-2-1.1-3.1-1.7c2.4-3.7,1.6-7.8,1.5-11.7c0-1.9,1.5-2,2.5-2.9C252.4,88.6,252.4,90.1,251.7,91.9z"/>
				<path id="f1_00000181783048372583550510000002801906057281348750_" class="st0" d="M251.4,53.8c0.5-0.8,0.7-1.1,1-1.4
					c-1-0.6-3.4,1.4-2.7-1.7c-2.4-0.6-4.7-1.1-7.1-1.7c-0.5,2.1-1,4-1.2,5.9c-0.2,1.7-1.2,2.1-3,2.6c0.3-2.6,0.3-5,0.8-7.3
					c0.4-1.7-1.8-1.8-1.4-3.2c0,0-0.1,0-0.2,0.1c-0.1,0.4-0.3,0.8-0.5,1.3c-1.7-0.3-3.3-0.5-5.2-0.8c-0.5,4.2-1.1,8.2-1.6,12.3
					c-1.4-1.3-2.2-2.7-1.6-4.7c0.3-0.9,0.3-1.9,0.4-2.8c0.3-2.5,0.6-4.9,1-7.5c-2.6-0.2-5-0.5-7.4-0.7c-0.4,5.6-0.8,11-1.2,16.4
					c-2,0.2-3.5-1.2-3.4-3.1c0.3-3.6,0.5-7.3,0.8-10.9c-0.1,0-0.3,0-0.4-0.1c-1,2.6-1.9,5.2-2.9,7.7c-0.1,0-0.2,0-0.3-0.1
					c-0.2-3-0.4-6-0.6-9c-0.9,4.7-1.4,9.4-2,14.1c-0.2,1.7-0.7,3.4-0.9,5.1c-0.2,1.9,0.1,3.9-0.3,5.7c-1,4-0.1,7.2,2.8,10
					c0.5,0.5,0.9,1.5,0.9,2.2c0.2,11.6,0.3,23.1,0.5,34.7c0,1.8,0,3.6,0,5.4c0,0.6,0.1,1.1,0.1,1.7c3.5-0.6,3.7-0.8,4.1-4
					c0.1-0.8,0.3-1.6,0.4-2.4c0.8-0.1,1.4-0.1,2.1-0.2c1.1-5.1,2.1-10.1,3.2-15.1c3.2,0.3,3.2,0.3,4.1-2.7c0.2-0.7,0.4-1.4,0.6-2.1
					c-0.2-0.2-0.4-0.3-0.6-0.5c-0.8-0.6-1.6-1.2-2.5-1.8c1-0.5,1.9-1.3,3-1.6c1.3-0.4,1.9-1.1,2.3-2.4c1.5-5.7,3.1-11.3,4.7-16.9
					c0.6-2,1.2-4.1,1.8-6.1c2.1,0.4,3.9,0.8,5.8,1.2c0.3-1.1,0.7-2,0.8-2.8c0.4-4.7,3-7.3,7.6-8.1c1.4-0.2,2.6-0.8,2.8-2.6
					c1.1,0.5,2,0.9,3,1.4c0.3-1,0.6-1.7,0.9-2.6C257,54,254.7,52.2,251.4,53.8z M220,80.9c-0.1,0-0.3,0.1-0.4,0.1
					c-1-2-3.6-3.1-3.2-6.1c1.4-0.1,2.6-0.3,4-0.4C220.3,76.8,220.2,78.8,220,80.9z M231,60.9c-0.3-0.1-0.5-0.7-0.7-1.1
					c0,0,0,0-0.1,0c0,0,0.1-0.1,0.1-0.1c0,0,0,0,0,0c1.4-0.6,2.9-1.3,4.3-1.9C234.5,59.5,232.3,61.4,231,60.9z"/>
			</g>
			<path id="Full_00000169554603278936159490000004771631087274761353_" class="st0" d="M209.2,47.3c0,102.5,0,205,0,307.8
				c-56.7-2.3-101.3-26-131.3-74.3C47.3,231.7,47.7,170.2,78,120.8C109.6,69.2,163.3,46.8,209.2,47.3z"/>
		</g>
		<g id="FRACTION_00000014617248036175046060000015641540118604105607_">
			<path id="F_00000182509899456218764600000007819671817033110402_" class="st0" d="M83.3,423.4H61.7v11.2h-6.4v-28l5.6-5.6h-5.6
				v-5.6h28v5.6H61.7v21.6l4.8-4.8h16.8V423.4z"/>
			<path id="R_00000077315026162952899280000011712765429274510252_" class="st0" d="M129,434.6h-8.2l-16.7-16.8h17.6V401h-20.8
				v33.6h-6.4v-28.1l5.6-5.5h-5.6v-5.6h28c1.5,0,2.8,0.6,3.9,1.7c1.1,1.1,1.7,2.4,1.7,3.9v15.2c0,4.3-1.9,6.4-5.6,6.4h-4.8v0.9
				L129,434.6z"/>
			<path id="A_00000036947449291119828150000017837576039637010347_" class="st0" d="M174.2,434.6h-6.4v-11.2H147v11.2h-6.4V401
				c0-1.5,0.5-2.9,1.6-4c1.1-1.1,2.4-1.6,4-1.6h28L174.2,434.6z M167.8,417.8V401H147v21.6l4.8-4.8H167.8z"/>
			<path id="C_00000103247224010478030540000012379015708265180835_" class="st0" d="M221.9,429c0,1.5-0.5,2.9-1.6,4
				c-1.1,1.1-2.4,1.6-4,1.6h-22.4c-1.5,0-2.9-0.5-4-1.6c-1.1-1.1-1.6-2.4-1.6-4v-28c0-1.5,0.5-2.9,1.6-4c1.1-1.1,2.4-1.6,4-1.6h22.4
				c1.5,0,2.9,0.5,4,1.6c1.1,1.1,1.6,2.4,1.6,4v5.6h-6.4V401h-20.8v28h20.8v-5.6h6.4V429z"/>
			<path id="T_00000028303925865236810740000002208284591482563261_" class="st0" d="M256.7,401h-11.6v33.6h-6.4V401h-11.6v-5.6
				h29.6V401z"/>
			<path id="I_00000132066338768455728770000015427697126971009688_" class="st0" d="M270.7,434.6h-6.4v-39.2h6.4V434.6z"/>
			<path id="O_00000179620282403441816310000015814464985241500309_" class="st0" d="M318.4,429c0,1.5-0.5,2.9-1.6,4
				c-1.1,1.1-2.4,1.6-4,1.6h-22.4c-1.5,0-2.9-0.5-4-1.6c-1.1-1.1-1.6-2.4-1.6-4v-28c0-1.5,0.5-2.9,1.6-4c1.1-1.1,2.4-1.6,4-1.6h22.4
				c1.5,0,2.9,0.5,4,1.6c1.1,1.1,1.6,2.4,1.6,4V429z M312,429v-28h-20.8v28H312z"/>
			<path id="N_00000012471983544171968400000016670508507798031022_" class="st0" d="M366,434.5h-11.2l-15.2-33.2h-3.2l2.4,4v29.2
				h-6.4v-39.2h11.3l15.1,33.2h3.2l-2.4-4v-29.2h6.4V434.5z"/>
		</g>
		<g id="TOKEN_00000035532903306502827500000016720375991261437058_">

				<rect id="O_Inner_00000052807715349269576260000008364328557152035509_" x="142.1" y="451.6" class="st0" width="7.8" height="10.5"/>
			<path id="TOKEN_00000057139923755685033440000001043211032623610270_" class="st0" d="M55.5,441v28h310.7v-28H55.5z M90.4,449.7
				H86v12.6h-2.4v-12.6h-4.3v-2.1h11.1L90.4,449.7L90.4,449.7z M152.3,460.2c0,0.6-0.2,1.1-0.6,1.5c-0.4,0.4-0.9,0.6-1.5,0.6h-8.4
				c-0.6,0-1.1-0.2-1.5-0.6c-0.4-0.4-0.6-0.9-0.6-1.5v-10.5c0-0.6,0.2-1.1,0.6-1.5c0.4-0.4,0.9-0.6,1.5-0.6h8.4
				c0.6,0,1.1,0.2,1.5,0.6c0.4,0.4,0.6,0.9,0.6,1.5V460.2z M214.6,454.1c0.6,0,1.1,0.2,1.5,0.6c0.4,0.4,0.6,0.9,0.6,1.5v6.1h-2.4
				V456h-7.8v6.3h-2.4v-14.7h2.4v8l8-8h3l-6.6,6.2v0.3H214.6z M278.6,449.7h-8.1v6l1.8-1.8h6.3v2.1h-8.1v4.2h8.1v2.1h-10.5v-10.5
				l2.1-2.1h-2.1v-2.1h10.5V449.7z M342.3,462.3h-4.2l-5.7-12.4h-1.2l0.9,1.5v10.9h-2.4v-14.7h4.2l5.7,12.4h1.2l-0.9-1.5v-10.9h2.4
				V462.3z"/>
		</g>
	</g>
</g>
</svg>
