<?xml version="1.0" encoding="utf-8"?>
<!-- Generator: Adobe Illustrator 26.0.1, SVG Export Plug-In . SVG Version: 6.00 Build 0)  -->
<svg version="1.1" xmlns="http://www.w3.org/2000/svg" xmlns:xlink="http://www.w3.org/1999/xlink" x="0px" y="0px"
	 viewBox="0 0 512 512" style="enable-background:new 0 0 512 512;" xml:space="preserve">
<style type="text/css">
	.st0{fill:url(#bg_00000165200063226200921970000015771804841779314066_);}
	.st1{fill:#FFFFFF;}
	.st2{fill-rule:evenodd;clip-rule:evenodd;fill:#FFFFFF;}
	.st3{opacity:0.1;}
	.st4{fill:url(#bg_00000135670512247350278040000014707028034869849994_);}
	.st5{fill:url(#bg_00000029759324537827451470000002854705403919276729_);}
	.st6{fill:#FCFCFC;}
	.st7{fill:url(#bg_00000150789369528416699590000017791897326744097466_);}
	.st8{fill:url(#bg_00000059309204802908426730000005073955560257219519_);}
	.st9{fill-rule:evenodd;clip-rule:evenodd;fill:#FCCDD3;}
	.st10{filter:url(#Adobe_OpacityMaskFilter);}
	.st11{mask:url(#mask-2_00000079477019141398897970000007225647416667991979_);fill-rule:evenodd;clip-rule:evenodd;fill:#6534FF;}
	.st12{fill-rule:evenodd;clip-rule:evenodd;fill:#FEFEFE;}
	.st13{fill-rule:evenodd;clip-rule:evenodd;fill:#6534FF;}
	.st14{fill:#8526D1;}
	.st15{fill:#D89738;}
	.st16{fill:#5D1B8F;}
	.st17{fill:#F2A738;}
	.st18{fill-rule:evenodd;clip-rule:evenodd;fill:#F9F9F9;}
	.st19{fill-rule:evenodd;clip-rule:evenodd;fill:#040404;}
	.st20{fill:#FEFEFE;}
	.st21{fill:#F0E20A;}
	.st22{fill:#EFE20A;}
	.st23{fill:#A1DE44;}
	.st24{fill:#FCA433;}
	.st25{fill:#FCAC68;}
	.st26{fill:#F74D7B;}
	.st27{fill:#9FDD46;}
	.st28{fill:#67D1BB;}
	.st29{fill:#FAAC8C;}
	.st30{fill:#FDE723;}
	.st31{fill:#FBAB4C;}
	.st32{fill:#FEF532;}
	.st33{fill:#EDE622;}
	.st34{fill:#5BD0DD;}
	.st35{fill:#B96CAE;}
	.st36{fill:#FBB32B;}
	.st37{fill:#FA9262;}
	.st38{fill:#D5709D;}
	.st39{fill:#9763B8;}
	.st40{fill:#FBDD0F;}
	.st41{fill:#D0EC26;}
	.st42{fill:#FCA036;}
	.st43{fill:#FACF2B;}
	.st44{fill:#D4E52B;}
	.st45{fill:#FCD713;}
	.st46{fill:#FDB83D;}
	.st47{fill:#E9E227;}
	.st48{fill:#CB7896;}
	.st49{fill:#FCD415;}
	.st50{fill:#C1E72E;}
	.st51{fill:#B6DF3A;}
	.st52{fill:#C8DE37;}
	.st53{fill:#C277B4;}
	.st54{fill:#ACE339;}
	.st55{fill:#E79762;}
	.st56{fill:#E77982;}
	.st57{fill:#FCFA68;}
	.st58{fill:#F6C82A;}
	.st59{fill:#B46CB1;}
	.st60{fill:#E1CE32;}
	.st61{fill:#F2C02E;}
	.st62{fill:#F8DB26;}
	.st63{fill:#C97B9F;}
	.st64{fill:#E6F40D;}
	.st65{fill:#D8DC35;}
	.st66{fill:#FDB73F;}
	.st67{fill:#FB7759;}
	.st68{fill:#EDDA2D;}
	.st69{fill:#DA8878;}
	.st70{fill:#EABC6F;}
	.st71{fill:#FDFDC8;}
	.st72{fill:#E8B380;}
	.st73{fill:#D8DB09;}
	.st74{fill:#E4D52E;}
	.st75{fill:#FCC91B;}
	.st76{fill:#FEFB8B;}
	.st77{fill:#F9D515;}
	.st78{fill:#DEE528;}
	.st79{fill:#FBC82E;}
	.st80{fill:#C25CA6;}
	.st81{fill:#FBC331;}
	.st82{fill:#FBB53E;}
	.st83{fill:#FC8E47;}
	.st84{fill:#9D63B7;}
	.st85{fill:#86C591;}
	.st86{fill:#78DEA5;}
	.st87{fill:#FBFCA1;}
	.st88{fill:#D87F7F;}
	.st89{fill:#FDF747;}
	.st90{fill:#E2CD31;}
	.st91{fill:#91E38C;}
	.st92{fill:#C5DD36;}
	.st93{fill:#FBB342;}
	.st94{fill:#D2BC7F;}
	.st95{fill:#65D6CC;}
	.st96{fill:#D5D809;}
	.st97{fill:#AEC383;}
	.st98{fill:#FBBB23;}
	.st99{fill:#F9DA24;}
	.st100{fill:#F9AC4C;}
	.st101{fill:#FBBF59;}
	.st102{fill:#E68B69;}
	.st103{fill:#F3A451;}
	.st104{fill:#FBF00E;}
	.st105{fill:#C9F5A2;}
	.st106{fill:#F9B229;}
	.st107{fill:#E9C745;}
	.st108{fill:#A2A2A2;}
	.st109{fill:#FDF10E;}
	.st110{fill:#F0FC0D;}
	.st111{fill:#010100;}
	.st112{fill:#FC8355;}
	.st113{fill:#FC8D48;}
	.st114{fill:#FCBB23;}
	.st115{fill:#FB9854;}
	.st116{fill:#FA6886;}
	.st117{fill:#FB6D6E;}
	.st118{fill:#E95790;}
	.st119{fill:#FB5D67;}
	.st120{fill:#6FCDA1;}
	.st121{fill:#79D278;}
	.st122{fill:#020101;}
	.st123{fill:#FAFD23;}
	.st124{fill:#E2FE38;}
	.st125{fill:#141304;}
	.st126{fill:#CB5DA2;}
	.st127{fill:#B063B1;}
	.st128{fill:#FC8D76;}
	.st129{fill:#E96F92;}
	.st130{fill:#FC8353;}
	.st131{fill:#FC8B4B;}
	.st132{fill:#FB7A86;}
	.st133{fill:#E3FD7C;}
	.st134{fill:#D8BF73;}
	.st135{fill:#DECA58;}
	.st136{fill:#B6EB2D;}
	.st137{fill:#C0D847;}
	.st138{fill:#A2E749;}
	.st139{fill:#BAF35A;}
	.st140{fill:#B6F180;}
	.st141{fill:#D8FB1A;}
	.st142{fill:#D6FA18;}
	.st143{fill:#FB736E;}
	.st144{fill:#96DE4B;}
	.st145{fill:#75CF83;}
	.st146{fill:#A2C87B;}
	.st147{fill:#8EDD54;}
	.st148{fill:#BDEF28;}
	.st149{fill:#B8EE29;}
</style>
<g id="MIVA:SYMM">
</g>
<g id="MIVA-FRACTION">
</g>
<g id="FRACTION-MIVA">
</g>
<g id="MIVA-HNY">
</g>
<g id="MIVA-WXDAI">
</g>
<g id="zeroalpha">
</g>
<g id="POAP">
</g>
<g id="pixeth">
</g>
<g id="xDaiTigers">
</g>
<g id="Fraction_Early">
	<rect width="512" height="512"/>
	<g>
		<path class="st1" d="M438.89343,434.75046c1.58691,0,2.94043,0.56152,4.06055,1.68164
			c1.12109,1.12207,1.68164,2.47559,1.68164,4.06152v22.96875c0,1.58691-0.56055,2.94043-1.68164,4.06152
			c-1.12012,1.12109-2.47363,1.68164-4.06055,1.68164h-28.71191c-1.58594,0-2.93945-0.56055-4.06152-1.68164
			c-1.12012-1.12109-1.68164-2.47461-1.68164-4.06152v-22.96875c0-1.58594,0.56152-2.93945,1.68164-4.06152
			c1.12207-1.12012,2.47559-1.68164,4.06152-1.68164H438.89343z M438.89343,441.31393h-28.71191v21.32812h28.71191V441.31393z"/>
		<path class="st1" d="M444.55359,385.93991v11.48535l-34.04395,15.58594v3.28223l4.10156-2.46191h29.94238v6.56348h-40.19727
			v-11.56738l34.04492-15.50391v-3.28223l-4.10156,2.46191h-29.94336v-6.56348H444.55359z"/>
		<path class="st1" d="M444.63562,342.46237v28.71289h-28.71191l-5.74219-5.74316v5.74316h-5.74316v-28.71289h5.74316v22.14941
			h16.40625l-4.92188-4.92188v-17.22754h5.74219v22.14941h11.48535v-22.14941H444.63562z"/>
		<path class="st1" d="M438.89343,279.70651c1.58691,0,2.94043,0.56152,4.06055,1.68164
			c1.12109,1.12207,1.68164,2.47559,1.68164,4.06152v22.96875c0,1.58691-0.56055,2.94043-1.68164,4.06152
			c-1.12012,1.12109-2.47363,1.68164-4.06055,1.68164h-28.71191c-1.58594,0-2.93945-0.56055-4.06152-1.68164
			c-1.12012-1.12109-1.68164-2.47461-1.68164-4.06152v-22.96875c0-1.58594,0.56152-2.93945,1.68164-4.06152
			c1.12207-1.12012,2.47559-1.68164,4.06152-1.68164H438.89343z M438.89343,286.26999h-28.71191v21.32812h28.71191V286.26999z"/>
		<path class="st1" d="M433.15125,236.63817v22.1494h11.48438v6.56348h-28.71191l-5.74219-5.74316v5.74316h-5.74316v-28.71288
			h5.74316v22.1494h22.14844l-4.92188-4.92186v-17.22754H433.15125z"/>
		<path class="st1" d="M444.63562,180.44676v28.71191h-5.74219v-16.40723h-27.48145v0.82031l13.125,13.12598l-4.18359,4.10156
			l-15.91504-15.91504v-8.69531h34.45508v-5.74219H444.63562z"/>
		<path class="st1" d="M444.63562,137.78954v28.71191h-8.61328l-16.24316-22.14941h-9.59766v15.58594h5.74219v6.56348h-5.74219
			c-1.58594,0-2.93945-0.56055-4.06152-1.68164c-1.12012-1.12109-1.68164-2.47461-1.68164-4.06152v-17.22656
			c0-1.58594,0.56152-2.93945,1.68164-4.06055c1.12207-1.12109,2.47559-1.68164,4.06152-1.68164h11.89453l15.99707,21.73828h0.82031
			v-21.73828H444.63562z"/>
		<path class="st1" d="M444.63562,95.1323v28.71191h-5.74219v-16.40723h-27.48145v0.82031l13.125,13.12598l-4.18359,4.10156
			l-15.91504-15.91504v-8.69531h34.45508V95.1323H444.63562z"/>
		<path class="st1" d="M444.63562,52.47507v28.71191h-8.61328l-16.24316-22.14941h-9.59766v15.58594h5.74219v6.56348h-5.74219
			c-1.58594,0-2.93945-0.56055-4.06152-1.68164c-1.12012-1.12109-1.68164-2.47461-1.68164-4.06152V58.21726
			c0-1.58594,0.56152-2.93945,1.68164-4.06055c1.12207-1.12109,2.47559-1.68164,4.06152-1.68164h11.89453l15.99707,21.73828h0.82031
			V52.47507H444.63562z"/>
	</g>
	<g>
		<g id="Symbol_00000097467678650009441320000012985674678104448686_">
			<g id="Fractured_00000120519370026894142580000002645519631389623186_">
				<path id="t5_00000122687851786164069640000003348722547216520357_" class="st1" d="M333.75101,288.3237
					c0.96616,0.17255,1.93237,0.34515,3.11682,0.55667c-0.31049,0.54987-0.54156,0.95917-0.85788,1.5195
					c-0.89706-0.64349-1.67346-1.20047-2.44989-1.75742C333.62372,288.53619,333.68735,288.42996,333.75101,288.3237z"/>
				<path id="t4_00000013159023215537804410000009136502045649996473_" class="st1" d="M264.99103,214.5029
					c1.75461,0.24742,3.51208,0.47659,5.26282,0.74847c1.26266,0.19606,1.2587,0.22144,1.16104,1.92705
					c-2.19849-0.77429-4.33871-1.52806-6.47894-2.28185C264.95428,214.76535,264.97269,214.63411,264.99103,214.5029z"/>
				<path id="t3_00000024718534526117703910000001225329118107825824_" class="st1" d="M264.59872,173.64729
					c-1.58771,0.56363-2.85025,1.01181-4.32001,1.53358C261.91663,173.13461,262.96729,172.72339,264.59872,173.64729z"/>
				<path id="t2_00000135669759446392080290000000782669233822420925_" class="st1" d="M259.96799,158.66838
					c0.272,1.8085-1.85977,3.81181-4.35994,4.10138C257.16772,161.30252,258.51166,160.03833,259.96799,158.66838z"/>
				<path id="t1_00000172413328086535158680000014481824691347490984_" class="st1" d="M241.41966,134.81042
					c-0.56245,1.04128-0.89772,1.66185-1.23294,2.28246c-0.13322-0.01186-0.26642-0.0237-0.39967-0.03555
					c0.0401-0.74895,0.0507-1.50279,0.17186-2.2384C239.96945,134.75478,240.70735,134.81042,241.41966,134.81042z"/>
				<path id="m5_00000093173767855608967780000008454500724464600741_" class="st1" d="M214.18945,143.18854
					c0-3.00389,0-6.00778,0-9.01167c0.17859,0.00461,0.35712,0.00923,0.53569,0.01384c0,3.00478,0,6.00955,0,9.01433
					C214.54657,143.19955,214.36803,143.19406,214.18945,143.18854z"/>
				<path id="m4_00000076566355679396440430000009257191231883002040_" class="st1" d="M246.69772,277.44016
					c-3.07036-1.19019-3.07036-1.19019-5.11577-6.67224C243.62508,270.64948,244.65044,271.96802,246.69772,277.44016z"/>
				<path id="m3_00000183936526507190833410000004780803739155160741_" class="st1" d="M326.94073,227.30128
					c-3.97739,1.87088-7.74646,4.16498-12.24304,1.10553C318.7485,227.4489,322.47482,225.03014,326.94073,227.30128z"/>
				<path id="m2_00000038398989060589202850000001776763732408972713_" class="st1" d="M306.6185,134.32698
					c0.79855,1.39624,1.52621,2.66858,2.33167,4.07683c-1.81326,1.11226-3.52621,2.16296-5.41525,3.3217
					c-0.76407-1.19621-1.52206-2.38303-2.30057-3.60191C302.46198,137.25795,304.47186,135.84065,306.6185,134.32698z"/>
				<path id="m1_00000050640855870327776620000002317555092335124400_" class="st1" d="M264.34915,98.2154
					c1.18536,1.31026,2.16498,2.39308,3.29184,3.6387c-1.95926,0.40697-3.67975,0.76433-5.74988,1.1943
					C262.7652,101.32968,263.47955,99.92524,264.34915,98.2154z"/>
				<path id="j7_00000164475078083761549210000005114039339775278232_" class="st1" d="M234.06989,275.23297
					c-0.3336-1.35681-0.62823-2.55511-0.9211-3.74609c0.86307-0.32379,1.67131-0.62698,2.67416-1.0032
					c1.41211,3.21564,2.81679,6.41443,4.2776,9.74097c1.78577-0.95187,2.53018,0.02182,3.16873,1.52136
					c0.69823,1.63968,1.61002,3.18839,2.51012,4.93457c-0.76782,0.40149-1.47739,0.77249-2.32661,1.21652
					c0.80516,1.91577,1.59753,3.80096,2.4713,5.87997c-2.72383-0.72055-4.80736-1.74768-5.05742-4.82953
					c-0.75073,0.26068-1.28424,0.44592-1.93102,0.6705c0.20523,0.67996,0.38599,1.2789,0.70412,2.33298
					c-1.50174-0.70676-2.66112-1.25235-4.28015-2.01431c1.12347-0.65091,1.75145-1.01477,2.4882-1.44162
					c-0.62154-2.21353-1.24542-4.43549-1.89053-6.73294c-0.67453,0.13602-1.24037,0.25015-2.03073,0.40948
					c-0.52145-2.47729-1.02969-4.89182-1.57889-7.50098C233.02969,274.89331,233.45952,275.03366,234.06989,275.23297z"/>
				<path id="j6_00000018945031961592934650000002428645038141886618_" class="st1" d="M261.70438,294.21475
					c-1.73404-0.89429-3.4678-1.789-5.20242-2.68216c-0.21179-0.10904-0.41757-0.25842-0.64371-0.30667
					c-4.23967-0.90518-5.05972-4.52304-6.37498-7.95639c1.65732-0.68771,3.2411-1.34491,5.01407-2.08063
					c2.55666,4.20316,5.07384,8.34143,7.59099,12.47974C261.96033,293.85068,261.83237,294.03271,261.70438,294.21475z"/>
				<path id="j5_00000014628237718803056160000003084556837386752696_" class="st1" d="M334.4812,294.0701
					c-5.42123-2.16483-10.97409-4.05872-16.21097-6.603c-2.83069-1.37527-5.13309-3.84717-7.65228-5.85147
					c-1.62753-1.29498-3.216-2.63916-4.97318-4.08575c1.57898-0.84912,2.95135-1.6861,4.41382-2.31302
					c0.43634-0.18701,1.25967,0.04294,1.67792,0.37164c7.17642,5.64029,14.3175,11.32556,21.46472,17.00287
					c0.50153,0.39838,0.99094,0.81207,1.48593,1.21866C334.6185,293.8967,334.54987,293.9834,334.4812,294.0701z"/>
				<path id="j4_00000010278891489070857850000013471258031189328056_" class="st1" d="M270.89081,155.25053
					c-2.96713,2.10022-5.9335,4.20152-8.90265,6.29887c-0.2872,0.20284-0.59167,0.3812-1.19644,0.3403
					c0.2373-0.35289,0.40854-0.78514,0.72235-1.04602c2.38568-1.98349,4.7673-3.97527,7.23111-5.85864
					c0.49277-0.37663,1.33203-0.29993,2.01154-0.43227C270.80139,154.78535,270.84613,155.01796,270.89081,155.25053z"/>
				<path id="j3_00000031898963202416686100000005533968547300446108_" class="st1" d="M244.267,156.94124
					c1.43712-2.70801,2.89326-5.40614,4.30342-8.12811c0.69948-1.35022,1.5457-2.60829,1.24788-4.34641
					c-0.12326-0.71919,0.65254-1.59242,1.23479-2.86687c0.18529,1.38058,0.30522,2.27426,0.47986,3.57538
					c0.60271-0.9691,0.95483-1.71364,1.47546-2.31146c0.36157-0.41519,0.9549-0.62863,1.44463-0.93224
					c0.11847,0.17188,0.237,0.34377,0.35547,0.51564c-0.52875,0.82143-1.05748,1.64287-1.61469,2.50854
					c1.94275,0.70937,1.83551-3.12781,4.09995-1.61508c-0.32318,0.46066-0.62125,0.88547-1.1134,1.58691
					c1.38531-0.3679,2.51389-0.66765,3.64252-0.96735c0.09683,0.20578,0.19366,0.41154,0.29047,0.61736
					c-5.19196,4.17024-10.38391,8.3405-15.57587,12.51076C244.44731,157.03929,244.35715,156.99026,244.267,156.94124z"/>
				<path id="j2_00000044897461824295735120000012440531110738013115_" class="st1" d="M260.78793,122.35508
					c-2.03741,2.91161-4.07489,5.82322-6.21953,8.88795c0.78026,0.0611,1.35263,0.1059,1.92723,0.15086
					c-0.86815,2.48135-8.38101,10.88533-9.77049,10.81978c0.55847-0.9229,1.09322-1.80652,1.62799-2.69014
					c-0.17284-0.14734-0.34563-0.29468-0.51842-0.44202c-1.00529,1.25969-2.01064,2.51936-3.01598,3.77902
					c-0.19569-0.13661-0.3914-0.27321-0.58711-0.40982c0.58235-1.1833,1.16467-2.36658,1.74702-3.5499
					c-0.12169-0.02177-0.24341-0.04353-0.36513-0.06528c0.04578-0.78008-0.05406-1.60538,0.17097-2.32976
					c0.35164-1.13211,0.96452-2.18019,1.38855-3.29367c0.34546-0.9072,0.76158-1.53615,1.8916-1.54153
					c0.38626-0.00185,0.89726-0.50531,1.13104-0.90758c0.74895-1.28882,1.48634-2.59904,2.0629-3.97055
					c1.58185-3.7632,4.92235-4.28989,8.24638-4.89098C260.59927,122.05268,260.69363,122.20387,260.78793,122.35508z"/>
				<path id="j1_00000171683772651371232810000016570429528911132063_" class="st1" d="M225.35146,119.80964
					c-0.25932,1.44633-0.47641,2.65707-0.71432,3.98379c0.46162,0.10563,0.88889,0.20341,1.45209,0.33231
					c-0.30444,1.14227-0.64844,2.21088-0.85588,3.30536c-0.10287,0.54279,0.04524,1.13313,0.07986,1.70198
					c0.37859-0.37364,0.75717-0.74727,1.13576-1.12094c0.13103-0.00107,0.26201-0.00215,0.39305-0.00323
					c-0.42885,2.48242-0.54347,5.07579-1.37025,7.41771c-0.92168,2.61082-2.49092,4.99303-4.0378,7.97499
					c-0.58556-0.79941-1.33104-1.34584-1.35152-1.91824c-0.20084-5.60345-0.16617-11.21707-0.45273-16.8148
					c-0.11137-2.17481,0.52907-3.31303,2.62651-3.76942C223.22452,120.68844,224.14214,120.24446,225.35146,119.80964z"/>
				<path id="f10_00000160909462701506681370000013902764646489957810_" class="st1" d="M237.30312,346.31311
					c0.00015,0.00031,0.00031,0.00061,0.00061,0.00092c-0.18346-0.35028-0.29648-0.6907-0.28233-0.9577
					c0.10983-2.06958,0.28979-4.13535,0.45071-6.3334c0.65945,0.15619,1.61278,0.38193,2.90715,0.68851
					c-0.53043-1.90579-1.00092-3.59061-1.46809-5.27631c-0.19122-0.68997-0.3564-1.38773-0.56633-2.07196
					c-0.41742-1.36136-0.47842-3.18402-1.40225-3.93213c-0.80959-0.65543-2.60306-0.16119-3.95358-0.06158
					c-1.07745,0.07956-1.67924-0.16998-1.76733-1.37714c-0.06874-0.94095-0.36082-1.86563-0.57744-2.91241
					c1.14304,0,2.19585,0,3.39105,0c-0.04701-1.58057-0.26729-2.70782-1.93434-3.42169
					c-3.3868-1.45016-3.74214-3.57907-1.84218-6.69772c1.19171-1.95599,3.10173-2.55319,4.86115-3.51398
					c0.0192-0.03497,0.03775-0.07034,0.0569-0.10519l0.0473,0.035c-0.01657-0.01236-0.04669-0.03485-0.04517-0.03452
					c0.01369-0.00912,0.02585-0.01871,0.03954-0.02783c-0.47368-1.82751-0.05353-3.36353,0.89934-4.72296
					c0.00366-0.00525,0.00777-0.01031,0.01141-0.0155c0.07591-0.10776,0.15471-0.21457,0.23717-0.32013
					c0.01779-0.02295,0.03741-0.04523,0.05551-0.06808c0.06984-0.08749,0.13979-0.1748,0.21388-0.26096
					c0.04474-0.05222,0.09264-0.10336,0.13887-0.15509c0.05022-0.05609,0.09903-0.11273,0.15092-0.16827
					c0.1001-0.10703,0.20323-0.21301,0.3091-0.31802c0.01399,0.01648,0.02434,0.03397,0.03787,0.05057
					c0.07805,0.09531,0.15289,0.19168,0.21799,0.29062c-0.02266-0.03442-0.0511-0.06726-0.07574-0.10107l2.44455-4.57877
					c-0.04091,0.05383-0.07878,0.10376-0.12077,0.15906c-0.6949-5.20682-3.79524-7.67096-8.0876-8.91086
					c-1.30031-0.37564-1.90712-1.19678-2.18884-2.49762c-0.3584-1.65506-0.91333-3.26758-1.38353-4.89847
					c-0.11394,0.02316-0.22803,0.04626-0.34195,0.06943c0,0.79633,0,1.59268,0,2.75827
					c-0.40434-0.91904-0.65352-1.48532-0.90224-2.05051c-0.68256,0.12936-1.24403,0.23578-1.8942,0.35898
					c-0.47491-2.30975-0.92764-4.51135-1.40254-6.82126c0.64651,0.10162,1.10667,0.17398,1.72061,0.27051
					c-0.36523-1.28745-0.67072-2.36487-0.96899-3.41693c-0.55585-0.02972-1.01053-0.05402-1.46523-0.07834
					c0.00821-0.19666,0.01645-0.39331,0.02481-0.58997c1.19627,0.12686,2.39087,0.31342,3.58971,0.3479
					c0.41544,0.01193,1.19064-0.33652,1.20084-0.54922c0.03818-0.79324-0.00763-1.67184-0.32358-2.3847
					c-0.77338-1.74509-1.71439-3.41589-2.58878-5.11615c-0.65472-1.27322-1.6394-2.48257-1.89893-3.83157
					c-0.56877-2.95724-2.69724-4.8895-4.11682-7.31706c-0.20155,0.59993-0.20688,1.1234-0.20079,1.64671
					c0.16125,13.77939,0.34729,27.55847,0.47537,41.33807c0.06056,6.51971-0.22073,13.05191,0.10483,19.55588
					c0.17235,3.44138-1.45837,5.73645-3.27179,8.18323c-0.44373,0.59863-0.84912,1.40207-0.85947,2.11734
					c-0.07288,5.08356-0.0388,10.16852-0.0388,15.25311c0,2.56494,0,5.12985,0,7.79169
					c-1.45335,0.27753-2.78058,0.53088-4.11073,0.78488c0,1.32315,0,2.49213,0,3.53381c2.53098,0,4.93217,0,7.39029,0
					c0-1.0191,0-1.77139,0-2.56909c1.2941-0.17725,2.50267-0.3428,3.75172-0.51389c0.13707,1.56812,0.25543,2.92114,0.39201,4.48523
					c2.54222-0.26859,4.94025-0.52194,7.41904-0.78381c-0.20871-1.75146-0.39037-3.27463-0.58734-4.92688
					c1.64259-0.26389,3.18509-0.51175,4.83894-0.7775c-0.13846,1.20251-0.24707,2.14615-0.35583,3.08984
					c0.09464,0.01898,0.1891,0.03793,0.28357,0.05692c0.8625-2.22098,1.72519-4.44199,2.58771-6.66296
					c0.16702-0.05222,0.33389-0.10449,0.50093-0.15671c0.01855,0.05478,0.03711,0.10974,0.05566,0.16449L237.30312,346.31311z
					 M228.09013,297.71411c-0.1328,0.03137-0.26544,0.06271-0.39824,0.09406c-0.26942-1.27762-0.53882-2.55527-0.80806-3.83289
					c0.25403-0.05768,0.50807-0.1153,0.76228-0.17291c0.1404,0.63626,0.28079,1.27255,0.42122,1.90881
					c0.14056,0.63626,0.28079,1.27255,0.42122,1.90884C228.35574,297.65137,228.22308,297.68274,228.09013,297.71411z
					 M235.36298,342.33359c-0.08488,0.02057-0.16962,0.04111-0.25435,0.06165c-0.08473,0.02051-0.1696,0.04102-0.25433,0.06155
					c-0.47903-1.4017-0.95804-2.80341-1.56729-4.586c0.26392,0.06067,0.50551,0.11624,0.73383,0.16873
					c0.57089,0.13126,1.05905,0.24353,1.60516,0.36908c0.10936,0.02515,0.22087,0.05075,0.33574,0.07721
					C235.74113,339.90353,235.55208,341.11859,235.36298,342.33359z"/>
				<path id="f9_00000159441875474132521750000005696083620145772165_" class="st1" d="M272.14734,341.44382
					c0.3631-1.92572-0.46777-3.47787-1.33545-5.06235c-0.88962-1.62439-1.6312-3.33347-2.58041-4.92014
					c-0.42853-0.71658-1.10849-1.39883-1.83792-1.79767c-2.1239-1.16147-4.33008-2.17194-6.87518-3.42426
					c1.00717-0.07214,1.56226-0.11194,2.26871-0.1626c-1.64899-3.77744-3.22949-7.39795-4.98755-11.4248
					c-0.74826,2.04285-1.31873,3.59973-2.05011,5.59665c-1.2112-2.7518-2.50055-5.01361-3.19604-7.44525
					c-0.72925-2.54871-2.24847-3.54529-4.68393-3.78445c-0.69424-0.06815-1.72974-0.39893-1.95078-0.89966
					c-0.94391-2.13882-1.64151-4.38632-2.48549-6.75272c0.90178,0.12973,1.52835,0.21988,2.53966,0.36542
					c-0.94817-1.82516-1.74573-3.36057-2.62846-5.06006c-0.8105,1.06784-1.48563,1.95737-2.48506,3.27423l-2.44453,4.57889
					c0.02463,0.03381,0.05307,0.06665,0.07573,0.10107c0.03455,0.05255,0.06056,0.10718,0.09143,0.16068
					c0.03729,0.06461,0.07835,0.1283,0.11029,0.19418c0.03287,0.06769,0.05644,0.13736,0.08366,0.20624
					c0.02113,0.05356,0.04686,0.10617,0.06467,0.16037c0.026,0.0795,0.04272,0.16068,0.06158,0.24146
					c0.01053,0.04507,0.02588,0.08945,0.03409,0.13495c0.01628,0.0885,0.02281,0.17831,0.03073,0.26801
					c0.00334,0.03891,0.01125,0.07724,0.01308,0.11636c0.00456,0.0979-0.00046,0.19681-0.00563,0.29575
					c-0.00168,0.03159,0.00061,0.06277-0.00197,0.09445c-0.00883,0.10397-0.02678,0.20856-0.04608,0.31323
					c-0.00502,0.02719-0.00655,0.05411-0.01233,0.08133c-0.02238,0.10693-0.05402,0.21414-0.08731,0.32135
					c-0.00792,0.02524-0.01248,0.05038-0.02101,0.07562c-0.03621,0.10822-0.08138,0.21637-0.12839,0.32452
					c-0.01065,0.02429-0.01825,0.04865-0.02936,0.07294c-0.04915,0.10678-0.10693,0.2132-0.16643,0.31952
					c-0.0143,0.02554-0.02539,0.05118-0.0403,0.07669c-0.05995,0.10214-0.12823,0.20364-0.1976,0.30496
					c-0.02023,0.02933-0.03696,0.05902-0.05797,0.08829c-0.06784,0.09509-0.14421,0.18912-0.22058,0.28311
					c-0.02858,0.03497-0.05338,0.0704-0.08304,0.10526c-0.07286,0.08585-0.15395,0.17029-0.23398,0.25494
					c-0.03984,0.04211-0.07588,0.08487-0.11728,0.12665c-0.07545,0.07584-0.15834,0.15002-0.23943,0.2247
					c-0.05341,0.04919-0.10329,0.09918-0.15898,0.14783c-0.0742,0.06461-0.15544,0.12732-0.23395,0.1908
					c-0.07043,0.05713-0.13795,0.11511-0.2119,0.17126c-0.06892,0.05234-0.14389,0.10272-0.21585,0.15417
					c-0.08398,0.06003-0.16415,0.12112-0.25192,0.17987c0.00592,0.0231,0.00972,0.04541,0.01599,0.0686v0.00006
					c-0.03607,0.02011-0.07257,0.03906-0.1088,0.05887c-0.5677,1.02557-1.08977,2.07874-1.71664,3.06531
					c-1.06593,1.6774-0.8432,2.71634,0.87527,3.56894c0.856,0.42462,1.81313,0.71106,2.55486,1.28094
					c0.68242,0.52432,1.28421,1.27322,1.66161,2.04953c0.76822,1.58035,1.31979,3.26526,2.06532,4.85803
					c0.13176,0.28119,0.77385,0.45767,1.17772,0.45312c1.42978-0.01578,2.85832-0.13107,4.27258-0.20782
					c2.16557,5.5777,2.50433,7.05838-1.21529,8.25745c-0.12428-0.50922-0.24689-1.01224-0.36949-1.51532
					c-0.11911-0.03677-0.23793-0.07355-0.35689-0.11032c-0.61714,1.74054-1.02361,3.59555-1.89464,5.19824
					c-1.94363,3.57678-1.76976,6.68393,1.40697,9.42676c0.12184,0.10526,0.16655,0.29993,0.34682,0.64233
					c-1.6032,0.26047-3.10765,0.5491-4.6252,0.73297c-0.55461,0.06723-1.52759-0.91605-2.00584-1.8302l-0.21648,0.74512
					c0.70233,2.0726,1.40605,4.14862,2.15781,6.36685c11.64066-1.66214,22.85812-5.10782,33.35529-10.44882
					C272.40988,342.37463,272.06717,341.86935,272.14734,341.44382z M253.56256,328.6944
					c-0.11348-0.30014-0.22437-0.59286-0.33557-0.88629c-0.22224-0.58694-0.44569-1.17688-0.69504-1.8353
					c-0.12473-0.32919-0.25586-0.67548-0.39656-1.04706c0.96884,0.24316,1.83774,0.46133,2.69693,0.67706
					c0.42958,0.10785,0.85689,0.21515,1.29301,0.32462c0.43613,0.10953,0.88123,0.22125,1.34641,0.3381
					C256.06921,327.13705,254.92253,327.84946,253.56256,328.6944z"/>
				<path id="f8_00000023968935805559014150000005817442529944740747_" class="st1" d="M295.68262,318.76776
					c-3.2963-4.09933-6.64227-8.15878-9.96155-12.23972c-2.69766-3.31665-5.38724-6.63986-8.38843-10.34003
					c1.46494,0.41559,2.44687,0.69415,3.8551,1.09366c-2.58408-3.20447-4.8862-6.05923-7.34637-9.11011
					c1.68039-0.19333,3.05673-0.35168,4.75906-0.54755c-3.35022-3.58731-6.46005-6.91708-9.58408-10.26215
					c-0.57108,0.6391-0.98749,1.10498-1.47397,1.64951c-1.68839-2.06192-3.30508-3.97406-4.84482-5.94629
					c-0.64951-0.83197-1.23535-1.36435-2.38449-0.87796c-0.35101,0.14859-1.07858-0.0582-1.34915-0.35855
					c-0.69165-0.76758-1.22299-1.67938-2.02713-2.83276c1.12317,0.23422,1.84326,0.3844,2.88437,0.60153
					c-1.64038-2.056-3.08014-3.8606-4.66872-5.85162c1.24333-0.30252,2.2766-0.55392,3.3098-0.8053
					c0.08676-0.17899,0.17349-0.35797,0.26016-0.53696c-0.76456-0.46692-1.52905-0.9339-2.3114-1.41168
					c0.60193-0.54132,0.88855-0.79904,1.24194-1.11691c-0.41931-0.34784-0.80319-0.56204-1.04434-0.88339
					c-1.45459-1.93784-4.18448-2.39197-5.16002-5.16331c-0.4884-1.38757-2.96051-2.09044-3.5513-4.03717
					c-0.02409-0.07944-0.20267-0.11156-0.30887-0.16658c-2.16637-1.12178-4.33275-2.24367-6.96494-3.60678
					c0.33658,0.68764,0.43594,0.89873,0.54204,1.10629c2.38693,4.66667,4.78482,9.32785,7.14589,14.00754
					c0.23056,0.45694,0.31966,1.02618,0.32982,1.54614c0.03812,1.94763-0.06502,3.93961,2.56281,4.36551
					c0.13896,0.02252,0.28293,0.22275,0.36241,0.37311c0.95732,1.81201,1.90288,3.63022,3.00171,5.73444
					c-1.0771-0.44785-1.75146-0.72815-2.75705-1.14624c0.49956,1.08258,0.83359,1.80643,1.16472,2.52399
					c0.77164-0.1821,1.3398-0.31619,2.05684-0.48547c1.0042,1.94107,1.96361,3.85196,2.98622,5.72845
					c0.22516,0.41324,0.61511,0.84854,1.03333,1.02084c0.80038,0.32968,3.7504,4.47079,3.60303,5.29333
					c-0.04013,0.2236-0.16351,0.47778-0.33026,0.6261c-1.73007,1.53864-1.1445,3.06894-0.1142,4.70703
					c0.74606,1.18625,1.07886,2.74161,2.92996,2.67523c2.59897-0.09323,4.1991,1.24368,5.15283,3.54428
					c0.1358,0.32748,0.46887,0.59738,0.52927,0.92712c0.13922,0.76074,0.33438,1.57281,0.19882,2.30716
					c-0.17972,0.97314-0.65317,1.89197-1.10751,3.12476c-1.14484-1.88217-2.38745-3.46042-3.12866-5.24664
					c-1.29205-3.11392-3.84906-3.26575-6.78146-3.39523c1.55203,3.03348,3.02292,5.90833,4.62042,9.03052
					c-2.56226-0.12595-4.36508-0.48737-5.32825-2.91431c-1.08203-2.72653-2.15982-5.77951-6.60989-4.93713
					c0.84444-1.2218,1.49341-1.93677,1.85478-2.77567c0.18768-0.43561,0.05423-1.40707-0.25648-1.59055
					c-1.29037-0.76196-2.7036-1.31598-4.54007-2.16214c2.19232,5.12817,4.31784,9.66513,6.06073,14.3446
					c1.00192,2.69012,2.45203,4.21014,5.38208,4.49527c2.01904,0.1965,2.59518,1.49014,1.90857,3.47678
					c-0.71539,2.0697-1.45987,4.12936-2.24463,6.34293c1.33173,0.2818,2.54718,0.53329,3.76004,0.79678
					c2.69965,0.58664,2.69913,0.58911,2.9415,1.68982c-1.82086,0.13626-3.63702,0.27222-5.64285,0.42233
					c0.53104,1.43149,0.97064,2.61658,1.44547,3.89648c1.43085-0.87109,2.60443-1.72147,3.89621-2.31381
					c0.63107-0.28937,1.58646-0.345,2.215-0.07977c2.14474,0.90509,4.20813,2.00247,6.30502,3.02133
					c2.06097,1.00137,3.69604,3.80008,3.57462,6.07413c-0.12558,2.35233-0.22037,4.70624-0.33383,7.17239
					c3.63266-0.7782,1.01056-3.59738,2.05365-5.15063c0.26901,0.33481,0.53,0.65964,1.01086,1.25809
					c0.13467-2.19046,0.2485-4.04276,0.3902-6.34796c2.37527,1.44299,4.39313,2.66885,6.255,3.79999
					c1.21432-0.79373,2.16278,1.16208,3.1207,0.91345c1.50174-3.9534,4.39163-5.54279,8.36493-5.72763
					C299.3168,324.66849,297.89536,321.51956,295.68262,318.76776z M270.35507,304.82452
					c0.96591-0.759,1.86819-1.46802,2.90244-2.2807c0.93314,1.53018,1.78976,2.93497,2.64639,4.33981
					C274.0224,306.33917,271.74963,307.01593,270.35507,304.82452z"/>
				<path id="f7_00000163753744766456821420000006480477547926138810_" class="st1" d="M323.57574,295.58664
					c1.88467,0,3.50128,0,5.11777,0c-1.49741-1.47961-3.24695-2.44122-4.62952-3.78146
					c-2.89594-2.80728-5.68033-3.09738-8.65234-0.23965c-0.20935,0.20126-0.49237,0.37088-0.77032,0.44366
					c-0.31186,0.0817-0.77249,0.18149-0.96994,0.02423c-2.10495-1.67654-4.17044-3.40259-6.24683-5.11502
					c0.06607-0.10196,0.13214-0.20392,0.19821-0.30582c0.75278,0.30649,1.50558,0.61298,2.73901,1.11517
					c-7.58331-6.8371-15.89096-12.00861-22.21753-19.44949c-0.71484-0.84082-1.70886-1.44437-2.57349-2.15796
					c2.37329,0.35178,4.51932,1.05164,6.68097,1.6998c0.3306,0.09918,0.73288-0.04047,1.63779-0.11203
					c2.18161,1.77603,4.85684,3.97665,7.56345,6.13806c0.54132,0.43234,1.20413,1.01694,1.80734,1.01273
					c2.16989-0.01517,4.3382-0.25238,6.98001-0.43909c-0.92892-0.69568-1.42917-1.08954-1.94855-1.45609
					c-3.75912-2.65329-7.48453-5.3569-11.30283-7.92239c-1.46826-0.98654-2.81689-2.01364-4.73734-2.54431
					c-2.61642-0.72296-4.86954-2.76047-7.47165-4.35254c1.29984-0.43347,2.29297-0.76474,3.7189-1.24026
					c-5.04083-2.61603-9.70471-5.03636-14.49802-7.52388c-0.07379,0.44817-0.08835,0.67712-0.15134,0.89192
					c-0.18167,0.61928-0.29547,1.70213-0.59338,1.75763c-0.78934,0.14706-1.68024-0.08163-2.49326-0.3002
					c-0.43372-0.11662-0.79047-0.52094-1.18091-0.79686c-2.25101-1.59065-2.25095-1.59081-4.80261,0.27002
					c0.58273,0.64476,1.1601,1.28348,1.83401,2.02908c-1.19012,0.27121-2.20667,0.50285-3.41626,0.77853
					c1.56738,1.96277,2.98822,3.74214,4.5817,5.73759c-1.06747-0.25421-1.81219-0.43161-2.55682-0.60895
					c1.35959,1.53394,1.42505,4.77509,4.65195,3.46899c0.07413-0.03,0.24228,0.06253,0.31082,0.14456
					c1.42752,1.70969,2.84695,3.42618,4.26797,5.1413c-0.1203,0.20386-0.24054,0.40771-0.36075,0.61157
					c-0.90036-0.11206-1.80063-0.22406-2.8374-0.35306c1.00775,1.40216,1.97745,2.75125,3.1731,4.41476
					c0.17972-1.07803,0.284-1.70343,0.4313-2.5867c0.86276,0.45963,1.80972,0.6662,2.23471,1.25159
					c0.92471,1.27396,2.16165,1.78506,3.57434,2.15109c1.09741,0.2843,2.26514,0.49661,3.22446,1.04871
					c0.71414,0.41101,1.22647,1.26538,1.67654,2.01382c0.38318,0.63715,0.37292,1.56155,0.84113,2.08835
					c2.29221,2.57883,4.68631,5.06711,7.04263,7.58554c-0.82446,0.99139-1.4104,0.68845-2.09802-0.05695
					c-2.7822-3.01602-5.60892-5.99094-8.62112-9.19583c-0.27121,1.85013-1.17807,2.65878-3.48752,2.4126
					c2.341,1.59567,1.71161,3.09189,1.01514,4.59802c-0.12485,0.27011-0.20853,0.55969-0.30563,0.84216
					c-0.57428,1.66974-0.23178,2.24966,1.55368,2.58179c1.35138,0.2514,2.72693,0.4024,4.05289,0.74734
					c0.69214,0.18002,1.48334,0.53183,1.91943,1.06152c6.42096,7.79926,12.80222,15.63144,19.13477,23.50253
					c0.32816,0.4079,0.37344,1.34778,0.1394,1.8475c-0.75787,1.61877-1.74121,3.13037-2.56,4.72321
					c-0.20969,0.40796-0.34033,1.07669-0.14771,1.42905c0.53397,0.97659,1.25751,1.84955,1.98154,2.86987
					c0.98605-0.74628,1.76752-1.5101,2.69269-2.00528c2.608-1.39572,3.89777-3.3226,2.99493-6.35153
					c-0.1329-0.4462-0.16141-0.96924-0.07175-1.42386c0.09943-0.50415,0.3017-1.29349,0.61731-1.3797
					c0.50806-0.13879,1.28287,0.03354,1.6926,0.37616c0.46658,0.39023,0.65631,1.11151,0.99069,1.73428
					c1.98447-1.95697,3.1821-3.75641,5.69977-3.19366c-0.26593-0.92319-0.43863-1.52277-0.68732-2.38617
					c1.91901,0.92963,2.97623,0.05179,3.95795-1.23901c0.86664-1.1394,1.82098-2.22534,2.83762-3.23303
					c0.74121-0.73462,0.6875-1.32971,0.21741-2.18481C325.82895,300.11746,324.79523,297.97925,323.57574,295.58664z
					 M320.77927,299.56873c-0.87039-1.20865-1.74069-2.4173-2.83749-3.94046c1.13519,0,1.88272,0,2.76089,0
					c0.14932,1.31683,0.29031,2.55991,0.4313,3.80301C321.01575,299.47708,320.89746,299.52292,320.77927,299.56873z"/>
				<path id="f6_00000002350740776684578320000004657523588863480233_" class="st1" d="M334.08127,237.76756
					c-1.04553-0.10266-2.09109-0.20532-3.41064-0.33488c0.12766,1.6862,0.24628,3.25401,0.37732,4.98463
					c-8.61697-2.35663-16.51346-6.64175-25.27518-8.00647c-0.04999,0.16547-0.09995,0.33093-0.14993,0.49643
					c2.72034,0.78056,5.44067,1.56113,8.6395,2.47899c-1.52097,0.52734-2.60004,0.90147-4.13733,1.43449
					c4.01105,0.54253,3.48718,3.76926,4.8298,6.12442c-1.70233-0.52106-3.05081-0.93378-4.39926-1.34656
					c-0.06604,0.22826-0.13208,0.45648-0.19812,0.68472c3.45459,1.23491,6.90756,2.4745,10.36423,3.70377
					c6.52594,2.32069,13.05392,4.63574,19.5813,6.95238c0.83322,0.29573,1.79797,0.43149,1.60098,1.73291
					c-0.03516,0.23224,0.30164,0.6221,0.56287,0.7804c1.15289,0.69876,2.34094,1.33945,3.91617,2.22629
					c-1.30988-3.64917-2.4686-6.87727-3.77728-10.52303c0.64157,0.507,0.99521,0.741,1.29517,1.03056
					c2.96829,2.86533,5.95038,5.71733,8.86368,8.63779c0.4068,0.40778,0.79382,1.27985,0.63248,1.74277
					c-2.31754,6.65198-5.41483,12.93909-9.1759,19.17398c-3.427-2.06183-6.79776-4.08978-10.16852-6.11777
					c-0.13855,0.14709-0.27713,0.29425-0.41568,0.44135c2.43399,3.38293,4.86798,6.76587,7.44601,10.349
					c-5.09833,0.1088-7.69272-4.06958-11.67725-5.8909c0,2.57574,0,5.12411,0,8.0412
					c-1.33154-1.05844-2.37851-1.89062-3.40439-2.70609c0.39517-2.28201,2.87772-3.71451,2.22095-6.51797
					c-2.03638,1.21262-3.94333,2.34824-6.04553,3.6001c-0.37994-0.69791-0.77808-1.27228-1.02271-1.90594
					c-1.01077-2.61789-2.00565-5.24289-2.94348-7.8876c-0.47842-1.34933-1.3233-1.95526-2.72943-1.63602
					c-1.80475,0.40976-3.80862-0.44217-5.48712,0.88089c-0.14005,0.11035-0.66833-0.12863-0.92007-0.32718
					c-1.35593-1.06918-2.68152-2.17688-4.31784-3.5173c1.04108-0.15115,1.76294-0.25598,2.78522-0.40445
					c-4.0864-2.89868-7.99396-5.67062-11.97989-8.49805c0.83017-2.30638,1.62955-4.52745,2.48691-6.90933
					c5.07883,2.62251,9.99457,5.16078,15.39697,7.95038c-0.51889-1.50189-0.8858-2.5639-1.39844-4.04764
					c4.94269,2.55539,9.50217,4.91263,14.1568,7.31912c0.60422-1.44666,0.32712-2.15533-0.80847-2.72076
					c-3.26086-1.62375-6.46057-3.37053-9.72342-4.99013c-1.13605-0.56392-2.02783-1.22023-2.27509-2.5289
					c-0.23447-1.24092-1.08353-1.80127-2.18973-2.31689c-1.87689-0.87488-3.63791-1.9971-5.4566-2.99911
					c-0.51059-0.28133-1.05252-0.50575-1.65393-0.79137c-0.48761,1.08247-0.91968,2.04185-1.41681,3.1456
					c-2.9003-1.76268-5.68436-3.45473-8.77057-5.33046c1.21173-0.43085,2.11682-0.75269,3.48181-1.23799
					c-4.72485-2.36815-9.1026-4.56232-13.67548-6.85431c-0.03738,0.78156-0.06662,1.39313-0.09521,1.99193
					c-1.49542,0.72647-2.76785,0.51688-4.11533-0.54602c-1.00259-0.79083-1.97858-2.28227-3.70834-1.17043
					c-0.16748,0.10765-0.72531-0.27791-1.03317-0.52155c-1.78061-1.40939-3.58673-2.79301-5.28296-4.29936
					c-0.60556-0.53777-0.86945-1.44164-1.39578-2.09222c-0.57361-0.70895-1.24515-1.34631-1.92316-1.96054
					c-0.46701-0.42307-0.99265-0.79633-1.53677-1.11583c-0.86926-0.51048-1.7756-0.95781-2.569-1.69264
					c1.19348,0.39444,2.38699,0.78893,3.72675,1.23174c0.17166-0.37119,0.34564-0.74736,0.56854-1.22919
					c6.26978,1.76271,12.53259,3.49353,18.77301,5.30174c1.34045,0.3884,2.48538,0.39688,3.73969-0.3219
					c0.63855-0.36589,1.59381-0.46661,2.33432-0.32146c6.21017,1.21735,12.40369,2.5195,18.73593,3.82362
					c0.1843-0.40099,0.36621-0.79666,0.59134-1.28633c7.86655,2.18034,15.71643,4.35606,23.56631,6.53178
					C334.08804,237.69313,334.08463,237.73035,334.08127,237.76756z"/>
				<path id="f12_00000005960876961359376080000008662808205892094637_" class="st1" d="M362.89917,209.98116
					c1.03943,0.07002,2.17365-1.25681,3.26025-1.9491c0.01871-0.01207-0.01447-0.10597-0.03848-0.25722
					c-0.58249-0.12741-1.19946-0.26239-1.94302-0.42503c0.11194-1.73816,0.22208-3.44981,0.33527-5.20979l-1.12964,0.00867
					c0.00211,0.00883,0.00439,0.01759,0.00653,0.02643c-0.58142,0.11894-1.16174,0.3345-1.74435,0.34071
					c-3.15784,0.03392-6.31616,0.0161-9.78738,0.0161c0.52512,1.01776,0.96262,1.86548,1.44467,2.79922
					c-2.70984,1.20068-5.2384,2.28711-8.26358,2.15704c-5.00247-0.21513-10.02103-0.05849-15.16876-0.05849
					c-0.20749-1.58806-0.3981-3.04691-0.62155-4.75697c-2.88373,0.17044-5.72186,0.33432-8.55948,0.50876
					c-0.71573,0.04396-1.43387,0.20673-2.14322,0.16905c-2.74121-0.14583-5.12613,0.17691-5.52621,3.61345
					c-0.02039,0.17445-0.39276,0.30939-1.04535,0.78394l-0.68378,1.16649c0.30515,0.1274,0.6077,0.25366,0.91058,0.38004
					c-0.86981,3.00095-2.95706,5.6082-0.84061,8.78514c-0.85431-0.0486-1.22305-0.06956-1.42172-0.08089
					c0.88168,2.00836,1.75104,3.98888,2.71838,6.19232c-2.75854-0.29509-5.8309-2.33813-6.99673,2.08809
					c2.65616,0.74388,5.31427,1.48836,8.1232,2.27507c-0.17816-0.82875-0.30197-1.40486-0.35858-1.66795
					c1.20981-0.11404,2.39957,0.03758,3.35699-0.36421c3.32047-1.3934,6.57431-1.41237,9.87469-0.05148
					c0.27426,0.11311,0.5712,0.17195,0.85886,0.25212c4.26361,1.18817,4.23807,1.19112,4.77502,5.62897
					c0.06512,0.53812,0.48163,1.33995,0.91092,1.47951c3.56445,1.15904,7.17426,2.17711,10.75836,3.27734
					c0.50031,0.15361,1.15701,0.41167,1.35645,0.81273c0.52328,1.05295,0.83392,2.21153,1.27338,3.45222
					c-3.13715,0.57819-6.12964,1.12967-9.12198,1.68114c-0.00412,0.14339-0.00809,0.28676-0.01221,0.43016
					c3.73837,1.23659,7.47687,2.47318,11.3985,3.77043c0-0.87314,0-1.50565,0-2.36952
					c3.07877,0.41255,6.01083,0.80544,8.94708,1.19887c1.33682-2.75259,1.3356-2.7511-0.8855-4.70926
					c-0.85416-0.75302-1.70099-1.51437-2.55118-2.27196c0.07709-0.17871,0.15424-0.35739,0.23135-0.53609
					c2.16483,0.25417,4.32947,0.50827,6.49429,0.76242c0.02237-0.10381,0.04471-0.20757,0.06708-0.31137
					c-1.21756-0.52567-2.43512-1.05139-3.80801-1.64413c0.88123-0.52744,1.57886-0.94501,2.54816-1.52518
					c-6.03244-1.61082-12.03055-2.18045-17.43747-4.89865c2.31921,0.62766,4.63843,1.25529,7.28546,1.97168
					c-0.68759-1.9659-1.26291-3.61061-1.93646-5.53618c1.08459,0.42378,1.87775,0.65639,2.59695,1.03084
					c1.49005,0.77577,2.87494,1.79579,4.42563,2.40128c1.65659,0.64679,3.44843,0.95726,5.19412,1.35793
					c0.47888,0.10985,1.0043,0.01665,1.50842,0.01665c0.02386-0.13824,0.04764-0.2765,0.07135-0.41475
					c-0.56302-0.31342-1.12598-0.62686-1.73569-0.96616c0.72409-0.6609,1.35538-1.23727,2.15707-1.96904
					c-1.8653-0.54897-3.44888-1.01508-5.03244-1.48112c0.01932-0.12936,0.03879-0.25871,0.05826-0.38811
					c2.2999,0,4.59979,0,6.4476,0c0.13171-1.1767,0.10892-2.21754,0.38928-3.16895c0.3768-1.27831,0.04697-2.15746-0.94452-2.97272
					c-1.28391-1.05571-2.49582-2.19908-3.64023-3.2171c0.68378-1.2426,1.13968-2.07112,1.73111-3.1461
					c-4.27301-0.31577-8.31226-0.61423-12.3515-0.91275c1.18533-0.71587,2.36029-1.13081,3.5625-1.43919
					C355.75107,211.21773,359.10089,209.72536,362.89917,209.98116z M319.70966,219.31682
					c1.08875-0.22104,2.17746-0.44211,3.26602-0.66313c0.01492-0.12086,0.02982-0.24168,0.04471-0.36255
					c-1.66388-0.25479-3.32791-0.5096-5.39459-0.82608c5.14117-1.4765,8.05334-1.82224,9.58505,1.6727
					C324.68994,220.71616,322.2023,219.80042,319.70966,219.31682z M335.94662,218.68866
					c3.17139-0.46092,6.79428,0.52269,7.31271,2.06454C340.75482,220.0461,338.4794,219.4037,335.94662,218.68866z"/>
				<path id="f5_00000036216690706426120770000001147925377311081873_" class="st1" d="M286.42514,199.55251
					c0.09186,1.26428,0.95242,1.17818,1.76501,1.29083c2.56079,0.35513,5.12097,0.71539,8.11804,1.13475
					c-1.18091,0.67751-1.92996,1.10721-3.03842,1.74315c5.65445,1.18369,10.91718,2.28535,16.42737,3.43889
					c-0.57315,0.20305-0.87375,0.3096-1.41119,0.50002c1.0936,0.45644,2.06287,0.86104,3.00513,1.25429l0.68378-1.16649
					c-0.00412,0.00293-0.00687,0.00449-0.0108,0.00746c0.95258-2.6441,1.67755-4.81203,2.51682-6.93486
					c0.63724-1.61172,1.57657-2.99478,1.88614-4.86723c0.30896-1.86914,1.76276-3.76933,3.18994-5.17273
					c1.49487-1.47002,3.49573-2.47331,5.8432-2.21881c0.81097,0.08795,1.65189-0.10127,2.56598-0.17047
					c0.11423,0.60936,0.24673,1.12534,0.30347,1.64951c0.33804,3.12624,0.33224,3.12717,3.53299,3.12727
					c6.27673,0.00027,12.55487,0.07043,18.82953-0.04681c1.67499-0.03123,2.66513,0.48227,3.33463,1.95
					c0.39078,0.85696,0.93811,1.64255,1.65399,2.87004c-3.96729-0.80263-7.51547-1.52042-11.06354-2.23817
					c-0.05807,0.09671-0.11621,0.19347-0.17432,0.29018c1.23431,0.80737,2.54953,1.51532,3.68784,2.44087
					c3.31061,2.69162,6.99948,3.87987,11.26965,3.31694c1.29086-0.17021,2.62314-0.02637,3.93652-0.02637
					c0.03546,0.14128,0.07104,0.28265,0.10666,0.42393l1.12964-0.00867c0.05887-0.91342,0.11819-1.83612,0.1795-2.79018
					c-0.28903-0.19841-0.92444-0.63423-1.71881-1.17929c0.5137,0,0.83209,0,1.28052,0
					c-0.16562-1.99205-0.32614-3.92082-0.48935-5.88437c0.50641-0.06142,0.88016-0.1067,1.57718-0.19121
					c-3.42618-1.86348-6.57874-3.57806-10.17651-5.53484c3.81897-0.28712,7.07648-0.53203,10.4996-0.78943
					c-0.28098-2.61432-0.53772-5.00238-0.79922-7.43546c-0.87286,0.08868-1.46005,0.14835-2.12192,0.21562
					c-0.41818-2.29442-0.83072-4.55777-1.25528-6.88766c-0.62552,0.03464-1.10425,0.00136-1.55618,0.09569
					c-3.64709,0.7607-7.32352,1.41649-10.9184,2.37573c-1.88113,0.50192-3.01199-0.11819-4.22421-1.63676
					c5.61761-2.03644,11.36926-2.73254,17.11331-3.46182c-0.0242-0.20688-0.04837-0.41376-0.07257-0.62061
					c-2.67365,0.24316-5.34729,0.48637-8.02081,0.72957c-0.02676-0.15131-0.05338-0.3026-0.08017-0.45392
					c2.45004-1.10303,4.90009-2.20609,7.81287-3.51747c-6.3808,0.58707-11.8078,4.26932-18.26514,2.2729
					c0.86081-0.42073,1.47113-0.74547,2.10211-1.02304c4.42929-1.94839,8.86798-3.87567,13.28796-5.84482
					c0.49866-0.22214,0.89966-0.66324,1.34595-1.0029c-0.48294-0.29579-0.96579-0.59154-1.44406-0.88454
					c0.09006-0.17474,0.22131-0.43011,0.43842-0.85204c-5.87363,0.60335-11.5191,1.18616-17.16519,1.76137
					c-1.60547,0.16354-3.22797,0.21718-4.81564,0.48203c-1.46323,0.24403-2.89044,0.70406-4.33344,1.06891
					c0.01291,0.16258,0.02585,0.32515,0.03879,0.48773c2.88739-0.6673,3.99756,1.74991,6.08389,3.08102
					c-4.43991,1.26978-8.50092,2.43121-12.6261,3.61107c-0.21478-1.63197-0.39749-3.02069-0.61716-4.68889
					c-1.90256,1.16779-3.58075,1.6104-5.21539,0.03612c-0.20795-0.20026-0.91,0.00647-1.33698,0.15627
					c-3.66202,1.2845-7.31317,2.59932-10.96771,3.90508c-0.32126,0.04984-0.64255,0.09972-0.96381,0.14955
					c-1.61111,0.65817-3.2222,1.31636-4.83347,1.97455c2.0556,0.11707,4.04822-0.05035,6.03885-0.23801
					c3.56204-0.33577,7.16956-0.44464,10.66556-1.12413c1.83868-0.35733,2.96786,0.22096,4.57257,1.15552
					c-1.24283,0.50682-2.15036,0.87682-3.11618,1.27069c0.31519,0.42941,0.55966,0.76244,0.82205,1.11998
					c-1.04034,0.32735-1.94485,0.61197-2.84937,0.89656c1.21561,0.21149,2.35284-0.06767,3.46167,0.01848
					c1.01889,0.07916,2.0072,0.55182,3.3031,0.93895c-2.80325,1.2541-5.06177,2.47647-7.46237,3.26784
					c-1.75574,0.57877-2.64932,1.3353-2.34598,3.24373c0.20218,1.27214-0.38123,1.96091-1.6998,2.17538
					c-1.02271,0.16635-2.0072,0.56721-3.01758,0.86647c0.53149,1.08446,0.98193,2.00328,1.52606,3.11346
					c-1.89191,0.40619-3.56189,0.76471-5.30701,1.13937c-0.43445-1.00186-0.82724-1.90758-1.25864-2.90196
					c-5.01004,1.40915-9.90298,2.78537-15.19659,4.27422c1.18088,0.54652,1.92688,0.89185,3.00055,1.38882
					c-1.89801,0.41315-3.43896,0.64751-4.91058,1.10484c-0.96289,0.2993-1.82526,0.92162-2.73282,1.39923
					c0.05643,0.1882,0.11288,0.37642,0.16916,0.56459c-4.45621-0.73961-9.08215-0.13155-13.46198-1.4751
					c0.01157-0.15292,0.02341-0.30583,0.03528-0.45876c3.93655-0.28946,7.87311-0.57886,12.09015-0.88893
					c-0.64572-0.50626-1.01431-0.79517-1.30029-1.0195c1.77036-1.25595,4.86966,0.7453,5.71741-2.69807
					c2.1572-0.474,4.41391-0.96986,6.76126-1.48564c-2.29639-2.09795-4.62488-1.16025-7.0162-0.51982
					c-0.09979-1.23079-0.18481-2.27977-0.25815-3.18469c-0.98816-0.16985-1.8656-0.3206-3.04178-0.52275
					c1.41196-1.26091,3.93396-1.29967,2.81329-3.76227c-7.56247,4.23769-15.10153,8.46231-22.60284,12.66571
					c1.66068-0.11102,3.51093-0.4232,4.87573,1.32199c-1.92371,0.13965-3.7312,0.27084-5.53885,0.4021
					c1.69815,0.58501,3.4046,0.80945,5.10532,1.07184c0.45453,0.07016,0.9328,0.18275,1.32739,0.40506
					c0.75513,0.42522,1.4118,1.04506,2.19388,1.39583c0.90222,0.40466,1.89554,0.60582,2.84933,0.89536
					c-0.01901,0.11089-0.03802,0.22174-0.05688,0.33261c-2.16696,0.16982-4.33389,0.33957-6.50082,0.50934
					c-0.03348,0.1817-0.06696,0.3634-0.10056,0.54512c1.09647,0.30742,2.17728,0.79292,3.29218,0.8902
					c3.93015,0.343,7.87415,0.5271,11.80722,0.84291C285.45554,198.84447,286.40353,199.25682,286.42514,199.55251z
					 M353.97769,189.51671c0.52539,0.09998,0.81442,0.13844,1.09479,0.21101c1.54263,0.39978,3.08301,0.80795,4.64191,1.21793
					c-0.68057,1.02855-3.81149,1.5367-6.43784,1.01802C353.50092,191.18073,353.72119,190.41222,353.97769,189.51671z
					 M333.4003,177.20052c-3.38849,1.67998-4.14996-1.98915-6.45401-2.84415
					C330.10416,172.17204,332.59845,173.37291,333.4003,177.20052z"/>
				<path id="f4_00000132049572986296481070000015718991378745302433_" class="st1" d="M352.2113,136.99397
					c-5.1749,1.26704-10.10559,2.47435-15.21136,3.72449c1.07462-3.03319,2.04446-5.60004,5.20007-6.73216
					c2.3757-0.85234,4.54147-2.28987,6.98453-3.56273c-2.1795-3.56745-4.21506-6.93791-6.30859-10.27187
					c-0.23193-0.36927-0.88776-0.83131-1.18997-0.73858c-1.80569,0.55416-3.67264,1.06303-5.31259,1.96324
					c-1.92599,1.05721-3.64224,2.49689-5.44794,3.7728c-3.69693,2.61234-7.39282,5.22614-11.14575,7.8793
					c0.55173,1.00391,1.02298,1.86156,1.7059,3.10449c-1.2002,0.1172-2.18204-0.05156-2.85965,0.32584
					c-2.71201,1.51048-5.34055,3.17339-7.96442,4.836c-0.24551,0.15559-0.2413,0.7054-0.40964,1.25783
					c-1.36142,0.82587-2.93423,1.78003-4.5936,2.78661c-0.87915-1.04533-1.71475-2.03894-2.6413-3.14072
					c-0.60208,0.4368-1.12704,0.8177-1.66953,1.21133c1.85748,1.62077,4.41956,1.84334,5.68558,4.14932
					c-3.2872,1.9964-6.47443,3.93205-9.68073,5.87933c-0.75287-0.89349-1.36154-1.61581-2.06094-2.44586
					c-4.5257,3.18036-8.99857,6.32361-13.57745,9.54137c-0.18033-0.82823-0.31125-1.42941-0.48389-2.22221
					c-2.80066,2.27524-5.43558,4.41585-8.17197,6.63885c0.43918,0.29022,0.77979,0.51529,1.23798,0.81808
					c-2.83365,2.01886-5.50665,3.92326-8.1796,5.82767c0.09271,0.17464,0.18539,0.3493,0.2782,0.52397
					c0.59262-0.24271,1.22772-0.41434,1.77084-0.73961c3.38315-2.02618,6.72012-4.13123,10.13358-6.1041
					c0.82825-0.47873,1.88657-0.55943,2.83908-0.82314c0.09488,0.22247,0.18979,0.44496,0.2847,0.66745
					c-0.98178,0.62427-1.96344,1.24857-3.3941,2.15831c2.57837,0.3205,4.04391,1.34442,3.50775,3.96228
					c6.599-1.83836,12.85471-3.58112,19.15781-5.33704c0.44803,1.01465,0.82648,1.87195,1.22174,2.76715
					c1.77698-0.26871,3.47507-0.52547,5.17325-0.78226c0.32126-0.04984,0.64258-0.0997,0.96381-0.14952
					c-0.66043-1.10025-1.32095-2.20045-2.00751-3.34421c0.79941-0.22339,1.53415-0.53139,2.29449-0.62064
					c1.7981-0.21106,2.63632-1.12079,2.39252-2.9426c-0.19629-1.46666,0.58035-2.03427,1.88037-2.5042
					c1.37476-0.4969,1.60303,0.563,2.25302,1.16129c0.61017,0.56158,1.42105,1.54823,1.95117,1.43634
					c1.80157-0.38034,3.5181-1.16385,5.53717-1.89059c-1.14151-0.69853-1.94125-1.18796-2.7363-1.67451
					c0.17963-0.8741,0.34201-1.66457,0.55563-2.70396c-1.32831,0.55798-2.41409,1.01411-3.60599,1.51483
					c-0.42401-0.48621-0.83328-0.95557-1.51654-1.73907c2.18829-0.12297,3.99942-0.22476,5.86691-0.32971
					c0.1579,0.63269,0.27988,1.12144,0.44415,1.77975c2.08875-0.72945,4.04816-1.41185,6.00632-2.09796
					c3.52597-1.2355,3.52573-1.23645,5.73145,1.81227c1.54834,2.14014,1.35321,1.9099,3.30542,0.25551
					c3.30725-2.80252,6.24963-6.24127,11.18936-6.4883c2.81226-0.14066,5.58844-1.00105,8.66507-1.59192
					C354.85245,144.02541,353.54062,140.533,352.2113,136.99397z M314.85013,153.07619
					c-0.48236-0.50188-1.00488-1.04546-1.7179-1.7872c1.62268-0.7187,3.09793-1.37213,4.78009-2.11717
					C317.46515,151.12479,317.10211,152.83507,314.85013,153.07619z M318.86246,146.06528
					c0.55405-1.42047,1.00015-2.56407,1.44635-3.70773c0.20093,0.04153,0.40186,0.08307,0.60284,0.12459
					c0.23047,0.60002,0.46091,1.20003,0.73984,1.92622C320.79898,144.91479,319.99432,145.39288,318.86246,146.06528z"/>
				<path id="f3_00000002386656122745875530000003066749422159498167_" class="st1" d="M334.52704,111.37634
					c-2.76645,1.04234-5.58066,1.95812-8.3757,2.92461c-0.03592-0.08613-0.07196-0.17225-0.108-0.25838
					c1.60593-1.14637,3.21155-2.29274,4.81747-3.43913c-0.05688-0.10091-0.11365-0.20174-0.17053-0.30265
					c-1.5723,0.40863-3.14478,0.81727-5.07471,1.31883c2.34021-2.8379,4.42227-5.36293,6.52579-7.9139
					c-0.39917-0.5668-0.69626-1.08705-1.086-1.52478c-1.62296-1.82316-2.99203-4.0711-4.98328-5.31955
					c-2.73346-1.71385-5.60074-3.17644-7.75415-5.63676c-1.1459-1.3093-2.14368-0.89549-3.35104-0.10131
					c0.56985,0.48655,1.02408,0.87454,1.64868,1.40791c-3.80301,0.62547-8.28308-0.93143-9.86923,4.10303
					c3.2908-0.26017,6.15872-3.09051,10.06027-1.76405c-4.75159,5.10271-9.33221,10.02171-14.26059,15.31404
					c3.12195-0.65966,5.71909-1.20852,8.30267-1.7544c0.40631,1.5385,0.61288,0.53368-3.16071,4.6703
					c-2.5015,2.7421-5.31479,1.48264-7.81897,1.70963c0.24689-1.26682,0.55493-2.42387,0.68103-3.60045
					c0.15579-1.45075,0.13965-2.92012,0.27823-4.37244l-2.54739,0.96232c0.01627,0.06335,0.03256,0.12668,0.04898,0.19003
					c-4.64389,4.99006-9.28766,9.98015-14.12247,15.1755c1.10559,0.20891,1.87958,0.26485,2.58997,0.50709
					c1.80338,0.61482,3.12149,0.05647,4.29269-1.38145c2.13223-2.6181,5.43353-2.32034,8.3013-3.19086
					c-1.67877,1.81942-3.48718,3.45061-5.20309,5.17385c-0.5849,0.58736-0.93738,1.40619-1.35159,2.05012
					c-3.71796,0.64594-4.85962,4.8047-8.05399,6.35216c-0.86707-2.25415-1.71481-4.45862-2.66452-6.92796
					c-0.07803,0.09586-0.15271,0.186-0.23032,0.28111l-0.28461,0.75357l-0.46808,0.16555
					c-1.56287,1.9037-3.04514,3.68825-4.45496,5.51712c-0.73383,0.95218-1.39252,1.29236-2.53751,0.65932
					c-0.41788-0.23111-1.40851-0.1976-1.62421,0.09447c-2.43906,3.30344-4.77838,6.6806-7.27631,10.22525
					c0.87512,0.05687,1.47858,0.09612,2.33212,0.15155c-2.01892,2.47983-3.92407,4.7607-5.74387,7.10773
					c-0.3461,0.44643-0.35446,1.15465-0.51874,1.7421c0.16382,0.06982,0.32751,0.13963,0.49118,0.2095
					c-0.31686,0.40697-0.63388,0.8139-1.03107,1.3239c5.42126,0.08234,8.33099-4.09436,12.21112-6.76454
					c0.16306,0.76633,0.28949,1.36031,0.45831,2.15398c2.82883-2.00513,5.46796-3.95071,8.19485-5.76416
					c0.8508-0.56578,1.96616-1.14844,2.91354-1.07974c3.41476,0.24753,6.22015-1.00984,8.89413-2.9153
					c1.31036-0.9339,2.78409-1.63643,4.11255-2.54784c1.71957-1.17961,3.51929-1.95653,5.659-1.89172
					c0.54504,0.01654,1.15277-0.27438,1.64532-0.5687c3.48782-2.08424,6.95996-4.19511,10.41656-6.33075
					c0.41815-0.25838,0.8479-0.65567,1.04199-1.09125c0.79987-1.79375,1.49445-3.63425,2.26874-5.43994
					c0.15302-0.3568,0.42212-0.75494,0.74768-0.93238c2.92343-1.59401,5.84-3.20623,8.82138-4.68646
					c2.75613-1.36829,5.58936-2.58094,8.44434-3.88776C336.19366,111.23799,335.62064,110.96437,334.52704,111.37634z
					 M296.64679,132.90543c2.01074-0.8288,3.09735-3.226,5.80096-2.67058
					C299.68161,132.93227,297.95837,133.7872,296.64679,132.90543z"/>
				<path id="f11_00000124867873620406160840000002012351409396283807_" class="st1" d="M260.95087,111.29036
					c1.19992,0.51711,1.83319,1.1703,1.1441,2.52222c1.15137,0.21806,2.14001,0.40529,3.21854,0.60954
					c-1.20203,2.08171,1.32025,2.67505,1.50189,4.19907c-1.63348,2.34402-3.27347,4.69703-4.91318,7.05006
					c0.10602,0.15029,0.21207,0.30063,0.31808,0.45096c1.22806-0.29462,3.00024-0.18069,3.58426-0.9587
					c1.92993-2.57114,4.86719-2.73012,7.25305-3.88828c1.68503,2.01272,0.69382,3.55857-0.49545,5.17127
					c1.94775-0.68883,3.89566-1.37771,6.07932-2.14999c-0.36615-0.73093-0.67496-1.34761-0.85083-1.69875
					c1.9137-2.30255,3.64389-4.50494,5.50357-6.5919c2.38675-2.67849,4.86661-5.27468,7.33807-7.87616
					c0.2977-0.31341,0.78784-0.61114,1.19751-0.62316c2.12115-0.06203,4.24521-0.02882,6.36835-0.02882
					c0.02753,0.10716,0.05521,0.21438,0.08273,0.32155l2.54739-0.96232c0.00882-0.09309,0.01279-0.18673,0.02313-0.27967
					c0.0657-0.59497,0.29663-1.40129,0.73154-1.68799c2.5813-1.70202,3.07465-3.98934,2.28455-6.80758
					c-0.23825-0.84921-0.21466-1.77801-0.25696-2.67298c-0.01855-0.39201-0.04727-0.93533,0.17801-1.1623
					c1.36176-1.37162,2.3764-3.09906,4.50272-3.64693c2.38617-0.61472,4.69092-1.54523,7.03098-2.33834
					c-0.06039-0.22092-0.12094-0.44186-0.1813-0.66275c-2.49188-0.34417-4.43719,1.70352-6.77939,2.01354
					c0.07028-0.15474,0.14056-0.30952,0.21085-0.46428c-1.07153-0.39246-2.14307-0.78491-3.52295-1.29031
					c0.69278-2.22559,1.39557-4.48396,2.22006-7.13309c-0.18607-0.04639-0.79211-0.21236-1.4053-0.34528
					c-0.39276-0.08515-0.96063,0.02631-1.16797-0.20406c-1.25058-1.38976-2.41992-2.85278-3.85791-4.58176
					c-0.0155-0.00175-0.54794-0.06242-0.79803-0.0909c-0.36234,0.97456-0.51569,1.86697-0.97751,2.55138
					c-3.10535,4.60321-6.25668,9.17586-9.43143,13.73173c-2.95978,4.24722-5.96704,8.46135-9.01413,12.77627
					c-2.58286-2.06457-5.03168-4.02193-7.58258-6.06083c-0.73669,1.33941-1.38062,2.51027-2.20831,4.01501
					c-0.6698-0.84586-1.20435-1.5209-1.81433-2.29124c-0.88306,1.58871-1.5387,3.07491-2.4794,4.35097
					c-0.61166,0.82963-3.73117,0.84494-4.4343,0.22099c-0.72318,1.64214-1.4389,3.26783-2.18564,4.96354
					c-1.08066-0.62833-2.07339-1.20535-3.06598-1.78239c-0.11942,0.13819-0.23898,0.27643-0.35837,0.41464
					c0.27744,0.32299,0.49637,0.74383,0.84286,0.95117C258.50964,110.02849,259.69406,110.7489,260.95087,111.29036z"/>
				<path id="f2_00000085972642655659927360000012719356420463052735_" class="st1" d="M293.37708,74.86001
					c-0.09164-1.55613-0.1705-2.89556-0.25385-4.30977c-0.39957,0.18506-0.64981,0.30099-0.93829,0.43462
					c-0.01865-0.41238-0.03598-0.79726-0.05334-1.18215c-0.15091-0.11497-0.30179-0.22996-0.45276-0.34494
					c-0.12653,0.46826-0.25299,0.93649-0.37952,1.40472c-0.38696-0.5136-0.40991-0.68575-0.42725-0.85846
					c-0.06091-0.60471-0.11996-1.20961-0.17963-1.81441c-0.56888,0.2452-1.19376,0.40823-1.69629,0.7508
					c-1.60486,1.09411-3.16418,2.25491-4.88251,3.49165c-0.63098-1.64858-1.18564-3.0978-1.85373-4.84315
					c-0.83438,1.54527-1.47421,2.73038-2.23856,4.14593c-0.66431-1.83589-1.07596-3.41665-1.79019-4.84618
					c-1.1347-2.27095-1.2728-4.38967,0.29211-6.49242c0.04138-0.05558-0.05502-0.21365-0.16492-0.59039
					c-4.25317-1.84232-8.66617-3.75385-13.53589-5.86319c-0.15955,1.70095-0.27838,2.96753-0.42093,4.48742
					c-2.27328,0.79532-4.90094,1.74975-7.55441,2.6255c-1.05214,0.34724-1.63634,0.87938-1.93539,2.02968
					c-1.18671,4.56477-2.50496,9.09544-3.78131,13.63683c-0.90904,3.23454-1.82901,6.46603-2.74409,9.69888
					c-0.18893-0.01767-0.37775-0.03533-0.56668-0.05299c0-5.12634,0-10.25266,0-15.37897
					c-0.15596-0.00758-0.31201-0.01517-0.46808-0.02273c-0.17404,0.55399-0.36322,1.10371-0.51971,1.66259
					c-1.80377,6.43989-3.56706,12.89157-5.45471,19.30671c-0.20021,0.68021-1.04398,1.31052-1.742,1.64471
					c-0.33858,0.16206-1.05009-0.38195-1.55649-0.67003c-0.31607-0.17987-0.56458-0.47871-0.89178-0.76673
					c-1.56068,4.82894-1.56068,4.82894,2.00331,7.40749c-0.0715,0.53894-0.14545,1.09643-0.23965,1.80664
					c1.30266-0.23613,2.44897-0.44391,3.97786-0.72105c-0.38591,1.58437-0.40053,3.11171-1.13783,4.09985
					c-0.41708,0.55906-2.02124,0.23244-3.23601,0.31459c-0.9751,4.61997-1.96385,9.30461-2.95265,13.98926
					c-0.16122-0.01536-0.32236-0.03076-0.48352-0.04616c0-3.09232,0-6.18462,0-9.27695
					c-0.15955-0.00805-0.31911-0.01613-0.47867-0.0242c-0.73027,5.27972-1.46056,10.55943-2.21011,15.97887
					c0.71266-0.11944,1.23341-0.20672,1.85242-0.31044c-0.2607,1.36456-0.48203,2.52364-0.71994,3.76888
					c0.51559,0.11617,0.94637,0.21318,1.44547,0.32562c-0.41551,1.63277-0.80466,3.16214-1.19424,4.69295
					c0.88098,0.39812,1.56393,0.70679,2.3233,1.04994c0.74561-1.70702,1.43515-3.35648,2.19293-4.97394
					c0.20915-0.44635,0.64204-1.15045,0.93811-1.13365c1.69051,0.09592,2.03223-1.18921,2.59663-2.27962
					c0.76872-1.48521,1.49454-2.995,2.3269-4.44357c0.3015-0.52471,0.77917-1.11119,1.31105-1.31092
					c1.83479-0.68896,3.73409-1.20468,5.59691-1.82205c0.42543-0.14098,0.93848-0.32605,1.18173-0.65863
					c1.65262-2.26012,3.2438-4.56515,4.81477-6.79861c-0.48615-1.53898-2.89061-2.26662-1.39439-4.31198
					c-0.64694-0.35252-1.14044-0.73191-1.69783-0.90346c-1.37573-0.42334-1.53767-1.52467-1.23254-2.56248
					c0.14722-0.50057,1.04257-1.01349,1.65823-1.09985c1.7554-0.24627,2.81094-1.0647,3.55621-2.72369
					c1.18671-2.64157,2.65881-5.15488,4.07458-7.84464c2.59671,2.076,5.04443,4.03282,7.58289,6.06221
					c2.8396-4.02776,5.56125-7.88821,8.59433-12.19037c-3.03354,0.97327-5.53043,1.77435-8.42969,2.70454
					c2.54138-4.17574,4.83096-7.93774,6.84586-11.24835c2.98148-0.42216,5.56351-0.78775,8.47226-1.19961
					c-3.44299,5.6813-6.73904,11.12011-10.05969,16.59954c6.92758-0.47874,11.10962-4.30743,13.53571-10.41135
					c0.15494,0.03135,0.30984,0.06269,0.46487,0.09403c0.14371,0.54132,0.28751,1.08262,0.56442,2.12552
					c2.44989-3.35485,4.75034-6.42424,6.93741-9.57234c0.4079-0.58705,0.36118-1.4899,0.62546-2.71674
					C295.67896,73.4842,294.63138,74.11033,293.37708,74.86001z M251.7155,91.86802
					c-1.01601,2.53545-1.85591,5.14151-2.82874,7.8801c0.79626,0.14542,1.46222,0.26701,2.27135,0.41478
					c-0.49596,1.13687-0.96387,2.20928-1.50041,3.43925c-1.06166-0.5757-1.97884-1.07308-3.10344-1.68291
					c2.36739-3.72057,1.61012-7.7787,1.54054-11.72963c-0.03355-1.90273,1.47406-2.04959,2.47052-2.86089
					C252.41556,88.63963,252.42142,90.10658,251.7155,91.86802z"/>
				<path id="f1_00000181783048372583550510000002801906057281348750_" class="st1" d="M251.3777,53.82514
					c0.54076-0.81343,0.71925-1.08192,0.95049-1.42979c-0.966-0.60435-3.41286,1.38536-2.74988-1.65888
					c-2.41663-0.58472-4.70525-1.13848-7.09154-1.71585c-0.45146,2.13203-0.97949,3.97978-1.20049,5.86352
					c-0.19373,1.65178-1.18146,2.11975-3.03009,2.56673c0.26926-2.61987,0.27811-5.01267,0.82622-7.27491
					c0.40501-1.67204-1.76558-1.83221-1.39386-3.23685c-0.04987,0.0191-0.09972,0.03821-0.22581,0.08648
					c-0.14099,0.38148-0.30048,0.81321-0.47221,1.27798c-1.67471-0.26086-3.30937-0.5155-5.15186-0.80248
					c-0.54539,4.19281-1.07089,8.23351-1.59637,12.27304c-1.41095-1.25817-2.17128-2.70643-1.58427-4.69073
					c0.26822-0.90675,0.29295-1.88671,0.41571-2.83504c0.31877-2.46311,0.63089-4.92715,0.96281-7.52548
					c-2.60133-0.24741-4.95276-0.47112-7.44513-0.70815c-0.3951,5.62574-0.7748,11.03236-1.15225,16.40788
					c-2.02075,0.24228-3.48769-1.1982-3.35222-3.12142c0.25665-3.64211,0.51192-7.28426,0.76778-10.92639
					c-0.13213-0.02266-0.26437-0.04535-0.39659-0.06796c-0.97186,2.58072-1.9437,5.16142-2.91557,7.74218
					c-0.08955-0.01822-0.17911-0.03645-0.26875-0.05463c-0.19077-2.98405-0.38161-5.96814-0.57237-8.9522
					c-0.88519,4.69582-1.38359,9.38222-1.96239,14.05867c-0.21117,1.70704-0.72034,3.3792-0.8999,5.08762
					c-0.20023,1.90472,0.13828,3.9129-0.32115,5.73389c-1.00279,3.97457-0.11681,7.20322,2.81998,10.01632
					c0.52531,0.50312,0.85435,1.45848,0.86731,2.21198c0.1983,11.57227,0.3322,23.14561,0.47275,34.7188
					c0.02182,1.79394-0.00438,3.58843,0.00737,5.38254c0.00377,0.57356,0.0587,1.14674,0.09113,1.7357
					c3.5392-0.62791,3.65558-0.75674,4.05516-4.04391c0.09865-0.81139,0.26585-1.61446,0.40448-2.43888
					c0.80161-0.07758,1.43478-0.13889,2.14139-0.20729c1.06992-5.06947,2.13554-10.11882,3.19266-15.12797
					c3.23767,0.28727,3.23926,0.2877,4.06812-2.66148c0.19154-0.68126,0.36819-1.36672,0.55756-2.0722
					c-0.23976-0.19044-0.41895-0.34103-0.60646-0.48032c-0.81973-0.60874-1.64191-1.21421-2.46323-1.82086
					c0.98169-0.54456,1.90857-1.27119,2.95894-1.58736c1.29906-0.39098,1.92302-1.07205,2.27101-2.38026
					c1.50459-5.65729,3.11298-11.28706,4.69217-16.92445c0.57239-2.04324,1.16858-4.07976,1.75323-6.1169
					c2.06656,0.43394,3.90283,0.81956,5.77831,1.2134c0.31667-1.11459,0.70653-1.96176,0.78056-2.83571
					c0.40097-4.72853,2.95395-7.34085,7.59935-8.07748c1.39728-0.22157,2.63736-0.81149,2.83696-2.59869
					c1.06543,0.50513,1.99982,0.94811,3.03598,1.43941c0.34525-0.95358,0.61984-1.71201,0.93909-2.59359
					C257.00397,53.98225,254.65517,52.23136,251.3777,53.82514z M220.04605,80.92926
					c-0.14897,0.04088-0.29802,0.08176-0.44705,0.12261c-0.96581-2.01758-3.55804-3.13207-3.18045-6.11256
					c1.3709-0.14626,2.58372-0.27567,4.03955-0.43098C220.31323,76.76618,220.17969,78.84773,220.04605,80.92926z
					 M231.00822,60.91808c-0.31941-0.10756-0.47818-0.69124-0.70522-1.07394c-0.02461,0.01086-0.04942,0.02177-0.07405,0.03264
					c0,0,0.05705-0.06241,0.0574-0.06231c0.00578,0.00927,0.01096,0.02013,0.01665,0.02967
					c1.42551-0.62881,2.85144-1.25782,4.31355-1.90281C234.52605,59.53014,232.3163,61.35873,231.00822,60.91808z"/>
			</g>
			<path id="Full_00000169554603278936159490000004771631087274761353_" class="st1" d="M209.17784,47.31042
				c0,102.54343,0,204.9767,0,307.84195c-56.66405-2.2598-101.2523-25.99832-131.25912-74.25888
				c-30.5845-49.18961-30.18095-110.67802,0.05995-160.07878C109.55112,69.23882,163.28354,46.79595,209.17784,47.31042z"/>
		</g>
		<g id="FRACTION_00000014617248036175046060000015641540118604105607_">
			<path id="F_00000182509899456218764600000007819671817033110402_" class="st1" d="M83.32091,423.40039H61.69862v11.21182
				h-6.40667v-28.02957l5.60591-5.60529h-5.60591v-5.60593h28.02896v5.60593H61.69862v21.62225l4.80516-4.80515h16.81713V423.40039z
				"/>
			<path id="R_00000077315026162952899280000011712765429274510252_" class="st1" d="M128.96776,434.61221h-8.16823
				l-16.6571-16.81775h17.61789v-16.81711h-20.82154v33.63486h-6.40666v-28.10928l5.6059-5.52557h-5.6059v-5.60593h28.02895
				c1.49443,0,2.80327,0.56042,3.92406,1.68182c1.12142,1.12082,1.68184,2.42966,1.68184,3.9241v15.21561
				c0,4.27213-1.86922,6.40665-5.60591,6.40665h-4.80454v0.8811L128.96776,434.61221z"/>
			<path id="A_00000036947449291119828150000017837576039637010347_" class="st1" d="M174.21483,434.61221h-6.40668v-11.21182
				h-20.82152v11.21182h-6.40666v-33.63486c0-1.54797,0.54703-2.8696,1.64168-3.96426
				c1.09343-1.09406,2.41505-1.64166,3.96423-1.64166h28.02896L174.21483,434.61221z M167.80815,417.79446v-16.81711h-20.82152
				v21.62225l4.80516-4.80515H167.80815z"/>
			<path id="C_00000103247224010478030540000012379015708265180835_" class="st1" d="M221.86359,429.00632
				c0,1.54916-0.54825,2.87018-1.64168,3.96423c-1.09467,1.09464-2.41628,1.64166-3.96425,1.64166h-22.42303
				c-1.54919,0-2.8708-0.54703-3.96425-1.64166c-1.09465-1.09406-1.64168-2.41507-1.64168-3.96423v-28.02896
				c0-1.54797,0.54703-2.8696,1.64168-3.96426c1.09344-1.09406,2.41505-1.64166,3.96425-1.64166h22.42303
				c1.54797,0,2.86958,0.54761,3.96425,1.64166c1.09343,1.09467,1.64168,2.41629,1.64168,3.96426v5.60529h-6.40669v-5.60529
				h-20.8215v28.02896h20.8215v-5.60593h6.40669V429.00632z"/>
			<path id="T_00000028303925865236810740000002208284591482563261_" class="st1" d="M256.69897,400.97736h-11.61221v33.63486
				h-6.40666v-33.63486h-11.61221v-5.60593h29.63109V400.97736z"/>
			<path id="I_00000132066338768455728770000015427697126971009688_" class="st1" d="M270.71225,434.61221h-6.40668v-39.24078
				h6.40668V434.61221z"/>
			<path id="O_00000179620282403441816310000015814464985241500309_" class="st1" d="M318.36099,429.00632
				c0,1.54916-0.54825,2.87018-1.64169,3.96423c-1.09464,1.09464-2.41626,1.64166-3.96423,1.64166h-22.42303
				c-1.54919,0-2.87082-0.54703-3.96423-1.64166c-1.09467-1.09406-1.64169-2.41507-1.64169-3.96423v-28.02896
				c0-1.54797,0.54703-2.8696,1.64169-3.96426c1.09341-1.09406,2.41504-1.64166,3.96423-1.64166h22.42303
				c1.54797,0,2.8696,0.54761,3.96423,1.64166c1.09344,1.09467,1.64169,2.41629,1.64169,3.96426V429.00632z M311.95432,429.00632
				v-28.02896h-20.82153v28.02896H311.95432z"/>
			<path id="N_00000012471983544171968400000016670508507798031022_" class="st1" d="M366.01035,434.53189h-11.21121
				l-15.21625-33.2345h-3.20303l2.40228,4.00443v29.23007h-6.40668v-39.24078h11.29156l15.13589,33.2345h3.20364l-2.40289-4.00378
				v-29.23071h6.40668V434.53189z"/>
		</g>
		<g id="TOKEN_00000035532903306502827500000016720375991261437058_">
			
				<rect id="O_Inner_00000052807715349269576260000008364328557152035509_" x="142.11467" y="451.61548" class="st1" width="7.77636" height="10.46828"/>
			<path id="TOKEN_00000057139923755685033440000001043211032623610270_" class="st1" d="M55.47308,440.98553v27.99756h310.71109
				v-27.99756H55.47308z M90.37451,449.74625h-4.33663v12.56143h-2.39255v-12.56143H79.3087v-2.09317h11.06579v2.09317H90.37451z
				 M152.28355,460.21454c0,0.57806-0.20505,1.0715-0.61331,1.48041c-0.40889,0.40891-0.90239,0.61273-1.48044,0.61273h-8.37389
				c-0.57866,0-1.07213-0.20383-1.48041-0.61273c-0.40889-0.40891-0.61334-0.90234-0.61334-1.48041v-10.46829
				c0-0.57806,0.20444-1.07153,0.61334-1.48041c0.40828-0.40829,0.90175-0.61276,1.48041-0.61276h8.37389
				c0.57803,0,1.07153,0.20447,1.48044,0.61276c0.40828,0.40887,0.61331,0.90234,0.61331,1.48041V460.21454z M214.64165,454.1431
				c0.57805,0,1.07152,0.20444,1.48041,0.61273c0.40829,0.40891,0.61336,0.9024,0.61336,1.48047v6.07138h-2.39314v-6.2807h-7.77576
				v6.2807h-2.39255v-14.6546h2.39255v7.98508l7.95525-7.98508h2.96085l-6.6391,6.19067v0.29935H214.64165z M278.64447,449.74625
				h-8.0751v5.98196l1.7944-1.79443h6.2807v2.0932h-8.0751v4.18756h8.0751v2.09314h-10.46765v-10.46765l2.09317-2.09378h-2.09317
				v-2.09317h10.46765V449.74625z M342.34854,462.27786h-4.18753l-5.68259-12.41171h-1.19629l0.89752,1.49561v10.91611h-2.39255
				v-14.65457h4.21677l5.65274,12.41171h1.19629l-0.89752-1.49561v-10.91611h2.39316V462.27786z"/>
		</g>
	</g>
</g>
<g id="CryptoStamp">
</g>
</svg>
