<?xml version="1.0" encoding="utf-8"?>
<!-- Generator: Adobe Illustrator 27.0.1, SVG Export Plug-In . SVG Version: 6.00 Build 0)  -->
<svg version="1.1" id="Ebene_1" xmlns="http://www.w3.org/2000/svg" xmlns:xlink="http://www.w3.org/1999/xlink" x="0px" y="0px"
	 viewBox="0 0 400 400" style="enable-background:new 0 0 400 400;" xml:space="preserve">
<style type="text/css">
	.st0{fill:#F2F2F2;}
	.st1{fill:#4C568B;}
	.st2{fill:#42B9BD;}
</style>
<rect class="st0" width="400" height="400"/>
<g>
	<path class="st1" d="M186.48,206.94c0,1.83,0,3.67,0,6c2.42,0,4.85,0,7.29,0c2.33,0,4.67,0,7,0c2.47,0,4.95,0,7.56,0
		c0,7.65,0,15.1,0,22.91c-2.46,0-5.05,0-7.73,0c0,9.47,0,18.58,0,27.89c2.43,0,4.88,0,7.58,0c0.55,2.22,0.23,4.35,0.29,6.44
		c0.05,2.14,0.01,4.29,0.01,6.6c2.28,0,4.4,0,6.88,0c0,2.4,0,4.65,0,7.06c4.8,0,9.25,0,13.91,0c0,5.41,0,10.64,0,16.06
		c-2.2,0-4.32,0-6.62,0c0,7.29,0,14.41,0,21.64c-2.33,0.92-4.69-0.03-7.06,0.59c0,6.78,0,13.57,0,20.7c-2.4,0-4.65,0-7,0
		c0,2.13,0,3.92,0,5.9c2.1,0,4.22,0,6.65,0c0.48,2.56,0.17,5.02,0.22,7.44c0.06,2.48,0.01,4.95,0.01,7.59c-24.29,0-48.4,0-72.87,0
		c0-2.08,0-4.34,0-6.74c-7.47,0-14.59,0-22.06,0c0-2.4,0-4.65,0-7.06c-4.8,0-9.25,0-13.88,0c0-2.28,0-4.4,0-6.64
		c-2.33-0.94-4.69,0.03-7.06-0.6c0-2.1,0-4.22,0-6.7c-2.4,0-4.65,0-7.06,0c0-2.47,0-4.59,0-6.9c-4.62,0-9.06,0-13.67,0
		c-0.92-2.33,0.02-4.68-0.61-7.04c-2.06,0-4.18,0-6.66,0c0-2.4,0-4.65,0-7.06c-2.47,0-4.59,0-7.06,0c0-5.07,0-9.98,0-15.06
		c-2.8,0-5.26,0-7.88,0c0-2.28,0-4.4,0-6.65c-2.33-0.9-4.69,0.03-7.06-0.58c0-4.45,0-8.9,0-13.71c-2.4,0-4.65,0-7.06,0
		c0-5.13,0-9.92,0-14.89c-2.28,0-4.4,0-6.78,0c-0.54-2.39-0.21-4.69-0.27-6.94c-0.06-2.31-0.01-4.62-0.01-7.1c-2.28,0-4.41,0-6.88,0
		c0-14.07,0-27.98,0-42.05c-2.46,0-4.59,0-6.91,0c0-8.08,0-15.98,0-24.06c2.2,0,4.32,0,6.79,0c0-1.78,0-3.4,0-5.03
		c-0.08-0.99,0.61-1,1.29-1c4.47,0,8.94,0,13.76,0c0,4.76,0,9.34,0,14.07c2.47,0,4.59,0,7.05,0c0,5.07,0,9.98,0,15.05
		c2.47,0,4.59,0,7.05,0c0,2.41,0,4.65,0,7.05c2.48,0,4.6,0,6.88,0c0,2.29,0,4.42,0,6.62c4.74,0,9.31,0,13.84,0c0-4.65,0-9.1,0-13.9
		c-2.36,0-4.61,0-7.01,0c0-2.47,0-4.59,0-6.67c-2.36-0.67-4.72,0.34-7.05-0.64c0-2.23,0-4.35,0-6.63c-2.3,0-4.42,0-6.61,0
		c0-5.08,0-9.98,0-15.04c11.65,0,23.1,0,34.89,0c0-2.4,0-4.65,0-7.04c9.8,0,19.25,0,28.89,0c0-4.47-0.02-8.77,0.02-13.08
		c0.01-0.72-0.39-1.78,0.98-1.79c2.29,0,4.57,0,6.92,0c0.27,7.23-0.19,14.13,0.26,21.18c2.48,0,4.59,0,6.86,0c0,2.3,0,4.42,0,6.7
		c4.61,0,9.06,0,13.34,0c0.64,0.64,1.11,1.11,1.75,1.75c0,1.95,0,4.07,0,6.36c2.47,0,4.78-0.04,7.08,0.01
		c2.26,0.05,4.56-0.25,6.77,0.21c0,2.46,0,4.62,0,6.78c-0.99-0.08-1,0.61-1,1.29c0,2.14,0,4.28,0,6.76c-2.43,0-4.68,0-7.07,0
		c0,2.47,0,4.58,0,7.04c-7.07,0-13.97,0-20.53,0c-1.09,2.42,0.82,5.07-1.98,6.91c-8.72,0-17.68,0-26.65,0.01
		c-0.14,0-0.3,0.08-0.43,0.17c-0.13,0.09-0.23,0.23-0.16,0.16c0,4.64,0,9.09,0,13.57c9.29,0,18.4,0,27.85,0c0-2.32,0-4.57,0-6.96
		c7.46,0,14.57,0,22.03,0c0-2.4,0-4.65,0-7.04c4.8,0,9.25,0,14.04,0c0-2.4,0-4.65,0-7.04c2.47,0,4.59,0,7.05,0c0-2.41,0-4.65,0-6.87
		C181.49,206.94,183.98,206.94,186.48,206.94z M100.48,227.94c-0.05-4.67,0.21-9.33-0.16-13.82c-4.8,0-9.24,0-13.82,0
		c0,2.48-0.05,4.79,0.01,7.09c0.06,2.25-0.27,4.54,0.22,6.73C91.35,227.94,95.67,227.94,100.48,227.94z"/>
	<path class="st2" d="M122.49,155.95c-1.38,0.01-0.98,1.07-0.98,1.79c-0.03,4.3-0.02,8.61-0.02,13.08c-9.64,0-19.09,0-28.89,0
		c0,2.39,0,4.64,0,7.04c-11.8,0-23.24,0-34.89,0c0,5.07,0,9.97,0,15.04c2.19,0,4.31,0,6.61,0c0,2.28,0,4.4,0,6.63
		c2.32,0.98,4.68-0.03,7.05,0.64c0,2.07,0,4.19,0,6.67c2.39,0,4.65,0,7.01,0c0,4.8,0,9.25,0,13.9c-4.53,0-9.09,0-13.84,0
		c0-2.2,0-4.32,0-6.62c-2.28,0-4.4,0-6.88,0c0-2.4,0-4.64,0-7.05c-2.46,0-4.58,0-7.05,0c0-5.06,0-9.98,0-15.05
		c-2.46,0-4.58,0-7.05,0c0-4.73,0-9.31,0-14.07c-4.82,0-9.29,0-13.76,0c-0.68,0-1.37,0.01-1.29,1c-2.16,0-4.32,0-6.67,0
		c-0.87-2.14,0.1-4.49-0.55-6.85c-2.4,0-4.85,0-7.54,0c0-19.69,0-39.22,0-59.1c2.42,0,5,0,7.73,0c0-2.46,0-4.57,0-6.87
		c2.27,0,4.38,0,6.85,0c0-2.39,0-4.62,0-7.02c4.79,0,9.23,0,13.78,0c0.95-2.31-0.03-4.66,0.65-7.16c7.2,0,14.48,0,21.75,0
		c0.01,1.36,1.05,0.99,1.77,0.99c15.22,0.02,30.44-0.02,45.66,0.07c1.4,0.01,2.43-0.53,3.56-1.06c21.25,0,42.5,0,63.92,0
		c0,2.36,0,4.48,0,6.94c4.72,0,9.3,0,14.03,0c0,2.45,0,4.57,0,6.87c4.27,0,8.38,0,12.81,0c0.71-1.95-0.14-4.29,0.44-6.64
		c7.06,0,14.16,0,21.62,0c0-2.38,0-4.62,0-7.17c7.29,0,14.23,0,21.17,0c1.14,0.53,2.17,1.06,3.58,1.06
		c19.61-0.08,39.23-0.08,58.84,0c1.41,0.01,2.44-0.53,3.58-1.06c14.26,0,28.53,0,42.99,0c-1.58,2.32-0.76,4.55-1.06,6.86
		c5.03,0,9.81,0,14.94,0c0,2.39,0,4.63,0,7.04c2.46,0,4.57,0,7.04,0c0,5.06,0,9.96,0,15.03c2.45,0,4.57,0,6.89,0
		c0,2.73,0,5.3,0,8.04c-2.21,0-4.33,0-6.62,0c0,4.61,0,9.05,0,13.76c-2.38,0.52-4.67,0.2-6.92,0.26c-2.31,0.06-4.61,0.01-7.25,0.01
		c0,4.44,0,8.72,0,13c-1.66,0.17-0.96,1.47-0.97,2.26c-0.05,9.24-0.03,18.49-0.03,27.73c-1.92,0-3.84,0-6,0c0,2.16,0,4.08,0,6
		c-0.63-0.11-0.97,0.27-0.98,0.79c-0.05,1.97-0.02,3.93-0.02,5.71c-0.53,0.53-0.88,0.88-1.58,1.58c-1.55,0-3.46,0-5.51,0
		c0,2.12,0,3.91,0,5.51c-0.52,0.52-0.87,0.87-1.25,1.25c-2.16,0.58-4.51-0.39-6.82,0.55c0,2.22,0,4.33,0,6.38
		c-2.02,0.61-4.04-0.28-6.01,0.65c0,1.87,0,3.66,0,5.24c-0.53,0.53-0.88,0.88-1.38,1.38c-4.28,0-8.72,0-13.49,0
		c0,2.38,0,4.62,0,6.87c-7.21,0.27-14.1-0.19-20.95,0.27c0,2.83,0,5.32,0,7.81c-9.6,0-19.19,0-28.95,0c0-2.39,0-4.51,0-6.95
		c-7.38,0-14.61,0-21.99,0c0-2.44,0-4.55,0-7c-4.72,0-9.29,0-14.01,0c0-2.45,0-4.56,0-6.86c-2.26,0-4.38,0-6.6,0
		c-0.97-2.66-0.03-5.32-0.65-8.18c-1.88,0-3.83,0-5.79,0c-0.63,0.11-0.97-0.27-0.98-0.79c-0.05-1.97-0.02-3.95-0.02-6.27
		c-2.44,0-4.69,0-7.09,0c0-4.8,0-9.26,0-13.88c-2.29,0-4.41,0-6.2,0c-0.76-0.68-1.26-1.12-1.9-1.69c0-6.7,0-13.48,0-20.25
		c-1.98,0-3.76,0-5.9,0c0,4.68,0,9.26,0,14c-2.47,0-4.59,0-6.91,0c0,4.48,0.02,8.78-0.02,13.09c-0.01,0.72,0.39,1.78-0.98,1.79
		c-1.94,0-3.87,0-6,0c0,4.86,0,9.43,0,14c-2.5,0-4.99,0-7.84,0c0,2.22,0,4.46,0,6.87c-2.46,0-4.58,0-7.05,0c0,2.39,0,4.64,0,7.04
		c-4.79,0-9.24,0-14.04,0c0,2.39,0,4.64,0,7.04c-7.46,0-14.57,0-22.03,0c0,2.39,0,4.64,0,6.96c-9.46,0-18.57,0-27.85,0
		c0-4.48,0-8.93,0-13.57c-0.07,0.07,0.03-0.07,0.16-0.16c0.12-0.09,0.28-0.17,0.43-0.17c8.96-0.01,17.93-0.01,26.65-0.01
		c2.8-1.84,0.89-4.49,1.98-6.91c6.56,0,13.46,0,20.53,0c0-2.46,0-4.57,0-7.04c2.39,0,4.64,0,7.07,0c0-2.48,0-4.62,0-6.76
		c0-0.68,0.01-1.37,1-1.29c1.94,0,3.88,0,5.78,0c0.61-2.49-0.27-4.82,0.58-7.12c2.22,0,4.33,0,6.73,0c0-4.69,0-9.23,0-13.91
		c2.4,0,4.51,0,6.92,0c0-2.08,0-4.02,0-5.96c0-5.33,0-10.67,0-16c2.28,0,4.57,0,6.75,0c0.65-2.52-0.25-4.86,0.56-7
		c2.38,0,4.54,0,6.69,0c0.01,1.37,1.07,0.97,1.79,0.98c2.16,0.04,4.33-0.03,6.49,0.03c2.25,0.07,4.54-0.28,6.91,0.28
		c0,4.71,0,9.15,0,13.75c2.3,0,4.42,0,6.87,0c0,7.06,0,13.96,0,21.02c2.45,0,4.57,0,7.02,0c0,5.07,0,9.97,0,15.03
		c2.79,0,5.24,0,8.03,0c0,2.4,0,4.65,0,7.03c4.79,0,9.24,0,13.53,0c0.61,0.7-0.01,1.98,1.35,1.87c0,1.27,0,2.54,0,4
		c4.53,0,8.77,0,13,0c0.15,0.76-0.5,1.91,1,2c0,1.61,0,3.22,0,5c6.87,0,13.44,0,20,0c0.01,1.37,1.07,0.98,1.79,0.99
		c5.32,0.03,10.64,0.05,15.96-0.01c1.42-0.02,2.93,0.44,4.43-0.53c0-2.09,0-4.21,0-6.47c4.62,0,9.07,0,13.85,0c0-2.39,0-4.64,0-7.02
		c4.79,0,9.23,0,13.51,0c0.52-0.52,0.87-0.87,1.25-1.25c0.67-1.82-0.37-3.87,0.69-5.84c1.76,0,3.55,0,5.61,0
		c-0.85-4.74,1.67-8.99,0.8-13.73c2.08,0,3.86,0,5.47,0c0.64-0.64,1.11-1.11,1.7-1.7c-0.44-2.39,0.71-5.09-1.07-7.42
		c0-13.6,0-27.2,0-41.15c-2.54,0-4.78,0-7,0c0-2.51,0-4.68,0-6.84c-0.79-2.14-2.58-0.93-3.79-0.93c-33.15-0.09-66.3-0.07-99.46-0.05
		c-0.91,0-2-0.49-2.93,0.77c0,1.88,0,4,0,6.27c-4.98,0-9.76,0-14.9,0c0,2.41,0,4.66,0,6.94c-6.18,0-12,0.02-17.82-0.01
		c-1.46-0.01-2.89,0-4.08,1.01c-6.94,0-13.89,0-20.74,0c-0.66-2.52,0.26-4.86-0.64-7.19c-2.27,0-4.39,0-6.66,0c0-2.3,0-4.42,0-6.81
		c-21.1,0-42.02,0-62.95,0c-1.01,0.05-1.41-1.08-2.58-1.06c-6.43,0.13-12.86,0.06-19.32,0.06c0,2.47,0,4.59,0,7
		c7.36,0,14.63,0,21.9,0c2.27,0,4.54,0,7.12,0c0,2.52,0,4.75,0,7.1c2.43,0,4.53,0,6.87,0C122.49,146.78,122.49,151.37,122.49,155.95
		z M85.4,143.13c-18.89,0-37.32,0-55.9,0c0,9.14,0,18.11,0.01,27.08c0,0.14,0.09,0.3,0.18,0.42c0.1,0.13,0.24,0.21,0.16,0.14
		c18.64,0,37.07,0,55.55,0C85.4,161.48,85.4,152.37,85.4,143.13z"/>
	<path class="st1" d="M364.46,185.94c0-9.24-0.02-18.49,0.03-27.73c0-0.8-0.69-2.09,0.97-2.26c2.17,0,4.33,0,6.5,0
		c0.72,4.25,0.97,65.39,0.32,79.84c-2.1,0-4.22,0-6.69,0c0,7.07,0,13.97,0,21.05c-2.46,0-4.58,0-7.05,0c0,7.4,0,14.64,0,22.05
		c-2.79,0-5.25,0-7.89,0c0,2.27,0,4.39,0,6.65c-2.32,0.95-4.68-0.03-7.04,0.63c0,4.4,0,8.85,0,13.65c-2.39,0-4.65,0-7.05,0
		c0,2.8,0,5.25,0,8.05c-2.39,0-4.65,0-7.05,0c0,2.47,0,4.59,0,6.88c-2.28,0-4.4,0-6.63,0c-0.97,2.32,0.03,4.69-0.63,7.05
		c-2.08,0-4.2,0-6.68,0c0,2.4,0,4.64,0,7.05c-2.47,0-4.58,0-7.05,0c0,2.4,0,4.65,0,7.05c-2.8,0-5.25,0-7.88,0c0,2.28,0,4.4,0,6.88
		c-4.73,0-9.31,0-14.05,0c0,2.46,0,4.58,0,7.05c-4.73,0-9.31,0-14.05,0c0,2.47,0,4.58,0,6.89c-4.61,0-9.06,0-13.68,0
		c-0.87,2.33,0.01,4.67-0.59,7.03c-2.73,0-5.52,0-8.57,0c-0.68-2.01,0.14-4.35-0.39-6.72c-6.82,0-13.61,0-20.61,0
		c0-5.07,0-9.97,0-15.05c2.16,0,4.28,0,6.59,0c0-2.27,0-4.39,0-6.77c2.39-0.54,4.68-0.21,6.94-0.27c2.31-0.06,4.62-0.01,7.1-0.01
		c0-2.28,0-4.4,0-6.87c5.06,0,9.97,0,15.05,0c0-2.8,0-5.25,0-8.05c2.4,0,4.65,0,7.05,0c0-2.47,0-4.59,0-6.89c2.28,0,4.4,0,6.64,0
		c0.97-2.32-0.03-4.68,0.64-7.04c2.07,0,4.19,0,6.66,0c0-2.4,0-4.65,0-7.05c2.46,0,4.58,0,7.05,0c0-2.39,0-4.65,0-7.05
		c4.8,0,9.25,0,13.88,0c0-7.28,0-14.4,0-21.87c2.39,0,4.64,0,7.05,0c0-4.8,0-9.25,0-14.05c2.4,0,4.64,0,7,0c0-4.47,0-8.58,0-13.05
		c-2.19,0-4.44,0-6.85,0c0-2.47,0-4.59,0-7.05c-4.45,0-8.74,0-13.02,0c0-2.49,0-4.97,0-7.81c6.85-0.46,13.74,0,20.95-0.27
		c0-2.25,0-4.49,0-6.87c4.77,0,9.21,0,13.49,0c0.51-0.51,0.86-0.86,1.38-1.38c0-1.59,0-3.37,0-5.24c1.97-0.93,4-0.04,6.01-0.65
		c0-2.05,0-4.16,0-6.38c2.31-0.94,4.66,0.03,6.82-0.55c0.38-0.38,0.73-0.73,1.25-1.25c0-1.6,0-3.39,0-5.51c2.04,0,3.96,0,5.51,0
		c0.69-0.69,1.05-1.05,1.58-1.58c0-1.78-0.03-3.75,0.02-5.71c0.01-0.51,0.35-0.9,0.98-0.79c1.92,0,3.84,0,6,0
		C364.46,189.78,364.46,187.86,364.46,185.94z"/>
	<path class="st1" d="M315.46,91.96c-1.14,0.53-2.17,1.06-3.58,1.06c-19.61-0.08-39.23-0.08-58.84,0c-1.41,0.01-2.44-0.53-3.58-1.06
		c0-1.83,0-3.66,0-5.68c-2.15-0.85-4.51,0.1-6.88-0.52c0-2.11,0-4.23,0-6.7c-4.73,0-9.31,0-14.05,0c0-2.47,0-4.58,0-6.9
		c-2.61,0-5.06,0-7.82,0c-0.49-2.56-0.17-5.01-0.23-7.43c-0.06-2.48-0.01-4.95-0.01-7.6c-2.27,0-4.4,0-6.87,0c0-2.4,0-4.64,0-7.06
		c-4.8,0-9.25,0-13.91,0c0-2.74,0-5.31,0-7.99c5.18,0,10.3,0,15.6,0c0,2.12,0,4.24,0,6.48c2.32,0.97,4.68-0.03,7.05,0.64
		c0,2.07,0,4.19,0,6.66c2.4,0,4.65,0,7.06,0c0,2.47,0,4.58,0,7.06c5.07,0,9.98,0,15.05,0c0,2.8,0,5.25,0,7.88c1.62,0,3.07,0,4.78,0
		c0-9.05,0-18.29,0-27.7c-4.4,0-8.85,0-13.52,0c0-2.73,0-5.3,0-8c5.15,0,10.26,0,15.73,0c0,2.21,0,4.46,0,6.86c4.8,0,9.25,0,13.88,0
		c0,2.28,0,4.4,0,6.88c4.73,0,9.31,0,14.05,0c0,2.46,0,4.58,0,7.06c2.4,0,4.65,0,7.06,0c0,2.47,0,4.59,0,6.89c2.28,0,4.4,0,6.87,0
		c0,2.73,0,5.3,0,8.04c2.46,0,4.59,0,7.06,0c0,2.4,0,4.65,0,7.06c2.8,0,5.25,0,8.06,0c0,2.4,0,4.65,0,7.06c2.47,0,4.59,0,7.06,0
		C315.46,87.38,315.46,89.67,315.46,91.96z"/>
	<path class="st1" d="M115.49,91.96c-1.13,0.53-2.15,1.06-3.56,1.06c-15.22-0.09-30.44-0.05-45.66-0.07c-0.72,0-1.76,0.38-1.77-0.99
		c0-4.49,0-8.98,0-13.67c2.14-0.88,4.5,0.11,6.86-0.55c0-2.06,0-4.19,0-6.65c2.39,0,4.64,0,7.04,0c0-2.79,0-5.24,0-7.75
		c4.71-1.49,9.07,1.14,13.91,0.59c0-2.49,0-5.06,0-7.79c2.46,0,4.58,0,7.05,0c0-2.39,0-4.64,0-7.01c3.12,0,5.91,0,8.91,0
		c0,2.47,0,5.04,0,7.78c-2.48,0-4.93,0-7.58,0c0,2.07,0,3.97,0,6.04c7.21,0,14.32,0,21.61,0c0,5.26,0,10.37,0,15.8
		c-1.95,0.71-4.29-0.14-6.81,0.48C115.49,83.39,115.49,87.67,115.49,91.96z"/>
	<path class="st1" d="M193.66,42.86c-5.31,0-10.09,0-15.05,0c0-2.21,0-4.33,0-6.67c-2.06,0-3.97,0-6.05,0c0,2.14,0,4.25,0,6.72
		c-4.73,0-9.31,0-14.05,0c0,2.46,0,4.58,0,6.87c-2.95,0-5.73,0-8.77,0c-0.8-1.97,0.17-4.33-0.46-6.7c-2.1,0-4.22,0-6.56,0
		c0-2.73,0-5.3,0-8.05c4.47,0,8.92,0,13.72,0c0-2.39,0-4.65,0-6.97c24.45,0,48.55,0,72.85,0c0,2.44,0,4.89,0,7.71
		c-5.7,0.4-11.62,0.12-17.53,0.17c-5.97,0.05-11.95,0.01-18.1,0.01C193.66,38.21,193.66,40.34,193.66,42.86z"/>
	<path class="st1" d="M192.48,192.94c1.38-0.01,0.98-1.07,0.98-1.79c0.03-4.3,0.02-8.61,0.02-13.09c2.32,0,4.44,0,6.91,0
		c0-4.73,0-9.31,0-14c2.13,0,3.92,0,5.9,0c0,6.77,0,13.55,0,20.25c0.64,0.57,1.14,1.01,1.9,1.69c1.79,0,3.91,0,6.2,0
		c0,4.62,0,9.08,0,13.88c2.4,0,4.65,0,7.09,0c0,2.32-0.03,4.29,0.02,6.27c0.01,0.52,0.35,0.91,0.98,0.79c0.08,0.99-0.61,1-1.29,1
		c-9.46,0-18.92,0-28.71,0C192.48,202.84,192.48,197.89,192.48,192.94z"/>
	<path class="st1" d="M220.64,363.01c2.95,0,5.73,0,8.67,0c0,2.85,0,5.63,0,8.87c-2.71,0.11-5.6,0-8.67,0.06
		C220.64,368.99,220.64,366.21,220.64,363.01z"/>
	<path class="st2" d="M100.48,227.94c-4.81,0-9.13,0-13.75,0c-0.5-2.19-0.16-4.48-0.22-6.73c-0.06-2.3-0.01-4.61-0.01-7.09
		c4.58,0,9.02,0,13.82,0C100.69,218.6,100.43,223.27,100.48,227.94z"/>
	<path class="st1" d="M199.48,148.95c0-2,0-4,0-6c1.19-1.01,2.62-1.02,4.08-1.01c5.82,0.03,11.65,0.01,17.82,0.01
		c0-2.28,0-4.53,0-6.94c5.13,0,9.92,0,14.9,0c0-2.27,0-4.39,0-6.27c0.94-1.26,2.02-0.77,2.93-0.77c33.15-0.03,66.3-0.04,99.46,0.05
		c1.21,0,3-1.21,3.79,0.93c-1.95,0-3.91,0-6.03,0c0.15,6.9-0.18,13.46,0.22,20.17c2.78,0,5.23,0,7.81,0c0,9.13,0,18.09,0.01,27.04
		c0,0.14,0.08,0.3,0.15,0.43c0.09,0.14,0.22,0.25,0.31,0.35c1.54,0,3.04,0,4.53,0c1.78,2.33,0.64,5.03,1.07,7.42
		c-0.59,0.59-1.06,1.06-1.7,1.7c-1.61,0-3.4,0-5.47,0c0.87,4.74-1.65,8.99-0.8,13.73c-2.06,0-3.85,0-5.61,0
		c-1.06,1.97-0.02,4.03-0.69,5.84c-0.38,0.38-0.73,0.73-1.25,1.25c-4.28,0-8.72,0-13.51,0c0,2.38,0,4.63,0,7.02
		c-4.79,0-9.23,0-13.85,0c0,2.26,0,4.38,0,6.47c-1.5,0.97-3.02,0.51-4.43,0.53c-5.32,0.06-10.64,0.04-15.96,0.01
		c-0.72,0-1.77,0.39-1.79-0.99c0-1.61,0-3.22,0-5c-6.87,0-13.44,0-20,0c-1.5-0.09-0.85-1.24-1-2c0-1.62,0-3.24,0-5
		c-4.13,0-7.92,0-11.71,0c-0.68,0-1.36,0.02-1.28,1c-1.36,0.11-0.75-1.18-1.35-1.87c-4.29,0-8.74,0-13.53,0c0-2.39,0-4.63,0-7.03
		c-2.79,0-5.24,0-8.03,0c0-5.06,0-9.96,0-15.03c-2.45,0-4.57,0-7.02,0c0-7.06,0-13.96,0-21.02c-2.45,0-4.57,0-6.87,0
		c0-4.6,0-9.05,0-13.75c-2.37-0.56-4.66-0.21-6.91-0.28c-2.16-0.06-4.32,0.01-6.49-0.03C200.54,149.92,199.49,150.32,199.48,148.95z
		 M271.3,156.92c0,2.64,0,4.77,0,7.04c-2.29,0-4.4,0-6.86,0c0,2.4,0,4.65,0,7.04c-2.46,0-4.58,0-7.04,0c0,2.4,0,4.65,0,7.04
		c-2.46,0-4.58,0-6.7,0c0,4.74,0,9.3,0,13.76c4.67,0,9.12,0,13.6,0c0.52-2.34-0.29-4.68,0.5-7.01c2.27,0,4.39,0,6.45,0
		c0.64-2.36-0.32-4.71,0.61-7.03c2.25,0,4.37,0,6.64,0c0-2.29,0-4.41,0-6.87c2.4,0,4.65,0,7.04,0c0-2.46,0-4.58,0-7.04
		c2.4,0,4.65,0,6.79,0c0-4.79,0-9.24,0-13.67c-4.7,0-9.27,0-13.99,0c0,2.35,0,4.47,0,6.74C276.05,156.92,273.94,156.92,271.3,156.92
		z M293.14,163.93c1.31,5.14-1.22,9.39-0.66,14.09c-2.2,0-3.98,0-5.59,0c-0.53,0.53-0.88,0.88-1.23,1.23
		c-0.63,1.85,0.37,3.9-0.68,5.87c-1.8,0-3.59,0-5.18,0c-0.53,0.53-0.88,0.88-1.2,1.2c0,1.82,0,3.6,0,5.41c4.69,0,9.25,0,13.98,0
		c0-2,0-3.79,0-5.39c0.53-0.53,0.88-0.88,1.23-1.23c2.19-0.53,4.52,0.31,6.85-0.53c0-2.3,0-4.42,0-6.68c2.3,0,4.43,0,6.88,0
		c0-2.4,0-4.65,0-7.04c2.47,0,4.58,0,7.04,0c0-2.4,0-4.65,0-7.04c2.47,0,4.59,0,6.67,0c0.64-2.36-0.34-4.72,0.61-7.04
		c2.22,0,4.34,0,6.5,0c0-2.29,0-4.4,0-6.64c-6.99,0-13.88,0-20.94,0c0,1.97,0,3.75,0,5.35c-0.53,0.53-0.88,0.88-1.26,1.26
		c-1.82,0.67-3.87-0.37-5.84,0.69c0,2.1,0,4.22,0,6.49C298.04,163.93,295.93,163.93,293.14,163.93z"/>
	<path class="st1" d="M85.4,143.13c0,9.25,0,18.36,0,27.64c-18.48,0-36.92,0-55.55,0c0.08,0.07-0.06-0.02-0.16-0.14
		c-0.09-0.12-0.18-0.28-0.18-0.42c-0.01-8.97-0.01-17.94-0.01-27.08C48.08,143.13,66.51,143.13,85.4,143.13z M71.4,150.11
		c-4.88,0-9.31,0-13.82,0c0,1.94,0,3.71,0,5.22c0.57,0.69,0.99,1.19,1.51,1.81c1.77,0,3.54,0,5.46,0c0,2.3,0,4.41,0,6.61
		c2.39,0,4.62,0,6.86,0C71.4,159.13,71.4,154.7,71.4,150.11z"/>
	<path class="st1" d="M185.48,171.95c-4.16,0-8.32,0-12.67,0c-0.87,2.14,0.1,4.49-0.54,6.84c-5.07,0-10.18,0-15.54,0
		c0-7.4,0-14.96,0-22.84c9.54,0,19.15,0,28.75,0C185.48,161.28,185.48,166.61,185.48,171.95z"/>
	<path class="st1" d="M108.49,128.95c0,2,0,4,0,6c-7.27,0-14.54,0-21.9,0c0-2.41,0-4.52,0-7c6.46,0,12.89,0.07,19.32-0.06
		C107.08,127.87,107.48,129,108.49,128.95z"/>
	<path class="st2" d="M271.3,156.92c2.64,0,4.75,0,7.04,0c0-2.28,0-4.4,0-6.74c4.73,0,9.29,0,13.99,0c0,4.44,0,8.88,0,13.67
		c-2.14,0-4.39,0-6.79,0c0,2.46,0,4.58,0,7.04c-2.39,0-4.64,0-7.04,0c0,2.46,0,4.58,0,6.87c-2.27,0-4.39,0-6.64,0
		c-0.93,2.32,0.03,4.67-0.61,7.03c-2.06,0-4.18,0-6.45,0c-0.79,2.33,0.03,4.67-0.5,7.01c-4.49,0-8.93,0-13.6,0
		c0-4.46,0-9.02,0-13.76c2.12,0,4.23,0,6.7,0c0-2.39,0-4.64,0-7.04c2.46,0,4.58,0,7.04,0c0-2.39,0-4.64,0-7.04c2.46,0,4.58,0,6.86,0
		C271.3,161.69,271.3,159.57,271.3,156.92z"/>
	<path class="st2" d="M293.14,163.93c2.79,0,4.9,0,7.19,0c0-2.28,0-4.4,0-6.49c1.97-1.06,4.03-0.02,5.84-0.69
		c0.38-0.38,0.73-0.73,1.26-1.26c0-1.61,0-3.39,0-5.35c7.06,0,13.95,0,20.94,0c0,2.24,0,4.36,0,6.64c-2.16,0-4.28,0-6.5,0
		c-0.95,2.32,0.03,4.68-0.61,7.04c-2.09,0-4.21,0-6.67,0c0,2.39,0,4.64,0,7.04c-2.46,0-4.57,0-7.04,0c0,2.39,0,4.64,0,7.04
		c-2.46,0-4.58,0-6.88,0c0,2.27,0,4.38,0,6.68c-2.33,0.84-4.66,0-6.85,0.53c-0.35,0.35-0.71,0.71-1.23,1.23c0,1.6,0,3.39,0,5.39
		c-4.73,0-9.29,0-13.98,0c0-1.81,0-3.59,0-5.41c0.32-0.32,0.67-0.67,1.2-1.2c1.59,0,3.38,0,5.18,0c1.06-1.97,0.06-4.02,0.68-5.87
		c0.35-0.35,0.71-0.71,1.23-1.23c1.61,0,3.39,0,5.59,0C291.92,173.32,294.45,169.07,293.14,163.93z"/>
	<path class="st2" d="M71.4,150.11c0,4.59,0,9.02,0,13.64c-2.24,0-4.47,0-6.86,0c0-2.2,0-4.31,0-6.61c-1.91,0-3.69,0-5.46,0
		c-0.51-0.62-0.93-1.12-1.51-1.81c0-1.51,0-3.28,0-5.22C62.09,150.11,66.52,150.11,71.4,150.11z"/>
</g>
</svg>
