<?xml version="1.0" encoding="utf-8"?>
<!-- Generator: Adobe Illustrator 27.7.0, SVG Export Plug-In . SVG Version: 6.00 Build 0)  -->
<svg version="1.1" xmlns="http://www.w3.org/2000/svg" xmlns:xlink="http://www.w3.org/1999/xlink" x="0px" y="0px"
	 viewBox="0 0 50 50" style="enable-background:new 0 0 50 50;" xml:space="preserve">
<style type="text/css">
	.st0{fill:#263B30;}
	.st1{fill:#CDDF52;}
</style>
<g id="Ebene_2">
</g>
<g id="Ebene_1">
	<rect class="st0" width="50" height="50"/>
	<path class="st1" d="M11.518,22.561c0-1.216,0.401-2.324,1.093-3.201l7.326,7.324c-0.893,0.693-2.001,1.092-3.202,1.092
		C13.841,27.777,11.502,25.438,11.518,22.561z M33.312,27.762c2.878,0.016,5.218-2.324,5.218-5.216c0-1.2-0.401-2.308-1.093-3.201
		l-7.326,7.324C30.988,27.362,32.096,27.762,33.312,27.762z M25.001,28.716L9.055,12.776c0.446-0.569,0.924-1.123,1.416-1.647
		c3.664-3.831,8.819-6.232,14.546-6.232c5.726,0,10.897,2.401,14.545,6.232c0.508,0.508,0.985,1.077,1.385,1.631L25.001,28.716z
		 M12.656,12.638l12.359,12.356l12.361-12.356c-3.279-3.308-7.65-5.124-12.359-5.124S15.95,9.329,12.656,12.638z M25.001,45.103
		c11.097,0,20.102-9.001,20.102-20.095c0.031-3.831-1.031-7.386-2.878-10.417l-3.248,3.247c1.077,1.292,1.724,2.923,1.724,4.739
		c0,4.078-3.309,7.386-7.388,7.386c-1.801,0-3.447-0.646-4.741-1.724l-3.555,3.554l-3.556-3.554
		c-1.292,1.077-2.925,1.724-4.741,1.724c-4.079,0-7.388-3.308-7.388-7.386c0-1.801,0.646-3.446,1.724-4.739l-1.663-1.661
		l-1.586-1.584c-1.847,3.047-2.909,6.601-2.909,10.417C4.899,36.116,13.904,45.103,25.001,45.103z"/>
</g>
</svg>
