<?xml version="1.0" encoding="utf-8"?>
<svg version="1.1" id="Ebene_1" xmlns="http://www.w3.org/2000/svg" xmlns:xlink="http://www.w3.org/1999/xlink" x="0px" y="0px"
	 viewBox="0 0 512 512" style="enable-background:new 0 0 512 512;" xml:space="preserve">
<style type="text/css">
	.st0{fill:#FFFFFF;}
	.st1{fill:#0FCE7C;}
	.st2{fill:#0E0333;}
</style>
<g id="kudos">
	<rect class="st0" width="512" height="512"/>
	<g id="kudos_00000070115936064458052420000017265098622190511495_">
		<path class="st1" d="M263.1,178.7l14.1,44.5c1,3.1,3.9,5.2,7.1,5.1l46.7-0.4c7.2,0,10.2,9.2,4.4,13.4l-38,27.1
			c-2.6,1.9-3.7,5.2-2.7,8.4l14.7,44.2c2.2,6.9-5.6,12.6-11.4,8.2l-37.5-27.7c-2.6-1.9-6.1-1.9-8.7,0l-37.5,27.7
			c-5.7,4.2-13.7-1.4-11.4-8.2l14.7-44.2c1-3.1-0.1-6.5-2.7-8.4l-38-27.1c-5.9-4.2-2.9-13.5,4.4-13.4l46.7,0.4
			c3.2,0,6.1-2.1,7.1-5.1l14.1-44.5C251.1,171.8,260.8,171.8,263.1,178.7z"/>
		<path class="st2" d="M361.4,382.4c-5.4,0-10.6-2.8-13.5-7.8c-4.3-7.5-1.7-17,5.7-21.3l35.5-20.5v-40.9c0-8.6,7-15.6,15.6-15.6
			s15.6,7,15.6,15.6v50c0,5.6-3,10.7-7.8,13.5l-43.3,25C366.7,381.7,364,382.4,361.4,382.4z"/>
		<path class="st2" d="M404.7,235.8c-8.6,0-15.6-7-15.6-15.6v-40.9l-35.5-20.5c-7.5-4.3-10-13.9-5.7-21.3c4.3-7.5,13.9-10,21.3-5.7
			l43.3,25c4.8,2.8,7.8,7.9,7.8,13.5v50C420.3,228.8,413.3,235.8,404.7,235.8z"/>
		<path class="st2" d="M212.7,125c-5.4,0-10.6-2.8-13.5-7.8c-4.3-7.5-1.8-17,5.7-21.3l43.2-25c4.9-2.8,10.8-2.8,15.6,0l43.3,25
			c7.5,4.3,10,13.9,5.7,21.3c-4.3,7.5-13.9,10-21.3,5.7L256,102.4l-35.4,20.5C218.1,124.3,215.4,125,212.7,125z"/>
		<path class="st2" d="M107.3,235.8c-8.6,0-15.6-7-15.6-15.6v-50c0-5.6,3-10.7,7.8-13.5l43.2-25c7.5-4.3,17-1.8,21.3,5.7
			c4.3,7.5,1.8,17-5.7,21.3l-35.4,20.5v40.9C122.9,228.8,115.9,235.8,107.3,235.8z"/>
		<path class="st2" d="M150.5,382.4c-2.7,0-5.3-0.7-7.8-2.1l-43.2-25c-4.8-2.8-7.8-7.9-7.8-13.5v-50c0-8.6,7-15.6,15.6-15.6
			s15.6,7,15.6,15.6v41l35.4,20.5c7.5,4.3,10,13.9,5.7,21.3C161.1,379.6,155.9,382.4,150.5,382.4z"/>
		<path class="st2" d="M255.9,443.2c-2.7,0-5.4-0.7-7.8-2.1l-43.2-25c-7.5-4.3-10-13.9-5.7-21.3c4.3-7.5,13.9-10,21.3-5.7l35.4,20.5
			l35.5-20.5c7.4-4.3,17-1.7,21.3,5.7c4.3,7.5,1.7,17-5.7,21.3l-43.3,25C261.3,442.5,258.6,443.2,255.9,443.2z"/>
	</g>
</g>
</svg>
