<?xml version="1.0" encoding="utf-8"?>
<!-- Generator: Adobe Illustrator 27.0.1, SVG Export Plug-In . SVG Version: 6.00 Build 0)  -->
<svg version="1.1" id="Ebene_1" xmlns="http://www.w3.org/2000/svg" xmlns:xlink="http://www.w3.org/1999/xlink" x="0px" y="0px"
	 viewBox="0 0 256 256" style="enable-background:new 0 0 256 256;" xml:space="preserve">
<style type="text/css">
	.st0{fill:#00501E;}
	.st1{fill:#ABFE2C;}
</style>
<rect class="st0" width="256" height="256"/>
<g>
	<path class="st1" d="M128.22676,156.10513c-1.96928,0-48.708-0.40865-84.46049-36.17443
		c-0.75697-0.75031-1.49387-1.51386-2.21734-2.27742c-7.48943-7.89146-11.03989-17.28353-10.28961-27.15089
		c0.6699-8.70878,4.68927-17.1429,11.28776-23.76127c6.59845-6.61874,15.05927-10.62466,23.76107-11.28771
		c9.11742-0.67005,17.83282,2.29105,25.34251,8.65501c0.81031-9.80735,4.85674-18.08721,11.79688-24.03598
		c6.62499-5.68745,15.40739-8.81583,24.78584-8.81583c9.37881,0,18.16121,3.12838,24.78621,8.81583
		c6.9335,5.95539,10.98656,14.22863,11.79688,24.03598c7.50967-6.36397,16.22508-9.37881,25.34213-8.65501
		c8.70877,0.66968,17.14288,4.68922,23.75464,11.28771c6.61174,6.5985,10.63129,15.05912,11.2877,23.76127
		c0.75694,9.86736-2.8002,19.25942-10.283,27.16414c-0.72343,0.76356-1.46011,1.52748-2.21704,2.27779
		C176.94174,155.69649,130.20303,156.10513,128.22676,156.10513z M68.8941,62.77533c-8.10573,0-15.71577,3.7714-21.12853,9.17744
		c-9.72691,9.73372-14.14822,26.60159-0.85748,40.64938c0.67884,0.71901,1.37106,1.4314,2.0767,2.13678
		c33.61544,33.60875,78.7998,33.99751,79.24858,33.99751c0.44916,0,45.72739-0.46902,79.25549-33.99751
		c0.71019-0.7098,1.40231-1.42219,2.07678-2.13678c13.29086-14.06767,8.86929-30.91566-0.85744-40.64938
		c-9.7271-9.73373-26.60159-14.15493-40.66963-0.85744c-0.71902,0.67446-1.43103,1.3666-2.1368,2.07678
		c-0.54266,0.54266-1.0717,1.09857-1.5945,1.6545l-6.98689,7.40917l0.27464-10.16925c0-0.77682,0.04675-1.54736,0.04675-2.33118
		c0-1.0047,0-2.0094-0.04012-2.98097c-0.53568-19.32643-15.58853-28.1356-29.35469-28.1356
		c-13.76651,0-28.80575,8.80254-29.34841,28.1356c0,0.98483-0.04013,2.00978-0.04013,2.98097c0,0.76393,0,1.51424,0.04013,2.27116
		l0.27501,10.22926l-6.99389-7.36904c-0.52904-0.56255-1.06508-1.12546-1.61437-1.68138
		c-0.71017-0.71017-1.42256-1.40231-2.13715-2.07677C82.16471,65.16689,75.36521,62.77533,68.8941,62.77533z"/>
	<path class="st1" d="M123.50256,117.07674h-5.35928c0-7.97871-7.7707-14.47669-17.31003-14.47669
		s-17.31004,6.49798-17.31004,14.47669h-5.35927c0-10.93944,10.16888-19.8356,22.66931-19.8356
		C113.33331,97.24114,123.50256,106.13731,123.50256,117.07674z"/>
	<path class="st1" d="M177.99098,116.85585h-5.35927c0-7.97835-7.76407-14.4697-17.31003-14.4697
		s-17.31004,6.49135-17.31004,14.4697h-5.35927c0-10.93244,10.16888-19.82897,22.66931-19.82897
		C167.82175,97.02688,177.99098,105.92341,177.99098,116.85585z"/>
	<path class="st1" d="M107.0021,117.19013c4.25848,0,7.71069-3.45184,7.71069-7.71032c0-4.25848-3.45221-7.71069-7.71069-7.71069
		c-4.25848,0-7.71032,3.45221-7.71032,7.71069C99.29178,113.73829,102.74362,117.19013,107.0021,117.19013z"/>
	<path class="st1" d="M161.13121,117.19013c4.2581,0,7.71033-3.45184,7.71033-7.71032c0-4.25848-3.45222-7.71069-7.71033-7.71069
		c-4.25847,0-7.71069,3.45221-7.71069,7.71069C153.42052,113.73829,156.87274,117.19013,161.13121,117.19013z"/>
	<path class="st1" d="M128.20576,136.77795c-6.31684,0-12.17203-3.24898-14.90523-8.27324l4.6896-2.55905
		c1.81538,3.3495,5.81467,5.47302,10.20238,5.47302c4.3877,0,8.39362-2.15041,10.20238-5.47302l4.68922,2.55905
		C140.37779,133.52898,134.54324,136.77795,128.20576,136.77795z"/>
	<path class="st1" d="M224.24742,211.06409c-13.42892,6.28812-28.56609,7.93747-43.03432,4.68921
		c-11.97543-2.65515-22.96936-8.60678-31.73959-17.18265c5.55217,2.30098,11.50786,3.47134,17.51767,3.44337
		c10.39198,0.0022,20.52663-3.22874,29.00015-9.24481l-4.30083-5.98882c-11.59587,8.34688-27.5463,10.35664-40.13361,4.66934
		c-12.4198-5.5938-19.42694-17.56479-19.87572-33.79651v-5.23189h-7.36905v0.92445v4.26732
		c-0.42854,16.25157-7.4493,28.23621-19.88235,33.83662c-12.58731,5.67404-28.56425,3.69116-40.13352-4.68922l-4.29404,5.98883
		c8.46777,6.01828,18.59763,9.25365,28.9863,9.25769c6.01018,0.02945,11.96586-1.14091,17.51805-3.44301
		c-8.76768,8.57549-19.75976,14.5275-31.73298,17.18263c-14.46819,3.24863-29.60551,1.59929-43.03429-4.68921l-3.14182,6.66548
		c9.86199,4.62923,20.62427,7.02409,31.51861,7.01378c5.4738,0.00185,10.931-0.60231,16.27186-1.80214
		c16.38818-3.63812,31.02796-12.7979,41.46634-25.94479l0.04712-0.06038c2.44935-3.21327,4.59976-6.64413,6.42435-10.24951v37.92282
		h7.36868v-37.86906c1.82202,3.58733,3.96542,7.00235,6.40448,10.20238l0.04675,0.06038
		c10.43727,13.14507,25.07448,22.30484,41.4597,25.94519c5.34085,1.19945,10.79807,1.80396,16.27182,1.80176
		c10.89674,0.0103,21.66093-2.38457,31.52534-7.01378L224.24742,211.06409z"/>
</g>
</svg>
