<?xml version="1.0" encoding="UTF-8"?>
<!DOCTYPE svg PUBLIC "-//W3C//DTD SVG 1.1//EN" "http://www.w3.org/Graphics/SVG/1.1/DTD/svg11.dtd">
<!-- Creator: CorelDRAW 2020 (64-Bit) -->
<svg xmlns="http://www.w3.org/2000/svg" xml:space="preserve" width="1.66666in" height="1.66666in" version="1.1" style="shape-rendering:geometricPrecision; text-rendering:geometricPrecision; image-rendering:optimizeQuality; fill-rule:evenodd; clip-rule:evenodd"
viewBox="0 0 1666.66 1666.66"
 xmlns:xlink="http://www.w3.org/1999/xlink"
 xmlns:xodm="http://www.corel.com/coreldraw/odm/2003">
 <defs>
  <style type="text/css">
   <![CDATA[
    .fil0 {fill:black}
    .fil1 {fill:#FFD230}
    .fil2 {fill:#FFD230;fill-rule:nonzero}
   ]]>
  </style>
 </defs>
 <g id="Layer_x0020_1">
  <metadata id="CorelCorpID_0Corel-Layer"/>
  <g id="_1842322144432">
   <rect class="fil0" x="-2.81" y="0.21" width="1666.67" height="1666.67"/>
   <path class="fil1" d="M1045.53 786.8c-1.05,13.76 -2.16,27.5 -3.4,41.21 8.46,-2.81 16.91,-5.73 25.34,-8.61 7.31,-2.5 15.87,-5.71 23.5,-7.14 5.49,-1.03 11.09,0.65 15.3,5.98 4.13,5.04 5.61,11.51 5.78,17.8 0.19,7.12 -1.13,13.74 -3.78,19.65 -3.05,6.83 -8.16,11.17 -14.59,13.25 -7.91,2.53 -15.77,5.29 -23.61,8.02 -11.38,3.98 -22.89,7.64 -34.41,11.24 -1.58,15.33 -3.55,33.35 -3.38,48.72 1.19,-0.2 2.3,-0.42 3.06,-0.56l7.04 -1.31 27.62 -6.09c2.44,-0.59 5.35,-1.88 7.69,-2.8 5.64,-2.21 11.9,-2.06 17.37,3.13 5.29,5.02 7.25,12.26 7.45,19.39 0.31,11.48 -2.21,22 -9.81,28.35 -9.17,7.65 -34.58,12.29 -46.17,14.46 -11.42,2.15 -34.48,6.06 -44.42,-7.3 -7.83,-10.52 -9.52,-26.59 -9.86,-38.91 -0.78,-28.83 3.65,-63.27 6.94,-91.14 2.58,-21.77 6.87,-51.56 6.26,-74.27 0.02,-7.73 0.06,-16.48 1.13,-23.94 0.82,-5.79 2.75,-10.94 5.77,-15.28 3.29,-4.71 7.69,-7.6 13.04,-8.6 3,-0.57 6.01,-0.16 8.81,1.28 11.75,-6.72 24.56,-12.42 37.83,-14.92 9.98,-1.87 20.36,-2.15 30.81,-0.69 12.13,1.69 22.01,9.67 22.42,25.05 0.22,8.22 -1.5,15.59 -4.95,22.09 -3.24,6.09 -7.8,11.11 -14.24,12.31 -2.12,0.4 -4.34,0.36 -6.57,-0.19 -8.94,-2.19 -17.73,-2.44 -26.28,-0.83 -9.67,1.81 -19.06,5.87 -27.7,10.65z"/>
   <path class="fil1" d="M1183.65 796.91c8.47,-2.82 16.91,-5.72 25.35,-8.61 7.31,-2.5 15.87,-5.7 23.5,-7.13 5.49,-1.03 11.09,0.65 15.3,5.97 4.13,5.05 5.61,11.5 5.78,17.79 0.2,7.13 -1.13,13.74 -3.78,19.66 -3.05,6.83 -8.15,11.18 -14.59,13.25 -7.91,2.53 -15.77,5.29 -23.61,8.02 -11.38,3.98 -22.89,7.64 -34.41,11.24 -1.58,15.32 -3.56,33.36 -3.37,48.73 1.18,-0.2 2.29,-0.43 3.05,-0.57l7.04 -1.32 27.62 -6.09c2.44,-0.6 5.35,-1.88 7.69,-2.8 5.64,-2.21 11.91,-2.06 17.37,3.13 5.3,5.01 7.26,12.25 7.45,19.38 0.31,11.47 -2.21,22 -9.81,28.35 -9.16,7.65 -34.58,12.29 -46.18,14.47 -11.42,2.14 -34.47,6.06 -44.42,-7.31 -7.83,-10.52 -9.53,-26.58 -9.86,-38.9 -0.79,-28.83 3.65,-63.28 6.94,-91.15 2.58,-21.77 6.87,-51.56 6.26,-74.27 0.02,-7.73 0.07,-16.49 1.13,-23.94 0.82,-5.78 2.75,-10.94 5.78,-15.27 3.28,-4.7 7.69,-7.6 13.04,-8.6 3,-0.56 6,-0.15 8.8,1.29 11.75,-6.72 24.56,-12.43 37.83,-14.92 9.98,-1.87 20.36,-2.14 30.81,-0.69 12.13,1.68 22.01,9.67 22.43,25.05 0.22,8.22 -1.5,15.59 -4.95,22.09 -3.24,6.1 -7.8,11.11 -14.24,12.32 -2.13,0.4 -4.33,0.36 -6.56,-0.19 -8.94,-2.18 -17.73,-2.44 -26.28,-0.83 -9.67,1.81 -19.05,5.88 -27.7,10.65 -1.05,13.76 -2.16,27.5 -3.41,41.2z"/>
   <path class="fil1" d="M1327.18 870.4c15.9,-4.12 32,-8.19 47.97,-11.23 7.02,-1.34 18.85,-3.36 26.19,-0.06 7.45,3.36 11.41,10.96 11.65,19.84 0.22,8.3 -1.54,15.78 -5.23,22.11 -3.61,6.18 -8.56,10.51 -15.11,11.76 -2.85,0.55 -5.81,0.8 -8.61,1.01l-4.23 0.52 -87.94 18.87c-5.55,1.06 -11.44,-0.11 -16.11,-5.51 -4.27,-4.96 -6,-11.38 -6.17,-17.81 -0.18,-6.94 1.31,-14.01 3.1,-20.2 2.98,-10.33 8.19,-20.96 12.8,-30.14 11.45,-22.8 22.57,-45.93 33.72,-68.97 10.14,-20.93 20.9,-42.04 32.68,-61.86 -0.63,0.13 -1.27,0.26 -1.9,0.38l-37.49 7.16c-3.31,0.63 -8.52,1.83 -11.94,1.55 -4.04,-0.33 -7.48,-3.47 -10.37,-7.33 -3.43,-4.73 -4.79,-10.44 -4.94,-16.13 -0.56,-20.83 8.87,-32.76 25.31,-35.89 6.47,-1.24 13.07,-2.01 19.7,-2.5 6.21,-0.46 12.37,-1.22 18.43,-2.38l8.76 -1.67 33.87 -7.39c13.07,-2.5 35.11,-2.37 35.74,21.36 0.19,7.03 -1.7,13.52 -4.33,19.23 -2.98,6.49 -6.99,12.19 -11.38,17.28l-13.59 15.74c-11.44,14.91 -21.38,32.98 -30.33,50.28 -13.85,26.79 -27.08,54.27 -40.24,81.96z"/>
   <path class="fil2" d="M929.78 797.19c11.46,7.74 20.6,19.65 27.44,35.64 6.89,15.87 10.44,32.59 10.68,50.05 0.61,43.06 -15.25,81.27 -47.52,114.51 -32.32,33.35 -77.15,55.54 -134.61,66.71 -7.4,1.44 -13.59,-2.08 -18.54,-10.69 -4.95,-8.59 -9.4,-23.61 -8.38,-35.35l27.18 -312.72c0.07,-0.85 0.8,-17.93 1.67,-35.41 1.59,-32.09 3.96,-45.61 7.7,-55.97 3.75,-10.41 14.57,-19.33 29.23,-27.11 14.67,-7.78 31.55,-13.48 50.63,-17.19 23.2,-4.51 44.19,3.3 62.99,23.3 18.8,20.1 28.41,46.92 28.88,80.44 0.66,47.07 -11.79,88.34 -37.35,123.8zm-106.83 69.07l-9.33 112.22c32.23,-9.39 57.7,-20.27 76.42,-32.46 18.72,-12.29 27.93,-27.16 27.68,-44.52 -0.2,-14.75 -6.35,-25.84 -18.37,-33.47 -12.01,-7.53 -21.1,-10.69 -27.19,-9.51 -10.76,2.09 -27.18,4.67 -49.21,7.75zm45.6 -215.38l-18.96 3.69c-4.61,0.89 -7.77,1.71 -9.44,2.43l-4.96 63.87 -5.54 62.47c8.05,0.35 14.78,0.05 20.13,-0.99 19.15,-3.72 35.1,-13.57 47.71,-29.61 12.62,-16.04 18.78,-34.65 18.48,-55.92 -0.19,-13.35 -5.15,-24.87 -14.96,-34.74 -9.74,-9.78 -20.57,-13.51 -32.46,-11.2z"/>
   <path class="fil2" d="M627.73 693.63c-2.6,45.41 -6.09,88.19 -7.99,110.55 18.19,-11.57 41.83,-23.73 54.23,-26.27 27.38,-5.61 35.31,-6.15 47.47,-4.62 12.15,1.52 15.33,7.02 15.8,23.63 0.41,14.24 1.89,22.24 -3.89,33.13 -5.79,10.98 -11.62,19.2 -18.94,20.7 -19.28,3.96 -37.67,5.31 -56.48,9.15 -8.55,1.76 -19.73,6.9 -41.92,20.43l-13.03 193.94c-0.77,11.47 -7.5,22.27 -13.2,31.58 -5.7,9.31 -12.31,14.81 -19.96,16.37 -6.85,1.41 -12.15,-1.43 -16.04,-8.37 -3.82,-6.95 -5.38,-16.53 -4.67,-28.74l22.68 -350.8c0.81,-13.06 1.77,-24.91 2.76,-35.63 1.26,-12.33 2.2,-24.48 2.98,-36.5 0.83,-12.13 3.8,-22.55 8.84,-31.52 5.04,-8.87 11.23,-14.06 18.63,-15.58 4.77,-0.98 8.66,-0.34 11.61,1.84 27.72,-13.52 49.37,-21.01 68.81,-23.79 43.88,-6.27 77.46,1.82 79.21,20.64 2.69,29.05 -7.61,67.8 -28.41,58.43 -15.02,-4.96 -32.54,-2.38 -54.61,2.15 -12.89,2.65 -28.46,7.99 -53.84,19.28z"/>
   <path class="fil1" d="M318.52 857.31c-5.18,68.09 -9.37,136.41 -12.64,204.89 -1.32,27.69 -3.6,81.02 -12.81,105.67 -6.98,18.7 -18.61,21.68 -43.51,10.11 -5.07,-8.15 -7.83,-9.6 -8.09,-19 -0.38,-13.63 2.32,-32.27 3.87,-45.52 6.32,-69.84 11.25,-140.03 14.39,-210.58l3.28 -59.21c1.2,-18.55 1.44,-37.46 1.36,-56.31 0.29,-17.78 0.67,-35.59 1.47,-53.28 0.65,-14.52 4.56,-27.71 11.27,-39.34 5.51,-9.55 13.2,-18.91 23.64,-21.17 15.32,-3.31 26.16,23.71 30.8,36.62 34.85,96.95 77.15,200.49 130.51,288.37l2.37 -36.7c2.12,-32.93 3.71,-66.09 5.53,-99.08 2.04,-37.03 5.09,-76.67 5.11,-113.96l0.03 -48.49c0.02,-26.81 4.47,-61.57 30.78,-67.24 24.73,-5.34 25.73,57.24 26.14,71.92 1.23,44.31 -2.29,90.96 -5.84,134.42l-12.72 199.45c-1.24,19.42 -4.36,39.09 -7.66,57.93 -3.39,19.4 -11.23,38.18 -29.46,42.11 -9.09,1.96 -17.21,-3.93 -23.72,-11.78 -6.2,-7.48 -12.79,-19.13 -17.78,-27.69 -10.78,-18.46 -21.1,-37.34 -31.3,-56.19 -31.74,-58.63 -59.48,-123.51 -85.02,-185.96z"/>
   <path class="fil1" d="M830.53 66.87l331.98 191.67 298.83 172.54 -79.97 46.17 -258.84 -149.45 -291.99 -168.58 -291.99 168.58 -258.84 149.45 -79.98 -46.17 298.83 -172.54 331.98 -191.67zm-583.98 467.78l0 133.54c-1.43,2.14 -2.78,4.33 -4.07,6.57 -10.18,17.64 -15.66,37.19 -16.59,57.52 -0.82,18.13 -1.21,36.28 -1.51,54.44 -0,0.29 -0,0.54 -0,0.83 0.08,17.84 -0.12,35.73 -1.28,53.55l-3.3 59.58c-0.01,0.15 -0.02,0.28 -0.02,0.43 -3.1,69.69 -7.98,139.29 -14.27,208.76 -1.87,15.83 -4.5,33.22 -4.02,50.24 0.52,18.6 5.19,24.65 14.11,39 4.29,6.91 9.74,11.73 17.11,15.16 30.25,14.05 60.26,14.8 80.7,-4.94l225.12 129.98 258.85 149.44 0 92.35 -298.84 -172.53 -331.97 -191.67 0 -383.33 0 -345.06 79.97 46.17zm1247.93 -46.17l0 345.06 0 383.33 -331.97 191.67 -298.83 172.53 0 -92.35 258.85 -149.44 291.99 -168.59 0 -223.28c11.61,-5.53 21.07,-14.69 27.78,-26.19 7.66,-13.11 11.07,-28.2 10.67,-43.33 -0.62,-23.71 -13.18,-45.33 -35.19,-55.25 -1.08,-0.49 -2.17,-0.94 -3.26,-1.35l0 -35.92c4.41,-7.67 9.14,-15.16 14.31,-22.01l12.8 -14.83c7,-8.11 12.96,-16.96 17.44,-26.7 5.32,-11.58 8.31,-24.22 7.96,-37 -0.94,-35.28 -23.75,-55.5 -52.52,-60.19l0 -89.99 79.97 -46.17z"/>
  </g>
 </g>
</svg>
