<?xml version="1.0" encoding="utf-8"?>
<svg version="1.1" id="Ebene_1" xmlns="http://www.w3.org/2000/svg" xmlns:xlink="http://www.w3.org/1999/xlink" x="0px" y="0px"
	 viewBox="0 0 512 512" style="enable-background:new 0 0 512 512;" xml:space="preserve">
<style type="text/css">
	.st0{fill:#ECBB2B;}
	.st1{fill:#5B4E29;}
	.st2{fill:#766329;}
	.st3{fill:#C8A02A;}
	.st4{fill:#786429;}
	.st5{fill:#7B6629;}
	.st6{fill:#CCA32A;}
	.st7{fill:#796529;}
	.st8{fill:#AD8C29;}
	.st9{fill:#8D7429;}
	.st10{fill:#B18E2A;}
	.st11{fill:#A08229;}
	.st12{fill:#A48529;}
	.st13{fill:#8E7429;}
	.st14{fill:#8C7329;}
	.st15{fill:#BA962A;}
	.st16{fill:#D0A62B;}
	.st17{fill:#CBA22A;}
	.st18{fill:#CEA42A;}
	.st19{fill:#967A29;}
	.st20{fill:#CDA42A;}
	.st21{fill:#D3A82B;}
	.st22{fill:#B08E29;}
	.st23{fill:#C79F2A;}
	.st24{fill:#B9942A;}
	.st25{fill:#D2A72B;}
	.st26{fill:#907629;}
	.st27{fill:#A28329;}
	.st28{fill:#957A29;}
	.st29{fill:#B29029;}
	.st30{fill:#CAA22A;}
	.st31{fill:#F1EDBA;}
	.st32{fill:#FDFDFD;}
	.st33{fill:#776329;}
	.st34{fill:#947929;}
	.st35{fill:#AA8A29;}
	.st36{fill:#7A6529;}
</style>
<g id="NFTBeez_00000167391764337955545130000012586990163054116534_">
	<rect class="st0" width="512" height="512"/>
	<g>
		<path class="st1" d="M346.8,488c-19.7,8.1-40.2,13.3-61.4,15.2c-3.2,0-3.4-2.4-3.1-4.5c1.5-12.8,1-25.8,2.8-38.6
			c1-7,1.1-14.2,2.2-21.2c0.8-4.7,1.8-9.4,3.2-14c1.6-5.1,1.8-10.3,1.8-15.6c0-10.6,1.8-21,7.1-30.4c4.9-1.3,9.9-0.1,14.8,0.3
			c23.6,2.2,47.2,1.7,70.8,1.8c2.6,0,5.3-0.3,7.8,0.8c1.6,1.1,0.8,1.9-0.4,2.6c-3.8,0.4-5.7,2.5-6.6,6.2c-1.2,4.8-3.3,9.3-5.2,13.9
			c-2.8,6.6-4.6,13.4-6.9,20.1c-7.1,20.1-14.5,40.1-23.4,59.5C349.6,485.9,348.5,487.2,346.8,488z"/>
		<path class="st1" d="M138.5,475.3c-11.3-5.4-21.8-12.4-31.6-20.2c-0.9-4.2-0.1-8.5,1-12.2c2.5-8,1.8-16.5,4.6-24.3
			c5.1-14.5,7-30,14.1-43.8c2.4-4.7,2.6-10.2,4-15.3c1.4-5.1,2.7-10.2,5.8-14.7c1.9-0.9,3.6,0.1,5.2,0.7
			c21.6,8.2,43.9,14.4,66.5,19.5c1.6,0.4,3.3,0.4,4.4,1.9c-4.5,11.2-10.2,21.8-16.8,31.8c-3.1,4.7-5.5,9.8-8.4,14.6
			c-7.9,13.2-17,25.6-25.8,38.1c-5.2,7.5-12,14-17.5,21.4C142.8,474.6,141,475.9,138.5,475.3z"/>
		<path class="st2" d="M299,379.8c-1.3,8.8-5,17.1-5.3,26.1c-0.2,5.5,1.3,11.1-0.8,16.6c-5.3,13.4-5.2,27.8-7,41.7
			c-1.5,11.5-0.6,23.3-2.6,34.9c-0.3,1.8,0.6,3.2,2.1,4.2c-2.7,1.2-5.5,0.7-8.2,0.8c-0.8-7,0-14.1,0.1-21.1
			c0.2-13.5,3.8-26.7,3.5-40.3c-0.1-5.5,1.2-10.8,2.9-16c2.3-7,3.5-14,3.2-21.4c-0.4-9.2,1.5-18,6.2-26.1
			C295.2,378.2,297.2,377.9,299,379.8z"/>
		<path class="st3" d="M451.3,101.9c-0.5,8.8,0,17.5,1.4,26.3c0.8,5,1.5,10.6,0.1,16c-0.8,3.1-1.3,6.4,0.3,9.9c1.9,4-1.8,7.8-2,11.8
			c0,0.8-0.8,1.8-0.5,2.4c4.6,9.4-3,17.7-2.4,26.8c0.1,1.6-0.1,3,0.6,4.6c1.8,3.8-0.4,7.2-1.4,10.9c-2.2,8.5-4.1,17.2-6.1,25.7
			c-3,0.1-3.6-2.1-4.1-4.4c-0.3-7.5,2.8-14.2,4.3-21.3c1.7-7.9-0.1-16.1,2.3-24c1.4-4.6,2.7-9.4,0.9-14.5c-0.7-2,0.4-4.6,1.1-6.8
			c1.1-3.1,1.3-6.1,0.6-9.3c-0.4-1.8-0.8-3.7-0.2-5.4c2.2-7.1,0.1-14.4,1.2-21.5c0.6-3.6-1-7.1-1.6-10.7c-1.4-8.5-1-17.4-5.2-25.4
			c-0.7-1.3-1.2-2.8-0.2-4.2C444.5,92.9,448.1,97.2,451.3,101.9z"/>
		<path class="st4" d="M138.5,475.3c2.8-1.2,4.8-3.2,6.6-5.7c4.4-6.2,9.5-11.9,14.6-17.6c3.5-3.9,6.4-8.4,9.1-12.8
			c7.5-12.3,17-23.5,23.1-36.8c2.3-5.1,6.2-9.7,9.1-14.7c3.1-5.4,5.9-11,8.4-16.8c0.6-1.5,1.2-3.2,3.2-3.4c1.8-1.3,3.4-1.3,5,0.4
			c-4.8,9.9-7.4,20.8-15.7,28.9c-2,1.9-2.8,4.8-3.8,7.5c-2.2,5.6-5.2,10.7-9.2,15.2c-0.6,0.6-1.2,1.2-1.6,1.9
			c-9.3,16-20.7,30.6-31.9,45.2c-2.4,2.9-5.2,5.3-7.5,8.4c-1.3,1.7-3,3-5.4,2.5C140.9,477.1,139.6,476.5,138.5,475.3z"/>
		<path class="st5" d="M136.7,345c-1.8,6.4-4.7,12.6-5.7,19.3c-2,12.3-9.6,22.7-11.5,35c-1.5,9.6-6.9,18.2-7.4,27.9
			c-0.4,8.8-3.9,16.9-4.3,25.6c0,0.8-0.5,1.5-0.8,2.3c-2-0.9-3.6-2.3-5-3.9c-1.1-6,1.3-11.6,2.4-17.4c0.9-4.7,2.3-9.3,2.3-14.1
			c0.1-5.6,3-10.4,5.2-15.4c0.7-1.7,1.7-3.3,1.6-5.2c-0.5-8.2,3.3-15.1,6.8-22c2.4-4.6,3.4-9.2,3.8-14.2c0.7-7.4,3.3-14,8.4-19.6
			C134.3,342.9,135.7,343.3,136.7,345z"/>
		<path class="st6" d="M408.5,382.7c-0.2,4.5-1.1,8.8-3.8,12.5c-7.6,10.5-9.9,22.8-12.2,35.2c-0.3,1.4-0.7,3.1-1.6,4
			c-5.3,5.5-6.3,12.7-8.4,19.6c-1.1,3.6-1.7,7.5-4.3,10.7c-2.4,3-4.2,6.7-4.4,10.8c-2.1,1.6-4.5,2.9-7.1,3.7
			c-1.4-1.8-0.6-3.4,0.3-5.1c3.4-6.5,5.6-13.4,7-20.6c0.3-1.6,0.5-3.3,1.5-4.7c7.4-9.5,8.7-21.2,11.7-32.3c0.5-1.7,0.3-3.7,1.4-5.2
			c6.1-7.8,7.7-17.4,10.7-26.5c0.4-1.1,0.6-2.2,1.7-2.9C403.6,381.1,406.2,380.6,408.5,382.7z"/>
		<path class="st7" d="M346.8,488c5.5-9.8,9.5-20.2,13.3-30.7c4.7-12.8,11-25.1,13.8-38.5c1-4.8,3.3-8.9,4.9-13.4
			c2-5.7,4.4-11.2,6.2-16.9c1.1-3.5,2.6-5.6,6.6-4.9c2.3,4,0.9,8.1-1.1,11.3c-7.5,11.9-9.5,25.7-13.4,38.8c-0.4,1.3-0.5,2.7-1.4,3.7
			c-4.5,4.7-5.5,10.9-7,16.8c-1.5,5.9-3.7,11.3-7,16.4c-1.9,3-3,6.3-4.1,9.6c-0.7,2.1-1.7,3.9-3.8,5
			C351.6,486.5,349.3,487.6,346.8,488z"/>
		<path class="st8" d="M150.6,481.4c-1.4-0.7-2.8-1.4-4.1-2.1c1.8-4,5.3-6.7,8-10c1.3-1.7,2.5-3.5,3.3-5.5c0.8-1.6,1.9-2.7,3.5-3.5
			c5.8-5.7,11.9-11.1,14.6-19.2c0.3-0.6,0.8-1.2,1.3-1.6c5.1-3.5,7.3-9,9.6-14.4c0.3-0.7,0.7-1.2,1.2-1.7c5.6-4,7.6-10.7,10.8-16.3
			c4.3-7.7,10.3-14.5,13-23.1c2-3.3,3.8-6.6,5.2-10.2c1-2.7,2.4-5.2,5.8-5.5c2.1,0,4.2-0.5,5.8,1.5c-4.3,6.1-6.4,13.7-11.9,19.2
			c-2.8,2.8-3.6,7.1-5.2,10.7c-2.6,5.8-6.9,10.4-10.2,15.7c-6,10-12.4,19.6-20,28.5c-1.9,2.2-2.8,4.9-4.1,7.4
			c-5.7,6.8-11.2,13.8-17,20.5C157.3,475.2,154.8,479.4,150.6,481.4z"/>
		<path class="st9" d="M293.1,379.5c-1.6,6.9-5.4,13.6-4.7,20.5c1.2,12.7-2.7,24.3-5.4,36.2c-1.6,7.1,0.4,14.4-1.7,21.5
			c-2.9,9.3-0.9,19.2-2.9,28.7c-1.2,5.7,0.8,11.8-1.2,17.6c-0.7,0.1-1.3,0.2-2,0.2c-0.8,0.3-1.7,0.4-2.4-0.3
			c-0.9-5.3-1.3-10.5-0.6-15.9c0.4-1.3,0.7-2.6,0.8-3.9c1-10.8,1.2-21.7,3.7-32.3c0.8-3.4-1.3-6.8-0.6-10.3
			c1.6-8.8,4.9-17.3,6.1-26.3c0.4-3,0.7-5.9,0-8.8c0.1-9.8,3.5-18.9,5.8-28.3C290,377.3,291.8,377.4,293.1,379.5z"/>
		<path class="st10" d="M440.4,89c1.3,4.7,3.7,9,4.7,13.9c1.1,5.2,0.3,10.6,2.2,15.7c2.6,7,0,14.6,1.9,21.8c0.5,2-0.5,4.5-1.1,6.8
			c-0.9,3.3-1.1,6.6,0,9.8c1.7,4.8-1.6,8.8-1.7,13.3c0,0.8-0.9,1.8-0.7,2.2c3.8,6.7-0.6,12.8-1.3,19.1c-1,8.7,0.4,17.8-3,26.2
			c-1.9,4.8-2.6,9.8-3.1,14.9c-2.8-0.4-4.2-2.1-4.5-4.9c1.5-5.2,2.4-10.6,4.1-15.8c1.4-4.5,2.2-9.2,1.4-14.1
			c-0.7-5.1,1.2-10.1,2.4-15.1c0.6-2.3,0.9-4.5,0.6-6.8c-0.6-4.4,0.1-8.9,0.4-13.3c0.6-10.1,2-20.2,1-30.4c-0.7-7.5-0.9-15-1.6-22.5
			c-0.7-7.5-3.1-14.5-7.4-20.8c-1.2-1.8-2.8-3.3-5.1-3.7c-4-0.9-7.3-4.2-11.7-3.9c-1.4-0.3-3.1,0-3.4-2c5.3-3.2,10.8-2.2,16.2-0.4
			C434.2,81.9,437.5,85.2,440.4,89z"/>
		<path class="st11" d="M400.6,382.8c-1.7,9.5-3.9,18.8-9.5,26.9c-1.4,2-2.4,4.1-2.6,6.8c-0.4,6.3-2.7,12.2-4.7,18.1
			c-4.1,11.8-10.4,22.8-13.1,35.2c-0.8,3.4-4.3,5.6-4,9.5c-2.2,1.3-4.2,3-7,2.9c-0.8-5.7,1.4-10.7,4.5-15.1c3.3-4.8,5.3-9.9,6-15.5
			c0.5-3.5,1.4-7,3.3-9.8c5.8-9,8.2-19,10.1-29.3c0.4-2.5,1.5-4.7,2.5-7c2.9-7,7.5-13.3,9.4-20.7c0.3-1.1,1.2-2,2.3-2.5
			C398.8,381.8,399.8,381.8,400.6,382.8z"/>
		<path class="st12" d="M98,448.1c-1.3-0.6-2.4-1.4-3.1-2.7c0-5.9,0.2-11.8,3.3-17.2c0.8-1.3,0.8-2.9,0.6-4.4
			c-0.4-4.6,0.9-8.8,2.7-13c2-4.9,3.7-9.8,4-15.2c0.3-5.7,3.5-10.6,5.5-15.9c2.2-5.7,4.9-11.1,5.4-17.7c0.6-7.7,5-14.9,8.1-22.2
			c2.2-0.8,3.6,0.4,4.8,2c0.9,4.1-1.5,7.4-2.9,10.8c-1.6,4-3,8-3.6,12.3c-0.9,6.4-3.6,12.4-6.2,18.3c-2.7,6.1-5.2,12.2-5.5,19
			c-0.1,1.3-0.3,2.7-0.8,3.9c-5.1,11.8-7,24.5-9.7,36.9C100.3,445,100.3,447.2,98,448.1z"/>
		<path class="st13" d="M98,448.1c2.3-10.1,4.8-20.1,6.7-30.2c1.2-6,5.3-10.9,5.4-17.4c0.1-8.4,4.5-15.5,7.6-23
			c1.9-4.8,3.6-9.5,4.1-14.6c0.6-6.1,4.2-11.1,5.9-16.7c0.4-1.4,1.3-2.7,1.1-4.3c2-0.7,3.3,0.1,4,2c-4.3,7.2-7.8,14.6-7.8,23.2
			c0,7.4-5.4,12.6-7.5,19.1c-1.3,3.8-3,7.4-2.5,11.4c0.6,5.4-3.4,9.1-4.8,13.8c-0.7,2.3-2,4.7-2,7c-0.2,11.3-4.1,21.8-6.1,32.8
			C100.6,450.2,99.3,449.1,98,448.1z"/>
		<path class="st14" d="M397.6,382.8c-3.1,10-9.4,18.7-12.6,28.6c-1.2,3.8-2,8-2.6,11.9c-1.2,8.6-6.7,15.2-9.5,23
			c-1.9,5.1-1.5,10.7-4.2,15.6c-0.5,0.9-0.4,2.3-1.4,3.1c-5.2,4.5-5.5,11.3-7.7,17.1c-2.1,0.8-3.6,2.8-6,3c5-13.4,13.7-25.4,15.9-40
			c0.1-1,0.2-2.1,0.7-2.8c8.3-10.3,8.5-23.4,12.2-35.3c1.3-4.2,4.4-7.2,6.2-11.1c1.8-4,2.9-8,2.9-12.3c0.7-0.3,1.4-0.6,2-0.8
			C395,381.5,396.3,381.5,397.6,382.8z"/>
		<path class="st15" d="M124.7,340c-0.2,5.6-3.3,10.2-5,15.3c-1.3,3.7-3,6.9-2.1,11.3c1,4.8-3.4,8.2-4.8,12.5
			c-2.2,6.7-5.7,12.8-6.3,20.3c-0.5,6.3-4.6,12.3-5.7,18.7c-1.2,6.3-1.7,12.6-4.4,18.7c-1,2.3,1.2,6-1.5,8.6
			c-1.4-0.6-2.4-1.6-3.3-2.8c-0.6-3.5-0.2-6.7,1.2-10.1c1.5-3.8,2.3-7.8,2.2-12c-0.1-4.8,3-8.6,4.6-12.9c1.3-3.5,3-7,2.1-10.9
			c0.1-5.5,3.4-9.9,5.2-14.8c2.3-6.1,4.6-12,5.5-18.8c1-8.1,5.2-15.6,8.9-22.9c0.2-0.4,0.6-0.8,0.9-1.1
			C123.7,338.3,124.3,338.8,124.7,340z"/>
		<path class="st16" d="M273.2,503.9c0.7,0.1,1.3,0.2,2,0.3c-4.6,1.2-9.3,0.7-13.9,0.6c1.4-4,3.1-8,1.1-12.3c-0.2-0.4-0.1-1-0.1-1.5
			c1.7-11.1,0.3-22.5,3.1-33.5c0.3-1.2,1.2-2.3,1.9-3.4c-0.2-8.6,0.9-17.1,3.5-25.3c0.2-0.5,0.7-0.6,1.2-0.8
			c1.4,0.8,1.6,2.2,1.4,3.5c-2.3,11.1,0.6,22.9-4.4,33.7c-0.2,0.4-0.4,1-0.3,1.4c1.4,9-1.3,18-0.5,27c0.2,1.8,0.4,3.6,0,5.4
			c-0.5,2,0,3.3,2.2,3.5C271.3,502.8,272.3,503.3,273.2,503.9z"/>
		<path class="st17" d="M430.6,78.9c-5.4,0.7-10.9-1.1-16.1,1.1c-2,1.9-4.8,1.4-7.2,2.1c-5-0.5-8,3.3-11.4,5.8
			c-2.7,2-5.3,4.3-7.3,7.1c-0.4,0.5-0.9,0.9-1.5,1.3c-1.4,0.9-2.8,1.8-3.5,3.4c-0.2,0.4-0.4,0.8-0.6,1.1c-1.3,2.5-3.9,4.2-4.4,7.2
			c-0.5,1.2-1.5,2.2-2.3,3.3c-2.4,2.3-4,5.1-5.1,8.3c-0.3,1.4-0.5,2.7-1.5,3.8c-1.5,1-2.5,3-4.8,2.4c-0.1-3.7,1.5-6.6,4.1-9
			c0.8-0.7,1.4-1.3,1.8-2.3c5.6-12.7,14.3-22.9,25.2-31.3c9.1-7.1,19.5-8.8,30.6-8.2C428.2,75.9,429.5,77.3,430.6,78.9z"/>
		<path class="st16" d="M102.9,396.6c1.8,4.1-0.4,7.6-1.8,11.2c-1.6,4.1-4.6,8.1-4.6,12.2c-0.1,3.8-0.5,7.5-1.7,10.9
			c-1.4,3.9-1.5,8-3,11.7c-0.9-0.8-1.8-1.6-2.7-2.4c0.3-4,0.2-8.2,3.1-11.5c0.6-0.7,0.9-1.9,0.8-2.7c-1.2-8.6,3.2-15.8,6-23.3
			C100.3,400.6,98.6,396.6,102.9,396.6z"/>
		<path class="st18" d="M150.6,481.4c5.1-6.9,10.8-13.3,16.7-19.5c3.2-3.4,4.6-8.4,9.2-10.6c1.2-0.9,2-2.7,4-2c-0.2,1,0,2.4-0.6,2.8
			c-4.8,3.4-7.1,8.9-11,12.8c-4.5,4.6-8.1,10-12.5,14.6c-1.1,1.2-2,2.6-3.9,2.7C151.8,482.2,151,482.3,150.6,481.4z"/>
		<path class="st19" d="M158.6,464.3c-2.5,6.3-7.5,10.6-12.2,15.1c-1.5-0.3-2.9-0.9-4-2c5.6-2,7.2-8.4,12.2-11.1
			C155.7,465,156.6,463.5,158.6,464.3z"/>
		<path d="M124.7,340c-0.7-0.3-1.3-0.6-2-0.9c-2.4,1-3.7-0.5-5-2.2c-19.5-9.7-38.1-20.7-54.3-35.4c-17.3-15.8-30.7-34.3-38-56.7
			c-11-34,0.3-66.8,30.2-89c8.1-6.1,17-10.8,26.2-15.1c1.6-0.7,3.1-0.9,4.8-1c42.1-2,84.1-0.7,126.1,3.8c1.8,0.2,3.6,0.2,5.5,0.3
			c3.5,0.5,7-1.3,10.5,0.3c1.9,0.1,3.8,0.2,5.7,0.6c18.3,2.1,36.4,5.6,54.4,9.6c2.2,0.5,4.5,1,6.7,1.8c1.5,0.3,2.9,0.8,4.4,1.2
			c1.4,0.3,2.7,0.8,4.2,1.1c1.3,0.3,2.7,0.7,4,1c1.1,0.2,2.2,0.6,3.3,1c1.4,0.4,2.5,1.1,3.5,2c8.6,2.7,17.2,5.5,25.8,8.2
			c1,0.7,2.2-0.2,3.2,0.3c1.7,0.5,3.4,1.1,5,1.8c1,0.4,2.1,0.8,3.1,1.2c2.3,1.1,4.7,1.8,7,2.9c21.4,9.4,42,20.3,60.1,35.5
			c1.9,1.6,3.8,3.2,5.5,5c1.6,1.8,3.4,3.5,5.1,5.2c0.7,0.8,1.5,1.5,2.2,2.3c1.1,1,1.9,2.1,2.5,3.5c0.9,1.8,2.3,3,3.8,4.3
			c0.7,1.5,1.7,2.8,3.1,3.8c14.2,18.8,23.9,39.5,27.4,63c3.2,21.2,2.3,42.3-2.5,63.1c-1.2,5.2-4.4,9.9-6.6,14.9
			c-1.2,2.6-3.6,2-5.6,2.1c-15.2,1.1-30.4,2.1-45.6,3.2c-2.6,0-5.3,0.1-7.9,0.1c-1,0-2,0-3,0c-1.3,0-2.6,0-3.9,0
			c-9.6,0-19.2-0.2-28.8-0.1c-22,0.2-43.9-1.4-65.9-2.9c-2-0.1-3.9-0.2-5.9-0.3c-1.6-0.7-3.3-1-5-0.7c-0.8,0.9-1.9,1-3,1
			c-2.4-0.2-4.7-1.1-6.9-2c-14.9-2.1-29.7-4.2-44.6-6.3c-1.5-1-3.6,0.4-5.1-1c-1.8-1.1-3.9-0.9-5.9-1c-1.5-1.1-3.7,1-5-1
			c-1.5-1.2-3.3-0.8-5-1c-14.8-3.9-29.8-7.1-44.5-11.7c-10.6-3.3-21-7-31.4-10.9c-1.3-0.3-2.4-1.6-3.9-1.1c-1.3-0.7-2.7-1.4-4-2
			C127.4,341.3,126.1,340.6,124.7,340z"/>
		<path class="st20" d="M315,162.4c-1.3-0.3-2.6-0.7-4-1c-0.7-6.2,0-12.5,2.2-18.2c2.4-6.2,2.2-12.6,2.9-18.9
			c0.6-5.3,0.2-10.8,0.4-16.2c0.4-8.7-2.1-16.3-11.7-20.9c-6.8-3.3-12.7-3.9-19,0.5c-0.9,0.7-2.2,0.7-3.3,1.1
			c-8.3,1.6-14.1,7.4-20.5,12.2c-5,3.7-8.8,8.8-13.5,12.8c-1.4,0.5-2.8,1.2-4.2,0.1c3.9-7.9,10.7-13.2,17.3-18.5
			c4.9-3.8,10-7.7,15.6-10.2c10.5-4.8,21.8-7.3,33-3c7.4,2.8,11.5,8.6,12.4,17.5c1.2,11.8,0,23.4-1.1,34.8
			C320.6,143.8,318.7,153.4,315,162.4z"/>
		<path class="st21" d="M117.8,336.9c1.7,0.7,3.3,1.5,5,2.2c-2.6,6.7-4.9,13.6-8.1,20c-1.6,3.3-0.6,6.4-1.3,9.5
			c-1.8,7.6-5.7,14.3-8.5,21.4c-0.9,2.1-1.9,4.2-2,6.5c-2.7,1.1-2.2,4.3-4,6c-1.2-8.9,3.5-16.2,6.8-23.8c1.4-3.4,1.3-7.6,4.5-10.2
			c0.3-0.2,0.4-1,0.3-1.4c-4.2-9,3.9-15.1,5.4-22.8C116.4,341.9,118,339.6,117.8,336.9z"/>
		<path class="st22" d="M248.2,112.8c7.1-8.4,15.4-15.3,24.4-21.4c2.9-1.9,5.8-3.6,9.4-3.5c0.3,0.4,0.3,0.9,0.2,1.4
			c-3.5,3.3-7.7,5.5-11.5,8.3c-4.2,3-7.5,6.8-11.3,10.2c-4.5,4.1-7.7,9.3-12.3,13.4c-3.7,3.3-6.7,7.8-9.2,12.1
			c-2.7,4.7-5.9,8.6-9.7,12.3c-3.4-0.6-6.7-1.1-10.1-1.7c0.7-0.1,1.4-0.2,2-0.3c4.7-2.3,8.7-5.2,10.4-10.5c0.8-2.4,2.5-4.1,4.6-5.6
			c4-2.7,5.2-7.9,9.1-10.9C245.7,115.4,246.8,113.9,248.2,112.8z"/>
		<path class="st3" d="M343.6,171.7c-1.1-0.1-2.2-0.1-2.9-1.1c2.9-2,2.4-5.4,3.3-8.2c1.1-3.2,3.8-5.4,5.2-8.7
			c4.2-9.8,8.9-19.5,15.5-28c1.3-1,2.7-2,4-3c1.8,3.3,0.2,5.9-2.2,7.8c-2.8,2.2-3.7,4.9-3.8,8.1c-0.5,2.6-1.7,4.9-3.8,6.7
			c-3.2,2.8-3.4,7-4.8,10.6c-2.2,5.7-6.4,10.2-9.3,15.6C344.7,172,344.1,171.9,343.6,171.7z"/>
		<path class="st23" d="M248.2,112.8c-4.5,5.5-7.6,12.1-13.7,16.4c-2.5,1.7-3.2,4.6-4.2,7.1c-1.9,4.9-5.6,6.5-10.2,7.2
			c5.7-4.7,9-11.3,13.2-17c3.4-4.5,7.9-7.9,10.8-12.6C245.6,113.5,246.9,113.1,248.2,112.8z"/>
		<path class="st24" d="M278.1,377.8c2.4-0.4,4.7,0.3,7,0.9c0.7,6.3-1.1,12.3-2.8,18.3c-1.2,4.4-2.8,8.8-0.5,13.4
			c0.6,2.2-0.1,4.3-0.4,6.4c-2.8,7.9-4.2,16.2-6.1,24.4c-0.8,3.2,0.3,6.2,0.8,9.3c0.3,2.5-0.4,4.9-0.9,7.3c-2.2,6-4.2,12.1-2.8,18.7
			c0.2,1,0.3,2,0.1,2.9c-1.5,6.6-1.9,13.3-1.2,20.1c0.2,1.6,0.2,3.3-1,4.7c-3.4,0.5-4.8-1-3.7-4.2c0.8-2.4,0.3-4.4,0-6.7
			c-0.3-2.9-1.3-5.7,0.3-9c1.3-2.6,1.8-6.1,0.6-9.5c-1.7-4.8-0.1-9.5,1.7-14.1c3-7.5,0.7-15.5,2.1-23.2c0.5-2.9,0.7-5.8,1-8.8
			c-1-2.5-0.1-4.7,0.9-6.9c1.7-4.6,2.4-9.4,1.9-14.4c-0.3-2.4,0-4.9,0.3-7.3c1.1-4.9,2-9.9,3.8-14.7c0.8-2,1.7-4.3,0-6.5
			C278.7,378.4,278.4,378.1,278.1,377.8z"/>
		<path class="st17" d="M228.5,370.6c1.7,0.1,3.5-0.2,5.1,1c-2.9-0.1-4.6,0.9-5.8,4c-2,5.2-3.9,10.4-8.6,14.5
			c-4.3,3.7-6.1,10-8.2,15.5c-1.1,3-2.4,5.7-5.3,7.5c-1.2,0.7-2.4,2-2.9,3.3c-3.9,9.7-11,17.5-16.3,26.3c-1.6,2.6-4.9,3.6-5.8,6.6
			c-1.4,0.6-2.3,2.2-4,2c0.5-3.3,1.8-6.4,4.3-8.6c3.3-2.9,5.8-6.1,7.4-10.3c1.1-2.8,2.7-5.3,5.8-7c2.9-1.6,3.1-5.6,4.7-8.4
			c3.4-6.1,9.3-10.6,11.3-17.6c2.7-9.6,11.4-15.7,14.1-25.2C224.7,372.2,226.2,370.9,228.5,370.6z"/>
		<path class="st25" d="M279.1,378.7c3.1,0.6,2.2,3.1,1.8,4.7c-1.4,5.4-3.1,10.8-4.8,16.2c-1.6,7.5-0.9,15.3-2,22.9
			c-1.8,1.6-0.4,4.3-2,6c-3,6.2-2.2,13.1-3.9,19.6c-0.5,2-0.7,4.2-1,6.3c-1.7-6.9-1.5-13.9,0.6-20.7c2.8-9.2,3.7-18.7,5.3-28.1
			c1-6.3,2.1-12.7,3.9-18.9C277.7,384,278,381.2,279.1,378.7z"/>
		<path class="st26" d="M217.6,368.6c1.7,0.2,3.5-0.2,5,1c-3.6,0.5-4,3.7-5,6.1c-1.3,3.3-2.8,6.3-5.2,8.9
			c-8,13.3-15.5,26.8-23.9,39.8c-0.3,0.3-0.7,0.7-1,1c-3.5,4.9-6.6,10-10,14.9c-0.3,0.3-0.7,0.7-1,1c-4.7,6.8-9.7,13.5-14.9,19.9
			c-1.3,0.7-2.3,1.7-3,3c-1.3,0.7-2.7,1.3-4,2c1.1-4.7,5.3-7,7.8-10.7c4.5-6.5,8.5-13.5,13.5-19.4c5.9-7,9-15.7,15.4-22.2
			c3-3,4.4-7.3,6-11.3c1.3-3.6,3.1-6.8,5.9-9.5c5.3-5.2,7.3-12.4,10.2-19C214.3,372,214.5,369.2,217.6,368.6z"/>
		<path class="st19" d="M188.5,424.4c-0.5-2.6,1.2-4.8,2.4-6.3c8.2-9.8,12.4-22.1,19.9-32.3c0.4-0.5,1-0.8,1.5-1.2
			c-1.3,5.2-4.2,9.4-7.1,13.8c-4.3,6.3-8,13-11.5,19.8C192.4,420.9,190.8,422.8,188.5,424.4z"/>
		<path class="st19" d="M161.6,461.3c0.6-2.8,1.8-5.2,4.3-6.8c3.3-2.2,3.6-6.6,6.3-9.2c1.4-1.4,2.9-2.6,4.4-3.9
			c-1.3,4.3-2.4,8.7-6.7,11.4c-1.8,1.2-3.1,2.9-4,4.9C165,459.5,163.9,461.2,161.6,461.3z"/>
		<path class="st19" d="M177.5,440.4c1.6-6.1,5.1-11,10-14.9C185.6,431.4,183.4,437.1,177.5,440.4z"/>
		<path class="st12" d="M270.1,504c-0.6-8-0.8-15.8,0.5-23.9c0.9-5.8-0.2-12,1.4-18c0.5-1.8,1.2-3.3,2.1-4.9
			c2.8,0.4,1.5,2.3,1.4,3.8c-1.1,9-2.3,18-2.3,27.1c-0.4,5.3,1.2,10.5,0,15.8C272.2,504,271.2,504,270.1,504z"/>
		<path class="st12" d="M281.1,410.5c-3.5-2.8-2-6.2-1.2-9.5c1.7-7.5,3.5-14.9,5.2-22.3c1,0,2,0.1,3,0.1c1.1,6.6-2.8,12.2-3.4,18.5
			c-0.3,3.1-1,6.1-1.5,9.2C283.5,408.4,282.5,409.6,281.1,410.5z"/>
		<path class="st27" d="M273.1,488.2c-3.3-6.1,0.3-12.1,0.5-18.1c0.2-4.3,1.9-8.5,0.5-12.8c0.3-2.3,0.7-4.6,1-7c0.5-3-1.4-6.3,1.2-9
			c0.3,0,0.5,0,0.8,0.1c2.2,15.1-3.1,29.7-3,44.6C274.1,486.7,273.5,487.5,273.1,488.2z"/>
		<path class="st27" d="M281.1,410.5c-0.1-1.7,1.4-2.6,2-4c2.1,3.6,0.6,7.2,0.1,10.9c-1.3,8.2-3.7,16-6,23.9l0,0
			c-2.2-1.7-1.9-3.7-1.2-6.1c1.7-6.2,3.8-12.3,4.2-18.8C280.4,414.5,280.7,412.5,281.1,410.5z"/>
		<path class="st27" d="M434.4,228.3c-1-1-1.9-2.1-2.9-3.1c0.2-5.3,1.8-10.4,3.2-15.4c1.2-4.2,2.1-8.3,1.7-12.7
			c-0.6-7,0.4-13.8,2.6-20.5c0.8-11.1,2-22.2,2.3-33.4c0.2-6.3,0-12.5-0.3-18.7c-0.1-2,0.1-4-1-5.8c-0.3-0.7-0.4-1.5-0.4-2.3
			c0.5-3.3,1.2-6.6-0.6-9.8c-0.2-0.4-0.3-0.8-0.4-1.3c-0.1-2.3,0.9-4.7-1.3-6.6c-0.2-0.4-0.4-0.8-0.4-1.2c0.2-1.8-0.2-3.2-2.1-3.9
			c-0.5-0.4-1-0.9-1.3-1.5c-0.7-3-3.4-5.1-4.1-8.1c7.1,1.2,8.6,7.6,10.8,12.8c3.3,7.7,3.7,16.1,4,24.4c0.3,9.1,0.8,18.2,0.7,27.4
			c-0.1,10.1-3.6,20-1,30.3c0.8,3.2-1.5,7.3-2.6,10.9c-2.1,7.2,1.1,14.8-2,21.8C437.1,216.9,437.2,223,434.4,228.3z"/>
		<path class="st28" d="M429.4,83.9c2.7,2,4.4,4.7,5,8c-1.7,1.2-3.1,0.2-3.7-1.1c-3.7-7.1-10.1-5.6-16.1-5.2c-2,0.1-3.9,1-5.7-0.3
			c-0.6-3.8,2.4-4,4.8-4.7c1.5-0.5,3.3,0.4,4.8-0.6C422.9,79.3,425.6,83.1,429.4,83.9z"/>
		<path class="st22" d="M418.5,80c-3.5,1.3-7.5,1.5-10,5c-0.1,0.2-0.3,0.4-0.4,0.6c-4.4,1.4-7.3,4.8-10.6,7.7
			c-1.4,1.2-2.7,3.1-5.1,1.8c-1-2.1,0.3-3.4,1.7-4.4c1.3-1,2.1-2.3,3-3.7c2.9-2.4,5.5-5.3,9.5-5.9c2.6-0.8,5.2-1.3,7.9-1
			C415.8,80,417.2,80,418.5,80z"/>
		<path class="st29" d="M361.7,138.7c-0.4-3.8,0.3-7,4.1-9.1c2.5-1.4,2.6-4.3,2.9-6.8c1.4-1,0.9-2.6,1-3.9c3.1-1.8,4-5.3,6-8
			c-0.2-1.5,1.4-1.9,2-3c0.9-1,1.3-3.1,3.4-1.7c0.7,1.2,0.7,2.4,0.6,3.7c-0.8,4.1-2.1,8-5.5,10.8c-1,0.9-1.6,2.2-1.9,3.4
			c-1,4.5-3.8,7.6-7.3,10.3C364.9,135.5,364.7,138.7,361.7,138.7z"/>
		<path class="st30" d="M406.5,81c-3,2-6,4-9,6c-1.5,3.1-4.8,4.7-6.5,7.6c-0.6,1-2.2,1.3-3.4,0.3C392.7,88.6,397.8,82.3,406.5,81z"
			/>
		<path class="st29" d="M387.6,94.9c4.9-0.7,5.9-6.2,10-8c0.1,1.7-0.3,3.1-2,4c-1.6,0.8-2.9,1.9-3,4c-0.1,0.7-0.5,1.2-1.1,1.6
			c-2.5,0.9-3.6,3.1-5,5.2c-0.3,0.4-0.6,0.7-1,1c-1.1,0.7-2.2,1.1-3.3,0c-0.2-1-0.3-1.9,0.4-2.8l0,0c1.3-1.3,2.7-2.6,4-4
			C387,95.6,387.3,95.2,387.6,94.9z"/>
		<path class="st30" d="M375.7,110.8c-0.3,3.9-2,6.8-6,8C371.7,116.2,372.2,112.4,375.7,110.8z"/>
		<path class="st30" d="M382.6,99.9c0,1,0,2,0,3c-0.2,1.3-0.8,2.3-2,3c-1,0.7-2,1.4-3,2C377.4,104,381.1,102.6,382.6,99.9z"/>
		<path class="st30" d="M386.6,95.9c-0.3,2.4-1.6,3.7-4,4C382.9,97.5,384.3,96.2,386.6,95.9z"/>
		<path class="st31" d="M200.7,173.9c-6.7,10.8-11.7,21.6-14.2,33.3c-8.5,40.2,3,74.2,33.6,101.2c58,50.9,155.1,30.7,187.9-38.7
			c2.1-4.5,3.8-9.1,5.8-14.1c18.6,19.7,28.6,42.5,28,69.6c-0.2,8.3-1.4,16.5-3.3,24.6c-0.6,2.8-1.9,3.7-4.7,3.9
			c-36.5,2.3-72.9,2.7-109.4,0.4c-33-2-65.7-5.6-98-12.3c-40.6-8.4-80.2-19.8-115.9-41.7c-21.7-13.3-40.1-30-51.2-53.4
			c-5.6-11.8-8.1-24.2-5.8-37.2c3-16.9,14-28,27.8-37c6.4-4.2,13.1-6.2,20.9-6.1C135,166.9,167.6,169.6,200.7,173.9z"/>
		<path class="st1" d="M424.5,218.4c-19.3-16.9-41-29.8-64.6-39.8c-0.4-0.2-0.8-0.6-1.2-0.9c-1.1-4.2,1.4-7.5,3.2-10.6
			c5.1-8.6,7.5-18.4,12.4-27c6.2-10.9,12.5-21.8,18.9-32.5c3.7-6.1,8.2-11.2,13.7-15.5c8.9-6.9,20.3-2.9,22.4,8.2
			c2.4,12.6,3.6,25.4,3.5,38.4c-0.1,12.4,0.7,24.9-1.4,37.1c-2,11.8-2.7,23.6-4.3,35.4C426.9,213.7,426.7,216.4,424.5,218.4z"/>
		<path class="st32" d="M268.8,245.3c0.8-16.6,7.2-34.2,21.1-48.9c2.6-2.7,5-3.6,8.7-2.2c9.3,3.4,18.8,6.3,28.3,9.3
			c2.4,0.7,3.6,2.1,3.8,4.5c3,25.9-4.5,48.1-23.5,66.1c-2,1.9-4.5,3.4-7,4.6c-11.3,5.7-21.8,2.1-27.4-9.3
			C269.5,262.8,268.7,255.8,268.8,245.3z"/>
		<path class="st1" d="M296.1,157.4c-17.9-4-35.9-7.7-54.1-10.4c-2.5-0.4-5.3,0.5-7.7-1.3c0.1-0.2,0.3-0.4,0.4-0.6
			c2.7-1.1,4.8-2.9,6.4-5.3c8.3-12.6,18.6-23.6,28.5-35c3.5-4.1,7.6-7.8,12.4-10.6c0.5-0.2,1-0.4,1.5-0.5c2.2-0.2,4.2-1,6.3-1.1
			c7.8-0.6,13,3.3,13.4,11.2c0.9,17-0.6,33.9-5,50.4C297.9,155.5,297.1,156.6,296.1,157.4z"/>
		<path class="st33" d="M424.5,218.4c2.3-9.9,1.6-20.3,3.6-30c2.5-11.9,3.6-23.8,3.6-35.8c0-8.9,0.7-17.8-0.4-26.8
			c-0.6-5.2-0.7-10.7-1.4-15.8c-0.9-6.7-0.6-14.7-8.5-18.9c-4.6-2.5-8.6-1.9-12.4,0.9c-8.8,6.4-14.8,15.1-19.7,24.8
			c-3.6,7.3-8.7,13.8-12.3,21.1c-6.5,13.1-12.3,26.5-18.4,39.8c-2.5-0.7-5-1.4-7.2-2.9c4.2-5.3,5.3-12,8.3-17.7
			c6.3-11.9,10.7-24.7,19.2-35.5c3.5-4.4,5.3-10.2,8.3-15.1c4.6-7.3,10.5-13.1,17.5-17.9c5.2-3.9,11.4-4.8,17.4-3.8
			c6.4,1,9.8,6.3,12.3,11.9c2.3,5.2,2.6,11,3,16.5c0.8,11.2,1.5,22.4,1.5,33.6c0,9.9-2.4,19.7-1.1,29.7c0.1,1.2-0.2,2.3-0.5,3.4
			c-1.6,6.8-2.7,13.5-2.3,20.6c0.4,8-3.2,15.4-5.6,22.9C427.4,222,425.9,220.2,424.5,218.4z"/>
		<path class="st34" d="M228.3,145.5c0.1-0.7-0.1-1.7,0.3-1.9c4.9-3.4,6.8-9,10-13.7c4.3-6.2,9.3-12.2,14.5-17.4
			c5.4-5.3,9.5-12.2,16.9-15.9c4.2-2.1,7.7-5.9,12.2-7.8c4.2-1.5,8.2-3.3,12.8-3.4c10.6-0.1,18.5,6.8,19.1,17.3
			c0.6,10.5,0.5,20.9-0.8,31.4c-0.9,8.2-5.8,15.6-4.1,24.1c0.2,0.8-0.5,1.5-1.1,2.2c-1.3-0.4-2.7-0.7-4-1.1c-3.3-2.1-2.4-5.2-1.7-8
			c3.9-15.5,5.7-31.2,4.6-47c-0.7-11.5-10.3-18.3-23.3-11.5c-1.3,0.7-2.5,1.6-3.7,2.5c-9.5,3.9-15.5,12-22.1,19.2
			c-6.1,6.7-10.9,14.5-17.3,20.9c-2.8,2.8-3.4,7.2-6.3,10l0.1,0.3C232.3,145.7,230.3,145.6,228.3,145.5z"/>
		<path class="st13" d="M429.5,223.2c-0.4-3.7,0.6-7.2,1.9-10.6c1.8-5,3-10,2.1-15.4c-0.6-3.8,0.2-7.6,1.1-11.3
			c2.8-12.1,2-24.4,2.8-36.6c0.8-11.5-0.2-23-1.1-34.5c-0.4-5.2-0.9-10.5-2.3-15.6c-2.7-10.2-10.8-16.9-22.9-13.3
			c-2.7,0.8-3.6,4-6.6,4c-0.8-3.4,1.9-3.9,4-5h0c4.3,0.1,8.4-1.2,12.7-1.1c4.4,0,7.6,1.2,9.7,5.2c0.8,1.5,1.5,3,3.5,2.9
			c0.3,0.3,0.7,0.7,1,1c1.6,1.3,1.4,3.3,2,5l0,0c1.7,2,1,4.7,2,7c0,0.3,0,0.7,0,1c1,3.2,0.8,6.6,1,10c0,0.7,0,1.3,0,2
			c2.2,10.7,1.3,21.5,0.9,32.3c-0.4,9.1-2,18.2-0.9,27.4c-2.9,7.4-3.2,15-2.3,22.9c0.5,5-2.2,9.7-3.4,14.6
			c-0.9,3.4-0.6,7.2-3.1,10.2C430.8,224.5,430.1,223.9,429.5,223.2z"/>
		<path class="st28" d="M408.5,84.9c-1.7,1.4-3.3,2.8-4,5c-10.6,8.2-18.1,18.6-23.5,31c-1.9,4.5-5.3,8.8-8.3,13.1
			c-2.4,3.4-4.5,6.8-5.2,11c-0.7,4-4.2,6.6-5.8,10.1c-1.8,4.2-3.3,8.5-4.7,12.9c-1,3.1-3.1,5-5.6,6.7c-1-0.2-2.1-0.2-2.8-1.2
			c-1.9-2.9-0.1-5.2,1.5-7.2c3.1-4,5.2-8.5,6-13.4c1-5.4,5.2-9,7.2-13.9c0.7-1.8,1.4-3.7,2.3-5.4c3-2.6,5.9-5,7-9.3
			c1.4-5.4,7.3-8.5,7.9-14.5c1.4-2.8,3.2-5.4,5-8l0,0c2-2,3.7-4.3,5.9-6c0.3-0.3,0.7-0.7,1-1c3.6-0.5,5.4-3.6,7.5-5.8
			C402.6,86.5,405.2,85.2,408.5,84.9z"/>
		<path class="st35" d="M308,160.5c-0.4-6.4-0.1-12.4,2.8-18.6c1.8-3.8,1.2-9.1,1.9-13.8c1.2-8.8,0.6-17.8-0.2-26.5
			c-1.1-11.5-12.4-17-22.7-14c-2.5,0.7-5,1.7-7.7,1.4c0-0.3,0-0.7,0-1c3.9-1.1,6.8-4.5,11-5c10.2-1.1,19.8,5.5,23.3,15.4
			c1.5,4.3,2.3,8.3,0.8,12.8c-0.9,2.6-0.3,6.1,0.3,8.5c1.3,5.9-2.3,11.3-0.8,16.9c0.2,0.8-0.1,2-0.6,2.8c-4.2,6.7-2.5,14.8-5,21.9
			C310,161.1,309,160.8,308,160.5z"/>
		<path class="st7" d="M296.1,157.4c2-9.8,5-19.6,5.5-29.5c0.5-8.1,1.1-16.4,0.3-24.6c-0.7-7.3-6.1-10.8-14-9.1
			c-2,0.4-3.9,0.8-5.9,0.7c2.2-5.2,12.7-6.7,17.9-3.2c4.1,2.9,6.3,6.4,6.7,11.4c1.5,17.9-1.8,35.3-5.2,52.6c-0.2,1-0.6,1.9-1.4,2.6
			C298.7,158.1,297.4,157.7,296.1,157.4z"/>
		<path class="st36" d="M300,158.4c0-9,3.3-17.4,4.5-26.2c1.1-8.3,0.9-16.5,0.8-24.8c0-1.1-0.3-2.3-0.1-3.4
			c0.6-4.3-0.5-8.2-4.3-10.3c-4.5-2.5-9.4-5.2-14.7-1.4c-1.3,1-2.7,1.8-4.1,2.7l0,0c-1,0.7-2,0.9-3,0c2.7-2.8,6.1-4.4,9.8-5.4
			c8.6-2.4,15.3,1.6,18.4,10.2c2.6,7.2,1.1,14.4,0.9,21.5c-0.1,6.1-1.5,12.4-2.2,18.3c-0.8,6.5-5.5,13.1-2,20
			C302.7,159.1,301.3,158.7,300,158.4z"/>
		<path class="st22" d="M365.8,133.7c0,4.6-1.7,8.4-4.7,11.9c-1.8,2.1-2.8,5-3.5,7.9c-1.3,4.7-2.5,9.5-6.2,13.2
			c-1.6,1.7-2.8,4.1-2.6,6.8c-1.9-0.3-3.6-0.8-5.2-1.9c7.6-10.1,10.7-22.8,18.1-33C363.1,137,364.4,135.4,365.8,133.7z"/>
		<path class="st12" d="M280.1,416.5c2.3,5.1-1.1,9.4-1.9,14c-0.6,3.6-2.7,7.1-1.1,10.9c-2.2,2.6,0.1,6.3-2,9
			c-2.6-5.2-1.5-10.3,0-15.5c0.8-2.8,1.4-5.7,2-8.6C277.9,422.9,278.5,419.6,280.1,416.5z"/>
		<path class="st16" d="M274.1,422.5c-1.2-7.8-0.7-15.4,2-22.9C275.9,407.2,277.6,415.1,274.1,422.5z"/>
		<path class="st28" d="M440.4,177.5c-1.1-3.5-1.8-6.9-1.3-10.8c1.1-9.8,1.9-19.6,1.3-29.5c-0.2-4.1,2.1-8.3,0.4-12
			c-1.3-2.8-1-4.9-0.4-7.4c1.1,0.5,2.1,1.4,1.9,2.6c-0.9,6.7,0.9,13.3,0.6,20c-0.4,7.8-1.7,15.5-1.5,23.3
			C441.6,168.4,441,173,440.4,177.5z"/>
		<path class="st28" d="M440.4,115.8c-1.8-3.2-2-6.5-1-10C442.6,108.9,441.8,112.3,440.4,115.8z"/>
		<path class="st28" d="M439.4,104.8c-2.3-1.9-2-4.5-2-7C440.9,99.4,440.4,102.1,439.4,104.8z"/>
		<path class="st28" d="M437.4,97.9c-1.6-1.3-2.1-3-2-5C439,93.4,438.7,95.4,437.4,97.9z"/>
		<path class="st22" d="M385.6,101.9c-0.3,3.5-2.2,6-5,8c0-1.3,0-2.7,0-4c0-1.4,0.7-2.4,2-3C383.6,102.5,384.6,102.2,385.6,101.9z"
			/>
		<path class="st22" d="M391.6,95.9c-1,2.9-3,4.9-5.9,6C386.8,99,387.5,95.8,391.6,95.9z"/>
		<path class="st7" d="M279.1,94.9c1,0,2,0,3,0c-15.9,13.9-29.1,30.2-41.2,47.4c-1.6,2.3-3.6,4-6.7,3.1c1.5-4.9,3.9-9.1,7.5-12.9
			c5.2-5.6,9.5-12.1,14.6-17.8C263,107.2,268.6,98.2,279.1,94.9z"/>
	</g>
</g>
</svg>
