<?xml version="1.0" encoding="utf-8"?>
<!-- Generator: Adobe Illustrator 26.0.3, SVG Export Plug-In . SVG Version: 6.00 Build 0)  -->
<svg version="1.1" xmlns="http://www.w3.org/2000/svg" xmlns:xlink="http://www.w3.org/1999/xlink" x="0px" y="0px"
	 viewBox="0 0 512 512" style="enable-background:new 0 0 512 512;" xml:space="preserve">
<style type="text/css">
	.st0{fill:url(#bg_00000069382464279403967960000007498484326564492172_);}
	.st1{fill:#FFFFFF;}
	.st2{fill-rule:evenodd;clip-rule:evenodd;fill:#FFFFFF;}
	.st3{opacity:0.1;}
	.st4{fill:url(#bg_00000008117800723594395800000008413293769663833498_);}
	.st5{fill:url(#bg_00000075871849340882153820000005837787142836542849_);}
	.st6{fill:#FCFCFC;}
	.st7{fill:url(#bg_00000152984385609999136610000017350282395754719670_);}
	.st8{fill:url(#bg_00000145047541880973776360000009614269525620831138_);}
	.st9{fill-rule:evenodd;clip-rule:evenodd;fill:#FCCDD3;}
	.st10{filter:url(#Adobe_OpacityMaskFilter);}
	.st11{mask:url(#mask-2_00000079477019141398897970000007225647416667991979_);fill-rule:evenodd;clip-rule:evenodd;fill:#6534FF;}
	.st12{fill-rule:evenodd;clip-rule:evenodd;fill:#FEFEFE;}
	.st13{fill-rule:evenodd;clip-rule:evenodd;fill:#6534FF;}
	.st14{fill:#8526D1;}
	.st15{fill:#D89738;}
	.st16{fill:#5D1B8F;}
	.st17{fill:#F2A738;}
	.st18{fill-rule:evenodd;clip-rule:evenodd;fill:#F9F9F9;}
	.st19{fill-rule:evenodd;clip-rule:evenodd;fill:#040404;}
	.st20{fill:#FEFEFE;}
	.st21{fill:#F0E20A;}
	.st22{fill:#EFE20A;}
	.st23{fill:#A1DE44;}
	.st24{fill:#FCA433;}
	.st25{fill:#FCAC68;}
	.st26{fill:#F74D7B;}
	.st27{fill:#9FDD46;}
	.st28{fill:#67D1BB;}
	.st29{fill:#FAAC8C;}
	.st30{fill:#FDE723;}
	.st31{fill:#FBAB4C;}
	.st32{fill:#FEF532;}
	.st33{fill:#EDE622;}
	.st34{fill:#5BD0DD;}
	.st35{fill:#B96CAE;}
	.st36{fill:#FBB32B;}
	.st37{fill:#FA9262;}
	.st38{fill:#D5709D;}
	.st39{fill:#9763B8;}
	.st40{fill:#FBDD0F;}
	.st41{fill:#D0EC26;}
	.st42{fill:#FCA036;}
	.st43{fill:#FACF2B;}
	.st44{fill:#D4E52B;}
	.st45{fill:#FCD713;}
	.st46{fill:#FDB83D;}
	.st47{fill:#E9E227;}
	.st48{fill:#CB7896;}
	.st49{fill:#FCD415;}
	.st50{fill:#C1E72E;}
	.st51{fill:#B6DF3A;}
	.st52{fill:#C8DE37;}
	.st53{fill:#C277B4;}
	.st54{fill:#ACE339;}
	.st55{fill:#E79762;}
	.st56{fill:#E77982;}
	.st57{fill:#FCFA68;}
	.st58{fill:#F6C82A;}
	.st59{fill:#B46CB1;}
	.st60{fill:#E1CE32;}
	.st61{fill:#F2C02E;}
	.st62{fill:#F8DB26;}
	.st63{fill:#C97B9F;}
	.st64{fill:#E6F40D;}
	.st65{fill:#D8DC35;}
	.st66{fill:#FDB73F;}
	.st67{fill:#FB7759;}
	.st68{fill:#EDDA2D;}
	.st69{fill:#DA8878;}
	.st70{fill:#EABC6F;}
	.st71{fill:#FDFDC8;}
	.st72{fill:#E8B380;}
	.st73{fill:#D8DB09;}
	.st74{fill:#E4D52E;}
	.st75{fill:#FCC91B;}
	.st76{fill:#FEFB8B;}
	.st77{fill:#F9D515;}
	.st78{fill:#DEE528;}
	.st79{fill:#FBC82E;}
	.st80{fill:#C25CA6;}
	.st81{fill:#FBC331;}
	.st82{fill:#FBB53E;}
	.st83{fill:#FC8E47;}
	.st84{fill:#9D63B7;}
	.st85{fill:#86C591;}
	.st86{fill:#78DEA5;}
	.st87{fill:#FBFCA1;}
	.st88{fill:#D87F7F;}
	.st89{fill:#FDF747;}
	.st90{fill:#E2CD31;}
	.st91{fill:#91E38C;}
	.st92{fill:#C5DD36;}
	.st93{fill:#FBB342;}
	.st94{fill:#D2BC7F;}
	.st95{fill:#65D6CC;}
	.st96{fill:#D5D809;}
	.st97{fill:#AEC383;}
	.st98{fill:#FBBB23;}
	.st99{fill:#F9DA24;}
	.st100{fill:#F9AC4C;}
	.st101{fill:#FBBF59;}
	.st102{fill:#E68B69;}
	.st103{fill:#F3A451;}
	.st104{fill:#FBF00E;}
	.st105{fill:#C9F5A2;}
	.st106{fill:#F9B229;}
	.st107{fill:#E9C745;}
	.st108{fill:#A2A2A2;}
	.st109{fill:#FDF10E;}
	.st110{fill:#F0FC0D;}
	.st111{fill:#010100;}
	.st112{fill:#FC8355;}
	.st113{fill:#FC8D48;}
	.st114{fill:#FCBB23;}
	.st115{fill:#FB9854;}
	.st116{fill:#FA6886;}
	.st117{fill:#FB6D6E;}
	.st118{fill:#E95790;}
	.st119{fill:#FB5D67;}
	.st120{fill:#6FCDA1;}
	.st121{fill:#79D278;}
	.st122{fill:#020101;}
	.st123{fill:#FAFD23;}
	.st124{fill:#E2FE38;}
	.st125{fill:#141304;}
	.st126{fill:#CB5DA2;}
	.st127{fill:#B063B1;}
	.st128{fill:#FC8D76;}
	.st129{fill:#E96F92;}
	.st130{fill:#FC8353;}
	.st131{fill:#FC8B4B;}
	.st132{fill:#FB7A86;}
	.st133{fill:#E3FD7C;}
	.st134{fill:#D8BF73;}
	.st135{fill:#DECA58;}
	.st136{fill:#B6EB2D;}
	.st137{fill:#C0D847;}
	.st138{fill:#A2E749;}
	.st139{fill:#BAF35A;}
	.st140{fill:#B6F180;}
	.st141{fill:#D8FB1A;}
	.st142{fill:#D6FA18;}
	.st143{fill:#FB736E;}
	.st144{fill:#96DE4B;}
	.st145{fill:#75CF83;}
	.st146{fill:#A2C87B;}
	.st147{fill:#8EDD54;}
	.st148{fill:#BDEF28;}
	.st149{fill:#B8EE29;}
	.st150{fill-rule:evenodd;clip-rule:evenodd;fill:#0097A7;}
	.st151{fill:#FEB800;}
	.st152{fill:#FBE000;}
	.st153{fill:#EF3A17;}
	.st154{fill:#0146FD;}
	.st155{fill:#17C50C;}
	.st156{fill:#FEFDFC;}
	.st157{fill:#2081E2;}
	.st158{fill-rule:evenodd;clip-rule:evenodd;fill:#E2E2E2;}
	.st159{fill:#B3788F;}
	.st160{fill:#ECBB2B;}
	.st161{fill:#5B4E29;}
	.st162{fill:#766329;}
	.st163{fill:#C8A02A;}
	.st164{fill:#786429;}
	.st165{fill:#7B6629;}
	.st166{fill:#CCA32A;}
	.st167{fill:#796529;}
	.st168{fill:#AD8C29;}
	.st169{fill:#8D7429;}
	.st170{fill:#B18E2A;}
	.st171{fill:#A08229;}
	.st172{fill:#A48529;}
	.st173{fill:#8E7429;}
	.st174{fill:#8C7329;}
	.st175{fill:#BA962A;}
	.st176{fill:#D0A62B;}
	.st177{fill:#CBA22A;}
	.st178{fill:#CEA42A;}
	.st179{fill:#967A29;}
	.st180{fill:#CDA42A;}
	.st181{fill:#D3A82B;}
	.st182{fill:#B08E29;}
	.st183{fill:#C79F2A;}
	.st184{fill:#B9942A;}
	.st185{fill:#D2A72B;}
	.st186{fill:#907629;}
	.st187{fill:#A28329;}
	.st188{fill:#957A29;}
	.st189{fill:#B29029;}
	.st190{fill:#CAA22A;}
	.st191{fill:#F1EDBA;}
	.st192{fill:#FDFDFD;}
	.st193{fill:#776329;}
	.st194{fill:#947929;}
	.st195{fill:#AA8A29;}
	.st196{fill:#7A6529;}
</style>
<g id="MIVA:SYMM">
</g>
<g id="MIVA-FRACTION">
</g>
<g id="FRACTION-MIVA">
</g>
<g id="MIVA-HNY">
</g>
<g id="MIVA-WXDAI">
</g>
<g id="zeroalpha">
</g>
<g id="POAP">
</g>
<g id="pixeth">
</g>
<g id="xDaiTigers">
</g>
<g id="Fraction_Early">
</g>
<g id="CryptoStamp">
</g>
<g id="Epor.io">
</g>
<g id="nifty-ink">
</g>
<g id="Opensea">
</g>
<g id="Placeholder">
</g>
<g id="Foundation">
</g>
<g id="cryptoWine">
</g>
<g id="NFTBeez_00000167391764337955545130000012586990163054116534_">
	<g id="NFTBeez">
		<circle class="st160" cx="256" cy="255.789" r="248.925"/>
		<g>
			<path class="st161" d="M346.789,488.041c-19.72,8.121-40.169,13.3-61.425,15.224c-3.173,0.019-3.372-2.437-3.13-4.459
				c1.533-12.811,1.034-25.765,2.821-38.552c0.984-7.043,1.057-14.18,2.235-21.209c0.795-4.744,1.803-9.431,3.237-14.011
				c1.603-5.119,1.786-10.262,1.787-15.63c0.001-10.578,1.837-20.956,7.104-30.423c4.939-1.253,9.913-0.147,14.756,0.296
				c23.584,2.157,47.208,1.732,70.83,1.798c2.628,0.007,5.305-0.295,7.83,0.783c1.604,1.102,0.79,1.856-0.367,2.562
				c-3.797,0.359-5.66,2.481-6.573,6.2c-1.177,4.793-3.332,9.341-5.228,13.862c-2.766,6.594-4.569,13.437-6.919,20.123
				c-7.068,20.11-14.501,40.095-23.356,59.513C349.598,485.855,348.495,487.197,346.789,488.041z"/>
			<path class="st161" d="M138.543,475.306c-11.35-5.445-21.768-12.352-31.613-20.158c-0.94-4.172-0.13-8.502,1.025-12.21
				c2.493-8.002,1.84-16.517,4.583-24.335c5.08-14.479,6.952-29.97,14.057-43.813c2.434-4.743,2.588-10.218,4.015-15.305
				c1.436-5.116,2.738-10.232,5.785-14.693c1.887-0.914,3.565,0.079,5.211,0.705c21.649,8.232,43.886,14.443,66.468,19.492
				c1.577,0.353,3.325,0.407,4.431,1.896c-4.541,11.171-10.164,21.8-16.798,31.848c-3.108,4.707-5.547,9.761-8.424,14.581
				c-7.883,13.204-16.988,25.576-25.765,38.146c-5.241,7.506-11.988,13.966-17.454,21.405
				C142.807,474.58,141.012,475.923,138.543,475.306z"/>
			<path class="st162" d="M298.964,379.813c-1.283,8.793-4.974,17.089-5.253,26.105c-0.171,5.52,1.332,11.122-0.827,16.557
				c-5.321,13.393-5.163,27.758-7.002,41.724c-1.517,11.522-0.577,23.308-2.582,34.854c-0.311,1.79,0.611,3.181,2.063,4.211
				c-2.655,1.235-5.474,0.741-8.242,0.776c-0.818-7.038,0.031-14.054,0.131-21.082c0.193-13.545,3.839-26.745,3.493-40.316
				c-0.14-5.504,1.221-10.838,2.92-16.03c2.283-6.976,3.455-13.983,3.153-21.415c-0.372-9.156,1.537-18.008,6.238-26.079
				C295.157,378.232,297.191,377.928,298.964,379.813z"/>
			<path class="st163" d="M451.306,101.923c-0.493,8.828,0.018,17.516,1.385,26.326c0.783,5.045,1.458,10.579,0.073,15.99
				c-0.805,3.145-1.328,6.421,0.325,9.939c1.882,4.004-1.843,7.767-2.042,11.844c-0.039,0.802-0.818,1.791-0.547,2.351
				c4.556,9.405-3.019,17.744-2.357,26.825c0.115,1.582-0.116,2.951,0.65,4.577c1.772,3.764-0.41,7.239-1.353,10.854
				c-2.225,8.533-4.093,17.159-6.105,25.748c-2.985,0.051-3.645-2.09-4.15-4.385c-0.332-7.452,2.798-14.227,4.34-21.303
				c1.731-7.944-0.084-16.101,2.258-24.023c1.356-4.589,2.726-9.399,0.872-14.484c-0.727-1.995,0.362-4.586,1.148-6.752
				c1.116-3.073,1.301-6.102,0.567-9.26c-0.414-1.78-0.774-3.728-0.246-5.418c2.211-7.083,0.111-14.367,1.234-21.509
				c0.564-3.589-1.043-7.148-1.622-10.696c-1.387-8.5-1.026-17.408-5.189-25.359c-0.681-1.301-1.232-2.764-0.181-4.214
				C444.485,92.891,448.135,97.204,451.306,101.923z"/>
			<path class="st164" d="M138.543,475.306c2.839-1.174,4.823-3.175,6.608-5.717c4.387-6.247,9.488-11.919,14.588-17.615
				c3.457-3.861,6.394-8.435,9.079-12.822c7.549-12.332,16.969-23.458,23.076-36.764c2.348-5.117,6.164-9.688,9.05-14.686
				c3.132-5.423,5.918-10.992,8.357-16.751c0.632-1.493,1.188-3.175,3.231-3.367c1.759-1.312,3.423-1.305,4.969,0.35
				c-4.773,9.856-7.408,20.842-15.677,28.865c-1.976,1.917-2.816,4.818-3.834,7.451c-2.164,5.597-5.154,10.71-9.196,15.177
				c-0.555,0.613-1.192,1.177-1.604,1.887c-9.282,16.015-20.655,30.553-31.863,45.209c-2.365,2.9-5.233,5.342-7.477,8.367
				c-1.291,1.74-3.016,2.963-5.421,2.474C140.93,477.064,139.586,476.469,138.543,475.306z"/>
			<path class="st165" d="M136.654,345.029c-1.841,6.444-4.669,12.591-5.735,19.271c-1.959,12.272-9.582,22.699-11.475,34.98
				c-1.479,9.598-6.942,18.229-7.388,27.923c-0.404,8.793-3.86,16.933-4.287,25.635c-0.038,0.782-0.549,1.54-0.839,2.31
				c-1.957-0.939-3.558-2.337-5.02-3.912c-1.083-6.031,1.284-11.649,2.362-17.369c0.886-4.699,2.29-9.257,2.335-14.127
				c0.053-5.631,3.022-10.414,5.151-15.412c0.717-1.682,1.728-3.3,1.605-5.155c-0.545-8.214,3.283-15.121,6.827-21.983
				c2.354-4.557,3.365-9.185,3.831-14.196c0.683-7.357,3.304-14.049,8.42-19.59C134.265,342.857,135.719,343.274,136.654,345.029z"
				/>
			<path class="st166" d="M408.537,382.685c-0.161,4.508-1.149,8.79-3.83,12.497c-7.598,10.505-9.947,22.798-12.174,35.157
				c-0.255,1.415-0.698,3.067-1.64,4.043c-5.321,5.508-6.326,12.722-8.391,19.602c-1.09,3.63-1.736,7.47-4.341,10.707
				c-2.435,3.025-4.178,6.685-4.407,10.786c-2.15,1.619-4.476,2.902-7.062,3.685c-1.449-1.772-0.557-3.442,0.281-5.064
				c3.366-6.511,5.631-13.388,7.004-20.577c0.309-1.618,0.464-3.336,1.518-4.683c7.415-9.481,8.675-21.186,11.659-32.26
				c0.469-1.74,0.285-3.732,1.427-5.21c6.051-7.83,7.701-17.415,10.688-26.466c0.364-1.104,0.603-2.249,1.696-2.926
				C403.598,381.056,406.184,380.644,408.537,382.685z"/>
			<path class="st167" d="M346.789,488.041c5.482-9.763,9.495-20.198,13.304-30.657c4.668-12.815,10.984-25.074,13.807-38.506
				c1.009-4.8,3.346-8.935,4.949-13.419c2.024-5.662,4.43-11.198,6.219-16.93c1.094-3.505,2.574-5.645,6.552-4.868
				c2.348,4.029,0.859,8.129-1.137,11.294c-7.525,11.929-9.497,25.656-13.411,38.756c-0.38,1.272-0.478,2.725-1.398,3.685
				c-4.499,4.694-5.539,10.897-7.049,16.759c-1.513,5.876-3.724,11.309-7.017,16.354c-1.926,2.951-2.988,6.285-4.087,9.585
				c-0.709,2.129-1.712,3.945-3.751,5.039C351.624,486.537,349.317,487.555,346.789,488.041z"/>
			<path class="st168" d="M150.565,481.436c-1.377-0.696-2.754-1.392-4.131-2.088c1.754-4.049,5.304-6.656,7.974-9.97
				c1.346-1.67,2.477-3.51,3.296-5.518c0.77-1.552,1.939-2.706,3.476-3.489c5.765-5.694,11.858-11.133,14.55-19.16
				c0.308-0.643,0.759-1.164,1.332-1.581c5.125-3.511,7.326-8.98,9.617-14.389c0.295-0.66,0.72-1.223,1.24-1.719
				c5.616-4.049,7.615-10.723,10.771-16.281c4.349-7.659,10.262-14.501,13.008-23.065c1.978-3.262,3.831-6.572,5.211-10.152
				c1.03-2.671,2.405-5.174,5.75-5.536c2.069-0.039,4.249-0.496,5.81,1.465c-4.342,6.143-6.383,13.654-11.876,19.188
				c-2.789,2.81-3.567,7.055-5.177,10.677c-2.575,5.795-6.939,10.382-10.157,15.689c-6.04,9.962-12.405,19.636-19.972,28.504
				c-1.852,2.171-2.795,4.869-4.06,7.377c-5.683,6.825-11.241,13.778-17.036,20.483C157.31,475.206,154.847,479.357,150.565,481.436
				z"/>
			<path class="st169" d="M293.058,379.55c-1.581,6.852-5.35,13.596-4.714,20.471c1.175,12.692-2.729,24.288-5.448,36.188
				c-1.622,7.1,0.42,14.41-1.745,21.479c-2.859,9.333-0.912,19.184-2.852,28.712c-1.162,5.707,0.75,11.839-1.179,17.64
				c-0.669,0.082-1.338,0.165-2.008,0.247c-0.844,0.343-1.655,0.416-2.374-0.286c-0.866-5.259-1.256-10.538-0.594-15.858
				c0.396-1.262,0.669-2.552,0.789-3.869c0.984-10.796,1.177-21.673,3.728-32.304c0.813-3.389-1.341-6.797-0.563-10.29
				c1.639-8.839,4.854-17.312,6.085-26.256c0.406-2.95,0.713-5.852,0.024-8.782c0.131-9.786,3.507-18.912,5.777-28.269
				C290.014,377.309,291.778,377.393,293.058,379.55z"/>
			<path class="st170" d="M440.366,88.973c1.29,4.723,3.7,8.999,4.74,13.909c1.103,5.206,0.27,10.565,2.175,15.674
				c2.612,7.009,0.025,14.581,1.857,21.798c0.517,2.034-0.494,4.547-1.108,6.755c-0.914,3.286-1.146,6.57-0.036,9.764
				c1.656,4.767-1.644,8.781-1.737,13.263c-0.016,0.766-0.928,1.78-0.664,2.245c3.785,6.658-0.561,12.787-1.306,19.08
				c-1.034,8.728,0.436,17.758-2.956,26.197c-1.93,4.801-2.642,9.831-3.102,14.926c-2.828-0.393-4.199-2.121-4.468-4.866
				c1.458-5.249,2.411-10.619,4.066-15.839c1.437-4.53,2.154-9.187,1.434-14.135c-0.746-5.124,1.189-10.136,2.388-15.106
				c0.554-2.293,0.867-4.487,0.574-6.841c-0.553-4.45,0.15-8.866,0.406-13.31c0.581-10.106,1.968-20.161,0.994-30.402
				c-0.71-7.464-0.941-15.021-1.632-22.507c-0.689-7.473-3.057-14.505-7.368-20.757c-1.241-1.8-2.79-3.283-5.089-3.667
				c-4.034-0.895-7.253-4.223-11.702-3.895c-1.366-0.293-3.052-0.033-3.445-1.993c5.34-3.247,10.775-2.196,16.228-0.371
				C434.203,81.927,437.523,85.219,440.366,88.973z"/>
			<path class="st171" d="M400.608,382.819c-1.692,9.483-3.935,18.762-9.507,26.883c-1.389,2.024-2.41,4.073-2.589,6.778
				c-0.416,6.262-2.669,12.204-4.726,18.062c-4.143,11.802-10.41,22.825-13.11,35.166c-0.751,3.429-4.34,5.6-3.985,9.453
				c-2.201,1.267-4.212,2.984-6.966,2.939c-0.838-5.707,1.395-10.696,4.461-15.071c3.349-4.778,5.301-9.91,6.036-15.535
				c0.462-3.534,1.403-6.957,3.251-9.821c5.799-8.988,8.184-19.047,10.051-29.331c0.447-2.463,1.507-4.738,2.458-7.015
				c2.924-6.999,7.464-13.266,9.376-20.739c0.285-1.116,1.182-1.979,2.282-2.514C398.771,381.76,399.821,381.768,400.608,382.819z"
				/>
			<path class="st172" d="M97.969,448.052c-1.289-0.593-2.361-1.431-3.062-2.692c0.022-5.939,0.184-11.839,3.277-17.209
				c0.76-1.319,0.77-2.86,0.627-4.367c-0.438-4.604,0.947-8.821,2.679-12.985c2.029-4.878,3.734-9.757,4.04-15.204
				c0.319-5.668,3.499-10.627,5.547-15.852c2.248-5.739,4.851-11.051,5.361-17.683c0.592-7.703,4.99-14.921,8.077-22.225
				c2.245-0.829,3.623,0.366,4.794,2.049c0.915,4.092-1.499,7.381-2.878,10.829c-1.61,4.025-2.969,7.999-3.587,12.338
				c-0.917,6.442-3.561,12.408-6.181,18.331c-2.689,6.079-5.165,12.209-5.461,18.98c-0.058,1.322-0.267,2.662-0.797,3.888
				c-5.107,11.803-6.961,24.452-9.656,36.885C100.342,445.003,100.284,447.203,97.969,448.052z"/>
			<path class="st173" d="M97.969,448.052c2.278-10.056,4.801-20.065,6.741-30.186c1.153-6.019,5.322-10.942,5.367-17.357
				c0.059-8.389,4.546-15.525,7.581-23.02c1.93-4.766,3.594-9.545,4.091-14.643c0.592-6.076,4.152-11.052,5.891-16.696
				c0.435-1.412,1.269-2.698,1.097-4.262c2.035-0.702,3.276,0.143,3.978,2.04c-4.325,7.161-7.832,14.625-7.837,23.217
				c-0.005,7.377-5.372,12.595-7.54,19.122c-1.257,3.783-2.99,7.358-2.505,11.439c0.64,5.379-3.368,9.124-4.813,13.78
				c-0.718,2.312-2.003,4.672-2.039,7.001c-0.175,11.287-4.136,21.823-6.071,32.75C100.597,450.174,99.283,449.113,97.969,448.052z"
				/>
			<path class="st174" d="M397.597,382.791c-3.101,10.035-9.384,18.692-12.577,28.627c-1.223,3.806-2.006,7.984-2.551,11.931
				c-1.193,8.625-6.658,15.214-9.501,22.999c-1.855,5.08-1.548,10.677-4.157,15.552c-0.507,0.947-0.42,2.266-1.351,3.077
				c-5.197,4.53-5.453,11.283-7.736,17.125c-2.109,0.767-3.552,2.843-5.954,3.033c5.019-13.435,13.668-25.423,15.925-39.962
				c0.149-0.957,0.178-2.112,0.731-2.798c8.313-10.314,8.533-23.413,12.163-35.321c1.279-4.195,4.429-7.182,6.157-11.084
				c1.765-3.986,2.855-7.984,2.874-12.308c0.679-0.283,1.357-0.566,2.036-0.849C394.963,381.474,396.276,381.484,397.597,382.791z"
				/>
			<path class="st175" d="M124.741,340.029c-0.198,5.572-3.268,10.209-5.035,15.264c-1.283,3.669-3.031,6.948-2.117,11.28
				c1.008,4.779-3.434,8.194-4.823,12.512c-2.167,6.737-5.697,12.821-6.275,20.329c-0.487,6.323-4.579,12.293-5.738,18.662
				c-1.153,6.329-1.69,12.591-4.389,18.668c-1.002,2.257,1.161,5.994-1.457,8.615c-1.393-0.601-2.445-1.595-3.273-2.846
				c-0.561-3.473-0.157-6.708,1.213-10.067c1.54-3.774,2.304-7.812,2.237-12.047c-0.075-4.751,3.011-8.617,4.625-12.901
				c1.335-3.543,3.025-6.963,2.137-10.92c0.063-5.524,3.38-9.913,5.206-14.821c2.281-6.131,4.608-12.03,5.452-18.8
				c1.004-8.052,5.211-15.566,8.928-22.949c0.223-0.443,0.59-0.792,0.95-1.137C123.661,338.253,124.347,338.843,124.741,340.029z"/>
			<path class="st176" d="M273.156,503.942c0.654,0.115,1.308,0.23,1.959,0.345c-4.598,1.173-9.267,0.741-13.921,0.642
				c1.437-3.99,3.09-7.953,1.064-12.258c-0.194-0.412-0.148-0.989-0.075-1.468c1.672-11.095,0.284-22.473,3.086-33.451
				c0.311-1.218,1.231-2.281,1.869-3.415c-0.246-8.63,0.893-17.068,3.52-25.296c0.157-0.492,0.7-0.64,1.154-0.81
				c1.386,0.783,1.628,2.188,1.359,3.46c-2.349,11.121,0.585,22.928-4.374,33.704c-0.205,0.445-0.408,0.978-0.338,1.442
				c1.367,9.032-1.291,17.99-0.479,26.998c0.165,1.827,0.442,3.63,0.004,5.425c-0.487,1.996,0.032,3.253,2.234,3.477
				C271.323,502.837,272.281,503.289,273.156,503.942z"/>
			<path class="st177" d="M430.613,78.895c-5.359,0.65-10.875-1.112-16.136,1.052c-2.048,1.862-4.783,1.351-7.155,2.084
				c-5.017-0.463-7.99,3.293-11.423,5.835c-2.708,2.004-5.297,4.315-7.339,7.096c-0.436,0.507-0.933,0.95-1.471,1.344
				c-1.432,0.879-2.801,1.827-3.549,3.424c-0.193,0.386-0.414,0.753-0.638,1.12c-1.339,2.476-3.87,4.204-4.441,7.156
				c-0.541,1.239-1.494,2.188-2.278,3.257c-2.385,2.342-4.037,5.135-5.103,8.29c-0.305,1.352-0.506,2.746-1.543,3.798
				c-1.502,1.015-2.515,3.019-4.827,2.409c-0.12-3.693,1.463-6.634,4.146-9.008c0.759-0.672,1.383-1.3,1.805-2.261
				c5.57-12.705,14.309-22.862,25.193-31.314c9.08-7.051,19.548-8.773,30.645-8.233C428.179,75.939,429.546,77.261,430.613,78.895z"
				/>
			<path class="st176" d="M102.865,396.573c1.76,4.102-0.45,7.588-1.818,11.161c-1.568,4.097-4.585,8.1-4.648,12.179
				c-0.059,3.846-0.525,7.53-1.728,10.886c-1.384,3.86-1.502,7.959-3.037,11.716c-0.895-0.789-1.791-1.579-2.686-2.369
				c0.327-4.03,0.19-8.157,3.089-11.542c0.571-0.667,0.92-1.86,0.799-2.732c-1.194-8.625,3.19-15.772,6.034-23.327
				C100.254,400.589,98.618,396.613,102.865,396.573z"/>
			<path class="st178" d="M150.565,481.436c5.145-6.887,10.836-13.287,16.731-19.549c3.187-3.386,4.597-8.368,9.212-10.569
				c1.206-0.933,1.985-2.735,4.022-1.977c-0.179,0.952-0.023,2.377-0.591,2.78c-4.777,3.389-7.079,8.876-10.959,12.832
				c-4.53,4.618-8.07,9.966-12.481,14.616c-1.146,1.208-2.034,2.585-3.895,2.658C151.829,482.21,150.994,482.345,150.565,481.436z"
				/>
			<path class="st179" d="M158.622,464.276c-2.452,6.326-7.456,10.589-12.188,15.071c-1.535-0.257-2.893-0.871-4.003-1.985
				c5.578-2.038,7.196-8.431,12.203-11.096C155.679,465.033,156.559,463.471,158.622,464.276z"/>
			<path d="M124.741,340.029c-0.667-0.301-1.333-0.602-2-0.903c-2.406,0.95-3.725-0.53-4.953-2.214
				c-19.455-9.732-38.091-20.715-54.29-35.438c-17.347-15.766-30.732-34.254-37.972-56.709
				c-10.961-33.997,0.276-66.754,30.175-89.012c8.137-6.058,17.013-10.829,26.186-15.097c1.555-0.724,3.113-0.92,4.786-1
				c42.127-2.015,84.149-0.654,126.077,3.836c1.809,0.194,3.637,0.211,5.457,0.31c3.481,0.495,7.038-1.322,10.482,0.331
				c1.922,0.101,3.841,0.23,5.729,0.636c18.345,2.077,36.428,5.641,54.439,9.604c2.249,0.495,4.498,1.019,6.68,1.764
				c1.507,0.278,2.939,0.847,4.431,1.183c1.401,0.293,2.741,0.823,4.152,1.081c1.347,0.301,2.66,0.741,4.014,1.022
				c1.117,0.247,2.204,0.597,3.29,0.951c1.356,0.367,2.508,1.096,3.547,2.02c8.589,2.742,17.179,5.484,25.768,8.227
				c1.015,0.66,2.177-0.233,3.206,0.29c1.687,0.526,3.35,1.124,4.967,1.844c1.025,0.442,2.094,0.769,3.138,1.167
				c2.273,1.133,4.738,1.801,7.032,2.888c21.435,9.437,41.993,20.347,60.052,35.503c1.906,1.6,3.763,3.231,5.502,5.001
				c1.639,1.794,3.364,3.51,5.079,5.233c0.734,0.755,1.458,1.521,2.207,2.264c1.075,0.997,1.947,2.139,2.484,3.517
				c0.898,1.757,2.342,3.024,3.824,4.258c0.729,1.515,1.741,2.798,3.106,3.791c14.176,18.791,23.894,39.533,27.421,62.952
				c3.191,21.189,2.317,42.285-2.499,63.111c-1.202,5.198-4.35,9.942-6.559,14.915c-1.166,2.626-3.593,1.998-5.603,2.145
				c-15.182,1.114-30.372,2.136-45.559,3.187c-2.643,0.045-5.286,0.09-7.929,0.134c-1.004-0.01-2.007-0.019-3.011-0.029
				c-1.314,0.007-2.627,0.014-3.941,0.021c-9.606-0.029-19.213-0.167-28.818-0.066c-22.015,0.233-43.942-1.377-65.874-2.933
				c-1.969-0.087-3.938-0.174-5.906-0.262c-1.594-0.736-3.263-0.966-5-0.748c-0.841,0.867-1.923,0.98-3.042,0.985
				c-2.441-0.195-4.698-1.056-6.943-1.961c-14.854-2.086-29.708-4.173-44.561-6.259c-1.547-1.038-3.564,0.387-5.051-0.964
				c-1.834-1.128-3.901-0.925-5.913-1.035c-1.517-1.067-3.654,0.978-4.99-0.995c-1.505-1.199-3.321-0.813-5.026-0.988
				c-14.831-3.886-29.822-7.128-44.487-11.694c-10.586-3.296-21.003-7.023-31.39-10.863c-1.329-0.309-2.39-1.58-3.94-1.1
				c-1.326-0.68-2.652-1.36-3.978-2.039C127.405,341.268,126.073,340.648,124.741,340.029z"/>
			<path class="st180" d="M314.971,162.394c-1.321-0.348-2.643-0.697-3.964-1.045c-0.676-6.242,0.043-12.48,2.226-18.203
				c2.362-6.191,2.151-12.599,2.891-18.885c0.626-5.317,0.155-10.793,0.392-16.216c0.381-8.71-2.081-16.284-11.734-20.898
				c-6.825-3.262-12.739-3.894-18.998,0.471c-0.94,0.656-2.203,0.666-3.289,1.062c-8.277,1.634-14.072,7.427-20.469,12.213
				c-5.01,3.749-8.758,8.827-13.531,12.833c-1.407,0.48-2.813,1.227-4.25,0.082c3.949-7.859,10.659-13.21,17.32-18.46
				c4.869-3.838,9.98-7.666,15.565-10.232c10.493-4.819,21.819-7.265,32.977-3.032c7.39,2.804,11.509,8.554,12.442,17.481
				c1.23,11.771-0.016,23.362-1.073,34.821C320.612,143.758,318.668,153.415,314.971,162.394z"/>
			<path class="st181" d="M117.787,336.911c1.651,0.738,3.302,1.476,4.953,2.214c-2.634,6.69-4.898,13.561-8.056,19.993
				c-1.598,3.254-0.601,6.377-1.324,9.476c-1.765,7.572-5.688,14.29-8.524,21.437c-0.853,2.149-1.914,4.176-1.972,6.542
				c-2.698,1.077-2.212,4.283-3.995,5.972c-1.234-8.896,3.539-16.2,6.777-23.766c1.441-3.366,1.332-7.557,4.546-10.168
				c0.287-0.233,0.434-1.018,0.27-1.373c-4.15-8.998,3.928-15.139,5.43-22.821C116.377,341.941,117.954,339.634,117.787,336.911z"/>
			<path class="st182" d="M248.225,112.812c7.061-8.36,15.363-15.305,24.427-21.372c2.854-1.91,5.816-3.601,9.425-3.528
				c0.275,0.428,0.326,0.886,0.188,1.37c-3.452,3.27-7.662,5.548-11.498,8.275c-4.228,3.005-7.534,6.764-11.284,10.153
				c-4.531,4.095-7.704,9.278-12.251,13.365c-3.715,3.34-6.747,7.764-9.247,12.103c-2.691,4.672-5.933,8.644-9.698,12.338
				c-3.36-0.572-6.72-1.143-10.08-1.715c0.677-0.105,1.354-0.21,2.031-0.315c4.661-2.321,8.66-5.243,10.373-10.526
				c0.78-2.405,2.483-4.14,4.619-5.586c4.025-2.725,5.186-7.906,9.073-10.861C245.703,115.448,246.781,113.909,248.225,112.812z"/>
			<path class="st163" d="M343.625,171.686c-1.067-0.071-2.152-0.093-2.886-1.066c2.886-2.03,2.35-5.366,3.296-8.176
				c1.065-3.163,3.75-5.419,5.154-8.715c4.178-9.809,8.886-19.463,15.521-27.972c1.337-0.994,2.674-1.988,4.01-2.982
				c1.834,3.302,0.174,5.884-2.189,7.754c-2.76,2.185-3.72,4.863-3.75,8.134c-0.539,2.645-1.698,4.916-3.765,6.741
				c-3.167,2.797-3.404,7.008-4.804,10.62c-2.222,5.733-6.396,10.237-9.252,15.553C344.733,172.004,344.095,171.891,343.625,171.686
				z"/>
			<path class="st183" d="M248.225,112.812c-4.54,5.468-7.644,12.133-13.664,16.367c-2.455,1.727-3.2,4.599-4.158,7.106
				c-1.853,4.852-5.604,6.465-10.165,7.203c5.693-4.652,8.956-11.33,13.224-17.047c3.36-4.501,7.877-7.87,10.784-12.631
				C245.572,113.477,246.898,113.144,248.225,112.812z"/>
			<path class="st184" d="M278.074,377.827c2.408-0.37,4.684,0.299,6.97,0.887c0.738,6.343-1.147,12.285-2.824,18.251
				c-1.245,4.429-2.817,8.824-0.476,13.372c0.639,2.186-0.098,4.276-0.434,6.396c-2.825,7.934-4.16,16.239-6.112,24.393
				c-0.777,3.245,0.317,6.198,0.794,9.267c0.3,2.496-0.432,4.858-0.93,7.253c-2.151,6.041-4.159,12.099-2.841,18.673
				c0.195,0.97,0.296,1.991,0.081,2.948c-1.488,6.627-1.889,13.298-1.166,20.061c0.169,1.587,0.218,3.323-0.986,4.705
				c-3.425,0.516-4.768-1.045-3.698-4.214c0.795-2.352,0.259-4.434-0.012-6.732c-0.344-2.906-1.277-5.733,0.305-9.001
				c1.28-2.644,1.79-6.112,0.553-9.549c-1.739-4.835-0.12-9.47,1.727-14.13c2.955-7.453,0.685-15.513,2.069-23.203
				c0.521-2.891,0.694-5.845,1.026-8.77c-0.986-2.461-0.089-4.674,0.89-6.88c1.705-4.648,2.42-9.416,1.861-14.363
				c-0.276-2.445-0.004-4.88,0.334-7.304c1.15-4.924,1.987-9.911,3.82-14.688c0.756-1.969,1.678-4.344,0.03-6.51
				C278.728,378.402,278.401,378.115,278.074,377.827z"/>
			<path class="st177" d="M228.461,370.603c1.723,0.116,3.521-0.163,5.051,0.964c-2.935-0.127-4.613,0.851-5.823,3.973
				c-2.024,5.221-3.853,10.381-8.599,14.545c-4.262,3.739-6.082,10.013-8.212,15.543c-1.145,2.972-2.429,5.691-5.322,7.468
				c-1.202,0.738-2.375,2.005-2.894,3.299c-3.904,9.741-10.978,17.486-16.313,26.317c-1.558,2.579-4.862,3.563-5.82,6.629
				c-1.389,0.559-2.267,2.16-4.022,1.977c0.534-3.321,1.761-6.432,4.291-8.614c3.333-2.874,5.835-6.11,7.427-10.271
				c1.085-2.837,2.728-5.312,5.786-7.035c2.855-1.608,3.147-5.575,4.733-8.413c3.399-6.085,9.3-10.634,11.271-17.551
				c2.723-9.554,11.369-15.709,14.117-25.218C224.714,372.205,226.228,370.861,228.461,370.603z"/>
			<path class="st185" d="M279.055,378.69c3.108,0.565,2.233,3.063,1.821,4.681c-1.384,5.448-3.141,10.801-4.755,16.19
				c-1.615,7.548-0.851,15.304-2.006,22.893c-1.78,1.621-0.438,4.285-1.996,5.98c-2.958,6.2-2.217,13.146-3.937,19.603
				c-0.545,2.047-0.707,4.196-1.044,6.298c-1.665-6.94-1.512-13.904,0.565-20.667c2.822-9.192,3.736-18.694,5.29-28.102
				c1.049-6.347,2.093-12.749,3.943-18.884C277.735,384.034,277.964,381.242,279.055,378.69z"/>
			<path class="st186" d="M217.558,368.573c1.695,0.173,3.498-0.2,4.989,0.996c-3.581,0.471-4.027,3.663-4.99,6.144
				c-1.272,3.275-2.757,6.338-5.163,8.915c-7.952,13.283-15.514,26.802-23.904,39.822c-0.33,0.332-0.66,0.665-0.99,0.997
				c-3.455,4.888-6.561,10.009-9.962,14.933c-0.332,0.333-0.664,0.665-0.996,0.998c-4.702,6.843-9.695,13.469-14.935,19.908
				c-1.33,0.663-2.326,1.66-2.985,2.992c-1.329,0.663-2.658,1.327-3.987,1.99c1.081-4.665,5.305-7.026,7.793-10.652
				c4.464-6.509,8.517-13.504,13.467-19.427c5.853-7.003,8.977-15.668,15.416-22.165c2.996-3.023,4.45-7.251,5.973-11.268
				c1.346-3.551,3.1-6.781,5.906-9.529c5.341-5.23,7.317-12.382,10.192-19.005C214.332,372.031,214.523,369.238,217.558,368.573z"/>
			<path class="st179" d="M188.49,424.449c-0.474-2.579,1.183-4.795,2.433-6.291c8.219-9.839,12.357-22.135,19.938-32.312
				c0.377-0.506,1.016-0.817,1.533-1.219c-1.295,5.159-4.172,9.412-7.125,13.783c-4.269,6.318-7.985,13.045-11.471,19.838
				C192.45,420.873,190.795,422.839,188.49,424.449z"/>
			<path class="st179" d="M161.606,461.285c0.57-2.805,1.757-5.175,4.252-6.834c3.308-2.2,3.596-6.551,6.321-9.182
				c1.401-1.353,2.905-2.598,4.362-3.892c-1.33,4.324-2.448,8.744-6.689,11.397c-1.849,1.157-3.072,2.923-3.987,4.91
				C165.015,459.528,163.936,461.162,161.606,461.285z"/>
			<path class="st179" d="M177.537,440.379c1.631-6.105,5.141-10.956,9.962-14.933C185.605,431.375,183.409,437.103,177.537,440.379
				z"/>
			<path class="st172" d="M270.149,504.032c-0.596-7.965-0.759-15.797,0.475-23.857c0.89-5.814-0.176-11.99,1.353-17.979
				c0.471-1.844,1.249-3.338,2.139-4.888c2.791,0.426,1.536,2.29,1.354,3.786c-1.091,9.002-2.343,17.991-2.344,27.088
				c-0.435,5.255,1.222,10.507,0.029,15.762C272.154,503.972,271.151,504.002,270.149,504.032z"/>
			<path class="st172" d="M281.076,410.53c-3.501-2.752-1.97-6.232-1.247-9.49c1.656-7.46,3.467-14.886,5.215-22.326
				c1.005,0.03,2.01,0.059,3.015,0.089c1.126,6.588-2.815,12.24-3.432,18.52c-0.303,3.088-1.018,6.135-1.547,9.201
				C283.532,408.419,282.499,409.572,281.076,410.53z"/>
			<path class="st187" d="M273.127,488.181c-3.317-6.136,0.256-12.062,0.512-18.092c0.181-4.259,1.857-8.468,0.477-12.782
				c0.328-2.319,0.656-4.637,0.984-6.956c0.549-2.991-1.417-6.32,1.213-9.032c0.264,0.02,0.529,0.04,0.793,0.06
				c2.196,15.096-3.089,29.69-3.037,44.647C274.072,486.743,273.455,487.462,273.127,488.181z"/>
			<path class="st187" d="M281.076,410.53c-0.136-1.738,1.435-2.622,2.004-4.006c2.103,3.628,0.645,7.245,0.066,10.909
				c-1.292,8.171-3.704,16.046-6.04,23.946c0,0-0.008-0.004-0.008-0.004c-2.208-1.703-1.856-3.665-1.165-6.116
				c1.738-6.166,3.836-12.282,4.157-18.772C280.419,414.501,280.747,412.515,281.076,410.53z"/>
			<path class="st187" d="M434.405,228.326c-0.97-1.037-1.941-2.075-2.911-3.112c0.169-5.328,1.758-10.401,3.233-15.423
				c1.232-4.197,2.073-8.309,1.697-12.656c-0.608-7.021,0.394-13.838,2.563-20.515c0.835-11.144,1.97-22.244,2.29-33.44
				c0.179-6.279,0.027-12.487-0.281-18.725c-0.097-1.97,0.113-3.999-0.998-5.795c-0.311-0.744-0.436-1.524-0.41-2.324
				c0.482-3.289,1.213-6.597-0.556-9.761c-0.199-0.41-0.338-0.844-0.435-1.288c-0.133-2.259,0.9-4.742-1.26-6.622
				c-0.215-0.371-0.353-0.771-0.43-1.191c0.238-1.792-0.23-3.214-2.069-3.922c-0.549-0.389-0.972-0.884-1.295-1.471
				c-0.714-3.043-3.429-5.077-4.108-8.137c7.143,1.213,8.576,7.642,10.774,12.753c3.306,7.689,3.711,16.074,3.963,24.449
				c0.275,9.134,0.833,18.21,0.748,27.392c-0.092,10.056-3.624,19.986-0.989,30.259c0.819,3.194-1.487,7.251-2.553,10.856
				c-2.118,7.157,1.092,14.768-1.961,21.829C437.075,216.895,437.181,223.04,434.405,228.326z"/>
			<path class="st188" d="M429.435,83.943c2.705,2,4.357,4.659,4.981,7.961c-1.696,1.165-3.081,0.16-3.734-1.105
				c-3.662-7.098-10.055-5.649-16.057-5.249c-1.953,0.13-3.869,0.981-5.736-0.272c-0.571-3.768,2.416-4.036,4.806-4.744
				c1.539-0.456,3.291,0.438,4.802-0.572C422.862,79.315,425.619,83.083,429.435,83.943z"/>
			<path class="st182" d="M418.497,79.963c-3.5,1.303-7.534,1.536-9.968,4.974c-0.15,0.186-0.3,0.371-0.447,0.561
				c-4.369,1.412-7.301,4.796-10.609,7.681c-1.415,1.234-2.713,3.075-5.069,1.834c-1.034-2.09,0.333-3.366,1.706-4.445
				c1.302-1.023,2.15-2.313,2.958-3.683c2.912-2.366,5.476-5.291,9.47-5.931c2.59-0.783,5.22-1.252,7.94-1.007
				C415.818,79.952,417.157,79.958,418.497,79.963z"/>
			<path class="st189" d="M361.735,138.7c-0.416-3.817,0.348-6.992,4.065-9.081c2.549-1.433,2.599-4.275,2.92-6.842
				c1.442-1.036,0.857-2.581,0.993-3.946c3.109-1.835,4.044-5.289,5.964-8.01c-0.153-1.539,1.39-1.937,1.994-2.966
				c0.932-0.989,1.28-3.128,3.424-1.743c0.718,1.161,0.741,2.426,0.571,3.722c-0.832,4.129-2.145,8.004-5.541,10.844
				c-1.046,0.875-1.618,2.176-1.909,3.443c-1.021,4.455-3.797,7.593-7.285,10.256C364.929,135.489,364.683,138.727,361.735,138.7z"
				/>
			<path class="st190" d="M406.538,80.954c-2.987,1.996-5.974,3.991-8.96,5.987c-1.536,3.071-4.765,4.688-6.518,7.634
				c-0.615,1.034-2.182,1.336-3.44,0.318C392.748,88.648,397.787,82.282,406.538,80.954z"/>
			<path class="st189" d="M387.619,94.892c4.911-0.657,5.92-6.202,9.958-7.952c0.088,1.691-0.268,3.106-1.967,3.974
				c-1.596,0.816-2.931,1.939-3.015,3.957c-0.115,0.723-0.525,1.243-1.118,1.638c-2.517,0.887-3.64,3.126-4.976,5.163
				c-0.275,0.395-0.601,0.735-0.965,1.048c-1.101,0.709-2.199,1.141-3.273-0.041c-0.228-0.984-0.261-1.942,0.385-2.807l-0.002,0.005
				c1.335-1.32,2.665-2.646,3.978-3.989C386.955,95.556,387.287,95.224,387.619,94.892z"/>
			<path class="st190" d="M375.677,110.821c-0.293,3.932-1.95,6.848-5.964,8.009C371.73,116.183,372.178,112.366,375.677,110.821z"
				/>
			<path class="st190" d="M382.647,99.872c-0.01,0.992-0.021,1.984-0.031,2.976c-0.17,1.316-0.825,2.311-1.975,2.977
				c-0.99,0.676-1.98,1.352-2.97,2.029C377.387,103.983,381.063,102.579,382.647,99.872z"/>
			<path class="st190" d="M386.622,95.888c-0.282,2.371-1.621,3.687-3.978,3.989C382.923,97.503,384.255,96.179,386.622,95.888z"/>
			<path class="st191" d="M200.739,173.899c-6.652,10.789-11.688,21.567-14.158,33.297c-8.472,40.227,2.966,74.245,33.641,101.184
				c58.006,50.941,155.09,30.717,187.851-38.744c2.107-4.468,3.779-9.141,5.816-14.116c18.565,19.742,28.613,42.537,27.964,69.644
				c-0.199,8.309-1.444,16.478-3.298,24.588c-0.644,2.816-1.911,3.748-4.662,3.923c-36.452,2.308-72.889,2.714-109.378,0.445
				c-32.951-2.049-65.679-5.613-98.022-12.289c-40.614-8.384-80.178-19.838-115.906-41.733
				c-21.692-13.293-40.053-29.95-51.211-53.419c-5.618-11.816-8.113-24.213-5.803-37.183c3.013-16.914,13.973-28.016,27.809-36.963
				c6.442-4.166,13.095-6.183,20.945-6.079C135.043,166.889,167.555,169.622,200.739,173.899z"/>
			<path class="st161" d="M424.457,218.353c-19.286-16.917-41.032-29.845-64.589-39.842c-0.433-0.184-0.773-0.584-1.157-0.883
				c-1.058-4.171,1.397-7.508,3.239-10.604c5.114-8.592,7.497-18.355,12.395-27.049c6.157-10.928,12.454-21.759,18.919-32.506
				c3.651-6.069,8.189-11.16,13.737-15.478c8.87-6.904,20.325-2.895,22.414,8.226c2.376,12.649,3.63,25.406,3.545,38.355
				c-0.081,12.408,0.677,24.894-1.358,37.133c-1.956,11.766-2.703,23.628-4.322,35.403
				C426.931,213.651,426.653,216.434,424.457,218.353z"/>
			<path class="st192" d="M268.799,245.263c0.832-16.577,7.226-34.206,21.068-48.872c2.56-2.712,4.977-3.587,8.729-2.237
				c9.326,3.354,18.798,6.308,28.263,9.259c2.4,0.749,3.563,2.126,3.835,4.484c2.99,25.878-4.498,48.059-23.515,66.072
				c-2.008,1.902-4.524,3.382-7.014,4.644c-11.31,5.733-21.782,2.138-27.39-9.262C269.549,262.792,268.709,255.768,268.799,245.263z
				"/>
			<path class="st161" d="M296.082,157.413c-17.935-4.018-35.938-7.672-54.123-10.413c-2.546-0.384-5.334,0.47-7.659-1.258
				c0.148-0.184,0.297-0.368,0.442-0.555c2.695-1.083,4.776-2.855,6.381-5.304c8.287-12.646,18.642-23.641,28.475-35.023
				c3.5-4.052,7.605-7.843,12.395-10.631c0.487-0.243,0.989-0.412,1.516-0.536c2.151-0.174,4.178-0.973,6.333-1.126
				c7.831-0.558,12.974,3.334,13.38,11.204c0.878,17.02-0.627,33.869-5.008,50.401C297.859,155.505,297.15,156.567,296.082,157.413z
				"/>
			<path class="st193" d="M424.457,218.353c2.266-9.897,1.625-20.267,3.63-29.986c2.459-11.924,3.577-23.832,3.576-35.77
				c-0.001-8.876,0.689-17.801-0.422-26.77c-0.639-5.164-0.676-10.692-1.376-15.806c-0.92-6.729-0.625-14.659-8.45-18.919
				c-4.648-2.53-8.553-1.896-12.359,0.879c-8.825,6.435-14.811,15.099-19.69,24.804c-3.647,7.254-8.708,13.802-12.296,21.08
				c-6.453,13.09-12.273,26.492-18.358,39.764c-2.509-0.663-4.991-1.395-7.17-2.879c4.188-5.263,5.291-12.003,8.319-17.713
				c6.289-11.86,10.708-24.701,19.157-35.499c3.469-4.433,5.261-10.202,8.336-15.121c4.555-7.286,10.477-13.098,17.491-17.925
				c5.215-3.921,11.362-4.786,17.391-3.839c6.417,1.008,9.846,6.31,12.305,11.851c2.308,5.2,2.647,10.953,3.036,16.516
				c0.782,11.18,1.476,22.36,1.5,33.609c0.021,9.927-2.375,19.719-1.131,29.653c0.146,1.167-0.243,2.294-0.502,3.423
				c-1.552,6.778-2.697,13.499-2.347,20.605c0.394,8.002-3.155,15.405-5.622,22.909
				C427.431,221.978,425.881,220.231,424.457,218.353z"/>
			<path class="st194" d="M228.287,145.517c0.072-0.656-0.103-1.665,0.254-1.915c4.886-3.424,6.763-9.028,9.958-13.654
				c4.308-6.237,9.285-12.194,14.481-17.357c5.376-5.341,9.474-12.241,16.864-15.867c4.226-2.073,7.658-5.937,12.237-7.801
				c4.156-1.483,8.181-3.331,12.758-3.371c10.586-0.093,18.525,6.76,19.106,17.299c0.578,10.467,0.453,20.867-0.75,31.419
				c-0.93,8.157-5.827,15.551-4.15,24.052c0.152,0.771-0.501,1.543-1.062,2.172c-1.335-0.35-2.671-0.7-4.006-1.05
				c-3.336-2.08-2.398-5.211-1.685-8.013c3.931-15.454,5.664-31.151,4.645-47.038c-0.736-11.48-10.299-18.342-23.28-11.507
				c-1.316,0.693-2.485,1.643-3.707,2.49c-9.539,3.902-15.47,11.958-22.08,19.226c-6.092,6.698-10.889,14.462-17.299,20.913
				c-2.803,2.822-3.361,7.179-6.343,9.951c0,0,0.071,0.277,0.071,0.277C232.296,145.667,230.291,145.592,228.287,145.517z"/>
			<path class="st173" d="M429.474,223.217c-0.352-3.717,0.593-7.206,1.862-10.641c1.838-4.977,2.976-10.029,2.13-15.407
				c-0.602-3.825,0.233-7.622,1.1-11.294c2.849-12.071,1.964-24.399,2.842-36.602c0.829-11.531-0.22-23.01-1.071-34.48
				c-0.388-5.234-0.935-10.49-2.289-15.62c-2.68-10.16-10.832-16.889-22.876-13.279c-2.685,0.805-3.621,4.04-6.627,4.014
				c-0.823-3.381,1.882-3.934,3.983-4.971c0,0,0.001,0,0.001,0c4.256,0.135,8.36-1.151,12.658-1.131
				c4.398,0.02,7.631,1.19,9.689,5.154c0.756,1.456,1.509,2.987,3.539,2.944c0.331,0.332,0.663,0.665,0.994,0.997
				c1.619,1.276,1.42,3.282,1.995,4.976l-0.001-0.001c1.74,2.017,0.98,4.746,1.985,6.972c0.003,0.331,0.005,0.662,0.006,0.993
				c1.047,3.248,0.804,6.626,0.995,9.96c0,0.662,0,1.325,0.001,1.987c2.218,10.718,1.328,21.494,0.895,32.303
				c-0.367,9.14-2.042,18.25-0.901,27.439c-2.927,7.428-3.169,15.018-2.34,22.93c0.521,4.967-2.168,9.729-3.435,14.574
				c-0.897,3.428-0.587,7.248-3.116,10.179C430.82,224.548,430.147,223.883,429.474,223.217z"/>
			<path class="st188" d="M408.528,84.937c-1.673,1.38-3.302,2.797-3.983,4.971c-10.629,8.21-18.125,18.551-23.492,30.979
				c-1.927,4.462-5.347,8.833-8.296,13.097c-2.373,3.432-4.469,6.788-5.195,11.041c-0.676,3.957-4.179,6.594-5.752,10.145
				c-1.848,4.174-3.306,8.537-4.676,12.899c-0.968,3.083-3.13,4.957-5.593,6.68c-1.007-0.181-2.092-0.173-2.763-1.156
				c-1.895-2.861-0.072-5.218,1.455-7.176c3.132-4.018,5.153-8.452,6.048-13.382c0.979-5.394,5.23-9.02,7.204-13.884
				c0.731-1.802,1.389-3.664,2.269-5.416c3.045-2.572,5.894-5.042,7.001-9.34c1.388-5.393,7.335-8.544,7.905-14.549
				c1.374-2.838,3.226-5.377,4.975-7.98l-0.002,0.003c1.966-2.01,3.652-4.299,5.947-5.981c0.339-0.338,0.678-0.676,1.016-1.014
				c3.568-0.526,5.424-3.621,7.536-5.82C402.615,86.466,405.183,85.203,408.528,84.937z"/>
			<path class="st195" d="M307.984,160.493c-0.388-6.397-0.126-12.368,2.846-18.605c1.788-3.752,1.226-9.141,1.889-13.804
				c1.249-8.781,0.639-17.753-0.189-26.516c-1.085-11.494-12.37-16.983-22.701-14.018c-2.547,0.731-5.025,1.696-7.747,1.371
				c-0.002-0.336-0.004-0.673-0.005-1.01c3.916-1.101,6.767-4.488,11.016-4.956c10.154-1.119,19.825,5.476,23.289,15.399
				c1.517,4.344,2.339,8.254,0.831,12.842c-0.85,2.587-0.274,6.132,0.253,8.538c1.294,5.918-2.333,11.253-0.806,16.935
				c0.224,0.834-0.118,2.037-0.606,2.812c-4.23,6.717-2.508,14.783-5.046,21.868C310,161.064,308.992,160.779,307.984,160.493z"/>
			<path class="st167" d="M296.082,157.413c1.956-9.836,4.971-19.612,5.536-29.528c0.462-8.118,1.115-16.409,0.333-24.606
				c-0.697-7.313-6.062-10.824-14-9.117c-1.967,0.423-3.877,0.762-5.869,0.736c2.153-5.188,12.713-6.723,17.868-3.16
				c4.131,2.855,6.254,6.386,6.674,11.438c1.487,17.883-1.766,35.251-5.25,52.614c-0.201,1-0.619,1.884-1.37,2.593
				C298.696,158.059,297.389,157.736,296.082,157.413z"/>
			<path class="st196" d="M300.003,158.382c0.039-8.973,3.256-17.409,4.452-26.207c1.128-8.3,0.919-16.547,0.816-24.835
				c-0.014-1.147-0.299-2.318-0.146-3.435c0.593-4.312-0.518-8.244-4.275-10.303c-4.494-2.462-9.38-5.193-14.669-1.395
				c-1.326,0.953-2.731,1.796-4.1,2.69c0,0,0.004-0.002,0.004-0.002c-1.005,0.688-2.008,0.882-3.007-0.009
				c2.717-2.787,6.052-4.383,9.783-5.404c8.64-2.365,15.314,1.637,18.352,10.156c2.564,7.19,1.064,14.352,0.899,21.476
				c-0.142,6.116-1.461,12.356-2.158,18.334c-0.759,6.511-5.498,13.05-1.976,19.994
				C302.653,159.089,301.328,158.736,300.003,158.382z"/>
			<path class="st182" d="M365.753,133.734c-0.048,4.572-1.653,8.408-4.669,11.942c-1.834,2.148-2.752,5.041-3.518,7.894
				c-1.274,4.74-2.453,9.484-6.181,13.232c-1.642,1.651-2.787,4.125-2.606,6.792c-1.852-0.274-3.602-0.821-5.153-1.907
				c7.632-10.12,10.676-22.758,18.109-32.986C363.074,137.045,364.413,135.389,365.753,133.734z"/>
			<path class="st172" d="M280.091,416.486c2.276,5.06-1.147,9.361-1.939,14c-0.618,3.62-2.745,7.051-1.053,10.888
				c-2.25,2.639,0.136,6.311-1.998,8.976c-2.557-5.189-1.519-10.339,0.037-15.542c0.837-2.8,1.357-5.695,2.003-8.551
				C277.892,422.93,278.529,419.569,280.091,416.486z"/>
			<path class="st176" d="M274.115,422.455c-1.173-7.792-0.744-15.444,2.006-22.893
				C275.915,407.233,277.609,415.071,274.115,422.455z"/>
			<path class="st188" d="M440.385,177.532c-1.095-3.526-1.786-6.922-1.336-10.825c1.127-9.767,1.931-19.607,1.341-29.474
				c-0.243-4.062,2.108-8.344,0.361-11.994c-1.34-2.8-1.004-4.935-0.361-7.449c1.106,0.549,2.073,1.414,1.902,2.648
				c-0.927,6.691,0.93,13.255,0.602,20.049c-0.375,7.776-1.679,15.532-1.463,23.329
				C441.559,168.446,440.972,172.978,440.385,177.532z"/>
			<path class="st188" d="M440.391,115.802c-1.768-3.176-1.983-6.508-0.995-9.96C442.638,108.871,441.767,112.311,440.391,115.802z"
				/>
			<path class="st188" d="M439.389,104.85c-2.286-1.862-1.996-4.457-1.985-6.972C440.851,99.408,440.395,102.051,439.389,104.85z"/>
			<path class="st188" d="M437.405,97.878c-1.59-1.288-2.053-3.028-1.995-4.976C438.955,93.406,438.691,95.437,437.405,97.878z"/>
			<path class="st182" d="M385.634,101.864c-0.267,3.528-2.189,6.024-4.975,7.98c-0.006-1.339-0.011-2.679-0.017-4.018
				c0-1.43,0.675-2.411,1.975-2.978C383.622,102.52,384.628,102.192,385.634,101.864z"/>
			<path class="st182" d="M391.579,95.885c-1.03,2.941-3.043,4.904-5.947,5.981C386.758,99.022,387.515,95.81,391.579,95.885z"/>
			<path class="st167" d="M279.078,94.886c1.002,0.003,2.005,0.006,3.007,0.009c-15.877,13.942-29.06,30.224-41.189,47.422
				c-1.626,2.306-3.567,3.959-6.668,3.149c1.475-4.888,3.897-9.069,7.46-12.904c5.221-5.619,9.515-12.09,14.622-17.826
				C263.038,107.18,268.577,98.15,279.078,94.886z"/>
		</g>
	</g>
</g>
</svg>
