<?xml version="1.0" encoding="utf-8"?>
<!-- Generator: Adobe Illustrator 26.0.3, SVG Export Plug-In . SVG Version: 6.00 Build 0)  -->
<svg version="1.1" xmlns="http://www.w3.org/2000/svg" xmlns:xlink="http://www.w3.org/1999/xlink" x="0px" y="0px"
	 viewBox="0 0 512 512" style="enable-background:new 0 0 512 512;" xml:space="preserve">
<style type="text/css">
	.st0{fill:url(#bg_00000123421332473811068470000008857085576152735122_);}
	.st1{fill:#FFFFFF;}
	.st2{fill-rule:evenodd;clip-rule:evenodd;fill:#FFFFFF;}
	.st3{opacity:0.1;}
	.st4{fill:url(#bg_00000064328885738661265070000016480501482579044031_);}
	.st5{fill:url(#bg_00000000921077304588323850000010415450744185792146_);}
	.st6{fill:#FCFCFC;}
	.st7{fill:url(#bg_00000171694236551020568930000008590785997635878791_);}
	.st8{fill:url(#bg_00000179639536668613785500000010444745871694579883_);}
	.st9{fill-rule:evenodd;clip-rule:evenodd;fill:#FCCDD3;}
	.st10{filter:url(#Adobe_OpacityMaskFilter);}
	.st11{mask:url(#mask-2_00000079477019141398897970000007225647416667991979_);fill-rule:evenodd;clip-rule:evenodd;fill:#6534FF;}
	.st12{fill-rule:evenodd;clip-rule:evenodd;fill:#FEFEFE;}
	.st13{fill-rule:evenodd;clip-rule:evenodd;fill:#6534FF;}
	.st14{fill:#8526D1;}
	.st15{fill:#D89738;}
	.st16{fill:#5D1B8F;}
	.st17{fill:#F2A738;}
	.st18{fill-rule:evenodd;clip-rule:evenodd;fill:#F9F9F9;}
	.st19{fill-rule:evenodd;clip-rule:evenodd;fill:#040404;}
	.st20{fill:#FEFEFE;}
	.st21{fill:#F0E20A;}
	.st22{fill:#EFE20A;}
	.st23{fill:#A1DE44;}
	.st24{fill:#FCA433;}
	.st25{fill:#FCAC68;}
	.st26{fill:#F74D7B;}
	.st27{fill:#9FDD46;}
	.st28{fill:#67D1BB;}
	.st29{fill:#FAAC8C;}
	.st30{fill:#FDE723;}
	.st31{fill:#FBAB4C;}
	.st32{fill:#FEF532;}
	.st33{fill:#EDE622;}
	.st34{fill:#5BD0DD;}
	.st35{fill:#B96CAE;}
	.st36{fill:#FBB32B;}
	.st37{fill:#FA9262;}
	.st38{fill:#D5709D;}
	.st39{fill:#9763B8;}
	.st40{fill:#FBDD0F;}
	.st41{fill:#D0EC26;}
	.st42{fill:#FCA036;}
	.st43{fill:#FACF2B;}
	.st44{fill:#D4E52B;}
	.st45{fill:#FCD713;}
	.st46{fill:#FDB83D;}
	.st47{fill:#E9E227;}
	.st48{fill:#CB7896;}
	.st49{fill:#FCD415;}
	.st50{fill:#C1E72E;}
	.st51{fill:#B6DF3A;}
	.st52{fill:#C8DE37;}
	.st53{fill:#C277B4;}
	.st54{fill:#ACE339;}
	.st55{fill:#E79762;}
	.st56{fill:#E77982;}
	.st57{fill:#FCFA68;}
	.st58{fill:#F6C82A;}
	.st59{fill:#B46CB1;}
	.st60{fill:#E1CE32;}
	.st61{fill:#F2C02E;}
	.st62{fill:#F8DB26;}
	.st63{fill:#C97B9F;}
	.st64{fill:#E6F40D;}
	.st65{fill:#D8DC35;}
	.st66{fill:#FDB73F;}
	.st67{fill:#FB7759;}
	.st68{fill:#EDDA2D;}
	.st69{fill:#DA8878;}
	.st70{fill:#EABC6F;}
	.st71{fill:#FDFDC8;}
	.st72{fill:#E8B380;}
	.st73{fill:#D8DB09;}
	.st74{fill:#E4D52E;}
	.st75{fill:#FCC91B;}
	.st76{fill:#FEFB8B;}
	.st77{fill:#F9D515;}
	.st78{fill:#DEE528;}
	.st79{fill:#FBC82E;}
	.st80{fill:#C25CA6;}
	.st81{fill:#FBC331;}
	.st82{fill:#FBB53E;}
	.st83{fill:#FC8E47;}
	.st84{fill:#9D63B7;}
	.st85{fill:#86C591;}
	.st86{fill:#78DEA5;}
	.st87{fill:#FBFCA1;}
	.st88{fill:#D87F7F;}
	.st89{fill:#FDF747;}
	.st90{fill:#E2CD31;}
	.st91{fill:#91E38C;}
	.st92{fill:#C5DD36;}
	.st93{fill:#FBB342;}
	.st94{fill:#D2BC7F;}
	.st95{fill:#65D6CC;}
	.st96{fill:#D5D809;}
	.st97{fill:#AEC383;}
	.st98{fill:#FBBB23;}
	.st99{fill:#F9DA24;}
	.st100{fill:#F9AC4C;}
	.st101{fill:#FBBF59;}
	.st102{fill:#E68B69;}
	.st103{fill:#F3A451;}
	.st104{fill:#FBF00E;}
	.st105{fill:#C9F5A2;}
	.st106{fill:#F9B229;}
	.st107{fill:#E9C745;}
	.st108{fill:#A2A2A2;}
	.st109{fill:#FDF10E;}
	.st110{fill:#F0FC0D;}
	.st111{fill:#010100;}
	.st112{fill:#FC8355;}
	.st113{fill:#FC8D48;}
	.st114{fill:#FCBB23;}
	.st115{fill:#FB9854;}
	.st116{fill:#FA6886;}
	.st117{fill:#FB6D6E;}
	.st118{fill:#E95790;}
	.st119{fill:#FB5D67;}
	.st120{fill:#6FCDA1;}
	.st121{fill:#79D278;}
	.st122{fill:#020101;}
	.st123{fill:#FAFD23;}
	.st124{fill:#E2FE38;}
	.st125{fill:#141304;}
	.st126{fill:#CB5DA2;}
	.st127{fill:#B063B1;}
	.st128{fill:#FC8D76;}
	.st129{fill:#E96F92;}
	.st130{fill:#FC8353;}
	.st131{fill:#FC8B4B;}
	.st132{fill:#FB7A86;}
	.st133{fill:#E3FD7C;}
	.st134{fill:#D8BF73;}
	.st135{fill:#DECA58;}
	.st136{fill:#B6EB2D;}
	.st137{fill:#C0D847;}
	.st138{fill:#A2E749;}
	.st139{fill:#BAF35A;}
	.st140{fill:#B6F180;}
	.st141{fill:#D8FB1A;}
	.st142{fill:#D6FA18;}
	.st143{fill:#FB736E;}
	.st144{fill:#96DE4B;}
	.st145{fill:#75CF83;}
	.st146{fill:#A2C87B;}
	.st147{fill:#8EDD54;}
	.st148{fill:#BDEF28;}
	.st149{fill:#B8EE29;}
	.st150{fill:#0097A7;}
	.st151{fill:#FEB800;}
	.st152{fill:#FBE000;}
	.st153{fill:#EF3A17;}
	.st154{fill:#0146FD;}
	.st155{fill:#17C50C;}
	.st156{fill:#FEFDFC;}
	.st157{fill:#2081E2;}
	.st158{fill-rule:evenodd;clip-rule:evenodd;fill:#E2E2E2;}
	.st159{fill:#B3788F;}
	.st160{fill:#ECBB2B;}
	.st161{fill:#5B4E29;}
	.st162{fill:#766329;}
	.st163{fill:#C8A02A;}
	.st164{fill:#786429;}
	.st165{fill:#7B6629;}
	.st166{fill:#CCA32A;}
	.st167{fill:#796529;}
	.st168{fill:#AD8C29;}
	.st169{fill:#8D7429;}
	.st170{fill:#B18E2A;}
	.st171{fill:#A08229;}
	.st172{fill:#A48529;}
	.st173{fill:#8E7429;}
	.st174{fill:#8C7329;}
	.st175{fill:#BA962A;}
	.st176{fill:#D0A62B;}
	.st177{fill:#CBA22A;}
	.st178{fill:#CEA42A;}
	.st179{fill:#967A29;}
	.st180{fill:#CDA42A;}
	.st181{fill:#D3A82B;}
	.st182{fill:#B08E29;}
	.st183{fill:#C79F2A;}
	.st184{fill:#B9942A;}
	.st185{fill:#D2A72B;}
	.st186{fill:#907629;}
	.st187{fill:#A28329;}
	.st188{fill:#957A29;}
	.st189{fill:#B29029;}
	.st190{fill:#CAA22A;}
	.st191{fill:#F1EDBA;}
	.st192{fill:#FDFDFD;}
	.st193{fill:#776329;}
	.st194{fill:#947929;}
	.st195{fill:#AA8A29;}
	.st196{fill:#7A6529;}
</style>
<g id="MIVA:SYMM">
</g>
<g id="MIVA-FRACTION">
</g>
<g id="FRACTION-MIVA">
</g>
<g id="MIVA-HNY">
</g>
<g id="MIVA-WXDAI">
</g>
<g id="zeroalpha">
</g>
<g id="POAP">
</g>
<g id="pixeth">
</g>
<g id="xDaiTigers">
</g>
<g id="Fraction_Early">
</g>
<g id="CryptoStamp">
</g>
<g id="Epor.io">
</g>
<g id="nifty-ink">
	<rect x="0" y="0" class="st1" width="512.001" height="512.001"/>
	<g>
		<path d="M199.369,346.912c-29.658,0-56.225,0.208-82.788-0.044c-51.437-0.49-88.212-38.678-86.668-89.699
			c3.305-109.214,82.829-200.177,190.51-217.914c136.355-22.46,263.092,87.352,260.635,225.827
			c-2.012,113.371-85.915,208.144-197.414,221.489c-20.675,2.475-41.817,3.219-62.418-5.576
			c-44.388-18.95-71.886-86.057-28.142-125.668C194.689,353.875,195.745,351.818,199.369,346.912z"/>
		<path class="st151" d="M156.689,319.875c-12.817-0.008-25.637,0.162-38.451-0.04c-35.671-0.563-59.378-24.619-59.46-60.147
			C58.535,153.427,147.589,65.563,255.544,65.552c100.09-0.011,181.865,70.422,196.752,169.462
			c14.328,95.324-44.951,187.9-139.107,216.83c-19.203,5.9-38.941,9.399-59.152,8.528c-27.105-1.167-49.978-21.695-54.293-48.168
			c-2.357-14.463,2.585-26.193,12.906-36.104c6.466-6.209,12.311-12.731,14.067-22.105c3.495-18.652-7.694-33.481-26.565-34.029
			C185.676,319.546,171.178,319.883,156.689,319.875z"/>
		<path class="st152" d="M396.554,214.223c-0.388,18.902-16.485,35.186-34.929,35.336c-19.663,0.16-35.818-17.321-35.349-38.253
			c0.41-18.276,16.519-34.478,34.055-34.25C381.586,177.332,396.987,193.135,396.554,214.223z"/>
		<path class="st153" d="M298.788,143.352c-0.489,17.348-18.992,35.467-36.219,35.468c-17.879,0.002-37.174-19.683-35.907-37.31
			c1.05-14.593,13.937-35.435,38.631-33.075C283.2,110.146,299.283,125.797,298.788,143.352z"/>
		<path class="st154" d="M312.169,326.013c0.037-20.124,16.24-36.162,35.955-35.59c18.902,0.549,34.667,16.619,34.831,35.506
			c0.169,19.423-16.522,35.61-36.39,35.29C327.055,360.905,312.133,345.632,312.169,326.013z"/>
		<path class="st155" d="M150.9,233.748c-20.161,0.01-35.169-14.584-35.279-34.308c-0.106-19.035,15.658-35.499,34.5-36.029
			c19.557-0.551,35.942,15.958,35.824,36.094C185.827,219.393,171.147,233.737,150.9,233.748z"/>
		<path class="st156" d="M287.077,417.637c-15.26,0.216-32.941-16.711-33.399-35.691c-0.285-11.821,8.883-21.243,20.842-21.419
			c18.174-0.268,36.765,17.532,36.925,36.329C311.557,410.004,304.75,417.611,287.077,417.637z"/>
	</g>
</g>
<g id="Opensea">
</g>
<g id="Placeholder">
</g>
<g id="Foundation">
</g>
<g id="cryptoWine">
</g>
<g id="NFTBeez_00000167391764337955545130000012586990163054116534_">
</g>
</svg>
