<?xml version="1.0" encoding="utf-8"?>
<!-- Generator: Adobe Illustrator 26.0.1, SVG Export Plug-In . SVG Version: 6.00 Build 0)  -->
<svg version="1.1" xmlns="http://www.w3.org/2000/svg" xmlns:xlink="http://www.w3.org/1999/xlink" x="0px" y="0px"
	 viewBox="0 0 512 512" style="enable-background:new 0 0 512 512;" xml:space="preserve">
<style type="text/css">
	.st0{fill:url(#bg_00000070116703915522158450000005496006678886955951_);}
	.st1{fill:#FFFFFF;}
	.st2{fill-rule:evenodd;clip-rule:evenodd;fill:#FFFFFF;}
	.st3{opacity:0.1;}
	.st4{fill:url(#bg_00000152950263422433404490000009077901608553280920_);}
	.st5{fill:url(#bg_00000146488151554503888960000004382783544458508205_);}
	.st6{fill:#FCFCFC;}
	.st7{fill:url(#bg_00000023281045412161003170000011756203837511330975_);}
	.st8{fill:url(#bg_00000016051953744461336640000003105204124074609026_);}
	.st9{fill-rule:evenodd;clip-rule:evenodd;fill:#FCCDD3;}
	.st10{filter:url(#Adobe_OpacityMaskFilter);}
	.st11{mask:url(#mask-2_00000079477019141398897970000007225647416667991979_);fill-rule:evenodd;clip-rule:evenodd;fill:#6534FF;}
	.st12{fill-rule:evenodd;clip-rule:evenodd;fill:#FEFEFE;}
	.st13{fill-rule:evenodd;clip-rule:evenodd;fill:#6534FF;}
	.st14{fill:#8526D1;}
	.st15{fill:#D89738;}
	.st16{fill:#5D1B8F;}
	.st17{fill:#F2A738;}
	.st18{fill-rule:evenodd;clip-rule:evenodd;fill:#F9F9F9;}
	.st19{fill-rule:evenodd;clip-rule:evenodd;fill:#040404;}
	.st20{fill:#FEFEFE;}
	.st21{fill:#F0E20A;}
	.st22{fill:#EFE20A;}
	.st23{fill:#A1DE44;}
	.st24{fill:#FCA433;}
	.st25{fill:#FCAC68;}
	.st26{fill:#F74D7B;}
	.st27{fill:#9FDD46;}
	.st28{fill:#67D1BB;}
	.st29{fill:#FAAC8C;}
	.st30{fill:#FDE723;}
	.st31{fill:#FBAB4C;}
	.st32{fill:#FEF532;}
	.st33{fill:#EDE622;}
	.st34{fill:#5BD0DD;}
	.st35{fill:#B96CAE;}
	.st36{fill:#FBB32B;}
	.st37{fill:#FA9262;}
	.st38{fill:#D5709D;}
	.st39{fill:#9763B8;}
	.st40{fill:#FBDD0F;}
	.st41{fill:#D0EC26;}
	.st42{fill:#FCA036;}
	.st43{fill:#FACF2B;}
	.st44{fill:#D4E52B;}
	.st45{fill:#FCD713;}
	.st46{fill:#FDB83D;}
	.st47{fill:#E9E227;}
	.st48{fill:#CB7896;}
	.st49{fill:#FCD415;}
	.st50{fill:#C1E72E;}
	.st51{fill:#B6DF3A;}
	.st52{fill:#C8DE37;}
	.st53{fill:#C277B4;}
	.st54{fill:#ACE339;}
	.st55{fill:#E79762;}
	.st56{fill:#E77982;}
	.st57{fill:#FCFA68;}
	.st58{fill:#F6C82A;}
	.st59{fill:#B46CB1;}
	.st60{fill:#E1CE32;}
	.st61{fill:#F2C02E;}
	.st62{fill:#F8DB26;}
	.st63{fill:#C97B9F;}
	.st64{fill:#E6F40D;}
	.st65{fill:#D8DC35;}
	.st66{fill:#FDB73F;}
	.st67{fill:#FB7759;}
	.st68{fill:#EDDA2D;}
	.st69{fill:#DA8878;}
	.st70{fill:#EABC6F;}
	.st71{fill:#FDFDC8;}
	.st72{fill:#E8B380;}
	.st73{fill:#D8DB09;}
	.st74{fill:#E4D52E;}
	.st75{fill:#FCC91B;}
	.st76{fill:#FEFB8B;}
	.st77{fill:#F9D515;}
	.st78{fill:#DEE528;}
	.st79{fill:#FBC82E;}
	.st80{fill:#C25CA6;}
	.st81{fill:#FBC331;}
	.st82{fill:#FBB53E;}
	.st83{fill:#FC8E47;}
	.st84{fill:#9D63B7;}
	.st85{fill:#86C591;}
	.st86{fill:#78DEA5;}
	.st87{fill:#FBFCA1;}
	.st88{fill:#D87F7F;}
	.st89{fill:#FDF747;}
	.st90{fill:#E2CD31;}
	.st91{fill:#91E38C;}
	.st92{fill:#C5DD36;}
	.st93{fill:#FBB342;}
	.st94{fill:#D2BC7F;}
	.st95{fill:#65D6CC;}
	.st96{fill:#D5D809;}
	.st97{fill:#AEC383;}
	.st98{fill:#FBBB23;}
	.st99{fill:#F9DA24;}
	.st100{fill:#F9AC4C;}
	.st101{fill:#FBBF59;}
	.st102{fill:#E68B69;}
	.st103{fill:#F3A451;}
	.st104{fill:#FBF00E;}
	.st105{fill:#C9F5A2;}
	.st106{fill:#F9B229;}
	.st107{fill:#E9C745;}
	.st108{fill:#A2A2A2;}
	.st109{fill:#FDF10E;}
	.st110{fill:#F0FC0D;}
	.st111{fill:#010100;}
	.st112{fill:#FC8355;}
	.st113{fill:#FC8D48;}
	.st114{fill:#FCBB23;}
	.st115{fill:#FB9854;}
	.st116{fill:#FA6886;}
	.st117{fill:#FB6D6E;}
	.st118{fill:#E95790;}
	.st119{fill:#FB5D67;}
	.st120{fill:#6FCDA1;}
	.st121{fill:#79D278;}
	.st122{fill:#020101;}
	.st123{fill:#FAFD23;}
	.st124{fill:#E2FE38;}
	.st125{fill:#141304;}
	.st126{fill:#CB5DA2;}
	.st127{fill:#B063B1;}
	.st128{fill:#FC8D76;}
	.st129{fill:#E96F92;}
	.st130{fill:#FC8353;}
	.st131{fill:#FC8B4B;}
	.st132{fill:#FB7A86;}
	.st133{fill:#E3FD7C;}
	.st134{fill:#D8BF73;}
	.st135{fill:#DECA58;}
	.st136{fill:#B6EB2D;}
	.st137{fill:#C0D847;}
	.st138{fill:#A2E749;}
	.st139{fill:#BAF35A;}
	.st140{fill:#B6F180;}
	.st141{fill:#D8FB1A;}
	.st142{fill:#D6FA18;}
	.st143{fill:#FB736E;}
	.st144{fill:#96DE4B;}
	.st145{fill:#75CF83;}
	.st146{fill:#A2C87B;}
	.st147{fill:#8EDD54;}
	.st148{fill:#BDEF28;}
	.st149{fill:#B8EE29;}
	.st150{fill-rule:evenodd;clip-rule:evenodd;fill:#0097A7;}
	.st151{fill:#FEB800;}
	.st152{fill:#FBE000;}
	.st153{fill:#EF3A17;}
	.st154{fill:#0146FD;}
	.st155{fill:#17C50C;}
	.st156{fill:#FEFDFC;}
</style>
<g id="MIVA:SYMM">
</g>
<g id="MIVA-FRACTION">
</g>
<g id="FRACTION-MIVA">
</g>
<g id="MIVA-HNY">
</g>
<g id="MIVA-WXDAI">
</g>
<g id="zeroalpha">
</g>
<g id="POAP">
</g>
<g id="pixeth">
</g>
<g id="xDaiTigers">
</g>
<g id="Fraction_Early">
</g>
<g id="CryptoStamp">
</g>
<g id="Epor.io">
</g>
<g id="nifty-ink">
	<g>
		<path d="M199.36938,346.91229c-29.65822,0-56.22533,0.20831-82.78805-0.04443
			c-51.43736-0.4895-88.21202-38.67798-86.66797-89.6991c3.30508-109.21385,82.82906-200.1769,190.50998-217.9138
			c136.35471-22.45994,263.09225,87.35197,260.63461,225.82716c-2.01208,113.37119-85.91507,208.1438-197.4136,221.48914
			c-20.67532,2.47467-41.81717,3.21933-62.41797-5.57574c-44.38751-18.95038-71.88643-86.05731-28.14183-125.66754
			C194.68884,353.87534,195.74539,351.81775,199.36938,346.91229z"/>
		<path class="st151" d="M156.68852,319.87488c-12.81718-0.00754-25.63707,0.16226-38.45106-0.04004
			c-35.67106-0.56302-59.37847-24.61945-59.45977-60.14664C58.53451,153.42711,147.58876,65.56322,255.54442,65.55155
			c100.08971-0.01081,181.86546,70.42222,196.7524,169.46191c14.32831,95.32356-44.95114,187.90038-139.10675,216.83018
			c-19.2027,5.90015-38.94122,9.39853-59.15231,8.52811c-27.10507-1.16739-49.97789-21.69513-54.29291-48.16769
			c-2.35745-14.46283,2.58533-26.19333,12.9061-36.10364c6.46593-6.20874,12.31117-12.73148,14.06747-22.10519
			c3.49474-18.65192-7.69449-33.48071-26.56532-34.02905C185.6763,319.54559,171.17751,319.88251,156.68852,319.87488z"/>
		<path class="st152" d="M396.55408,214.22342c-0.38803,18.90175-16.48456,35.18608-34.92896,35.33646
			c-19.66327,0.16035-35.81799-17.3214-35.34879-38.25252c0.40973-18.27626,16.51874-34.47769,34.05505-34.25038
			C381.58615,177.33249,396.98706,193.13458,396.55408,214.22342z"/>
		<path class="st153" d="M298.78775,143.35196c-0.48938,17.34763-18.99213,35.46684-36.21915,35.46848
			c-17.87923,0.00169-37.17447-19.68341-35.90654-37.31004c1.04965-14.59275,13.93718-35.43466,38.63075-33.07541
			C283.20026,110.14592,299.28302,125.79723,298.78775,143.35196z"/>
		<path class="st154" d="M312.16904,326.01297c0.03705-20.12421,16.23972-36.16232,35.95502-35.58984
			c18.90182,0.54886,34.66669,16.61908,34.83139,35.50598c0.16934,19.42331-16.52161,35.60992-36.38962,35.2901
			C327.05521,360.90509,312.13293,345.63171,312.16904,326.01297z"/>
		<path class="st155" d="M150.90005,233.74762c-20.1615,0.01027-35.1693-14.58438-35.27917-34.30792
			c-0.10602-19.03528,15.65833-35.49861,34.49971-36.02942c19.55733-0.55098,35.94246,15.95779,35.82385,36.09416
			C185.8273,219.39256,171.14693,233.7373,150.90005,233.74762z"/>
		<path class="st156" d="M287.07739,417.63702c-15.26041,0.21609-32.94136-16.71082-33.39879-35.69083
			c-0.2849-11.82062,8.88301-21.24258,20.84169-21.41907c18.17404-0.26834,36.76456,17.5318,36.9248,36.3287
			C311.55713,410.00449,304.74982,417.6109,287.07739,417.63702z"/>
	</g>
</g>
</svg>
