<?xml version="1.0" encoding="utf-8"?>
<svg version="1.1" id="Ebene_1" xmlns="http://www.w3.org/2000/svg" xmlns:xlink="http://www.w3.org/1999/xlink" x="0px" y="0px"
	 viewBox="0 0 512 512" style="enable-background:new 0 0 512 512;" xml:space="preserve">
<style type="text/css">
	.st0{fill:#FFFFFF;}
	.st1{fill:#FEB800;}
	.st2{fill:#FBE000;}
	.st3{fill:#EF3A17;}
	.st4{fill:#0146FD;}
	.st5{fill:#17C50C;}
	.st6{fill:#FEFDFC;}
</style>
<g id="nifty-ink">
	<rect class="st0" width="512" height="512"/>
	<g>
		<path d="M210.1,330.8c-24,0-45.5,0.2-67,0c-41.6-0.4-71.4-31.3-70.1-72.6c2.7-88.4,67-162,154.2-176.4
			C337.5,63.6,440,152.5,438,264.5c-1.6,91.8-69.5,168.5-159.8,179.3c-16.7,2-33.8,2.6-50.5-4.5c-35.9-15.3-58.2-69.6-22.8-101.7
			C206.3,336.4,207.1,334.7,210.1,330.8z"/>
		<path class="st1" d="M175.5,308.9c-10.4,0-20.7,0.1-31.1,0c-28.9-0.5-48.1-19.9-48.1-48.7c-0.2-86,71.9-157.1,159.3-157.1
			c81,0,147.2,57,159.2,137.2c11.6,77.1-36.4,152.1-112.6,175.5c-15.5,4.8-31.5,7.6-47.9,6.9c-21.9-0.9-40.4-17.6-43.9-39
			c-1.9-11.7,2.1-21.2,10.4-29.2c5.2-5,10-10.3,11.4-17.9c2.8-15.1-6.2-27.1-21.5-27.5C199,308.6,187.2,308.9,175.5,308.9z"/>
		<path class="st2" d="M369.7,223.4c-0.3,15.3-13.3,28.5-28.3,28.6c-15.9,0.1-29-14-28.6-31c0.3-14.8,13.4-27.9,27.6-27.7
			C357.5,193.5,370,206.3,369.7,223.4z"/>
		<path class="st3" d="M290.5,166c-0.4,14-15.4,28.7-29.3,28.7c-14.5,0-30.1-15.9-29.1-30.2c0.9-11.8,11.3-28.7,31.3-26.8
			C277.9,139.1,290.9,151.8,290.5,166z"/>
		<path class="st4" d="M301.4,313.9c0-16.3,13.1-29.3,29.1-28.8c15.3,0.4,28.1,13.5,28.2,28.7c0.1,15.7-13.4,28.8-29.5,28.6
			C313.4,342.1,301.3,329.7,301.4,313.9z"/>
		<path class="st5" d="M170.8,239.2c-16.3,0-28.5-11.8-28.6-27.8c-0.1-15.4,12.7-28.7,27.9-29.2c15.8-0.4,29.1,12.9,29,29.2
			C199.1,227.6,187.2,239.2,170.8,239.2z"/>
		<path class="st6" d="M281.1,388c-12.4,0.2-26.7-13.5-27-28.9c-0.2-9.6,7.2-17.2,16.9-17.3c14.7-0.2,29.8,14.2,29.9,29.4
			C300.9,381.8,295.4,388,281.1,388z"/>
	</g>
</g>
</svg>
