<?xml version="1.0" encoding="utf-8"?>
<!-- Generator: Adobe Illustrator 27.3.1, SVG Export Plug-In . SVG Version: 6.00 Build 0)  -->
<svg version="1.1" id="Ebene_1" xmlns="http://www.w3.org/2000/svg" xmlns:xlink="http://www.w3.org/1999/xlink" x="0px" y="0px"
	 viewBox="0 0 512 512" style="enable-background:new 0 0 512 512;" xml:space="preserve">
<style type="text/css">
	.st0{fill:#FFFFFF;}
</style>
<rect width="512" height="512"/>
<g>
	<path class="st0" d="M282.8,356.7c-4.2,0-6.9,0-8.3,0s-4.2,0-6.9,1.4c-2.8,0-5.5,1.4-8.3,2.8c-2.8,1.4-4.2,2.8-4.2,1.4
		c-1.4-1.4-2.8-1.4-4.2-2.8c-2.8-1.4-5.5-2.8-8.3-4.2c-2.8-1.4-6.9-1.4-9.7-1.4s-5.5,0-8.3,1.4c-2.8,0-5.5,1.4-9.7,2.8
		c-4.2,1.4-8.3,4.2-12.5,6.9c-4.2,2.8-9.7,5.5-13.8,8.3c-4.2,1.4-8.3,4.2-11.1,5.5c-2.8,1.4-5.5,1.4-6.9,1.4c-1.4,0-2.8,0-4.2-1.4
		c-1.4,0-1.4-1.4-2.8-2.8s-1.4-2.8-1.4-5.5s0-4.2,1.4-5.5c1.4-1.4,1.4-2.8,2.8-2.8c1.4-1.4,2.8-1.4,4.2-1.4c1.4,0,2.8,0,2.8,0h1.4
		l0,0l0,0l0,0l0,0h1.4l0,0l0,0l0,0l0,0l0,0l0,0l0,0l0,0l0,0l0,0l0,0h-2.8c-1.4,0-4.2-1.4-5.5-1.4c-2.8,0-4.2,0-5.5,1.4l-2.8,1.4
		h-1.4l0,0l0,0c0,0,0,0-1.4,1.4c-1.4,1.4-1.4,2.8-2.8,4.2c-1.4,1.4-1.4,2.8-1.4,5.5c0,1.4,0,4.2,0,5.5c0,2.8,1.4,4.2,1.4,6.9
		c1.4,2.8,2.8,4.2,4.2,6.9c1.4,1.4,2.8,2.8,5.5,5.5c2.8,1.4,4.2,2.8,6.9,2.8c2.8,1.4,6.9,2.8,11.1,2.8c4.2,1.4,6.9,1.4,8.3,1.4
		c2.8,0,5.5,0,8.3,0c4.2,0,9.7-1.4,15.2-1.4c5.5-1.4,11.1-1.4,16.6-4.2c4.2-1.4,8.3-2.8,13.8-4.2c4.2-1.4,6.9-2.8,9.7-5.5
		c2.8-1.4,4.2-2.8,5.5-4.2c1.4,0,1.4-1.4,1.4,0c1.4,1.4,2.8,1.4,4.2,2.8c2.8,1.4,5.5,4.2,8.3,5.5c4.2,1.4,8.3,4.2,12.5,5.5
		c5.5,1.4,11.1,2.8,16.6,4.2c5.5,1.4,11.1,1.4,16.6,1.4c5.5,0,9.7,0,13.8,0c4.2,0,8.3-1.4,11.1-2.8c2.8,0,6.9-1.4,9.7-2.8
		c2.8-1.4,4.2-2.8,6.9-4.2c1.4-1.4,2.8-2.8,4.2-5.5c1.4-1.4,2.8-4.2,2.8-6.9c1.4-4.2,1.4-8.3,0-12.5c0-1.4-1.4-4.2-2.8-5.5
		s-2.8-2.8-4.2-4.2s-2.8-1.4-4.2-2.8c-1.4,0-2.8-1.4-5.5-1.4c-1.4,0-4.2,0-5.5,1.4c-1.4,1.4-2.8,1.4-2.8,1.4H341l0,0l0,0l0,0l0,0
		l0,0l0,0l0,0l0,0l0,0l0,0h1.4l0,0l0,0l0,0l0,0l0,0l0,0l0,0l0,0c0,0,0,0,1.4-1.4c1.4,0,1.4-1.4,2.8-1.4s2.8,0,4.2,0s1.4,1.4,2.8,1.4
		c1.4,1.4,1.4,2.8,2.8,2.8c1.4,1.4,1.4,4.2,1.4,5.5c0,2.8,0,4.2-1.4,5.5c-2.8,2.8-5.5,4.2-9.7,2.8c-2.8,0-5.5,0-6.9-1.4
		c-2.8-1.4-8.3-2.8-15.2-8.3c-5.5-4.2-11.1-6.9-16.6-9.7c-2.8-1.4-6.9-2.8-9.7-4.2C289.7,356.7,287,356.7,282.8,356.7z"/>
	<path class="st0" d="M396.3,247.3c-6.9,1.4-8.3,11.1-12.5,15.2c-8.3,9.7-19.4,13.8-31.8,16.6c-8.3,1.4-18,2.8-26.3,4.2
		c-22.1,2.8-44.3,2.8-65.1,2.8h-8.3c-22.1,0-44.3,0-65.1-2.8c-8.3-1.4-18-1.4-26.3-4.2c-12.5-2.8-23.5-6.9-31.8-16.6
		c-4.2-4.2-5.5-13.8-12.5-15.2c-9.7-2.8-12.5,11.1-12.5,16.6c0,12.5,11.1,24.9,20.8,31.8c12.5,9.7,27.7,13.8,42.9,18
		c27.7,6.9,55.4,8.3,84.4,8.3h6.9c27.7,0,56.8-1.4,84.4-8.3c15.2-4.2,30.5-8.3,42.9-18c9.7-6.9,20.8-19.4,20.8-31.8
		C408.8,258.4,406,244.6,396.3,247.3z"/>
	<path class="st0" d="M364.5,136.6c1.4-8.3-2.8-16.6-11.1-19.4c-30.5-13.8-164.7-13.8-195.2,0c-6.9,4.2-12.5,11.1-11.1,19.4
		c4.2,34.6,8.3,69.2,9.7,103.8l1.4,16.6h196.6l0,0C356.2,216.9,359,176.7,364.5,136.6z M289.7,207.2c-4.2,2.8-11.1,1.4-13.8,5.5
		c-1.4,2.8,0,5.5,0,5.5l0,0h-1.4v1.4v1.4c-1.4,1.4-2.8,1.4-2.8,1.4c-1.4,0-1.4,1.4-2.8,1.4s-1.4,0-2.8,0c-1.4,0-1.4,1.4-2.8,1.4
		s-4.2,0-2.8,0c1.4,0-1.4,1.4-2.8,1.4h-1.4c0,0,0,0-1.4,0s-2.8-1.4-2.8-1.4s-1.4,0-2.8,0c-1.4,0-1.4,0-2.8-1.4c-1.4,0-1.4,0-2.8,0
		c-1.4,0-1.4-1.4-2.8-1.4c0,0-1.4,0-2.8-1.4v-1.4v-1.4l-1.4-1.4l0,0c0-1.4,1.4-2.8,0-5.5c-1.4-4.2-8.3-2.8-13.8-5.5
		c-4.2-2.8-4.2-11.1-4.2-16.6s-6.9-8.3-1.4-33.2c2.8-11.1,11.1-16.6,19.4-20.8c5.5-2.8,11.1-4.2,16.6-4.2h2.8l0,0
		c6.9,0,13.8,1.4,19.4,4.2c8.3,4.2,16.6,9.7,19.4,20.8c5.5,24.9-1.4,27.7-1.4,33.2C295.3,196.1,295.3,204.4,289.7,207.2z"/>
	<path class="st0" d="M239.9,175.4c-4.2-2.8-12.5,0-12.5,5.5s4.2,11.1,8.3,12.5c4.2,1.4,13.8-4.2,15.2-5.5c1.4-1.4,1.4-2.8,0-5.5
		c0-2.8-2.8-4.2-5.5-5.5C244.1,176.7,242.7,176.7,239.9,175.4z"/>
	<path class="st0" d="M284.2,180.9c0-5.5-8.3-8.3-12.5-5.5c-2.8,1.4-4.2,1.4-6.9,2.8c-2.8,0-4.2,2.8-5.5,5.5c0,1.4,0,4.2,0,5.5
		c1.4,2.8,11.1,6.9,15.2,5.5C281.4,193.4,284.2,186.4,284.2,180.9z"/>
</g>
</svg>
