<?xml version="1.0" encoding="utf-8"?>
<!-- Generator: Adobe Illustrator 26.0.3, SVG Export Plug-In . SVG Version: 6.00 Build 0)  -->
<svg version="1.1" xmlns="http://www.w3.org/2000/svg" xmlns:xlink="http://www.w3.org/1999/xlink" x="0px" y="0px"
	 viewBox="0 0 512 512" style="enable-background:new 0 0 512 512;" xml:space="preserve">
<style type="text/css">
	.st0{fill:url(#bg_00000054982694630060618100000014994503175270489502_);}
	.st1{fill:#FFFFFF;}
	.st2{fill-rule:evenodd;clip-rule:evenodd;fill:#FFFFFF;}
	.st3{opacity:0.1;}
	.st4{fill:url(#bg_00000021816743675875247230000013660217176329454253_);}
	.st5{fill:url(#bg_00000127036528905036704640000006608973317242725026_);}
	.st6{fill:#FCFCFC;}
	.st7{fill:url(#bg_00000097462612536880546740000017843963905158068124_);}
	.st8{fill:url(#bg_00000055670739312366228310000008821508997568928920_);}
	.st9{fill-rule:evenodd;clip-rule:evenodd;fill:#FCCDD3;}
	.st10{filter:url(#Adobe_OpacityMaskFilter);}
	.st11{mask:url(#mask-2_00000079477019141398897970000007225647416667991979_);fill-rule:evenodd;clip-rule:evenodd;fill:#6534FF;}
	.st12{fill-rule:evenodd;clip-rule:evenodd;fill:#FEFEFE;}
	.st13{fill-rule:evenodd;clip-rule:evenodd;fill:#6534FF;}
	.st14{fill:#8526D1;}
	.st15{fill:#D89738;}
	.st16{fill:#5D1B8F;}
	.st17{fill:#F2A738;}
	.st18{fill-rule:evenodd;clip-rule:evenodd;fill:#F9F9F9;}
	.st19{fill-rule:evenodd;clip-rule:evenodd;fill:#040404;}
	.st20{fill:#FEFEFE;}
	.st21{fill:#F0E20A;}
	.st22{fill:#EFE20A;}
	.st23{fill:#A1DE44;}
	.st24{fill:#FCA433;}
	.st25{fill:#FCAC68;}
	.st26{fill:#F74D7B;}
	.st27{fill:#9FDD46;}
	.st28{fill:#67D1BB;}
	.st29{fill:#FAAC8C;}
	.st30{fill:#FDE723;}
	.st31{fill:#FBAB4C;}
	.st32{fill:#FEF532;}
	.st33{fill:#EDE622;}
	.st34{fill:#5BD0DD;}
	.st35{fill:#B96CAE;}
	.st36{fill:#FBB32B;}
	.st37{fill:#FA9262;}
	.st38{fill:#D5709D;}
	.st39{fill:#9763B8;}
	.st40{fill:#FBDD0F;}
	.st41{fill:#D0EC26;}
	.st42{fill:#FCA036;}
	.st43{fill:#FACF2B;}
	.st44{fill:#D4E52B;}
	.st45{fill:#FCD713;}
	.st46{fill:#FDB83D;}
	.st47{fill:#E9E227;}
	.st48{fill:#CB7896;}
	.st49{fill:#FCD415;}
	.st50{fill:#C1E72E;}
	.st51{fill:#B6DF3A;}
	.st52{fill:#C8DE37;}
	.st53{fill:#C277B4;}
	.st54{fill:#ACE339;}
	.st55{fill:#E79762;}
	.st56{fill:#E77982;}
	.st57{fill:#FCFA68;}
	.st58{fill:#F6C82A;}
	.st59{fill:#B46CB1;}
	.st60{fill:#E1CE32;}
	.st61{fill:#F2C02E;}
	.st62{fill:#F8DB26;}
	.st63{fill:#C97B9F;}
	.st64{fill:#E6F40D;}
	.st65{fill:#D8DC35;}
	.st66{fill:#FDB73F;}
	.st67{fill:#FB7759;}
	.st68{fill:#EDDA2D;}
	.st69{fill:#DA8878;}
	.st70{fill:#EABC6F;}
	.st71{fill:#FDFDC8;}
	.st72{fill:#E8B380;}
	.st73{fill:#D8DB09;}
	.st74{fill:#E4D52E;}
	.st75{fill:#FCC91B;}
	.st76{fill:#FEFB8B;}
	.st77{fill:#F9D515;}
	.st78{fill:#DEE528;}
	.st79{fill:#FBC82E;}
	.st80{fill:#C25CA6;}
	.st81{fill:#FBC331;}
	.st82{fill:#FBB53E;}
	.st83{fill:#FC8E47;}
	.st84{fill:#9D63B7;}
	.st85{fill:#86C591;}
	.st86{fill:#78DEA5;}
	.st87{fill:#FBFCA1;}
	.st88{fill:#D87F7F;}
	.st89{fill:#FDF747;}
	.st90{fill:#E2CD31;}
	.st91{fill:#91E38C;}
	.st92{fill:#C5DD36;}
	.st93{fill:#FBB342;}
	.st94{fill:#D2BC7F;}
	.st95{fill:#65D6CC;}
	.st96{fill:#D5D809;}
	.st97{fill:#AEC383;}
	.st98{fill:#FBBB23;}
	.st99{fill:#F9DA24;}
	.st100{fill:#F9AC4C;}
	.st101{fill:#FBBF59;}
	.st102{fill:#E68B69;}
	.st103{fill:#F3A451;}
	.st104{fill:#FBF00E;}
	.st105{fill:#C9F5A2;}
	.st106{fill:#F9B229;}
	.st107{fill:#E9C745;}
	.st108{fill:#A2A2A2;}
	.st109{fill:#FDF10E;}
	.st110{fill:#F0FC0D;}
	.st111{fill:#010100;}
	.st112{fill:#FC8355;}
	.st113{fill:#FC8D48;}
	.st114{fill:#FCBB23;}
	.st115{fill:#FB9854;}
	.st116{fill:#FA6886;}
	.st117{fill:#FB6D6E;}
	.st118{fill:#E95790;}
	.st119{fill:#FB5D67;}
	.st120{fill:#6FCDA1;}
	.st121{fill:#79D278;}
	.st122{fill:#020101;}
	.st123{fill:#FAFD23;}
	.st124{fill:#E2FE38;}
	.st125{fill:#141304;}
	.st126{fill:#CB5DA2;}
	.st127{fill:#B063B1;}
	.st128{fill:#FC8D76;}
	.st129{fill:#E96F92;}
	.st130{fill:#FC8353;}
	.st131{fill:#FC8B4B;}
	.st132{fill:#FB7A86;}
	.st133{fill:#E3FD7C;}
	.st134{fill:#D8BF73;}
	.st135{fill:#DECA58;}
	.st136{fill:#B6EB2D;}
	.st137{fill:#C0D847;}
	.st138{fill:#A2E749;}
	.st139{fill:#BAF35A;}
	.st140{fill:#B6F180;}
	.st141{fill:#D8FB1A;}
	.st142{fill:#D6FA18;}
	.st143{fill:#FB736E;}
	.st144{fill:#96DE4B;}
	.st145{fill:#75CF83;}
	.st146{fill:#A2C87B;}
	.st147{fill:#8EDD54;}
	.st148{fill:#BDEF28;}
	.st149{fill:#B8EE29;}
	.st150{fill:#0097A7;}
	.st151{fill:#FEB800;}
	.st152{fill:#FBE000;}
	.st153{fill:#EF3A17;}
	.st154{fill:#0146FD;}
	.st155{fill:#17C50C;}
	.st156{fill:#FEFDFC;}
	.st157{fill:#2081E2;}
	.st158{fill-rule:evenodd;clip-rule:evenodd;fill:#E2E2E2;}
	.st159{fill:#B3788F;}
	.st160{fill:#ECBB2B;}
	.st161{fill:#5B4E29;}
	.st162{fill:#766329;}
	.st163{fill:#C8A02A;}
	.st164{fill:#786429;}
	.st165{fill:#7B6629;}
	.st166{fill:#CCA32A;}
	.st167{fill:#796529;}
	.st168{fill:#AD8C29;}
	.st169{fill:#8D7429;}
	.st170{fill:#B18E2A;}
	.st171{fill:#A08229;}
	.st172{fill:#A48529;}
	.st173{fill:#8E7429;}
	.st174{fill:#8C7329;}
	.st175{fill:#BA962A;}
	.st176{fill:#D0A62B;}
	.st177{fill:#CBA22A;}
	.st178{fill:#CEA42A;}
	.st179{fill:#967A29;}
	.st180{fill:#CDA42A;}
	.st181{fill:#D3A82B;}
	.st182{fill:#B08E29;}
	.st183{fill:#C79F2A;}
	.st184{fill:#B9942A;}
	.st185{fill:#D2A72B;}
	.st186{fill:#907629;}
	.st187{fill:#A28329;}
	.st188{fill:#957A29;}
	.st189{fill:#B29029;}
	.st190{fill:#CAA22A;}
	.st191{fill:#F1EDBA;}
	.st192{fill:#FDFDFD;}
	.st193{fill:#776329;}
	.st194{fill:#947929;}
	.st195{fill:#AA8A29;}
	.st196{fill:#7A6529;}
</style>
<g id="MIVA:SYMM">
</g>
<g id="MIVA-FRACTION">
</g>
<g id="FRACTION-MIVA">
</g>
<g id="MIVA-HNY">
</g>
<g id="MIVA-WXDAI">
</g>
<g id="zeroalpha">
</g>
<g id="POAP">
</g>
<g id="pixeth">
</g>
<g id="xDaiTigers">
</g>
<g id="Fraction_Early">
</g>
<g id="CryptoStamp">
</g>
<g id="Epor.io">
</g>
<g id="nifty-ink">
</g>
<g id="Opensea">
	<g>
		<rect x="0" y="0" class="st157" width="512.001" height="512.001"/>
		<path class="st1" d="M129.201,264.41l1.08-1.697l65.106-101.85c0.952-1.491,3.188-1.337,3.908,0.283
			c10.877,24.376,20.262,54.692,15.865,73.566c-1.877,7.765-7.02,18.282-12.805,28.002c-0.745,1.415-1.568,2.803-2.443,4.14
			c-0.411,0.617-1.106,0.977-1.852,0.977h-66.957C129.304,267.829,128.25,265.875,129.201,264.41z"/>
		<path class="st1" d="M419.4,283.335v16.122c0,0.926-0.566,1.748-1.389,2.108c-5.039,2.16-22.293,10.079-29.467,20.056
			c-18.308,25.482-32.296,61.918-63.563,61.918H194.538c-46.232,0-83.696-37.593-83.696-83.98v-1.491
			c0-1.234,1.003-2.237,2.237-2.237h72.717c1.44,0,2.494,1.337,2.366,2.751c-0.515,4.731,0.36,9.565,2.597,13.962
			c4.32,8.769,13.268,14.246,22.936,14.246h35.999v-28.105h-35.587c-1.826,0-2.905-2.109-1.851-3.6
			c0.385-0.592,0.823-1.208,1.285-1.903c3.369-4.783,8.177-12.214,12.96-20.674c3.266-5.708,6.428-11.802,8.974-17.922
			c0.515-1.106,0.926-2.237,1.337-3.343c0.694-1.954,1.415-3.78,1.929-5.605c0.515-1.543,0.926-3.163,1.337-4.68
			c1.209-5.194,1.723-10.697,1.723-16.405c0-2.237-0.103-4.577-0.308-6.814c-0.103-2.443-0.411-4.886-0.72-7.329
			c-0.206-2.16-0.591-4.294-1.003-6.531c-0.514-3.266-1.234-6.505-2.057-9.771l-0.283-1.234c-0.617-2.237-1.131-4.371-1.851-6.608
			c-2.032-7.02-4.371-13.86-6.84-20.262c-0.9-2.546-1.929-4.988-2.957-7.431c-1.517-3.677-3.06-7.02-4.474-10.183
			c-0.72-1.44-1.337-2.751-1.954-4.088c-0.694-1.517-1.414-3.034-2.134-4.474c-0.514-1.106-1.106-2.134-1.517-3.163l-4.397-8.125
			c-0.617-1.106,0.411-2.417,1.62-2.083l27.514,7.457h0.077c0.051,0,0.077,0.026,0.103,0.026l3.625,1.003l3.986,1.132l1.466,0.411
			v-16.353c0-7.894,6.325-14.297,14.142-14.297c3.908,0,7.457,1.594,10.002,4.191c2.545,2.597,4.14,6.146,4.14,10.106v24.274
			l2.932,0.822c0.231,0.078,0.463,0.18,0.668,0.334c0.72,0.54,1.748,1.337,3.06,2.315c1.029,0.822,2.134,1.826,3.471,2.854
			c2.648,2.134,5.811,4.885,9.283,8.048c0.926,0.797,1.826,1.62,2.648,2.443c4.474,4.166,9.488,9.051,14.271,14.451
			c1.337,1.517,2.648,3.06,3.985,4.68c1.337,1.646,2.752,3.266,3.985,4.886c1.62,2.16,3.369,4.397,4.886,6.737
			c0.72,1.106,1.543,2.237,2.237,3.343c1.954,2.957,3.677,6.017,5.323,9.077c0.694,1.414,1.414,2.957,2.031,4.474
			c1.826,4.088,3.266,8.254,4.191,12.42c0.283,0.9,0.489,1.877,0.592,2.752v0.206c0.308,1.234,0.411,2.545,0.514,3.882
			c0.411,4.269,0.206,8.537-0.72,12.831c-0.386,1.826-0.9,3.548-1.517,5.374c-0.617,1.748-1.234,3.574-2.031,5.297
			c-1.543,3.574-3.369,7.148-5.529,10.491c-0.694,1.234-1.517,2.546-2.34,3.78c-0.9,1.311-1.826,2.545-2.648,3.754
			c-1.131,1.543-2.34,3.162-3.574,4.603c-1.106,1.517-2.237,3.034-3.471,4.371c-1.723,2.031-3.369,3.96-5.092,5.811
			c-1.028,1.208-2.134,2.443-3.266,3.548c-1.105,1.234-2.237,2.34-3.266,3.368c-1.722,1.723-3.162,3.06-4.371,4.166l-2.828,2.597
			c-0.411,0.36-0.952,0.566-1.517,0.566h-21.908v28.105h27.565c6.171,0,12.034-2.186,16.765-6.197
			c1.62-1.414,8.691-7.534,17.048-16.765c0.283-0.309,0.643-0.54,1.055-0.643l76.137-22.011
			C417.961,280.764,419.4,281.843,419.4,283.335z"/>
	</g>
</g>
<g id="Placeholder">
</g>
<g id="Foundation">
</g>
<g id="cryptoWine">
</g>
<g id="NFTBeez_00000167391764337955545130000012586990163054116534_">
</g>
</svg>
