<?xml version="1.0" encoding="utf-8"?>
<svg version="1.1" id="Ebene_1" xmlns="http://www.w3.org/2000/svg" xmlns:xlink="http://www.w3.org/1999/xlink" x="0px" y="0px"
	 viewBox="0 0 512 512" style="enable-background:new 0 0 512 512;" xml:space="preserve">
<style type="text/css">
	.st0{fill:#2081E2;}
	.st1{fill:#FFFFFF;}
</style>
<g id="Opensea">
	<g>
		<rect class="st0" width="512" height="512"/>
		<path class="st1" d="M129.2,264.4l1.1-1.7l65.1-101.9c1-1.5,3.2-1.3,3.9,0.3c10.9,24.4,20.3,54.7,15.9,73.6
			c-1.9,7.8-7,18.3-12.8,28c-0.7,1.4-1.6,2.8-2.4,4.1c-0.4,0.6-1.1,1-1.9,1h-67C129.3,267.8,128.2,265.9,129.2,264.4z"/>
		<path class="st1" d="M419.4,283.3v16.1c0,0.9-0.6,1.7-1.4,2.1c-5,2.2-22.3,10.1-29.5,20.1c-18.3,25.5-32.3,61.9-63.6,61.9H194.5
			c-46.2,0-83.7-37.6-83.7-84v-1.5c0-1.2,1-2.2,2.2-2.2h72.7c1.4,0,2.5,1.3,2.4,2.8c-0.5,4.7,0.4,9.6,2.6,14
			c4.3,8.8,13.3,14.2,22.9,14.2h36v-28.1h-35.6c-1.8,0-2.9-2.1-1.9-3.6c0.4-0.6,0.8-1.2,1.3-1.9c3.4-4.8,8.2-12.2,13-20.7
			c3.3-5.7,6.4-11.8,9-17.9c0.5-1.1,0.9-2.2,1.3-3.3c0.7-2,1.4-3.8,1.9-5.6c0.5-1.5,0.9-3.2,1.3-4.7c1.2-5.2,1.7-10.7,1.7-16.4
			c0-2.2-0.1-4.6-0.3-6.8c-0.1-2.4-0.4-4.9-0.7-7.3c-0.2-2.2-0.6-4.3-1-6.5c-0.5-3.3-1.2-6.5-2.1-9.8l-0.3-1.2
			c-0.6-2.2-1.1-4.4-1.9-6.6c-2-7-4.4-13.9-6.8-20.3c-0.9-2.5-1.9-5-3-7.4c-1.5-3.7-3.1-7-4.5-10.2c-0.7-1.4-1.3-2.8-2-4.1
			c-0.7-1.5-1.4-3-2.1-4.5c-0.5-1.1-1.1-2.1-1.5-3.2l-4.4-8.1c-0.6-1.1,0.4-2.4,1.6-2.1l27.5,7.5h0.1c0.1,0,0.1,0,0.1,0l3.6,1l4,1.1
			l1.5,0.4v-16.4c0-7.9,6.3-14.3,14.1-14.3c3.9,0,7.5,1.6,10,4.2s4.1,6.1,4.1,10.1v24.3l2.9,0.8c0.2,0.1,0.5,0.2,0.7,0.3
			c0.7,0.5,1.7,1.3,3.1,2.3c1,0.8,2.1,1.8,3.5,2.9c2.6,2.1,5.8,4.9,9.3,8c0.9,0.8,1.8,1.6,2.6,2.4c4.5,4.2,9.5,9.1,14.3,14.5
			c1.3,1.5,2.6,3.1,4,4.7c1.3,1.6,2.8,3.3,4,4.9c1.6,2.2,3.4,4.4,4.9,6.7c0.7,1.1,1.5,2.2,2.2,3.3c2,3,3.7,6,5.3,9.1
			c0.7,1.4,1.4,3,2,4.5c1.8,4.1,3.3,8.3,4.2,12.4c0.3,0.9,0.5,1.9,0.6,2.8v0.2c0.3,1.2,0.4,2.5,0.5,3.9c0.4,4.3,0.2,8.5-0.7,12.8
			c-0.4,1.8-0.9,3.5-1.5,5.4c-0.6,1.7-1.2,3.6-2,5.3c-1.5,3.6-3.4,7.1-5.5,10.5c-0.7,1.2-1.5,2.5-2.3,3.8c-0.9,1.3-1.8,2.5-2.6,3.8
			c-1.1,1.5-2.3,3.2-3.6,4.6c-1.1,1.5-2.2,3-3.5,4.4c-1.7,2-3.4,4-5.1,5.8c-1,1.2-2.1,2.4-3.3,3.5c-1.1,1.2-2.2,2.3-3.3,3.4
			c-1.7,1.7-3.2,3.1-4.4,4.2l-2.8,2.6c-0.4,0.4-1,0.6-1.5,0.6H278v28.1h27.6c6.2,0,12-2.2,16.8-6.2c1.6-1.4,8.7-7.5,17-16.8
			c0.3-0.3,0.6-0.5,1.1-0.6l76.1-22C418,280.8,419.4,281.8,419.4,283.3z"/>
	</g>
</g>
</svg>
