<?xml version="1.0" encoding="utf-8"?>
<!-- Generator: Adobe Illustrator 26.0.1, SVG Export Plug-In . SVG Version: 6.00 Build 0)  -->
<svg version="1.1" xmlns="http://www.w3.org/2000/svg" xmlns:xlink="http://www.w3.org/1999/xlink" x="0px" y="0px"
	 viewBox="0 0 512 512" style="enable-background:new 0 0 512 512;" xml:space="preserve">
<style type="text/css">
	.st0{fill:url(#bg_00000139280437469224186950000017538281788743803538_);}
	.st1{fill:#FFFFFF;}
	.st2{fill-rule:evenodd;clip-rule:evenodd;fill:#FFFFFF;}
	.st3{opacity:0.1;}
	.st4{fill:url(#bg_00000054243124768709072770000005263516016899870595_);}
	.st5{fill:url(#bg_00000003815949180563372000000011353012983897849988_);}
	.st6{fill:#FCFCFC;}
	.st7{fill:url(#bg_00000078739318962592622150000008898888939974399880_);}
	.st8{fill:url(#bg_00000036952140231066317910000010290967770751880099_);}
	.st9{fill-rule:evenodd;clip-rule:evenodd;fill:#FCCDD3;}
	.st10{filter:url(#Adobe_OpacityMaskFilter);}
	.st11{mask:url(#mask-2_00000079477019141398897970000007225647416667991979_);fill-rule:evenodd;clip-rule:evenodd;fill:#6534FF;}
	.st12{fill-rule:evenodd;clip-rule:evenodd;fill:#FEFEFE;}
	.st13{fill-rule:evenodd;clip-rule:evenodd;fill:#6534FF;}
	.st14{fill:#8526D1;}
	.st15{fill:#D89738;}
	.st16{fill:#5D1B8F;}
	.st17{fill:#F2A738;}
	.st18{fill-rule:evenodd;clip-rule:evenodd;fill:#F9F9F9;}
	.st19{fill-rule:evenodd;clip-rule:evenodd;fill:#040404;}
	.st20{fill:#FEFEFE;}
	.st21{fill:#F0E20A;}
	.st22{fill:#EFE20A;}
	.st23{fill:#A1DE44;}
	.st24{fill:#FCA433;}
	.st25{fill:#FCAC68;}
	.st26{fill:#F74D7B;}
	.st27{fill:#9FDD46;}
	.st28{fill:#67D1BB;}
	.st29{fill:#FAAC8C;}
	.st30{fill:#FDE723;}
	.st31{fill:#FBAB4C;}
	.st32{fill:#FEF532;}
	.st33{fill:#EDE622;}
	.st34{fill:#5BD0DD;}
	.st35{fill:#B96CAE;}
	.st36{fill:#FBB32B;}
	.st37{fill:#FA9262;}
	.st38{fill:#D5709D;}
	.st39{fill:#9763B8;}
	.st40{fill:#FBDD0F;}
	.st41{fill:#D0EC26;}
	.st42{fill:#FCA036;}
	.st43{fill:#FACF2B;}
	.st44{fill:#D4E52B;}
	.st45{fill:#FCD713;}
	.st46{fill:#FDB83D;}
	.st47{fill:#E9E227;}
	.st48{fill:#CB7896;}
	.st49{fill:#FCD415;}
	.st50{fill:#C1E72E;}
	.st51{fill:#B6DF3A;}
	.st52{fill:#C8DE37;}
	.st53{fill:#C277B4;}
	.st54{fill:#ACE339;}
	.st55{fill:#E79762;}
	.st56{fill:#E77982;}
	.st57{fill:#FCFA68;}
	.st58{fill:#F6C82A;}
	.st59{fill:#B46CB1;}
	.st60{fill:#E1CE32;}
	.st61{fill:#F2C02E;}
	.st62{fill:#F8DB26;}
	.st63{fill:#C97B9F;}
	.st64{fill:#E6F40D;}
	.st65{fill:#D8DC35;}
	.st66{fill:#FDB73F;}
	.st67{fill:#FB7759;}
	.st68{fill:#EDDA2D;}
	.st69{fill:#DA8878;}
	.st70{fill:#EABC6F;}
	.st71{fill:#FDFDC8;}
	.st72{fill:#E8B380;}
	.st73{fill:#D8DB09;}
	.st74{fill:#E4D52E;}
	.st75{fill:#FCC91B;}
	.st76{fill:#FEFB8B;}
	.st77{fill:#F9D515;}
	.st78{fill:#DEE528;}
	.st79{fill:#FBC82E;}
	.st80{fill:#C25CA6;}
	.st81{fill:#FBC331;}
	.st82{fill:#FBB53E;}
	.st83{fill:#FC8E47;}
	.st84{fill:#9D63B7;}
	.st85{fill:#86C591;}
	.st86{fill:#78DEA5;}
	.st87{fill:#FBFCA1;}
	.st88{fill:#D87F7F;}
	.st89{fill:#FDF747;}
	.st90{fill:#E2CD31;}
	.st91{fill:#91E38C;}
	.st92{fill:#C5DD36;}
	.st93{fill:#FBB342;}
	.st94{fill:#D2BC7F;}
	.st95{fill:#65D6CC;}
	.st96{fill:#D5D809;}
	.st97{fill:#AEC383;}
	.st98{fill:#FBBB23;}
	.st99{fill:#F9DA24;}
	.st100{fill:#F9AC4C;}
	.st101{fill:#FBBF59;}
	.st102{fill:#E68B69;}
	.st103{fill:#F3A451;}
	.st104{fill:#FBF00E;}
	.st105{fill:#C9F5A2;}
	.st106{fill:#F9B229;}
	.st107{fill:#E9C745;}
	.st108{fill:#A2A2A2;}
	.st109{fill:#FDF10E;}
	.st110{fill:#F0FC0D;}
	.st111{fill:#010100;}
	.st112{fill:#FC8355;}
	.st113{fill:#FC8D48;}
	.st114{fill:#FCBB23;}
	.st115{fill:#FB9854;}
	.st116{fill:#FA6886;}
	.st117{fill:#FB6D6E;}
	.st118{fill:#E95790;}
	.st119{fill:#FB5D67;}
	.st120{fill:#6FCDA1;}
	.st121{fill:#79D278;}
	.st122{fill:#020101;}
	.st123{fill:#FAFD23;}
	.st124{fill:#E2FE38;}
	.st125{fill:#141304;}
	.st126{fill:#CB5DA2;}
	.st127{fill:#B063B1;}
	.st128{fill:#FC8D76;}
	.st129{fill:#E96F92;}
	.st130{fill:#FC8353;}
	.st131{fill:#FC8B4B;}
	.st132{fill:#FB7A86;}
	.st133{fill:#E3FD7C;}
	.st134{fill:#D8BF73;}
	.st135{fill:#DECA58;}
	.st136{fill:#B6EB2D;}
	.st137{fill:#C0D847;}
	.st138{fill:#A2E749;}
	.st139{fill:#BAF35A;}
	.st140{fill:#B6F180;}
	.st141{fill:#D8FB1A;}
	.st142{fill:#D6FA18;}
	.st143{fill:#FB736E;}
	.st144{fill:#96DE4B;}
	.st145{fill:#75CF83;}
	.st146{fill:#A2C87B;}
	.st147{fill:#8EDD54;}
	.st148{fill:#BDEF28;}
	.st149{fill:#B8EE29;}
	.st150{fill-rule:evenodd;clip-rule:evenodd;fill:#0097A7;}
	.st151{fill:#FEB800;}
	.st152{fill:#FBE000;}
	.st153{fill:#EF3A17;}
	.st154{fill:#0146FD;}
	.st155{fill:#17C50C;}
	.st156{fill:#FEFDFC;}
	.st157{fill:#2081E2;}
</style>
<g id="MIVA:SYMM">
</g>
<g id="MIVA-FRACTION">
</g>
<g id="FRACTION-MIVA">
</g>
<g id="MIVA-HNY">
</g>
<g id="MIVA-WXDAI">
</g>
<g id="zeroalpha">
</g>
<g id="POAP">
</g>
<g id="pixeth">
</g>
<g id="xDaiTigers">
</g>
<g id="Fraction_Early">
</g>
<g id="CryptoStamp">
</g>
<g id="Epor.io">
</g>
<g id="nifty-ink">
</g>
<g id="Opensea">
	<g>
		<path class="st157" d="M506.27322,256c0,138.21439-112.05884,250.27322-250.27322,250.27322S5.72678,394.21439,5.72678,256
			S117.78561,5.72678,256,5.72678C394.24341,5.72678,506.27322,117.78561,506.27322,256z"/>
		<path class="st1" d="M129.20108,264.40967l1.07967-1.69736l65.10608-101.85017c0.95154-1.49113,3.18848-1.33696,3.90826,0.28281
			c10.87688,24.37613,20.26212,54.69221,15.86533,73.56581c-1.87704,7.76547-7.01967,18.28197-12.80548,28.00156
			c-0.74532,1.41455-1.56822,2.80307-2.44266,4.14001c-0.41145,0.61719-1.10571,0.97708-1.85153,0.97708h-66.95709
			C129.30368,267.82941,128.24954,265.87527,129.20108,264.40967z"/>
		<path class="st1" d="M419.40039,283.33484v16.1221c0,0.92551-0.56561,1.74841-1.38855,2.10831
			c-5.03949,2.15985-22.2933,10.0795-29.46713,20.0564c-18.30798,25.48181-32.29578,61.9176-63.56339,61.9176H194.5379
			c-46.23198,0-83.69637-37.59253-83.69637-83.97968v-1.49115c0-1.23434,1.00259-2.23694,2.23694-2.23694h72.71738
			c1.43958,0,2.49371,1.33698,2.3656,2.75101c-0.51457,4.73117,0.35988,9.56546,2.59682,13.96225
			c4.31972,8.76855,13.26799,14.24554,22.93604,14.24554h35.99883v-28.10468h-35.58737c-1.8255,0-2.90517-2.10883-1.85101-3.59995
			c0.38542-0.59164,0.82289-1.20831,1.2854-1.90256c3.36868-4.78275,8.17694-12.21384,12.95964-20.67358
			c3.26558-5.70822,6.42802-11.8024,8.9738-17.92206c0.51456-1.10571,0.92551-2.23744,1.33698-3.34315
			c0.69424-1.95413,1.41452-3.77963,1.9286-5.60512c0.51456-1.54318,0.92551-3.16296,1.33694-4.68011
			c1.20882-5.19415,1.72289-10.69667,1.72289-16.40491c0-2.23694-0.10262-4.577-0.30833-6.81393
			c-0.10312-2.44267-0.41145-4.88585-0.72028-7.32851c-0.20573-2.15985-0.59117-4.29417-1.00261-6.53111
			c-0.51405-3.26558-1.23433-6.50513-2.05725-9.77119l-0.28281-1.23383c-0.61716-2.23746-1.13124-4.37129-1.85101-6.60823
			c-2.03172-7.02016-4.37126-13.85962-6.83998-20.26212c-0.89996-2.54578-1.9286-4.98845-2.95721-7.43111
			c-1.51666-3.67702-3.05984-7.01967-4.47389-10.18262c-0.71977-1.44008-1.33694-2.7515-1.95413-4.08847
			c-0.69424-1.51715-1.41403-3.0343-2.13432-4.47388c-0.51407-1.10571-1.10571-2.13434-1.51717-3.16295l-4.39679-8.12538
			c-0.61717-1.10571,0.41144-2.41713,1.61977-2.08277l27.51353,7.45664h0.07709c0.05106,0,0.07709,0.02603,0.10262,0.02603
			l3.62546,1.00259l3.98586,1.13173l1.46561,0.41095v-16.35336c0-7.89411,6.32539-14.2966,14.14241-14.2966
			c3.90826,0,7.45667,1.59424,10.00244,4.19107c2.54529,2.59734,4.13953,6.14571,4.13953,10.10553v24.27351l2.93167,0.8224
			c0.23126,0.07758,0.46252,0.18019,0.66824,0.33437c0.72028,0.54008,1.74841,1.33696,3.05984,2.31451
			c1.02863,0.8224,2.13431,1.8255,3.47128,2.85411c2.64841,2.13383,5.81134,4.88535,9.28262,8.04829
			c0.92554,0.79688,1.8255,1.61978,2.64841,2.44267c4.47437,4.16554,9.48837,9.05089,14.27106,14.45078
			c1.33698,1.51715,2.64841,3.05983,3.98535,4.67961c1.33698,1.6458,2.75153,3.26556,3.98535,4.88583
			c1.62027,2.15985,3.36868,4.39679,4.88586,6.73685c0.71979,1.10571,1.54266,2.23694,2.23694,3.34265
			c1.95413,2.95674,3.677,6.01706,5.32281,9.0769c0.69424,1.41406,1.414,2.95673,2.03122,4.47388
			c1.8255,4.08849,3.26556,8.25403,4.19104,12.41957c0.28284,0.89998,0.48856,1.87704,0.59167,2.75151v0.20572
			c0.30832,1.23384,0.41144,2.54527,0.51404,3.88225c0.41147,4.26865,0.20575,8.5368-0.71976,12.83099
			c-0.38596,1.826-0.89999,3.54837-1.51718,5.37437c-0.61716,1.7484-1.23431,3.5739-2.03119,5.29677
			c-1.54269,3.57391-3.36871,7.14832-5.52856,10.49097c-0.69424,1.23434-1.51715,2.54578-2.34003,3.78012
			c-0.89999,1.31094-1.8255,2.54529-2.64838,3.75409c-1.13129,1.54269-2.3396,3.16248-3.57394,4.60254
			c-1.10568,1.51715-2.23694,3.0343-3.47128,4.37128c-1.7229,2.03122-3.36865,3.95981-5.09155,5.81134
			c-1.02814,1.20831-2.13382,2.44266-3.26556,3.54837c-1.10522,1.23383-2.23694,2.33957-3.26556,3.36819
			c-1.72238,1.72287-3.16245,3.05981-4.37128,4.16553l-2.82809,2.59732c-0.41144,0.35989-0.95154,0.56564-1.51715,0.56564h-21.9079
			v28.10468h27.56458c6.17123,0,12.03415-2.18588,16.76532-6.19727c1.61975-1.41403,8.69098-7.53372,17.04761-16.7648
			c0.28278-0.30884,0.64322-0.5401,1.05466-0.6427l76.13663-22.01053C417.96078,280.76352,419.40039,281.8432,419.40039,283.33484z"
			/>
	</g>
</g>
</svg>
