<?xml version="1.0" encoding="utf-8"?>
<svg version="1.1" id="Ebene_1" xmlns="http://www.w3.org/2000/svg" xmlns:xlink="http://www.w3.org/1999/xlink" x="0px" y="0px"
	 viewBox="0 0 512 512" style="enable-background:new 0 0 512 512;" xml:space="preserve">
<style type="text/css">
	.st0{fill:#8526D1;}
	.st1{fill:#D89738;}
	.st2{fill:#5D1B8F;}
	.st3{fill:#F2A738;}
</style>
<g id="pixeth">
	<g>
		<path class="st0" d="M255.8,512c-84.8,0-169.5,0-254.3,0c-1.3,0-1.6-0.3-1.6-1.6C0,340.8,0,171.2,0,1.6C0,0.3,0.3,0,1.6,0
			c84.8,0,169.5,0,254.3,0c0,41.7,0,83.4,0,125.1c0,2.8,0,2.8,2.8,2.8c40.7,0,81.4,0,122.1,0c0.6,0,1.2,0,1.9,0
			c0.8,0,1.1,0.4,1.1,1.2c0,0.6,0,1.1,0,1.7c0,41.7,0,83.3,0,125c-0.8,0-1.6,0.1-2.4,0.1c-83.8,0-167.5,0-251.3,0
			c-1.7,0-2.1,0.4-2.1,2.1c0.1,41.2,0,82.4,0,123.6c0,2.5-0.3,2.2,2.2,2.2c41.1,0,82.3,0,123.4,0c2.6,0,2.3-0.3,2.3,2.2
			C255.8,428,255.8,470,255.8,512z"/>
		<path class="st1" d="M255.8,512c0-42,0-84,0-126c0-2.6,0.3-2.2-2.3-2.2c-41.1,0-82.3,0-123.4,0c-2.5,0-2.2,0.3-2.2-2.2
			c0-41.2,0-82.4,0-123.6c0-1.7,0.4-2.1,2.1-2.1c83.8,0,167.5,0,251.3,0c0.8,0,1.6,0,2.4-0.1c0.8,0,1.6,0.1,2.4,0.1
			c42,0,83.9,0,125.9,0c0,42.6,0,85.3,0,127.9c-1.1,0-2.2,0-3.2,0c-40.5,0-81.1,0-121.6,0c-3.4,0-3.4,0-3.4,3.4
			c0,41.6,0,83.2,0,124.8C341.1,512,298.5,512,255.8,512z"/>
		<path class="st2" d="M512,255.8c-42,0-83.9,0-125.9,0c-0.8,0-1.6,0-2.4-0.1c0-41.7,0-83.3,0-125c0-0.6,0-1.1,0-1.7
			c0-0.8-0.4-1.2-1.1-1.2c-0.6,0-1.2,0-1.9,0c-40.7,0-81.4,0-122.1,0c-2.8,0-2.8,0-2.8-2.8c0-41.7,0-83.4,0-125.1
			c84.9,0,169.7,0,254.6,0c1.3,0,1.6,0.3,1.6,1.6C512,86.3,512,171.1,512,255.8z"/>
		<path class="st3" d="M383.7,512c0-41.6,0-83.2,0-124.8c0-3.4,0-3.4,3.4-3.4c40.5,0,81.1,0,121.6,0c1.1,0,2.2,0,3.2,0
			c0,42.2,0,84.5,0,126.7c0,1.3-0.3,1.6-1.6,1.6C468.2,512,426,512,383.7,512z"/>
	</g>
</g>
</svg>
