<?xml version="1.0" encoding="utf-8"?>
<!-- Generator: Adobe Illustrator 26.0.1, SVG Export Plug-In . SVG Version: 6.00 Build 0)  -->
<svg version="1.1" xmlns="http://www.w3.org/2000/svg" xmlns:xlink="http://www.w3.org/1999/xlink" x="0px" y="0px"
	 viewBox="0 0 512 512" style="enable-background:new 0 0 512 512;" xml:space="preserve">
<style type="text/css">
	.st0{fill:url(#bg_00000042010234869935549790000002893787302894127531_);}
	.st1{fill:#FFFFFF;}
	.st2{fill-rule:evenodd;clip-rule:evenodd;fill:#FFFFFF;}
	.st3{opacity:0.1;}
	.st4{fill:url(#bg_00000163048619459226294540000011519181179832670870_);}
	.st5{fill:url(#bg_00000059303151008587379570000017345793106550758813_);}
	.st6{fill:#FCFCFC;}
	.st7{fill:url(#bg_00000145743227189173869480000005970420449411411112_);}
	.st8{fill:url(#bg_00000065057662657793750700000013229580868709443734_);}
	.st9{fill-rule:evenodd;clip-rule:evenodd;fill:#FCCDD3;}
	.st10{filter:url(#Adobe_OpacityMaskFilter);}
	.st11{mask:url(#mask-2_00000079477019141398897970000007225647416667991979_);fill-rule:evenodd;clip-rule:evenodd;fill:#6534FF;}
	.st12{fill-rule:evenodd;clip-rule:evenodd;fill:#FEFEFE;}
	.st13{fill-rule:evenodd;clip-rule:evenodd;fill:#6534FF;}
	.st14{fill:#8526D1;}
	.st15{fill:#D89738;}
	.st16{fill:#5D1B8F;}
	.st17{fill:#F2A738;}
	.st18{fill-rule:evenodd;clip-rule:evenodd;fill:#F9F9F9;}
	.st19{fill-rule:evenodd;clip-rule:evenodd;fill:#040404;}
	.st20{fill:#FEFEFE;}
	.st21{fill:#F0E20A;}
	.st22{fill:#EFE20A;}
	.st23{fill:#A1DE44;}
	.st24{fill:#FCA433;}
	.st25{fill:#FCAC68;}
	.st26{fill:#F74D7B;}
	.st27{fill:#9FDD46;}
	.st28{fill:#67D1BB;}
	.st29{fill:#FAAC8C;}
	.st30{fill:#FDE723;}
	.st31{fill:#FBAB4C;}
	.st32{fill:#FEF532;}
	.st33{fill:#EDE622;}
	.st34{fill:#5BD0DD;}
	.st35{fill:#B96CAE;}
	.st36{fill:#FBB32B;}
	.st37{fill:#FA9262;}
	.st38{fill:#D5709D;}
	.st39{fill:#9763B8;}
	.st40{fill:#FBDD0F;}
	.st41{fill:#D0EC26;}
	.st42{fill:#FCA036;}
	.st43{fill:#FACF2B;}
	.st44{fill:#D4E52B;}
	.st45{fill:#FCD713;}
	.st46{fill:#FDB83D;}
	.st47{fill:#E9E227;}
	.st48{fill:#CB7896;}
	.st49{fill:#FCD415;}
	.st50{fill:#C1E72E;}
	.st51{fill:#B6DF3A;}
	.st52{fill:#C8DE37;}
	.st53{fill:#C277B4;}
	.st54{fill:#ACE339;}
	.st55{fill:#E79762;}
	.st56{fill:#E77982;}
	.st57{fill:#FCFA68;}
	.st58{fill:#F6C82A;}
	.st59{fill:#B46CB1;}
	.st60{fill:#E1CE32;}
	.st61{fill:#F2C02E;}
	.st62{fill:#F8DB26;}
	.st63{fill:#C97B9F;}
	.st64{fill:#E6F40D;}
	.st65{fill:#D8DC35;}
	.st66{fill:#FDB73F;}
	.st67{fill:#FB7759;}
	.st68{fill:#EDDA2D;}
	.st69{fill:#DA8878;}
	.st70{fill:#EABC6F;}
	.st71{fill:#FDFDC8;}
	.st72{fill:#E8B380;}
	.st73{fill:#D8DB09;}
	.st74{fill:#E4D52E;}
	.st75{fill:#FCC91B;}
	.st76{fill:#FEFB8B;}
	.st77{fill:#F9D515;}
	.st78{fill:#DEE528;}
	.st79{fill:#FBC82E;}
	.st80{fill:#C25CA6;}
	.st81{fill:#FBC331;}
	.st82{fill:#FBB53E;}
	.st83{fill:#FC8E47;}
	.st84{fill:#9D63B7;}
	.st85{fill:#86C591;}
	.st86{fill:#78DEA5;}
	.st87{fill:#FBFCA1;}
	.st88{fill:#D87F7F;}
	.st89{fill:#FDF747;}
	.st90{fill:#E2CD31;}
	.st91{fill:#91E38C;}
	.st92{fill:#C5DD36;}
	.st93{fill:#FBB342;}
	.st94{fill:#D2BC7F;}
	.st95{fill:#65D6CC;}
	.st96{fill:#D5D809;}
	.st97{fill:#AEC383;}
	.st98{fill:#FBBB23;}
	.st99{fill:#F9DA24;}
	.st100{fill:#F9AC4C;}
	.st101{fill:#FBBF59;}
	.st102{fill:#E68B69;}
	.st103{fill:#F3A451;}
	.st104{fill:#FBF00E;}
	.st105{fill:#C9F5A2;}
	.st106{fill:#F9B229;}
	.st107{fill:#E9C745;}
	.st108{fill:#A2A2A2;}
	.st109{fill:#FDF10E;}
	.st110{fill:#F0FC0D;}
	.st111{fill:#010100;}
	.st112{fill:#FC8355;}
	.st113{fill:#FC8D48;}
	.st114{fill:#FCBB23;}
	.st115{fill:#FB9854;}
	.st116{fill:#FA6886;}
	.st117{fill:#FB6D6E;}
	.st118{fill:#E95790;}
	.st119{fill:#FB5D67;}
	.st120{fill:#6FCDA1;}
	.st121{fill:#79D278;}
	.st122{fill:#020101;}
	.st123{fill:#FAFD23;}
	.st124{fill:#E2FE38;}
	.st125{fill:#141304;}
	.st126{fill:#CB5DA2;}
	.st127{fill:#B063B1;}
	.st128{fill:#FC8D76;}
	.st129{fill:#E96F92;}
	.st130{fill:#FC8353;}
	.st131{fill:#FC8B4B;}
	.st132{fill:#FB7A86;}
	.st133{fill:#E3FD7C;}
	.st134{fill:#D8BF73;}
	.st135{fill:#DECA58;}
	.st136{fill:#B6EB2D;}
	.st137{fill:#C0D847;}
	.st138{fill:#A2E749;}
	.st139{fill:#BAF35A;}
	.st140{fill:#B6F180;}
	.st141{fill:#D8FB1A;}
	.st142{fill:#D6FA18;}
	.st143{fill:#FB736E;}
	.st144{fill:#96DE4B;}
	.st145{fill:#75CF83;}
	.st146{fill:#A2C87B;}
	.st147{fill:#8EDD54;}
	.st148{fill:#BDEF28;}
	.st149{fill:#B8EE29;}
</style>
<g id="MIVA:SYMM">
</g>
<g id="MIVA-FRACTION">
</g>
<g id="FRACTION-MIVA">
</g>
<g id="MIVA-HNY">
</g>
<g id="MIVA-WXDAI">
</g>
<g id="zeroalpha">
</g>
<g id="POAP">
</g>
<g id="pixeth">
	<g>
		<path class="st14" d="M255.82921,511.9678c-84.75426,0-169.50851-0.00333-254.26274,0.03186
			C0.28775,512.00018-0.00025,511.71167,0,510.43301C0.03336,340.81091,0.03336,171.18877,0,1.56663
			C-0.00025,0.28797,0.28775-0.00053,1.56647,0C86.3207,0.03521,171.07495,0.03184,255.82921,0.03184
			c0,41.70853-0.00017,83.41707,0.00035,125.1256c0.00005,2.77063,0.00244,2.77275,2.80679,2.77278
			c40.6857,0.00048,81.37143,0.00025,122.05716,0.00121c0.62491,0.00002,1.24985,0.01563,1.87476,0.0194
			c0.77252,0.00464,1.13901,0.40033,1.14127,1.16219c0.00168,0.56812,0.01761,1.13622,0.01761,1.70433
			c0.00067,41.6517,0.00031,83.30342,0.00006,124.95514c-0.79465,0.01894-1.5892,0.05441-2.38385,0.05443
			c-83.77258,0.00252-167.5452,0.00815-251.31776-0.03806c-1.71887-0.00095-2.13856,0.41225-2.13634,2.13429
			c0.05296,41.20422,0.03896,82.40851,0.04675,123.61282c0.00047,2.4747-0.32143,2.18692,2.16182,2.18735
			c41.14746,0.00656,82.29492,0.0025,123.44238,0.00989c2.60934,0.00052,2.28307-0.32419,2.28354,2.23575
			C255.83144,427.96857,255.82921,469.9682,255.82921,511.9678z"/>
		<path class="st15" d="M255.82921,511.9678c0-41.9996,0.00223-83.99924-0.00548-125.99884
			c-0.00047-2.55994,0.32581-2.23523-2.28354-2.23575c-41.14746-0.00739-82.29492-0.00333-123.44238-0.00989
			c-2.48325-0.00043-2.16135,0.28735-2.16182-2.18735c-0.00779-41.20432,0.00622-82.4086-0.04675-123.61282
			c-0.00221-1.72205,0.41747-2.13524,2.13634-2.13429c83.77257,0.0462,167.54518,0.04057,251.31776,0.03806
			c0.79465-0.00002,1.5892-0.03549,2.38379-0.05443c0.79391,0.01894,1.58783,0.05438,2.38174,0.05443
			c41.95297,0.00269,83.90598,0.00238,125.85892,0.00238c0,42.63292,0,85.26582,0,127.89873c-1.07687,0-2.15375,0-3.23065,0
			c-40.52908,0-81.05817,0-121.58725,0.00009c-3.42154,0-3.42188,0.00027-3.42188,3.42181
			c-0.00009,41.60599-0.00006,83.21191-0.00006,124.81787C341.09506,511.9678,298.46213,511.9678,255.82921,511.9678z"/>
		<path class="st16" d="M511.9678,255.8293c-41.95294,0-83.90594,0.00031-125.85892-0.00238
			c-0.79391-0.00005-1.58783-0.03549-2.38174-0.05443c0.00031-41.65172,0.00067-83.30344,0-124.95514
			c0-0.56812-0.01593-1.13622-0.01761-1.70433c-0.00226-0.76186-0.36874-1.15755-1.14127-1.16219
			c-0.62491-0.00377-1.24985-0.01939-1.87476-0.0194c-40.68573-0.00096-81.37146-0.00073-122.05716-0.00121
			c-2.80435-0.00003-2.80675-0.00215-2.80679-2.77278c-0.00052-41.70853-0.00035-83.41707-0.00035-125.1256
			c84.86794,0,169.73586,0.00336,254.60381-0.03184c1.27872-0.00053,1.56717,0.28792,1.56665,1.56664
			C511.96448,86.32085,511.9678,171.07507,511.9678,255.8293z"/>
		<path class="st17" d="M383.72797,511.9678c0-41.60596-0.00003-83.21188,0.00006-124.81787
			c0-3.42154,0.00034-3.42181,3.42188-3.42181c40.52908-0.00009,81.05817-0.00009,121.58725-0.00009c1.0769,0,2.15378,0,3.23065,0
			c0,42.23502-0.00668,84.46997,0.0322,126.70496c0.00116,1.27887-0.28815,1.56824-1.56702,1.56702
			C468.198,511.96112,425.96301,511.9678,383.72797,511.9678z"/>
	</g>
</g>
<g id="xDaiTigers">
</g>
<g id="Fraction_Early">
</g>
<g id="CryptoStamp">
</g>
</svg>
