<?xml version="1.0" encoding="utf-8"?>
<!-- Generator: Adobe Illustrator 26.0.1, SVG Export Plug-In . SVG Version: 6.00 Build 0)  -->
<svg version="1.1" xmlns="http://www.w3.org/2000/svg" xmlns:xlink="http://www.w3.org/1999/xlink" x="0px" y="0px"
	 viewBox="0 0 512 512" style="enable-background:new 0 0 512 512;" xml:space="preserve">
<style type="text/css">
	.st0{fill:url(#bg_00000000938341115067259950000001374345540399788950_);}
	.st1{fill:#FFFFFF;}
	.st2{fill-rule:evenodd;clip-rule:evenodd;fill:#FFFFFF;}
	.st3{opacity:0.1;}
	.st4{fill:url(#bg_00000142162225229237948790000011762866878979843751_);}
	.st5{fill:url(#bg_00000067222366590203891650000012758136183566153365_);}
	.st6{fill:#FCFCFC;}
	.st7{fill:url(#bg_00000032632108949188767000000001820779112033087668_);}
	.st8{fill:url(#bg_00000163763455394363719310000007770443144656988093_);}
	.st9{fill-rule:evenodd;clip-rule:evenodd;fill:#FCCDD3;}
	.st10{filter:url(#Adobe_OpacityMaskFilter);}
	.st11{mask:url(#mask-2_00000079477019141398897970000007225647416667991979_);fill-rule:evenodd;clip-rule:evenodd;fill:#6534FF;}
	.st12{fill-rule:evenodd;clip-rule:evenodd;fill:#FEFEFE;}
	.st13{fill-rule:evenodd;clip-rule:evenodd;fill:#6534FF;}
	.st14{fill:#8526D1;}
	.st15{fill:#D89738;}
	.st16{fill:#5D1B8F;}
	.st17{fill:#F2A738;}
	.st18{fill-rule:evenodd;clip-rule:evenodd;fill:#F9F9F9;}
	.st19{fill-rule:evenodd;clip-rule:evenodd;fill:#040404;}
	.st20{fill:#FEFEFE;}
	.st21{fill:#F0E20A;}
	.st22{fill:#EFE20A;}
	.st23{fill:#A1DE44;}
	.st24{fill:#FCA433;}
	.st25{fill:#FCAC68;}
	.st26{fill:#F74D7B;}
	.st27{fill:#9FDD46;}
	.st28{fill:#67D1BB;}
	.st29{fill:#FAAC8C;}
	.st30{fill:#FDE723;}
	.st31{fill:#FBAB4C;}
	.st32{fill:#FEF532;}
	.st33{fill:#EDE622;}
	.st34{fill:#5BD0DD;}
	.st35{fill:#B96CAE;}
	.st36{fill:#FBB32B;}
	.st37{fill:#FA9262;}
	.st38{fill:#D5709D;}
	.st39{fill:#9763B8;}
	.st40{fill:#FBDD0F;}
	.st41{fill:#D0EC26;}
	.st42{fill:#FCA036;}
	.st43{fill:#FACF2B;}
	.st44{fill:#D4E52B;}
	.st45{fill:#FCD713;}
	.st46{fill:#FDB83D;}
	.st47{fill:#E9E227;}
	.st48{fill:#CB7896;}
	.st49{fill:#FCD415;}
	.st50{fill:#C1E72E;}
	.st51{fill:#B6DF3A;}
	.st52{fill:#C8DE37;}
	.st53{fill:#C277B4;}
	.st54{fill:#ACE339;}
	.st55{fill:#E79762;}
	.st56{fill:#E77982;}
	.st57{fill:#FCFA68;}
	.st58{fill:#F6C82A;}
	.st59{fill:#B46CB1;}
	.st60{fill:#E1CE32;}
	.st61{fill:#F2C02E;}
	.st62{fill:#F8DB26;}
	.st63{fill:#C97B9F;}
	.st64{fill:#E6F40D;}
	.st65{fill:#D8DC35;}
	.st66{fill:#FDB73F;}
	.st67{fill:#FB7759;}
	.st68{fill:#EDDA2D;}
	.st69{fill:#DA8878;}
	.st70{fill:#EABC6F;}
	.st71{fill:#FDFDC8;}
	.st72{fill:#E8B380;}
	.st73{fill:#D8DB09;}
	.st74{fill:#E4D52E;}
	.st75{fill:#FCC91B;}
	.st76{fill:#FEFB8B;}
	.st77{fill:#F9D515;}
	.st78{fill:#DEE528;}
	.st79{fill:#FBC82E;}
	.st80{fill:#C25CA6;}
	.st81{fill:#FBC331;}
	.st82{fill:#FBB53E;}
	.st83{fill:#FC8E47;}
	.st84{fill:#9D63B7;}
	.st85{fill:#86C591;}
	.st86{fill:#78DEA5;}
	.st87{fill:#FBFCA1;}
	.st88{fill:#D87F7F;}
	.st89{fill:#FDF747;}
	.st90{fill:#E2CD31;}
	.st91{fill:#91E38C;}
	.st92{fill:#C5DD36;}
	.st93{fill:#FBB342;}
	.st94{fill:#D2BC7F;}
	.st95{fill:#65D6CC;}
	.st96{fill:#D5D809;}
	.st97{fill:#AEC383;}
	.st98{fill:#FBBB23;}
	.st99{fill:#F9DA24;}
	.st100{fill:#F9AC4C;}
	.st101{fill:#FBBF59;}
	.st102{fill:#E68B69;}
	.st103{fill:#F3A451;}
	.st104{fill:#FBF00E;}
	.st105{fill:#C9F5A2;}
	.st106{fill:#F9B229;}
	.st107{fill:#E9C745;}
	.st108{fill:#A2A2A2;}
	.st109{fill:#FDF10E;}
	.st110{fill:#F0FC0D;}
	.st111{fill:#010100;}
	.st112{fill:#FC8355;}
	.st113{fill:#FC8D48;}
	.st114{fill:#FCBB23;}
	.st115{fill:#FB9854;}
	.st116{fill:#FA6886;}
	.st117{fill:#FB6D6E;}
	.st118{fill:#E95790;}
	.st119{fill:#FB5D67;}
	.st120{fill:#6FCDA1;}
	.st121{fill:#79D278;}
	.st122{fill:#020101;}
	.st123{fill:#FAFD23;}
	.st124{fill:#E2FE38;}
	.st125{fill:#141304;}
	.st126{fill:#CB5DA2;}
	.st127{fill:#B063B1;}
	.st128{fill:#FC8D76;}
	.st129{fill:#E96F92;}
	.st130{fill:#FC8353;}
	.st131{fill:#FC8B4B;}
	.st132{fill:#FB7A86;}
	.st133{fill:#E3FD7C;}
	.st134{fill:#D8BF73;}
	.st135{fill:#DECA58;}
	.st136{fill:#B6EB2D;}
	.st137{fill:#C0D847;}
	.st138{fill:#A2E749;}
	.st139{fill:#BAF35A;}
	.st140{fill:#B6F180;}
	.st141{fill:#D8FB1A;}
	.st142{fill:#D6FA18;}
	.st143{fill:#FB736E;}
	.st144{fill:#96DE4B;}
	.st145{fill:#75CF83;}
	.st146{fill:#A2C87B;}
	.st147{fill:#8EDD54;}
	.st148{fill:#BDEF28;}
	.st149{fill:#B8EE29;}
	.st150{fill-rule:evenodd;clip-rule:evenodd;fill:#0097A7;}
	.st151{fill:#FEB800;}
	.st152{fill:#FBE000;}
	.st153{fill:#EF3A17;}
	.st154{fill:#0146FD;}
	.st155{fill:#17C50C;}
	.st156{fill:#FEFDFC;}
	.st157{fill:#2081E2;}
	.st158{fill-rule:evenodd;clip-rule:evenodd;fill:#E2E2E2;}
</style>
<g id="MIVA:SYMM">
</g>
<g id="MIVA-FRACTION">
</g>
<g id="FRACTION-MIVA">
</g>
<g id="MIVA-HNY">
</g>
<g id="MIVA-WXDAI">
</g>
<g id="zeroalpha">
</g>
<g id="POAP">
</g>
<g id="pixeth">
</g>
<g id="xDaiTigers">
</g>
<g id="Fraction_Early">
</g>
<g id="CryptoStamp">
</g>
<g id="Epor.io">
</g>
<g id="nifty-ink">
</g>
<g id="Opensea">
</g>
<g id="Placeholder">
	<path id="head" class="st158" d="M256,17.05505C124.01958,17.05505,17.05505,124.01958,17.05505,256
		S124.01958,494.94495,256,494.94495S494.94495,387.98041,494.94495,256S387.98041,17.05505,256,17.05505z"/>
	<path id="face" class="st2" d="M447.50107,256c0-52.61943-43.13086-95.75027-95.75079-95.75027
		C299.13089,160.24971,256,203.38058,256,256c0,0.20428,0.02997,0.4017,0.03104,0.60596
		c-0.30013-0.4996-0.59181-0.96194-0.89349-1.46841c0-52.61995-43.13087-95.75081-95.75081-95.75081
		c-50.89406,0.86298-93.16255,42.26849-94.02493,94.02554c0,0.86238,0,1.72536,0,2.58772s0,1.72537,0,2.58774
		C66.22418,362.96469,151.62354,446.63818,256,446.63818c99.01514,0,180.89795-76.08972,189.7905-173.00934
		C446.87088,267.90363,447.50107,262.02472,447.50107,256z M192.16615,289.64233
		c-6.03792,2.58771-12.93925,4.31308-19.84007,4.31308c-17.25235,0-33.64171-8.62619-44.85622-18.97772
		c-8.62617-10.35153-13.80164-24.15315-8.62617-37.9554c5.17607-13.80164,19.8406-20.70253,33.64233-18.97769
		c18.11473,0,33.64224,10.35152,43.13087,25.01614c3.45071,5.17546,6.03844,10.35152,7.76379,15.52699
		C207.69368,270.66461,202.51759,282.74091,192.16615,289.64233z M309.48239,258.58774
		c1.72537-5.17548,4.31311-10.35155,7.76331-15.52699c9.48907-14.66463,25.01614-25.01614,43.13086-25.01614
		c13.80219-1.72484,28.46677,5.17607,33.64224,18.97769c5.17554,13.80215,0,27.6039-8.62616,37.9554
		c-11.2139,11.2139-27.60388,19.84009-43.99323,19.84009c-7.76382-0.86237-14.66461-1.72534-20.70306-5.17545
		C310.34479,282.74091,304.30634,270.66461,309.48239,258.58774z M274.11472,360.37646l-16.38943,32.77985
		c-0.86292,0.86246-1.72528,1.72485-2.58766,1.72485c0,0.86298-0.8629,0-1.72536-1.72485c0,0-12.07687-24.15369-16.38998-32.77985
		c-1.72536-4.31308,0-8.62616,2.58772-11.2139c16.38988-15.52701,16.38988-15.52701,31.91698,0
		C273.25235,350.88794,275.84009,356.06339,274.11472,360.37646z"/>
</g>
<g id="Foundation">
</g>
</svg>
