<?xml version="1.0" encoding="utf-8"?>
<svg version="1.1" id="Ebene_1" xmlns="http://www.w3.org/2000/svg" xmlns:xlink="http://www.w3.org/1999/xlink" x="0px" y="0px"
	 viewBox="0 0 512 512" style="enable-background:new 0 0 512 512;" xml:space="preserve">
<style type="text/css">
	.st0{fill-rule:evenodd;clip-rule:evenodd;fill:#E2E2E2;}
	.st1{fill-rule:evenodd;clip-rule:evenodd;fill:#FFFFFF;}
</style>
<g id="Placeholder">
	<path id="head" class="st0" d="M256,17.1C124,17.1,17.1,124,17.1,256S124,494.9,256,494.9S494.9,388,494.9,256S388,17.1,256,17.1z"
		/>
	<path id="face" class="st1" d="M447.5,256c0-52.6-43.1-95.8-95.8-95.8c-52.6,0-95.8,43.1-95.8,95.8c0,0.2,0,0.4,0,0.6
		c-0.3-0.5-0.6-1-0.9-1.5c0-52.6-43.1-95.8-95.8-95.8c-50.9,0.9-93.2,42.3-94,94c0,0.9,0,1.7,0,2.6s0,1.7,0,2.6
		C66.2,363,151.6,446.6,256,446.6c99,0,180.9-76.1,189.8-173C446.9,267.9,447.5,262,447.5,256z M192.2,289.6
		c-6,2.6-12.9,4.3-19.8,4.3c-17.3,0-33.6-8.6-44.9-19c-8.6-10.4-13.8-24.2-8.6-38c5.2-13.8,19.8-20.7,33.6-19
		c18.1,0,33.6,10.4,43.1,25c3.5,5.2,6,10.4,7.8,15.5C207.7,270.7,202.5,282.7,192.2,289.6z M309.5,258.6c1.7-5.2,4.3-10.4,7.8-15.5
		c9.5-14.7,25-25,43.1-25c13.8-1.7,28.5,5.2,33.6,19c5.2,13.8,0,27.6-8.6,38c-11.2,11.2-27.6,19.8-44,19.8
		c-7.8-0.9-14.7-1.7-20.7-5.2C310.3,282.7,304.3,270.7,309.5,258.6z M274.1,360.4l-16.4,32.8c-0.9,0.9-1.7,1.7-2.6,1.7
		c0,0.9-0.9,0-1.7-1.7c0,0-12.1-24.2-16.4-32.8c-1.7-4.3,0-8.6,2.6-11.2c16.4-15.5,16.4-15.5,31.9,0
		C273.3,350.9,275.8,356.1,274.1,360.4z"/>
</g>
</svg>
