<?xml version="1.0" encoding="utf-8"?>
<!-- Generator: Adobe Illustrator 26.0.1, SVG Export Plug-In . SVG Version: 6.00 Build 0)  -->
<svg version="1.1" xmlns="http://www.w3.org/2000/svg" xmlns:xlink="http://www.w3.org/1999/xlink" x="0px" y="0px"
	 viewBox="0 0 512 512" style="enable-background:new 0 0 512 512;" xml:space="preserve">
<style type="text/css">
	.st0{fill:url(#bg_00000176022693432102735890000016509881695836930749_);}
	.st1{fill:#FFFFFF;}
	.st2{fill-rule:evenodd;clip-rule:evenodd;fill:#FFFFFF;}
	.st3{opacity:0.1;}
	.st4{fill:url(#bg_00000014625546570218530400000004618843612573555891_);}
	.st5{fill:url(#bg_00000012439109179444834250000011875690947068283070_);}
	.st6{fill:#FCFCFC;}
	.st7{fill:url(#bg_00000083048263977359030240000003794227968983178900_);}
	.st8{fill:url(#bg_00000095297359382685569830000008062579165351062716_);}
	.st9{fill-rule:evenodd;clip-rule:evenodd;fill:#FCCDD3;}
	.st10{filter:url(#Adobe_OpacityMaskFilter);}
	.st11{mask:url(#mask-2_00000079477019141398897970000007225647416667991979_);fill-rule:evenodd;clip-rule:evenodd;fill:#6534FF;}
	.st12{fill-rule:evenodd;clip-rule:evenodd;fill:#FEFEFE;}
	.st13{fill-rule:evenodd;clip-rule:evenodd;fill:#6534FF;}
	.st14{fill:#8526D1;}
	.st15{fill:#D89738;}
	.st16{fill:#5D1B8F;}
	.st17{fill:#F2A738;}
	.st18{fill-rule:evenodd;clip-rule:evenodd;fill:#F9F9F9;}
	.st19{fill-rule:evenodd;clip-rule:evenodd;fill:#040404;}
	.st20{fill:#FEFEFE;}
	.st21{fill:#F0E20A;}
	.st22{fill:#EFE20A;}
	.st23{fill:#A1DE44;}
	.st24{fill:#FCA433;}
	.st25{fill:#FCAC68;}
	.st26{fill:#F74D7B;}
	.st27{fill:#9FDD46;}
	.st28{fill:#67D1BB;}
	.st29{fill:#FAAC8C;}
	.st30{fill:#FDE723;}
	.st31{fill:#FBAB4C;}
	.st32{fill:#FEF532;}
	.st33{fill:#EDE622;}
	.st34{fill:#5BD0DD;}
	.st35{fill:#B96CAE;}
	.st36{fill:#FBB32B;}
	.st37{fill:#FA9262;}
	.st38{fill:#D5709D;}
	.st39{fill:#9763B8;}
	.st40{fill:#FBDD0F;}
	.st41{fill:#D0EC26;}
	.st42{fill:#FCA036;}
	.st43{fill:#FACF2B;}
	.st44{fill:#D4E52B;}
	.st45{fill:#FCD713;}
	.st46{fill:#FDB83D;}
	.st47{fill:#E9E227;}
	.st48{fill:#CB7896;}
	.st49{fill:#FCD415;}
	.st50{fill:#C1E72E;}
	.st51{fill:#B6DF3A;}
	.st52{fill:#C8DE37;}
	.st53{fill:#C277B4;}
	.st54{fill:#ACE339;}
	.st55{fill:#E79762;}
	.st56{fill:#E77982;}
	.st57{fill:#FCFA68;}
	.st58{fill:#F6C82A;}
	.st59{fill:#B46CB1;}
	.st60{fill:#E1CE32;}
	.st61{fill:#F2C02E;}
	.st62{fill:#F8DB26;}
	.st63{fill:#C97B9F;}
	.st64{fill:#E6F40D;}
	.st65{fill:#D8DC35;}
	.st66{fill:#FDB73F;}
	.st67{fill:#FB7759;}
	.st68{fill:#EDDA2D;}
	.st69{fill:#DA8878;}
	.st70{fill:#EABC6F;}
	.st71{fill:#FDFDC8;}
	.st72{fill:#E8B380;}
	.st73{fill:#D8DB09;}
	.st74{fill:#E4D52E;}
	.st75{fill:#FCC91B;}
	.st76{fill:#FEFB8B;}
	.st77{fill:#F9D515;}
	.st78{fill:#DEE528;}
	.st79{fill:#FBC82E;}
	.st80{fill:#C25CA6;}
	.st81{fill:#FBC331;}
	.st82{fill:#FBB53E;}
	.st83{fill:#FC8E47;}
	.st84{fill:#9D63B7;}
	.st85{fill:#86C591;}
	.st86{fill:#78DEA5;}
	.st87{fill:#FBFCA1;}
	.st88{fill:#D87F7F;}
	.st89{fill:#FDF747;}
	.st90{fill:#E2CD31;}
	.st91{fill:#91E38C;}
	.st92{fill:#C5DD36;}
	.st93{fill:#FBB342;}
	.st94{fill:#D2BC7F;}
	.st95{fill:#65D6CC;}
	.st96{fill:#D5D809;}
	.st97{fill:#AEC383;}
	.st98{fill:#FBBB23;}
	.st99{fill:#F9DA24;}
	.st100{fill:#F9AC4C;}
	.st101{fill:#FBBF59;}
	.st102{fill:#E68B69;}
	.st103{fill:#F3A451;}
	.st104{fill:#FBF00E;}
	.st105{fill:#C9F5A2;}
	.st106{fill:#F9B229;}
	.st107{fill:#E9C745;}
	.st108{fill:#A2A2A2;}
	.st109{fill:#FDF10E;}
	.st110{fill:#F0FC0D;}
	.st111{fill:#010100;}
	.st112{fill:#FC8355;}
	.st113{fill:#FC8D48;}
	.st114{fill:#FCBB23;}
	.st115{fill:#FB9854;}
	.st116{fill:#FA6886;}
	.st117{fill:#FB6D6E;}
	.st118{fill:#E95790;}
	.st119{fill:#FB5D67;}
	.st120{fill:#6FCDA1;}
	.st121{fill:#79D278;}
	.st122{fill:#020101;}
	.st123{fill:#FAFD23;}
	.st124{fill:#E2FE38;}
	.st125{fill:#141304;}
	.st126{fill:#CB5DA2;}
	.st127{fill:#B063B1;}
	.st128{fill:#FC8D76;}
	.st129{fill:#E96F92;}
	.st130{fill:#FC8353;}
	.st131{fill:#FC8B4B;}
	.st132{fill:#FB7A86;}
	.st133{fill:#E3FD7C;}
	.st134{fill:#D8BF73;}
	.st135{fill:#DECA58;}
	.st136{fill:#B6EB2D;}
	.st137{fill:#C0D847;}
	.st138{fill:#A2E749;}
	.st139{fill:#BAF35A;}
	.st140{fill:#B6F180;}
	.st141{fill:#D8FB1A;}
	.st142{fill:#D6FA18;}
	.st143{fill:#FB736E;}
	.st144{fill:#96DE4B;}
	.st145{fill:#75CF83;}
	.st146{fill:#A2C87B;}
	.st147{fill:#8EDD54;}
	.st148{fill:#BDEF28;}
	.st149{fill:#B8EE29;}
</style>
<g id="MIVA:SYMM">
</g>
<g id="MIVA-FRACTION">
</g>
<g id="FRACTION-MIVA">
</g>
<g id="MIVA-HNY">
</g>
<g id="MIVA-WXDAI">
</g>
<g id="zeroalpha">
</g>
<g id="POAP">
	<g id="Logo_00000024706310421488277300000011416061663351323030_" transform="translate(24.000000, 24.000000)">
		<path id="Fill-1" class="st9" d="M321.63278,334.18491c5.52454,13.0415,11.05853,26.07861,16.56998,39.12595
			c6.26556,14.83505,12.44382,29.70798,18.80115,44.50439c2.19119,5.10019,2.59229,9.99127-1.30234,14.24789
			c-3.78903,4.14148-8.60526,4.31558-13.7236,2.50891c-12.21014-4.31125-24.49094-8.42358-36.66833-12.8266
			c-2.98685-1.07962-4.2142-0.29794-5.46997,2.44559c-5.60022,12.22849-11.37592,24.37683-17.17703,36.51205
			c-2.31567,4.84305-6.38211,6.65552-11.63657,6.26724c-4.66696-0.34387-7.54462-2.96567-9.26263-7.05402
			c-9.05296-21.54517-18.06664-43.10712-27.10506-64.65814c-0.4164-0.99442-0.94054-1.9436-1.68379-3.46545
			c-3.10913,7.33228-6.04356,14.17355-8.91611,21.04181c-6.54077,15.63782-13.0284,31.29752-19.5881,46.92667
			c-1.96187,4.67468-5.37239,7.19601-10.66179,7.24774c-5.31851,0.05249-8.54922-2.52863-10.71347-7.13266
			c-5.72253-12.17386-11.5863-24.28143-17.28336-36.46692c-1.05264-2.25253-2.12712-2.59637-4.48718-1.75934
			c-12.88718,4.57495-25.83841,8.97141-38.79183,13.3555c-4.52503,1.53198-8.85715,0.72995-12.02162-2.79379
			c-3.16811-3.52884-4.08534-7.78613-2.098-12.50241c10.5788-25.10535,21.0666-50.24927,31.60608-75.37137
			c0.51321-1.22314,1.21863-2.36618,1.83376-3.54559c1.61754,0.67529,3.13243,1.49634,4.16832,2.98608
			c-5.21222,12.64084-10.38951,25.2962-15.64761,37.91736c-5.40295,12.96719-10.89983,25.89505-16.32172,38.85349
			c-1.18222,2.82584-1.58479,5.71793,0.81823,8.13654c2.21448,2.22772,4.77254,1.55896,7.41288,0.63452
			c13.47755-4.72354,27.01845-9.26865,40.45959-14.09198c3.43382-1.23187,5.10887-0.58862,6.65871,2.81198
			c5.97951,13.12234,12.26694,26.10339,18.42334,39.1456c1.21716,2.57666,2.94099,4.58298,5.99118,4.53854
			c2.86673-0.04083,4.64223-1.88464,5.69485-4.39868c9.63173-23.00946,19.15642-46.06482,28.94829-69.0058
			c1.52582-3.5769,1.27031-6.33279-0.86264-9.29559c-0.98857,0.59155-1.15091,1.44604-1.47195,2.20953
			c-9.52832,22.66052-19.05522,45.32248-28.60103,67.97644c-0.6348,1.5058-0.82843,3.64029-2.97301,3.68399
			c-2.2749,0.04736-2.68256-2.16364-3.47021-3.72986c-6.54077-13.0036-13.11285-25.99194-19.50803-39.06693
			c-1.14436-2.33994-2.23122-2.88849-4.69902-2.02524c-7.07947,2.47543-14.24265,4.71408-21.38254,7.01468
			c-7.25563,2.33774-14.52728,4.62521-21.78072,6.97021c-1.21061,0.3912-2.37972,0.73944-3.35374-0.35257
			c-0.83935-0.94122-0.5882-2.01648-0.14851-3.07425c0.37199-0.89459,0.67992-1.81543,1.05409-2.70929
			c9.78458-23.34091,19.57427-46.68039,29.3625-70.02057c8.17723,2.15268,16.55539,1.93488,24.82727,1.42053
			c10.93622-0.67969,20.27238,2.80472,29.16156,8.75433c7.20905,4.8248,14.6292,9.48132,23.78484,9.67218
			c12.60982,30.15817,25.23782,60.30835,37.8018,90.48618c1.18729,2.85208,2.57263,5.3916,5.99188,5.4834
			c3.41489,0.09253,5.04553-2.35745,6.34857-5.13226c5.81863-12.39456,11.59943-24.80664,17.5527-37.13568
			c2.77866-5.7551,1.40936-6.12299,8.84262-3.56088c13.04147,4.49701,26.09247,8.96704,39.10556,13.54489
			c2.86163,1.00677,5.42264,1.21368,7.63052-1.19107c2.23706-2.4361,1.59863-4.99164,0.44263-7.73663
			c-11.46619-27.22525-22.86832-54.47745-34.28864-81.72238C318.9939,337.16666,319.94174,335.36725,321.63278,334.18491"/>
		<g id="Group-5" transform="translate(0.000000, 0.057216)">
			<defs>
				
					<filter id="Adobe_OpacityMaskFilter" filterUnits="userSpaceOnUse" x="64.4296" y="36.23595" width="329.14081" height="329.56497">
					<feColorMatrix  type="matrix" values="1 0 0 0 0  0 1 0 0 0  0 0 1 0 0  0 0 0 1 0"/>
				</filter>
			</defs>
			
				<mask maskUnits="userSpaceOnUse" x="64.4296" y="36.23595" width="329.14081" height="329.56497" id="mask-2_00000079477019141398897970000007225647416667991979_">
				<g class="st10">
					<polygon id="path-1_00000173123872178147382490000011629208667845297805_" class="st2" points="64.4298,36.23609 
						393.57001,36.23609 393.57001,365.80093 64.4298,365.80093 					"/>
				</g>
			</mask>
			<path id="Fill-3" class="st11" d="M174.81371,61.10343c-5.88925,0-9.89961-0.16245-13.89177,0.03497
				c-7.26509,0.35987-13.32104,3.06987-17.65172,9.26643c-3.3501,4.79349-6.12073,9.90314-8.74869,15.0871
				c-4.71867,9.31015-11.66055,16.26289-20.98142,20.94928c-4.11009,2.06674-8.06586,4.4409-12.07113,6.71234
				c-8.37743,4.74978-12.3099,12.02743-12.22691,21.59255c0.05314,6.19073,0.00072,12.3822,0.09682,18.57149
				c0.10701,6.85658-1.64447,13.18864-5.11614,19.05957c-2.77646,4.69514-5.54637,9.39684-8.42474,14.03006
				c-5.94894,9.57605-6.24959,19.11858-0.08736,28.72231c1.43992,2.24303,2.60248,4.67621,4.15523,6.83255
				c7.31242,10.15811,10.57442,21.38272,9.50286,33.91064c-0.3305,3.85808-0.14487,7.765-0.11137,11.64787
				c0.06988,8.28006,2.9286,15.17816,10.1311,19.79099c2.75171,1.76297,5.47794,3.65775,8.44367,4.97998
				c13.28901,5.92194,23.24612,15.12717,29.17396,28.56714c1.21715,2.76025,2.8922,5.32239,4.40564,7.94785
				c4.74269,8.22617,11.99905,12.01871,21.36288,12.01505c6.42865-0.00217,12.85805-0.01749,19.28671-0.08084
				c6.8589-0.06705,13.13905,1.89627,18.99263,5.34351c4.69974,2.76752,9.39366,5.54892,14.0228,8.43158
				c9.24588,5.758,18.45612,5.83087,27.72093,0.07574c3.50079-2.17383,7.11076-4.17572,10.55914-6.42822
				c7.93993-5.18466,16.47896-7.99448,26.08009-7.46341c5.20132,0.28702,10.42883,0.10855,15.64468,0.12457
				c9.51016,0.02768,16.86624-3.79034,21.6235-12.19571c2.26907-4.00888,4.64954-7.9639,6.71332-12.0777
				c4.67789-9.32327,11.53387-16.35541,20.89844-21.0163c4.22656-2.10388,8.32062-4.49115,12.37833-6.91122
				c6.58588-3.92511,11.00464-9.34732,11.75809-17.32648c0.69885-7.39713,0.21475-14.79352,0.19366-22.187
				c-0.02115-7.49911,1.84973-14.36664,5.7225-20.74458c2.83182-4.6631,5.59952-9.36479,8.41385-14.03807
				c5.21222-8.65524,5.47357-17.38843,0.36469-26.16823c-2.25595-3.87703-4.52722-7.75043-6.96078-11.51602
				c-5.21371-8.06224-8.10736-16.70071-7.54391-26.44504c0.30865-5.32384,0.18564-10.67972,0.11139-16.01884
				c-0.11359-8.11542-2.92426-14.87-9.94766-19.53674c-4.75723-3.16239-9.75763-5.87894-14.82648-8.46947
				c-8.93723-4.56911-15.64252-11.28801-20.23819-20.21569c-2.27414-4.41613-4.74561-8.7361-7.25925-13.02255
				c-3.91135-6.67008-9.54874-10.91647-17.41586-11.63623c-3.01013-0.27537-6.05377-0.17338-9.08356-0.22729
				c-6.54224-0.11802-13.11649,0.54127-19.62375-0.34676c-8.04037-1.09711-14.93422-5.16065-21.25369-9.82738
				c-13.49794-9.9687-26.53508-10.10857-40.03447-0.04662C198.41435,58.79411,186.51138,63.11626,174.81371,61.10343
				 M146.02121,343.72101c-1.0359-1.48975-2.5508-2.31079-4.16833-2.98535c-6.96227-8.19266-11.20193-18.07394-16.80873-27.10724
				c-3.51826-5.66843-8.92339-9.11273-14.619-12.21902c-5.52817-3.01523-11.22305-5.7522-16.28168-9.57605
				c-7.34954-5.55548-11.13351-12.97156-11.41741-22.13892c-0.13467-4.36514-0.34651-8.77106,0.06551-13.10196
				c1.09996-11.55609-2.07834-21.7601-8.65915-31.17078c-2.49037-3.56161-4.61311-7.42336-6.53204-11.33171
				c-4.34086-8.83882-4.14503-17.75703,0.09901-26.6301c2.41466-5.05063,5.4874-9.713,8.46915-14.41978
				c4.53595-7.15891,7.13697-14.75345,6.64413-23.36497c-0.29774-5.20436-0.07133-10.4364-0.1354-15.65532
				c-0.14559-11.76008,5.08557-20.46849,15.03759-26.43776c3.84293-2.30495,7.72736-4.57275,11.74791-6.53969
				c8.83022-4.31924,15.32368-10.79919,19.68638-19.64091c2.99557-6.07345,6.10617-12.11922,10.60063-17.32285
				c5.51506-6.38525,12.56833-9.28538,20.82637-9.52287c4.24112-0.12166,8.52592-0.38829,12.72556,0.04662
				c11.85056,1.22533,22.19931-2.30058,31.78297-9.00563c3.16447-2.21317,6.62523-4.03148,10.0583-5.82285
				c9.27794-4.8423,18.5777-4.59898,27.90074,0.02623c4.79439,2.37853,9.28302,5.26264,13.75854,8.14747
				c7.25638,4.6762,15.04123,7.07513,23.7193,6.69704c5.20642-0.22729,10.42813-0.07649,15.64255-0.12239
				c11.77554-0.10418,20.38156,5.28085,26.26938,15.26995c2.39935,4.07082,4.79507,8.15986,6.8909,12.39095
				c4.08679,8.25092,10.22647,14.29959,18.43646,18.40466c5.09067,2.54536,10.10709,5.25243,14.81046,8.49132
				c8.41528,5.7959,12.64841,13.82171,12.75613,24.02207c0.0415,4.00526,0.30356,8.04184-0.08228,12.01067
				c-1.13705,11.68066,2.06161,22.02235,8.76691,31.50151c2.09219,2.9577,3.82257,6.18857,5.55072,9.38519
				c5.75168,10.64183,5.17661,21.15982-0.85388,31.49277c-2.99484,5.13078-6.04355,10.22878-9.07993,15.33406
				c-3.05234,5.13297-4.44931,10.68701-4.38089,16.64972c0.07062,6.06836-0.00073,12.13963,0.10266,18.20723
				c0.2002,11.77029-5.00842,20.49692-14.90366,26.52008c-4.24185,2.58252-8.60675,4.97635-13.01309,7.26819
				c-7.17267,3.73062-13.06555,8.7164-16.85605,16.01083c-2.90387,5.58826-5.95404,11.10077-8.94162,16.64606
				c-1.6947,1.18234-2.64249,2.98175-3.81091,4.59827c-1.53818,0.86838-2.71094,2.14178-3.83783,3.46762
				c-6.49417,4.35931-13.74106,5.50015-21.39636,5.23569c-5.44153-0.18793-10.89398-0.0408-16.3421-0.05466
				c-3.78979-0.01089-7.44052,0.68991-10.9071,2.21317c-10.77608,4.73669-19.82323,12.82007-31.29596,16.21338
				c-1.87378-0.53473-3.76431-0.11804-5.64828-0.11075c-9.15562-0.19012-16.57578-4.84738-23.7841-9.67218
				c-8.88991-5.94962-18.22607-9.43402-29.16229-8.75433c-8.27188,0.51505-16.65004,0.73215-24.828-1.41983
				C149.23808,344.81158,147.76978,343.96286,146.02121,343.72101"/>
		</g>
		<path id="Fill-10" class="st12" d="M275.52707,235.30367c2.94754,0.08815,4.93201-2.35304,4.0708-5.37338
			c-5.245-18.3755-10.56497-36.72917-15.86966-55.08794c-0.8175-2.82802-2.97299-3.39987-5.44589-2.812
			c-2.02084,0.47935-2.55371,2.38728-3.07857,4.15971c-3.40178,11.4796-6.80722,22.95847-10.21701,34.43588
			c-1.86067,6.25995-3.80725,12.49512-5.56311,18.78348c-0.72359,2.59198-0.17253,5.0011,2.82742,5.74998
			c2.61412,0.65274,4.41365-0.39848,5.1176-3.21629c0.67337-2.69542,1.68816-5.30562,2.36588-8.00031
			c0.46809-1.85838,1.43265-2.52351,3.32899-2.47397c4.23604,0.11,8.47935,0.10782,12.71538,0.00145
			c1.99756-0.04953,3.09604,0.48082,3.51898,2.63933c0.51031,2.60001,1.41226,5.12788,2.21667,7.66376
			C272.13403,233.72356,273.11826,235.34737,275.52707,235.30367 M180.26988,203.75043
			c-0.28682,3.01231,0.58455,5.85927,1.99243,8.61879c2.69858,5.28815,5.38768,10.5843,7.94939,15.94019
			c2.0616,4.31194,5.18021,6.87042,10.10344,7.0387c5.18166,0.17775,8.35559-2.53662,10.4827-6.94255
			c2.79103-5.78204,5.6956-11.51091,8.4153-17.32576c2.34041-5.00328,2.32437-10.09181-0.10774-15.08855
			c-3.02252-6.2104-6.00717-12.44122-9.17819-18.57513c-3.79999-7.34903-14.35913-7.87791-18.48306-0.67604
			c-3.84438,6.71452-6.97826,13.8392-10.32181,20.83345C180.22838,199.44429,180.07552,201.54819,180.26988,203.75043
			 M298.16171,202.50543c0,9.22054,0.03568,18.4418-0.02109,27.66234c-0.01749,3.00359,1.04605,5.06377,4.26077,5.10239
			c3.66895,0.04297,4.22583-2.74425,4.28629-5.53728c0.11206-5.2153,0.12445-10.43642-0.00513-15.64951
			c-0.05533-2.22845,0.69302-2.95113,2.91113-2.90231c5.69562,0.12602,11.39777,0.1355,17.09335,0.01164
			c6.7803-0.14642,11.9299-5.2364,12.13736-12.03107c0.15506-5.09071,0.16525-10.19453-0.0036-15.28525
			c-0.22861-6.93088-5.5784-11.97861-12.49335-11.99756c-8.2442-0.0233-16.49063,0.09763-24.7319-0.06557
			c-2.65128-0.05318-3.55832,0.58353-3.50226,3.39478C298.27603,184.30402,298.16171,193.40581,298.16171,202.50543
			 M121.26608,202.61835c0,8.97795-0.0051,17.9559,0.00655,26.93459c0.00146,0.96599-0.1303,2.01428,0.19,2.88046
			c0.74689,2.0172,2.27126,3.06696,4.51848,2.86006c2.80486-0.25787,3.66895-2.32826,3.74684-4.5844
			c0.18491-5.33186,0.21985-10.67827,0.04295-16.01012c-0.08809-2.64662,0.57727-3.64975,3.40541-3.54048
			c5.56822,0.2171,11.1539,0.16464,16.72794,0.02843c6.59319-0.161,11.75737-5.18106,12.01143-11.77464
			c0.2002-5.20946,0.19437-10.43787,0.00365-15.64804c-0.25334-6.91341-5.62573-11.8708-12.60037-11.88683
			c-8.2442-0.01822-16.49132,0.12093-24.73117-0.07358c-2.82742-0.0663-3.42507,0.88075-3.38067,3.51643
			C121.35999,184.41693,121.26608,193.51872,121.26608,202.61835 M174.81378,61.16093
			c11.69768,2.01283,23.60065-2.30932,34.25804-10.25354c13.49869-10.06195,26.53654-9.92135,40.03448,0.04735
			c6.31947,4.666,13.21257,8.72954,21.25368,9.82738c6.50729,0.88731,13.08154,0.22875,19.62378,0.34604
			c3.02979,0.05464,6.07339-0.04735,9.08356,0.22802c7.8671,0.71975,13.50449,4.96614,17.41583,11.63623
			c2.51367,4.28645,4.98511,8.60569,7.25854,13.02254c4.59637,8.92769,11.30167,15.64658,20.23889,20.21497
			c5.06882,2.59126,10.06924,5.30781,14.82651,8.46947c7.02341,4.66746,9.83408,11.42205,9.9469,19.53674
			c0.07498,5.33986,0.19803,10.69501-0.11063,16.01958c-0.56345,9.74359,2.3302,18.38208,7.54315,26.44504
			c2.43433,3.76486,4.7056,7.63898,6.96155,11.51602c5.10812,8.7798,4.84753,17.51225-0.36472,26.1675
			c-2.81433,4.67328-5.58206,9.37498-8.41382,14.03807c-3.8728,6.37868-5.74365,13.2462-5.72256,20.74532
			c0.02115,7.39273,0.50522,14.78986-0.1936,22.18698c-0.75345,7.97919-5.17221,13.40063-11.75812,17.32651
			c-4.05768,2.41931-8.15176,4.80731-12.37833,6.91049c-9.36456,4.66162-16.22052,11.69376-20.89844,21.01703
			c-2.06378,4.11307-4.44424,8.06879-6.71402,12.07767c-4.75653,8.40463-12.11261,12.22266-21.62277,12.19498
			c-5.21585-0.01529-10.44339,0.16321-15.64471-0.12454c-9.60114-0.53036-18.14017,2.27872-26.08008,7.46341
			c-3.44838,2.2525-7.05836,4.25439-10.55914,6.42892c-9.26555,5.75439-18.47505,5.68228-27.72093-0.07648
			c-4.62914-2.88266-9.32306-5.6633-14.0228-8.43085c-5.85359-3.44724-12.13374-5.41125-18.99336-5.34351
			c-6.42793,0.06339-12.85733,0.07794-19.286,0.08014c-9.36382,0.00363-16.62018-3.78891-21.36287-12.01505
			c-1.51344-2.62476-3.18849-5.18686-4.40565-7.94714c-5.92783-13.43994-15.88493-22.6452-29.17395-28.56787
			c-2.96645-1.32147-5.69196-3.21701-8.44367-4.97998c-7.20249-4.61279-10.06121-11.51093-10.1311-19.79099
			c-0.03349-3.88287-0.21912-7.78906,0.11138-11.64713c1.07156-12.52792-2.19045-23.75255-9.50287-33.91066
			c-1.55275-2.15706-2.71531-4.58951-4.15522-6.83327c-6.16223-9.603-5.86231-19.14554,0.08735-28.72231
			c2.87838-4.63249,5.64828-9.3342,8.42475-14.02934c3.47166-5.87164,5.22315-12.2037,5.11614-19.05956
			c-0.09609-6.18929-0.04368-12.38075-0.09682-18.57149c-0.08298-9.56512,3.84949-16.84277,12.22691-21.59328
			c4.00526-2.27071,7.96103-4.6456,12.0704-6.71161c9.3216-4.6864,16.26348-11.63986,20.98215-20.94929
			c2.62796-5.18468,5.39859-10.29361,8.74869-15.08783c4.33067-6.19656,10.38589-8.90656,17.65099-9.26571
			C164.91417,60.99848,168.92453,61.16093,174.81378,61.16093"/>
		<path id="Fill-12" class="st9" d="M313.9877,342.25031c8.95978,21.44028,17.91888,42.87985,26.87866,64.32013
			c1.54037,3.68546,3.12518,7.35269,4.6022,11.0629c0.51758,1.29965,1.42242,2.73114,0.1951,4.08759
			c-1.25281,1.38486-2.68182,0.52817-4.04022,0.09106c-14.04608-4.51883-28.11911-8.95975-42.11572-13.62866
			c-2.78592-0.9303-3.9281-0.33292-5.1882,2.25397c-6.36896,13.07791-12.95486,26.0502-19.47891,39.0538
			c-0.69083,1.37613-1.13925,2.99411-3.21179,2.98172c-2.15622-0.01382-2.43066-1.79648-3.00211-3.15509
			c-11.30167-26.88724-22.56329-53.79269-33.81328-80.70251c-0.36545-0.87421-0.51613-1.83801-0.76654-2.75882
			c11.472-3.39185,20.51915-11.47522,31.29524-16.21188c3.46582-1.52255,7.11731-2.22336,10.9071-2.21317
			c5.44809,0.01456,10.90054-0.1326,16.34137,0.05466C300.24661,347.75113,307.49353,346.60959,313.9877,342.25031"/>
		<path id="Fill-14" class="st13" d="M129.47331,191.42017c0,3.0276,0.05678,6.05597-0.02184,9.08141
			c-0.04514,1.74838,0.37126,2.68521,2.40155,2.64879c5.68541-0.10054,11.37373-0.01967,17.06061-0.04443
			c3.10332-0.01384,4.74852-1.77826,4.85262-4.72429c0.15797-4.47513,0.18344-8.96411,0.00873-13.43706
			c-0.11792-3.05383-1.71144-4.91586-5.07828-4.87581c-5.44446,0.06483-10.89182,0.08961-16.33482-0.01602
			c-2.24796-0.04445-3.00577,0.8567-2.9155,3.01378C129.56212,185.84645,129.47404,188.63513,129.47331,191.42017
			 M121.26623,202.61856c0-9.10034,0.09318-18.20142-0.05897-27.29811c-0.04514-2.63568,0.55325-3.58345,3.38067-3.51643
			c8.23911,0.19452,16.48698,0.05464,24.73118,0.07358c6.97464,0.0153,12.34703,4.97343,12.59962,11.88683
			c0.19147,5.21017,0.19728,10.43858-0.00291,15.64804c-0.25406,6.5936-5.41824,11.61365-12.01216,11.77464
			c-5.57329,0.13623-11.15898,0.18867-16.72791-0.02841c-2.82742-0.11-3.49278,0.89386-3.40469,3.54047
			c0.1769,5.33113,0.14194,10.67827-0.04295,16.01012c-0.0779,2.25615-0.94199,4.32652-3.74685,4.5844
			c-2.24722,0.20618-3.77158-0.84358-4.51848-2.86078c-0.3203-0.86546-0.18927-1.91447-0.19073-2.87975
			C121.26113,220.57448,121.26623,211.59651,121.26623,202.61856"/>
		<path id="Fill-16" class="st13" d="M306.36969,191.56848c0,3.02762,0.07935,6.05742-0.02838,9.08067
			c-0.06918,1.9203,0.69882,2.52496,2.55588,2.49727c5.56458-0.08305,11.13132-0.03934,16.69736-0.02913
			c3.27655,0.00583,4.98581-1.75203,5.08191-4.88383c0.13614-4.47586,0.18344-8.96556-0.02039-13.43633
			c-0.13977-3.08736-1.88614-4.79202-5.21225-4.7352c-5.32214,0.09032-10.65012,0.11072-15.97079-0.0153
			c-2.3812-0.05682-3.26059,0.80644-3.13828,3.16821C306.47815,185.99258,306.36823,188.78345,306.36969,191.56848
			 M298.16187,202.50536c0-9.09961,0.11429-18.20142-0.06842-27.29738c-0.05606-2.81053,0.85098-3.44724,3.50153-3.39479
			c8.242,0.16319,16.4884,0.04227,24.73264,0.06557c6.91495,0.01895,12.26474,5.06668,12.49335,11.99756
			c0.16885,5.09071,0.15866,10.19453,0.0036,15.28525c-0.20746,6.79466-5.35709,11.88464-12.13736,12.03107
			c-5.69559,0.12386-11.39777,0.11438-17.09335-0.01164c-2.21811-0.04881-2.96646,0.67386-2.91113,2.90231
			c0.12885,5.21384,0.11719,10.4342,0.0051,15.64951c-0.06042,2.79303-0.61731,5.58026-4.28625,5.53728
			c-3.21472-0.03787-4.27826-2.0988-4.26077-5.10237C298.19681,220.94717,298.16187,211.72589,298.16187,202.50536"/>
		<path id="Fill-18" class="st13" d="M212.47705,203.65404c-0.23587-1.17725-0.24388-2.46376-0.74619-3.51352
			c-2.92786-6.11789-5.88414-12.2263-9.0173-18.24075c-1.3642-2.61893-3.51534-2.59343-4.8912,0.08014
			c-2.99266,5.81339-5.79752,11.7251-8.58199,17.64265c-1.43773,3.0553-1.05481,6.15067,0.40549,9.112
			c2.62505,5.32455,5.30177,10.62361,7.94865,15.93799c0.6064,1.21657,1.22008,2.51257,2.82088,2.44116
			c1.37584-0.06046,1.99388-1.18452,2.55443-2.3064c2.7648-5.52562,5.5602-11.03595,8.32428-16.56158
			C212.00822,206.81862,212.42535,205.30481,212.47705,203.65404 M180.26967,203.7502
			c-0.19365-2.20222-0.04077-4.30612,0.85316-6.1769c3.34282-6.99353,6.47745-14.11893,10.32109-20.83273
			c4.12393-7.20261,14.68307-6.67372,18.48305,0.67532c3.17102,6.13391,6.15569,12.36545,9.17821,18.57513
			c2.43211,4.99673,2.44887,10.08525,0.10773,15.08855c-2.71968,5.81483-5.62425,11.54372-8.41528,17.32576
			c-2.12711,4.40593-5.30032,7.1203-10.4827,6.94255c-4.92325-0.16829-8.04112-2.72676-10.10344-7.03798
			c-2.56097-5.35661-5.25009-10.65276-7.94939-15.9409C180.85422,209.60948,179.98357,206.76326,180.26967,203.7502"/>
		<path id="Fill-20" class="st13" d="M260.09268,192.46664c-0.31229,0.00728-0.6246,0.01384-0.93762,0.02112
			c-1.1145,3.78015-2.32147,7.53627-3.3166,11.34703c-0.81241,3.11284-3.86403,7.28711-1.74712,9.069
			c2.06598,1.73819,6.67691,0.42326,10.16968,0.49902c1.51855,0.03351,1.80899-0.47353,1.36349-1.94653
			C263.71652,205.14607,261.92642,198.79944,260.09268,192.46664 M275.52921,235.30133
			c-2.41031,0.0459-3.39523-1.57793-4.01474-3.52737c-0.80438-2.53661-1.70633-5.06448-2.21591-7.66447
			c-0.42368-2.15852-1.52219-2.68886-3.51898-2.63934c-4.23679,0.10637-8.4801,0.10855-12.71611-0.00072
			c-1.89635-0.04953-2.86092,0.61559-3.32899,2.47324c-0.67773,2.6947-1.69252,5.30489-2.36589,8.00031
			c-0.70395,2.81856-2.50346,3.86903-5.1176,3.21631c-2.99994-0.74815-3.55101-3.15729-2.82742-5.75
			c1.75659-6.28836,3.70244-12.52353,5.56313-18.78348c3.41051-11.47742,6.81522-22.95555,10.217-34.43588
			c0.52486-1.7717,1.05774-3.68034,3.07858-4.1597c2.47287-0.58716,4.62839-0.01602,5.44589,2.81198
			c5.30469,18.35878,10.62466,36.71243,15.86966,55.08795C280.45972,232.95047,278.47455,235.39166,275.52921,235.30133"/>
		<path id="Fill-22" class="st12" d="M129.47368,191.42017c0.00072-2.78503,0.08807-5.57372-0.02766-8.35364
			c-0.08954-2.15707,0.66826-3.05823,2.91623-3.01378c5.44299,0.10564,10.88963,0.08086,16.33409,0.01602
			c3.36757-0.04005,4.96036,1.82198,5.07901,4.87581c0.174,4.47295,0.14851,8.96193-0.00946,13.43706
			c-0.10336,2.94603-1.74858,4.71045-4.85188,4.72429c-5.68687,0.02477-11.37593-0.05611-17.06061,0.04443
			c-2.03102,0.03642-2.44742-0.90041-2.40228-2.64879C129.53046,197.47614,129.47368,194.44777,129.47368,191.42017"/>
		<path id="Fill-24" class="st12" d="M306.36896,191.56848c-0.00073-2.78503,0.10919-5.5759-0.03421-8.35364
			c-0.12231-2.36177,0.75708-3.22504,3.13828-3.16821c5.32068,0.12602,10.64865,0.10562,15.97079,0.0153
			c3.32538-0.05682,5.07248,1.64784,5.21225,4.7352c0.20383,4.47076,0.15652,8.96046,0.02039,13.43633
			c-0.0961,3.13181-1.80536,4.88966-5.08191,4.88383c-5.56604-0.01021-11.13278-0.05392-16.69736,0.02913
			c-1.85706,0.02769-2.62506-0.57697-2.55588-2.49727C306.44904,197.6259,306.36969,194.5961,306.36896,191.56848"/>
		<path id="Fill-26" class="st12" d="M212.47705,203.65404c-0.0517,1.65077-0.46883,3.16458-1.18295,4.59169
			c-2.76408,5.52563-5.55948,11.03596-8.32428,16.56158c-0.56055,1.12187-1.17859,2.24594-2.55443,2.3064
			c-1.6008,0.07141-2.21448-1.22459-2.82088-2.44116c-2.64688-5.31438-5.32361-10.61343-7.94865-15.93799
			c-1.4603-2.96133-1.84322-6.0567-0.40549-9.112c2.78447-5.91756,5.58932-11.82927,8.58199-17.64265
			c1.37587-2.67357,3.52701-2.69907,4.8912-0.08014c3.13316,6.01445,6.08945,12.12286,9.0173,18.24075
			C212.23317,201.19028,212.24118,202.47679,212.47705,203.65404"/>
		<path id="Fill-28" class="st12" d="M260.09268,192.46664c1.83374,6.33279,3.62384,12.67943,5.53183,18.98964
			c0.4455,1.47301,0.15506,1.98004-1.36349,1.94653c-3.49277-0.07576-8.1037,1.23917-10.16968-0.49902
			c-2.11691-1.78189,0.93471-5.95616,1.74712-9.069c0.99513-3.81076,2.2021-7.56688,3.3166-11.34703
			C259.46808,192.48048,259.7804,192.47392,260.09268,192.46664"/>
	</g>
</g>
<g id="pixeth">
</g>
<g id="xDaiTigers">
</g>
<g id="Fraction_Early">
</g>
<g id="CryptoStamp">
</g>
</svg>
