<?xml version="1.0" encoding="utf-8"?>
<!-- Generator: Adobe Illustrator 26.0.3, SVG Export Plug-In . SVG Version: 6.00 Build 0)  -->
<svg version="1.1" xmlns="http://www.w3.org/2000/svg" xmlns:xlink="http://www.w3.org/1999/xlink" x="0px" y="0px"
	 viewBox="0 0 512 512" style="enable-background:new 0 0 512 512;" xml:space="preserve">
<style type="text/css">
	.st0{fill:url(#bg_00000087385119075444373230000003484624175779281546_);}
	.st1{fill:#FFFFFF;}
	.st2{fill-rule:evenodd;clip-rule:evenodd;fill:#FFFFFF;}
	.st3{opacity:0.1;}
	.st4{fill:url(#bg_00000062185963676155602320000014295477539708963772_);}
	.st5{fill:url(#bg_00000048475736311380101740000011900680763253455510_);}
	.st6{fill:#FCFCFC;}
	.st7{fill:url(#bg_00000039100353668063356820000004780343645451635340_);}
	.st8{fill:url(#bg_00000148653171531898701730000012193119263150103210_);}
	.st9{fill-rule:evenodd;clip-rule:evenodd;fill:#FCCDD3;}
	.st10{filter:url(#Adobe_OpacityMaskFilter);}
	.st11{mask:url(#mask-2_00000079477019141398897970000007225647416667991979_);fill-rule:evenodd;clip-rule:evenodd;fill:#6534FF;}
	.st12{fill-rule:evenodd;clip-rule:evenodd;fill:#FEFEFE;}
	.st13{fill-rule:evenodd;clip-rule:evenodd;fill:#6534FF;}
	.st14{fill:#8526D1;}
	.st15{fill:#D89738;}
	.st16{fill:#5D1B8F;}
	.st17{fill:#F2A738;}
	.st18{fill-rule:evenodd;clip-rule:evenodd;fill:#F9F9F9;}
	.st19{fill-rule:evenodd;clip-rule:evenodd;fill:#040404;}
	.st20{fill:#FEFEFE;}
	.st21{fill:#F0E20A;}
	.st22{fill:#EFE20A;}
	.st23{fill:#A1DE44;}
	.st24{fill:#FCA433;}
	.st25{fill:#FCAC68;}
	.st26{fill:#F74D7B;}
	.st27{fill:#9FDD46;}
	.st28{fill:#67D1BB;}
	.st29{fill:#FAAC8C;}
	.st30{fill:#FDE723;}
	.st31{fill:#FBAB4C;}
	.st32{fill:#FEF532;}
	.st33{fill:#EDE622;}
	.st34{fill:#5BD0DD;}
	.st35{fill:#B96CAE;}
	.st36{fill:#FBB32B;}
	.st37{fill:#FA9262;}
	.st38{fill:#D5709D;}
	.st39{fill:#9763B8;}
	.st40{fill:#FBDD0F;}
	.st41{fill:#D0EC26;}
	.st42{fill:#FCA036;}
	.st43{fill:#FACF2B;}
	.st44{fill:#D4E52B;}
	.st45{fill:#FCD713;}
	.st46{fill:#FDB83D;}
	.st47{fill:#E9E227;}
	.st48{fill:#CB7896;}
	.st49{fill:#FCD415;}
	.st50{fill:#C1E72E;}
	.st51{fill:#B6DF3A;}
	.st52{fill:#C8DE37;}
	.st53{fill:#C277B4;}
	.st54{fill:#ACE339;}
	.st55{fill:#E79762;}
	.st56{fill:#E77982;}
	.st57{fill:#FCFA68;}
	.st58{fill:#F6C82A;}
	.st59{fill:#B46CB1;}
	.st60{fill:#E1CE32;}
	.st61{fill:#F2C02E;}
	.st62{fill:#F8DB26;}
	.st63{fill:#C97B9F;}
	.st64{fill:#E6F40D;}
	.st65{fill:#D8DC35;}
	.st66{fill:#FDB73F;}
	.st67{fill:#FB7759;}
	.st68{fill:#EDDA2D;}
	.st69{fill:#DA8878;}
	.st70{fill:#EABC6F;}
	.st71{fill:#FDFDC8;}
	.st72{fill:#E8B380;}
	.st73{fill:#D8DB09;}
	.st74{fill:#E4D52E;}
	.st75{fill:#FCC91B;}
	.st76{fill:#FEFB8B;}
	.st77{fill:#F9D515;}
	.st78{fill:#DEE528;}
	.st79{fill:#FBC82E;}
	.st80{fill:#C25CA6;}
	.st81{fill:#FBC331;}
	.st82{fill:#FBB53E;}
	.st83{fill:#FC8E47;}
	.st84{fill:#9D63B7;}
	.st85{fill:#86C591;}
	.st86{fill:#78DEA5;}
	.st87{fill:#FBFCA1;}
	.st88{fill:#D87F7F;}
	.st89{fill:#FDF747;}
	.st90{fill:#E2CD31;}
	.st91{fill:#91E38C;}
	.st92{fill:#C5DD36;}
	.st93{fill:#FBB342;}
	.st94{fill:#D2BC7F;}
	.st95{fill:#65D6CC;}
	.st96{fill:#D5D809;}
	.st97{fill:#AEC383;}
	.st98{fill:#FBBB23;}
	.st99{fill:#F9DA24;}
	.st100{fill:#F9AC4C;}
	.st101{fill:#FBBF59;}
	.st102{fill:#E68B69;}
	.st103{fill:#F3A451;}
	.st104{fill:#FBF00E;}
	.st105{fill:#C9F5A2;}
	.st106{fill:#F9B229;}
	.st107{fill:#E9C745;}
	.st108{fill:#A2A2A2;}
	.st109{fill:#FDF10E;}
	.st110{fill:#F0FC0D;}
	.st111{fill:#010100;}
	.st112{fill:#FC8355;}
	.st113{fill:#FC8D48;}
	.st114{fill:#FCBB23;}
	.st115{fill:#FB9854;}
	.st116{fill:#FA6886;}
	.st117{fill:#FB6D6E;}
	.st118{fill:#E95790;}
	.st119{fill:#FB5D67;}
	.st120{fill:#6FCDA1;}
	.st121{fill:#79D278;}
	.st122{fill:#020101;}
	.st123{fill:#FAFD23;}
	.st124{fill:#E2FE38;}
	.st125{fill:#141304;}
	.st126{fill:#CB5DA2;}
	.st127{fill:#B063B1;}
	.st128{fill:#FC8D76;}
	.st129{fill:#E96F92;}
	.st130{fill:#FC8353;}
	.st131{fill:#FC8B4B;}
	.st132{fill:#FB7A86;}
	.st133{fill:#E3FD7C;}
	.st134{fill:#D8BF73;}
	.st135{fill:#DECA58;}
	.st136{fill:#B6EB2D;}
	.st137{fill:#C0D847;}
	.st138{fill:#A2E749;}
	.st139{fill:#BAF35A;}
	.st140{fill:#B6F180;}
	.st141{fill:#D8FB1A;}
	.st142{fill:#D6FA18;}
	.st143{fill:#FB736E;}
	.st144{fill:#96DE4B;}
	.st145{fill:#75CF83;}
	.st146{fill:#A2C87B;}
	.st147{fill:#8EDD54;}
	.st148{fill:#BDEF28;}
	.st149{fill:#B8EE29;}
	.st150{fill:#0097A7;}
	.st151{fill:#FEB800;}
	.st152{fill:#FBE000;}
	.st153{fill:#EF3A17;}
	.st154{fill:#0146FD;}
	.st155{fill:#17C50C;}
	.st156{fill:#FEFDFC;}
	.st157{fill:#2081E2;}
	.st158{fill-rule:evenodd;clip-rule:evenodd;fill:#E2E2E2;}
	.st159{fill:#B3788F;}
	.st160{fill:#ECBB2B;}
	.st161{fill:#5B4E29;}
	.st162{fill:#766329;}
	.st163{fill:#C8A02A;}
	.st164{fill:#786429;}
	.st165{fill:#7B6629;}
	.st166{fill:#CCA32A;}
	.st167{fill:#796529;}
	.st168{fill:#AD8C29;}
	.st169{fill:#8D7429;}
	.st170{fill:#B18E2A;}
	.st171{fill:#A08229;}
	.st172{fill:#A48529;}
	.st173{fill:#8E7429;}
	.st174{fill:#8C7329;}
	.st175{fill:#BA962A;}
	.st176{fill:#D0A62B;}
	.st177{fill:#CBA22A;}
	.st178{fill:#CEA42A;}
	.st179{fill:#967A29;}
	.st180{fill:#CDA42A;}
	.st181{fill:#D3A82B;}
	.st182{fill:#B08E29;}
	.st183{fill:#C79F2A;}
	.st184{fill:#B9942A;}
	.st185{fill:#D2A72B;}
	.st186{fill:#907629;}
	.st187{fill:#A28329;}
	.st188{fill:#957A29;}
	.st189{fill:#B29029;}
	.st190{fill:#CAA22A;}
	.st191{fill:#F1EDBA;}
	.st192{fill:#FDFDFD;}
	.st193{fill:#776329;}
	.st194{fill:#947929;}
	.st195{fill:#AA8A29;}
	.st196{fill:#7A6529;}
</style>
<g id="MIVA:SYMM">
</g>
<g id="MIVA-FRACTION">
</g>
<g id="FRACTION-MIVA">
</g>
<g id="MIVA-HNY">
</g>
<g id="MIVA-WXDAI">
</g>
<g id="zeroalpha">
</g>
<g id="POAP">
	<g id="Logo_00000024706310421488277300000011416061663351323030_" transform="translate(24.000000, 24.000000)">
		<path id="Fill-1" class="st9" d="M321.633,334.185c5.525,13.042,11.059,26.079,16.57,39.126
			c6.266,14.835,12.444,29.708,18.801,44.504c2.191,5.1,2.592,9.991-1.302,14.248c-3.789,4.141-8.605,4.316-13.724,2.509
			c-12.21-4.311-24.491-8.424-36.668-12.827c-2.987-1.08-4.214-0.298-5.47,2.446c-5.6,12.228-11.376,24.377-17.177,36.512
			c-2.316,4.843-6.382,6.656-11.637,6.267c-4.667-0.344-7.545-2.966-9.263-7.054c-9.053-21.545-18.067-43.107-27.105-64.658
			c-0.416-0.994-0.941-1.944-1.684-3.465c-3.109,7.332-6.044,14.174-8.916,21.042c-6.541,15.638-13.028,31.298-19.588,46.927
			c-1.962,4.675-5.372,7.196-10.662,7.248c-5.319,0.052-8.549-2.529-10.713-7.133c-5.723-12.174-11.586-24.281-17.283-36.467
			c-1.053-2.253-2.127-2.596-4.487-1.759c-12.887,4.575-25.838,8.971-38.792,13.355c-4.525,1.532-8.857,0.73-12.022-2.794
			c-3.168-3.529-4.085-7.786-2.098-12.502c10.579-25.105,21.067-50.249,31.606-75.371c0.513-1.223,1.219-2.366,1.834-3.546
			c1.618,0.675,3.132,1.496,4.168,2.986c-5.212,12.641-10.39,25.296-15.648,37.917c-5.403,12.967-10.9,25.895-16.322,38.853
			c-1.182,2.826-1.585,5.718,0.818,8.137c2.214,2.228,4.773,1.559,7.413,0.635c13.478-4.724,27.018-9.269,40.46-14.092
			c3.434-1.232,5.109-0.589,6.659,2.812c5.98,13.122,12.267,26.103,18.423,39.146c1.217,2.577,2.941,4.583,5.991,4.539
			c2.867-0.041,4.642-1.885,5.695-4.399c9.632-23.009,19.156-46.065,28.948-69.006c1.526-3.577,1.27-6.333-0.863-9.296
			c-0.989,0.592-1.151,1.446-1.472,2.21c-9.528,22.661-19.055,45.322-28.601,67.976c-0.635,1.506-0.828,3.64-2.973,3.684
			c-2.275,0.047-2.683-2.164-3.47-3.73c-6.541-13.004-13.113-25.992-19.508-39.067c-1.144-2.34-2.231-2.888-4.699-2.025
			c-7.079,2.475-14.243,4.714-21.383,7.015c-7.256,2.338-14.527,4.625-21.781,6.97c-1.211,0.391-2.38,0.739-3.354-0.353
			c-0.839-0.941-0.588-2.016-0.149-3.074c0.372-0.895,0.68-1.815,1.054-2.709c9.785-23.341,19.574-46.68,29.362-70.021
			c8.177,2.153,16.555,1.935,24.827,1.421c10.936-0.68,20.272,2.805,29.162,8.754c7.209,4.825,14.629,9.481,23.785,9.672
			c12.61,30.158,25.238,60.308,37.802,90.486c1.187,2.852,2.573,5.392,5.992,5.483c3.415,0.093,5.046-2.357,6.349-5.132
			c5.819-12.395,11.599-24.807,17.553-37.136c2.779-5.755,1.409-6.123,8.843-3.561c13.041,4.497,26.092,8.967,39.106,13.545
			c2.862,1.007,5.423,1.214,7.631-1.191c2.237-2.436,1.599-4.992,0.443-7.737c-11.466-27.225-22.868-54.477-34.289-81.722
			C318.994,337.167,319.942,335.367,321.633,334.185"/>
		<g id="Group-5" transform="translate(0.000000, 0.057216)">
			<defs>
				<filter id="Adobe_OpacityMaskFilter" filterUnits="userSpaceOnUse" x="64.43" y="36.236" width="329.141" height="329.565">
					<feColorMatrix  type="matrix" values="1 0 0 0 0  0 1 0 0 0  0 0 1 0 0  0 0 0 1 0"/>
				</filter>
			</defs>
			
				<mask maskUnits="userSpaceOnUse" x="64.43" y="36.236" width="329.141" height="329.565" id="mask-2_00000079477019141398897970000007225647416667991979_">
				<g class="st10">
					<polygon id="path-1_00000173123872178147382490000011629208667845297805_" class="st2" points="64.43,36.236 393.57,36.236 
						393.57,365.801 64.43,365.801 					"/>
				</g>
			</mask>
			<path id="Fill-3" class="st11" d="M174.814,61.103c-5.889,0-9.9-0.162-13.892,0.035c-7.265,0.36-13.321,3.07-17.652,9.266
				c-3.35,4.793-6.121,9.903-8.749,15.087c-4.719,9.31-11.661,16.263-20.981,20.949c-4.11,2.067-8.066,4.441-12.071,6.712
				c-8.377,4.75-12.31,12.027-12.227,21.593c0.053,6.191,0.001,12.382,0.097,18.571c0.107,6.857-1.644,13.189-5.116,19.06
				c-2.776,4.695-5.546,9.397-8.425,14.03c-5.949,9.576-6.25,19.119-0.087,28.722c1.44,2.243,2.602,4.676,4.155,6.833
				c7.312,10.158,10.574,21.383,9.503,33.911c-0.33,3.858-0.145,7.765-0.111,11.648c0.07,8.28,2.929,15.178,10.131,19.791
				c2.752,1.763,5.478,3.658,8.444,4.98c13.289,5.922,23.246,15.127,29.174,28.567c1.217,2.76,2.892,5.322,4.406,7.948
				c4.743,8.226,11.999,12.019,21.363,12.015c6.429-0.002,12.858-0.017,19.287-0.081c6.859-0.067,13.139,1.896,18.993,5.344
				c4.7,2.768,9.394,5.549,14.023,8.432c9.246,5.758,18.456,5.831,27.721,0.076c3.501-2.174,7.111-4.176,10.559-6.428
				c7.94-5.185,16.479-7.994,26.08-7.463c5.201,0.287,10.429,0.109,15.645,0.125c9.51,0.028,16.866-3.79,21.624-12.196
				c2.269-4.009,4.65-7.964,6.713-12.078c4.678-9.323,11.534-16.355,20.898-21.016c4.227-2.104,8.321-4.491,12.378-6.911
				c6.586-3.925,11.005-9.347,11.758-17.326c0.699-7.397,0.215-14.794,0.194-22.187c-0.021-7.499,1.85-14.367,5.723-20.745
				c2.832-4.663,5.6-9.365,8.414-14.038c5.212-8.655,5.474-17.388,0.365-26.168c-2.256-3.877-4.527-7.75-6.961-11.516
				c-5.214-8.062-8.107-16.701-7.544-26.445c0.309-5.324,0.186-10.68,0.111-16.019c-0.114-8.115-2.924-14.87-9.948-19.537
				c-4.757-3.162-9.758-5.879-14.826-8.469c-8.937-4.569-15.643-11.288-20.238-20.216c-2.274-4.416-4.746-8.736-7.259-13.023
				c-3.911-6.67-9.549-10.916-17.416-11.636c-3.01-0.275-6.054-0.173-9.084-0.227c-6.542-0.118-13.116,0.541-19.624-0.347
				c-8.04-1.097-14.934-5.161-21.254-9.827c-13.498-9.969-26.535-10.109-40.034-0.047C198.414,58.794,186.511,63.116,174.814,61.103
				 M146.021,343.721c-1.036-1.49-2.551-2.311-4.168-2.985c-6.962-8.193-11.202-18.074-16.809-27.107
				c-3.518-5.668-8.923-9.113-14.619-12.219c-5.528-3.015-11.223-5.752-16.282-9.576c-7.35-5.555-11.134-12.972-11.417-22.139
				c-0.135-4.365-0.347-8.771,0.066-13.102c1.1-11.556-2.078-21.76-8.659-31.171c-2.49-3.562-4.613-7.423-6.532-11.332
				c-4.341-8.839-4.145-17.757,0.099-26.63c2.415-5.051,5.487-9.713,8.469-14.42c4.536-7.159,7.137-14.753,6.644-23.365
				c-0.298-5.204-0.071-10.436-0.135-15.655c-0.146-11.76,5.086-20.468,15.038-26.438c3.843-2.305,7.727-4.573,11.748-6.54
				c8.83-4.319,15.324-10.799,19.686-19.641c2.996-6.073,6.106-12.119,10.601-17.323c5.515-6.385,12.568-9.285,20.826-9.523
				c4.241-0.122,8.526-0.388,12.726,0.047c11.851,1.225,22.199-2.301,31.783-9.006c3.164-2.213,6.625-4.031,10.058-5.823
				c9.278-4.842,18.578-4.599,27.901,0.026c4.794,2.379,9.283,5.263,13.759,8.147c7.256,4.676,15.041,7.075,23.719,6.697
				c5.206-0.227,10.428-0.076,15.643-0.122c11.776-0.104,20.382,5.281,26.269,15.27c2.399,4.071,4.795,8.16,6.891,12.391
				c4.087,8.251,10.226,14.3,18.436,18.405c5.091,2.545,10.107,5.252,14.81,8.491c8.415,5.796,12.648,13.822,12.756,24.022
				c0.042,4.005,0.304,8.042-0.082,12.011c-1.137,11.681,2.062,22.022,8.767,31.502c2.092,2.958,3.823,6.189,5.551,9.385
				c5.752,10.642,5.177,21.16-0.854,31.493c-2.995,5.131-6.044,10.229-9.08,15.334c-3.052,5.133-4.449,10.687-4.381,16.65
				c0.071,6.068-0.001,12.14,0.103,18.207c0.2,11.77-5.008,20.497-14.904,26.52c-4.242,2.583-8.607,4.976-13.013,7.268
				c-7.173,3.731-13.066,8.716-16.856,16.011c-2.904,5.588-5.954,11.101-8.942,16.646c-1.695,1.182-2.642,2.982-3.811,4.598
				c-1.538,0.868-2.711,2.142-3.838,3.468c-6.494,4.359-13.741,5.5-21.396,5.236c-5.442-0.188-10.894-0.041-16.342-0.055
				c-3.79-0.011-7.441,0.69-10.907,2.213c-10.776,4.737-19.823,12.82-31.296,16.213c-1.874-0.535-3.764-0.118-5.648-0.111
				c-9.156-0.19-16.576-4.847-23.784-9.672c-8.89-5.95-18.226-9.434-29.162-8.754c-8.272,0.515-16.65,0.732-24.828-1.42
				C149.238,344.812,147.77,343.963,146.021,343.721"/>
		</g>
		<path id="Fill-10" class="st12" d="M275.527,235.304c2.948,0.088,4.932-2.353,4.071-5.373
			c-5.245-18.376-10.565-36.729-15.87-55.088c-0.818-2.828-2.973-3.4-5.446-2.812c-2.021,0.479-2.554,2.387-3.079,4.16
			c-3.402,11.48-6.807,22.958-10.217,34.436c-1.861,6.26-3.807,12.495-5.563,18.783c-0.724,2.592-0.173,5.001,2.827,5.75
			c2.614,0.653,4.414-0.398,5.118-3.216c0.673-2.695,1.688-5.306,2.366-8c0.468-1.858,1.433-2.524,3.329-2.474
			c4.236,0.11,8.479,0.108,12.715,0.001c1.998-0.05,3.096,0.481,3.519,2.639c0.51,2.6,1.412,5.128,2.217,7.664
			C272.134,233.724,273.118,235.347,275.527,235.304 M180.27,203.75c-0.287,3.012,0.585,5.859,1.992,8.619
			c2.699,5.288,5.388,10.584,7.949,15.94c2.062,4.312,5.18,6.87,10.103,7.039c5.182,0.178,8.356-2.537,10.483-6.943
			c2.791-5.782,5.696-11.511,8.415-17.326c2.34-5.003,2.324-10.092-0.108-15.089c-3.023-6.21-6.007-12.441-9.178-18.575
			c-3.8-7.349-14.359-7.878-18.483-0.676c-3.844,6.715-6.978,13.839-10.322,20.833C180.228,199.444,180.076,201.548,180.27,203.75
			 M298.162,202.505c0,9.221,0.036,18.442-0.021,27.662c-0.017,3.004,1.046,5.064,4.261,5.102c3.669,0.043,4.226-2.744,4.286-5.537
			c0.112-5.215,0.124-10.436-0.005-15.65c-0.055-2.228,0.693-2.951,2.911-2.902c5.696,0.126,11.398,0.135,17.093,0.012
			c6.78-0.146,11.93-5.236,12.137-12.031c0.155-5.091,0.165-10.195-0.004-15.285c-0.229-6.931-5.578-11.979-12.493-11.998
			c-8.244-0.023-16.491,0.098-24.732-0.066c-2.651-0.053-3.558,0.584-3.502,3.395C298.276,184.304,298.162,193.406,298.162,202.505
			 M121.266,202.618c0,8.978-0.005,17.956,0.007,26.935c0.001,0.966-0.13,2.014,0.19,2.88c0.747,2.017,2.271,3.067,4.518,2.86
			c2.805-0.258,3.669-2.328,3.747-4.584c0.185-5.332,0.22-10.678,0.043-16.01c-0.088-2.647,0.577-3.65,3.405-3.54
			c5.568,0.217,11.154,0.165,16.728,0.028c6.593-0.161,11.757-5.181,12.011-11.775c0.2-5.209,0.194-10.438,0.004-15.648
			c-0.253-6.913-5.626-11.871-12.6-11.887c-8.244-0.018-16.491,0.121-24.731-0.074c-2.827-0.066-3.425,0.881-3.381,3.516
			C121.36,184.417,121.266,193.519,121.266,202.618 M174.814,61.161c11.698,2.013,23.601-2.309,34.258-10.254
			c13.499-10.062,26.537-9.921,40.034,0.047c6.319,4.666,13.213,8.73,21.254,9.827c6.507,0.887,13.082,0.229,19.624,0.346
			c3.03,0.055,6.073-0.047,9.084,0.228c7.867,0.72,13.504,4.966,17.416,11.636c2.514,4.286,4.985,8.606,7.259,13.023
			c4.596,8.928,11.302,15.647,20.239,20.215c5.069,2.591,10.069,5.308,14.827,8.469c7.023,4.667,9.834,11.422,9.947,19.537
			c0.075,5.34,0.198,10.695-0.111,16.02c-0.563,9.744,2.33,18.382,7.543,26.445c2.434,3.765,4.706,7.639,6.962,11.516
			c5.108,8.78,4.848,17.512-0.365,26.167c-2.814,4.673-5.582,9.375-8.414,14.038c-3.873,6.379-5.744,13.246-5.723,20.745
			c0.021,7.393,0.505,14.79-0.194,22.187c-0.753,7.979-5.172,13.401-11.758,17.327c-4.058,2.419-8.152,4.807-12.378,6.91
			c-9.365,4.662-16.221,11.694-20.898,21.017c-2.064,4.113-4.444,8.069-6.714,12.078c-4.757,8.405-12.113,12.223-21.623,12.195
			c-5.216-0.015-10.443,0.163-15.645-0.125c-9.601-0.53-18.14,2.279-26.08,7.463c-3.448,2.253-7.058,4.254-10.559,6.429
			c-9.266,5.754-18.475,5.682-27.721-0.076c-4.629-2.883-9.323-5.663-14.023-8.431c-5.854-3.447-12.134-5.411-18.993-5.344
			c-6.428,0.063-12.857,0.078-19.286,0.08c-9.364,0.004-16.62-3.789-21.363-12.015c-1.513-2.625-3.188-5.187-4.406-7.947
			c-5.928-13.44-15.885-22.645-29.174-28.568c-2.966-1.321-5.692-3.217-8.444-4.98c-7.202-4.613-10.061-11.511-10.131-19.791
			c-0.033-3.883-0.219-7.789,0.111-11.647c1.072-12.528-2.19-23.753-9.503-33.911c-1.553-2.157-2.715-4.59-4.155-6.833
			c-6.162-9.603-5.862-19.146,0.087-28.722c2.878-4.632,5.648-9.334,8.425-14.029c3.472-5.872,5.223-12.204,5.116-19.06
			c-0.096-6.189-0.044-12.381-0.097-18.571c-0.083-9.565,3.849-16.843,12.227-21.593c4.005-2.271,7.961-4.646,12.07-6.712
			c9.322-4.686,16.263-11.64,20.982-20.949c2.628-5.185,5.399-10.294,8.749-15.088c4.331-6.197,10.386-8.907,17.651-9.266
			C164.914,60.998,168.925,61.161,174.814,61.161"/>
		<path id="Fill-12" class="st9" d="M313.988,342.25c8.96,21.44,17.919,42.88,26.879,64.32c1.54,3.685,3.125,7.353,4.602,11.063
			c0.518,1.3,1.422,2.731,0.195,4.088c-1.253,1.385-2.682,0.528-4.04,0.091c-14.046-4.519-28.119-8.96-42.116-13.629
			c-2.786-0.93-3.928-0.333-5.188,2.254c-6.369,13.078-12.955,26.05-19.479,39.054c-0.691,1.376-1.139,2.994-3.212,2.982
			c-2.156-0.014-2.431-1.796-3.002-3.155c-11.302-26.887-22.563-53.793-33.813-80.703c-0.365-0.874-0.516-1.838-0.767-2.759
			c11.472-3.392,20.519-11.475,31.295-16.212c3.466-1.523,7.117-2.223,10.907-2.213c5.448,0.015,10.901-0.133,16.341,0.055
			C300.247,347.751,307.494,346.61,313.988,342.25"/>
		<path id="Fill-14" class="st13" d="M129.473,191.42c0,3.028,0.057,6.056-0.022,9.081c-0.045,1.748,0.371,2.685,2.402,2.649
			c5.685-0.101,11.374-0.02,17.061-0.044c3.103-0.014,4.749-1.778,4.853-4.724c0.158-4.475,0.183-8.964,0.009-13.437
			c-0.118-3.054-1.711-4.916-5.078-4.876c-5.444,0.065-10.892,0.09-16.335-0.016c-2.248-0.044-3.006,0.857-2.915,3.014
			C129.562,185.846,129.474,188.635,129.473,191.42 M121.266,202.619c0-9.1,0.093-18.201-0.059-27.298
			c-0.045-2.636,0.553-3.583,3.381-3.516c8.239,0.195,16.487,0.055,24.731,0.074c6.975,0.015,12.347,4.973,12.6,11.887
			c0.191,5.21,0.197,10.439-0.003,15.648c-0.254,6.594-5.418,11.614-12.012,11.775c-5.573,0.136-11.159,0.189-16.728-0.028
			c-2.827-0.11-3.493,0.894-3.405,3.54c0.177,5.331,0.142,10.678-0.043,16.01c-0.078,2.256-0.942,4.327-3.747,4.584
			c-2.247,0.206-3.772-0.844-4.518-2.861c-0.32-0.865-0.189-1.914-0.191-2.88C121.261,220.574,121.266,211.597,121.266,202.619"/>
		<path id="Fill-16" class="st13" d="M306.37,191.568c0,3.028,0.079,6.057-0.028,9.081c-0.069,1.92,0.699,2.525,2.556,2.497
			c5.565-0.083,11.131-0.039,16.697-0.029c3.277,0.006,4.986-1.752,5.082-4.884c0.136-4.476,0.183-8.966-0.02-13.436
			c-0.14-3.087-1.886-4.792-5.212-4.735c-5.322,0.09-10.65,0.111-15.971-0.015c-2.381-0.057-3.261,0.806-3.138,3.168
			C306.478,185.993,306.368,188.783,306.37,191.568 M298.162,202.505c0-9.1,0.114-18.201-0.068-27.297
			c-0.056-2.811,0.851-3.447,3.502-3.395c8.242,0.163,16.488,0.042,24.733,0.066c6.915,0.019,12.265,5.067,12.493,11.998
			c0.169,5.091,0.159,10.195,0.004,15.285c-0.207,6.795-5.357,11.885-12.137,12.031c-5.696,0.124-11.398,0.114-17.093-0.012
			c-2.218-0.049-2.966,0.674-2.911,2.902c0.129,5.214,0.117,10.434,0.005,15.65c-0.06,2.793-0.617,5.58-4.286,5.537
			c-3.215-0.038-4.278-2.099-4.261-5.102C298.197,220.947,298.162,211.726,298.162,202.505"/>
		<path id="Fill-18" class="st13" d="M212.477,203.654c-0.236-1.177-0.244-2.464-0.746-3.514
			c-2.928-6.118-5.884-12.226-9.017-18.241c-1.364-2.619-3.515-2.593-4.891,0.08c-2.993,5.813-5.798,11.725-8.582,17.643
			c-1.438,3.055-1.055,6.151,0.405,9.112c2.625,5.325,5.302,10.624,7.949,15.938c0.606,1.217,1.22,2.513,2.821,2.441
			c1.376-0.06,1.994-1.185,2.554-2.306c2.765-5.526,5.56-11.036,8.324-16.562C212.008,206.819,212.425,205.305,212.477,203.654
			 M180.27,203.75c-0.194-2.202-0.041-4.306,0.853-6.177c3.343-6.994,6.477-14.119,10.321-20.833
			c4.124-7.203,14.683-6.674,18.483,0.675c3.171,6.134,6.156,12.365,9.178,18.575c2.432,4.997,2.449,10.085,0.108,15.089
			c-2.72,5.815-5.624,11.544-8.415,17.326c-2.127,4.406-5.3,7.12-10.483,6.943c-4.923-0.168-8.041-2.727-10.103-7.038
			c-2.561-5.357-5.25-10.653-7.949-15.941C180.854,209.609,179.984,206.763,180.27,203.75"/>
		<path id="Fill-20" class="st13" d="M260.093,192.467c-0.312,0.007-0.625,0.014-0.938,0.021c-1.115,3.78-2.321,7.536-3.317,11.347
			c-0.812,3.113-3.864,7.287-1.747,9.069c2.066,1.738,6.677,0.423,10.17,0.499c1.519,0.034,1.809-0.474,1.363-1.947
			C263.717,205.146,261.926,198.799,260.093,192.467 M275.529,235.301c-2.41,0.046-3.395-1.578-4.015-3.527
			c-0.804-2.537-1.706-5.064-2.216-7.664c-0.424-2.159-1.522-2.689-3.519-2.639c-4.237,0.106-8.48,0.109-12.716-0.001
			c-1.896-0.05-2.861,0.616-3.329,2.473c-0.678,2.695-1.693,5.305-2.366,8c-0.704,2.819-2.503,3.869-5.118,3.216
			c-3-0.748-3.551-3.157-2.827-5.75c1.757-6.288,3.702-12.524,5.563-18.783c3.411-11.477,6.815-22.956,10.217-34.436
			c0.525-1.772,1.058-3.68,3.079-4.16c2.473-0.587,4.628-0.016,5.446,2.812c5.305,18.359,10.625,36.712,15.87,55.088
			C280.46,232.95,278.475,235.392,275.529,235.301"/>
		<path id="Fill-22" class="st12" d="M129.474,191.42c0.001-2.785,0.088-5.574-0.028-8.354c-0.09-2.157,0.668-3.058,2.916-3.014
			c5.443,0.106,10.89,0.081,16.334,0.016c3.368-0.04,4.96,1.822,5.079,4.876c0.174,4.473,0.149,8.962-0.009,13.437
			c-0.103,2.946-1.749,4.71-4.852,4.724c-5.687,0.025-11.376-0.056-17.061,0.044c-2.031,0.036-2.447-0.9-2.402-2.649
			C129.53,197.476,129.474,194.448,129.474,191.42"/>
		<path id="Fill-24" class="st12" d="M306.369,191.568c-0.001-2.785,0.109-5.576-0.034-8.354c-0.122-2.362,0.757-3.225,3.138-3.168
			c5.321,0.126,10.649,0.106,15.971,0.015c3.325-0.057,5.072,1.648,5.212,4.735c0.204,4.471,0.157,8.96,0.02,13.436
			c-0.096,3.132-1.805,4.89-5.082,4.884c-5.566-0.01-11.133-0.054-16.697,0.029c-1.857,0.028-2.625-0.577-2.556-2.497
			C306.449,197.626,306.37,194.596,306.369,191.568"/>
		<path id="Fill-26" class="st12" d="M212.477,203.654c-0.052,1.651-0.469,3.165-1.183,4.592
			c-2.764,5.526-5.559,11.036-8.324,16.562c-0.561,1.122-1.179,2.246-2.554,2.306c-1.601,0.071-2.214-1.225-2.821-2.441
			c-2.647-5.314-5.324-10.613-7.949-15.938c-1.46-2.961-1.843-6.057-0.405-9.112c2.784-5.918,5.589-11.829,8.582-17.643
			c1.376-2.674,3.527-2.699,4.891-0.08c3.133,6.014,6.089,12.123,9.017,18.241C212.233,201.19,212.241,202.477,212.477,203.654"/>
		<path id="Fill-28" class="st12" d="M260.093,192.467c1.834,6.333,3.624,12.679,5.532,18.99c0.445,1.473,0.155,1.98-1.363,1.947
			c-3.493-0.076-8.104,1.239-10.17-0.499c-2.117-1.782,0.935-5.956,1.747-9.069c0.995-3.811,2.202-7.567,3.317-11.347
			C259.468,192.48,259.78,192.474,260.093,192.467"/>
	</g>
</g>
<g id="pixeth">
</g>
<g id="xDaiTigers">
</g>
<g id="Fraction_Early">
</g>
<g id="CryptoStamp">
</g>
<g id="Epor.io">
</g>
<g id="nifty-ink">
</g>
<g id="Opensea">
</g>
<g id="Placeholder">
</g>
<g id="Foundation">
</g>
<g id="cryptoWine">
</g>
<g id="NFTBeez_00000167391764337955545130000012586990163054116534_">
</g>
</svg>
