<?xml version="1.0" encoding="utf-8"?>
<svg version="1.1" id="Ebene_1" xmlns="http://www.w3.org/2000/svg" xmlns:xlink="http://www.w3.org/1999/xlink" x="0px" y="0px"
	 viewBox="0 0 512 512" style="enable-background:new 0 0 512 512;" xml:space="preserve">
<style type="text/css">
	.st0{fill-rule:evenodd;clip-rule:evenodd;fill:#FCCDD3;}
	.st1{fill-rule:evenodd;clip-rule:evenodd;fill:#6534FF;}
	.st2{fill-rule:evenodd;clip-rule:evenodd;fill:#FEFEFE;}
</style>
<g id="POAP">
	<g id="Logo_00000024706310421488277300000011416061663351323030_" transform="translate(24.000000, 24.000000)">
		<path id="Fill-1" class="st0" d="M321.6,334.2c5.5,13,11.1,26.1,16.6,39.1c6.3,14.8,12.4,29.7,18.8,44.5c2.2,5.1,2.6,10-1.3,14.2
			c-3.8,4.1-8.6,4.3-13.7,2.5c-12.2-4.3-24.5-8.4-36.7-12.8c-3-1.1-4.2-0.3-5.5,2.4c-5.6,12.2-11.4,24.4-17.2,36.5
			c-2.3,4.8-6.4,6.7-11.6,6.3c-4.7-0.3-7.5-3-9.3-7.1c-9.1-21.5-18.1-43.1-27.1-64.7c-0.4-1-0.9-1.9-1.7-3.5c-3.1,7.3-6,14.2-8.9,21
			c-6.5,15.6-13,31.3-19.6,46.9c-2,4.7-5.4,7.2-10.7,7.2c-5.3,0.1-8.5-2.5-10.7-7.1c-5.7-12.2-11.6-24.3-17.3-36.5
			c-1.1-2.3-2.1-2.6-4.5-1.8c-12.9,4.6-25.8,9-38.8,13.4c-4.5,1.5-8.9,0.7-12-2.8c-3.2-3.5-4.1-7.8-2.1-12.5
			c10.6-25.1,21.1-50.2,31.6-75.4c0.5-1.2,1.2-2.4,1.8-3.5c1.6,0.7,3.1,1.5,4.2,3c-5.2,12.6-10.4,25.3-15.6,37.9
			c-5.4,13-10.9,25.9-16.3,38.9c-1.2,2.8-1.6,5.7,0.8,8.1c2.2,2.2,4.8,1.6,7.4,0.6c13.5-4.7,27-9.3,40.5-14.1
			c3.4-1.2,5.1-0.6,6.7,2.8c6,13.1,12.3,26.1,18.4,39.1c1.2,2.6,2.9,4.6,6,4.5c2.9,0,4.6-1.9,5.7-4.4c9.6-23,19.2-46.1,28.9-69
			c1.5-3.6,1.3-6.3-0.9-9.3c-1,0.6-1.2,1.4-1.5,2.2c-9.5,22.7-19.1,45.3-28.6,68c-0.6,1.5-0.8,3.6-3,3.7c-2.3,0-2.7-2.2-3.5-3.7
			c-6.5-13-13.1-26-19.5-39.1c-1.1-2.3-2.2-2.9-4.7-2c-7.1,2.5-14.2,4.7-21.4,7c-7.3,2.3-14.5,4.6-21.8,7c-1.2,0.4-2.4,0.7-3.4-0.4
			c-0.8-0.9-0.6-2-0.1-3.1c0.4-0.9,0.7-1.8,1.1-2.7c9.8-23.3,19.6-46.7,29.4-70c8.2,2.2,16.6,1.9,24.8,1.4
			c10.9-0.7,20.3,2.8,29.2,8.8c7.2,4.8,14.6,9.5,23.8,9.7c12.6,30.2,25.2,60.3,37.8,90.5c1.2,2.9,2.6,5.4,6,5.5
			c3.4,0.1,5-2.4,6.3-5.1c5.8-12.4,11.6-24.8,17.6-37.1c2.8-5.8,1.4-6.1,8.8-3.6c13,4.5,26.1,9,39.1,13.5c2.9,1,5.4,1.2,7.6-1.2
			c2.2-2.4,1.6-5,0.4-7.7c-11.5-27.2-22.9-54.5-34.3-81.7C319,337.2,319.9,335.4,321.6,334.2"/>
		<g id="Group-5" transform="translate(0.000000, 0.057216)">
			<path id="Fill-3" class="st1" d="M174.8,61.1c-5.9,0-9.9-0.2-13.9,0c-7.3,0.4-13.3,3.1-17.7,9.3c-3.4,4.8-6.1,9.9-8.7,15.1
				c-4.7,9.3-11.7,16.3-21,20.9c-4.1,2.1-8.1,4.4-12.1,6.7c-8.4,4.8-12.3,12-12.2,21.6c0.1,6.2,0,12.4,0.1,18.6
				c0.1,6.9-1.6,13.2-5.1,19.1c-2.8,4.7-5.5,9.4-8.4,14c-5.9,9.6-6.2,19.1-0.1,28.7c1.4,2.2,2.6,4.7,4.2,6.8
				c7.3,10.2,10.6,21.4,9.5,33.9c-0.3,3.9-0.1,7.8-0.1,11.6c0.1,8.3,2.9,15.2,10.1,19.8c2.8,1.8,5.5,3.7,8.4,5
				c13.3,5.9,23.2,15.1,29.2,28.6c1.2,2.8,2.9,5.3,4.4,7.9c4.7,8.2,12,12,21.4,12c6.4,0,12.9,0,19.3-0.1c6.9-0.1,13.1,1.9,19,5.3
				c4.7,2.8,9.4,5.5,14,8.4c9.2,5.8,18.5,5.8,27.7,0.1c3.5-2.2,7.1-4.2,10.6-6.4c7.9-5.2,16.5-8,26.1-7.5c5.2,0.3,10.4,0.1,15.6,0.1
				c9.5,0,16.9-3.8,21.6-12.2c2.3-4,4.6-8,6.7-12.1c4.7-9.3,11.5-16.4,20.9-21c4.2-2.1,8.3-4.5,12.4-6.9c6.6-3.9,11-9.3,11.8-17.3
				c0.7-7.4,0.2-14.8,0.2-22.2c0-7.5,1.9-14.4,5.7-20.7c2.8-4.7,5.6-9.4,8.4-14c5.2-8.7,5.5-17.4,0.4-26.2c-2.3-3.9-4.5-7.8-7-11.5
				c-5.2-8.1-8.1-16.7-7.5-26.4c0.3-5.3,0.2-10.7,0.1-16c-0.1-8.1-2.9-14.9-9.9-19.5c-4.8-3.2-9.8-5.9-14.8-8.5
				c-8.9-4.6-15.6-11.3-20.2-20.2c-2.3-4.4-4.7-8.7-7.3-13c-3.9-6.7-9.5-10.9-17.4-11.6c-3-0.3-6.1-0.2-9.1-0.2
				c-6.5-0.1-13.1,0.5-19.6-0.3c-8-1.1-14.9-5.2-21.3-9.8c-13.5-10-26.5-10.1-40,0C198.4,58.8,186.5,63.1,174.8,61.1 M146,343.7
				c-1-1.5-2.6-2.3-4.2-3c-7-8.2-11.2-18.1-16.8-27.1c-3.5-5.7-8.9-9.1-14.6-12.2c-5.5-3-11.2-5.8-16.3-9.6
				c-7.3-5.6-11.1-13-11.4-22.1c-0.1-4.4-0.3-8.8,0.1-13.1c1.1-11.6-2.1-21.8-8.7-31.2c-2.5-3.6-4.6-7.4-6.5-11.3
				c-4.3-8.8-4.1-17.8,0.1-26.6c2.4-5.1,5.5-9.7,8.5-14.4c4.5-7.2,7.1-14.8,6.6-23.4c-0.3-5.2-0.1-10.4-0.1-15.7
				c-0.1-11.8,5.1-20.5,15-26.4c3.8-2.3,7.7-4.6,11.7-6.5c8.8-4.3,15.3-10.8,19.7-19.6c3-6.1,6.1-12.1,10.6-17.3
				c5.5-6.4,12.6-9.3,20.8-9.5c4.2-0.1,8.5-0.4,12.7,0c11.9,1.2,22.2-2.3,31.8-9c3.2-2.2,6.6-4,10.1-5.8c9.3-4.8,18.6-4.6,27.9,0
				c4.8,2.4,9.3,5.3,13.8,8.1c7.3,4.7,15,7.1,23.7,6.7c5.2-0.2,10.4-0.1,15.6-0.1c11.8-0.1,20.4,5.3,26.3,15.3
				c2.4,4.1,4.8,8.2,6.9,12.4c4.1,8.3,10.2,14.3,18.4,18.4c5.1,2.5,10.1,5.3,14.8,8.5c8.4,5.8,12.6,13.8,12.8,24c0,4,0.3,8-0.1,12
				c-1.1,11.7,2.1,22,8.8,31.5c2.1,3,3.8,6.2,5.6,9.4c5.8,10.6,5.2,21.2-0.9,31.5c-3,5.1-6,10.2-9.1,15.3
				c-3.1,5.1-4.4,10.7-4.4,16.6c0.1,6.1,0,12.1,0.1,18.2c0.2,11.8-5,20.5-14.9,26.5c-4.2,2.6-8.6,5-13,7.3
				c-7.2,3.7-13.1,8.7-16.9,16c-2.9,5.6-6,11.1-8.9,16.6c-1.7,1.2-2.6,3-3.8,4.6c-1.5,0.9-2.7,2.1-3.8,3.5
				c-6.5,4.4-13.7,5.5-21.4,5.2c-5.4-0.2-10.9,0-16.3-0.1c-3.8,0-7.4,0.7-10.9,2.2c-10.8,4.7-19.8,12.8-31.3,16.2
				c-1.9-0.5-3.8-0.1-5.6-0.1c-9.2-0.2-16.6-4.8-23.8-9.7c-8.9-6-18.2-9.4-29.2-8.8c-8.3,0.5-16.6,0.7-24.8-1.4
				C149.2,344.8,147.8,344,146,343.7"/>
		</g>
		<path id="Fill-10" class="st2" d="M275.5,235.3c2.9,0.1,4.9-2.4,4.1-5.4c-5.2-18.4-10.6-36.7-15.9-55.1c-0.8-2.8-3-3.4-5.4-2.8
			c-2,0.5-2.6,2.4-3.1,4.2c-3.4,11.5-6.8,23-10.2,34.4c-1.9,6.3-3.8,12.5-5.6,18.8c-0.7,2.6-0.2,5,2.8,5.8c2.6,0.7,4.4-0.4,5.1-3.2
			c0.7-2.7,1.7-5.3,2.4-8c0.5-1.9,1.4-2.5,3.3-2.5c4.2,0.1,8.5,0.1,12.7,0c2-0.1,3.1,0.5,3.5,2.6c0.5,2.6,1.4,5.1,2.2,7.7
			C272.1,233.7,273.1,235.3,275.5,235.3 M180.3,203.8c-0.3,3,0.6,5.9,2,8.6c2.7,5.3,5.4,10.6,7.9,15.9c2.1,4.3,5.2,6.9,10.1,7
			c5.2,0.2,8.4-2.5,10.5-6.9c2.8-5.8,5.7-11.5,8.4-17.3c2.3-5,2.3-10.1-0.1-15.1c-3-6.2-6-12.4-9.2-18.6c-3.8-7.3-14.4-7.9-18.5-0.7
			c-3.8,6.7-7,13.8-10.3,20.8C180.2,199.4,180.1,201.5,180.3,203.8 M298.2,202.5c0,9.2,0,18.4,0,27.7c0,3,1,5.1,4.3,5.1
			c3.7,0,4.2-2.7,4.3-5.5c0.1-5.2,0.1-10.4,0-15.6c-0.1-2.2,0.7-3,2.9-2.9c5.7,0.1,11.4,0.1,17.1,0c6.8-0.1,11.9-5.2,12.1-12
			c0.2-5.1,0.2-10.2,0-15.3c-0.2-6.9-5.6-12-12.5-12c-8.2,0-16.5,0.1-24.7-0.1c-2.7-0.1-3.6,0.6-3.5,3.4
			C298.3,184.3,298.2,193.4,298.2,202.5 M121.3,202.6c0,9,0,18,0,26.9c0,1-0.1,2,0.2,2.9c0.7,2,2.3,3.1,4.5,2.9
			c2.8-0.3,3.7-2.3,3.7-4.6c0.2-5.3,0.2-10.7,0-16c-0.1-2.6,0.6-3.6,3.4-3.5c5.6,0.2,11.2,0.2,16.7,0c6.6-0.2,11.8-5.2,12-11.8
			c0.2-5.2,0.2-10.4,0-15.6c-0.3-6.9-5.6-11.9-12.6-11.9c-8.2,0-16.5,0.1-24.7-0.1c-2.8-0.1-3.4,0.9-3.4,3.5
			C121.4,184.4,121.3,193.5,121.3,202.6 M174.8,61.2c11.7,2,23.6-2.3,34.3-10.3c13.5-10.1,26.5-9.9,40,0c6.3,4.7,13.2,8.7,21.3,9.8
			c6.5,0.9,13.1,0.2,19.6,0.3c3,0.1,6.1,0,9.1,0.2c7.9,0.7,13.5,5,17.4,11.6c2.5,4.3,5,8.6,7.3,13c4.6,8.9,11.3,15.6,20.2,20.2
			c5.1,2.6,10.1,5.3,14.8,8.5c7,4.7,9.8,11.4,9.9,19.5c0.1,5.3,0.2,10.7-0.1,16c-0.6,9.7,2.3,18.4,7.5,26.4c2.4,3.8,4.7,7.6,7,11.5
			c5.1,8.8,4.8,17.5-0.4,26.2c-2.8,4.7-5.6,9.4-8.4,14c-3.9,6.4-5.7,13.2-5.7,20.7c0,7.4,0.5,14.8-0.2,22.2
			c-0.8,8-5.2,13.4-11.8,17.3c-4.1,2.4-8.2,4.8-12.4,6.9c-9.4,4.7-16.2,11.7-20.9,21c-2.1,4.1-4.4,8.1-6.7,12.1
			c-4.8,8.4-12.1,12.2-21.6,12.2c-5.2,0-10.4,0.2-15.6-0.1c-9.6-0.5-18.1,2.3-26.1,7.5c-3.4,2.3-7.1,4.3-10.6,6.4
			c-9.3,5.8-18.5,5.7-27.7-0.1c-4.6-2.9-9.3-5.7-14-8.4c-5.9-3.4-12.1-5.4-19-5.3c-6.4,0.1-12.9,0.1-19.3,0.1
			c-9.4,0-16.6-3.8-21.4-12c-1.5-2.6-3.2-5.2-4.4-7.9c-5.9-13.4-15.9-22.6-29.2-28.6c-3-1.3-5.7-3.2-8.4-5
			c-7.2-4.6-10.1-11.5-10.1-19.8c0-3.9-0.2-7.8,0.1-11.6c1.1-12.5-2.2-23.8-9.5-33.9c-1.6-2.2-2.7-4.6-4.2-6.8
			c-6.2-9.6-5.9-19.1,0.1-28.7c2.9-4.6,5.6-9.3,8.4-14c3.5-5.9,5.2-12.2,5.1-19.1c-0.1-6.2,0-12.4-0.1-18.6
			c-0.1-9.6,3.8-16.8,12.2-21.6c4-2.3,8-4.6,12.1-6.7c9.3-4.7,16.3-11.6,21-20.9c2.6-5.2,5.4-10.3,8.7-15.1
			c4.3-6.2,10.4-8.9,17.7-9.3C164.9,61,168.9,61.2,174.8,61.2"/>
		<path id="Fill-12" class="st0" d="M314,342.2c9,21.4,17.9,42.9,26.9,64.3c1.5,3.7,3.1,7.4,4.6,11.1c0.5,1.3,1.4,2.7,0.2,4.1
			c-1.3,1.4-2.7,0.5-4,0.1c-14-4.5-28.1-9-42.1-13.6c-2.8-0.9-3.9-0.3-5.2,2.3c-6.4,13.1-13,26-19.5,39.1c-0.7,1.4-1.1,3-3.2,3
			c-2.2,0-2.4-1.8-3-3.2c-11.3-26.9-22.6-53.8-33.8-80.7c-0.4-0.9-0.5-1.8-0.8-2.8c11.5-3.4,20.5-11.5,31.3-16.2
			c3.5-1.5,7.1-2.2,10.9-2.2c5.4,0,10.9-0.1,16.3,0.1C300.2,347.8,307.5,346.6,314,342.2"/>
		<path id="Fill-14" class="st1" d="M129.5,191.4c0,3,0.1,6.1,0,9.1c0,1.7,0.4,2.7,2.4,2.6c5.7-0.1,11.4,0,17.1,0
			c3.1,0,4.7-1.8,4.9-4.7c0.2-4.5,0.2-9,0-13.4c-0.1-3.1-1.7-4.9-5.1-4.9c-5.4,0.1-10.9,0.1-16.3,0c-2.2,0-3,0.9-2.9,3
			C129.6,185.8,129.5,188.6,129.5,191.4 M121.3,202.6c0-9.1,0.1-18.2-0.1-27.3c0-2.6,0.6-3.6,3.4-3.5c8.2,0.2,16.5,0.1,24.7,0.1
			c7,0,12.3,5,12.6,11.9c0.2,5.2,0.2,10.4,0,15.6c-0.3,6.6-5.4,11.6-12,11.8c-5.6,0.1-11.2,0.2-16.7,0c-2.8-0.1-3.5,0.9-3.4,3.5
			c0.2,5.3,0.1,10.7,0,16c-0.1,2.3-0.9,4.3-3.7,4.6c-2.2,0.2-3.8-0.8-4.5-2.9c-0.3-0.9-0.2-1.9-0.2-2.9
			C121.3,220.6,121.3,211.6,121.3,202.6"/>
		<path id="Fill-16" class="st1" d="M306.4,191.6c0,3,0.1,6.1,0,9.1c-0.1,1.9,0.7,2.5,2.6,2.5c5.6-0.1,11.1,0,16.7,0
			c3.3,0,5-1.8,5.1-4.9c0.1-4.5,0.2-9,0-13.4c-0.1-3.1-1.9-4.8-5.2-4.7c-5.3,0.1-10.6,0.1-16,0c-2.4-0.1-3.3,0.8-3.1,3.2
			C306.5,186,306.4,188.8,306.4,191.6 M298.2,202.5c0-9.1,0.1-18.2-0.1-27.3c-0.1-2.8,0.9-3.4,3.5-3.4c8.2,0.2,16.5,0,24.7,0.1
			c6.9,0,12.3,5.1,12.5,12c0.2,5.1,0.2,10.2,0,15.3c-0.2,6.8-5.4,11.9-12.1,12c-5.7,0.1-11.4,0.1-17.1,0c-2.2,0-3,0.7-2.9,2.9
			c0.1,5.2,0.1,10.4,0,15.6c-0.1,2.8-0.6,5.6-4.3,5.5c-3.2,0-4.3-2.1-4.3-5.1C298.2,220.9,298.2,211.7,298.2,202.5"/>
		<path id="Fill-18" class="st1" d="M212.5,203.7c-0.2-1.2-0.2-2.5-0.7-3.5c-2.9-6.1-5.9-12.2-9-18.2c-1.4-2.6-3.5-2.6-4.9,0.1
			c-3,5.8-5.8,11.7-8.6,17.6c-1.4,3.1-1.1,6.2,0.4,9.1c2.6,5.3,5.3,10.6,7.9,15.9c0.6,1.2,1.2,2.5,2.8,2.4c1.4-0.1,2-1.2,2.6-2.3
			c2.8-5.5,5.6-11,8.3-16.6C212,206.8,212.4,205.3,212.5,203.7 M180.3,203.8c-0.2-2.2,0-4.3,0.9-6.2c3.3-7,6.5-14.1,10.3-20.8
			c4.1-7.2,14.7-6.7,18.5,0.7c3.2,6.1,6.2,12.4,9.2,18.6c2.4,5,2.4,10.1,0.1,15.1c-2.7,5.8-5.6,11.5-8.4,17.3
			c-2.1,4.4-5.3,7.1-10.5,6.9c-4.9-0.2-8-2.7-10.1-7c-2.6-5.4-5.2-10.7-7.9-15.9C180.9,209.6,180,206.8,180.3,203.8"/>
		<path id="Fill-20" class="st1" d="M260.1,192.5c-0.3,0-0.6,0-0.9,0c-1.1,3.8-2.3,7.5-3.3,11.3c-0.8,3.1-3.9,7.3-1.7,9.1
			c2.1,1.7,6.7,0.4,10.2,0.5c1.5,0,1.8-0.5,1.4-1.9C263.7,205.1,261.9,198.8,260.1,192.5 M275.5,235.3c-2.4,0-3.4-1.6-4-3.5
			c-0.8-2.5-1.7-5.1-2.2-7.7c-0.4-2.2-1.5-2.7-3.5-2.6c-4.2,0.1-8.5,0.1-12.7,0c-1.9-0.1-2.9,0.6-3.3,2.5c-0.7,2.7-1.7,5.3-2.4,8
			c-0.7,2.8-2.5,3.9-5.1,3.2c-3-0.7-3.6-3.2-2.8-5.8c1.8-6.3,3.7-12.5,5.6-18.8c3.4-11.5,6.8-23,10.2-34.4c0.5-1.8,1.1-3.7,3.1-4.2
			c2.5-0.6,4.6,0,5.4,2.8c5.3,18.4,10.6,36.7,15.9,55.1C280.5,232.9,278.5,235.4,275.5,235.3"/>
		<path id="Fill-22" class="st2" d="M129.5,191.4c0-2.8,0.1-5.6,0-8.4c-0.1-2.2,0.7-3.1,2.9-3c5.4,0.1,10.9,0.1,16.3,0
			c3.4,0,5,1.8,5.1,4.9c0.2,4.5,0.1,9,0,13.4c-0.1,2.9-1.7,4.7-4.9,4.7c-5.7,0-11.4-0.1-17.1,0c-2,0-2.4-0.9-2.4-2.6
			C129.5,197.5,129.5,194.4,129.5,191.4"/>
		<path id="Fill-24" class="st2" d="M306.4,191.6c0-2.8,0.1-5.6,0-8.4c-0.1-2.4,0.8-3.2,3.1-3.2c5.3,0.1,10.6,0.1,16,0
			c3.3-0.1,5.1,1.6,5.2,4.7c0.2,4.5,0.2,9,0,13.4c-0.1,3.1-1.8,4.9-5.1,4.9c-5.6,0-11.1-0.1-16.7,0c-1.9,0-2.6-0.6-2.6-2.5
			C306.4,197.6,306.4,194.6,306.4,191.6"/>
		<path id="Fill-26" class="st2" d="M212.5,203.7c-0.1,1.7-0.5,3.2-1.2,4.6c-2.8,5.5-5.6,11-8.3,16.6c-0.6,1.1-1.2,2.2-2.6,2.3
			c-1.6,0.1-2.2-1.2-2.8-2.4c-2.6-5.3-5.3-10.6-7.9-15.9c-1.5-3-1.8-6.1-0.4-9.1c2.8-5.9,5.6-11.8,8.6-17.6c1.4-2.7,3.5-2.7,4.9-0.1
			c3.1,6,6.1,12.1,9,18.2C212.2,201.2,212.2,202.5,212.5,203.7"/>
		<path id="Fill-28" class="st2" d="M260.1,192.5c1.8,6.3,3.6,12.7,5.5,19c0.4,1.5,0.2,2-1.4,1.9c-3.5-0.1-8.1,1.2-10.2-0.5
			c-2.1-1.8,0.9-6,1.7-9.1c1-3.8,2.2-7.6,3.3-11.3C259.5,192.5,259.8,192.5,260.1,192.5"/>
	</g>
</g>
</svg>
