<?xml version="1.0" encoding="utf-8"?>
<svg version="1.1" id="Ebene_1" xmlns="http://www.w3.org/2000/svg" xmlns:xlink="http://www.w3.org/1999/xlink" x="0px" y="0px"
	 viewBox="0 0 512 512" style="enable-background:new 0 0 512 512;" xml:space="preserve">
<style type="text/css">
	.st0{fill:#BC423E;}
	.st1{fill:#343738;}
</style>
<rect x="165.3" y="175.2" class="st0" width="179.7" height="158.5"/>
<path class="st1" d="M416,69.5H173c-8.3,0-15,6.7-15,15v85H96c-8.3,0-15,6.7-15,15v242.9c0,8.3,6.7,15,15,15H339c8.3,0,15-6.7,15-15
	v-85h62c8.3,0,15-6.7,15-15V84.5C431,76.3,424.2,69.5,416,69.5z M344,427.5c0,2.8-2.2,5-5,5H96c-2.8,0-5-2.2-5-5V184.5
	c0-2.8,2.2-5,5-5h62v147.9c0,8.3,6.7,15,15,15H344V427.5z M344,332.5H173c-2.8,0-5-2.2-5-5V179.5H339c2.8,0,5,2.2,5,5V332.5z
	 M421,327.5c0,2.8-2.2,5-5,5h-62V184.5c0-8.3-6.7-15-15-15H168v-85c0-2.8,2.2-5,5-5H416c2.8,0,5,2.2,5,5V327.5z"/>
</svg>
