<?xml version="1.0" encoding="UTF-8"?>
<!DOCTYPE svg PUBLIC "-//W3C//DTD SVG 1.1//EN" "http://www.w3.org/Graphics/SVG/1.1/DTD/svg11.dtd">
<!-- Creator: CorelDRAW -->
<svg xmlns="http://www.w3.org/2000/svg" xml:space="preserve" width="176.389mm" height="176.389mm" style="shape-rendering:geometricPrecision; text-rendering:geometricPrecision; image-rendering:optimizeQuality; fill-rule:evenodd; clip-rule:evenodd"
viewBox="0 0 176.389 176.389"
 xmlns:xlink="http://www.w3.org/1999/xlink">
 <defs>
  <style type="text/css">
   <![CDATA[
    .fil0 {fill:black}
    .fil1 {fill:#85D4FF}
    .fil2 {fill:#FFD22F;fill-rule:nonzero}
   ]]>
  </style>
 </defs>
 <g id="Layer_x0020_1">
  <metadata id="CorelCorpID_0Corel-Layer"/>
  <rect class="fil0" x="0.0114058" y="0.011372" width="176.366" height="176.366"/>
  <path class="fil1" d="M17.9351 52.6447l0 36.514 0 40.5638 35.1287 20.2823 31.6221 18.2572 0 -9.7724 -27.3914 -15.8138 -30.898 -17.8402c0,-23.4606 0.0008,-43.9929 0.0008,-67.3053l-8.4622 -4.8856z"/>
  <path class="fil1" d="M158.454 52.6414l0 36.5139 0 40.5639 -35.1287 20.2823 -31.6221 18.2572 0 -9.7725 27.3914 -15.8137 30.898 -17.8402c0,-23.4607 -0.0009,-43.993 -0.0009,-67.3053l8.4623 -4.8856z"/>
  <polygon class="fil1" points="88.195,7.0268 123.325,27.3092 154.947,45.5672 146.485,50.4528 119.095,34.6382 88.1967,16.7993 57.2986,34.6382 29.9085,50.4528 21.445,45.5672 53.0671,27.3092 88.1971,7.0268 "/>
  <g id="_32805264">
   <g>
    <polygon id="_32805816" class="fil2" points="138.295,126.901 121.566,126.901 117.032,122.366 117.032,95.0561 121.566,90.5212 138.295,90.5212 138.295,99.9437 126.454,99.9437 126.454,104.025 138.295,104.025 138.295,113.447 126.454,113.447 126.454,117.478 138.295,117.478 "/>
    <path id="_32804496" class="fil2" d="M114.636 122.366l-4.5349 4.5349 -20.7092 0 0 -36.3796 20.7092 0 4.5349 4.5349 0 10.0774 -4.5349 4.5349 4.5349 4.5348 0 8.1627zm-16.0232 -7.3061l-0.0001 0 0 2.4186 0.0001 0 6.8023 0 0.0001 0 0 -3.7692 -6.8024 0 0 1.3506zm6.8023 -12.6976l0 -2.4185 -6.8024 0 0 2.4185 0 1.3506 6.8024 0 0 -1.3506z"/>
    <polygon id="_32804472" class="fil2" points="86.9968,90.5212 77.9271,90.5212 77.9271,117.478 70.8225,117.478 70.8225,90.5212 61.7527,90.5212 61.7527,122.41 66.3066,126.901 82.4619,126.901 86.9968,122.366 "/>
    <polygon id="_32804328" class="fil2" points="59.3574,126.901 42.6288,126.901 38.094,122.366 38.094,95.0561 42.6288,90.5212 59.3574,90.5212 59.3574,99.9437 47.1637,99.9437 47.1637,117.478 59.3574,117.478 "/>
   </g>
   <g>
    <polygon id="_32804232" class="fil2" points="126.465,85.6674 109.737,85.6674 105.202,81.1325 105.202,53.8227 109.737,49.2878 126.465,49.2878 126.465,58.7103 114.624,58.7103 114.624,62.7917 126.465,62.7917 126.465,72.214 114.624,72.214 114.624,76.245 126.465,76.245 "/>
    <polygon id="_32804208" class="fil2" points="102.807,85.6674 93.7371,85.6674 93.7371,73.8264 86.9851,73.8264 86.9851,85.6674 77.5628,85.6674 77.5628,49.2878 86.9851,49.2878 86.9851,64.404 93.3843,64.404 93.3843,49.2878 102.807,49.2878 "/>
    <polygon id="_32805216" class="fil2" points="75.1675,58.7103 67.2567,58.7103 67.2567,85.6674 57.8342,85.6674 57.8342,58.7103 49.9235,58.7103 49.9235,49.2878 75.1675,49.2878 "/>
   </g>
  </g>
 </g>
</svg>
