<?xml version="1.0" encoding="utf-8"?>
<svg version="1.1" id="Ebene_1" xmlns="http://www.w3.org/2000/svg" xmlns:xlink="http://www.w3.org/1999/xlink" x="0px" y="0px"
	 viewBox="0 0 512 512" style="enable-background:new 0 0 512 512;" xml:space="preserve">
<style type="text/css">
	.st0{fill:#FF007A;}
	.st1{fill:#FFFFFF;}
</style>
<g id="univ3">
	<rect class="st0" width="512" height="512"/>
	<path class="st1" d="M448.5,255.8c-0.2,105.7-86.5,191.9-192.1,192c-106.3,0.1-193.5-86.3-193-192C64,143.3,154.3,62.5,259.6,64.2
		C364.4,66,448.7,150.1,448.5,255.8z M346.2,288.2c0.2-1.2,0.4-2.3,0.7-3.5c-3-2.2-5.6-5.2-9-6.4c-8.9-3.2-18.1-5.8-27.2-8.3
		c-4.2-1.1-8-1.6-7.9-7.5c0.1-6.3,4.2-6.2,8.5-6.3c12-0.5,23.1-3.8,32.1-11.9c10.9-9.8,16.8-21.9,13-36.8
		c-3.2-12.4-11-21.2-23.8-24.4c-20.5-5.1-40.9,3.5-51.3,22.1c-4.9,8.8-9.2,18.1-12.5,27.7c-16.1,46.2-31.8,92.5-47.9,138.7
		c-1,3-5.1,7.5-6.9,7.1c-3.1-0.6-6.8-4.1-8-7.2c-8.4-23.3-16.2-46.8-24.3-70.2c-12.2-35.5-24.4-71.1-36.8-106.6
		c-4.9-14.1-13-18.3-27.7-16c-17.2,2.8-25.2,14.6-29.5,29.9c-11.4,40.4-8.6,80.2,9.3,117.9c31.6,66.4,84.7,105,158.4,105.4
		c72.5,0.3,125.4-36.9,158.3-101.5c5.7-11.1,8.9-23.5,13.2-35.2c-0.9-0.6-1.8-1.1-2.7-1.7c-6.8,2-13.5,4.6-20.4,6
		c-9,1.8-12.6,6.1-12.1,15.9c0.7,14.6-3.2,28.6-12.7,40.1c-16.5,19.9-38.7,25.9-63.5,24c-39-3-64.2-32.9-61-71.8
		c1.1-13.7,4.4-17.6,17.8-18.3c15.5-0.9,31-0.8,46.5-1.1C328.1,288.1,337.2,288.2,346.2,288.2z M217.5,324.2c0.7,0,1.4,0.1,2.2,0.1
		c1.4-3.5,2.9-7,4.1-10.5c11.7-34.5,23.1-69,35-103.4c7.6-22,22.4-36.9,45.8-40.5c15.2-2.4,30.8-3.5,46.2-3.2
		c16.5,0.3,27.7,9.9,33.9,25.1c7.6,18.9,2.5,38.9-13.6,53.6c-4.8,4.4-9.8,8.5-14.8,12.8c8,7.4,15.8,14.2,23.2,21.4
		c13,12.7,23.7,12.8,37.3,0.6c15.4-13.8,15.4-31.4,12.9-49.6c-11.6-85.2-89.4-157.4-184.9-150.3c-55.8,4.2-99.9,29.5-132,75.3
		c-2.2,3.2-3.8,6.9-5.7,10.4c9.8,0,18.4,0,27,0c22.2,0,30.4,5.3,38.4,26.3c5.8,15.3,10.8,31,16.1,46.5
		C198,267.3,207.7,295.8,217.5,324.2z M335.3,301c0-0.3-0.1-0.6-0.1-1c-12.1,1.5-24.4,2.1-36.2,4.7c-13.6,2.9-19.4,12.2-14.7,25.4
		c3.3,9.2,8.7,18.4,15.4,25.5c16.1,16.8,37.5,15.4,51.7-3.2c4.8-6.4,8.6-14.6,9.8-22.5c3.8-25.2-1.4-30.6-24-28.9
		C336.5,301.1,335.9,301,335.3,301z"/>
</g>
</svg>
