<?xml version="1.0" encoding="utf-8"?>
<svg version="1.1" id="Ebene_1" xmlns="http://www.w3.org/2000/svg" xmlns:xlink="http://www.w3.org/1999/xlink" x="0px" y="0px"
	 viewBox="0 0 512 512" style="enable-background:new 0 0 512 512;" xml:space="preserve">
<style type="text/css">
	.st0{fill-rule:evenodd;clip-rule:evenodd;fill:#F9F9F9;}
	.st1{fill-rule:evenodd;clip-rule:evenodd;fill:#040404;}
</style>
<g id="xDaiTigers">
	<g id="svgg">
		<path id="path0" class="st0" d="M139.9,181.2c-5.4,0.4-5.2,0-2.7,7.3c4.2,12.5,10.9,24.5,15.1,27l1.7,1l-3.7,3.7
			c-5.7,5.7-9.3,13.9-13.6,30.8c-1.2,4.8-1.8,7.9-1.5,8.2c0.6,0.6,20.5,1.1,23.3,0.6c2.3-0.4,2.4-0.6,6.1-14.4
			c3.4-12.5,3.3-12.3,3.6-11.9c0.1,0.1,1.4,4.5,2.8,9.7c3.9,14.2,4.5,15.8,6.1,16.4c1.6,0.6,23.3,0.4,23.9-0.2
			c0.2-0.2-0.3-3.1-1.1-6.4c-4-16.6-8.7-27.2-14.4-33l-3.4-3.4l1.8-1.1c5.6-3.4,19.6-32,16.7-33.9c-1.9-1.2-22.7-1-24.2,0.2
			c-0.4,0.3-1.7,3.4-2.9,7c-3.1,8.9-5.2,14.3-5.6,14.3c-0.2,0-2-4.8-4.1-10.7c-2.3-6.6-4.1-10.8-4.6-11
			C158.1,181,144.6,180.8,139.9,181.2 M222.2,181.1c-5.2,0.5-14,1.7-14.3,2c-0.6,0.6-0.4,73.9,0.2,74.5c2.1,2.1,32.5,2.5,39.8,0.6
			c14.3-3.8,20.8-15.5,20.8-37.4C268.8,189.8,255,178.1,222.2,181.1 M285.7,182.4c-0.3,0.6-1.2,4.6-2,8.9c-0.8,4.2-3,15.1-4.9,24.1
			c-4.4,21.6-8.1,42.2-7.7,43.4c0.4,1.4,24.6,1.4,25,0c0.1-0.5,0.6-3.1,1.1-5.8c0.4-2.7,0.9-5.5,1.1-6.3l0.3-1.4h5.7h5.7l1.2,6.5
			c0.7,3.6,1.4,6.8,1.7,7.2c0.7,0.9,25,0.9,25,0c0-0.3-0.8-5.2-1.7-10.9c-0.9-5.6-1.7-10.8-1.8-11.5c0-0.7-1.3-7.6-2.9-15.4
			c-1.6-7.7-4-19.6-5.3-26.3c-1.4-6.7-2.7-12.5-3.1-12.8c-0.4-0.4-5.9-0.6-18.7-0.7l-18.2-0.2L285.7,182.4 M343.8,181.7
			c-0.7,1.1-1,76.3-0.3,77.1c0.5,0.6,2.6,0.8,13.1,0.8H369l0.4-8.6c0.7-14.5,0.6-68-0.2-68.8C368.4,181.3,344.3,180.9,343.8,181.7
			 M306,213.7c2.2,16.2,2.4,14.7-1.6,14.7h-3.3l0-1.7c0-0.9,0.6-6.7,1.3-12.9c0.7-6.2,1.3-11.6,1.3-12
			C303.6,198.8,304.6,203.6,306,213.7 M238.4,204c2.7,1.9,4.2,15.6,2.8,25.4c-1,6.5-2.1,8.2-5.9,8.2h-1.8v-17.2v-17.2h1.9
			C236.5,203.3,237.8,203.6,238.4,204 M220.2,269.9c-14.5,1.5-20.7,10.1-20.7,28.6c0,23.9,11.7,32.1,38.6,27l3.3-0.6l0.4-4.1
			c0.4-4.2,0.1-23-0.4-23.8c-0.2-0.3-3.8-0.5-8.2-0.5h-7.9v7.2v7.2H224c-4.1,0-6-6.8-4.9-17.6c0.7-7.2,0.3-6.9,11.4-7.1l9.3-0.1
			l0.9-5.9c0.5-3.2,0.9-6.6,0.9-7.5l0-1.6l-5.5-0.6C227.8,269.6,224.3,269.4,220.2,269.9 M303.4,269.9c-3.4,0.2-7.4,0.6-9,0.8
			l-2.8,0.4l-0.1,27.5l-0.1,27.5l1.2,0.3c0.6,0.2,4.7,0.2,9.1,0.1l7.9-0.1l-0.2-11.4c-0.3-14.8,0.1-14.9,4.4-1.2
			c1.7,5.6,3.4,10.7,3.7,11.5c1,2.6,18.9,2.5,18.6-0.1c-0.9-6.5-6.7-20-9.8-22.6l-2.2-1.9l1.5-0.8c10.3-5.4,11.1-23,1.2-27.9
			C322.5,269.9,314.2,269.1,303.4,269.9 M354.3,269.8c-11.3,0.9-15.8,5.9-15.2,17.1c0.5,10,5,14.8,17,18.2c4.9,1.4,6.4,2.3,6.4,3.8
			c0,3.4-5.8,4-15.5,1.6c-3.1-0.8-5.7-1.3-5.8-1.1c-0.3,0.3-2.1,12.7-2.2,15l0,1.6l4.2,0.3c28.7,2.2,38-2.1,38-17.8
			c0-9.8-4.6-14.3-18.6-18.7c-6.9-2.1-8.6-3.7-6-5.5c2.1-1.4,10-0.8,15.8,1.2c2.9,1,4.6,1.3,4.7,1c0.4-1.3,2.1-14.7,1.8-14.9
			C377,270.5,361.2,269.3,354.3,269.8 M131.2,270.2l-2.7,0.2v7.3c0,8.8-0.3,8.4,6.4,8.6l5,0.1l0.2,19.4c0.1,13,0.4,19.6,0.7,20.1
			c0.7,0.8,17.6,1,18.1,0.2c0.2-0.2,0.4-9.3,0.6-20.1l0.3-19.6l5.5-0.3l5.5-0.3v-7.7v-7.7l-3.3-0.3
			C163.9,269.9,135.8,269.9,131.2,270.2 M176.8,270.2l-1.6,0.2l-0.4,13.6c-0.4,16.5,0.1,41.8,0.9,42.3c0.9,0.6,17.6,0.5,18-0.2
			c0.6-0.9,0.4-54.8-0.2-55.3C193.1,270.2,179.6,269.7,176.8,270.2 M250.8,270.2l-2.4,0.2l0,26c0,14.3,0.2,26.9,0.4,28l0.4,2
			l18.3,0.1l18.3,0.1l-0.1-7.8l-0.1-7.8l-8.7-0.4c-10.4-0.5-10.1-0.4-9.9-2.8l0.2-1.9l6-0.1l6-0.1l-0.1-7l-0.1-7l-5.9-0.3l-5.9-0.3
			v-2.3v-2.3l9.2-0.3l9.2-0.3v-7.7v-7.7l-3.1-0.3C279.1,269.9,254.9,269.9,250.8,270.2 M313.5,283.6c4.1,1.5,1.9,8.2-2.6,8.2h-1.7
			v-4C309.2,282.9,309.9,282.2,313.5,283.6"/>
		<path id="path1" class="st1" d="M0,256v256h256h256V256V0H256H0V256 M159.3,181.5c0.5,0.2,2.2,4.4,4.6,11
			c2.1,5.9,3.9,10.7,4.1,10.7c0.4,0,2.5-5.4,5.6-14.3c1.2-3.5,2.5-6.7,2.9-7c1.5-1.2,22.2-1.4,24.2-0.2c3,1.8-11.1,30.4-16.7,33.9
			l-1.8,1.1l3.4,3.4c5.7,5.7,10.4,16.4,14.4,33c0.8,3.3,1.3,6.2,1.1,6.4c-0.6,0.6-22.4,0.8-23.9,0.2c-1.6-0.6-2.2-2.3-6.1-16.4
			c-1.4-5.2-2.7-9.5-2.8-9.7c-0.3-0.3-0.3-0.5-3.6,11.9c-3.7,13.8-3.8,13.9-6.1,14.4c-2.7,0.5-22.7,0-23.3-0.6
			c-0.3-0.3,0.3-3.4,1.5-8.2c4.3-17,7.9-25.1,13.6-30.8l3.7-3.7l-1.7-1c-4.8-3-19.1-31.5-16.9-33.7
			C136.3,180.9,157,180.6,159.3,181.5 M247.1,182.4c14.8,4.4,21.7,16.6,21.7,38.3c0,21.9-6.5,33.6-20.8,37.4
			c-7.3,1.9-37.7,1.5-39.8-0.6c-0.6-0.6-0.8-73.9-0.2-74.5c0.3-0.3,9.1-1.5,14.3-2C229.4,180.4,243,181.1,247.1,182.4 M323.1,182.1
			c0.3,0.3,1.7,6.1,3.1,12.8c1.4,6.7,3.8,18.5,5.3,26.3c1.6,7.7,2.9,14.7,2.9,15.4c0,0.7,0.8,5.9,1.8,11.5
			c0.9,5.6,1.7,10.5,1.7,10.9c0,0.9-24.2,0.9-25,0c-0.3-0.4-1.1-3.6-1.7-7.2l-1.2-6.5h-5.7h-5.7l-0.3,1.4c-0.2,0.8-0.6,3.6-1.1,6.3
			c-0.4,2.7-0.9,5.3-1.1,5.8c-0.4,1.4-24.6,1.4-25,0c-0.4-1.2,3.3-21.8,7.7-43.4c1.8-9,4-19.8,4.9-24.1c0.8-4.2,1.7-8.2,2-8.9
			l0.5-1.2l18.2,0.2C317.2,181.5,322.7,181.7,323.1,182.1 M369.3,182.2c0.8,0.8,1,54.4,0.2,68.8l-0.4,8.6h-12.4
			c-10.4,0-12.5-0.1-13.1-0.8c-0.7-0.8-0.4-76,0.3-77.1C344.3,180.9,368.4,181.3,369.3,182.2 M303.6,201.8c0,0.4-0.6,5.8-1.3,12
			c-0.7,6.2-1.3,12-1.3,12.9l0,1.7h3.3c3.3,0,3.3,0,3.3-1.4C307.6,222.1,303.6,197.7,303.6,201.8 M233.5,220.4v17.2h1.8
			c5.1,0,6.8-5.4,6.2-20.2c-0.4-11.2-1.7-14.1-6.1-14.1h-1.9V220.4 M236.2,270.4l5.5,0.6l0,1.6c0,0.9-0.4,4.2-0.9,7.5l-0.9,5.9
			l-9.3,0.1c-11.1,0.2-10.7-0.1-11.4,7.1c-1.1,10.9,0.8,17.6,4.9,17.6h1.2v-7.2v-7.2h7.9c4.4,0,8,0.2,8.2,0.5
			c0.5,0.8,0.9,19.6,0.4,23.8l-0.4,4.1l-3.3,0.6c-26.9,5.1-38.7-3.1-38.6-27C199.5,274.5,208.5,267.6,236.2,270.4 M320.4,270.1
			c3.8,0.3,8.8,2.7,10.4,4.8c5.5,7.7,2.7,20.7-5.3,24.9l-1.5,0.8l2.2,1.9c3.1,2.6,8.9,16.2,9.8,22.6c0.4,2.6-17.6,2.7-18.6,0.1
			c-0.3-0.7-1.9-5.9-3.7-11.5c-4.3-13.7-4.7-13.6-4.4,1.2l0.2,11.4l-7.9,0.1c-4.4,0.1-8.5,0-9.1-0.1l-1.2-0.3l0.1-27.5l0.1-27.5
			l2.8-0.4C302.4,269.6,311.4,269.4,320.4,270.1 M373.2,270.7c3,0.4,5.5,0.9,5.7,1c0.3,0.2-1.4,13.6-1.8,14.9c-0.1,0.4-1.8,0-4.7-1
			c-5.8-1.9-13.7-2.5-15.8-1.2c-2.7,1.7-0.9,3.3,6,5.5c14,4.3,18.6,8.9,18.6,18.7c0,15.7-9.3,20.1-38,17.8l-4.2-0.3l0-1.6
			c0-2.2,1.8-14.6,2.2-15c0.2-0.2,2.8,0.3,5.8,1.1c9.7,2.4,15.5,1.8,15.5-1.6c0-1.5-1.6-2.5-6.4-3.8c-12-3.4-16.5-8.2-17-18.2
			C338.2,271.6,348,267,373.2,270.7 M167.4,270.3l3.3,0.3v7.7v7.7l-5.5,0.3l-5.5,0.3l-0.3,19.6c-0.2,10.8-0.4,19.8-0.6,20.1
			c-0.5,0.8-17.4,0.6-18.1-0.2c-0.4-0.5-0.6-7.1-0.7-20.1l-0.2-19.4l-5-0.1c-6.7-0.2-6.4,0.2-6.4-8.6v-7.3l2.7-0.2
			C135.8,269.9,163.9,269.9,167.4,270.3 M193.6,270.7c0.6,0.6,0.8,54.4,0.2,55.3c-0.4,0.6-17.1,0.8-18,0.2
			c-0.8-0.5-1.4-25.8-0.9-42.3l0.4-13.6l1.6-0.2C179.6,269.7,193.1,270.2,193.6,270.7 M282.4,270.3l3.1,0.3v7.7v7.7l-9.2,0.3
			l-9.2,0.3v2.3v2.3l5.9,0.3l5.9,0.3l0.1,7l0.1,7l-6,0.1l-6,0.1l-0.2,1.9c-0.2,2.4-0.6,2.3,9.9,2.8l8.7,0.4l0.1,7.8l0.1,7.8
			l-18.3-0.1l-18.3-0.1l-0.4-2c-0.2-1.1-0.4-13.7-0.4-28l0-26l2.4-0.2C254.9,269.9,279.1,269.9,282.4,270.3 M309.6,283.5
			c-0.2,0.2-0.3,2.1-0.3,4.4v4h1.7c3.4,0,5.3-2.6,4.4-5.9C314.7,283.7,311,282.1,309.6,283.5"/>
	</g>
</g>
</svg>
