<?xml version="1.0" encoding="utf-8"?>
<!-- Generator: Adobe Illustrator 26.0.1, SVG Export Plug-In . SVG Version: 6.00 Build 0)  -->
<svg version="1.1" xmlns="http://www.w3.org/2000/svg" xmlns:xlink="http://www.w3.org/1999/xlink" x="0px" y="0px"
	 viewBox="0 0 512 512" style="enable-background:new 0 0 512 512;" xml:space="preserve">
<style type="text/css">
	.st0{fill:url(#bg_00000095314986241715155860000008099516321018790788_);}
	.st1{fill:#FFFFFF;}
	.st2{fill-rule:evenodd;clip-rule:evenodd;fill:#FFFFFF;}
	.st3{opacity:0.1;}
	.st4{fill:url(#bg_00000012455440529267391710000003896178373519121052_);}
	.st5{fill:url(#bg_00000173882521528456764220000002979994982505733549_);}
	.st6{fill:#FCFCFC;}
	.st7{fill:url(#bg_00000106853935100156078560000008710770017601476747_);}
	.st8{fill:url(#bg_00000132081812693631211070000014424137696291611821_);}
	.st9{fill-rule:evenodd;clip-rule:evenodd;fill:#FCCDD3;}
	.st10{filter:url(#Adobe_OpacityMaskFilter);}
	.st11{mask:url(#mask-2_00000079477019141398897970000007225647416667991979_);fill-rule:evenodd;clip-rule:evenodd;fill:#6534FF;}
	.st12{fill-rule:evenodd;clip-rule:evenodd;fill:#FEFEFE;}
	.st13{fill-rule:evenodd;clip-rule:evenodd;fill:#6534FF;}
	.st14{fill:#8526D1;}
	.st15{fill:#D89738;}
	.st16{fill:#5D1B8F;}
	.st17{fill:#F2A738;}
	.st18{fill-rule:evenodd;clip-rule:evenodd;fill:#F9F9F9;}
	.st19{fill-rule:evenodd;clip-rule:evenodd;fill:#040404;}
	.st20{fill:#FEFEFE;}
	.st21{fill:#F0E20A;}
	.st22{fill:#EFE20A;}
	.st23{fill:#A1DE44;}
	.st24{fill:#FCA433;}
	.st25{fill:#FCAC68;}
	.st26{fill:#F74D7B;}
	.st27{fill:#9FDD46;}
	.st28{fill:#67D1BB;}
	.st29{fill:#FAAC8C;}
	.st30{fill:#FDE723;}
	.st31{fill:#FBAB4C;}
	.st32{fill:#FEF532;}
	.st33{fill:#EDE622;}
	.st34{fill:#5BD0DD;}
	.st35{fill:#B96CAE;}
	.st36{fill:#FBB32B;}
	.st37{fill:#FA9262;}
	.st38{fill:#D5709D;}
	.st39{fill:#9763B8;}
	.st40{fill:#FBDD0F;}
	.st41{fill:#D0EC26;}
	.st42{fill:#FCA036;}
	.st43{fill:#FACF2B;}
	.st44{fill:#D4E52B;}
	.st45{fill:#FCD713;}
	.st46{fill:#FDB83D;}
	.st47{fill:#E9E227;}
	.st48{fill:#CB7896;}
	.st49{fill:#FCD415;}
	.st50{fill:#C1E72E;}
	.st51{fill:#B6DF3A;}
	.st52{fill:#C8DE37;}
	.st53{fill:#C277B4;}
	.st54{fill:#ACE339;}
	.st55{fill:#E79762;}
	.st56{fill:#E77982;}
	.st57{fill:#FCFA68;}
	.st58{fill:#F6C82A;}
	.st59{fill:#B46CB1;}
	.st60{fill:#E1CE32;}
	.st61{fill:#F2C02E;}
	.st62{fill:#F8DB26;}
	.st63{fill:#C97B9F;}
	.st64{fill:#E6F40D;}
	.st65{fill:#D8DC35;}
	.st66{fill:#FDB73F;}
	.st67{fill:#FB7759;}
	.st68{fill:#EDDA2D;}
	.st69{fill:#DA8878;}
	.st70{fill:#EABC6F;}
	.st71{fill:#FDFDC8;}
	.st72{fill:#E8B380;}
	.st73{fill:#D8DB09;}
	.st74{fill:#E4D52E;}
	.st75{fill:#FCC91B;}
	.st76{fill:#FEFB8B;}
	.st77{fill:#F9D515;}
	.st78{fill:#DEE528;}
	.st79{fill:#FBC82E;}
	.st80{fill:#C25CA6;}
	.st81{fill:#FBC331;}
	.st82{fill:#FBB53E;}
	.st83{fill:#FC8E47;}
	.st84{fill:#9D63B7;}
	.st85{fill:#86C591;}
	.st86{fill:#78DEA5;}
	.st87{fill:#FBFCA1;}
	.st88{fill:#D87F7F;}
	.st89{fill:#FDF747;}
	.st90{fill:#E2CD31;}
	.st91{fill:#91E38C;}
	.st92{fill:#C5DD36;}
	.st93{fill:#FBB342;}
	.st94{fill:#D2BC7F;}
	.st95{fill:#65D6CC;}
	.st96{fill:#D5D809;}
	.st97{fill:#AEC383;}
	.st98{fill:#FBBB23;}
	.st99{fill:#F9DA24;}
	.st100{fill:#F9AC4C;}
	.st101{fill:#FBBF59;}
	.st102{fill:#E68B69;}
	.st103{fill:#F3A451;}
	.st104{fill:#FBF00E;}
	.st105{fill:#C9F5A2;}
	.st106{fill:#F9B229;}
	.st107{fill:#E9C745;}
	.st108{fill:#A2A2A2;}
	.st109{fill:#FDF10E;}
	.st110{fill:#F0FC0D;}
	.st111{fill:#010100;}
	.st112{fill:#FC8355;}
	.st113{fill:#FC8D48;}
	.st114{fill:#FCBB23;}
	.st115{fill:#FB9854;}
	.st116{fill:#FA6886;}
	.st117{fill:#FB6D6E;}
	.st118{fill:#E95790;}
	.st119{fill:#FB5D67;}
	.st120{fill:#6FCDA1;}
	.st121{fill:#79D278;}
	.st122{fill:#020101;}
	.st123{fill:#FAFD23;}
	.st124{fill:#E2FE38;}
	.st125{fill:#141304;}
	.st126{fill:#CB5DA2;}
	.st127{fill:#B063B1;}
	.st128{fill:#FC8D76;}
	.st129{fill:#E96F92;}
	.st130{fill:#FC8353;}
	.st131{fill:#FC8B4B;}
	.st132{fill:#FB7A86;}
	.st133{fill:#E3FD7C;}
	.st134{fill:#D8BF73;}
	.st135{fill:#DECA58;}
	.st136{fill:#B6EB2D;}
	.st137{fill:#C0D847;}
	.st138{fill:#A2E749;}
	.st139{fill:#BAF35A;}
	.st140{fill:#B6F180;}
	.st141{fill:#D8FB1A;}
	.st142{fill:#D6FA18;}
	.st143{fill:#FB736E;}
	.st144{fill:#96DE4B;}
	.st145{fill:#75CF83;}
	.st146{fill:#A2C87B;}
	.st147{fill:#8EDD54;}
	.st148{fill:#BDEF28;}
	.st149{fill:#B8EE29;}
</style>
<g id="MIVA:SYMM">
</g>
<g id="MIVA-FRACTION">
</g>
<g id="FRACTION-MIVA">
</g>
<g id="MIVA-HNY">
</g>
<g id="MIVA-WXDAI">
</g>
<g id="zeroalpha">
</g>
<g id="POAP">
</g>
<g id="pixeth">
</g>
<g id="xDaiTigers">
	<g id="svgg">
		<path id="path0" class="st18" d="M139.94496,181.16992c-5.37344,0.42879-5.21472,0.00127-2.72896,7.3344
			c4.22528,12.46208,10.91583,24.45953,15.07455,27.02977l1.69856,1.04959l-3.70688,3.70816
			c-5.71265,5.71648-9.30049,13.85728-13.5872,30.83649c-1.21216,4.80128-1.76128,7.87582-1.46304,8.18942
			c0.56064,0.58752,20.54272,1.06113,23.26144,0.55042c2.32065-0.43518,2.39488-0.61185,6.0992-14.36417
			c3.35233-12.45056,3.29344-12.25343,3.60706-11.93855c0.13184,0.13184,1.39775,4.48512,2.81215,9.67296
			c3.86432,14.17087,4.46721,15.80545,6.06464,16.42368c1.56161,0.60544,23.31905,0.40063,23.94496-0.22528
			c0.21887-0.21887-0.256-3.0976-1.05598-6.39745c-4.01538-16.57344-8.66306-27.23454-14.37825-32.97791l-3.35873-3.37537
			l1.75745-1.08673c5.55008-3.42912,19.63008-32.03966,16.66943-33.86879c-1.94943-1.20448-22.69055-1.00992-24.1907,0.22784
			c-0.38017,0.31358-1.67809,3.4496-2.8864,6.9696c-3.06688,8.93951-5.1597,14.33727-5.55905,14.33215
			c-0.18687-0.00256-2.03648-4.82687-4.11008-10.72c-2.3232-6.60223-4.07808-10.83392-4.57088-11.02336
			C158.09152,181.03935,144.60416,180.79744,139.94496,181.16992 M222.20801,181.06496
			c-5.18529,0.47104-13.97888,1.70367-14.27457,1.99936c-0.60416,0.60416-0.36224,73.86369,0.24576,74.47169
			c2.08511,2.08511,32.49792,2.5267,39.7952,0.57983c14.33087-3.82593,20.82944-15.50592,20.82431-37.43105
			C268.78976,189.83296,254.97473,178.08511,222.20801,181.06496 M285.71649,182.37569
			c-0.27136,0.64638-1.18018,4.63232-2.01984,8.85631c-0.83969,4.224-3.02979,15.05281-4.86786,24.064
			c-4.39679,21.5629-8.06015,42.20929-7.69281,43.36386c0.44418,1.40158,24.57986,1.42975,24.99841,0.02817
			c0.14847-0.49283,0.62976-3.08481,1.07135-5.76001c0.44287-2.67522,0.93185-5.49762,1.08801-6.27202l0.28418-1.40799h5.74335
			h5.74463l1.18399,6.528c0.65155,3.59041,1.41824,6.81598,1.70242,7.168c0.73984,0.91519,24.96768,0.92798,24.96768,0.01279
			c0-0.34558-0.77698-5.24159-1.72543-10.87999c-0.94977-5.63966-1.74979-10.83264-1.77664-11.54176
			c-0.02817-0.70782-1.33762-7.61984-2.90945-15.36c-1.57312-7.73888-3.97568-19.5648-5.33887-26.28094
			c-1.3645-6.71489-2.74561-12.47488-3.06946-12.8c-0.4173-0.41728-5.89694-0.63489-18.74048-0.7424l-18.15167-0.15233
			L285.71649,182.37569 M343.84,181.7088c-0.67841,1.09824-0.95871,76.29953-0.28671,77.10849
			c0.53247,0.64255,2.6496,0.76672,13.06238,0.76672h12.42755l0.43777-8.576c0.74109-14.47682,0.56445-68.04736-0.22531-68.83839
			C368.41727,181.32993,344.34305,180.89343,343.84,181.7088 M306.01218,213.66527
			c2.24255,16.15617,2.40512,14.68672-1.62817,14.68672h-3.328l0.00385-1.66399c0.00128-0.91521,0.57471-6.7328,1.27359-12.92801
			c0.6976-6.19519,1.27234-11.59038,1.27618-11.98976C303.63647,198.76863,304.62079,203.64417,306.01218,213.66527
			 M238.42816,204.0256c2.68542,1.88161,4.17535,15.63008,2.75073,25.37985c-0.9549,6.52798-2.13249,8.16255-5.88161,8.16255
			h-1.8253V220.416v-17.15199h1.93408C236.46977,203.26401,237.82912,203.60703,238.42816,204.0256 M220.16,269.87903
			c-14.45377,1.50018-20.65921,10.0813-20.69119,28.61697c-0.04225,23.89249,11.66206,32.07422,38.61119,26.99008l3.328-0.62848
			l0.416-4.09216c0.43135-4.23807,0.08832-22.99008-0.4352-23.83743c-0.16385-0.26495-3.83362-0.48001-8.20354-0.48001H225.28v7.168
			v7.168h-1.23775c-4.14977,0-6.03264-6.75201-4.91008-17.62048c0.73856-7.16544,0.32126-6.90686,11.39966-7.07199l9.34016-0.13953
			l0.85762-5.888c0.47102-3.2384,0.87424-6.60608,0.896-7.48416l0.03839-1.59488l-5.504-0.56445
			C227.7504,269.55905,224.34943,269.44385,220.16,269.87903 M303.35999,269.87518
			c-3.37918,0.23425-7.41116,0.60928-8.95999,0.83459l-2.81598,0.40829l-0.13184,27.50208l-0.13315,27.50211l1.15714,0.28543
			c0.63486,0.15744,4.72705,0.21887,9.09183,0.13824l7.936-0.14594l-0.19968-11.392
			c-0.25854-14.81726,0.11008-14.92224,4.39551-1.24799c1.74463,5.56671,3.39969,10.71869,3.67746,11.45087
			c0.9971,2.62271,18.93246,2.53568,18.57791-0.09088c-0.87299-6.47681-6.73282-20.03073-9.79327-22.6496L324,300.61951
			l1.45663-0.76797c10.32062-5.44513,11.06818-22.96707,1.18912-27.90402
			C322.48962,269.87009,314.15039,269.12897,303.35999,269.87518 M354.29504,269.83679
			c-11.33694,0.85632-15.82977,5.9021-15.23328,17.10849c0.53375,10.03903,5.01501,14.83392,17.0112,18.20032
			c4.86017,1.36322,6.42303,2.29504,6.42303,3.82593c0,3.43423-5.81503,4.02942-15.53409,1.59103
			c-3.05283-0.76544-5.6781-1.26462-5.83423-1.10849c-0.34561,0.34561-2.1376,12.72833-2.16449,14.95041l-0.01923,1.58719
			l4.22403,0.32898c28.71423,2.23615,38.01599-2.12991,38.01599-17.84064c0-9.77795-4.5517-14.34625-18.59201-18.6637
			c-6.8736-2.11456-8.62589-3.71582-5.96991-5.45663c2.06723-1.35422,10.02496-0.75775,15.77731,1.18271
			c2.9158,0.98306,4.5939,1.32864,4.7142,0.96768c0.44162-1.32095,2.06207-14.71103,1.79968-14.87231
			C377.02014,270.47809,361.15839,269.31839,354.29504,269.83679 M131.2,270.2016l-2.68799,0.18817v7.33438
			c0,8.78082-0.28545,8.39682,6.38463,8.59265l5.04576,0.14719l0.18816,19.42273
			c0.12672,13.02271,0.37248,19.64417,0.74753,20.09601c0.6528,0.78592,17.58336,0.99457,18.06079,0.22144
			c0.15361-0.24832,0.41985-9.29153,0.59265-20.09601l0.31487-19.64417l5.4528-0.25598l5.4528-0.25601V278.272v-7.68002
			l-3.32799-0.32382C163.93729,269.92767,135.84128,269.8765,131.2,270.2016 M176.84352,270.15295l-1.58719,0.23682
			l-0.3661,13.56543c-0.44672,16.51071,0.10753,41.76511,0.92673,42.30911c0.94592,0.6272,17.61024,0.46848,18.00705-0.17151
			c0.57985-0.93826,0.4032-54.75842-0.18176-55.34338C193.10721,270.21439,179.64545,269.73694,176.84352,270.15295
			 M250.752,270.20032l-2.43199,0.19202l0.02942,25.95584c0.01665,14.27582,0.19328,26.87744,0.39297,28.00381l0.36224,2.048
			l18.30911,0.1344l18.30911,0.13443l-0.14206-7.81442l-0.14081-7.81439l-8.70401-0.38657
			c-10.43839-0.46463-10.08896-0.36609-9.88672-2.8096l0.15872-1.92383l6.03009-0.14465l6.03009-0.14462l-0.14209-7.02338
			l-0.14209-7.02335l-5.888-0.25601l-5.888-0.25601v-2.30399v-2.30402l9.216-0.25598l9.216-0.25601V278.272v-7.68002
			l-3.07199-0.32892C279.14368,269.9187,254.93633,269.87009,250.752,270.20032 M313.53601,283.62366
			c4.0563,1.54242,1.93661,8.21634-2.60992,8.21634h-1.67807v-4.01022C309.24802,282.86206,309.88672,282.23615,313.53601,283.62366
			"/>
		<path id="path1" class="st19" d="M0,256v256h256h256V256V0H256H0V256 M159.33824,181.5168
			c0.4928,0.18944,2.24768,4.42113,4.57088,11.02336c2.07359,5.89313,3.9232,10.71744,4.11008,10.72
			c0.39935,0.00511,2.49217-5.39264,5.55905-14.33215c1.20831-3.52,2.50623-6.65602,2.8864-6.9696
			c1.50015-1.23776,22.24127-1.43233,24.1907-0.22784c2.96065,1.82913-11.11935,30.43967-16.66943,33.86879l-1.75745,1.08673
			l3.35873,3.37537c5.71519,5.74336,10.36287,16.40446,14.37825,32.97791c0.79999,3.29985,1.27486,6.17857,1.05598,6.39745
			c-0.62592,0.62592-22.38335,0.83072-23.94496,0.22528c-1.59743-0.61823-2.20032-2.25281-6.06464-16.42368
			c-1.4144-5.18784-2.68031-9.54112-2.81215-9.67296c-0.31361-0.31488-0.25473-0.51201-3.60706,11.93855
			c-3.70432,13.75232-3.77855,13.92899-6.0992,14.36417c-2.71872,0.51071-22.70081,0.03711-23.26144-0.55042
			c-0.29823-0.3136,0.25089-3.38814,1.46304-8.18942c4.28671-16.9792,7.87456-25.12001,13.5872-30.83649l3.70688-3.70816
			l-1.69856-1.04959c-4.82687-2.9837-19.08736-31.45601-16.87167-33.68576
			C136.33792,180.92416,157.04448,180.63744,159.33824,181.5168 M247.1232,182.37184
			c14.77374,4.44032,21.66913,16.62976,21.67551,38.31296c0.00513,21.92513-6.49344,33.60512-20.82431,37.43105
			c-7.29727,1.94687-37.71008,1.50528-39.7952-0.57983c-0.608-0.608-0.84991-73.86754-0.24576-74.47169
			c0.29568-0.29568,9.08928-1.52832,14.27457-1.99936C229.40927,180.40961,242.95935,181.12129,247.1232,182.37184
			 M323.10016,182.09409c0.32385,0.32512,1.70496,6.08511,3.06946,12.8c1.36319,6.71614,3.76575,18.54207,5.33887,26.28094
			c1.57184,7.74016,2.88129,14.65218,2.90945,15.36c0.02686,0.70912,0.82687,5.9021,1.77664,11.54176
			c0.94846,5.6384,1.72543,10.53441,1.72543,10.87999c0,0.91519-24.22784,0.9024-24.96768-0.01279
			c-0.28418-0.35202-1.05087-3.57759-1.70242-7.168l-1.18399-6.528h-5.74463h-5.74335l-0.28418,1.40799
			c-0.15616,0.7744-0.64514,3.5968-1.08801,6.27202c-0.44159,2.6752-0.92288,5.26718-1.07135,5.76001
			c-0.41855,1.40158-24.55423,1.37341-24.99841-0.02817c-0.36734-1.15457,3.29602-21.80096,7.69281-43.36386
			c1.83807-9.01118,4.02817-19.84,4.86786-24.064c0.83966-4.22398,1.74847-8.20993,2.01984-8.85631l0.49152-1.17633
			l18.15167,0.15233C317.20322,181.4592,322.68286,181.6768,323.10016,182.09409 M369.25568,182.16962
			c0.78976,0.79103,0.9664,54.36157,0.22531,68.83839l-0.43777,8.576h-12.42755c-10.41278,0-12.52991-0.12418-13.06238-0.76672
			c-0.672-0.80896-0.39169-76.01025,0.28671-77.10849C344.34305,180.89343,368.41727,181.32993,369.25568,182.16962
			 M303.60962,201.77023c-0.00385,0.39938-0.57858,5.79457-1.27618,11.98976c-0.69888,6.19521-1.27231,12.0128-1.27359,12.92801
			l-0.00385,1.66399h3.328c3.29599,0,3.328-0.01405,3.30112-1.40799C307.59552,222.09152,303.64545,197.70111,303.60962,201.77023
			 M233.47198,220.416v17.15201h1.8253c5.11745,0,6.76991-5.35809,6.22336-20.17664
			c-0.41344-11.1808-1.68832-14.12737-6.11458-14.12737h-1.93408V220.416 M236.16,270.4205l5.504,0.56445l-0.03839,1.59488
			c-0.02176,0.87808-0.42497,4.24576-0.896,7.48416l-0.85762,5.888l-9.34016,0.13953
			c-11.0784,0.16513-10.6611-0.09344-11.39966,7.07199c-1.12256,10.86847,0.76031,17.62048,4.91008,17.62048H225.28v-7.168v-7.168
			h7.90527c4.36992,0,8.03969,0.21506,8.20354,0.48001c0.52351,0.84735,0.86655,19.59937,0.4352,23.83743l-0.416,4.09216
			l-3.328,0.62848c-26.94913,5.08414-38.65344-3.0976-38.61119-26.99008C199.51103,274.4819,208.52095,267.58783,236.16,270.4205
			 M320.384,270.13889c3.83359,0.33408,8.83456,2.65088,10.36929,4.8064c5.45792,7.66464,2.68671,20.69504-5.29666,24.90625
			L324,300.61951l2.16193,1.85089c3.06046,2.61887,8.92029,16.17279,9.79327,22.6496
			c0.35455,2.62656-17.58081,2.71359-18.57791,0.09088c-0.27777-0.73218-1.93283-5.88416-3.67746-11.45087
			c-4.28543-13.67426-4.65405-13.56927-4.39551,1.24799l0.19968,11.392l-7.936,0.14594
			c-4.36478,0.08063-8.45697,0.0192-9.09183-0.13824l-1.15714-0.28543l0.13315-27.50211l0.13184-27.50208l2.81598-0.40829
			C302.35007,269.55521,311.39328,269.35681,320.384,270.13889 M373.24802,270.67392
			c2.95679,0.43265,5.50656,0.86658,5.66525,0.96384c0.26239,0.16129-1.35806,13.55136-1.79968,14.87231
			c-0.1203,0.36096-1.7984,0.01538-4.7142-0.96768c-5.75235-1.94046-13.71008-2.53693-15.77731-1.18271
			c-2.65598,1.74081-0.90369,3.34207,5.96991,5.45663c14.04031,4.31744,18.59201,8.88574,18.59201,18.6637
			c0,15.71072-9.30176,20.07678-38.01599,17.84064l-4.22403-0.32898l0.01923-1.58719
			c0.02689-2.22208,1.81888-14.6048,2.16449-14.95041c0.15613-0.15613,2.7814,0.34305,5.83423,1.10849
			c9.71906,2.43839,15.53409,1.8432,15.53409-1.59103c0-1.53088-1.56287-2.46271-6.42303-3.82593
			c-11.99619-3.36639-16.47745-8.16129-17.0112-18.20032C338.2464,271.62241,348.00381,266.97855,373.24802,270.67392
			 M167.42401,270.26816l3.32799,0.32382v7.68002v7.67999l-5.4528,0.25601l-5.4528,0.25598l-0.31487,19.64417
			c-0.17281,10.80447-0.43904,19.84769-0.59265,20.09601c-0.47743,0.77313-17.40799,0.56448-18.06079-0.22144
			c-0.37505-0.45184-0.6208-7.0733-0.74753-20.09601l-0.18816-19.42273l-5.04576-0.14719
			c-6.67007-0.19583-6.38463,0.18817-6.38463-8.59265v-7.33438L131.2,270.2016
			C135.84128,269.8765,163.93729,269.92767,167.42401,270.26816 M193.64224,270.74942
			c0.58496,0.58496,0.76161,54.40512,0.18176,55.34338c-0.3968,0.63998-17.06113,0.79871-18.00705,0.17151
			c-0.8192-0.54401-1.37344-25.7984-0.92673-42.30911l0.3661-13.56543l1.58719-0.23682
			C179.64545,269.73694,193.10721,270.21439,193.64224,270.74942 M282.36801,270.26306l3.07199,0.32892v7.68002v7.67999
			l-9.216,0.25601l-9.216,0.25598v2.30402v2.30399l5.888,0.25601l5.888,0.25601l0.14209,7.02335l0.14209,7.02338l-6.03009,0.14462
			l-6.03009,0.14465l-0.15872,1.92383c-0.20224,2.44351-0.55167,2.34497,9.88672,2.8096l8.70401,0.38657l0.14081,7.81439
			l0.14206,7.81442l-18.30911-0.13443l-18.30911-0.1344l-0.36224-2.048c-0.19969-1.12637-0.37633-13.728-0.39297-28.00381
			l-0.02942-25.95584l2.43199-0.19202C254.93633,269.87009,279.14368,269.9187,282.36801,270.26306 M309.58975,283.47775
			c-0.18814,0.18689-0.34174,2.14529-0.34174,4.35202V291.84h1.67807c3.36896,0,5.31201-2.58688,4.40576-5.8688
			C314.70593,283.70303,310.98111,282.08511,309.58975,283.47775"/>
	</g>
</g>
<g id="Fraction_Early">
</g>
<g id="CryptoStamp">
</g>
</svg>
