<?xml version="1.0" encoding="utf-8"?>
<svg version="1.1" id="Ebene_1" xmlns="http://www.w3.org/2000/svg" xmlns:xlink="http://www.w3.org/1999/xlink" x="0px" y="0px"
	 viewBox="0 0 512 512" style="enable-background:new 0 0 512 512;" xml:space="preserve">
<style type="text/css">
	.st0{fill:#784FFE;}
	.st1{fill-rule:evenodd;clip-rule:evenodd;fill:#FFFFFF;}
</style>
<g id="zapper">
	<rect class="st0" width="512" height="512"/>
	<path id="logo_interior" class="st1" d="M144.3,173.7l168.2-0.8c21.2-0.1,33.9,23.5,22.2,41.2l-0.6,0.9
		c-11.7,17.7,1,41.3,22.2,41.2l31.2-0.2c21.3-0.1,34,23.7,22.1,41.3l-19.6,29.1c-4.9,7.2-13,11.6-21.8,11.7l-169,1.1
		c-21.3,0.1-34.1-23.7-22.1-41.4l0,0c11.9-17.6-0.7-41.4-21.9-41.4l-30.7,0c-21.2,0-33.8-23.7-22-41.3l20-29.6
		C127.3,178.1,135.5,173.8,144.3,173.7z"/>
</g>
</svg>
