<?xml version="1.0" encoding="utf-8"?>
<svg version="1.1" id="NFT" xmlns="http://www.w3.org/2000/svg" xmlns:xlink="http://www.w3.org/1999/xlink" x="0px" y="0px"
	 viewBox="0 0 512 512" style="enable-background:new 0 0 512 512;" xml:space="preserve">
<style type="text/css">
	.st0{fill:url(#bg_00000141430696338578936050000002933403351964479927_);}
	.st1{fill:#FFFFFF;}
	.st2{fill-rule:evenodd;clip-rule:evenodd;fill:#FFFFFF;}
	.st3{fill:url(#bg_00000150094127788837914140000010106131702632663194_);}
	.st4{fill:url(#bg_00000137823493834513481720000004772897639617245101_);}
</style>
<rect id="bg_00000028293146051631884190000003453202680108365712_" width="512" height="512"/>
<path id="Zeroalpha_Logo" class="st1" d="M317.83466,278.17316c0,59.47348-74.66986,86.02444-112.21498,39.89935
	c36.08261-36.08261,72.17043-72.17041,108.25792-108.25821c2.67984,7.21254,3.95706,14.33002,3.95706,22.02344V278.17316z
	 M195.38675,300.19141c-2.67952-7.20737-3.95677-14.32971-3.95677-22.01825v-46.33542
	c0-59.47836,74.66957-86.02963,112.21986-39.90456C267.56235,228.021,231.47455,264.10391,195.38675,300.19141 M337.38373,302.36008
	V148.73311h-19.54907v29.18097c-50.12219-58.75233-146.28419-23.30559-146.28419,53.92366v46.33542
	c0,81.23126,104.56648,114.18863,151.14769,47.64291c8.97037,19.26843,28.14371,31.73517,49.39584,32.11575
	c0.12015,0,0.23541,0,0.35556,0.00491v-19.87955C352.98059,337.71176,337.38373,321.82904,337.38373,302.36008"/>
</svg>
