<?xml version="1.0" encoding="utf-8"?>
<svg version="1.1" id="Ebene_1" xmlns="http://www.w3.org/2000/svg" xmlns:xlink="http://www.w3.org/1999/xlink" x="0px" y="0px"
	 viewBox="0 0 512 512" style="enable-background:new 0 0 512 512;" xml:space="preserve">
<style type="text/css">
	.st0{fill:#FFFFFF;}
</style>
<g id="zeroalpha">
	<rect id="bg_00000127750774568694343180000007851306464895414688_" width="512" height="512"/>
	<path id="Zeroalpha_Logo_00000084508125546514621040000012984864090910581161_" class="st0" d="M317.8,278.2
		c0,59.5-74.7,86-112.2,39.9c36.1-36.1,72.2-72.2,108.3-108.3c2.7,7.2,4,14.3,4,22V278.2z M195.4,300.2c-2.7-7.2-4-14.3-4-22v-46.3
		c0-59.5,74.7-86,112.2-39.9C267.6,228,231.5,264.1,195.4,300.2 M337.4,302.4V148.7h-19.5v29.2c-50.1-58.8-146.3-23.3-146.3,53.9
		v46.3c0,81.2,104.6,114.2,151.1,47.6c9,19.3,28.1,31.7,49.4,32.1c0.1,0,0.2,0,0.4,0v-19.9C353,337.7,337.4,321.8,337.4,302.4"/>
</g>
</svg>
